<?xml version="1.0" encoding="utf-8" standalone="no"?>
<!DOCTYPE svg PUBLIC "-//W3C//DTD SVG 1.1//EN"
  "http://www.w3.org/Graphics/SVG/1.1/DTD/svg11.dtd">
<!-- Created with matplotlib (http://matplotlib.org/) -->
<svg height="288pt" version="1.1" viewBox="0 0 432 288" width="432pt" xmlns="http://www.w3.org/2000/svg" xmlns:xlink="http://www.w3.org/1999/xlink">
 <defs>
  <style type="text/css">
*{stroke-linecap:butt;stroke-linejoin:round;}
  </style>
 </defs>
 <g id="figure_1">
  <g id="patch_1">
   <path d="
M0 288
L432 288
L432 0
L0 0
z
" style="fill:#ffffff;"/>
  </g>
  <g id="axes_1">
   <g id="patch_2">
    <path d="
M40.1063 250.2
L421.2 250.2
L421.2 27.1119
L40.1063 27.1119
z
" style="fill:#ffffff;"/>
   </g>
   <g id="patch_3">
    <path clip-path="url(#p3cf10670b2)" d="
M40.1063 250.2
L40.1063 250.2
L421.2 250.2
L421.2 250.2
z
" style="fill:#808080;opacity:0.2;stroke:#808080;stroke-linejoin:miter;"/>
   </g>
   <g id="line2d_1">
    <path clip-path="url(#p3cf10670b2)" d="
M40.4238 150.94
L40.7767 150.905
L41.1296 151.119
L42.8939 150.8
L43.2467 151.174
L43.5996 151.199
L43.9525 150.93
L44.3053 150.868
L44.6582 151.024
L45.0111 150.81
L45.3639 150.958
L45.7168 151.24
L46.0697 151.167
L46.4225 150.839
L46.7754 150.835
L47.1283 151.091
L47.4811 151.099
L47.834 150.842
L48.5397 150.841
L48.8926 151.16
L49.2454 151.132
L49.5983 151.511
L49.9512 150.825
L50.304 151.08
L50.6569 151.015
L51.0098 150.813
L51.7155 150.66
L52.0684 151.296
L52.4212 151.256
L52.7741 150.954
L53.127 150.799
L53.4798 150.926
L53.8327 150.809
L54.1855 150.571
L54.5384 150.652
L54.8913 151.191
L56.3027 150.732
L56.6556 150.844
L57.0085 151.177
L57.3613 150.788
L58.0671 150.892
L58.4199 150.566
L58.7728 150.807
L59.1257 150.693
L59.4785 150.859
L59.8314 150.837
L60.1842 151.066
L60.5371 150.523
L60.89 151.006
L61.2428 150.685
L61.9486 150.833
L62.3014 151.092
L62.6543 150.828
L63.0072 151.277
L63.36 150.772
L63.7129 151.114
L64.0658 150.704
L64.4186 150.822
L64.7715 150.718
L65.1243 150.775
L65.4772 150.493
L65.8301 150.847
L66.1829 150.764
L66.5358 151.056
L68.653 150.464
L69.0059 151.142
L69.3587 150.809
L70.0645 150.769
L70.4173 151.041
L70.7702 151.117
L71.123 150.771
L71.4759 150.775
L71.8288 150.475
L72.5345 150.727
L73.946 150.81
L74.2988 150.604
L74.6517 150.777
L75.0046 150.747
L75.3574 151.023
L75.7103 150.662
L76.0632 150.831
L76.416 150.74
L76.7689 150.496
L77.8275 151.157
L78.1803 150.569
L78.5332 150.533
L78.8861 150.692
L79.2389 151.129
L79.5918 150.818
L79.9447 151.112
L80.2975 150.54
L80.6504 150.621
L81.0033 150.979
L81.3561 150.736
L82.0618 150.742
L83.1204 150.676
L83.4733 150.854
L83.8262 150.732
L84.5319 150.785
L84.8848 150.933
L85.5905 150.782
L86.2962 150.655
L87.002 150.762
L87.3548 150.65
L88.0605 150.856
L88.4134 150.602
L88.7663 150.52
L89.1191 150.745
L89.472 151.157
L89.8249 151.211
L90.1777 150.634
L90.5306 150.651
L90.8835 151.093
L91.5892 150.442
L91.9421 150.801
L92.6478 150.499
L93.0007 150.995
L93.7064 150.437
L94.4121 151.065
L94.765 150.518
L95.1178 150.795
L95.4707 150.762
L95.8236 150.469
L96.1764 151.064
L96.5293 150.494
L96.8822 150.882
L97.235 150.912
L97.9408 150.627
L98.2936 150.719
L98.6465 150.35
L98.9993 151.069
L99.3522 150.756
L99.7051 150.77
L100.058 151.091
L100.411 150.644
L100.764 151.033
L101.117 150.721
L101.822 150.651
L103.234 150.684
L103.587 150.741
L103.939 150.625
L104.292 150.344
L104.645 151.038
L104.998 151.102
L105.351 150.641
L105.704 150.758
L106.057 150.669
L106.41 151.078
L106.762 150.703
L107.115 150.68
L107.468 150.957
L107.821 150.621
L108.174 151.002
L108.527 151.062
L108.88 150.562
L109.232 150.726
L109.585 151.093
L109.938 150.843
L110.291 151.131
L110.644 150.878
L110.997 151.257
L111.35 150.646
L112.408 150.784
L112.761 150.546
L113.114 150.676
L113.467 150.969
L113.82 150.696
L114.173 150.66
L114.525 151.279
L114.878 150.819
L115.231 151.095
L115.584 150.757
L115.937 151.205
L116.29 151.157
L116.643 150.943
L116.995 151.147
L117.348 150.668
L117.701 151.062
L118.407 151.252
L118.76 150.778
L119.113 151.124
L119.465 150.843
L119.818 150.711
L120.171 151.029
L120.524 151.524
L120.877 150.884
L121.23 151.301
L121.583 150.965
L122.288 150.631
L122.641 150.992
L123.347 150.885
L123.7 150.851
L124.053 150.671
L124.406 150.837
L124.758 151.276
L125.111 151.284
L125.464 150.724
L125.817 151.393
L126.17 150.694
L126.523 150.766
L126.876 151.266
L127.581 150.664
L127.934 150.719
L128.287 151.653
L128.64 150.619
L128.993 150.805
L129.346 150.754
L129.699 151.138
L130.051 150.703
L130.404 151.285
L130.757 150.99
L131.11 151.367
L131.463 151.068
L131.816 151.68
L132.169 150.824
L132.521 151.632
L132.874 150.927
L133.227 150.885
L133.58 150.968
L133.933 151.196
L134.286 150.67
L134.992 151.003
L135.344 150.861
L135.697 150.985
L136.05 151.32
L136.403 150.878
L136.756 150.861
L137.462 150.977
L137.814 150.725
L138.167 150.989
L138.52 150.99
L138.873 150.873
L139.226 151.629
L139.579 150.871
L139.932 151.746
L140.99 151.015
L141.343 150.891
L142.402 150.952
L142.755 151.178
L143.107 151.016
L143.46 151.731
L143.813 150.792
L144.872 151.942
L145.225 150.929
L145.577 151.054
L145.93 151.004
L146.283 151.677
L146.636 151.06
L146.989 151.66
L147.342 151.348
L148.048 150.958
L148.4 151.071
L148.753 151.96
L149.106 151.069
L149.459 151.438
L149.812 151.056
L150.165 151.292
L150.518 151.086
L150.87 151.088
L151.223 151.719
L151.576 151.588
L152.282 151.835
L152.988 151.976
L153.34 151.407
L153.693 152.069
L154.046 151.931
L154.399 150.962
L154.752 151.802
L155.105 151.687
L155.458 151.443
L155.811 151.524
L156.163 151.081
L156.516 151.711
L156.869 151.099
L157.222 152.042
L157.575 151.647
L158.281 151.651
L158.633 152.063
L159.339 151.679
L160.045 151.561
L160.398 151.895
L160.751 151.823
L161.104 152.147
L161.456 151.699
L161.809 152.054
L162.162 152.017
L162.515 151.678
L162.868 151.703
L163.221 152.198
L163.574 151.769
L163.926 151.742
L164.279 151.964
L164.632 152.001
L164.985 151.65
L166.044 151.752
L166.396 151.554
L166.749 151.631
L167.102 152.118
L167.455 152.137
L167.808 151.881
L168.161 152.207
L168.867 151.774
L169.219 151.972
L169.572 151.869
L169.925 152.351
L170.278 152.277
L170.631 151.654
L171.689 151.926
L172.042 152.293
L172.395 151.678
L172.748 151.884
L173.101 151.842
L173.454 151.96
L174.16 152.39
L174.512 151.951
L175.218 151.956
L175.571 151.798
L176.63 152.359
L176.982 151.999
L177.335 152.09
L178.394 151.995
L178.747 152.204
L179.452 151.964
L179.805 151.854
L180.158 152.012
L180.511 152.033
L180.864 152.166
L181.923 152.09
L182.275 152.291
L183.334 152.03
L183.687 152.186
L184.04 152.072
L184.393 152.471
L184.745 152.295
L185.098 151.873
L185.451 152.317
L185.804 152.086
L186.157 152.629
L186.863 152.294
L187.215 152.231
L187.921 152.304
L188.274 152.638
L188.627 152.742
L188.98 152.219
L189.333 152.733
L189.686 152.24
L190.038 152.087
L190.391 152.521
L191.097 152.111
L191.803 152.78
L192.508 152.472
L192.861 152.795
L193.214 152.462
L193.567 152.288
L193.92 152.681
L194.273 152.594
L194.979 152.816
L195.684 152.355
L196.037 152.728
L196.39 152.313
L196.743 153.003
L197.096 152.417
L197.449 152.777
L198.154 152.875
L198.507 152.565
L198.86 152.875
L199.213 152.92
L199.566 152.646
L199.919 152.603
L200.271 152.423
L200.624 152.678
L201.33 152.454
L202.389 152.987
L202.742 152.611
L203.094 152.631
L203.447 152.535
L203.8 152.828
L204.153 152.888
L204.506 152.6
L205.212 152.583
L205.564 153.061
L205.917 152.709
L206.623 152.763
L206.976 153.005
L207.329 152.817
L207.682 152.997
L208.387 152.803
L208.74 152.752
L209.093 152.816
L209.446 153.165
L209.799 152.785
L210.152 152.888
L210.505 152.706
L210.857 152.882
L212.269 152.86
L212.622 153.337
L213.327 152.808
L213.68 153.712
L214.033 153.751
L214.386 152.963
L214.739 153.636
L215.092 153.025
L215.445 153.945
L215.798 153.612
L216.15 152.985
L216.503 153.745
L216.856 153.273
L217.562 153.614
L218.268 153.026
L218.62 152.972
L218.973 153.539
L219.326 153.677
L219.679 153.588
L220.032 153.208
L220.385 153.564
L220.738 153.063
L221.09 153.726
L221.443 153.549
L221.796 153.052
L222.149 153.807
L222.855 153.547
L223.208 153.829
L223.561 153.491
L224.619 154.029
L224.972 153.692
L225.325 154.106
L225.678 153.675
L226.031 153.723
L226.383 154.286
L226.736 153.956
L227.089 153.846
L228.148 154.179
L228.501 153.862
L228.854 154.013
L229.206 154.384
L229.559 154.092
L229.912 154.228
L230.265 154.123
L230.618 154.352
L230.971 153.947
L231.324 154.046
L231.676 153.804
L232.029 154.106
L232.382 153.925
L232.735 154.485
L233.088 154.077
L233.441 154.365
L234.499 154.609
L234.852 154.16
L235.205 154.111
L235.558 154.198
L235.911 154.773
L236.264 154.054
L237.322 154.705
L237.675 154.35
L238.028 154.668
L238.734 154.3
L239.087 154.303
L239.439 154.017
L239.792 154.742
L240.498 154.431
L240.851 155.174
L241.204 154.626
L241.557 154.353
L241.91 154.759
L242.262 154.413
L242.615 155.181
L242.968 154.342
L243.321 154.821
L243.674 154.558
L244.38 154.528
L244.732 155.369
L245.085 154.631
L245.438 154.936
L245.791 154.944
L246.497 154.598
L246.85 154.637
L247.202 154.983
L247.555 155.032
L247.908 155.654
L248.261 154.585
L248.614 154.794
L248.967 155.355
L249.32 155.641
L249.673 154.899
L250.025 155.169
L250.378 155.775
L251.084 155.243
L251.437 155.962
L251.79 155.361
L252.495 155.788
L252.848 155.621
L253.201 155.878
L253.907 155.121
L254.26 155.413
L254.965 155.34
L255.318 155.694
L256.377 155.61
L256.73 155.697
L257.083 155.616
L257.436 155.729
L257.788 156.02
L258.141 155.695
L258.494 155.633
L258.847 155.794
L259.2 155.654
L259.553 155.958
L259.906 155.959
L260.258 155.664
L260.611 156.069
L260.964 155.863
L261.67 156.041
L262.023 156.251
L262.376 156.135
L262.729 156.522
L263.081 155.967
L263.434 156.165
L263.787 156.593
L264.14 156.013
L264.493 156.739
L264.846 156.067
L265.199 156.352
L265.551 156.361
L265.904 156.197
L266.257 156.351
L266.61 156.073
L267.316 156.956
L267.669 156.438
L268.021 156.364
L268.727 156.964
L269.08 156.324
L269.433 157.097
L269.786 156.479
L270.492 156.323
L270.844 157.446
L271.197 157.166
L271.55 157.207
L271.903 157.081
L272.256 157.508
L272.609 157.126
L273.314 156.968
L273.667 157.453
L274.02 157.136
L274.373 157.057
L274.726 157.587
L275.079 157.111
L275.432 157.419
L275.785 157.38
L276.137 157.123
L276.843 157.038
L277.549 157.696
L277.902 157.474
L278.255 157.787
L278.607 157.38
L278.96 157.495
L279.313 157.809
L279.666 157.701
L280.019 157.931
L280.372 157.85
L280.725 157.41
L281.43 157.741
L281.783 157.742
L282.136 157.484
L282.489 158.16
L282.842 157.879
L283.548 157.923
L283.9 158.021
L284.253 158.355
L284.606 157.976
L285.312 157.722
L285.665 158.019
L286.018 157.884
L286.723 158.114
L287.429 158.078
L287.782 158.565
L288.135 158.313
L288.488 157.89
L289.193 158.418
L289.546 158.266
L289.899 158.341
L290.252 159.128
L290.605 158.208
L290.958 159.241
L291.311 159.198
L291.663 158.383
L292.016 158.331
L292.369 158.463
L292.722 158.942
L293.075 158.905
L293.428 159.135
L293.781 158.557
L294.486 159.102
L294.839 158.764
L295.192 159.698
L295.545 158.877
L295.898 159.379
L296.251 159.501
L296.604 159.36
L296.956 159.359
L297.309 159.046
L297.662 159.346
L298.015 159.485
L298.368 159.876
L298.721 159.974
L299.426 159.462
L300.485 159.776
L301.544 159.773
L302.249 159.667
L302.602 160.18
L302.955 159.761
L303.308 160.135
L303.661 159.894
L304.719 160.275
L305.072 160.283
L305.425 160.107
L305.778 160.371
L306.131 159.952
L306.484 160.397
L306.837 160.145
L307.189 160.252
L307.542 160.242
L307.895 160.901
L308.601 160.29
L308.954 160.59
L309.307 161.561
L309.66 160.437
L310.012 160.944
L310.718 161.049
L311.424 161.233
L311.777 161.699
L312.13 161.237
L312.482 161.076
L312.835 161.392
L313.188 161.875
L313.541 161.4
L313.894 161.624
L314.247 161.408
L314.952 162.002
L315.658 161.549
L316.011 162.221
L316.364 161.882
L316.717 162.298
L317.07 162.079
L317.423 162.461
L317.775 162.367
L318.128 162.104
L318.481 162.05
L318.834 162.171
L319.187 162.111
L319.54 161.896
L319.893 162.55
L320.245 162.12
L320.951 162.588
L321.304 162.836
L322.01 162.757
L322.363 162.961
L323.068 162.864
L323.774 163.174
L324.127 163.127
L324.48 163.54
L324.833 163.238
L325.186 163.291
L325.538 163.215
L326.597 163.418
L326.95 163.406
L327.303 163.674
L327.656 163.543
L328.714 163.739
L329.067 164.064
L329.42 163.621
L329.773 163.906
L330.126 163.803
L330.479 164.263
L330.831 163.963
L331.184 164.45
L331.537 164.231
L331.89 164.569
L332.243 164.071
L332.596 164.024
L332.949 164.346
L333.301 164.02
L333.654 164.641
L334.007 164.384
L334.36 164.553
L334.713 164.365
L335.066 165.112
L335.419 164.46
L335.771 164.837
L336.124 164.778
L336.477 165.255
L336.83 165.079
L337.183 165.062
L337.889 165.811
L338.242 165.389
L338.947 165.489
L339.3 165.791
L339.653 165.783
L340.006 165.373
L340.359 165.959
L340.712 165.901
L341.064 166.56
L341.417 166.368
L341.77 165.848
L342.123 166.066
L342.476 166.897
L342.829 166.193
L343.182 166.483
L343.535 166.306
L343.887 166.875
L344.24 167.176
L344.593 166.796
L344.946 167.229
L345.299 167.397
L346.005 167.003
L346.357 167.036
L346.71 167.408
L347.063 167.17
L347.416 167.133
L347.769 167.947
L348.122 167.321
L348.827 167.669
L349.18 168.54
L349.533 167.733
L349.886 168.438
L350.239 168.568
L350.592 167.861
L351.298 167.649
L351.65 168.796
L352.003 168.492
L352.356 168.914
L352.709 167.8
L353.062 168.603
L354.12 169.272
L354.473 168.795
L355.885 168.947
L356.238 169.331
L356.59 169.009
L356.943 169.244
L357.296 168.811
L357.649 169.498
L358.002 169.039
L358.355 169.379
L359.413 169.533
L359.766 169.541
L360.119 169.17
L360.472 169.56
L360.825 169.558
L361.178 169.888
L361.531 169.811
L361.883 169.971
L362.236 169.858
L362.589 170.22
L362.942 170.003
L363.648 170.603
L364.001 170.437
L364.354 170.681
L365.059 170.631
L365.412 170.878
L365.765 170.691
L366.118 171.568
L366.471 170.99
L366.824 171.112
L367.176 171.553
L367.529 170.765
L367.882 171.539
L368.235 171.51
L368.588 171.648
L368.941 171.361
L369.294 171.801
L369.646 171.572
L370.705 171.668
L371.411 171.921
L371.764 171.902
L372.117 171.58
L372.469 172.169
L372.822 172.15
L373.175 171.94
L373.528 172.392
L374.234 172.228
L374.939 172.83
L375.292 172.712
L375.645 172.758
L375.998 173.446
L376.351 172.963
L376.704 172.842
L377.057 173.348
L377.41 173.305
L377.762 172.947
L378.468 173.471
L379.174 173.28
L379.527 173.662
L379.88 173.355
L380.232 174.03
L380.585 173.577
L380.938 173.306
L381.291 173.238
L381.644 173.619
L382.35 173.944
L382.702 173.87
L383.055 173.647
L383.408 174.118
L383.761 174.023
L384.114 173.736
L384.467 174.397
L384.82 174.559
L385.173 174.057
L385.525 175.09
L386.231 174.494
L386.584 175.114
L386.937 175.221
L387.643 175.079
L387.995 175.547
L388.348 174.933
L388.701 175.201
L389.054 174.797
L389.407 175.185
L389.76 174.871
L390.113 175.418
L390.465 175.662
L390.818 175.32
L391.171 175.879
L391.524 175.405
L391.877 175.902
L392.23 175.72
L392.936 175.783
L393.288 175.558
L393.641 176.663
L393.994 176.132
L394.347 175.955
L394.7 176.131
L395.053 176.948
L395.406 176.461
L395.758 177.052
L396.111 176.764
L396.464 176.645
L397.17 177.25
L397.523 177.373
L397.876 177.272
L398.229 177.665
L398.581 177.248
L398.934 177.674
L399.287 177.622
L399.64 177.406
L399.993 177.799
L400.346 178.453
L400.699 177.566
L401.051 177.614
L401.404 177.933
L401.757 178.494
L402.11 177.669
L402.463 178.646
L402.816 178.242
L403.169 178.723
L403.521 177.901
L403.874 178.01
L404.227 178.616
L405.286 179.254
L405.639 179.02
L405.992 179.207
L406.344 178.757
L406.697 178.978
L407.05 179.738
L407.403 179.227
L407.756 179.774
L408.109 178.944
L408.462 179.048
L408.814 179.294
L409.167 179.315
L409.52 180.034
L409.873 179.662
L410.226 179.606
L410.579 180.505
L410.932 180.488
L411.285 180.004
L411.637 180.6
L411.99 180.754
L412.343 180.329
L412.696 180.861
L413.049 180.774
L413.402 181.23
L413.755 180.804
L414.107 180.993
L414.46 180.682
L414.813 181.319
L415.166 181.102
L416.225 181.099
L416.577 181.854
L416.93 181.271
L417.283 181.472
L417.636 181.101
L417.989 182.516
L418.342 181.729
L418.695 182.581
L419.048 181.775
L419.4 182.735
L419.753 182.467
L420.106 181.763
L420.459 182.58
L420.812 182.076
L420.812 182.076" style="fill:none;stroke:#0000ff;stroke-linecap:square;"/>
   </g>
   <g id="line2d_2">
    <path clip-path="url(#p3cf10670b2)" d="
M40.4238 151.542
L40.7767 151.975
L41.1296 151.56
L41.4824 151.914
L41.8353 151.359
L42.1882 151.271
L42.541 151.496
L42.8939 151.11
L43.2467 151.476
L43.9525 151.462
L44.3053 151.553
L45.0111 151.393
L45.3639 151.626
L46.0697 151.302
L46.4225 151.905
L46.7754 151.485
L47.1283 151.917
L47.4811 151.275
L47.834 151.547
L48.1868 150.836
L48.5397 151.14
L48.8926 151.115
L49.9512 151.796
L50.304 151.257
L50.6569 151.312
L51.0098 151.193
L51.3626 151.491
L51.7155 151.388
L52.0684 151.657
L52.4212 151.425
L52.7741 151.772
L53.127 151.429
L53.4798 151.432
L53.8327 151.603
L54.1855 151.538
L54.5384 151.86
L54.8913 151.41
L55.2441 151.473
L55.597 151.823
L55.9499 151.86
L56.3027 151.225
L56.6556 151.47
L57.7142 151.313
L58.0671 150.692
L58.7728 151.718
L59.1257 150.864
L59.4785 151.467
L59.8314 151.353
L60.1842 151.505
L60.89 151.456
L61.2428 151.518
L61.5957 151.122
L61.9486 151.096
L62.3014 151.381
L62.6543 151.258
L63.0072 151.72
L63.36 150.744
L63.7129 150.866
L64.0658 151.272
L64.4186 151.139
L64.7715 150.726
L65.1243 151.275
L65.4772 150.921
L66.1829 151.211
L66.5358 150.724
L66.8887 151.097
L67.2415 150.766
L67.5944 150.876
L67.9473 151.654
L68.3001 151.49
L68.653 151.187
L69.0059 150.675
L69.3587 150.755
L69.7116 150.693
L70.0645 150.962
L70.4173 151.047
L71.123 150.837
L71.4759 150.557
L71.8288 150.87
L72.1816 150.748
L72.5345 151.714
L72.8874 150.862
L73.2402 151.469
L73.5931 150.8
L73.946 151.769
L74.2988 150.811
L74.6517 150.707
L75.0046 151.124
L75.3574 150.594
L76.416 150.677
L76.7689 150.583
L77.1217 150.732
L77.4746 151.638
L77.8275 151.675
L78.1803 150.842
L78.5332 150.96
L78.8861 151.355
L79.2389 150.779
L79.5918 150.747
L80.6504 151.345
L81.0033 151.489
L81.3561 151.498
L81.709 151.247
L82.0618 150.648
L82.4147 150.96
L82.7676 151.054
L83.1204 151.457
L83.4733 150.922
L83.8262 151.748
L84.179 151.352
L84.5319 151.381
L84.8848 151.757
L85.2376 151.328
L85.5905 151.413
L86.2962 151.378
L86.6491 151.755
L87.002 151.125
L87.3548 151.11
L87.7077 151.344
L88.0605 150.857
L88.4134 151.276
L88.7663 150.92
L89.1191 150.98
L89.472 151.311
L89.8249 151.043
L90.1777 151.628
L90.5306 151.195
L90.8835 151.01
L91.9421 151.223
L92.2949 151.821
L92.6478 150.763
L93.0007 150.729
L93.3535 151.231
L93.7064 151.388
L94.4121 151.266
L94.765 150.767
L95.1178 150.827
L95.4707 151.387
L95.8236 151.159
L96.1764 151.309
L96.5293 151.126
L96.8822 151.588
L97.235 151.805
L97.5879 151.719
L97.9408 151.413
L98.2936 151.759
L98.6465 151.389
L98.9993 151.686
L99.3522 151.422
L99.7051 151.44
L100.058 151.322
L100.411 151.863
L100.764 151.024
L101.117 151.407
L101.469 150.9
L101.822 151.547
L102.175 151.442
L102.528 151.488
L102.881 151.977
L103.234 151.474
L103.587 151.436
L103.939 151.921
L104.292 151.926
L104.645 151.391
L104.998 151.464
L105.351 151.859
L105.704 151.48
L106.057 151.422
L106.41 151.9
L106.762 151.344
L107.115 151.162
L107.821 151.438
L108.174 151.218
L108.527 151.323
L108.88 151.069
L109.232 151.11
L109.585 150.988
L109.938 151.361
L110.291 151.476
L110.644 151.709
L110.997 151.322
L111.35 151.649
L111.702 151.423
L112.055 151.396
L112.408 151.67
L112.761 151.354
L113.114 151.282
L113.467 151.788
L113.82 151.756
L114.173 151.379
L114.878 151.346
L115.231 151.383
L115.584 151.763
L115.937 151.415
L116.29 151.927
L116.643 151.379
L116.995 151.429
L117.348 151.343
L117.701 151.735
L118.054 151.408
L118.407 151.896
L118.76 151.326
L119.113 151.944
L119.465 151.517
L119.818 151.628
L120.171 152.008
L120.524 151.799
L120.877 151.748
L121.23 152.061
L121.936 151.683
L122.288 151.62
L122.641 152.009
L122.994 151.434
L123.7 151.646
L124.053 151.778
L124.406 151.668
L124.758 151.882
L125.111 151.751
L125.464 151.792
L125.817 151.667
L126.17 151.673
L126.523 151.836
L126.876 151.849
L127.229 152.053
L127.581 152.097
L127.934 151.675
L128.287 152.198
L128.64 151.559
L129.699 151.619
L130.404 152.072
L131.11 151.676
L131.463 152.078
L131.816 151.466
L132.169 151.559
L132.521 151.417
L132.874 151.739
L133.227 151.726
L133.58 151.902
L133.933 151.516
L134.286 151.878
L134.639 151.9
L134.992 151.563
L135.344 152.086
L135.697 151.845
L136.05 152.09
L136.403 151.599
L136.756 152.075
L137.109 151.675
L137.814 151.641
L138.167 152.058
L138.52 151.697
L138.873 151.604
L139.226 151.802
L139.579 151.696
L139.932 151.865
L140.285 151.771
L140.637 152.096
L141.343 152.17
L141.696 151.712
L143.107 151.952
L143.46 152.441
L144.166 151.759
L144.519 152.391
L144.872 152.037
L145.225 151.937
L145.93 152.082
L146.636 152.03
L146.989 151.777
L147.342 152.421
L147.695 152.569
L148.048 152.257
L148.4 152.511
L149.459 152.239
L149.812 152.498
L150.165 152.097
L151.223 152.031
L151.576 152.558
L151.929 151.978
L152.635 152.012
L152.988 152.774
L153.34 152.114
L153.693 152.086
L154.046 152.447
L154.399 152.404
L154.752 152.077
L155.105 152.072
L155.458 152.535
L155.811 152.165
L156.163 152.177
L156.516 152.585
L156.869 152.056
L157.222 152.345
L157.575 152.434
L157.928 152.38
L158.281 152.509
L158.633 152.95
L158.986 152.213
L159.339 153.063
L159.692 153.233
L160.045 152.746
L160.398 152.819
L160.751 152.381
L161.104 152.148
L161.456 153.194
L161.809 153.187
L162.162 152.236
L162.868 152.432
L163.221 152.412
L163.574 152.812
L163.926 152.567
L164.279 152.457
L164.632 153.212
L164.985 152.427
L165.338 152.856
L165.691 152.573
L166.044 153.362
L166.396 153.059
L166.749 152.421
L167.102 153.352
L167.455 153.199
L167.808 152.493
L168.161 152.672
L168.514 152.521
L168.867 152.569
L169.219 152.944
L169.572 152.887
L170.278 153.592
L170.631 153.004
L170.984 153.3
L172.395 153.32
L172.748 153.538
L173.101 152.931
L173.454 153.504
L173.807 153.493
L174.16 153.273
L174.512 153.511
L174.865 152.954
L175.218 153.641
L175.571 152.897
L175.924 153.576
L176.277 153.06
L176.63 153.537
L176.982 152.991
L177.335 152.809
L177.688 153.447
L178.041 153.092
L179.1 153.328
L179.452 152.561
L179.805 153.102
L180.158 153.373
L180.511 153.265
L180.864 153.637
L181.217 153.517
L181.57 153.136
L182.628 153.094
L182.981 153.573
L183.334 153.54
L183.687 153.101
L184.04 153.551
L184.393 153.429
L184.745 153.79
L185.098 153.258
L185.804 153.472
L186.157 153.168
L186.51 153.304
L186.863 153.698
L187.215 153.376
L188.274 153.439
L188.627 153.428
L188.98 153.238
L189.333 153.614
L189.686 153.726
L190.391 153.357
L190.744 153.783
L191.097 153.882
L191.45 153.791
L192.156 153.915
L192.508 153.482
L193.214 153.488
L193.567 153.495
L193.92 153.697
L194.273 153.446
L194.626 153.445
L194.979 153.839
L195.331 153.945
L195.684 153.462
L196.037 153.958
L196.39 153.971
L196.743 153.474
L197.096 153.615
L197.449 154.066
L198.154 153.892
L198.507 154.173
L198.86 153.648
L199.566 154.175
L199.919 153.872
L200.271 154.326
L200.624 154.014
L200.977 153.98
L201.33 154.209
L201.683 154.717
L202.036 154.18
L202.389 153.972
L202.742 154.06
L203.447 154.454
L203.8 153.815
L204.506 153.758
L204.859 154.164
L205.212 153.775
L205.564 154.168
L206.27 154.013
L206.623 154.319
L206.976 153.782
L207.329 154.192
L207.682 154.226
L208.035 153.803
L208.387 153.996
L208.74 153.833
L209.093 154.422
L209.446 153.847
L209.799 153.826
L210.152 154.03
L210.505 154.697
L210.857 155.084
L211.21 154.251
L211.563 153.99
L211.916 154.393
L212.269 154.144
L212.622 154.08
L212.975 154.934
L213.68 154.904
L214.033 154.114
L214.386 155.193
L214.739 154.874
L215.092 154.26
L215.445 154.441
L215.798 155.159
L216.15 154.981
L216.503 155.003
L217.209 154.295
L217.562 154.543
L217.915 154.286
L218.268 155.1
L218.62 155.223
L218.973 154.858
L219.326 155.099
L219.679 155.14
L220.032 155.295
L220.385 154.966
L220.738 155.067
L221.09 154.877
L221.443 155.189
L221.796 155.334
L222.502 155.218
L223.208 155.04
L223.561 155.664
L224.266 155.541
L224.619 155.477
L224.972 155.212
L225.325 155.261
L225.678 155.6
L226.383 155.165
L226.736 155.34
L227.089 155.333
L227.442 155.933
L227.795 155.581
L228.148 156.052
L228.501 155.527
L228.854 155.561
L229.206 155.404
L229.559 155.512
L229.912 155.487
L230.618 155.563
L230.971 155.924
L231.324 155.527
L232.382 155.807
L232.735 155.641
L233.088 156.171
L233.794 156.089
L234.146 155.67
L234.499 156.711
L234.852 155.94
L235.558 155.697
L235.911 156.565
L236.264 156.536
L236.969 156.794
L237.322 155.917
L237.675 155.955
L238.028 156.186
L238.381 155.939
L238.734 156.228
L239.087 156.116
L239.439 156.791
L239.792 156.685
L240.145 156.131
L240.498 156.029
L240.851 157.031
L241.557 156.416
L242.262 156.9
L242.615 156.667
L242.968 157.09
L243.321 156.764
L243.674 156.691
L244.027 157.252
L244.38 157.13
L244.732 156.732
L245.085 157.046
L245.438 157.134
L245.791 156.76
L246.144 157.19
L246.497 156.717
L247.202 157.128
L247.908 156.934
L248.614 157.009
L248.967 157.396
L249.32 157.395
L249.673 157.123
L250.025 157.14
L250.378 156.752
L250.731 157.023
L251.084 157.031
L251.437 157.743
L251.79 157.137
L252.143 157.152
L252.495 157.842
L252.848 157.433
L253.201 157.512
L253.554 157.375
L254.26 158.006
L254.613 157.3
L254.965 157.504
L255.318 158.14
L255.671 158.202
L256.024 157.524
L257.083 157.43
L257.436 158.144
L257.788 157.917
L258.494 158.455
L258.847 158.32
L259.2 157.963
L259.553 158.188
L259.906 158.178
L260.258 158.009
L260.611 158.164
L261.317 158.023
L261.67 158.15
L262.023 158.403
L262.376 158.3
L263.081 158.777
L263.434 158.477
L263.787 158.786
L264.14 158.407
L264.493 158.409
L264.846 158.811
L265.199 158.323
L265.551 158.333
L265.904 158.505
L266.61 158.306
L267.316 158.658
L267.669 159.146
L268.021 158.41
L268.374 158.647
L269.08 158.844
L269.433 158.714
L269.786 159.106
L270.139 158.748
L270.492 158.73
L270.844 159.126
L271.197 158.718
L271.55 159.707
L272.256 158.988
L272.609 158.784
L272.962 159.063
L273.314 158.752
L274.02 159.316
L274.373 158.822
L274.726 159.878
L275.079 159.049
L275.432 159.661
L275.785 159.167
L276.49 160.165
L276.843 159.196
L277.196 159.867
L277.549 159.508
L277.902 159.729
L278.255 159.77
L278.607 159.578
L278.96 159.791
L279.313 159.761
L279.666 160.162
L280.019 159.75
L280.372 159.795
L280.725 160.185
L281.43 159.868
L281.783 160.224
L282.489 160.142
L282.842 159.948
L283.195 160.411
L283.548 160.168
L284.253 160.238
L284.606 160.503
L284.959 160.119
L285.312 160.401
L285.665 160.451
L286.37 160.282
L286.723 160.335
L287.076 160.787
L287.429 160.874
L287.782 160.369
L288.135 160.844
L288.488 160.931
L288.84 160.488
L289.193 160.429
L289.546 161.55
L290.252 160.718
L290.605 160.782
L290.958 160.965
L291.311 160.629
L291.663 161.576
L292.016 160.855
L292.369 161.857
L292.722 160.907
L293.075 161.554
L293.428 161.648
L293.781 160.963
L294.133 161.605
L294.486 160.896
L294.839 161.607
L295.192 161.045
L295.545 162.067
L295.898 161.901
L296.604 161.997
L297.309 161.938
L297.662 162.307
L298.368 162.072
L298.721 162.27
L299.074 162.208
L299.426 162.025
L299.779 162.252
L300.132 162.328
L300.485 162.286
L300.838 162.461
L301.191 162.083
L301.544 161.905
L301.896 162.322
L302.249 162.411
L302.602 162.027
L302.955 161.953
L303.308 162.102
L303.661 162.575
L304.367 162.396
L304.719 162.804
L305.072 163.031
L305.425 163.087
L305.778 162.378
L306.131 162.34
L306.484 162.636
L306.837 162.2
L307.189 163.25
L307.895 163.317
L308.248 163.416
L308.601 162.379
L308.954 163.188
L309.307 163.512
L309.66 163.142
L310.012 163.426
L310.718 163.457
L311.071 163.086
L311.424 163.43
L311.777 163.577
L312.482 163.327
L312.835 163.359
L313.188 163.777
L313.541 163.705
L313.894 163.86
L314.247 163.359
L314.6 163.701
L314.952 163.58
L315.305 163.67
L315.658 163.554
L316.011 163.802
L316.364 163.752
L316.717 163.905
L317.07 163.778
L317.423 164.257
L317.775 163.951
L318.128 163.814
L318.481 164.709
L319.187 164.893
L319.54 164.361
L319.893 164.037
L320.598 164.982
L320.951 164.798
L321.304 163.934
L321.657 165.014
L322.01 164.877
L322.363 165.13
L322.715 165.058
L323.068 165.121
L323.421 164.722
L323.774 164.702
L324.48 165.326
L324.833 164.692
L325.538 165.326
L325.891 165.174
L326.244 165.201
L326.597 165.44
L326.95 165.515
L327.303 165.42
L327.656 165.766
L328.008 165.303
L329.067 165.549
L329.42 166.605
L329.773 166.346
L330.126 165.671
L330.479 165.571
L330.831 165.77
L331.184 165.715
L331.89 166.527
L332.243 166.676
L332.596 166.642
L332.949 166.774
L333.301 166.487
L333.654 166.546
L334.007 167.151
L334.36 166.399
L334.713 167.175
L335.066 166.901
L335.771 166.824
L336.124 167.079
L336.477 166.854
L336.83 167.261
L337.183 166.951
L337.889 167.332
L338.594 167.223
L338.947 167.545
L339.3 167.454
L339.653 168.412
L340.359 168.178
L340.712 167.766
L341.064 168.254
L341.417 168.439
L342.123 168.596
L342.829 169.056
L343.535 168.813
L343.887 169.065
L344.24 168.918
L344.593 168.976
L344.946 169.514
L345.299 168.941
L345.652 169.461
L346.357 169.319
L346.71 169.542
L347.063 170.302
L347.416 169.38
L347.769 170.16
L348.122 169.357
L348.475 170.179
L348.827 170.37
L349.18 169.828
L349.886 170.695
L350.239 170.372
L352.003 170.973
L352.356 171.394
L352.709 170.571
L353.062 171.346
L353.415 170.971
L353.768 171.335
L354.12 172.165
L354.473 171.979
L354.826 172.213
L355.179 171.93
L355.532 172.421
L355.885 171.486
L356.238 171.484
L356.59 172.165
L356.943 172.05
L357.296 172.63
L357.649 172.588
L358.002 172.383
L358.355 172.761
L358.708 172.945
L359.061 172.745
L359.413 172.84
L359.766 172.507
L360.119 172.564
L360.472 173.106
L360.825 173.155
L361.178 173.031
L361.531 172.668
L361.883 173.378
L362.236 173.301
L362.589 173.456
L362.942 173.782
L363.648 173.184
L364.001 174.217
L364.354 173.25
L364.706 174.217
L365.059 173.287
L365.412 174.146
L365.765 174.049
L366.118 174.498
L366.471 174.03
L366.824 174.102
L367.529 174.779
L367.882 174.408
L368.235 174.729
L368.588 174.805
L368.941 174.102
L369.294 174.698
L369.646 174.534
L369.999 174.551
L370.352 174.845
L371.411 174.954
L371.764 174.725
L372.117 175.057
L372.469 175.012
L372.822 176.07
L373.175 174.951
L373.528 175.822
L373.881 176.151
L374.234 175.94
L374.587 175.536
L374.939 175.869
L375.645 175.909
L375.998 175.665
L376.351 176.411
L376.704 176.634
L377.41 176.004
L377.762 176.408
L378.115 176.412
L378.468 176.158
L379.174 176.983
L379.527 176.584
L379.88 176.901
L380.232 176.833
L380.938 176.287
L381.291 176.749
L381.644 176.643
L381.997 177.456
L382.35 177.228
L382.702 177.692
L383.055 177.728
L383.408 177.134
L383.761 176.918
L384.114 177.585
L384.467 177.718
L384.82 177.731
L385.173 178.006
L385.525 177.56
L385.878 178.034
L386.231 176.976
L386.584 176.937
L386.937 177.774
L387.29 178.1
L387.643 178.224
L387.995 178.169
L388.348 177.572
L388.701 179.201
L389.054 177.98
L389.407 178.754
L389.76 178.125
L390.113 178.269
L390.465 178.921
L390.818 178.382
L391.171 178.671
L391.877 178.201
L392.23 178.825
L392.936 178.642
L393.288 179.51
L393.641 179.06
L393.994 179.491
L394.347 179.417
L394.7 179.579
L395.053 179.398
L395.406 180.174
L395.758 179.707
L396.111 179.559
L396.464 179.77
L396.817 179.754
L397.17 180.015
L397.523 180.475
L397.876 179.984
L398.229 181.205
L398.581 180.078
L398.934 180.191
L399.287 180.737
L399.64 180.232
L399.993 180.061
L400.346 180.885
L400.699 181.26
L401.051 180.537
L401.404 180.839
L401.757 181.515
L402.11 181.258
L402.463 181.252
L402.816 180.992
L403.169 181.536
L403.521 181.206
L403.874 181.554
L404.227 181.663
L404.58 181.602
L404.933 182.685
L405.286 182.801
L405.639 181.936
L405.992 182.01
L406.344 181.961
L406.697 182.817
L407.05 182.674
L407.756 183.242
L408.109 182.29
L408.462 182.098
L408.814 183.306
L409.167 182.237
L409.52 182.625
L409.873 183.632
L410.226 183.808
L410.579 181.912
L411.637 185.435
L411.99 181.496
L412.343 183.353
L412.696 184.266
L413.049 185.861
L413.402 182.935
L413.755 182.799
L414.46 187.062
L414.813 183.976
L415.166 182.433
L415.519 183.943
L415.872 187.711
L416.577 183.091
L416.93 184.508
L417.283 188.084
L417.636 187.549
L417.989 183.235
L418.342 184.719
L418.695 187.478
L419.048 189.17
L419.753 182.983
L420.459 189.156
L420.812 187.679
L420.812 187.679" style="fill:none;stroke:#008000;stroke-linecap:square;"/>
   </g>
   <g id="line2d_3">
    <path clip-path="url(#p3cf10670b2)" d="
M40.4238 153.283
L40.7767 153.34
L41.1296 153.336
L41.4824 153.294
L41.8353 153.978
L42.1882 153.352
L42.541 153.669
L42.8939 153.352
L43.2467 153.305
L43.5996 153.571
L43.9525 153.239
L44.3053 153.635
L44.6582 153.232
L45.0111 153.248
L45.3639 153.379
L45.7168 153.225
L46.4225 153.217
L46.7754 153.679
L47.1283 153.189
L47.4811 153.079
L48.5397 153.254
L48.8926 153.241
L49.2454 153.426
L49.9512 153.282
L50.6569 153.311
L51.0098 153.256
L51.3626 153.522
L51.7155 153.31
L52.4212 153.388
L52.7741 153.609
L53.127 153.431
L53.4798 153.759
L54.1855 153.396
L54.5384 153.835
L54.8913 153.374
L55.2441 153.44
L55.597 154.126
L55.9499 153.332
L56.3027 153.649
L58.7728 153.271
L59.1257 153.42
L59.4785 153.256
L60.1842 153.386
L60.89 153.239
L61.2428 152.918
L61.5957 153.574
L61.9486 153.672
L62.3014 153.287
L62.6543 153.073
L63.0072 153.694
L63.36 153.286
L63.7129 153.329
L64.0658 153.256
L64.4186 153.599
L64.7715 153.537
L65.1243 153.805
L65.4772 153.263
L65.8301 153.469
L66.1829 153.322
L66.5358 153.302
L66.8887 153.578
L67.5944 153.313
L69.0059 153.308
L69.3587 153.394
L70.0645 153.31
L70.4173 153.805
L70.7702 153.419
L72.8874 153.284
L73.2402 153.577
L73.5931 153.288
L73.946 153.451
L75.7103 153.077
L76.416 153.365
L76.7689 153.133
L77.4746 153.261
L78.1803 153.248
L78.5332 153.256
L78.8861 153.572
L79.2389 153.27
L79.5918 153.142
L81.0033 153.403
L81.3561 153.263
L81.709 153.3
L82.0618 153.168
L82.4147 153.296
L83.1204 153.251
L83.4733 153.372
L84.179 153.181
L84.8848 153.175
L85.2376 153.425
L85.9434 153.151
L87.002 153.222
L87.3548 153.966
L87.7077 153.294
L88.0605 153.332
L88.4134 153.49
L88.7663 153.496
L89.1191 153.342
L89.472 153.641
L89.8249 153.315
L90.1777 153.181
L90.5306 153.557
L90.8835 153.198
L91.2363 153.254
L91.5892 153.646
L91.9421 153.287
L92.6478 153.186
L94.4121 153.305
L94.765 153.611
L95.1178 153.172
L95.4707 153.219
L95.8236 153.488
L96.1764 153.435
L96.5293 153.54
L96.8822 153.497
L97.235 153.684
L97.5879 153.217
L98.6465 153.307
L98.9993 153.204
L99.3522 153.389
L99.7051 153.112
L100.764 153.292
L101.117 152.889
L101.469 153.226
L101.822 153.39
L102.175 153.236
L102.528 153.35
L102.881 153.148
L103.587 153.178
L103.939 153.338
L104.292 153.319
L104.645 153.448
L104.998 153.036
L105.351 153.124
L106.057 153.589
L106.762 153.243
L107.115 153.357
L107.468 154.024
L107.821 153.131
L108.527 153.364
L108.88 153.157
L109.232 153.796
L109.585 153.32
L109.938 153.146
L110.291 153.936
L110.644 153.473
L111.35 153.123
L112.055 153.417
L112.408 153.861
L112.761 153.198
L113.114 153.121
L113.467 153.274
L113.82 153.592
L114.173 153.232
L114.525 153.545
L114.878 153.457
L115.231 153.707
L115.584 153.249
L115.937 153.498
L116.29 153.592
L116.643 153.549
L116.995 153.27
L117.348 153.233
L117.701 153.419
L118.054 153.424
L118.407 153.249
L118.76 153.746
L119.113 153.381
L119.465 153.913
L119.818 153.831
L120.524 153.939
L121.936 153.991
L122.288 154.386
L122.994 154.026
L123.347 154.097
L123.7 154.048
L124.053 153.764
L124.406 153.762
L125.111 154.018
L125.464 153.964
L125.817 153.468
L126.17 153.562
L126.523 153.253
L126.876 153.832
L127.229 153.482
L127.581 153.751
L128.287 153.825
L128.64 153.741
L128.993 153.888
L129.346 153.145
L129.699 153.985
L130.051 153.317
L130.404 153.693
L131.11 153.857
L131.463 153.527
L131.816 153.683
L132.169 153.168
L132.521 153.281
L132.874 153.807
L133.227 153.766
L133.58 153.846
L133.933 153.77
L134.286 153.981
L134.639 153.303
L134.992 153.54
L135.344 153.519
L135.697 153.357
L136.05 153.78
L136.756 153.504
L137.109 153.719
L137.462 153.403
L137.814 153.732
L138.167 153.852
L138.52 153.68
L138.873 153.702
L139.226 153.856
L142.402 153.624
L143.46 153.853
L143.813 153.577
L144.519 153.816
L144.872 153.846
L145.225 153.695
L145.577 154.001
L146.636 153.749
L146.989 153.972
L149.459 153.878
L150.518 153.876
L151.929 153.979
L152.282 154.043
L152.635 153.976
L152.988 154.08
L153.693 153.915
L154.046 154.064
L154.399 153.813
L154.752 154.032
L155.811 154.068
L156.163 153.91
L156.516 154.086
L157.222 153.892
L157.575 154.134
L157.928 154.205
L158.633 154.037
L158.986 154.262
L159.339 154.098
L159.692 155.042
L160.045 154.105
L160.398 154.394
L160.751 154.487
L161.104 154.18
L161.456 154.082
L161.809 154.756
L162.162 154.062
L162.868 154.113
L163.574 154.077
L164.279 154.15
L164.632 154.147
L165.338 154.325
L165.691 154.118
L166.044 154.339
L167.102 154.145
L167.455 154.479
L167.808 154.117
L168.161 154.168
L168.514 154.08
L168.867 154.687
L169.219 154.281
L169.572 154.526
L169.925 154.245
L170.278 154.721
L170.631 154.279
L170.984 154.206
L171.337 154.573
L171.689 154.51
L172.042 154.574
L172.395 154.103
L172.748 154.842
L173.101 154.303
L173.454 154.81
L174.16 154.227
L174.512 154.194
L174.865 154.572
L175.218 154.599
L175.571 154.47
L175.924 154.633
L176.277 154.648
L176.63 154.97
L176.982 154.642
L177.335 154.845
L178.041 154.811
L178.394 154.275
L178.747 154.733
L179.1 154.929
L179.452 154.478
L180.158 154.397
L180.864 155.037
L181.217 154.884
L181.57 154.531
L181.923 155.207
L182.275 154.725
L182.628 154.69
L182.981 154.862
L183.334 154.802
L183.687 154.3
L184.393 155.184
L184.745 154.607
L185.451 154.792
L185.804 154.727
L186.157 154.817
L186.51 154.568
L186.863 154.904
L187.215 154.786
L187.568 154.886
L187.921 154.776
L188.274 154.887
L189.686 154.851
L190.038 155.091
L190.391 155.077
L190.744 154.774
L193.214 155.051
L193.567 154.861
L194.273 155.027
L194.626 154.805
L194.979 155.046
L195.331 154.97
L196.39 155.124
L196.743 155.011
L197.801 155.005
L198.154 154.858
L199.213 155.105
L200.624 155.112
L200.977 155.319
L203.094 155.148
L203.447 155.441
L203.8 155.11
L205.212 155.412
L205.564 155.286
L205.917 155.371
L206.623 155.186
L206.976 155.401
L207.329 155.299
L208.035 155.399
L208.387 155.275
L209.799 155.343
L210.505 155.475
L210.857 155.422
L211.21 155.523
L211.563 155.426
L212.269 155.547
L212.975 155.372
L214.033 155.37
L215.092 155.417
L215.798 155.757
L216.15 156.389
L216.503 155.554
L216.856 155.452
L217.209 155.896
L217.562 155.864
L217.915 156.316
L218.268 156.152
L218.62 155.782
L218.973 156.015
L219.326 156.113
L219.679 155.912
L220.032 156.14
L220.385 155.66
L220.738 156.177
L221.09 155.873
L221.443 156.113
L222.149 156.183
L222.502 155.731
L222.855 156.148
L224.266 156.147
L224.619 156.079
L225.325 156.332
L225.678 156.072
L226.031 156.232
L226.383 156.207
L226.736 156.378
L227.089 156.413
L227.442 156.318
L228.148 156.463
L228.501 156.115
L228.854 156.415
L229.206 156.353
L229.559 156.426
L229.912 156.25
L230.618 156.44
L230.971 156.33
L231.676 156.422
L232.029 157.129
L232.382 156.435
L232.735 156.585
L233.088 156.566
L233.441 156.853
L233.794 156.441
L234.146 156.705
L234.499 156.405
L235.205 156.711
L235.558 156.725
L235.911 156.925
L236.264 156.52
L236.617 156.572
L236.969 156.417
L237.675 156.512
L238.028 157.071
L238.381 156.928
L239.439 156.916
L239.792 156.705
L240.145 157.078
L240.498 156.89
L240.851 157.055
L241.557 157.036
L241.91 157.214
L242.968 157.092
L243.321 157.267
L243.674 157.142
L244.027 157.327
L244.38 157.181
L244.732 157.451
L245.085 157.204
L245.438 157.378
L245.791 157.191
L246.144 157.374
L246.85 157.452
L247.555 157.421
L247.908 157.527
L248.261 157.513
L248.614 157.183
L248.967 157.508
L249.32 157.473
L249.673 157.796
L250.025 157.658
L250.731 158.144
L251.084 157.98
L252.143 158.05
L252.495 158.394
L253.554 158.084
L253.907 157.977
L254.26 158.316
L255.318 158.138
L256.024 158.241
L256.377 158.223
L256.73 158.45
L257.083 158.219
L257.788 158.252
L258.141 158.62
L258.494 158.294
L259.2 158.204
L260.258 158.17
L260.611 158.223
L260.964 158.056
L261.317 158.154
L261.67 158.43
L262.023 158.479
L262.376 158.35
L263.081 158.512
L263.787 158.484
L264.14 158.563
L264.493 158.426
L264.846 158.583
L265.199 159.23
L265.551 158.507
L266.257 158.456
L266.61 158.877
L266.963 159.071
L267.316 158.441
L267.669 159.04
L268.021 158.679
L268.374 159.215
L268.727 159.063
L269.433 159.198
L269.786 159.148
L270.139 159.306
L270.492 159.068
L271.903 159.515
L272.256 159.142
L272.962 159.372
L273.314 159.19
L273.667 159.167
L274.02 159.489
L274.373 159.303
L274.726 159.527
L275.079 159.459
L275.785 159.525
L276.49 159.519
L276.843 159.791
L277.549 159.805
L277.902 159.5
L278.96 159.456
L279.313 159.705
L279.666 159.563
L280.019 159.639
L280.372 159.475
L280.725 159.704
L281.077 159.691
L281.43 159.833
L283.195 159.832
L283.548 160.249
L283.9 159.767
L284.606 160.359
L284.959 160.21
L285.312 159.866
L286.018 160.55
L286.723 160.421
L287.429 160.561
L288.135 160.588
L288.488 160.71
L288.84 160.514
L289.193 160.772
L289.546 161.364
L289.899 160.699
L290.252 160.65
L290.958 160.898
L291.663 160.759
L292.016 161.082
L292.369 161.063
L292.722 160.916
L293.075 161.111
L293.428 161.039
L293.781 161.531
L294.133 161.701
L294.486 161.491
L294.839 161.601
L295.192 161.479
L295.545 161.549
L296.251 161.516
L296.604 161.516
L296.956 161.706
L297.662 161.881
L298.015 161.687
L298.368 161.852
L298.721 161.831
L299.426 162.034
L299.779 161.843
L300.132 162.313
L300.485 161.838
L300.838 162.337
L301.191 162.524
L301.544 162.412
L304.014 162.641
L304.367 162.898
L304.719 162.704
L305.072 163.033
L305.778 162.737
L306.131 162.892
L306.837 162.908
L307.189 163.157
L307.542 162.919
L308.248 162.928
L308.601 163.132
L309.307 163.278
L309.66 163.048
L310.012 163.152
L310.365 163.413
L311.071 163.213
L312.13 163.987
L313.188 163.933
L313.541 164.125
L313.894 163.953
L314.247 164.319
L314.6 163.982
L315.658 164.272
L316.011 164.014
L316.364 164.228
L317.07 164.245
L317.423 164.55
L317.775 164.274
L318.128 164.459
L318.481 164.394
L319.187 164.811
L319.893 164.53
L320.245 164.82
L320.598 164.63
L321.657 165.03
L322.363 165.097
L322.715 165.388
L323.421 165.171
L323.774 165.386
L324.127 165.294
L324.48 165.414
L324.833 165.413
L325.186 165.279
L325.538 165.368
L326.244 166.08
L326.597 165.852
L326.95 165.896
L327.303 166.14
L327.656 166.144
L328.008 165.954
L328.361 166.131
L329.067 166.131
L329.42 166.642
L329.773 166.328
L330.126 166.178
L330.479 166.465
L330.831 166.188
L331.184 166.094
L331.537 166.129
L331.89 166.433
L332.596 166.472
L332.949 166.468
L333.301 166.344
L334.007 166.694
L334.36 166.428
L335.066 166.748
L335.419 166.605
L335.771 166.842
L336.124 167.811
L336.477 166.766
L336.83 166.702
L337.183 167.425
L337.536 166.894
L337.889 167.478
L338.242 167.607
L338.594 167.55
L338.947 168.051
L339.3 167.838
L339.653 167.926
L340.006 167.792
L340.359 167.939
L340.712 168.405
L341.064 168.521
L341.417 167.935
L341.77 168.592
L342.123 168.707
L342.476 168.472
L342.829 168.768
L343.182 168.679
L344.24 168.793
L344.593 169.031
L344.946 168.893
L345.299 169.041
L345.652 169.064
L346.005 169.81
L346.357 169.842
L346.71 169.302
L347.063 169.812
L347.769 169.712
L348.122 170.152
L348.475 169.74
L348.827 169.918
L349.18 169.905
L349.533 170.09
L349.886 169.874
L350.239 170.11
L351.298 170.145
L352.356 170.375
L352.709 170.315
L353.415 170.751
L353.768 171.111
L354.12 170.718
L354.473 171.598
L354.826 171.203
L356.238 171.261
L356.59 171.485
L357.649 171.627
L358.002 171.467
L358.355 172.16
L359.061 172.132
L359.413 172.368
L359.766 172.213
L360.472 172.256
L360.825 172.351
L361.178 172.239
L361.531 172.633
L362.942 172.39
L363.295 173.253
L363.648 173.163
L364.001 173.257
L364.354 173.029
L364.706 173.29
L365.765 173.34
L366.471 173.414
L366.824 173.671
L367.176 173.618
L367.529 173.721
L367.882 173.633
L368.588 174.107
L368.941 173.682
L369.294 174.278
L369.646 174.194
L369.999 174.387
L370.352 174.356
L370.705 174.503
L371.764 174.466
L372.469 174.856
L373.175 174.821
L373.528 174.871
L373.881 175.118
L374.234 174.792
L374.587 175.27
L374.939 174.987
L375.645 175.162
L375.998 175.149
L376.351 175.557
L376.704 175.178
L377.057 175.466
L377.41 175.287
L378.115 175.998
L378.468 175.6
L378.821 176.192
L379.174 175.975
L379.527 176.113
L380.232 176.053
L380.585 176.262
L380.938 176.837
L381.291 176.359
L381.644 176.162
L381.997 176.541
L382.35 176.641
L382.702 176.339
L383.055 176.358
L383.408 176.834
L383.761 177.071
L384.114 176.988
L384.82 177.107
L385.878 177.06
L386.231 177.35
L386.584 177.004
L386.937 177.396
L387.29 177.618
L387.643 177.699
L387.995 177.99
L388.348 177.834
L388.701 178.299
L389.054 177.706
L389.407 177.582
L389.76 178.173
L390.113 178.113
L390.465 178.543
L391.171 178.133
L391.524 178.465
L391.877 178.299
L392.23 178.598
L392.583 178.54
L392.936 178.766
L394.347 178.922
L394.7 179.026
L395.053 178.869
L395.406 179.241
L395.758 179.425
L396.817 179.586
L397.17 179.735
L397.523 179.68
L398.229 179.885
L398.581 180.726
L398.934 180.485
L399.287 180.82
L399.64 180.062
L399.993 180.564
L400.346 180.712
L400.699 180.367
L401.051 180.377
L401.404 180.926
L401.757 180.7
L402.463 181.138
L402.816 180.808
L403.169 180.872
L403.521 181.25
L403.874 181.069
L404.227 181.806
L404.58 181.13
L404.933 181.815
L405.992 181.705
L406.697 182.215
L407.05 181.981
L407.403 181.891
L407.756 182.154
L408.462 182.255
L408.814 182.12
L409.167 182.28
L409.52 182.262
L409.873 182.492
L410.932 182.665
L411.285 182.745
L411.637 183.11
L411.99 183.293
L412.343 182.91
L413.402 183.655
L413.755 183.306
L414.813 184.325
L415.166 183.756
L415.519 184.259
L415.872 183.684
L416.225 183.991
L416.577 183.823
L416.93 184.413
L417.283 184.532
L417.636 184.531
L417.989 184.246
L418.342 184.692
L419.048 184.831
L419.4 184.748
L420.106 184.872
L420.459 185.339
L420.812 185.539
L420.812 185.539" style="fill:none;stroke:#ff0000;stroke-linecap:square;"/>
   </g>
   <g id="patch_4">
    <path d="
M40.1063 27.1119
L421.2 27.1119" style="fill:none;stroke:#000000;stroke-linecap:square;stroke-linejoin:miter;"/>
   </g>
   <g id="patch_5">
    <path d="
M421.2 250.2
L421.2 27.1119" style="fill:none;stroke:#000000;stroke-linecap:square;stroke-linejoin:miter;"/>
   </g>
   <g id="patch_6">
    <path d="
M40.1063 250.2
L421.2 250.2" style="fill:none;stroke:#000000;stroke-linecap:square;stroke-linejoin:miter;"/>
   </g>
   <g id="patch_7">
    <path d="
M40.1063 250.2
L40.1063 27.1119" style="fill:none;stroke:#000000;stroke-linecap:square;stroke-linejoin:miter;"/>
   </g>
   <g id="matplotlib.axis_1">
    <g id="xtick_1">
     <g id="line2d_4">
      <path clip-path="url(#p3cf10670b2)" d="
M40.1063 250.2
L40.1063 27.1119" style="fill:none;stroke:#cccccc;stroke-dasharray:1.000000,3.000000;stroke-dashoffset:0.0;stroke-width:0.5;"/>
     </g>
     <g id="line2d_5">
      <defs>
       <path d="
M0 0
L0 -4" id="m93b0483c22" style="stroke:#000000;stroke-width:0.5;"/>
      </defs>
      <g>
       <use style="stroke:#000000;stroke-width:0.5;" x="40.106250003" xlink:href="#m93b0483c22" y="250.2"/>
      </g>
     </g>
     <g id="line2d_6">
      <defs>
       <path d="
M0 0
L0 4" id="m741efc42ff" style="stroke:#000000;stroke-width:0.5;"/>
      </defs>
      <g>
       <use style="stroke:#000000;stroke-width:0.5;" x="40.106250003" xlink:href="#m741efc42ff" y="27.111875"/>
      </g>
     </g>
    </g>
    <g id="xtick_2">
     <g id="line2d_7">
      <path clip-path="url(#p3cf10670b2)" d="
M167.138 250.2
L167.138 27.1119" style="fill:none;stroke:#cccccc;stroke-dasharray:1.000000,3.000000;stroke-dashoffset:0.0;stroke-width:0.5;"/>
     </g>
     <g id="line2d_8">
      <g>
       <use style="stroke:#000000;stroke-width:0.5;" x="167.137500003" xlink:href="#m93b0483c22" y="250.2"/>
      </g>
     </g>
     <g id="line2d_9">
      <g>
       <use style="stroke:#000000;stroke-width:0.5;" x="167.137500003" xlink:href="#m741efc42ff" y="27.111875"/>
      </g>
     </g>
    </g>
    <g id="xtick_3">
     <g id="line2d_10">
      <path clip-path="url(#p3cf10670b2)" d="
M294.169 250.2
L294.169 27.1119" style="fill:none;stroke:#cccccc;stroke-dasharray:1.000000,3.000000;stroke-dashoffset:0.0;stroke-width:0.5;"/>
     </g>
     <g id="line2d_11">
      <g>
       <use style="stroke:#000000;stroke-width:0.5;" x="294.168750003" xlink:href="#m93b0483c22" y="250.2"/>
      </g>
     </g>
     <g id="line2d_12">
      <g>
       <use style="stroke:#000000;stroke-width:0.5;" x="294.168750003" xlink:href="#m741efc42ff" y="27.111875"/>
      </g>
     </g>
    </g>
    <g id="xtick_4">
     <g id="line2d_13">
      <path clip-path="url(#p3cf10670b2)" d="
M421.2 250.2
L421.2 27.1119" style="fill:none;stroke:#cccccc;stroke-dasharray:1.000000,3.000000;stroke-dashoffset:0.0;stroke-width:0.5;"/>
     </g>
     <g id="line2d_14">
      <g>
       <use style="stroke:#000000;stroke-width:0.5;" x="421.200000003" xlink:href="#m93b0483c22" y="250.2"/>
      </g>
     </g>
     <g id="line2d_15">
      <g>
       <use style="stroke:#000000;stroke-width:0.5;" x="421.200000003" xlink:href="#m741efc42ff" y="27.111875"/>
      </g>
     </g>
    </g>
    <g id="xtick_5">
     <g id="line2d_16">
      <defs>
       <path d="
M0 0
L0 -2" id="m177f7580d0" style="stroke:#000000;stroke-width:0.5;"/>
      </defs>
      <g>
       <use style="stroke:#000000;stroke-width:0.5;" x="49.5983072966" xlink:href="#m177f7580d0" y="250.2"/>
      </g>
     </g>
     <g id="line2d_17">
      <defs>
       <path d="
M0 0
L0 2" id="m5284c7e2a0" style="stroke:#000000;stroke-width:0.5;"/>
      </defs>
      <g>
       <use style="stroke:#000000;stroke-width:0.5;" x="49.5983072966" xlink:href="#m5284c7e2a0" y="27.111875"/>
      </g>
     </g>
     <g id="text_1">
      <!-- 06:30 -->
      <defs>
       <path d="
M40.5781 39.3125
Q47.6562 37.7969 51.625 33
Q55.6094 28.2188 55.6094 21.1875
Q55.6094 10.4062 48.1875 4.48438
Q40.7656 -1.42188 27.0938 -1.42188
Q22.5156 -1.42188 17.6562 -0.515625
Q12.7969 0.390625 7.625 2.20312
L7.625 11.7188
Q11.7188 9.32812 16.5938 8.10938
Q21.4844 6.89062 26.8125 6.89062
Q36.0781 6.89062 40.9375 10.5469
Q45.7969 14.2031 45.7969 21.1875
Q45.7969 27.6406 41.2812 31.2656
Q36.7656 34.9062 28.7188 34.9062
L20.2188 34.9062
L20.2188 43.0156
L29.1094 43.0156
Q36.375 43.0156 40.2344 45.9219
Q44.0938 48.8281 44.0938 54.2969
Q44.0938 59.9062 40.1094 62.9062
Q36.1406 65.9219 28.7188 65.9219
Q24.6562 65.9219 20.0156 65.0312
Q15.375 64.1562 9.8125 62.3125
L9.8125 71.0938
Q15.4375 72.6562 20.3438 73.4375
Q25.25 74.2188 29.5938 74.2188
Q40.8281 74.2188 47.3594 69.1094
Q53.9062 64.0156 53.9062 55.3281
Q53.9062 49.2656 50.4375 45.0938
Q46.9688 40.9219 40.5781 39.3125" id="BitstreamVeraSans-Roman-33"/>
       <path d="
M31.7812 66.4062
Q24.1719 66.4062 20.3281 58.9062
Q16.5 51.4219 16.5 36.375
Q16.5 21.3906 20.3281 13.8906
Q24.1719 6.39062 31.7812 6.39062
Q39.4531 6.39062 43.2812 13.8906
Q47.125 21.3906 47.125 36.375
Q47.125 51.4219 43.2812 58.9062
Q39.4531 66.4062 31.7812 66.4062
M31.7812 74.2188
Q44.0469 74.2188 50.5156 64.5156
Q56.9844 54.8281 56.9844 36.375
Q56.9844 17.9688 50.5156 8.26562
Q44.0469 -1.42188 31.7812 -1.42188
Q19.5312 -1.42188 13.0625 8.26562
Q6.59375 17.9688 6.59375 36.375
Q6.59375 54.8281 13.0625 64.5156
Q19.5312 74.2188 31.7812 74.2188" id="BitstreamVeraSans-Roman-30"/>
       <path d="
M11.7188 12.4062
L22.0156 12.4062
L22.0156 0
L11.7188 0
z

M11.7188 51.7031
L22.0156 51.7031
L22.0156 39.3125
L11.7188 39.3125
z
" id="BitstreamVeraSans-Roman-3a"/>
       <path d="
M33.0156 40.375
Q26.375 40.375 22.4844 35.8281
Q18.6094 31.2969 18.6094 23.3906
Q18.6094 15.5312 22.4844 10.9531
Q26.375 6.39062 33.0156 6.39062
Q39.6562 6.39062 43.5312 10.9531
Q47.4062 15.5312 47.4062 23.3906
Q47.4062 31.2969 43.5312 35.8281
Q39.6562 40.375 33.0156 40.375
M52.5938 71.2969
L52.5938 62.3125
Q48.875 64.0625 45.0938 64.9844
Q41.3125 65.9219 37.5938 65.9219
Q27.8281 65.9219 22.6719 59.3281
Q17.5312 52.7344 16.7969 39.4062
Q19.6719 43.6562 24.0156 45.9219
Q28.375 48.1875 33.5938 48.1875
Q44.5781 48.1875 50.9531 41.5156
Q57.3281 34.8594 57.3281 23.3906
Q57.3281 12.1562 50.6875 5.35938
Q44.0469 -1.42188 33.0156 -1.42188
Q20.3594 -1.42188 13.6719 8.26562
Q6.98438 17.9688 6.98438 36.375
Q6.98438 53.6562 15.1875 63.9375
Q23.3906 74.2188 37.2031 74.2188
Q40.9219 74.2188 44.7031 73.4844
Q48.4844 72.75 52.5938 71.2969" id="BitstreamVeraSans-Roman-36"/>
      </defs>
      <g transform="translate(35.8506510466 261.7984375)scale(0.1 -0.1)">
       <use xlink:href="#BitstreamVeraSans-Roman-30"/>
       <use x="63.623046875" xlink:href="#BitstreamVeraSans-Roman-36"/>
       <use x="127.24609375" xlink:href="#BitstreamVeraSans-Roman-3a"/>
       <use x="160.9375" xlink:href="#BitstreamVeraSans-Roman-33"/>
       <use x="224.560546875" xlink:href="#BitstreamVeraSans-Roman-30"/>
      </g>
     </g>
    </g>
    <g id="xtick_6">
     <g id="line2d_18">
      <g>
       <use style="stroke:#000000;stroke-width:0.5;" x="113.113932297" xlink:href="#m177f7580d0" y="250.2"/>
      </g>
     </g>
     <g id="line2d_19">
      <g>
       <use style="stroke:#000000;stroke-width:0.5;" x="113.113932297" xlink:href="#m5284c7e2a0" y="27.111875"/>
      </g>
     </g>
    </g>
    <g id="xtick_7">
     <g id="line2d_20">
      <g>
       <use style="stroke:#000000;stroke-width:0.5;" x="176.629557297" xlink:href="#m177f7580d0" y="250.2"/>
      </g>
     </g>
     <g id="line2d_21">
      <g>
       <use style="stroke:#000000;stroke-width:0.5;" x="176.629557297" xlink:href="#m5284c7e2a0" y="27.111875"/>
      </g>
     </g>
     <g id="text_2">
      <!-- 07:30 -->
      <defs>
       <path d="
M8.20312 72.9062
L55.0781 72.9062
L55.0781 68.7031
L28.6094 0
L18.3125 0
L43.2188 64.5938
L8.20312 64.5938
z
" id="BitstreamVeraSans-Roman-37"/>
      </defs>
      <g transform="translate(162.881901047 261.7984375)scale(0.1 -0.1)">
       <use xlink:href="#BitstreamVeraSans-Roman-30"/>
       <use x="63.623046875" xlink:href="#BitstreamVeraSans-Roman-37"/>
       <use x="127.24609375" xlink:href="#BitstreamVeraSans-Roman-3a"/>
       <use x="160.9375" xlink:href="#BitstreamVeraSans-Roman-33"/>
       <use x="224.560546875" xlink:href="#BitstreamVeraSans-Roman-30"/>
      </g>
     </g>
    </g>
    <g id="xtick_8">
     <g id="line2d_22">
      <g>
       <use style="stroke:#000000;stroke-width:0.5;" x="240.145182297" xlink:href="#m177f7580d0" y="250.2"/>
      </g>
     </g>
     <g id="line2d_23">
      <g>
       <use style="stroke:#000000;stroke-width:0.5;" x="240.145182297" xlink:href="#m5284c7e2a0" y="27.111875"/>
      </g>
     </g>
    </g>
    <g id="xtick_9">
     <g id="line2d_24">
      <g>
       <use style="stroke:#000000;stroke-width:0.5;" x="303.660807297" xlink:href="#m177f7580d0" y="250.2"/>
      </g>
     </g>
     <g id="line2d_25">
      <g>
       <use style="stroke:#000000;stroke-width:0.5;" x="303.660807297" xlink:href="#m5284c7e2a0" y="27.111875"/>
      </g>
     </g>
     <g id="text_3">
      <!-- 08:30 -->
      <defs>
       <path d="
M31.7812 34.625
Q24.75 34.625 20.7188 30.8594
Q16.7031 27.0938 16.7031 20.5156
Q16.7031 13.9219 20.7188 10.1562
Q24.75 6.39062 31.7812 6.39062
Q38.8125 6.39062 42.8594 10.1719
Q46.9219 13.9688 46.9219 20.5156
Q46.9219 27.0938 42.8906 30.8594
Q38.875 34.625 31.7812 34.625
M21.9219 38.8125
Q15.5781 40.375 12.0312 44.7188
Q8.5 49.0781 8.5 55.3281
Q8.5 64.0625 14.7188 69.1406
Q20.9531 74.2188 31.7812 74.2188
Q42.6719 74.2188 48.875 69.1406
Q55.0781 64.0625 55.0781 55.3281
Q55.0781 49.0781 51.5312 44.7188
Q48 40.375 41.7031 38.8125
Q48.8281 37.1562 52.7969 32.3125
Q56.7812 27.4844 56.7812 20.5156
Q56.7812 9.90625 50.3125 4.23438
Q43.8438 -1.42188 31.7812 -1.42188
Q19.7344 -1.42188 13.25 4.23438
Q6.78125 9.90625 6.78125 20.5156
Q6.78125 27.4844 10.7812 32.3125
Q14.7969 37.1562 21.9219 38.8125
M18.3125 54.3906
Q18.3125 48.7344 21.8438 45.5625
Q25.3906 42.3906 31.7812 42.3906
Q38.1406 42.3906 41.7188 45.5625
Q45.3125 48.7344 45.3125 54.3906
Q45.3125 60.0625 41.7188 63.2344
Q38.1406 66.4062 31.7812 66.4062
Q25.3906 66.4062 21.8438 63.2344
Q18.3125 60.0625 18.3125 54.3906" id="BitstreamVeraSans-Roman-38"/>
      </defs>
      <g transform="translate(289.913151047 261.7984375)scale(0.1 -0.1)">
       <use xlink:href="#BitstreamVeraSans-Roman-30"/>
       <use x="63.623046875" xlink:href="#BitstreamVeraSans-Roman-38"/>
       <use x="127.24609375" xlink:href="#BitstreamVeraSans-Roman-3a"/>
       <use x="160.9375" xlink:href="#BitstreamVeraSans-Roman-33"/>
       <use x="224.560546875" xlink:href="#BitstreamVeraSans-Roman-30"/>
      </g>
     </g>
    </g>
    <g id="xtick_10">
     <g id="line2d_26">
      <g>
       <use style="stroke:#000000;stroke-width:0.5;" x="367.176432297" xlink:href="#m177f7580d0" y="250.2"/>
      </g>
     </g>
     <g id="line2d_27">
      <g>
       <use style="stroke:#000000;stroke-width:0.5;" x="367.176432297" xlink:href="#m5284c7e2a0" y="27.111875"/>
      </g>
     </g>
    </g>
    <g id="text_4">
     <!-- Time -->
     <defs>
      <path d="
M56.2031 29.5938
L56.2031 25.2031
L14.8906 25.2031
Q15.4844 15.9219 20.4844 11.0625
Q25.4844 6.20312 34.4219 6.20312
Q39.5938 6.20312 44.4531 7.46875
Q49.3125 8.73438 54.1094 11.2812
L54.1094 2.78125
Q49.2656 0.734375 44.1875 -0.34375
Q39.1094 -1.42188 33.8906 -1.42188
Q20.7969 -1.42188 13.1562 6.1875
Q5.51562 13.8125 5.51562 26.8125
Q5.51562 40.2344 12.7656 48.1094
Q20.0156 56 32.3281 56
Q43.3594 56 49.7812 48.8906
Q56.2031 41.7969 56.2031 29.5938
M47.2188 32.2344
Q47.125 39.5938 43.0938 43.9844
Q39.0625 48.3906 32.4219 48.3906
Q24.9062 48.3906 20.3906 44.1406
Q15.875 39.8906 15.1875 32.1719
z
" id="BitstreamVeraSans-Roman-65"/>
      <path d="
M9.42188 54.6875
L18.4062 54.6875
L18.4062 0
L9.42188 0
z

M9.42188 75.9844
L18.4062 75.9844
L18.4062 64.5938
L9.42188 64.5938
z
" id="BitstreamVeraSans-Roman-69"/>
      <path d="
M-0.296875 72.9062
L61.375 72.9062
L61.375 64.5938
L35.5 64.5938
L35.5 0
L25.5938 0
L25.5938 64.5938
L-0.296875 64.5938
z
" id="BitstreamVeraSans-Roman-54"/>
      <path d="
M52 44.1875
Q55.375 50.25 60.0625 53.125
Q64.75 56 71.0938 56
Q79.6406 56 84.2812 50.0156
Q88.9219 44.0469 88.9219 33.0156
L88.9219 0
L79.8906 0
L79.8906 32.7188
Q79.8906 40.5781 77.0938 44.375
Q74.3125 48.1875 68.6094 48.1875
Q61.625 48.1875 57.5625 43.5469
Q53.5156 38.9219 53.5156 30.9062
L53.5156 0
L44.4844 0
L44.4844 32.7188
Q44.4844 40.625 41.7031 44.4062
Q38.9219 48.1875 33.1094 48.1875
Q26.2188 48.1875 22.1562 43.5312
Q18.1094 38.875 18.1094 30.9062
L18.1094 0
L9.07812 0
L9.07812 54.6875
L18.1094 54.6875
L18.1094 46.1875
Q21.1875 51.2188 25.4844 53.6094
Q29.7812 56 35.6875 56
Q41.6562 56 45.8281 52.9688
Q50 49.9531 52 44.1875" id="BitstreamVeraSans-Roman-6d"/>
     </defs>
     <g transform="translate(218.67109375 276.4765625)scale(0.1 -0.1)">
      <use xlink:href="#BitstreamVeraSans-Roman-54"/>
      <use x="57.958984375" xlink:href="#BitstreamVeraSans-Roman-69"/>
      <use x="85.7421875" xlink:href="#BitstreamVeraSans-Roman-6d"/>
      <use x="183.154296875" xlink:href="#BitstreamVeraSans-Roman-65"/>
     </g>
    </g>
   </g>
   <g id="matplotlib.axis_2">
    <g id="ytick_1">
     <g id="line2d_28">
      <path clip-path="url(#p3cf10670b2)" d="
M40.1063 250.2
L421.2 250.2" style="fill:none;stroke:#cccccc;stroke-dasharray:1.000000,3.000000;stroke-dashoffset:0.0;stroke-width:0.5;"/>
     </g>
     <g id="line2d_29">
      <defs>
       <path d="
M0 0
L4 0" id="m728421d6d4" style="stroke:#000000;stroke-width:0.5;"/>
      </defs>
      <g>
       <use style="stroke:#000000;stroke-width:0.5;" x="40.10625" xlink:href="#m728421d6d4" y="250.2"/>
      </g>
     </g>
     <g id="line2d_30">
      <defs>
       <path d="
M0 0
L-4 0" id="mcb0005524f" style="stroke:#000000;stroke-width:0.5;"/>
      </defs>
      <g>
       <use style="stroke:#000000;stroke-width:0.5;" x="421.2" xlink:href="#mcb0005524f" y="250.2"/>
      </g>
     </g>
     <g id="text_5">
      <!-- 0 -->
      <g transform="translate(31.0671875 252.959375)scale(0.1 -0.1)">
       <use xlink:href="#BitstreamVeraSans-Roman-30"/>
      </g>
     </g>
    </g>
    <g id="ytick_2">
     <g id="line2d_31">
      <path clip-path="url(#p3cf10670b2)" d="
M40.1063 194.428
L421.2 194.428" style="fill:none;stroke:#cccccc;stroke-dasharray:1.000000,3.000000;stroke-dashoffset:0.0;stroke-width:0.5;"/>
     </g>
     <g id="line2d_32">
      <g>
       <use style="stroke:#000000;stroke-width:0.5;" x="40.10625" xlink:href="#m728421d6d4" y="194.42796875"/>
      </g>
     </g>
     <g id="line2d_33">
      <g>
       <use style="stroke:#000000;stroke-width:0.5;" x="421.2" xlink:href="#mcb0005524f" y="194.42796875"/>
      </g>
     </g>
     <g id="text_6">
      <!-- 5 -->
      <defs>
       <path d="
M10.7969 72.9062
L49.5156 72.9062
L49.5156 64.5938
L19.8281 64.5938
L19.8281 46.7344
Q21.9688 47.4688 24.1094 47.8281
Q26.2656 48.1875 28.4219 48.1875
Q40.625 48.1875 47.75 41.5
Q54.8906 34.8125 54.8906 23.3906
Q54.8906 11.625 47.5625 5.09375
Q40.2344 -1.42188 26.9062 -1.42188
Q22.3125 -1.42188 17.5469 -0.640625
Q12.7969 0.140625 7.71875 1.70312
L7.71875 11.625
Q12.1094 9.23438 16.7969 8.0625
Q21.4844 6.89062 26.7031 6.89062
Q35.1562 6.89062 40.0781 11.3281
Q45.0156 15.7656 45.0156 23.3906
Q45.0156 31 40.0781 35.4375
Q35.1562 39.8906 26.7031 39.8906
Q22.75 39.8906 18.8125 39.0156
Q14.8906 38.1406 10.7969 36.2812
z
" id="BitstreamVeraSans-Roman-35"/>
      </defs>
      <g transform="translate(31.3890625 197.18734375)scale(0.1 -0.1)">
       <use xlink:href="#BitstreamVeraSans-Roman-35"/>
      </g>
     </g>
    </g>
    <g id="ytick_3">
     <g id="line2d_34">
      <path clip-path="url(#p3cf10670b2)" d="
M40.1063 138.656
L421.2 138.656" style="fill:none;stroke:#cccccc;stroke-dasharray:1.000000,3.000000;stroke-dashoffset:0.0;stroke-width:0.5;"/>
     </g>
     <g id="line2d_35">
      <g>
       <use style="stroke:#000000;stroke-width:0.5;" x="40.10625" xlink:href="#m728421d6d4" y="138.6559375"/>
      </g>
     </g>
     <g id="line2d_36">
      <g>
       <use style="stroke:#000000;stroke-width:0.5;" x="421.2" xlink:href="#mcb0005524f" y="138.6559375"/>
      </g>
     </g>
     <g id="text_7">
      <!-- 10 -->
      <defs>
       <path d="
M12.4062 8.29688
L28.5156 8.29688
L28.5156 63.9219
L10.9844 60.4062
L10.9844 69.3906
L28.4219 72.9062
L38.2812 72.9062
L38.2812 8.29688
L54.3906 8.29688
L54.3906 0
L12.4062 0
z
" id="BitstreamVeraSans-Roman-31"/>
      </defs>
      <g transform="translate(25.14375 141.4153125)scale(0.1 -0.1)">
       <use xlink:href="#BitstreamVeraSans-Roman-31"/>
       <use x="63.623046875" xlink:href="#BitstreamVeraSans-Roman-30"/>
      </g>
     </g>
    </g>
    <g id="ytick_4">
     <g id="line2d_37">
      <path clip-path="url(#p3cf10670b2)" d="
M40.1063 82.8839
L421.2 82.8839" style="fill:none;stroke:#cccccc;stroke-dasharray:1.000000,3.000000;stroke-dashoffset:0.0;stroke-width:0.5;"/>
     </g>
     <g id="line2d_38">
      <g>
       <use style="stroke:#000000;stroke-width:0.5;" x="40.10625" xlink:href="#m728421d6d4" y="82.88390625"/>
      </g>
     </g>
     <g id="line2d_39">
      <g>
       <use style="stroke:#000000;stroke-width:0.5;" x="421.2" xlink:href="#mcb0005524f" y="82.88390625"/>
      </g>
     </g>
     <g id="text_8">
      <!-- 15 -->
      <g transform="translate(25.353125 85.64328125)scale(0.1 -0.1)">
       <use xlink:href="#BitstreamVeraSans-Roman-31"/>
       <use x="63.623046875" xlink:href="#BitstreamVeraSans-Roman-35"/>
      </g>
     </g>
    </g>
    <g id="ytick_5">
     <g id="line2d_40">
      <path clip-path="url(#p3cf10670b2)" d="
M40.1063 27.1119
L421.2 27.1119" style="fill:none;stroke:#cccccc;stroke-dasharray:1.000000,3.000000;stroke-dashoffset:0.0;stroke-width:0.5;"/>
     </g>
     <g id="line2d_41">
      <g>
       <use style="stroke:#000000;stroke-width:0.5;" x="40.10625" xlink:href="#m728421d6d4" y="27.111875"/>
      </g>
     </g>
     <g id="line2d_42">
      <g>
       <use style="stroke:#000000;stroke-width:0.5;" x="421.2" xlink:href="#mcb0005524f" y="27.111875"/>
      </g>
     </g>
     <g id="text_9">
      <!-- 20 -->
      <defs>
       <path d="
M19.1875 8.29688
L53.6094 8.29688
L53.6094 0
L7.32812 0
L7.32812 8.29688
Q12.9375 14.1094 22.625 23.8906
Q32.3281 33.6875 34.8125 36.5312
Q39.5469 41.8438 41.4219 45.5312
Q43.3125 49.2188 43.3125 52.7812
Q43.3125 58.5938 39.2344 62.25
Q35.1562 65.9219 28.6094 65.9219
Q23.9688 65.9219 18.8125 64.3125
Q13.6719 62.7031 7.8125 59.4219
L7.8125 69.3906
Q13.7656 71.7812 18.9375 73
Q24.125 74.2188 28.4219 74.2188
Q39.75 74.2188 46.4844 68.5469
Q53.2188 62.8906 53.2188 53.4219
Q53.2188 48.9219 51.5312 44.8906
Q49.8594 40.875 45.4062 35.4062
Q44.1875 33.9844 37.6406 27.2188
Q31.1094 20.4531 19.1875 8.29688" id="BitstreamVeraSans-Roman-32"/>
      </defs>
      <g transform="translate(24.778125 29.87125)scale(0.1 -0.1)">
       <use xlink:href="#BitstreamVeraSans-Roman-32"/>
       <use x="63.623046875" xlink:href="#BitstreamVeraSans-Roman-30"/>
      </g>
     </g>
    </g>
    <g id="text_10">
     <!-- Mass flow in g/s -->
     <defs>
      <path id="BitstreamVeraSans-Roman-20"/>
      <path d="
M9.8125 72.9062
L24.5156 72.9062
L43.1094 23.2969
L61.8125 72.9062
L76.5156 72.9062
L76.5156 0
L66.8906 0
L66.8906 64.0156
L48.0938 14.0156
L38.1875 14.0156
L19.3906 64.0156
L19.3906 0
L9.8125 0
z
" id="BitstreamVeraSans-Roman-4d"/>
      <path d="
M54.8906 33.0156
L54.8906 0
L45.9062 0
L45.9062 32.7188
Q45.9062 40.4844 42.875 44.3281
Q39.8438 48.1875 33.7969 48.1875
Q26.5156 48.1875 22.3125 43.5469
Q18.1094 38.9219 18.1094 30.9062
L18.1094 0
L9.07812 0
L9.07812 54.6875
L18.1094 54.6875
L18.1094 46.1875
Q21.3438 51.125 25.7031 53.5625
Q30.0781 56 35.7969 56
Q45.2188 56 50.0469 50.1719
Q54.8906 44.3438 54.8906 33.0156" id="BitstreamVeraSans-Roman-6e"/>
      <path d="
M30.6094 48.3906
Q23.3906 48.3906 19.1875 42.75
Q14.9844 37.1094 14.9844 27.2969
Q14.9844 17.4844 19.1562 11.8438
Q23.3438 6.20312 30.6094 6.20312
Q37.7969 6.20312 41.9844 11.8594
Q46.1875 17.5312 46.1875 27.2969
Q46.1875 37.0156 41.9844 42.7031
Q37.7969 48.3906 30.6094 48.3906
M30.6094 56
Q42.3281 56 49.0156 48.375
Q55.7188 40.7656 55.7188 27.2969
Q55.7188 13.875 49.0156 6.21875
Q42.3281 -1.42188 30.6094 -1.42188
Q18.8438 -1.42188 12.1719 6.21875
Q5.51562 13.875 5.51562 27.2969
Q5.51562 40.7656 12.1719 48.375
Q18.8438 56 30.6094 56" id="BitstreamVeraSans-Roman-6f"/>
      <path d="
M9.42188 75.9844
L18.4062 75.9844
L18.4062 0
L9.42188 0
z
" id="BitstreamVeraSans-Roman-6c"/>
      <path d="
M25.3906 72.9062
L33.6875 72.9062
L8.29688 -9.28125
L0 -9.28125
z
" id="BitstreamVeraSans-Roman-2f"/>
      <path d="
M4.20312 54.6875
L13.1875 54.6875
L24.4219 12.0156
L35.5938 54.6875
L46.1875 54.6875
L57.4219 12.0156
L68.6094 54.6875
L77.5938 54.6875
L63.2812 0
L52.6875 0
L40.9219 44.8281
L29.1094 0
L18.5 0
z
" id="BitstreamVeraSans-Roman-77"/>
      <path d="
M45.4062 27.9844
Q45.4062 37.75 41.375 43.1094
Q37.3594 48.4844 30.0781 48.4844
Q22.8594 48.4844 18.8281 43.1094
Q14.7969 37.75 14.7969 27.9844
Q14.7969 18.2656 18.8281 12.8906
Q22.8594 7.51562 30.0781 7.51562
Q37.3594 7.51562 41.375 12.8906
Q45.4062 18.2656 45.4062 27.9844
M54.3906 6.78125
Q54.3906 -7.17188 48.1875 -13.9844
Q42 -20.7969 29.2031 -20.7969
Q24.4688 -20.7969 20.2656 -20.0938
Q16.0625 -19.3906 12.1094 -17.9219
L12.1094 -9.1875
Q16.0625 -11.3281 19.9219 -12.3438
Q23.7812 -13.375 27.7812 -13.375
Q36.625 -13.375 41.0156 -8.76562
Q45.4062 -4.15625 45.4062 5.17188
L45.4062 9.625
Q42.625 4.78125 38.2812 2.39062
Q33.9375 0 27.875 0
Q17.8281 0 11.6719 7.65625
Q5.51562 15.3281 5.51562 27.9844
Q5.51562 40.6719 11.6719 48.3281
Q17.8281 56 27.875 56
Q33.9375 56 38.2812 53.6094
Q42.625 51.2188 45.4062 46.3906
L45.4062 54.6875
L54.3906 54.6875
z
" id="BitstreamVeraSans-Roman-67"/>
      <path d="
M37.1094 75.9844
L37.1094 68.5
L28.5156 68.5
Q23.6875 68.5 21.7969 66.5469
Q19.9219 64.5938 19.9219 59.5156
L19.9219 54.6875
L34.7188 54.6875
L34.7188 47.7031
L19.9219 47.7031
L19.9219 0
L10.8906 0
L10.8906 47.7031
L2.29688 47.7031
L2.29688 54.6875
L10.8906 54.6875
L10.8906 58.5
Q10.8906 67.625 15.1406 71.7969
Q19.3906 75.9844 28.6094 75.9844
z
" id="BitstreamVeraSans-Roman-66"/>
      <path d="
M34.2812 27.4844
Q23.3906 27.4844 19.1875 25
Q14.9844 22.5156 14.9844 16.5
Q14.9844 11.7188 18.1406 8.90625
Q21.2969 6.10938 26.7031 6.10938
Q34.1875 6.10938 38.7031 11.4062
Q43.2188 16.7031 43.2188 25.4844
L43.2188 27.4844
z

M52.2031 31.2031
L52.2031 0
L43.2188 0
L43.2188 8.29688
Q40.1406 3.32812 35.5469 0.953125
Q30.9531 -1.42188 24.3125 -1.42188
Q15.9219 -1.42188 10.9531 3.29688
Q6 8.01562 6 15.9219
Q6 25.1406 12.1719 29.8281
Q18.3594 34.5156 30.6094 34.5156
L43.2188 34.5156
L43.2188 35.4062
Q43.2188 41.6094 39.1406 45
Q35.0625 48.3906 27.6875 48.3906
Q23 48.3906 18.5469 47.2656
Q14.1094 46.1406 10.0156 43.8906
L10.0156 52.2031
Q14.9375 54.1094 19.5781 55.0469
Q24.2188 56 28.6094 56
Q40.4844 56 46.3438 49.8438
Q52.2031 43.7031 52.2031 31.2031" id="BitstreamVeraSans-Roman-61"/>
      <path d="
M44.2812 53.0781
L44.2812 44.5781
Q40.4844 46.5312 36.375 47.5
Q32.2812 48.4844 27.875 48.4844
Q21.1875 48.4844 17.8438 46.4375
Q14.5 44.3906 14.5 40.2812
Q14.5 37.1562 16.8906 35.375
Q19.2812 33.5938 26.5156 31.9844
L29.5938 31.2969
Q39.1562 29.25 43.1875 25.5156
Q47.2188 21.7812 47.2188 15.0938
Q47.2188 7.46875 41.1875 3.01562
Q35.1562 -1.42188 24.6094 -1.42188
Q20.2188 -1.42188 15.4531 -0.5625
Q10.6875 0.296875 5.42188 2
L5.42188 11.2812
Q10.4062 8.6875 15.2344 7.39062
Q20.0625 6.10938 24.8125 6.10938
Q31.1562 6.10938 34.5625 8.28125
Q37.9844 10.4531 37.9844 14.4062
Q37.9844 18.0625 35.5156 20.0156
Q33.0625 21.9688 24.7031 23.7812
L21.5781 24.5156
Q13.2344 26.2656 9.51562 29.9062
Q5.8125 33.5469 5.8125 39.8906
Q5.8125 47.6094 11.2812 51.7969
Q16.75 56 26.8125 56
Q31.7812 56 36.1719 55.2656
Q40.5781 54.5469 44.2812 53.0781" id="BitstreamVeraSans-Roman-73"/>
     </defs>
     <g transform="translate(17.6984375 178.085625)rotate(-90.0)scale(0.1 -0.1)">
      <use xlink:href="#BitstreamVeraSans-Roman-4d"/>
      <use x="86.279296875" xlink:href="#BitstreamVeraSans-Roman-61"/>
      <use x="147.55859375" xlink:href="#BitstreamVeraSans-Roman-73"/>
      <use x="199.658203125" xlink:href="#BitstreamVeraSans-Roman-73"/>
      <use x="251.7578125" xlink:href="#BitstreamVeraSans-Roman-20"/>
      <use x="283.544921875" xlink:href="#BitstreamVeraSans-Roman-66"/>
      <use x="318.75" xlink:href="#BitstreamVeraSans-Roman-6c"/>
      <use x="346.533203125" xlink:href="#BitstreamVeraSans-Roman-6f"/>
      <use x="407.71484375" xlink:href="#BitstreamVeraSans-Roman-77"/>
      <use x="489.501953125" xlink:href="#BitstreamVeraSans-Roman-20"/>
      <use x="521.2890625" xlink:href="#BitstreamVeraSans-Roman-69"/>
      <use x="549.072265625" xlink:href="#BitstreamVeraSans-Roman-6e"/>
      <use x="612.451171875" xlink:href="#BitstreamVeraSans-Roman-20"/>
      <use x="644.23828125" xlink:href="#BitstreamVeraSans-Roman-67"/>
      <use x="707.71484375" xlink:href="#BitstreamVeraSans-Roman-2f"/>
      <use x="741.40625" xlink:href="#BitstreamVeraSans-Roman-73"/>
     </g>
    </g>
   </g>
   <g id="text_11">
    <!-- test 50, water 30/35$^\circ$C, 4h defr, 30pct, 15/01/2018 -->
    <defs>
     <path d="
M25 5.60938
Q19.8281 5.60938 15.3594 8.21875
Q10.8906 10.8438 8.25 15.375
Q5.60938 19.9219 5.60938 25
Q5.60938 30.0781 8.25 34.6094
Q10.8906 39.1562 15.3594 41.7656
Q19.8281 44.3906 25 44.3906
Q30.1719 44.3906 34.6094 41.75
Q39.0625 39.1094 41.6719 34.5938
Q44.2812 30.0781 44.2812 25
Q44.2812 19.9219 41.6719 15.4062
Q39.0625 10.8906 34.6094 8.25
Q30.1719 5.60938 25 5.60938
M25 9.625
Q31.25 9.625 35.7656 14.1875
Q40.2812 18.75 40.2812 25
Q40.2812 29 38.2031 32.5938
Q36.1406 36.1875 32.625 38.2812
Q29.1094 40.375 25 40.375
Q21.9219 40.375 19.1406 39.1719
Q16.3594 37.9844 14.1562 35.7812
Q11.9688 33.5938 10.7969 30.8281
Q9.625 28.0781 9.625 25
Q9.625 18.75 14.1406 14.1875
Q18.6562 9.625 25 9.625" id="Cmsy10-b1"/>
     <path d="
M37.7969 64.3125
L12.8906 25.3906
L37.7969 25.3906
z

M35.2031 72.9062
L47.6094 72.9062
L47.6094 25.3906
L58.0156 25.3906
L58.0156 17.1875
L47.6094 17.1875
L47.6094 0
L37.7969 0
L37.7969 17.1875
L4.89062 17.1875
L4.89062 26.7031
z
" id="BitstreamVeraSans-Roman-34"/>
     <path d="
M11.7188 12.4062
L22.0156 12.4062
L22.0156 4
L14.0156 -11.625
L7.71875 -11.625
L11.7188 4
z
" id="BitstreamVeraSans-Roman-2c"/>
     <path d="
M64.4062 67.2812
L64.4062 56.8906
Q59.4219 61.5312 53.7812 63.8125
Q48.1406 66.1094 41.7969 66.1094
Q29.2969 66.1094 22.6562 58.4688
Q16.0156 50.8281 16.0156 36.375
Q16.0156 21.9688 22.6562 14.3281
Q29.2969 6.6875 41.7969 6.6875
Q48.1406 6.6875 53.7812 8.98438
Q59.4219 11.2812 64.4062 15.9219
L64.4062 5.60938
Q59.2344 2.09375 53.4375 0.328125
Q47.6562 -1.42188 41.2188 -1.42188
Q24.6562 -1.42188 15.125 8.70312
Q5.60938 18.8438 5.60938 36.375
Q5.60938 53.9531 15.125 64.0781
Q24.6562 74.2188 41.2188 74.2188
Q47.75 74.2188 53.5312 72.4844
Q59.3281 70.75 64.4062 67.2812" id="BitstreamVeraSans-Roman-43"/>
     <path d="
M54.8906 33.0156
L54.8906 0
L45.9062 0
L45.9062 32.7188
Q45.9062 40.4844 42.875 44.3281
Q39.8438 48.1875 33.7969 48.1875
Q26.5156 48.1875 22.3125 43.5469
Q18.1094 38.9219 18.1094 30.9062
L18.1094 0
L9.07812 0
L9.07812 75.9844
L18.1094 75.9844
L18.1094 46.1875
Q21.3438 51.125 25.7031 53.5625
Q30.0781 56 35.7969 56
Q45.2188 56 50.0469 50.1719
Q54.8906 44.3438 54.8906 33.0156" id="BitstreamVeraSans-Roman-68"/>
     <path d="
M48.7812 52.5938
L48.7812 44.1875
Q44.9688 46.2969 41.1406 47.3438
Q37.3125 48.3906 33.4062 48.3906
Q24.6562 48.3906 19.8125 42.8438
Q14.9844 37.3125 14.9844 27.2969
Q14.9844 17.2812 19.8125 11.7344
Q24.6562 6.20312 33.4062 6.20312
Q37.3125 6.20312 41.1406 7.25
Q44.9688 8.29688 48.7812 10.4062
L48.7812 2.09375
Q45.0156 0.34375 40.9844 -0.53125
Q36.9688 -1.42188 32.4219 -1.42188
Q20.0625 -1.42188 12.7812 6.34375
Q5.51562 14.1094 5.51562 27.2969
Q5.51562 40.6719 12.8594 48.3281
Q20.2188 56 33.0156 56
Q37.1562 56 41.1094 55.1406
Q45.0625 54.2969 48.7812 52.5938" id="BitstreamVeraSans-Roman-63"/>
     <path d="
M45.4062 46.3906
L45.4062 75.9844
L54.3906 75.9844
L54.3906 0
L45.4062 0
L45.4062 8.20312
Q42.5781 3.32812 38.25 0.953125
Q33.9375 -1.42188 27.875 -1.42188
Q17.9688 -1.42188 11.7344 6.48438
Q5.51562 14.4062 5.51562 27.2969
Q5.51562 40.1875 11.7344 48.0938
Q17.9688 56 27.875 56
Q33.9375 56 38.25 53.625
Q42.5781 51.2656 45.4062 46.3906
M14.7969 27.2969
Q14.7969 17.3906 18.875 11.75
Q22.9531 6.10938 30.0781 6.10938
Q37.2031 6.10938 41.2969 11.75
Q45.4062 17.3906 45.4062 27.2969
Q45.4062 37.2031 41.2969 42.8438
Q37.2031 48.4844 30.0781 48.4844
Q22.9531 48.4844 18.875 42.8438
Q14.7969 37.2031 14.7969 27.2969" id="BitstreamVeraSans-Roman-64"/>
     <path d="
M18.3125 70.2188
L18.3125 54.6875
L36.8125 54.6875
L36.8125 47.7031
L18.3125 47.7031
L18.3125 18.0156
Q18.3125 11.3281 20.1406 9.42188
Q21.9688 7.51562 27.5938 7.51562
L36.8125 7.51562
L36.8125 0
L27.5938 0
Q17.1875 0 13.2344 3.875
Q9.28125 7.76562 9.28125 18.0156
L9.28125 47.7031
L2.6875 47.7031
L2.6875 54.6875
L9.28125 54.6875
L9.28125 70.2188
z
" id="BitstreamVeraSans-Roman-74"/>
     <path d="
M41.1094 46.2969
Q39.5938 47.1719 37.8125 47.5781
Q36.0312 48 33.8906 48
Q26.2656 48 22.1875 43.0469
Q18.1094 38.0938 18.1094 28.8125
L18.1094 0
L9.07812 0
L9.07812 54.6875
L18.1094 54.6875
L18.1094 46.1875
Q20.9531 51.1719 25.4844 53.5781
Q30.0312 56 36.5312 56
Q37.4531 56 38.5781 55.875
Q39.7031 55.7656 41.0625 55.5156
z
" id="BitstreamVeraSans-Roman-72"/>
     <path d="
M18.1094 8.20312
L18.1094 -20.7969
L9.07812 -20.7969
L9.07812 54.6875
L18.1094 54.6875
L18.1094 46.3906
Q20.9531 51.2656 25.2656 53.625
Q29.5938 56 35.5938 56
Q45.5625 56 51.7812 48.0938
Q58.0156 40.1875 58.0156 27.2969
Q58.0156 14.4062 51.7812 6.48438
Q45.5625 -1.42188 35.5938 -1.42188
Q29.5938 -1.42188 25.2656 0.953125
Q20.9531 3.32812 18.1094 8.20312
M48.6875 27.2969
Q48.6875 37.2031 44.6094 42.8438
Q40.5312 48.4844 33.4062 48.4844
Q26.2656 48.4844 22.1875 42.8438
Q18.1094 37.2031 18.1094 27.2969
Q18.1094 17.3906 22.1875 11.75
Q26.2656 6.10938 33.4062 6.10938
Q40.5312 6.10938 44.6094 11.75
Q48.6875 17.3906 48.6875 27.2969" id="BitstreamVeraSans-Roman-70"/>
    </defs>
    <g transform="translate(76.633125 22.111875)scale(0.12 -0.12)">
     <use transform="translate(0.0 0.015625)" xlink:href="#BitstreamVeraSans-Roman-74"/>
     <use transform="translate(39.208984375 0.015625)" xlink:href="#BitstreamVeraSans-Roman-65"/>
     <use transform="translate(100.732421875 0.015625)" xlink:href="#BitstreamVeraSans-Roman-73"/>
     <use transform="translate(152.83203125 0.015625)" xlink:href="#BitstreamVeraSans-Roman-74"/>
     <use transform="translate(192.041015625 0.015625)" xlink:href="#BitstreamVeraSans-Roman-20"/>
     <use transform="translate(223.828125 0.015625)" xlink:href="#BitstreamVeraSans-Roman-35"/>
     <use transform="translate(287.451171875 0.015625)" xlink:href="#BitstreamVeraSans-Roman-30"/>
     <use transform="translate(351.07421875 0.015625)" xlink:href="#BitstreamVeraSans-Roman-2c"/>
     <use transform="translate(382.861328125 0.015625)" xlink:href="#BitstreamVeraSans-Roman-20"/>
     <use transform="translate(414.6484375 0.015625)" xlink:href="#BitstreamVeraSans-Roman-77"/>
     <use transform="translate(496.435546875 0.015625)" xlink:href="#BitstreamVeraSans-Roman-61"/>
     <use transform="translate(557.71484375 0.015625)" xlink:href="#BitstreamVeraSans-Roman-74"/>
     <use transform="translate(596.923828125 0.015625)" xlink:href="#BitstreamVeraSans-Roman-65"/>
     <use transform="translate(658.447265625 0.015625)" xlink:href="#BitstreamVeraSans-Roman-72"/>
     <use transform="translate(699.560546875 0.015625)" xlink:href="#BitstreamVeraSans-Roman-20"/>
     <use transform="translate(731.34765625 0.015625)" xlink:href="#BitstreamVeraSans-Roman-33"/>
     <use transform="translate(794.970703125 0.015625)" xlink:href="#BitstreamVeraSans-Roman-30"/>
     <use transform="translate(858.59375 0.015625)" xlink:href="#BitstreamVeraSans-Roman-2f"/>
     <use transform="translate(892.28515625 0.015625)" xlink:href="#BitstreamVeraSans-Roman-33"/>
     <use transform="translate(955.908203125 0.015625)" xlink:href="#BitstreamVeraSans-Roman-35"/>
     <use transform="translate(1031.82226562 42.53125)scale(0.7)" xlink:href="#Cmsy10-b1"/>
     <use transform="translate(1088.18984375 0.015625)" xlink:href="#BitstreamVeraSans-Roman-43"/>
     <use transform="translate(1158.0140625 0.015625)" xlink:href="#BitstreamVeraSans-Roman-2c"/>
     <use transform="translate(1189.80117187 0.015625)" xlink:href="#BitstreamVeraSans-Roman-20"/>
     <use transform="translate(1221.58828125 0.015625)" xlink:href="#BitstreamVeraSans-Roman-34"/>
     <use transform="translate(1285.21132812 0.015625)" xlink:href="#BitstreamVeraSans-Roman-68"/>
     <use transform="translate(1348.59023437 0.015625)" xlink:href="#BitstreamVeraSans-Roman-20"/>
     <use transform="translate(1380.37734375 0.015625)" xlink:href="#BitstreamVeraSans-Roman-64"/>
     <use transform="translate(1443.85390625 0.015625)" xlink:href="#BitstreamVeraSans-Roman-65"/>
     <use transform="translate(1505.37734375 0.015625)" xlink:href="#BitstreamVeraSans-Roman-66"/>
     <use transform="translate(1540.58242187 0.015625)" xlink:href="#BitstreamVeraSans-Roman-72"/>
     <use transform="translate(1581.69570312 0.015625)" xlink:href="#BitstreamVeraSans-Roman-2c"/>
     <use transform="translate(1613.4828125 0.015625)" xlink:href="#BitstreamVeraSans-Roman-20"/>
     <use transform="translate(1645.26992187 0.015625)" xlink:href="#BitstreamVeraSans-Roman-33"/>
     <use transform="translate(1708.89296875 0.015625)" xlink:href="#BitstreamVeraSans-Roman-30"/>
     <use transform="translate(1772.51601562 0.015625)" xlink:href="#BitstreamVeraSans-Roman-70"/>
     <use transform="translate(1835.99257812 0.015625)" xlink:href="#BitstreamVeraSans-Roman-63"/>
     <use transform="translate(1890.97304687 0.015625)" xlink:href="#BitstreamVeraSans-Roman-74"/>
     <use transform="translate(1930.18203125 0.015625)" xlink:href="#BitstreamVeraSans-Roman-2c"/>
     <use transform="translate(1961.96914062 0.015625)" xlink:href="#BitstreamVeraSans-Roman-20"/>
     <use transform="translate(1993.75625 0.015625)" xlink:href="#BitstreamVeraSans-Roman-31"/>
     <use transform="translate(2057.37929687 0.015625)" xlink:href="#BitstreamVeraSans-Roman-35"/>
     <use transform="translate(2121.00234375 0.015625)" xlink:href="#BitstreamVeraSans-Roman-2f"/>
     <use transform="translate(2154.69375 0.015625)" xlink:href="#BitstreamVeraSans-Roman-30"/>
     <use transform="translate(2218.31679687 0.015625)" xlink:href="#BitstreamVeraSans-Roman-31"/>
     <use transform="translate(2281.93984375 0.015625)" xlink:href="#BitstreamVeraSans-Roman-2f"/>
     <use transform="translate(2312.00625 0.015625)" xlink:href="#BitstreamVeraSans-Roman-32"/>
     <use transform="translate(2375.62929687 0.015625)" xlink:href="#BitstreamVeraSans-Roman-30"/>
     <use transform="translate(2439.25234375 0.015625)" xlink:href="#BitstreamVeraSans-Roman-31"/>
     <use transform="translate(2502.87539062 0.015625)" xlink:href="#BitstreamVeraSans-Roman-38"/>
    </g>
   </g>
   <g id="legend_1">
    <g id="patch_8">
     <path d="
M448.066 158.334
L490.786 158.334
L490.786 118.978
L448.066 118.978
z
" style="fill:#ffffff;stroke:#000000;stroke-linejoin:miter;"/>
    </g>
    <g id="line2d_43">
     <path d="
M453.666 125.457" style="fill:none;stroke:#0000ff;stroke-linecap:square;"/>
    </g>
    <g id="line2d_44"/>
    <g id="text_12">
     <!-- $\dot{m}_\mathrm{C1}$ -->
     <defs>
      <path d="
M22.7969 10.6875
Q26.2188 6.34375 31.3438 3.82812
Q36.4688 1.3125 42 1.3125
Q46.625 1.3125 50.5781 3.14062
Q54.5469 4.98438 57.5 8.25
Q60.4531 11.5312 62.0312 15.6719
Q63.625 19.8281 63.625 24.4219
Q63.625 25.2031 64.5 25.2031
L65.7188 25.2031
Q66.5 25.2031 66.5 24.2188
Q66.5 19 64.5 14.1406
Q62.5 9.28125 58.8281 5.59375
Q55.1719 1.90625 50.4062 -0.140625
Q45.6562 -2.20312 40.4844 -2.20312
Q33.2969 -2.20312 26.875 0.703125
Q20.4531 3.60938 15.6875 8.65625
Q10.9375 13.7188 8.26562 20.3594
Q5.60938 27 5.60938 34.1875
Q5.60938 41.3594 8.26562 48
Q10.9375 54.6406 15.6875 59.7188
Q20.4531 64.7969 26.875 67.6562
Q33.2969 70.5156 40.4844 70.5156
Q45.6094 70.5156 50.2969 68.2812
Q54.9844 66.0625 58.5 62.0156
L64.3125 70.2188
Q64.8906 70.5156 64.9844 70.5156
L65.7188 70.5156
Q66.0156 70.5156 66.25 70.2656
Q66.5 70.0156 66.5 69.6719
L66.5 42.6719
Q66.5 41.7969 65.7188 41.7969
L63.9219 41.7969
Q62.9844 41.7969 62.9844 42.6719
Q62.9844 45.5625 61.8281 49.125
Q60.6875 52.6875 58.9062 55.875
Q57.125 59.0781 54.7812 61.5312
Q49.1719 67 41.8906 67
Q36.375 67 31.3125 64.5
Q26.2656 62.0156 22.7969 57.625
Q19.1406 52.9375 17.7188 46.9531
Q16.3125 40.9688 16.3125 34.1875
Q16.3125 27.3906 17.7188 21.375
Q19.1406 15.375 22.7969 10.6875" id="Cmr10-43"/>
      <path d="
M9.28125 0
L9.28125 3.51562
Q21.7812 3.51562 21.7812 6.6875
L21.7812 59.1875
Q16.6094 56.6875 8.6875 56.6875
L8.6875 60.2031
Q20.9531 60.2031 27.2031 66.6094
L28.6094 66.6094
Q28.9531 66.6094 29.2656 66.3281
Q29.5938 66.0625 29.5938 65.7188
L29.5938 6.6875
Q29.5938 3.51562 42.0938 3.51562
L42.0938 0
z
" id="Cmr10-31"/>
      <path d="
M8.40625 61.375
Q8.40625 63.5781 10.0625 65.2344
Q11.7188 66.8906 13.9219 66.8906
Q15.2812 66.8906 16.5938 66.1562
Q17.9219 65.4375 18.6562 64.1094
Q19.3906 62.7969 19.3906 61.375
Q19.3906 59.2344 17.7656 57.5625
Q16.1562 55.9062 13.9219 55.9062
Q11.7188 55.9062 10.0625 57.5625
Q8.40625 59.2344 8.40625 61.375" id="Cmr10-5f"/>
      <path d="
M7.71875 1.70312
Q7.71875 2.29688 7.8125 2.59375
L15.2812 32.4219
Q16.0156 35.2031 16.0156 37.3125
Q16.0156 41.6094 13.0938 41.6094
Q9.96875 41.6094 8.45312 37.8594
Q6.9375 34.125 5.51562 28.4219
Q5.51562 28.125 5.21875 27.9531
Q4.9375 27.7812 4.6875 27.7812
L3.51562 27.7812
Q3.17188 27.7812 2.92188 28.1406
Q2.6875 28.5156 2.6875 28.8125
Q3.76562 33.1562 4.76562 36.1719
Q5.76562 39.2031 7.89062 41.6875
Q10.0156 44.1875 13.1875 44.1875
Q16.9375 44.1875 19.8125 41.8125
Q22.7031 39.4531 22.7031 35.7969
Q25.6875 39.7031 29.6875 41.9375
Q33.6875 44.1875 38.1875 44.1875
Q42.9219 44.1875 46.3594 41.7656
Q49.8125 39.3594 49.8125 34.9062
Q52.875 39.2656 57 41.7188
Q61.1406 44.1875 66.0156 44.1875
Q71.1875 44.1875 74.3281 41.375
Q77.4844 38.5781 77.4844 33.4062
Q77.4844 29.2969 75.6562 23.4844
Q73.8281 17.6719 71.0938 10.5
Q69.6719 7.03125 69.6719 4.5
Q69.6719 1.51562 72.0156 1.51562
Q75.9219 1.51562 78.5156 5.70312
Q81.1094 9.90625 82.1719 14.7031
Q82.4688 15.2812 83.0156 15.2812
L84.1875 15.2812
Q84.5781 15.2812 84.8438 15.0156
Q85.1094 14.75 85.1094 14.4062
Q85.1094 14.3125 85.0156 14.1094
Q83.6406 8.45312 80.25 3.65625
Q76.8594 -1.125 71.7812 -1.125
Q68.2656 -1.125 65.7656 1.29688
Q63.2812 3.71875 63.2812 7.17188
Q63.2812 8.9375 64.1094 11.0781
Q66.9375 18.6094 68.8125 24.5156
Q70.7031 30.4219 70.7031 34.9062
Q70.7031 37.7031 69.5781 39.6562
Q68.4531 41.6094 65.8281 41.6094
Q60.3594 41.6094 56.3438 38.25
Q52.3438 34.9062 49.4219 29.3906
Q49.2188 28.4219 49.125 27.875
L42.6719 2.20312
Q42.3281 0.828125 41.125 -0.140625
Q39.9375 -1.125 38.4844 -1.125
Q37.3125 -1.125 36.4062 -0.34375
Q35.5 0.4375 35.5 1.70312
Q35.5 2.29688 35.5938 2.59375
L42 28.0781
Q43.0156 32.1719 43.0156 34.9062
Q43.0156 37.7031 41.8594 39.6562
Q40.7188 41.6094 37.9844 41.6094
Q34.3281 41.6094 31.25 39.9844
Q28.1719 38.375 25.875 35.7188
Q23.5781 33.0625 21.6875 29.3906
L14.8906 2.20312
Q14.5469 0.828125 13.3438 -0.140625
Q12.1562 -1.125 10.6875 -1.125
Q9.46875 -1.125 8.59375 -0.34375
Q7.71875 0.4375 7.71875 1.70312" id="Cmmi10-6d"/>
     </defs>
     <g transform="translate(473.665625 128.2565625)scale(0.08 -0.08)">
      <use transform="translate(29.59375 1.109375)" xlink:href="#Cmr10-5f"/>
      <use transform="translate(0.0 0.328125)" xlink:href="#Cmmi10-6d"/>
      <use transform="translate(87.79296875 -25.18125)scale(0.7)" xlink:href="#Cmr10-43"/>
      <use transform="translate(138.344726562 -25.18125)scale(0.7)" xlink:href="#Cmr10-31"/>
     </g>
    </g>
    <g id="line2d_45">
     <path d="
M453.666 137.775" style="fill:none;stroke:#008000;stroke-linecap:square;"/>
    </g>
    <g id="line2d_46"/>
    <g id="text_13">
     <!-- $\dot{m}_\mathrm{C2}$ -->
     <defs>
      <path d="
M4.98438 0
L4.98438 2.6875
Q4.98438 2.9375 5.17188 3.21875
L20.7031 20.4062
Q24.2188 24.2188 26.4062 26.7969
Q28.6094 29.3906 30.75 32.7656
Q32.9062 36.1406 34.1562 39.625
Q35.4062 43.1094 35.4062 47.0156
Q35.4062 51.125 33.8906 54.8594
Q32.375 58.5938 29.375 60.8438
Q26.375 63.0938 22.125 63.0938
Q17.7812 63.0938 14.3125 60.4688
Q10.8438 57.8594 9.42188 53.7188
Q9.8125 53.8125 10.5 53.8125
Q12.75 53.8125 14.3281 52.2969
Q15.9219 50.7812 15.9219 48.3906
Q15.9219 46.0938 14.3281 44.5
Q12.75 42.9219 10.5 42.9219
Q8.15625 42.9219 6.5625 44.5469
Q4.98438 46.1875 4.98438 48.3906
Q4.98438 52.1562 6.39062 55.4375
Q7.8125 58.7344 10.4688 61.2969
Q13.1406 63.875 16.4844 65.2344
Q19.8281 66.6094 23.5781 66.6094
Q29.2969 66.6094 34.2188 64.1875
Q39.1562 61.7656 42.0312 57.3438
Q44.9219 52.9375 44.9219 47.0156
Q44.9219 42.6719 43.0156 38.7656
Q41.1094 34.8594 38.125 31.6562
Q35.1562 28.4688 30.5156 24.4062
Q25.875 20.3594 24.4219 19
L13.0938 8.10938
L22.7031 8.10938
Q29.7812 8.10938 34.5469 8.21875
Q39.3125 8.34375 39.5938 8.59375
Q40.7656 9.85938 42 17.8281
L44.9219 17.8281
L42.0938 0
z
" id="Cmr10-32"/>
     </defs>
     <g transform="translate(473.665625 140.5753125)scale(0.08 -0.08)">
      <use transform="translate(29.59375 1.109375)" xlink:href="#Cmr10-5f"/>
      <use transform="translate(0.0 0.328125)" xlink:href="#Cmmi10-6d"/>
      <use transform="translate(87.79296875 -25.18125)scale(0.7)" xlink:href="#Cmr10-43"/>
      <use transform="translate(138.344726562 -25.18125)scale(0.7)" xlink:href="#Cmr10-32"/>
     </g>
    </g>
    <g id="line2d_47">
     <path d="
M453.666 150.094" style="fill:none;stroke:#ff0000;stroke-linecap:square;"/>
    </g>
    <g id="line2d_48"/>
    <g id="text_14">
     <!-- $\dot{m}_\mathrm{C3}$ -->
     <defs>
      <path d="
M9.51562 7.71875
Q11.8594 4.29688 15.8125 2.64062
Q19.7812 0.984375 24.3125 0.984375
Q30.125 0.984375 32.5625 5.9375
Q35.0156 10.8906 35.0156 17.1875
Q35.0156 20.0156 34.5 22.8438
Q33.9844 25.6875 32.7656 28.125
Q31.5469 30.5625 29.4219 32.0312
Q27.2969 33.5 24.2188 33.5
L17.5781 33.5
Q16.7031 33.5 16.7031 34.4219
L16.7031 35.2969
Q16.7031 36.0781 17.5781 36.0781
L23.0938 36.5312
Q26.6094 36.5312 28.9219 39.1562
Q31.25 41.7969 32.3281 45.5781
Q33.4062 49.3594 33.4062 52.7812
Q33.4062 57.5625 31.1562 60.6406
Q28.9062 63.7188 24.3125 63.7188
Q20.5156 63.7188 17.0469 62.2812
Q13.5781 60.8438 11.5312 57.9062
Q11.7188 57.9531 11.8594 57.9844
Q12.0156 58.0156 12.2031 58.0156
Q14.4531 58.0156 15.9688 56.4531
Q17.4844 54.8906 17.4844 52.6875
Q17.4844 50.5312 15.9688 48.9688
Q14.4531 47.4062 12.2031 47.4062
Q10.0156 47.4062 8.45312 48.9688
Q6.89062 50.5312 6.89062 52.6875
Q6.89062 56.9844 9.46875 60.1562
Q12.0625 63.3281 16.1406 64.9688
Q20.2188 66.6094 24.3125 66.6094
Q27.3438 66.6094 30.7031 65.7031
Q34.0781 64.7969 36.8125 63.1094
Q39.5469 61.4219 41.2812 58.7812
Q43.0156 56.1562 43.0156 52.7812
Q43.0156 48.5781 41.1406 45.0156
Q39.2656 41.4531 35.9844 38.8594
Q32.7188 36.2812 28.8125 35.0156
Q33.1562 34.1875 37.0625 31.7344
Q40.9688 29.2969 43.3281 25.4844
Q45.7031 21.6875 45.7031 17.2812
Q45.7031 11.7656 42.6719 7.29688
Q39.6562 2.82812 34.7188 0.3125
Q29.7812 -2.20312 24.3125 -2.20312
Q19.625 -2.20312 14.9062 -0.40625
Q10.2031 1.375 7.20312 4.9375
Q4.20312 8.5 4.20312 13.4844
Q4.20312 15.9688 5.85938 17.625
Q7.51562 19.2812 10.0156 19.2812
Q11.625 19.2812 12.9688 18.5312
Q14.3125 17.7812 15.0625 16.4062
Q15.8281 15.0469 15.8281 13.4844
Q15.8281 11.0312 14.1094 9.375
Q12.4062 7.71875 10.0156 7.71875
z
" id="Cmr10-33"/>
     </defs>
     <g transform="translate(473.665625 152.8940625)scale(0.08 -0.08)">
      <use transform="translate(29.59375 1.109375)" xlink:href="#Cmr10-5f"/>
      <use transform="translate(0.0 0.328125)" xlink:href="#Cmmi10-6d"/>
      <use transform="translate(87.79296875 -25.18125)scale(0.7)" xlink:href="#Cmr10-43"/>
      <use transform="translate(138.344726562 -25.18125)scale(0.7)" xlink:href="#Cmr10-33"/>
     </g>
    </g>
   </g>
  </g>
 </g>
 <defs>
  <clipPath id="p3cf10670b2">
   <rect height="223.088125" width="381.09375" x="40.10625" y="27.111875"/>
  </clipPath>
 </defs>
</svg>
