<?xml version="1.0" encoding="utf-8" standalone="no"?>
<!DOCTYPE svg PUBLIC "-//W3C//DTD SVG 1.1//EN"
  "http://www.w3.org/Graphics/SVG/1.1/DTD/svg11.dtd">
<!-- Created with matplotlib (http://matplotlib.org/) -->
<svg height="288pt" version="1.1" viewBox="0 0 432 288" width="432pt" xmlns="http://www.w3.org/2000/svg" xmlns:xlink="http://www.w3.org/1999/xlink">
 <defs>
  <style type="text/css">
*{stroke-linecap:butt;stroke-linejoin:round;}
  </style>
 </defs>
 <g id="figure_1">
  <g id="patch_1">
   <path d="
M0 288
L432 288
L432 0
L0 0
z
" style="fill:#ffffff;"/>
  </g>
  <g id="axes_1">
   <g id="patch_2">
    <path d="
M52.3734 250.2
L421.2 250.2
L421.2 27.1119
L52.3734 27.1119
z
" style="fill:#ffffff;"/>
   </g>
   <g id="patch_3">
    <path clip-path="url(#p0cf8f7abe3)" d="
M52.3734 122.721
L52.3734 122.721
L421.2 122.721
L421.2 122.721
z
" style="fill:#808080;opacity:0.2;stroke:#808080;stroke-linejoin:miter;"/>
   </g>
   <g id="line2d_1">
    <path clip-path="url(#p0cf8f7abe3)" d="
M52.6808 170.838
L53.0223 170.815
L53.3638 171.13
L53.7053 171.01
L54.0468 170.712
L54.3883 170.842
L55.0713 170.649
L55.4128 171.198
L55.7543 171.238
L56.0959 170.819
L56.4374 170.72
L56.7789 170.993
L57.1204 170.662
L57.4619 170.881
L57.8034 171.314
L58.1449 171.24
L58.4864 170.706
L58.8279 170.695
L59.1694 171.087
L59.5109 171.073
L59.8524 170.643
L60.5354 170.673
L60.8769 171.17
L61.2184 171.138
L61.56 171.726
L61.9015 170.636
L62.243 171.076
L62.5845 170.973
L62.926 170.642
L63.609 170.436
L63.9505 171.419
L64.292 171.343
L64.6335 170.908
L64.975 170.677
L65.3165 170.826
L65.658 170.65
L65.9995 170.285
L66.341 170.444
L66.6825 171.22
L67.024 171.064
L67.3656 170.72
L67.7071 170.76
L68.0486 170.518
L68.3901 170.679
L68.7316 171.269
L69.0731 170.622
L69.7561 170.781
L70.0976 170.26
L70.4391 170.656
L70.7806 170.428
L71.1221 170.697
L71.4636 170.654
L71.8051 171.028
L72.1466 170.168
L72.4881 170.966
L72.8297 170.408
L73.5127 170.655
L73.8542 171.08
L74.1957 170.681
L74.5372 171.347
L74.8787 170.623
L75.2202 171.15
L75.5617 170.496
L75.9032 170.705
L76.2447 170.545
L76.5862 170.652
L76.9277 170.192
L77.2692 170.73
L77.6107 170.627
L77.9522 171.113
L78.6353 170.662
L78.9768 170.825
L80.0013 170.161
L80.3428 171.209
L80.6843 170.68
L81.3673 170.621
L81.7088 171.038
L82.0503 171.163
L82.3918 170.655
L82.7333 170.607
L83.0748 170.17
L83.7578 170.581
L84.7824 170.445
L85.1239 170.685
L85.4654 170.42
L85.8069 170.643
L86.1484 170.638
L86.4899 170.996
L86.8314 170.473
L87.1729 170.731
L87.5144 170.565
L87.8559 170.214
L88.1974 170.631
L88.8804 171.21
L89.2219 170.327
L89.5634 170.259
L89.905 170.487
L90.2465 171.204
L90.588 170.702
L90.9295 171.174
L91.271 170.284
L91.6125 170.424
L91.954 170.957
L92.2955 170.587
L92.637 170.689
L93.32 170.595
L93.6615 170.735
L94.003 170.533
L94.3445 170.757
L94.686 170.589
L95.3691 170.662
L95.7106 170.895
L96.0521 170.712
L96.3936 170.732
L97.0766 170.487
L97.4181 170.698
L98.4426 170.592
L98.7841 170.835
L99.1256 170.409
L99.4671 170.289
L99.8086 170.671
L100.15 171.244
L100.492 171.323
L100.833 170.419
L101.175 170.488
L101.516 171.139
L102.199 170.13
L102.541 170.681
L103.224 170.21
L103.565 170.997
L103.907 170.697
L104.248 170.149
L104.59 170.783
L104.931 171.128
L105.273 170.347
L105.614 170.738
L105.956 170.679
L106.297 170.24
L106.639 171.198
L106.98 170.285
L107.322 170.874
L107.663 170.966
L108.005 170.638
L108.346 170.562
L108.688 170.665
L109.029 170.064
L109.371 171.221
L109.712 170.681
L110.054 170.709
L110.395 171.197
L110.737 170.515
L111.078 171.116
L111.42 170.689
L111.761 170.546
L112.444 170.595
L112.786 170.524
L113.469 170.655
L114.152 170.557
L114.493 170.112
L114.835 171.162
L115.176 171.267
L115.518 170.578
L115.859 170.681
L116.201 170.565
L116.542 171.195
L116.884 170.628
L117.225 170.613
L117.567 171.015
L117.908 170.533
L118.25 171.144
L118.591 171.232
L118.933 170.472
L119.274 170.671
L119.616 171.252
L119.957 170.873
L120.299 171.33
L120.641 170.938
L120.982 171.516
L121.324 170.548
L122.348 170.773
L122.69 170.463
L123.031 170.622
L123.373 171.042
L123.714 170.639
L124.056 170.564
L124.397 171.506
L124.739 170.811
L125.08 171.276
L125.422 170.758
L125.763 171.439
L126.105 171.341
L126.446 170.982
L126.788 171.338
L127.129 170.601
L127.471 171.244
L128.154 171.53
L128.495 170.836
L128.837 171.344
L129.178 170.908
L129.52 170.721
L129.861 171.248
L130.203 171.982
L130.544 171.012
L130.886 171.642
L131.227 171.09
L131.569 170.95
L131.91 170.613
L132.252 171.212
L132.593 171.039
L133.276 170.944
L133.618 170.669
L133.959 170.912
L134.301 171.619
L134.642 171.653
L134.984 170.747
L135.325 171.768
L135.667 170.717
L136.008 170.837
L136.35 171.627
L137.033 170.694
L137.374 170.762
L137.716 172.225
L138.057 170.638
L138.399 170.902
L138.74 170.884
L139.082 171.437
L139.423 170.798
L139.765 171.662
L140.106 171.252
L140.448 171.835
L140.789 171.309
L141.131 172.281
L141.472 170.943
L141.814 172.225
L142.155 171.085
L142.838 171.207
L143.18 171.533
L143.521 170.743
L144.204 171.224
L144.546 171.02
L144.887 171.222
L145.229 171.76
L145.57 171.038
L145.912 171.032
L146.253 171.192
L146.595 171.218
L146.936 170.823
L147.278 171.239
L147.619 171.25
L147.961 171.084
L148.302 172.253
L148.644 171.076
L148.986 172.441
L150.352 171.09
L151.376 171.232
L151.718 171.539
L152.059 171.277
L152.401 172.441
L152.742 171.003
L153.084 171.55
L153.425 172.378
L153.767 172.805
L154.108 171.214
L154.45 171.417
L154.791 171.373
L155.133 172.389
L155.474 171.441
L155.816 172.384
L156.157 171.911
L156.499 171.68
L156.84 171.286
L157.182 171.418
L157.523 172.76
L157.865 171.469
L158.206 171.975
L158.548 171.424
L158.889 171.798
L159.231 171.45
L159.572 171.454
L159.914 172.47
L160.255 172.24
L160.597 172.523
L161.621 172.904
L161.963 171.995
L162.304 173.016
L162.646 172.807
L162.987 171.343
L163.329 172.63
L163.67 172.442
L164.012 172.109
L164.353 172.24
L164.695 171.55
L165.036 172.505
L165.378 171.592
L165.719 173.048
L166.061 172.398
L166.744 172.404
L167.085 173.085
L167.768 172.491
L168.11 172.301
L168.451 172.296
L168.793 172.809
L169.134 172.709
L169.476 173.206
L169.817 172.517
L170.159 173.062
L170.5 173.039
L170.842 172.468
L171.183 172.51
L171.525 173.265
L171.866 172.602
L172.208 172.578
L172.549 172.917
L172.891 172.991
L173.232 172.443
L173.574 172.532
L174.94 172.435
L175.281 173.236
L175.623 173.252
L175.964 172.84
L176.306 173.333
L176.989 172.715
L177.331 172.976
L177.672 172.873
L178.014 173.584
L178.355 173.486
L178.697 172.489
L179.721 172.908
L180.063 173.481
L180.404 172.496
L180.746 172.858
L181.087 172.768
L181.429 172.941
L181.77 173.391
L182.112 173.647
L182.453 172.96
L183.136 173.039
L183.478 172.774
L184.161 173.129
L184.502 173.598
L184.844 173.046
L185.185 173.213
L185.527 173.098
L185.868 173.181
L186.21 173.027
L186.551 173.345
L186.893 173.235
L187.576 172.807
L187.917 173.068
L188.259 173.095
L188.6 173.271
L189.625 173.255
L189.966 173.51
L190.308 173.451
L190.991 173.114
L191.332 173.423
L191.674 173.189
L192.015 173.85
L192.357 173.594
L192.698 172.916
L193.04 173.632
L193.381 173.264
L193.723 174.159
L194.406 173.605
L194.747 173.502
L195.43 173.621
L195.772 174.092
L196.113 174.312
L196.455 173.459
L196.796 174.274
L197.138 173.526
L197.479 173.275
L197.821 173.94
L198.504 173.325
L199.187 174.375
L199.528 174.258
L199.87 173.908
L200.211 174.432
L200.553 173.905
L200.894 173.635
L201.236 174.266
L201.577 174.13
L201.919 174.391
L202.26 174.4
L202.602 174.156
L202.943 173.729
L203.285 174.338
L203.626 173.692
L203.968 174.823
L204.309 173.87
L204.651 174.467
L205.334 174.607
L205.676 174.11
L206.017 174.594
L206.359 174.693
L206.7 174.278
L207.042 174.196
L207.383 173.954
L207.725 174.325
L208.408 174.04
L208.749 174.295
L209.091 174.4
L209.432 174.825
L209.774 174.229
L210.115 174.285
L210.457 174.158
L210.798 174.631
L211.14 174.713
L211.481 174.243
L211.823 174.142
L212.164 174.27
L212.506 175.004
L212.847 174.434
L213.53 174.549
L213.872 174.905
L214.213 174.612
L214.555 174.836
L215.238 174.565
L215.579 174.495
L215.921 174.555
L216.262 175.17
L216.604 174.585
L216.945 174.729
L217.287 174.454
L217.628 174.746
L217.97 174.763
L218.311 174.64
L218.653 174.815
L218.994 174.672
L219.336 175.445
L219.677 174.898
L220.019 174.636
L220.36 176.04
L220.702 176.092
L221.043 174.872
L221.385 175.91
L221.726 174.956
L222.068 176.385
L222.409 175.899
L222.751 174.898
L223.092 176.143
L223.434 175.396
L224.117 175.923
L224.8 175.012
L225.141 174.92
L225.483 175.802
L225.824 175.995
L226.166 175.915
L226.507 175.299
L226.849 175.875
L227.19 175.078
L227.532 176.123
L227.873 175.823
L228.215 175.105
L228.556 176.233
L228.898 176.126
L229.239 175.802
L229.581 176.292
L229.922 175.772
L230.264 176.112
L230.605 176.286
L230.947 176.678
L231.288 176.148
L231.63 176.802
L231.971 176.145
L232.313 176.173
L232.654 177.1
L232.996 176.604
L233.338 176.396
L233.679 176.616
L234.021 176.972
L234.362 176.966
L234.704 176.508
L235.045 176.705
L235.387 177.29
L235.728 176.883
L236.07 177.092
L236.411 176.919
L236.753 177.317
L237.094 176.681
L237.436 176.85
L237.777 176.424
L238.119 176.879
L238.46 176.592
L238.802 177.435
L239.143 176.897
L239.485 177.323
L240.509 177.726
L240.851 177.035
L241.192 176.897
L241.534 177.087
L241.875 177.923
L242.217 176.824
L242.9 177.783
L243.241 177.844
L243.583 177.284
L243.924 177.827
L244.266 177.415
L244.949 177.226
L245.29 176.78
L245.632 177.997
L246.315 177.449
L246.656 178.636
L246.998 177.83
L247.339 177.378
L247.681 177.995
L248.022 177.453
L248.364 178.657
L248.705 177.359
L249.047 178.15
L249.388 177.766
L249.73 177.794
L250.071 177.708
L250.413 179.077
L250.754 177.92
L251.096 178.376
L251.437 178.38
L252.12 177.879
L252.462 177.916
L252.803 178.511
L253.145 178.55
L253.486 179.592
L253.828 177.907
L254.169 178.182
L254.511 179.079
L254.852 179.491
L255.194 178.367
L255.535 178.791
L255.877 179.767
L256.56 178.904
L256.901 180.047
L257.243 179.103
L257.926 179.803
L258.267 179.577
L258.609 179.92
L259.292 178.816
L259.633 179.315
L259.975 179.344
L260.316 179.171
L260.658 179.739
L261.341 179.685
L261.683 179.641
L262.024 179.778
L262.366 179.7
L262.707 179.805
L263.049 180.3
L263.39 179.773
L263.732 179.67
L264.073 180.036
L264.415 179.779
L264.756 180.233
L265.098 180.18
L265.439 179.795
L265.781 180.377
L266.122 180.047
L266.805 180.393
L267.147 180.776
L267.488 180.569
L267.83 181.223
L268.171 180.329
L268.513 180.685
L268.854 181.356
L269.196 180.428
L269.537 181.58
L269.879 180.466
L270.22 180.968
L270.562 180.98
L270.903 180.685
L271.245 180.985
L271.586 180.482
L272.269 181.88
L272.611 181.113
L272.952 181.032
L273.294 181.36
L273.635 181.982
L273.977 180.963
L274.318 182.234
L274.66 181.215
L275.343 181.017
L275.684 182.796
L276.026 182.346
L276.367 182.452
L276.709 182.224
L277.05 182.919
L277.392 182.348
L277.733 182.295
L278.075 182.116
L278.416 182.879
L278.758 182.327
L279.099 182.209
L279.441 183.083
L279.782 182.328
L280.124 182.835
L280.465 182.746
L280.807 182.409
L281.148 182.38
L281.49 182.221
L282.173 183.353
L282.514 182.956
L282.856 183.496
L283.197 182.857
L283.539 183.035
L283.88 183.58
L284.222 183.356
L284.563 183.737
L284.905 183.588
L285.246 182.913
L285.588 183.317
L285.929 183.499
L286.271 183.452
L286.612 183.061
L286.954 184.157
L287.295 183.657
L287.978 183.806
L288.32 183.958
L288.661 184.527
L289.003 183.862
L289.686 183.493
L290.028 184.024
L290.369 183.792
L290.711 184.082
L291.394 184.187
L291.735 184.124
L292.077 184.907
L292.418 184.585
L292.76 183.932
L293.101 184.272
L293.443 184.79
L293.784 184.549
L294.126 184.707
L294.467 185.981
L294.809 184.515
L295.15 186.187
L295.492 186.16
L295.833 184.896
L296.175 184.802
L296.516 185
L296.858 185.766
L297.199 185.757
L297.541 186.098
L297.882 185.193
L298.565 186.056
L298.907 185.569
L299.248 187.064
L299.59 185.794
L299.931 186.596
L300.273 186.785
L300.614 186.507
L300.956 186.544
L301.297 186.073
L301.639 186.527
L301.98 186.733
L302.322 187.393
L302.663 187.584
L303.005 187.306
L303.346 186.786
L304.029 187.258
L304.712 187.404
L305.054 187.651
L305.395 187.409
L306.078 187.244
L306.42 188.08
L306.761 187.451
L307.103 188.014
L307.444 187.673
L308.469 188.36
L308.81 188.333
L309.152 188.07
L309.493 188.485
L309.835 187.828
L310.176 188.549
L310.518 188.152
L310.859 188.392
L311.201 188.317
L311.542 189.423
L312.225 188.459
L312.567 188.968
L312.908 190.575
L313.25 188.733
L313.591 189.599
L313.933 189.616
L314.957 190.12
L315.299 190.856
L315.64 190.212
L315.982 189.897
L316.323 190.384
L316.665 191.263
L317.006 190.477
L317.348 190.861
L317.69 190.507
L318.373 191.528
L318.714 191.27
L319.056 190.82
L319.397 191.891
L319.739 191.36
L320.08 192.061
L320.422 191.697
L320.763 192.331
L321.105 192.179
L321.446 191.761
L321.788 191.645
L322.129 191.895
L322.471 191.798
L322.812 191.426
L323.154 192.556
L323.495 191.828
L324.178 192.588
L324.52 193.057
L325.203 192.953
L325.544 193.254
L325.886 193.298
L326.227 193.153
L326.91 193.712
L327.252 193.56
L327.593 194.276
L327.935 193.758
L328.276 193.93
L328.618 193.792
L328.959 193.923
L329.301 194.197
L329.984 194.102
L330.325 194.592
L330.667 194.427
L331.35 194.388
L331.691 194.761
L332.033 195.338
L332.374 194.593
L332.716 195.048
L333.057 194.901
L333.399 195.66
L333.74 195.127
L334.082 196.042
L334.423 195.62
L334.765 196.227
L335.106 195.426
L335.448 195.31
L335.789 195.819
L336.131 195.301
L336.472 196.316
L336.814 195.907
L337.155 196.212
L337.497 195.941
L337.838 197.243
L338.18 196.092
L338.521 196.763
L338.863 196.656
L339.204 197.488
L339.546 197.204
L339.887 197.234
L340.57 198.58
L340.912 197.859
L341.595 198.054
L341.936 198.637
L342.278 198.652
L342.619 197.975
L342.961 198.971
L343.302 198.926
L343.644 200.087
L343.985 199.749
L344.327 198.919
L344.668 199.33
L345.01 200.722
L345.352 199.565
L345.693 200.08
L346.035 199.818
L346.376 200.77
L346.718 201.357
L347.059 200.713
L347.401 201.489
L347.742 201.772
L348.084 201.325
L348.425 201.151
L348.767 201.204
L349.108 201.885
L349.45 201.467
L349.791 201.461
L350.133 202.94
L350.474 201.827
L351.157 202.446
L351.499 204.017
L351.84 202.624
L352.182 203.877
L352.523 204.099
L352.865 202.868
L353.548 202.565
L353.889 204.58
L354.231 204.124
L354.572 204.837
L354.914 202.985
L355.255 204.361
L355.597 204.813
L355.938 205.044
L356.28 205.533
L356.621 204.699
L356.963 204.858
L357.646 204.901
L357.987 205.055
L358.329 205.806
L358.67 205.233
L359.012 205.654
L359.353 204.917
L359.695 206.005
L360.036 205.276
L360.378 205.972
L361.061 206.345
L361.402 206.228
L361.744 206.244
L362.085 205.664
L362.427 206.345
L362.768 206.333
L363.11 206.973
L363.451 206.84
L363.793 207.12
L364.134 206.914
L364.476 207.58
L364.817 207.253
L365.5 208.364
L365.842 208.103
L366.183 208.485
L366.525 208.592
L366.866 208.471
L367.208 208.932
L367.549 208.636
L367.891 210.169
L368.232 209.154
L368.574 209.339
L368.915 210.178
L369.257 208.8
L369.598 210.178
L369.94 210.147
L370.281 210.387
L370.623 209.962
L370.964 210.745
L371.306 210.31
L371.647 210.406
L371.989 210.242
L373.013 211.005
L373.355 210.966
L373.697 210.367
L374.038 211.456
L374.38 211.387
L374.721 211.078
L375.063 211.875
L375.404 211.842
L375.746 211.628
L376.429 212.737
L376.77 212.494
L377.112 212.632
L377.453 213.843
L377.795 213.011
L378.136 212.813
L378.478 213.719
L378.819 213.557
L379.161 212.931
L379.502 213.589
L379.844 213.954
L380.185 213.68
L380.527 213.585
L380.868 214.304
L381.21 213.788
L381.551 215.056
L381.893 214.176
L382.234 213.69
L382.576 213.605
L383.259 214.657
L383.6 214.862
L383.942 214.719
L384.283 214.381
L384.625 215.245
L384.966 215.051
L385.308 214.498
L385.649 215.755
L385.991 216.082
L386.332 215.154
L386.674 217.078
L387.357 216.002
L387.698 217.215
L388.04 217.356
L388.723 217.096
L389.064 217.942
L389.406 216.885
L389.747 217.35
L390.089 216.607
L390.43 217.396
L390.772 216.877
L391.113 217.877
L391.455 218.328
L391.796 217.672
L392.138 218.716
L392.479 217.845
L392.821 218.807
L393.162 218.586
L393.504 218.521
L393.845 218.641
L394.187 218.263
L394.528 220.319
L394.87 219.366
L395.211 219.098
L395.553 219.483
L395.894 220.889
L396.236 220.078
L396.577 221.104
L396.919 220.584
L397.26 220.362
L397.943 221.617
L398.285 221.827
L398.626 221.678
L398.968 222.364
L399.309 221.577
L399.651 222.405
L399.992 222.328
L400.334 221.967
L400.675 222.707
L401.017 224.037
L401.358 222.368
L401.7 222.447
L402.042 223.066
L402.383 224.119
L402.725 222.59
L403.066 224.442
L403.408 223.657
L403.749 224.505
L404.091 223.071
L404.432 223.293
L404.774 224.509
L405.457 225.105
L405.798 225.68
L406.14 225.301
L406.481 225.644
L406.823 224.825
L407.164 225.262
L407.506 226.719
L407.847 225.698
L408.189 226.828
L408.53 225.242
L408.872 225.468
L409.213 225.938
L409.555 226.065
L409.896 227.478
L410.238 226.799
L410.579 226.679
L410.921 228.409
L411.262 228.46
L411.604 227.528
L411.945 228.674
L412.287 228.941
L412.628 228.149
L412.97 229.306
L413.311 229.132
L413.653 229.984
L413.994 229.174
L414.336 229.53
L414.677 228.934
L415.019 230.109
L415.36 229.719
L416.385 229.784
L416.726 231.264
L417.068 230.232
L417.409 230.541
L417.751 229.875
L418.092 232.535
L418.434 231.093
L418.775 232.881
L419.117 231.281
L419.458 233.264
L419.8 232.637
L420.141 231.308
L420.483 232.944
L420.824 231.915
L420.824 231.915" style="fill:none;stroke:#0000ff;stroke-linecap:square;"/>
   </g>
   <g id="line2d_2">
    <path clip-path="url(#p0cf8f7abe3)" d="
M52.6808 171.762
L53.0223 172.419
L53.3638 171.794
L53.7053 172.355
L54.0468 171.462
L54.3883 171.35
L54.7298 171.68
L55.0713 171.097
L55.4128 171.666
L56.0959 171.644
L56.4374 171.832
L56.7789 171.786
L57.1204 171.573
L57.4619 171.913
L58.1449 171.487
L58.4864 172.384
L58.8279 171.749
L59.1694 172.407
L59.5109 171.371
L59.8524 171.773
L60.1939 170.697
L60.5354 171.2
L60.8769 171.171
L61.9015 172.227
L62.243 171.407
L62.5845 171.484
L62.926 171.329
L63.2675 171.748
L63.609 171.617
L63.9505 172.03
L64.292 171.676
L64.6335 172.232
L64.975 171.681
L65.3165 171.688
L65.658 171.942
L65.9995 171.826
L66.341 172.349
L66.6825 171.613
L67.024 171.728
L67.3656 172.296
L67.7071 172.341
L68.0486 171.373
L68.3901 171.74
L69.0731 171.722
L69.4146 171.535
L69.7561 170.559
L70.4391 172.079
L70.7806 170.778
L71.1221 171.711
L71.4636 171.456
L71.8051 171.73
L72.1466 171.604
L72.8297 171.702
L73.1712 171.044
L73.5127 171.082
L73.8542 171.449
L74.1957 171.311
L74.5372 172.003
L74.8787 170.519
L75.2202 170.694
L75.5617 171.336
L75.9032 171.106
L76.2447 170.551
L76.5862 171.349
L76.9277 170.835
L77.6107 171.341
L77.9522 170.573
L78.2937 171.155
L78.6353 170.644
L78.9768 170.876
L79.3183 172.053
L79.6598 171.795
L80.0013 171.337
L80.3428 170.536
L80.6843 170.638
L81.0258 170.569
L81.3673 171.009
L81.7088 171.13
L82.3918 170.826
L82.7333 170.37
L83.0748 170.864
L83.4163 170.649
L83.7578 172.171
L84.0994 170.883
L84.4409 171.81
L84.7824 170.771
L85.1239 172.28
L85.4654 170.802
L85.8069 170.603
L86.1484 171.275
L86.4899 170.454
L87.5144 170.582
L87.8559 170.475
L88.1974 170.673
L88.5389 172.084
L88.8804 172.122
L89.2219 170.856
L89.5634 171.009
L89.905 171.586
L90.2465 170.701
L90.588 170.692
L91.271 171.472
L92.2955 171.865
L92.637 171.503
L92.9785 170.564
L93.32 171.049
L93.6615 171.182
L94.003 171.854
L94.3445 170.949
L94.686 172.278
L95.0275 171.64
L95.3691 171.694
L95.7106 172.288
L96.0521 171.58
L96.3936 171.757
L96.7351 171.638
L97.0766 171.659
L97.4181 172.296
L97.7596 171.258
L98.1011 171.289
L98.4426 171.649
L98.7841 170.911
L99.1256 171.527
L99.4671 170.952
L99.8086 171.09
L100.15 171.558
L100.492 171.176
L100.833 172.049
L101.175 171.356
L101.516 171.062
L101.858 171.228
L102.199 171.268
L102.541 171.428
L102.882 172.315
L103.224 170.718
L103.565 170.654
L103.907 171.413
L104.248 171.654
L104.931 171.508
L105.273 170.752
L105.614 170.82
L105.956 171.721
L106.297 171.357
L106.639 171.561
L106.98 171.28
L107.322 171.998
L107.663 172.369
L108.005 172.229
L108.346 171.785
L108.688 172.322
L109.029 171.726
L109.371 172.171
L109.712 171.72
L110.054 171.747
L110.395 171.565
L110.737 172.428
L111.078 171.13
L111.42 171.733
L111.761 170.905
L112.103 171.87
L112.444 171.686
L112.786 171.721
L113.127 172.496
L113.469 171.738
L113.81 171.618
L114.152 172.401
L114.493 172.406
L114.835 171.589
L115.176 171.701
L115.518 172.332
L115.859 171.742
L116.201 171.657
L116.542 172.398
L116.884 171.592
L117.225 171.319
L117.908 171.812
L118.25 171.501
L118.591 171.653
L118.933 171.294
L119.274 171.313
L119.616 171.14
L119.957 171.752
L120.299 171.902
L120.641 172.252
L120.982 171.665
L121.324 172.194
L121.665 171.824
L122.007 171.865
L122.348 172.222
L122.69 171.777
L123.031 171.646
L123.373 172.402
L123.714 172.367
L124.056 171.73
L124.739 171.696
L125.08 171.784
L125.422 172.335
L125.763 171.798
L126.105 172.582
L126.446 171.747
L126.788 171.866
L127.129 171.723
L127.471 172.33
L127.812 171.841
L128.154 172.558
L128.495 171.682
L128.837 172.634
L129.178 171.976
L129.52 172.205
L129.861 172.801
L130.203 172.46
L130.544 172.362
L130.886 172.823
L131.227 172.447
L131.91 172.124
L132.252 172.782
L132.593 171.853
L132.935 171.917
L133.618 172.352
L133.959 172.216
L134.301 172.514
L134.642 172.322
L134.984 172.301
L135.325 172.047
L135.667 172.036
L136.008 172.261
L136.35 172.279
L136.691 172.565
L137.033 172.607
L137.374 171.981
L137.716 172.784
L138.057 171.845
L139.082 172.05
L139.423 172.342
L139.765 172.813
L140.448 172.253
L140.789 172.82
L141.131 171.913
L141.472 172.058
L141.814 171.881
L142.155 172.367
L142.497 172.366
L142.838 172.671
L143.18 172.065
L143.521 172.613
L143.863 172.634
L144.204 172.168
L144.546 172.928
L144.887 172.602
L145.229 172.903
L145.57 172.179
L145.912 172.946
L146.253 172.323
L146.595 172.354
L146.936 172.265
L147.278 172.91
L147.619 172.378
L147.961 172.208
L148.302 172.541
L148.644 172.354
L148.986 172.598
L149.327 172.43
L149.669 172.953
L150.01 172.944
L150.352 173.064
L150.693 172.386
L152.059 172.705
L152.401 173.475
L152.742 173.071
L153.084 172.465
L153.425 173.433
L153.767 172.908
L154.108 172.746
L154.791 172.988
L155.133 172.84
L155.474 172.897
L155.816 172.486
L156.157 173.468
L156.499 173.695
L156.84 173.233
L157.182 173.603
L157.523 173.433
L157.865 173.475
L158.206 173.136
L158.548 173.593
L158.889 172.976
L159.914 172.877
L160.255 173.692
L160.597 172.797
L161.28 172.894
L161.621 174.075
L161.963 173.016
L162.304 172.964
L162.646 173.534
L162.987 173.458
L163.329 173.016
L163.67 172.974
L164.012 173.669
L164.353 173.108
L164.695 173.157
L165.036 173.82
L165.378 172.97
L165.719 173.38
L166.061 173.529
L166.402 173.498
L166.744 173.683
L167.085 174.375
L167.427 173.245
L167.768 174.521
L168.11 174.809
L168.451 174.098
L168.793 174.18
L169.134 173.478
L169.476 173.116
L169.817 174.78
L170.159 174.726
L170.5 173.291
L170.842 173.512
L171.525 173.543
L171.866 174.166
L172.208 173.759
L172.549 173.605
L172.891 174.804
L173.232 173.557
L173.574 174.256
L173.915 173.832
L174.257 174.977
L174.598 174.589
L174.94 173.543
L175.281 175.031
L175.623 174.755
L175.964 173.713
L176.306 173.923
L176.647 173.725
L176.989 173.828
L177.331 174.403
L177.672 174.341
L178.355 175.398
L178.697 174.43
L179.038 174.873
L179.38 174.967
L179.721 174.787
L180.063 175.006
L180.404 174.914
L180.746 175.237
L181.087 174.305
L181.429 175.192
L181.77 175.156
L182.112 174.853
L182.453 175.231
L182.795 174.388
L183.136 175.432
L183.478 174.293
L183.819 175.368
L184.161 174.563
L184.502 175.279
L184.844 174.442
L185.185 174.146
L185.527 175.137
L185.868 174.644
L186.21 174.808
L186.551 175.123
L186.893 175
L187.234 173.83
L187.576 174.705
L187.917 175.124
L188.259 174.951
L188.6 175.49
L188.942 175.382
L189.283 174.775
L190.308 174.752
L190.649 175.459
L190.991 175.436
L191.332 174.744
L191.674 175.428
L192.015 175.304
L192.357 175.851
L192.698 175.035
L193.04 175.098
L193.381 175.35
L193.723 174.915
L194.064 175.143
L194.406 175.71
L194.747 175.222
L195.43 175.281
L196.113 175.307
L196.455 174.999
L196.796 175.576
L197.138 175.781
L197.479 175.379
L197.821 175.199
L198.162 175.828
L198.504 176.016
L198.845 175.879
L199.528 176.024
L199.87 175.369
L200.211 175.453
L200.553 175.378
L200.894 175.442
L201.236 175.7
L201.577 175.38
L201.919 175.351
L202.26 175.947
L202.602 176.148
L202.943 175.405
L203.285 176.189
L203.626 176.201
L203.968 175.451
L204.309 175.647
L204.651 176.363
L205.334 176.075
L205.676 176.57
L206.017 175.684
L206.359 176.027
L206.7 176.55
L207.042 176.048
L207.383 176.652
L207.725 176.083
L208.066 176.023
L208.408 176.352
L208.749 177.132
L209.091 176.318
L209.432 176.034
L209.774 176.201
L210.457 176.963
L210.798 175.955
L211.481 175.891
L211.823 176.607
L212.164 176.003
L212.506 176.58
L213.189 176.359
L213.53 176.88
L213.872 176.06
L214.213 176.671
L214.555 176.759
L214.896 176.096
L215.238 176.378
L215.579 176.154
L215.921 177.077
L216.262 176.12
L216.604 176.147
L216.945 176.458
L217.287 177.528
L217.628 178.094
L217.97 176.802
L218.311 176.42
L218.653 177.014
L218.994 176.666
L219.336 176.583
L219.677 177.913
L220.019 177.784
L220.36 177.871
L220.702 176.652
L221.043 178.283
L221.385 177.824
L221.726 176.838
L222.068 177.11
L222.409 178.3
L222.751 178.011
L223.092 178.039
L223.775 176.941
L224.117 177.292
L224.458 176.913
L224.8 178.229
L225.141 178.412
L225.483 177.846
L225.824 178.216
L226.166 178.29
L226.507 178.517
L226.849 177.985
L227.19 178.167
L227.532 177.852
L227.873 178.366
L228.215 178.584
L228.556 178.563
L229.581 178.162
L229.922 179.129
L230.264 178.975
L230.947 178.899
L231.288 178.462
L231.63 178.576
L231.971 179.117
L232.313 178.64
L232.654 178.441
L232.996 178.675
L233.338 178.672
L233.679 179.681
L234.021 179.074
L234.362 179.857
L234.704 178.987
L235.045 179.059
L235.387 178.783
L235.728 179.009
L236.07 178.991
L236.753 179.152
L237.094 179.689
L237.436 179.077
L237.777 179.192
L238.119 179.457
L238.46 179.481
L238.802 179.209
L239.143 180.107
L239.485 179.97
L239.826 179.985
L240.168 179.298
L240.509 180.963
L240.851 179.755
L241.192 179.489
L241.534 179.367
L241.875 180.699
L242.217 180.687
L242.9 181.08
L243.241 179.688
L243.583 179.766
L243.924 180.113
L244.266 179.682
L244.607 180.167
L244.949 179.995
L245.29 181.114
L245.632 180.936
L245.973 180.041
L246.315 179.882
L246.656 181.474
L247.339 180.511
L248.022 181.265
L248.364 180.919
L248.705 181.57
L249.047 181.077
L249.388 181.015
L249.73 181.868
L250.071 181.688
L250.413 181.073
L250.754 181.597
L251.096 181.713
L251.437 181.138
L251.779 181.866
L252.12 181.076
L252.462 181.282
L252.803 181.709
L253.145 181.509
L253.486 181.45
L253.828 181.589
L254.169 181.579
L254.511 182.146
L254.852 182.187
L255.194 181.737
L255.535 181.724
L255.877 181.198
L256.218 181.599
L256.56 181.582
L256.901 182.754
L257.243 181.772
L257.584 181.796
L257.926 182.92
L258.267 182.241
L258.609 182.396
L258.95 182.207
L259.633 183.226
L259.975 182.096
L260.316 182.406
L260.658 183.485
L260.999 183.554
L261.341 182.486
L262.366 182.355
L262.707 183.504
L263.049 183.176
L263.39 183.496
L263.732 184.052
L264.073 183.803
L264.415 183.283
L264.756 183.63
L265.098 183.617
L265.439 183.375
L265.781 183.605
L266.464 183.369
L266.805 183.612
L267.147 184.004
L267.488 183.9
L268.171 184.657
L268.513 184.226
L268.854 184.702
L269.196 184.093
L269.537 184.136
L269.879 184.733
L270.22 184.006
L270.562 183.996
L270.903 184.246
L271.586 183.925
L272.269 184.581
L272.611 185.358
L272.952 184.182
L273.294 184.543
L273.977 184.868
L274.318 184.738
L274.66 185.326
L275.001 184.72
L275.343 184.749
L275.684 185.427
L276.026 184.734
L276.367 186.37
L277.05 185.208
L277.392 184.905
L277.733 185.336
L278.075 184.873
L278.758 185.743
L279.099 184.936
L279.441 186.694
L279.782 185.378
L280.124 186.315
L280.465 185.57
L281.148 187.162
L281.49 185.647
L281.831 186.756
L282.173 186.176
L282.514 186.502
L282.856 186.593
L283.197 186.307
L283.539 186.666
L283.88 186.61
L284.222 187.232
L284.563 186.558
L284.905 186.668
L285.246 187.315
L285.929 186.835
L286.271 187.412
L286.954 187.296
L287.295 186.971
L287.637 187.728
L287.978 187.317
L288.32 187.337
L288.661 187.479
L289.003 187.907
L289.345 187.289
L289.686 187.735
L290.028 187.874
L290.711 187.582
L291.052 187.731
L291.394 188.427
L291.735 188.606
L292.077 187.795
L292.418 188.608
L292.76 188.761
L293.101 187.979
L293.443 187.945
L293.784 189.785
L294.467 188.47
L295.15 188.841
L295.492 188.336
L295.833 189.858
L296.175 188.698
L296.516 190.401
L296.858 188.804
L297.199 189.889
L297.541 189.996
L297.882 188.817
L298.224 189.925
L298.565 188.715
L298.907 189.919
L299.248 189.01
L299.59 190.698
L299.931 190.397
L300.273 190.617
L301.297 190.591
L301.639 191.216
L301.98 190.924
L302.322 190.892
L302.663 191.243
L303.005 191.191
L303.346 190.892
L303.688 191.253
L304.029 191.383
L304.371 191.386
L304.712 191.75
L305.054 191.099
L305.395 190.867
L305.737 191.59
L306.078 191.735
L306.42 191.084
L306.761 191.036
L307.103 191.266
L307.444 192.05
L307.786 191.856
L308.127 191.808
L308.469 192.508
L309.152 193.009
L309.493 191.867
L309.835 191.82
L310.176 192.328
L310.518 191.567
L310.859 193.351
L311.201 193.34
L311.542 193.463
L311.884 193.726
L312.225 191.964
L312.567 193.357
L312.908 193.879
L313.25 193.305
L313.591 193.794
L313.933 193.914
L314.274 193.878
L314.616 193.285
L314.957 193.91
L315.299 194.096
L315.982 193.764
L316.323 193.832
L316.665 194.541
L317.006 194.478
L317.348 194.782
L317.69 193.913
L318.031 194.536
L318.373 194.336
L318.714 194.513
L319.056 194.356
L319.397 194.73
L319.739 194.681
L320.08 194.956
L320.422 194.779
L320.763 195.582
L321.446 194.787
L321.788 196.349
L322.471 196.724
L323.154 195.323
L323.837 196.899
L324.178 196.624
L324.52 195.215
L324.861 197.041
L325.203 196.858
L325.544 197.305
L325.886 197.21
L326.227 197.29
L326.569 196.589
L326.91 196.592
L327.593 197.763
L327.935 196.651
L328.618 197.727
L328.959 197.4
L329.301 197.517
L329.642 197.969
L329.984 198.061
L330.325 197.935
L330.667 198.55
L331.008 197.74
L332.033 198.242
L332.374 199.959
L332.716 199.551
L333.057 198.45
L333.399 198.31
L333.74 198.595
L334.082 198.561
L334.765 199.916
L335.106 200.178
L335.448 200.101
L335.789 200.351
L336.131 199.899
L336.472 200.025
L336.814 201.057
L337.155 199.797
L337.497 201.149
L337.838 200.675
L338.521 200.592
L338.863 201.043
L339.204 200.63
L339.546 201.323
L339.887 200.822
L340.229 201.277
L340.57 201.466
L341.253 201.395
L341.595 201.966
L341.936 201.849
L342.278 203.523
L342.619 203.431
L342.961 203.118
L343.302 202.41
L343.644 203.324
L343.985 203.637
L344.668 203.905
L345.352 204.804
L346.035 204.404
L346.376 204.856
L346.718 204.605
L347.059 204.758
L347.401 205.673
L347.742 204.699
L348.084 205.563
L348.767 205.349
L349.108 205.739
L349.45 207.084
L349.791 205.513
L350.133 206.862
L350.474 205.506
L350.816 207
L351.157 207.31
L351.499 206.385
L352.182 207.956
L352.523 207.383
L353.548 207.882
L353.889 208.458
L354.231 208.481
L354.572 209.222
L354.914 207.791
L355.255 209.164
L355.597 208.58
L355.938 209.183
L356.28 210.624
L356.621 210.316
L356.963 210.81
L357.304 210.277
L357.646 211.198
L357.987 209.524
L358.329 209.5
L358.67 210.749
L359.012 210.604
L359.353 211.649
L360.036 211.224
L360.378 211.94
L360.719 212.243
L361.061 211.874
L361.402 212.078
L361.744 211.497
L362.085 211.576
L362.427 212.556
L362.768 212.666
L363.11 212.43
L363.451 211.8
L363.793 213.091
L364.134 212.97
L364.476 213.267
L364.817 213.818
L365.5 212.736
L365.842 214.636
L366.183 212.915
L366.525 214.599
L366.866 212.918
L367.208 214.565
L367.549 214.475
L367.891 215.188
L368.232 214.38
L368.574 214.597
L369.257 215.828
L369.598 215.117
L369.94 215.74
L370.281 215.814
L370.623 214.633
L370.964 215.705
L371.306 215.393
L371.647 215.379
L371.989 215.976
L372.33 216.054
L372.672 215.974
L373.013 216.235
L373.355 215.792
L373.697 216.412
L374.038 216.339
L374.38 218.258
L374.721 216.321
L375.063 217.919
L375.404 218.527
L375.746 218.105
L376.087 217.397
L376.429 218.05
L377.112 218.078
L377.453 217.651
L377.795 219.128
L378.136 219.422
L378.819 218.331
L379.161 219.049
L379.502 219.122
L379.844 218.597
L380.527 220.16
L380.868 219.427
L381.21 219.941
L381.551 219.895
L382.234 218.894
L382.576 219.818
L382.917 219.548
L383.259 221.148
L383.6 220.751
L383.942 221.622
L384.283 221.705
L384.625 220.521
L384.966 220.178
L385.308 221.421
L385.649 221.746
L385.991 221.718
L386.332 222.335
L386.674 221.433
L387.015 222.336
L387.357 220.327
L387.698 220.262
L388.04 221.834
L388.381 222.461
L388.723 222.78
L389.064 222.642
L389.406 221.624
L389.747 224.647
L390.089 222.424
L390.43 223.792
L390.772 222.609
L391.113 222.982
L391.455 224.201
L391.796 223.131
L392.138 223.787
L392.479 223.212
L392.821 222.917
L393.162 224.049
L393.504 223.814
L393.845 223.858
L394.187 225.428
L394.528 224.588
L394.87 225.418
L395.211 225.296
L395.553 225.679
L395.894 225.223
L396.236 226.854
L396.577 225.983
L396.919 225.638
L397.26 226.046
L397.602 226.113
L397.943 226.576
L398.285 227.424
L398.626 226.59
L398.968 228.869
L399.309 226.803
L399.651 226.92
L399.992 228.006
L400.334 227.003
L400.675 226.865
L401.017 228.32
L401.358 229.092
L401.7 227.676
L402.042 228.316
L402.383 229.625
L402.725 229.115
L403.066 229.15
L403.408 228.709
L403.749 229.667
L404.091 229.148
L404.432 229.768
L405.115 229.973
L405.457 232.084
L405.798 232.191
L406.14 230.465
L406.481 230.66
L406.823 230.555
L407.164 232.212
L407.506 232.035
L407.847 232.357
L408.189 232.954
L408.53 231.268
L408.872 231.004
L409.213 232.984
L409.555 231.035
L410.238 233.742
L410.579 233.776
L410.921 230.54
L411.262 232.999
L411.604 233.96
L411.945 236.747
L412.287 229.875
L412.628 233.736
L412.97 235.052
L413.311 237.734
L413.653 232.219
L413.994 232.955
L414.677 240.197
L415.019 233.842
L415.36 232.375
L415.702 234.726
L416.043 241.749
L416.385 236.235
L416.726 233.52
L417.068 236.208
L417.409 242.564
L417.751 240.958
L418.092 232.99
L419.117 244.57
L419.458 236.884
L419.8 233.716
L420.483 244.991
L420.824 241.228
L420.824 241.228" style="fill:none;stroke:#008000;stroke-linecap:square;"/>
   </g>
   <g id="line2d_3">
    <path clip-path="url(#p0cf8f7abe3)" d="
M52.6808 174.138
L53.0223 174.213
L53.3638 174.201
L53.7053 174.184
L54.0468 175.23
L54.3883 174.247
L54.7298 174.711
L55.0713 174.268
L55.4128 174.152
L55.7543 174.581
L56.0959 174.035
L56.4374 174.686
L56.7789 174.032
L57.1204 174.058
L57.4619 174.256
L57.8034 174.026
L58.4864 174.022
L58.8279 174.732
L59.1694 173.977
L59.5109 173.774
L60.5354 174.061
L60.8769 174.021
L61.2184 174.325
L61.9015 174.071
L62.243 174.192
L62.926 174.083
L63.2675 174.453
L63.609 174.126
L63.9505 174.099
L64.292 174.252
L64.6335 174.636
L64.975 174.337
L65.3165 174.829
L65.9995 174.199
L66.341 174.873
L66.6825 174.123
L67.024 174.304
L67.3656 175.357
L67.7071 174.118
L68.0486 174.619
L68.3901 174.45
L68.7316 174.539
L69.7561 174.001
L70.7806 174.162
L71.1221 173.912
L71.8051 174.12
L72.4881 173.936
L72.8297 173.408
L73.1712 174.432
L73.5127 174.581
L73.8542 173.974
L74.1957 173.633
L74.5372 174.621
L74.8787 174.03
L75.5617 173.993
L75.9032 174.525
L76.2447 174.435
L76.5862 174.815
L76.9277 173.979
L77.2692 174.296
L77.6107 174.066
L77.9522 174.011
L78.2937 174.417
L78.6353 174.16
L79.3183 174.022
L80.0013 174.083
L80.3428 173.965
L80.6843 174.145
L81.3673 174.006
L81.7088 174.77
L82.0503 174.198
L82.7333 174.008
L83.0748 174.135
L83.4163 174.001
L84.0994 174.021
L84.4409 174.48
L84.7824 174.034
L85.1239 174.272
L86.1484 174.214
L86.4899 173.876
L86.8314 173.71
L87.5144 174.157
L87.8559 173.837
L88.5389 174.028
L88.8804 173.93
L89.2219 174.057
L89.5634 174.036
L89.905 174.523
L90.2465 174.079
L90.588 173.881
L91.271 174.144
L91.6125 174.402
L92.2955 174.045
L92.637 174.166
L92.9785 173.932
L93.32 174.147
L94.003 174.122
L94.3445 174.26
L94.686 174.029
L95.7106 174.004
L96.0521 174.359
L96.7351 173.996
L97.0766 173.985
L97.4181 174.172
L97.7596 174.069
L98.1011 175.222
L98.4426 174.197
L98.7841 174.242
L99.1256 174.518
L99.4671 174.518
L99.8086 174.274
L100.15 174.711
L100.492 174.243
L100.833 174.015
L101.175 174.604
L101.516 174.016
L101.858 174.098
L102.199 174.732
L102.541 174.146
L103.224 173.961
L104.59 174.228
L104.931 174.215
L105.273 174.734
L105.614 174.019
L105.956 174.078
L106.297 174.491
L106.639 174.453
L106.98 174.576
L107.322 174.532
L107.663 174.822
L108.005 174.125
L109.029 174.257
L109.371 174.113
L109.712 174.384
L110.054 173.947
L111.078 174.244
L111.42 173.639
L111.761 174.143
L112.103 174.361
L112.444 174.186
L112.786 174.331
L113.127 174.062
L113.81 174.073
L114.152 174.34
L114.493 174.282
L114.835 174.503
L115.176 173.844
L115.518 173.972
L116.201 174.73
L116.884 174.147
L117.225 174.35
L117.567 175.4
L117.908 174.013
L118.591 174.425
L118.933 174.066
L119.274 175.042
L119.616 174.319
L119.957 174.058
L120.299 175.279
L120.641 174.542
L120.982 174.175
L121.324 174.026
L122.007 174.521
L122.348 175.161
L122.69 174.175
L123.031 174.049
L123.373 174.23
L123.714 174.774
L124.056 174.145
L124.397 174.661
L124.739 174.528
L125.08 174.951
L125.422 174.214
L125.763 174.609
L126.105 174.763
L126.446 174.633
L126.788 174.246
L127.129 174.154
L127.471 174.471
L127.812 174.494
L128.154 174.23
L128.495 174.992
L128.837 174.38
L129.178 175.241
L129.52 175.158
L129.861 175.3
L130.544 175.256
L131.227 175.314
L131.569 175.233
L131.91 175.798
L132.593 175.207
L132.935 175.301
L133.276 175.236
L133.618 174.807
L133.959 174.819
L134.642 175.264
L134.984 175.198
L135.325 174.398
L135.667 174.599
L136.008 174.087
L136.35 175.039
L136.691 174.47
L137.033 174.92
L137.374 175.071
L138.057 174.951
L138.399 175.177
L138.74 174.089
L139.082 175.368
L139.423 174.371
L139.765 174.926
L140.448 175.236
L140.789 174.684
L141.131 174.964
L141.472 174.142
L141.814 174.36
L142.155 175.12
L142.497 175.094
L142.838 175.265
L143.18 175.145
L143.521 175.487
L143.863 174.392
L144.204 174.761
L144.546 174.736
L144.887 174.52
L145.229 175.169
L145.912 174.734
L146.253 175.082
L146.595 174.569
L146.936 175.109
L147.278 175.264
L147.619 175.06
L147.961 175.105
L148.302 175.307
L150.352 175.002
L150.693 175.207
L151.376 175.017
L152.401 175.367
L152.742 174.916
L153.084 175.213
L153.767 175.367
L154.108 175.155
L154.45 175.635
L155.133 175.426
L155.474 175.284
L155.816 175.604
L157.523 175.311
L159.914 175.523
L160.255 175.464
L160.938 175.717
L161.28 175.625
L161.621 175.812
L162.304 175.517
L162.646 175.763
L162.987 175.365
L163.329 175.728
L164.353 175.774
L164.695 175.55
L165.036 175.838
L165.719 175.528
L166.061 175.865
L166.402 176.029
L167.085 175.725
L167.427 176.093
L167.768 175.866
L168.11 177.327
L168.451 175.881
L168.793 176.336
L169.134 176.513
L169.476 175.984
L169.817 175.862
L170.159 176.93
L170.5 175.845
L170.842 175.958
L171.866 175.838
L172.208 175.995
L172.891 175.973
L173.574 176.26
L173.915 175.952
L174.257 176.251
L174.598 176.158
L174.94 175.825
L175.281 175.966
L175.623 176.492
L175.964 175.921
L176.306 175.993
L176.647 175.867
L176.989 176.874
L177.331 176.178
L177.672 176.622
L178.014 176.165
L178.355 176.905
L178.697 176.201
L179.038 176.012
L179.38 176.661
L179.721 176.528
L180.063 176.655
L180.404 175.884
L180.746 177.011
L181.087 176.109
L181.429 176.881
L181.77 176.312
L182.112 175.999
L182.453 175.953
L182.795 176.508
L183.136 176.586
L183.478 176.334
L183.819 176.648
L184.161 176.657
L184.502 177.13
L184.844 176.617
L185.185 176.964
L185.868 176.888
L186.21 176.076
L186.551 176.823
L186.893 177.121
L187.234 176.393
L187.917 176.334
L188.6 177.336
L188.942 177.119
L189.283 176.552
L189.625 177.693
L189.966 176.912
L190.308 176.902
L190.649 177.115
L190.991 177.037
L191.332 176.303
L192.015 177.707
L192.357 176.809
L192.698 177.038
L193.04 177.108
L193.381 177.01
L193.723 177.132
L194.064 176.786
L194.406 177.269
L194.747 177.102
L195.089 177.27
L195.43 177.123
L195.772 177.225
L197.138 177.215
L197.479 177.592
L197.821 177.55
L198.162 177.106
L200.211 177.343
L200.553 177.597
L200.894 177.298
L201.577 177.564
L201.919 177.191
L202.26 177.542
L202.602 177.439
L203.626 177.751
L203.968 177.568
L204.309 177.534
L204.651 177.715
L205.334 177.33
L206.017 177.723
L207.725 177.725
L208.066 178.112
L209.774 177.844
L210.115 177.854
L210.457 178.354
L210.798 177.77
L212.164 178.308
L212.506 178.069
L212.847 178.25
L213.53 177.946
L213.872 178.255
L214.213 178.131
L214.896 178.287
L215.238 178.08
L216.262 178.122
L217.97 178.407
L218.311 178.274
L218.994 178.488
L219.677 178.258
L220.36 178.313
L221.043 178.194
L221.385 178.38
L221.726 178.321
L222.409 178.861
L222.751 179.893
L223.092 178.551
L223.434 178.394
L223.775 179.143
L224.117 179.063
L224.458 179.759
L224.8 179.514
L225.141 178.925
L225.483 179.343
L225.824 179.439
L226.166 179.181
L226.507 179.491
L226.849 178.714
L227.19 179.592
L227.532 179.107
L227.873 179.475
L228.215 179.462
L228.556 179.583
L228.898 178.86
L229.239 179.566
L230.605 179.594
L230.947 179.524
L231.288 179.662
L231.63 179.977
L231.971 179.565
L232.313 179.761
L232.654 179.747
L232.996 180.018
L233.338 180.123
L233.679 179.994
L234.362 180.201
L234.704 179.672
L235.045 180.169
L235.387 180.002
L235.728 180.157
L236.07 179.928
L236.753 180.26
L237.094 180.1
L237.777 180.238
L238.119 181.371
L238.46 180.214
L238.802 180.433
L239.143 180.432
L239.485 180.909
L239.826 180.276
L240.168 180.684
L240.509 180.222
L241.192 180.697
L241.534 180.773
L241.875 180.986
L242.217 180.395
L242.558 180.488
L242.9 180.266
L243.241 180.411
L243.583 180.385
L243.924 181.334
L244.266 181.034
L245.29 181.044
L245.632 180.771
L245.973 181.314
L246.315 181.005
L246.656 181.287
L247.339 181.276
L247.681 181.556
L248.705 181.407
L249.047 181.656
L249.388 181.521
L249.73 181.808
L250.071 181.607
L250.413 182.05
L250.754 181.632
L251.096 181.971
L251.437 181.653
L251.779 181.994
L252.462 182.119
L253.145 182.051
L253.486 182.206
L253.828 182.233
L254.169 181.692
L254.511 182.15
L254.852 182.047
L255.194 182.537
L255.535 182.236
L256.218 183.012
L256.56 182.748
L257.584 182.861
L257.926 183.415
L258.267 183.219
L258.609 182.864
L258.95 183.013
L259.292 182.85
L259.633 183.45
L260.658 183.236
L261.341 183.398
L261.683 183.425
L262.024 183.814
L262.366 183.451
L262.707 183.35
L263.049 183.551
L263.39 184.099
L263.732 183.582
L264.073 183.614
L264.756 183.436
L265.781 183.533
L266.122 183.317
L266.464 183.457
L266.805 183.946
L267.147 184.051
L267.488 183.839
L267.83 184.075
L268.854 184.069
L269.196 184.226
L269.537 183.999
L269.879 184.204
L270.22 185.311
L270.562 184.154
L271.245 184.097
L271.586 184.783
L271.928 185.085
L272.269 184.093
L272.611 185.081
L272.952 184.496
L273.294 185.41
L273.635 185.11
L273.977 185.308
L274.318 185.367
L274.66 185.298
L275.001 185.557
L275.343 185.188
L276.367 185.666
L276.709 185.963
L277.05 185.348
L277.733 185.769
L278.075 185.463
L278.416 185.417
L278.758 185.929
L279.099 185.635
L279.441 186.001
L279.782 185.927
L280.465 186.031
L281.148 186.003
L281.49 186.457
L282.173 186.541
L282.514 186.027
L283.539 186.022
L283.88 186.466
L284.222 186.218
L284.563 186.326
L284.905 186.084
L285.246 186.422
L285.588 186.41
L285.929 186.677
L287.295 186.837
L287.637 186.735
L287.978 187.372
L288.32 186.628
L289.003 187.555
L289.345 187.353
L289.686 186.828
L290.369 187.991
L291.052 187.777
L291.735 188.066
L292.077 187.991
L292.418 188.099
L292.76 188.33
L293.101 188.025
L293.443 188.478
L293.784 189.443
L294.126 188.397
L294.467 188.296
L295.15 188.797
L295.492 188.603
L295.833 188.611
L296.175 189.16
L296.516 189.138
L296.858 188.88
L297.199 189.248
L297.541 189.103
L297.882 189.939
L298.224 190.203
L298.565 189.881
L298.907 190.059
L299.248 189.903
L299.59 190.004
L300.273 189.951
L300.614 189.965
L300.956 190.264
L301.297 190.317
L301.639 190.592
L301.98 190.264
L302.322 190.534
L302.663 190.537
L303.346 190.896
L303.688 190.584
L304.029 191.343
L304.371 190.67
L304.712 191.498
L305.054 191.834
L305.395 191.647
L305.737 191.712
L306.078 191.614
L306.761 192.066
L307.103 192.118
L307.444 191.983
L307.786 192.081
L308.127 192.502
L308.469 192.243
L308.81 192.738
L309.152 192.634
L309.493 192.32
L309.835 192.609
L310.176 192.562
L310.518 192.648
L310.859 193.069
L311.201 192.696
L311.884 192.703
L312.225 193.073
L312.908 193.301
L313.25 192.977
L313.591 193.133
L313.933 193.602
L314.274 193.344
L314.616 193.263
L315.64 194.672
L315.982 194.602
L316.323 194.667
L316.665 194.599
L317.006 194.937
L317.348 194.626
L317.69 195.26
L318.031 194.695
L319.056 195.274
L319.397 194.833
L319.739 195.212
L320.08 195.315
L320.422 195.247
L320.763 195.789
L321.105 195.34
L321.446 195.646
L321.788 195.508
L322.471 196.263
L323.154 195.774
L323.495 196.307
L323.837 195.926
L324.178 196.201
L324.52 196.658
L325.544 196.777
L325.886 197.313
L326.569 196.948
L326.91 197.36
L327.252 197.155
L327.593 197.371
L327.935 197.403
L328.276 197.198
L328.618 197.373
L328.959 197.859
L329.301 198.587
L329.642 198.234
L329.984 198.288
L330.325 198.685
L330.667 198.746
L331.008 198.472
L331.35 198.748
L332.033 198.733
L332.374 199.631
L332.716 199.118
L333.057 198.858
L333.399 199.344
L333.74 198.855
L334.082 198.737
L334.423 198.79
L334.765 199.322
L335.106 199.421
L336.131 199.261
L336.472 199.455
L336.814 199.824
L337.155 199.389
L337.838 199.962
L338.18 199.769
L338.521 200.172
L338.863 201.867
L339.204 200.051
L339.546 200.024
L339.887 201.236
L340.229 200.387
L340.57 201.364
L340.912 201.663
L341.253 201.628
L341.595 202.469
L341.936 202.148
L342.278 202.34
L342.619 202.196
L342.961 202.375
L343.302 203.236
L343.644 203.448
L343.985 202.458
L344.327 203.617
L344.668 203.853
L345.01 203.474
L345.352 204.02
L345.693 203.92
L346.035 203.96
L346.376 204.131
L346.718 204.149
L347.059 204.597
L347.401 204.384
L347.742 204.647
L348.084 204.712
L348.425 206.081
L348.767 206.137
L349.108 205.212
L349.45 206.096
L349.791 206.108
L350.133 205.985
L350.474 206.787
L350.816 206.068
L351.157 206.416
L351.499 206.382
L351.84 206.736
L352.182 206.399
L352.523 206.83
L353.206 206.805
L353.548 206.894
L354.231 207.334
L354.572 207.407
L354.914 207.286
L355.597 208.116
L355.938 208.785
L356.28 208.08
L356.621 209.629
L356.963 208.983
L357.987 208.983
L358.329 209.147
L358.67 209.566
L359.695 209.841
L360.036 209.621
L360.378 210.869
L360.719 210.923
L361.061 210.821
L361.402 211.225
L361.744 210.963
L362.427 211.04
L362.768 211.246
L363.11 211.084
L363.451 211.773
L363.793 211.676
L364.476 211.657
L364.817 211.463
L365.159 212.971
L365.5 212.814
L365.842 212.964
L366.183 212.598
L366.525 213.065
L367.208 213.254
L368.232 213.389
L368.574 213.809
L368.915 213.803
L369.257 213.996
L369.598 213.843
L370.281 214.693
L370.623 213.944
L370.964 215.026
L371.306 214.851
L371.647 215.18
L371.989 215.143
L372.33 215.461
L372.672 215.373
L373.013 215.529
L373.355 215.368
L373.697 215.888
L374.038 216.113
L374.38 216.029
L375.063 216.163
L375.404 216.594
L375.746 216.001
L376.087 216.939
L376.429 216.439
L377.112 216.75
L377.453 216.741
L377.795 217.525
L378.136 216.79
L378.478 217.267
L378.819 216.968
L379.161 217.788
L379.502 218.303
L379.844 217.588
L380.185 218.654
L380.527 218.278
L380.868 218.534
L381.551 218.439
L381.893 218.82
L382.234 219.873
L382.576 219.029
L382.917 218.609
L383.259 219.359
L383.6 219.515
L383.942 219.004
L384.283 219.077
L384.625 219.9
L384.966 220.314
L385.308 220.189
L385.649 220.43
L387.015 220.387
L387.357 220.915
L387.698 220.305
L388.04 221.046
L389.064 222.205
L389.406 221.936
L389.747 222.802
L390.089 221.671
L390.43 221.428
L390.772 222.592
L391.113 222.509
L391.455 223.252
L391.796 223.014
L392.138 222.553
L392.479 223.13
L392.821 222.881
L393.162 223.547
L393.504 223.368
L393.845 223.851
L395.211 224.151
L395.553 224.382
L395.894 224.093
L396.236 224.861
L396.577 225.216
L396.919 225.283
L397.26 225.528
L397.602 225.59
L397.943 225.824
L398.285 225.704
L398.626 226.073
L398.968 226.105
L399.309 227.83
L399.651 227.333
L399.992 227.951
L400.334 226.515
L400.675 227.507
L401.017 227.868
L401.358 227.191
L401.7 227.204
L402.042 228.247
L402.383 227.909
L403.066 228.652
L403.408 228.099
L403.749 228.157
L404.091 228.964
L404.432 228.625
L404.774 230.048
L405.115 228.797
L405.457 230.114
L406.14 230.2
L406.481 229.925
L407.164 230.908
L407.506 230.505
L407.847 230.316
L408.189 230.899
L408.872 231.056
L409.213 230.837
L409.555 231.25
L409.896 231.122
L410.238 231.611
L410.579 231.67
L410.921 231.943
L411.262 231.927
L411.604 232.121
L411.945 232.915
L412.287 233.278
L412.628 232.516
L413.653 234.098
L413.994 233.347
L415.019 235.467
L415.36 234.3
L415.702 235.283
L416.043 234.179
L416.385 234.89
L416.726 234.49
L417.068 235.696
L417.751 236.023
L418.092 235.435
L418.434 236.279
L418.775 236.556
L419.117 236.579
L419.458 236.459
L420.141 236.69
L420.483 237.67
L420.824 238.092
L420.824 238.092" style="fill:none;stroke:#ff0000;stroke-linecap:square;"/>
   </g>
   <g id="patch_4">
    <path d="
M52.3734 27.1119
L421.2 27.1119" style="fill:none;stroke:#000000;stroke-linecap:square;stroke-linejoin:miter;"/>
   </g>
   <g id="patch_5">
    <path d="
M421.2 250.2
L421.2 27.1119" style="fill:none;stroke:#000000;stroke-linecap:square;stroke-linejoin:miter;"/>
   </g>
   <g id="patch_6">
    <path d="
M52.3734 250.2
L421.2 250.2" style="fill:none;stroke:#000000;stroke-linecap:square;stroke-linejoin:miter;"/>
   </g>
   <g id="patch_7">
    <path d="
M52.3734 250.2
L52.3734 27.1119" style="fill:none;stroke:#000000;stroke-linecap:square;stroke-linejoin:miter;"/>
   </g>
   <g id="matplotlib.axis_1">
    <g id="xtick_1">
     <g id="line2d_4">
      <path clip-path="url(#p0cf8f7abe3)" d="
M52.3734 250.2
L52.3734 27.1119" style="fill:none;stroke:#cccccc;stroke-dasharray:1.000000,3.000000;stroke-dashoffset:0.0;stroke-width:0.5;"/>
     </g>
     <g id="line2d_5">
      <defs>
       <path d="
M0 0
L0 -4" id="m93b0483c22" style="stroke:#000000;stroke-width:0.5;"/>
      </defs>
      <g>
       <use style="stroke:#000000;stroke-width:0.5;" x="52.3734375089" xlink:href="#m93b0483c22" y="250.2"/>
      </g>
     </g>
     <g id="line2d_6">
      <defs>
       <path d="
M0 0
L0 4" id="m741efc42ff" style="stroke:#000000;stroke-width:0.5;"/>
      </defs>
      <g>
       <use style="stroke:#000000;stroke-width:0.5;" x="52.3734375089" xlink:href="#m741efc42ff" y="27.111875"/>
      </g>
     </g>
    </g>
    <g id="xtick_2">
     <g id="line2d_7">
      <path clip-path="url(#p0cf8f7abe3)" d="
M175.316 250.2
L175.316 27.1119" style="fill:none;stroke:#cccccc;stroke-dasharray:1.000000,3.000000;stroke-dashoffset:0.0;stroke-width:0.5;"/>
     </g>
     <g id="line2d_8">
      <g>
       <use style="stroke:#000000;stroke-width:0.5;" x="175.315625012" xlink:href="#m93b0483c22" y="250.2"/>
      </g>
     </g>
     <g id="line2d_9">
      <g>
       <use style="stroke:#000000;stroke-width:0.5;" x="175.315625012" xlink:href="#m741efc42ff" y="27.111875"/>
      </g>
     </g>
    </g>
    <g id="xtick_3">
     <g id="line2d_10">
      <path clip-path="url(#p0cf8f7abe3)" d="
M298.258 250.2
L298.258 27.1119" style="fill:none;stroke:#cccccc;stroke-dasharray:1.000000,3.000000;stroke-dashoffset:0.0;stroke-width:0.5;"/>
     </g>
     <g id="line2d_11">
      <g>
       <use style="stroke:#000000;stroke-width:0.5;" x="298.257812507" xlink:href="#m93b0483c22" y="250.2"/>
      </g>
     </g>
     <g id="line2d_12">
      <g>
       <use style="stroke:#000000;stroke-width:0.5;" x="298.257812507" xlink:href="#m741efc42ff" y="27.111875"/>
      </g>
     </g>
    </g>
    <g id="xtick_4">
     <g id="line2d_13">
      <path clip-path="url(#p0cf8f7abe3)" d="
M421.2 250.2
L421.2 27.1119" style="fill:none;stroke:#cccccc;stroke-dasharray:1.000000,3.000000;stroke-dashoffset:0.0;stroke-width:0.5;"/>
     </g>
     <g id="line2d_14">
      <g>
       <use style="stroke:#000000;stroke-width:0.5;" x="421.20000001" xlink:href="#m93b0483c22" y="250.2"/>
      </g>
     </g>
     <g id="line2d_15">
      <g>
       <use style="stroke:#000000;stroke-width:0.5;" x="421.20000001" xlink:href="#m741efc42ff" y="27.111875"/>
      </g>
     </g>
    </g>
    <g id="xtick_5">
     <g id="line2d_16">
      <defs>
       <path d="
M0 0
L0 -2" id="m177f7580d0" style="stroke:#000000;stroke-width:0.5;"/>
      </defs>
      <g>
       <use style="stroke:#000000;stroke-width:0.5;" x="61.5599509627" xlink:href="#m177f7580d0" y="250.2"/>
      </g>
     </g>
     <g id="line2d_17">
      <defs>
       <path d="
M0 0
L0 2" id="m5284c7e2a0" style="stroke:#000000;stroke-width:0.5;"/>
      </defs>
      <g>
       <use style="stroke:#000000;stroke-width:0.5;" x="61.5599509627" xlink:href="#m5284c7e2a0" y="27.111875"/>
      </g>
     </g>
     <g id="text_1">
      <!-- 06:30 -->
      <defs>
       <path d="
M40.5781 39.3125
Q47.6562 37.7969 51.625 33
Q55.6094 28.2188 55.6094 21.1875
Q55.6094 10.4062 48.1875 4.48438
Q40.7656 -1.42188 27.0938 -1.42188
Q22.5156 -1.42188 17.6562 -0.515625
Q12.7969 0.390625 7.625 2.20312
L7.625 11.7188
Q11.7188 9.32812 16.5938 8.10938
Q21.4844 6.89062 26.8125 6.89062
Q36.0781 6.89062 40.9375 10.5469
Q45.7969 14.2031 45.7969 21.1875
Q45.7969 27.6406 41.2812 31.2656
Q36.7656 34.9062 28.7188 34.9062
L20.2188 34.9062
L20.2188 43.0156
L29.1094 43.0156
Q36.375 43.0156 40.2344 45.9219
Q44.0938 48.8281 44.0938 54.2969
Q44.0938 59.9062 40.1094 62.9062
Q36.1406 65.9219 28.7188 65.9219
Q24.6562 65.9219 20.0156 65.0312
Q15.375 64.1562 9.8125 62.3125
L9.8125 71.0938
Q15.4375 72.6562 20.3438 73.4375
Q25.25 74.2188 29.5938 74.2188
Q40.8281 74.2188 47.3594 69.1094
Q53.9062 64.0156 53.9062 55.3281
Q53.9062 49.2656 50.4375 45.0938
Q46.9688 40.9219 40.5781 39.3125" id="BitstreamVeraSans-Roman-33"/>
       <path d="
M31.7812 66.4062
Q24.1719 66.4062 20.3281 58.9062
Q16.5 51.4219 16.5 36.375
Q16.5 21.3906 20.3281 13.8906
Q24.1719 6.39062 31.7812 6.39062
Q39.4531 6.39062 43.2812 13.8906
Q47.125 21.3906 47.125 36.375
Q47.125 51.4219 43.2812 58.9062
Q39.4531 66.4062 31.7812 66.4062
M31.7812 74.2188
Q44.0469 74.2188 50.5156 64.5156
Q56.9844 54.8281 56.9844 36.375
Q56.9844 17.9688 50.5156 8.26562
Q44.0469 -1.42188 31.7812 -1.42188
Q19.5312 -1.42188 13.0625 8.26562
Q6.59375 17.9688 6.59375 36.375
Q6.59375 54.8281 13.0625 64.5156
Q19.5312 74.2188 31.7812 74.2188" id="BitstreamVeraSans-Roman-30"/>
       <path d="
M11.7188 12.4062
L22.0156 12.4062
L22.0156 0
L11.7188 0
z

M11.7188 51.7031
L22.0156 51.7031
L22.0156 39.3125
L11.7188 39.3125
z
" id="BitstreamVeraSans-Roman-3a"/>
       <path d="
M33.0156 40.375
Q26.375 40.375 22.4844 35.8281
Q18.6094 31.2969 18.6094 23.3906
Q18.6094 15.5312 22.4844 10.9531
Q26.375 6.39062 33.0156 6.39062
Q39.6562 6.39062 43.5312 10.9531
Q47.4062 15.5312 47.4062 23.3906
Q47.4062 31.2969 43.5312 35.8281
Q39.6562 40.375 33.0156 40.375
M52.5938 71.2969
L52.5938 62.3125
Q48.875 64.0625 45.0938 64.9844
Q41.3125 65.9219 37.5938 65.9219
Q27.8281 65.9219 22.6719 59.3281
Q17.5312 52.7344 16.7969 39.4062
Q19.6719 43.6562 24.0156 45.9219
Q28.375 48.1875 33.5938 48.1875
Q44.5781 48.1875 50.9531 41.5156
Q57.3281 34.8594 57.3281 23.3906
Q57.3281 12.1562 50.6875 5.35938
Q44.0469 -1.42188 33.0156 -1.42188
Q20.3594 -1.42188 13.6719 8.26562
Q6.98438 17.9688 6.98438 36.375
Q6.98438 53.6562 15.1875 63.9375
Q23.3906 74.2188 37.2031 74.2188
Q40.9219 74.2188 44.7031 73.4844
Q48.4844 72.75 52.5938 71.2969" id="BitstreamVeraSans-Roman-36"/>
      </defs>
      <g transform="translate(47.8122947127 261.7984375)scale(0.1 -0.1)">
       <use xlink:href="#BitstreamVeraSans-Roman-30"/>
       <use x="63.623046875" xlink:href="#BitstreamVeraSans-Roman-36"/>
       <use x="127.24609375" xlink:href="#BitstreamVeraSans-Roman-3a"/>
       <use x="160.9375" xlink:href="#BitstreamVeraSans-Roman-33"/>
       <use x="224.560546875" xlink:href="#BitstreamVeraSans-Roman-30"/>
      </g>
     </g>
    </g>
    <g id="xtick_6">
     <g id="line2d_18">
      <g>
       <use style="stroke:#000000;stroke-width:0.5;" x="123.031044714" xlink:href="#m177f7580d0" y="250.2"/>
      </g>
     </g>
     <g id="line2d_19">
      <g>
       <use style="stroke:#000000;stroke-width:0.5;" x="123.031044714" xlink:href="#m5284c7e2a0" y="27.111875"/>
      </g>
     </g>
    </g>
    <g id="xtick_7">
     <g id="line2d_20">
      <g>
       <use style="stroke:#000000;stroke-width:0.5;" x="184.502138466" xlink:href="#m177f7580d0" y="250.2"/>
      </g>
     </g>
     <g id="line2d_21">
      <g>
       <use style="stroke:#000000;stroke-width:0.5;" x="184.502138466" xlink:href="#m5284c7e2a0" y="27.111875"/>
      </g>
     </g>
     <g id="text_2">
      <!-- 07:30 -->
      <defs>
       <path d="
M8.20312 72.9062
L55.0781 72.9062
L55.0781 68.7031
L28.6094 0
L18.3125 0
L43.2188 64.5938
L8.20312 64.5938
z
" id="BitstreamVeraSans-Roman-37"/>
      </defs>
      <g transform="translate(170.754482216 261.7984375)scale(0.1 -0.1)">
       <use xlink:href="#BitstreamVeraSans-Roman-30"/>
       <use x="63.623046875" xlink:href="#BitstreamVeraSans-Roman-37"/>
       <use x="127.24609375" xlink:href="#BitstreamVeraSans-Roman-3a"/>
       <use x="160.9375" xlink:href="#BitstreamVeraSans-Roman-33"/>
       <use x="224.560546875" xlink:href="#BitstreamVeraSans-Roman-30"/>
      </g>
     </g>
    </g>
    <g id="xtick_8">
     <g id="line2d_22">
      <g>
       <use style="stroke:#000000;stroke-width:0.5;" x="245.973232217" xlink:href="#m177f7580d0" y="250.2"/>
      </g>
     </g>
     <g id="line2d_23">
      <g>
       <use style="stroke:#000000;stroke-width:0.5;" x="245.973232217" xlink:href="#m5284c7e2a0" y="27.111875"/>
      </g>
     </g>
    </g>
    <g id="xtick_9">
     <g id="line2d_24">
      <g>
       <use style="stroke:#000000;stroke-width:0.5;" x="307.444325961" xlink:href="#m177f7580d0" y="250.2"/>
      </g>
     </g>
     <g id="line2d_25">
      <g>
       <use style="stroke:#000000;stroke-width:0.5;" x="307.444325961" xlink:href="#m5284c7e2a0" y="27.111875"/>
      </g>
     </g>
     <g id="text_3">
      <!-- 08:30 -->
      <defs>
       <path d="
M31.7812 34.625
Q24.75 34.625 20.7188 30.8594
Q16.7031 27.0938 16.7031 20.5156
Q16.7031 13.9219 20.7188 10.1562
Q24.75 6.39062 31.7812 6.39062
Q38.8125 6.39062 42.8594 10.1719
Q46.9219 13.9688 46.9219 20.5156
Q46.9219 27.0938 42.8906 30.8594
Q38.875 34.625 31.7812 34.625
M21.9219 38.8125
Q15.5781 40.375 12.0312 44.7188
Q8.5 49.0781 8.5 55.3281
Q8.5 64.0625 14.7188 69.1406
Q20.9531 74.2188 31.7812 74.2188
Q42.6719 74.2188 48.875 69.1406
Q55.0781 64.0625 55.0781 55.3281
Q55.0781 49.0781 51.5312 44.7188
Q48 40.375 41.7031 38.8125
Q48.8281 37.1562 52.7969 32.3125
Q56.7812 27.4844 56.7812 20.5156
Q56.7812 9.90625 50.3125 4.23438
Q43.8438 -1.42188 31.7812 -1.42188
Q19.7344 -1.42188 13.25 4.23438
Q6.78125 9.90625 6.78125 20.5156
Q6.78125 27.4844 10.7812 32.3125
Q14.7969 37.1562 21.9219 38.8125
M18.3125 54.3906
Q18.3125 48.7344 21.8438 45.5625
Q25.3906 42.3906 31.7812 42.3906
Q38.1406 42.3906 41.7188 45.5625
Q45.3125 48.7344 45.3125 54.3906
Q45.3125 60.0625 41.7188 63.2344
Q38.1406 66.4062 31.7812 66.4062
Q25.3906 66.4062 21.8438 63.2344
Q18.3125 60.0625 18.3125 54.3906" id="BitstreamVeraSans-Roman-38"/>
      </defs>
      <g transform="translate(293.696669711 261.7984375)scale(0.1 -0.1)">
       <use xlink:href="#BitstreamVeraSans-Roman-30"/>
       <use x="63.623046875" xlink:href="#BitstreamVeraSans-Roman-38"/>
       <use x="127.24609375" xlink:href="#BitstreamVeraSans-Roman-3a"/>
       <use x="160.9375" xlink:href="#BitstreamVeraSans-Roman-33"/>
       <use x="224.560546875" xlink:href="#BitstreamVeraSans-Roman-30"/>
      </g>
     </g>
    </g>
    <g id="xtick_10">
     <g id="line2d_26">
      <g>
       <use style="stroke:#000000;stroke-width:0.5;" x="368.915419713" xlink:href="#m177f7580d0" y="250.2"/>
      </g>
     </g>
     <g id="line2d_27">
      <g>
       <use style="stroke:#000000;stroke-width:0.5;" x="368.915419713" xlink:href="#m5284c7e2a0" y="27.111875"/>
      </g>
     </g>
    </g>
    <g id="text_4">
     <!-- Time -->
     <defs>
      <path d="
M56.2031 29.5938
L56.2031 25.2031
L14.8906 25.2031
Q15.4844 15.9219 20.4844 11.0625
Q25.4844 6.20312 34.4219 6.20312
Q39.5938 6.20312 44.4531 7.46875
Q49.3125 8.73438 54.1094 11.2812
L54.1094 2.78125
Q49.2656 0.734375 44.1875 -0.34375
Q39.1094 -1.42188 33.8906 -1.42188
Q20.7969 -1.42188 13.1562 6.1875
Q5.51562 13.8125 5.51562 26.8125
Q5.51562 40.2344 12.7656 48.1094
Q20.0156 56 32.3281 56
Q43.3594 56 49.7812 48.8906
Q56.2031 41.7969 56.2031 29.5938
M47.2188 32.2344
Q47.125 39.5938 43.0938 43.9844
Q39.0625 48.3906 32.4219 48.3906
Q24.9062 48.3906 20.3906 44.1406
Q15.875 39.8906 15.1875 32.1719
z
" id="BitstreamVeraSans-Roman-65"/>
      <path d="
M9.42188 54.6875
L18.4062 54.6875
L18.4062 0
L9.42188 0
z

M9.42188 75.9844
L18.4062 75.9844
L18.4062 64.5938
L9.42188 64.5938
z
" id="BitstreamVeraSans-Roman-69"/>
      <path d="
M-0.296875 72.9062
L61.375 72.9062
L61.375 64.5938
L35.5 64.5938
L35.5 0
L25.5938 0
L25.5938 64.5938
L-0.296875 64.5938
z
" id="BitstreamVeraSans-Roman-54"/>
      <path d="
M52 44.1875
Q55.375 50.25 60.0625 53.125
Q64.75 56 71.0938 56
Q79.6406 56 84.2812 50.0156
Q88.9219 44.0469 88.9219 33.0156
L88.9219 0
L79.8906 0
L79.8906 32.7188
Q79.8906 40.5781 77.0938 44.375
Q74.3125 48.1875 68.6094 48.1875
Q61.625 48.1875 57.5625 43.5469
Q53.5156 38.9219 53.5156 30.9062
L53.5156 0
L44.4844 0
L44.4844 32.7188
Q44.4844 40.625 41.7031 44.4062
Q38.9219 48.1875 33.1094 48.1875
Q26.2188 48.1875 22.1562 43.5312
Q18.1094 38.875 18.1094 30.9062
L18.1094 0
L9.07812 0
L9.07812 54.6875
L18.1094 54.6875
L18.1094 46.1875
Q21.1875 51.2188 25.4844 53.6094
Q29.7812 56 35.6875 56
Q41.6562 56 45.8281 52.9688
Q50 49.9531 52 44.1875" id="BitstreamVeraSans-Roman-6d"/>
     </defs>
     <g transform="translate(224.8046875 276.4765625)scale(0.1 -0.1)">
      <use xlink:href="#BitstreamVeraSans-Roman-54"/>
      <use x="57.958984375" xlink:href="#BitstreamVeraSans-Roman-69"/>
      <use x="85.7421875" xlink:href="#BitstreamVeraSans-Roman-6d"/>
      <use x="183.154296875" xlink:href="#BitstreamVeraSans-Roman-65"/>
     </g>
    </g>
   </g>
   <g id="matplotlib.axis_2">
    <g id="ytick_1">
     <g id="line2d_28">
      <path clip-path="url(#p0cf8f7abe3)" d="
M52.3734 250.2
L421.2 250.2" style="fill:none;stroke:#cccccc;stroke-dasharray:1.000000,3.000000;stroke-dashoffset:0.0;stroke-width:0.5;"/>
     </g>
     <g id="line2d_29">
      <defs>
       <path d="
M0 0
L4 0" id="m728421d6d4" style="stroke:#000000;stroke-width:0.5;"/>
      </defs>
      <g>
       <use style="stroke:#000000;stroke-width:0.5;" x="52.3734375" xlink:href="#m728421d6d4" y="250.2"/>
      </g>
     </g>
     <g id="line2d_30">
      <defs>
       <path d="
M0 0
L-4 0" id="mcb0005524f" style="stroke:#000000;stroke-width:0.5;"/>
      </defs>
      <g>
       <use style="stroke:#000000;stroke-width:0.5;" x="421.2" xlink:href="#mcb0005524f" y="250.2"/>
      </g>
     </g>
     <g id="text_5">
      <!-- 20 -->
      <defs>
       <path d="
M10.5938 35.5
L73.1875 35.5
L73.1875 27.2031
L10.5938 27.2031
z
" id="BitstreamVeraSans-Roman-2212"/>
       <path d="
M19.1875 8.29688
L53.6094 8.29688
L53.6094 0
L7.32812 0
L7.32812 8.29688
Q12.9375 14.1094 22.625 23.8906
Q32.3281 33.6875 34.8125 36.5312
Q39.5469 41.8438 41.4219 45.5312
Q43.3125 49.2188 43.3125 52.7812
Q43.3125 58.5938 39.2344 62.25
Q35.1562 65.9219 28.6094 65.9219
Q23.9688 65.9219 18.8125 64.3125
Q13.6719 62.7031 7.8125 59.4219
L7.8125 69.3906
Q13.7656 71.7812 18.9375 73
Q24.125 74.2188 28.4219 74.2188
Q39.75 74.2188 46.4844 68.5469
Q53.2188 62.8906 53.2188 53.4219
Q53.2188 48.9219 51.5312 44.8906
Q49.8594 40.875 45.4062 35.4062
Q44.1875 33.9844 37.6406 27.2188
Q31.1094 20.4531 19.1875 8.29688" id="BitstreamVeraSans-Roman-32"/>
      </defs>
      <g transform="translate(28.9921875 252.959375)scale(0.1 -0.1)">
       <use xlink:href="#BitstreamVeraSans-Roman-2212"/>
       <use x="83.7890625" xlink:href="#BitstreamVeraSans-Roman-32"/>
       <use x="147.412109375" xlink:href="#BitstreamVeraSans-Roman-30"/>
      </g>
     </g>
    </g>
    <g id="ytick_2">
     <g id="line2d_31">
      <path clip-path="url(#p0cf8f7abe3)" d="
M52.3734 218.33
L421.2 218.33" style="fill:none;stroke:#cccccc;stroke-dasharray:1.000000,3.000000;stroke-dashoffset:0.0;stroke-width:0.5;"/>
     </g>
     <g id="line2d_32">
      <g>
       <use style="stroke:#000000;stroke-width:0.5;" x="52.3734375" xlink:href="#m728421d6d4" y="218.330267857"/>
      </g>
     </g>
     <g id="line2d_33">
      <g>
       <use style="stroke:#000000;stroke-width:0.5;" x="421.2" xlink:href="#mcb0005524f" y="218.330267857"/>
      </g>
     </g>
     <g id="text_6">
      <!-- 15 -->
      <defs>
       <path d="
M12.4062 8.29688
L28.5156 8.29688
L28.5156 63.9219
L10.9844 60.4062
L10.9844 69.3906
L28.4219 72.9062
L38.2812 72.9062
L38.2812 8.29688
L54.3906 8.29688
L54.3906 0
L12.4062 0
z
" id="BitstreamVeraSans-Roman-31"/>
       <path d="
M10.7969 72.9062
L49.5156 72.9062
L49.5156 64.5938
L19.8281 64.5938
L19.8281 46.7344
Q21.9688 47.4688 24.1094 47.8281
Q26.2656 48.1875 28.4219 48.1875
Q40.625 48.1875 47.75 41.5
Q54.8906 34.8125 54.8906 23.3906
Q54.8906 11.625 47.5625 5.09375
Q40.2344 -1.42188 26.9062 -1.42188
Q22.3125 -1.42188 17.5469 -0.640625
Q12.7969 0.140625 7.71875 1.70312
L7.71875 11.625
Q12.1094 9.23438 16.7969 8.0625
Q21.4844 6.89062 26.7031 6.89062
Q35.1562 6.89062 40.0781 11.3281
Q45.0156 15.7656 45.0156 23.3906
Q45.0156 31 40.0781 35.4375
Q35.1562 39.8906 26.7031 39.8906
Q22.75 39.8906 18.8125 39.0156
Q14.8906 38.1406 10.7969 36.2812
z
" id="BitstreamVeraSans-Roman-35"/>
      </defs>
      <g transform="translate(29.2015625 221.089642857)scale(0.1 -0.1)">
       <use xlink:href="#BitstreamVeraSans-Roman-2212"/>
       <use x="83.7890625" xlink:href="#BitstreamVeraSans-Roman-31"/>
       <use x="147.412109375" xlink:href="#BitstreamVeraSans-Roman-35"/>
      </g>
     </g>
    </g>
    <g id="ytick_3">
     <g id="line2d_34">
      <path clip-path="url(#p0cf8f7abe3)" d="
M52.3734 186.461
L421.2 186.461" style="fill:none;stroke:#cccccc;stroke-dasharray:1.000000,3.000000;stroke-dashoffset:0.0;stroke-width:0.5;"/>
     </g>
     <g id="line2d_35">
      <g>
       <use style="stroke:#000000;stroke-width:0.5;" x="52.3734375" xlink:href="#m728421d6d4" y="186.460535714"/>
      </g>
     </g>
     <g id="line2d_36">
      <g>
       <use style="stroke:#000000;stroke-width:0.5;" x="421.2" xlink:href="#mcb0005524f" y="186.460535714"/>
      </g>
     </g>
     <g id="text_7">
      <!-- 10 -->
      <g transform="translate(28.9921875 189.219910714)scale(0.1 -0.1)">
       <use xlink:href="#BitstreamVeraSans-Roman-2212"/>
       <use x="83.7890625" xlink:href="#BitstreamVeraSans-Roman-31"/>
       <use x="147.412109375" xlink:href="#BitstreamVeraSans-Roman-30"/>
      </g>
     </g>
    </g>
    <g id="ytick_4">
     <g id="line2d_37">
      <path clip-path="url(#p0cf8f7abe3)" d="
M52.3734 154.591
L421.2 154.591" style="fill:none;stroke:#cccccc;stroke-dasharray:1.000000,3.000000;stroke-dashoffset:0.0;stroke-width:0.5;"/>
     </g>
     <g id="line2d_38">
      <g>
       <use style="stroke:#000000;stroke-width:0.5;" x="52.3734375" xlink:href="#m728421d6d4" y="154.590803571"/>
      </g>
     </g>
     <g id="line2d_39">
      <g>
       <use style="stroke:#000000;stroke-width:0.5;" x="421.2" xlink:href="#mcb0005524f" y="154.590803571"/>
      </g>
     </g>
     <g id="text_8">
      <!-- 5 -->
      <g transform="translate(35.5640625 157.350178571)scale(0.1 -0.1)">
       <use xlink:href="#BitstreamVeraSans-Roman-2212"/>
       <use x="83.7890625" xlink:href="#BitstreamVeraSans-Roman-35"/>
      </g>
     </g>
    </g>
    <g id="ytick_5">
     <g id="line2d_40">
      <path clip-path="url(#p0cf8f7abe3)" d="
M52.3734 122.721
L421.2 122.721" style="fill:none;stroke:#cccccc;stroke-dasharray:1.000000,3.000000;stroke-dashoffset:0.0;stroke-width:0.5;"/>
     </g>
     <g id="line2d_41">
      <g>
       <use style="stroke:#000000;stroke-width:0.5;" x="52.3734375" xlink:href="#m728421d6d4" y="122.721071429"/>
      </g>
     </g>
     <g id="line2d_42">
      <g>
       <use style="stroke:#000000;stroke-width:0.5;" x="421.2" xlink:href="#mcb0005524f" y="122.721071429"/>
      </g>
     </g>
     <g id="text_9">
      <!-- 0 -->
      <g transform="translate(43.334375 125.480446429)scale(0.1 -0.1)">
       <use xlink:href="#BitstreamVeraSans-Roman-30"/>
      </g>
     </g>
    </g>
    <g id="ytick_6">
     <g id="line2d_43">
      <path clip-path="url(#p0cf8f7abe3)" d="
M52.3734 90.8513
L421.2 90.8513" style="fill:none;stroke:#cccccc;stroke-dasharray:1.000000,3.000000;stroke-dashoffset:0.0;stroke-width:0.5;"/>
     </g>
     <g id="line2d_44">
      <g>
       <use style="stroke:#000000;stroke-width:0.5;" x="52.3734375" xlink:href="#m728421d6d4" y="90.8513392857"/>
      </g>
     </g>
     <g id="line2d_45">
      <g>
       <use style="stroke:#000000;stroke-width:0.5;" x="421.2" xlink:href="#mcb0005524f" y="90.8513392857"/>
      </g>
     </g>
     <g id="text_10">
      <!-- 5 -->
      <g transform="translate(43.65625 93.6107142857)scale(0.1 -0.1)">
       <use xlink:href="#BitstreamVeraSans-Roman-35"/>
      </g>
     </g>
    </g>
    <g id="ytick_7">
     <g id="line2d_46">
      <path clip-path="url(#p0cf8f7abe3)" d="
M52.3734 58.9816
L421.2 58.9816" style="fill:none;stroke:#cccccc;stroke-dasharray:1.000000,3.000000;stroke-dashoffset:0.0;stroke-width:0.5;"/>
     </g>
     <g id="line2d_47">
      <g>
       <use style="stroke:#000000;stroke-width:0.5;" x="52.3734375" xlink:href="#m728421d6d4" y="58.9816071429"/>
      </g>
     </g>
     <g id="line2d_48">
      <g>
       <use style="stroke:#000000;stroke-width:0.5;" x="421.2" xlink:href="#mcb0005524f" y="58.9816071429"/>
      </g>
     </g>
     <g id="text_11">
      <!-- 10 -->
      <g transform="translate(37.4109375 61.7409821429)scale(0.1 -0.1)">
       <use xlink:href="#BitstreamVeraSans-Roman-31"/>
       <use x="63.623046875" xlink:href="#BitstreamVeraSans-Roman-30"/>
      </g>
     </g>
    </g>
    <g id="ytick_8">
     <g id="line2d_49">
      <path clip-path="url(#p0cf8f7abe3)" d="
M52.3734 27.1119
L421.2 27.1119" style="fill:none;stroke:#cccccc;stroke-dasharray:1.000000,3.000000;stroke-dashoffset:0.0;stroke-width:0.5;"/>
     </g>
     <g id="line2d_50">
      <g>
       <use style="stroke:#000000;stroke-width:0.5;" x="52.3734375" xlink:href="#m728421d6d4" y="27.111875"/>
      </g>
     </g>
     <g id="line2d_51">
      <g>
       <use style="stroke:#000000;stroke-width:0.5;" x="421.2" xlink:href="#mcb0005524f" y="27.111875"/>
      </g>
     </g>
     <g id="text_12">
      <!-- 15 -->
      <g transform="translate(37.6203125 29.87125)scale(0.1 -0.1)">
       <use xlink:href="#BitstreamVeraSans-Roman-31"/>
       <use x="63.623046875" xlink:href="#BitstreamVeraSans-Roman-35"/>
      </g>
     </g>
    </g>
    <g id="text_13">
     <!-- Temperature in $^\circ$C -->
     <defs>
      <path id="BitstreamVeraSans-Roman-20"/>
      <path d="
M25 5.60938
Q19.8281 5.60938 15.3594 8.21875
Q10.8906 10.8438 8.25 15.375
Q5.60938 19.9219 5.60938 25
Q5.60938 30.0781 8.25 34.6094
Q10.8906 39.1562 15.3594 41.7656
Q19.8281 44.3906 25 44.3906
Q30.1719 44.3906 34.6094 41.75
Q39.0625 39.1094 41.6719 34.5938
Q44.2812 30.0781 44.2812 25
Q44.2812 19.9219 41.6719 15.4062
Q39.0625 10.8906 34.6094 8.25
Q30.1719 5.60938 25 5.60938
M25 9.625
Q31.25 9.625 35.7656 14.1875
Q40.2812 18.75 40.2812 25
Q40.2812 29 38.2031 32.5938
Q36.1406 36.1875 32.625 38.2812
Q29.1094 40.375 25 40.375
Q21.9219 40.375 19.1406 39.1719
Q16.3594 37.9844 14.1562 35.7812
Q11.9688 33.5938 10.7969 30.8281
Q9.625 28.0781 9.625 25
Q9.625 18.75 14.1406 14.1875
Q18.6562 9.625 25 9.625" id="Cmsy10-b1"/>
      <path d="
M54.8906 33.0156
L54.8906 0
L45.9062 0
L45.9062 32.7188
Q45.9062 40.4844 42.875 44.3281
Q39.8438 48.1875 33.7969 48.1875
Q26.5156 48.1875 22.3125 43.5469
Q18.1094 38.9219 18.1094 30.9062
L18.1094 0
L9.07812 0
L9.07812 54.6875
L18.1094 54.6875
L18.1094 46.1875
Q21.3438 51.125 25.7031 53.5625
Q30.0781 56 35.7969 56
Q45.2188 56 50.0469 50.1719
Q54.8906 44.3438 54.8906 33.0156" id="BitstreamVeraSans-Roman-6e"/>
      <path d="
M41.1094 46.2969
Q39.5938 47.1719 37.8125 47.5781
Q36.0312 48 33.8906 48
Q26.2656 48 22.1875 43.0469
Q18.1094 38.0938 18.1094 28.8125
L18.1094 0
L9.07812 0
L9.07812 54.6875
L18.1094 54.6875
L18.1094 46.1875
Q20.9531 51.1719 25.4844 53.5781
Q30.0312 56 36.5312 56
Q37.4531 56 38.5781 55.875
Q39.7031 55.7656 41.0625 55.5156
z
" id="BitstreamVeraSans-Roman-72"/>
      <path d="
M64.4062 67.2812
L64.4062 56.8906
Q59.4219 61.5312 53.7812 63.8125
Q48.1406 66.1094 41.7969 66.1094
Q29.2969 66.1094 22.6562 58.4688
Q16.0156 50.8281 16.0156 36.375
Q16.0156 21.9688 22.6562 14.3281
Q29.2969 6.6875 41.7969 6.6875
Q48.1406 6.6875 53.7812 8.98438
Q59.4219 11.2812 64.4062 15.9219
L64.4062 5.60938
Q59.2344 2.09375 53.4375 0.328125
Q47.6562 -1.42188 41.2188 -1.42188
Q24.6562 -1.42188 15.125 8.70312
Q5.60938 18.8438 5.60938 36.375
Q5.60938 53.9531 15.125 64.0781
Q24.6562 74.2188 41.2188 74.2188
Q47.75 74.2188 53.5312 72.4844
Q59.3281 70.75 64.4062 67.2812" id="BitstreamVeraSans-Roman-43"/>
      <path d="
M18.3125 70.2188
L18.3125 54.6875
L36.8125 54.6875
L36.8125 47.7031
L18.3125 47.7031
L18.3125 18.0156
Q18.3125 11.3281 20.1406 9.42188
Q21.9688 7.51562 27.5938 7.51562
L36.8125 7.51562
L36.8125 0
L27.5938 0
Q17.1875 0 13.2344 3.875
Q9.28125 7.76562 9.28125 18.0156
L9.28125 47.7031
L2.6875 47.7031
L2.6875 54.6875
L9.28125 54.6875
L9.28125 70.2188
z
" id="BitstreamVeraSans-Roman-74"/>
      <path d="
M8.5 21.5781
L8.5 54.6875
L17.4844 54.6875
L17.4844 21.9219
Q17.4844 14.1562 20.5 10.2656
Q23.5312 6.39062 29.5938 6.39062
Q36.8594 6.39062 41.0781 11.0312
Q45.3125 15.6719 45.3125 23.6875
L45.3125 54.6875
L54.2969 54.6875
L54.2969 0
L45.3125 0
L45.3125 8.40625
Q42.0469 3.42188 37.7188 1
Q33.4062 -1.42188 27.6875 -1.42188
Q18.2656 -1.42188 13.375 4.4375
Q8.5 10.2969 8.5 21.5781" id="BitstreamVeraSans-Roman-75"/>
      <path d="
M34.2812 27.4844
Q23.3906 27.4844 19.1875 25
Q14.9844 22.5156 14.9844 16.5
Q14.9844 11.7188 18.1406 8.90625
Q21.2969 6.10938 26.7031 6.10938
Q34.1875 6.10938 38.7031 11.4062
Q43.2188 16.7031 43.2188 25.4844
L43.2188 27.4844
z

M52.2031 31.2031
L52.2031 0
L43.2188 0
L43.2188 8.29688
Q40.1406 3.32812 35.5469 0.953125
Q30.9531 -1.42188 24.3125 -1.42188
Q15.9219 -1.42188 10.9531 3.29688
Q6 8.01562 6 15.9219
Q6 25.1406 12.1719 29.8281
Q18.3594 34.5156 30.6094 34.5156
L43.2188 34.5156
L43.2188 35.4062
Q43.2188 41.6094 39.1406 45
Q35.0625 48.3906 27.6875 48.3906
Q23 48.3906 18.5469 47.2656
Q14.1094 46.1406 10.0156 43.8906
L10.0156 52.2031
Q14.9375 54.1094 19.5781 55.0469
Q24.2188 56 28.6094 56
Q40.4844 56 46.3438 49.8438
Q52.2031 43.7031 52.2031 31.2031" id="BitstreamVeraSans-Roman-61"/>
      <path d="
M18.1094 8.20312
L18.1094 -20.7969
L9.07812 -20.7969
L9.07812 54.6875
L18.1094 54.6875
L18.1094 46.3906
Q20.9531 51.2656 25.2656 53.625
Q29.5938 56 35.5938 56
Q45.5625 56 51.7812 48.0938
Q58.0156 40.1875 58.0156 27.2969
Q58.0156 14.4062 51.7812 6.48438
Q45.5625 -1.42188 35.5938 -1.42188
Q29.5938 -1.42188 25.2656 0.953125
Q20.9531 3.32812 18.1094 8.20312
M48.6875 27.2969
Q48.6875 37.2031 44.6094 42.8438
Q40.5312 48.4844 33.4062 48.4844
Q26.2656 48.4844 22.1875 42.8438
Q18.1094 37.2031 18.1094 27.2969
Q18.1094 17.3906 22.1875 11.75
Q26.2656 6.10938 33.4062 6.10938
Q40.5312 6.10938 44.6094 11.75
Q48.6875 17.3906 48.6875 27.2969" id="BitstreamVeraSans-Roman-70"/>
     </defs>
     <g transform="translate(21.8921875 185.9559375)rotate(-90.0)scale(0.1 -0.1)">
      <use transform="translate(0.0 0.015625)" xlink:href="#BitstreamVeraSans-Roman-54"/>
      <use transform="translate(61.083984375 0.015625)" xlink:href="#BitstreamVeraSans-Roman-65"/>
      <use transform="translate(122.607421875 0.015625)" xlink:href="#BitstreamVeraSans-Roman-6d"/>
      <use transform="translate(220.01953125 0.015625)" xlink:href="#BitstreamVeraSans-Roman-70"/>
      <use transform="translate(283.49609375 0.015625)" xlink:href="#BitstreamVeraSans-Roman-65"/>
      <use transform="translate(345.01953125 0.015625)" xlink:href="#BitstreamVeraSans-Roman-72"/>
      <use transform="translate(386.1328125 0.015625)" xlink:href="#BitstreamVeraSans-Roman-61"/>
      <use transform="translate(447.412109375 0.015625)" xlink:href="#BitstreamVeraSans-Roman-74"/>
      <use transform="translate(486.62109375 0.015625)" xlink:href="#BitstreamVeraSans-Roman-75"/>
      <use transform="translate(550.0 0.015625)" xlink:href="#BitstreamVeraSans-Roman-72"/>
      <use transform="translate(591.11328125 0.015625)" xlink:href="#BitstreamVeraSans-Roman-65"/>
      <use transform="translate(652.63671875 0.015625)" xlink:href="#BitstreamVeraSans-Roman-20"/>
      <use transform="translate(684.423828125 0.015625)" xlink:href="#BitstreamVeraSans-Roman-69"/>
      <use transform="translate(712.20703125 0.015625)" xlink:href="#BitstreamVeraSans-Roman-6e"/>
      <use transform="translate(775.5859375 0.015625)" xlink:href="#BitstreamVeraSans-Roman-20"/>
      <use transform="translate(819.6640625 42.53125)scale(0.7)" xlink:href="#Cmsy10-b1"/>
      <use transform="translate(876.031640625 0.015625)" xlink:href="#BitstreamVeraSans-Roman-43"/>
     </g>
    </g>
   </g>
   <g id="text_14">
    <!-- test 50, water 30/35$^\circ$C, 4h defr, 30pct, 15/01/2018 -->
    <defs>
     <path d="
M45.4062 46.3906
L45.4062 75.9844
L54.3906 75.9844
L54.3906 0
L45.4062 0
L45.4062 8.20312
Q42.5781 3.32812 38.25 0.953125
Q33.9375 -1.42188 27.875 -1.42188
Q17.9688 -1.42188 11.7344 6.48438
Q5.51562 14.4062 5.51562 27.2969
Q5.51562 40.1875 11.7344 48.0938
Q17.9688 56 27.875 56
Q33.9375 56 38.25 53.625
Q42.5781 51.2656 45.4062 46.3906
M14.7969 27.2969
Q14.7969 17.3906 18.875 11.75
Q22.9531 6.10938 30.0781 6.10938
Q37.2031 6.10938 41.2969 11.75
Q45.4062 17.3906 45.4062 27.2969
Q45.4062 37.2031 41.2969 42.8438
Q37.2031 48.4844 30.0781 48.4844
Q22.9531 48.4844 18.875 42.8438
Q14.7969 37.2031 14.7969 27.2969" id="BitstreamVeraSans-Roman-64"/>
     <path d="
M37.7969 64.3125
L12.8906 25.3906
L37.7969 25.3906
z

M35.2031 72.9062
L47.6094 72.9062
L47.6094 25.3906
L58.0156 25.3906
L58.0156 17.1875
L47.6094 17.1875
L47.6094 0
L37.7969 0
L37.7969 17.1875
L4.89062 17.1875
L4.89062 26.7031
z
" id="BitstreamVeraSans-Roman-34"/>
     <path d="
M11.7188 12.4062
L22.0156 12.4062
L22.0156 4
L14.0156 -11.625
L7.71875 -11.625
L11.7188 4
z
" id="BitstreamVeraSans-Roman-2c"/>
     <path d="
M54.8906 33.0156
L54.8906 0
L45.9062 0
L45.9062 32.7188
Q45.9062 40.4844 42.875 44.3281
Q39.8438 48.1875 33.7969 48.1875
Q26.5156 48.1875 22.3125 43.5469
Q18.1094 38.9219 18.1094 30.9062
L18.1094 0
L9.07812 0
L9.07812 75.9844
L18.1094 75.9844
L18.1094 46.1875
Q21.3438 51.125 25.7031 53.5625
Q30.0781 56 35.7969 56
Q45.2188 56 50.0469 50.1719
Q54.8906 44.3438 54.8906 33.0156" id="BitstreamVeraSans-Roman-68"/>
     <path d="
M25.3906 72.9062
L33.6875 72.9062
L8.29688 -9.28125
L0 -9.28125
z
" id="BitstreamVeraSans-Roman-2f"/>
     <path d="
M4.20312 54.6875
L13.1875 54.6875
L24.4219 12.0156
L35.5938 54.6875
L46.1875 54.6875
L57.4219 12.0156
L68.6094 54.6875
L77.5938 54.6875
L63.2812 0
L52.6875 0
L40.9219 44.8281
L29.1094 0
L18.5 0
z
" id="BitstreamVeraSans-Roman-77"/>
     <path d="
M37.1094 75.9844
L37.1094 68.5
L28.5156 68.5
Q23.6875 68.5 21.7969 66.5469
Q19.9219 64.5938 19.9219 59.5156
L19.9219 54.6875
L34.7188 54.6875
L34.7188 47.7031
L19.9219 47.7031
L19.9219 0
L10.8906 0
L10.8906 47.7031
L2.29688 47.7031
L2.29688 54.6875
L10.8906 54.6875
L10.8906 58.5
Q10.8906 67.625 15.1406 71.7969
Q19.3906 75.9844 28.6094 75.9844
z
" id="BitstreamVeraSans-Roman-66"/>
     <path d="
M44.2812 53.0781
L44.2812 44.5781
Q40.4844 46.5312 36.375 47.5
Q32.2812 48.4844 27.875 48.4844
Q21.1875 48.4844 17.8438 46.4375
Q14.5 44.3906 14.5 40.2812
Q14.5 37.1562 16.8906 35.375
Q19.2812 33.5938 26.5156 31.9844
L29.5938 31.2969
Q39.1562 29.25 43.1875 25.5156
Q47.2188 21.7812 47.2188 15.0938
Q47.2188 7.46875 41.1875 3.01562
Q35.1562 -1.42188 24.6094 -1.42188
Q20.2188 -1.42188 15.4531 -0.5625
Q10.6875 0.296875 5.42188 2
L5.42188 11.2812
Q10.4062 8.6875 15.2344 7.39062
Q20.0625 6.10938 24.8125 6.10938
Q31.1562 6.10938 34.5625 8.28125
Q37.9844 10.4531 37.9844 14.4062
Q37.9844 18.0625 35.5156 20.0156
Q33.0625 21.9688 24.7031 23.7812
L21.5781 24.5156
Q13.2344 26.2656 9.51562 29.9062
Q5.8125 33.5469 5.8125 39.8906
Q5.8125 47.6094 11.2812 51.7969
Q16.75 56 26.8125 56
Q31.7812 56 36.1719 55.2656
Q40.5781 54.5469 44.2812 53.0781" id="BitstreamVeraSans-Roman-73"/>
     <path d="
M48.7812 52.5938
L48.7812 44.1875
Q44.9688 46.2969 41.1406 47.3438
Q37.3125 48.3906 33.4062 48.3906
Q24.6562 48.3906 19.8125 42.8438
Q14.9844 37.3125 14.9844 27.2969
Q14.9844 17.2812 19.8125 11.7344
Q24.6562 6.20312 33.4062 6.20312
Q37.3125 6.20312 41.1406 7.25
Q44.9688 8.29688 48.7812 10.4062
L48.7812 2.09375
Q45.0156 0.34375 40.9844 -0.53125
Q36.9688 -1.42188 32.4219 -1.42188
Q20.0625 -1.42188 12.7812 6.34375
Q5.51562 14.1094 5.51562 27.2969
Q5.51562 40.6719 12.8594 48.3281
Q20.2188 56 33.0156 56
Q37.1562 56 41.1094 55.1406
Q45.0625 54.2969 48.7812 52.5938" id="BitstreamVeraSans-Roman-63"/>
    </defs>
    <g transform="translate(82.76671875 22.111875)scale(0.12 -0.12)">
     <use transform="translate(0.0 0.015625)" xlink:href="#BitstreamVeraSans-Roman-74"/>
     <use transform="translate(39.208984375 0.015625)" xlink:href="#BitstreamVeraSans-Roman-65"/>
     <use transform="translate(100.732421875 0.015625)" xlink:href="#BitstreamVeraSans-Roman-73"/>
     <use transform="translate(152.83203125 0.015625)" xlink:href="#BitstreamVeraSans-Roman-74"/>
     <use transform="translate(192.041015625 0.015625)" xlink:href="#BitstreamVeraSans-Roman-20"/>
     <use transform="translate(223.828125 0.015625)" xlink:href="#BitstreamVeraSans-Roman-35"/>
     <use transform="translate(287.451171875 0.015625)" xlink:href="#BitstreamVeraSans-Roman-30"/>
     <use transform="translate(351.07421875 0.015625)" xlink:href="#BitstreamVeraSans-Roman-2c"/>
     <use transform="translate(382.861328125 0.015625)" xlink:href="#BitstreamVeraSans-Roman-20"/>
     <use transform="translate(414.6484375 0.015625)" xlink:href="#BitstreamVeraSans-Roman-77"/>
     <use transform="translate(496.435546875 0.015625)" xlink:href="#BitstreamVeraSans-Roman-61"/>
     <use transform="translate(557.71484375 0.015625)" xlink:href="#BitstreamVeraSans-Roman-74"/>
     <use transform="translate(596.923828125 0.015625)" xlink:href="#BitstreamVeraSans-Roman-65"/>
     <use transform="translate(658.447265625 0.015625)" xlink:href="#BitstreamVeraSans-Roman-72"/>
     <use transform="translate(699.560546875 0.015625)" xlink:href="#BitstreamVeraSans-Roman-20"/>
     <use transform="translate(731.34765625 0.015625)" xlink:href="#BitstreamVeraSans-Roman-33"/>
     <use transform="translate(794.970703125 0.015625)" xlink:href="#BitstreamVeraSans-Roman-30"/>
     <use transform="translate(858.59375 0.015625)" xlink:href="#BitstreamVeraSans-Roman-2f"/>
     <use transform="translate(892.28515625 0.015625)" xlink:href="#BitstreamVeraSans-Roman-33"/>
     <use transform="translate(955.908203125 0.015625)" xlink:href="#BitstreamVeraSans-Roman-35"/>
     <use transform="translate(1031.82226562 42.53125)scale(0.7)" xlink:href="#Cmsy10-b1"/>
     <use transform="translate(1088.18984375 0.015625)" xlink:href="#BitstreamVeraSans-Roman-43"/>
     <use transform="translate(1158.0140625 0.015625)" xlink:href="#BitstreamVeraSans-Roman-2c"/>
     <use transform="translate(1189.80117187 0.015625)" xlink:href="#BitstreamVeraSans-Roman-20"/>
     <use transform="translate(1221.58828125 0.015625)" xlink:href="#BitstreamVeraSans-Roman-34"/>
     <use transform="translate(1285.21132812 0.015625)" xlink:href="#BitstreamVeraSans-Roman-68"/>
     <use transform="translate(1348.59023437 0.015625)" xlink:href="#BitstreamVeraSans-Roman-20"/>
     <use transform="translate(1380.37734375 0.015625)" xlink:href="#BitstreamVeraSans-Roman-64"/>
     <use transform="translate(1443.85390625 0.015625)" xlink:href="#BitstreamVeraSans-Roman-65"/>
     <use transform="translate(1505.37734375 0.015625)" xlink:href="#BitstreamVeraSans-Roman-66"/>
     <use transform="translate(1540.58242187 0.015625)" xlink:href="#BitstreamVeraSans-Roman-72"/>
     <use transform="translate(1581.69570312 0.015625)" xlink:href="#BitstreamVeraSans-Roman-2c"/>
     <use transform="translate(1613.4828125 0.015625)" xlink:href="#BitstreamVeraSans-Roman-20"/>
     <use transform="translate(1645.26992187 0.015625)" xlink:href="#BitstreamVeraSans-Roman-33"/>
     <use transform="translate(1708.89296875 0.015625)" xlink:href="#BitstreamVeraSans-Roman-30"/>
     <use transform="translate(1772.51601562 0.015625)" xlink:href="#BitstreamVeraSans-Roman-70"/>
     <use transform="translate(1835.99257812 0.015625)" xlink:href="#BitstreamVeraSans-Roman-63"/>
     <use transform="translate(1890.97304687 0.015625)" xlink:href="#BitstreamVeraSans-Roman-74"/>
     <use transform="translate(1930.18203125 0.015625)" xlink:href="#BitstreamVeraSans-Roman-2c"/>
     <use transform="translate(1961.96914062 0.015625)" xlink:href="#BitstreamVeraSans-Roman-20"/>
     <use transform="translate(1993.75625 0.015625)" xlink:href="#BitstreamVeraSans-Roman-31"/>
     <use transform="translate(2057.37929687 0.015625)" xlink:href="#BitstreamVeraSans-Roman-35"/>
     <use transform="translate(2121.00234375 0.015625)" xlink:href="#BitstreamVeraSans-Roman-2f"/>
     <use transform="translate(2154.69375 0.015625)" xlink:href="#BitstreamVeraSans-Roman-30"/>
     <use transform="translate(2218.31679687 0.015625)" xlink:href="#BitstreamVeraSans-Roman-31"/>
     <use transform="translate(2281.93984375 0.015625)" xlink:href="#BitstreamVeraSans-Roman-2f"/>
     <use transform="translate(2312.00625 0.015625)" xlink:href="#BitstreamVeraSans-Roman-32"/>
     <use transform="translate(2375.62929687 0.015625)" xlink:href="#BitstreamVeraSans-Roman-30"/>
     <use transform="translate(2439.25234375 0.015625)" xlink:href="#BitstreamVeraSans-Roman-31"/>
     <use transform="translate(2502.87539062 0.015625)" xlink:href="#BitstreamVeraSans-Roman-38"/>
    </g>
   </g>
   <g id="legend_1">
    <g id="patch_8">
     <path d="
M447.33 157.803
L518.713 157.803
L518.713 119.508
L447.33 119.508
z
" style="fill:#ffffff;stroke:#000000;stroke-linejoin:miter;"/>
    </g>
    <g id="line2d_52">
     <path d="
M452.93 125.987" style="fill:none;stroke:#0000ff;stroke-linecap:square;"/>
    </g>
    <g id="line2d_53"/>
    <g id="text_15">
     <!-- T_evap_C1 -->
     <defs>
      <path d="
M2.98438 54.6875
L12.5 54.6875
L29.5938 8.79688
L46.6875 54.6875
L56.2031 54.6875
L35.6875 0
L23.4844 0
z
" id="BitstreamVeraSans-Roman-76"/>
      <path d="
M50.9844 -16.6094
L50.9844 -23.5781
L-0.984375 -23.5781
L-0.984375 -16.6094
z
" id="BitstreamVeraSans-Roman-5f"/>
     </defs>
     <g transform="translate(472.92959375 128.7871875)scale(0.08 -0.08)">
      <use xlink:href="#BitstreamVeraSans-Roman-54"/>
      <use x="61.083984375" xlink:href="#BitstreamVeraSans-Roman-5f"/>
      <use x="111.083984375" xlink:href="#BitstreamVeraSans-Roman-65"/>
      <use x="172.607421875" xlink:href="#BitstreamVeraSans-Roman-76"/>
      <use x="231.787109375" xlink:href="#BitstreamVeraSans-Roman-61"/>
      <use x="293.06640625" xlink:href="#BitstreamVeraSans-Roman-70"/>
      <use x="356.54296875" xlink:href="#BitstreamVeraSans-Roman-5f"/>
      <use x="406.54296875" xlink:href="#BitstreamVeraSans-Roman-43"/>
      <use x="476.3671875" xlink:href="#BitstreamVeraSans-Roman-31"/>
     </g>
    </g>
    <g id="line2d_54">
     <path d="
M452.93 137.952" style="fill:none;stroke:#008000;stroke-linecap:square;"/>
    </g>
    <g id="line2d_55"/>
    <g id="text_16">
     <!-- T_evap_C2 -->
     <g transform="translate(472.92959375 140.7521875)scale(0.08 -0.08)">
      <use xlink:href="#BitstreamVeraSans-Roman-54"/>
      <use x="61.083984375" xlink:href="#BitstreamVeraSans-Roman-5f"/>
      <use x="111.083984375" xlink:href="#BitstreamVeraSans-Roman-65"/>
      <use x="172.607421875" xlink:href="#BitstreamVeraSans-Roman-76"/>
      <use x="231.787109375" xlink:href="#BitstreamVeraSans-Roman-61"/>
      <use x="293.06640625" xlink:href="#BitstreamVeraSans-Roman-70"/>
      <use x="356.54296875" xlink:href="#BitstreamVeraSans-Roman-5f"/>
      <use x="406.54296875" xlink:href="#BitstreamVeraSans-Roman-43"/>
      <use x="476.3671875" xlink:href="#BitstreamVeraSans-Roman-32"/>
     </g>
    </g>
    <g id="line2d_56">
     <path d="
M452.93 149.917" style="fill:none;stroke:#ff0000;stroke-linecap:square;"/>
    </g>
    <g id="line2d_57"/>
    <g id="text_17">
     <!-- T_evap_C3 -->
     <g transform="translate(472.92959375 152.7171875)scale(0.08 -0.08)">
      <use xlink:href="#BitstreamVeraSans-Roman-54"/>
      <use x="61.083984375" xlink:href="#BitstreamVeraSans-Roman-5f"/>
      <use x="111.083984375" xlink:href="#BitstreamVeraSans-Roman-65"/>
      <use x="172.607421875" xlink:href="#BitstreamVeraSans-Roman-76"/>
      <use x="231.787109375" xlink:href="#BitstreamVeraSans-Roman-61"/>
      <use x="293.06640625" xlink:href="#BitstreamVeraSans-Roman-70"/>
      <use x="356.54296875" xlink:href="#BitstreamVeraSans-Roman-5f"/>
      <use x="406.54296875" xlink:href="#BitstreamVeraSans-Roman-43"/>
      <use x="476.3671875" xlink:href="#BitstreamVeraSans-Roman-33"/>
     </g>
    </g>
   </g>
  </g>
 </g>
 <defs>
  <clipPath id="p0cf8f7abe3">
   <rect height="223.088125" width="368.8265625" x="52.3734375" y="27.111875"/>
  </clipPath>
 </defs>
</svg>
