<?xml version="1.0" encoding="utf-8" standalone="no"?>
<!DOCTYPE svg PUBLIC "-//W3C//DTD SVG 1.1//EN"
  "http://www.w3.org/Graphics/SVG/1.1/DTD/svg11.dtd">
<!-- Created with matplotlib (http://matplotlib.org/) -->
<svg height="288pt" version="1.1" viewBox="0 0 432 288" width="432pt" xmlns="http://www.w3.org/2000/svg" xmlns:xlink="http://www.w3.org/1999/xlink">
 <defs>
  <style type="text/css">
*{stroke-linecap:butt;stroke-linejoin:round;}
  </style>
 </defs>
 <g id="figure_1">
  <g id="patch_1">
   <path d="
M0 288
L432 288
L432 0
L0 0
z
" style="fill:#ffffff;"/>
  </g>
  <g id="axes_1">
   <g id="patch_2">
    <path d="
M52.3734 250.2
L421.2 250.2
L421.2 27.1119
L52.3734 27.1119
z
" style="fill:#ffffff;"/>
   </g>
   <g id="patch_3">
    <path clip-path="url(#p0cf8f7abe3)" d="
M52.3734 198.718
L52.3734 198.718
L421.2 198.718
L421.2 198.718
z
" style="fill:#808080;opacity:0.2;stroke:#808080;stroke-linejoin:miter;"/>
   </g>
   <g id="line2d_1">
    <path clip-path="url(#p0cf8f7abe3)" d="
M52.6808 224.627
L53.0223 224.615
L53.3638 224.785
L55.0713 224.526
L55.4128 224.821
L55.7543 224.843
L56.0959 224.617
L56.4374 224.564
L56.7789 224.711
L57.1204 224.532
L58.1449 224.844
L58.4864 224.556
L58.8279 224.55
L59.1694 224.761
L59.5109 224.754
L59.8524 224.522
L60.5354 224.538
L60.8769 224.806
L61.2184 224.789
L61.56 225.105
L61.9015 224.519
L62.243 224.755
L62.5845 224.7
L62.926 224.522
L63.609 224.411
L63.9505 224.94
L64.292 224.899
L64.975 224.54
L65.3165 224.621
L66.341 224.415
L66.6825 224.833
L68.0486 224.455
L68.3901 224.542
L68.7316 224.859
L69.0731 224.511
L69.7561 224.596
L70.0976 224.316
L70.4391 224.529
L70.7806 224.406
L71.1221 224.551
L71.4636 224.528
L71.8051 224.73
L72.1466 224.266
L72.4881 224.696
L72.8297 224.396
L73.5127 224.529
L73.8542 224.758
L74.1957 224.543
L74.5372 224.901
L74.8787 224.512
L75.2202 224.795
L75.5617 224.443
L75.9032 224.555
L76.2447 224.469
L76.5862 224.527
L76.9277 224.28
L77.2692 224.569
L77.6107 224.514
L77.9522 224.775
L78.6353 224.533
L78.9768 224.62
L80.0013 224.263
L80.3428 224.827
L80.6843 224.542
L81.3673 224.51
L81.7088 224.735
L82.0503 224.802
L82.3918 224.529
L82.7333 224.503
L83.0748 224.267
L83.7578 224.489
L86.1484 224.52
L86.4899 224.712
L86.8314 224.431
L87.1729 224.57
L87.8559 224.291
L88.5389 224.644
L88.8804 224.828
L89.2219 224.352
L89.5634 224.315
L89.905 224.438
L90.2465 224.825
L90.588 224.554
L90.9295 224.808
L91.271 224.329
L91.6125 224.404
L91.954 224.692
L92.2955 224.492
L92.9785 224.518
L94.003 224.463
L94.3445 224.584
L94.686 224.493
L96.3936 224.57
L97.0766 224.438
L97.4181 224.552
L98.4426 224.495
L98.7841 224.625
L99.1256 224.396
L99.4671 224.332
L100.492 224.889
L100.833 224.402
L101.175 224.439
L101.516 224.789
L102.199 224.246
L102.541 224.543
L103.224 224.289
L103.565 224.713
L103.907 224.552
L104.248 224.256
L104.931 224.783
L105.273 224.363
L105.614 224.573
L105.956 224.542
L106.297 224.305
L106.639 224.821
L106.98 224.329
L107.322 224.647
L107.663 224.696
L108.005 224.52
L108.688 224.534
L109.029 224.211
L109.371 224.833
L109.712 224.542
L110.054 224.558
L110.395 224.82
L110.737 224.453
L111.078 224.777
L111.42 224.547
L112.103 224.496
L114.152 224.476
L114.493 224.236
L114.835 224.802
L115.176 224.858
L115.518 224.487
L115.859 224.543
L116.201 224.48
L116.542 224.82
L116.884 224.514
L117.225 224.506
L117.567 224.723
L117.908 224.463
L118.25 224.792
L118.591 224.839
L118.933 224.43
L119.274 224.537
L119.616 224.85
L119.957 224.646
L120.299 224.892
L120.641 224.681
L120.982 224.992
L121.324 224.471
L122.348 224.592
L122.69 224.425
L123.031 224.511
L123.373 224.737
L123.714 224.52
L124.056 224.48
L124.397 224.987
L124.739 224.613
L125.08 224.863
L125.422 224.584
L125.763 224.951
L126.105 224.898
L126.446 224.705
L126.788 224.896
L127.129 224.5
L127.471 224.846
L128.154 225
L128.495 224.626
L128.837 224.9
L129.52 224.564
L130.203 225.243
L130.544 224.721
L130.886 225.06
L131.227 224.763
L131.91 224.506
L132.252 224.828
L132.935 224.726
L133.959 224.667
L134.301 225.048
L134.642 225.066
L134.984 224.578
L135.325 225.128
L135.667 224.562
L136.008 224.627
L136.35 225.052
L137.033 224.55
L137.374 224.586
L137.716 225.374
L138.057 224.52
L138.399 224.662
L138.74 224.652
L139.082 224.95
L139.423 224.606
L139.765 225.071
L140.106 224.85
L140.448 225.164
L140.789 224.881
L141.131 225.404
L141.472 224.684
L141.814 225.374
L142.155 224.76
L142.838 224.826
L143.18 225.001
L143.521 224.576
L144.204 224.835
L144.546 224.725
L144.887 224.834
L145.229 225.124
L145.57 224.735
L146.936 224.619
L147.278 224.843
L147.961 224.76
L148.302 225.389
L148.644 224.755
L148.986 225.49
L150.352 224.763
L152.059 224.864
L152.401 225.49
L152.742 224.716
L153.084 225.011
L153.425 225.456
L153.767 225.686
L154.108 224.83
L154.45 224.939
L154.791 224.915
L155.133 225.462
L155.474 224.952
L155.816 225.46
L156.499 225.081
L156.84 224.868
L157.182 224.939
L157.523 225.662
L157.865 224.967
L158.206 225.239
L158.548 224.943
L158.889 225.144
L159.231 224.957
L159.572 224.959
L159.914 225.506
L160.255 225.382
L160.938 225.605
L161.621 225.74
L161.963 225.25
L162.304 225.8
L162.646 225.687
L162.987 224.899
L163.329 225.592
L164.353 225.382
L164.695 225.011
L165.036 225.525
L165.378 225.033
L165.719 225.817
L166.061 225.467
L166.744 225.471
L167.085 225.837
L167.768 225.517
L168.451 225.412
L168.793 225.689
L169.134 225.635
L169.476 225.902
L169.817 225.531
L170.159 225.825
L170.5 225.812
L170.842 225.505
L171.183 225.528
L171.525 225.934
L171.866 225.577
L172.208 225.564
L172.549 225.747
L172.891 225.787
L173.232 225.491
L174.257 225.564
L174.598 225.442
L174.94 225.487
L175.281 225.919
L175.623 225.927
L175.964 225.705
L176.306 225.971
L176.989 225.638
L177.331 225.779
L177.672 225.723
L178.014 226.106
L178.355 226.053
L178.697 225.516
L179.721 225.742
L180.063 226.05
L180.404 225.52
L180.746 225.715
L181.087 225.666
L181.429 225.76
L182.112 226.14
L182.453 225.77
L184.161 225.861
L184.502 226.114
L184.844 225.816
L185.185 225.906
L186.21 225.806
L186.551 225.977
L187.917 225.828
L189.625 225.929
L189.966 226.066
L190.649 225.938
L190.991 225.853
L191.332 226.019
L191.674 225.893
L192.015 226.249
L192.357 226.111
L192.698 225.746
L193.04 226.132
L193.381 225.934
L193.723 226.415
L194.406 226.117
L195.089 226.1
L195.43 226.126
L196.113 226.498
L196.455 226.039
L196.796 226.477
L197.138 226.075
L197.479 225.94
L197.821 226.298
L198.504 225.966
L199.187 226.532
L199.528 226.469
L199.87 226.28
L200.211 226.562
L200.894 226.133
L201.236 226.473
L201.577 226.4
L201.919 226.541
L202.26 226.545
L202.943 226.184
L203.285 226.512
L203.626 226.164
L203.968 226.773
L204.309 226.26
L204.651 226.581
L205.334 226.657
L205.676 226.389
L206.017 226.649
L206.359 226.703
L206.7 226.48
L207.383 226.305
L207.725 226.505
L208.408 226.351
L209.432 226.774
L209.774 226.453
L210.457 226.415
L210.798 226.669
L211.14 226.714
L211.481 226.461
L211.823 226.406
L212.164 226.475
L212.506 226.871
L212.847 226.563
L213.53 226.626
L213.872 226.817
L214.213 226.66
L214.555 226.78
L215.579 226.597
L215.921 226.629
L216.262 226.96
L216.604 226.645
L216.945 226.723
L217.287 226.574
L217.628 226.732
L218.994 226.692
L219.336 227.108
L219.677 226.814
L220.019 226.672
L220.36 227.428
L220.702 227.456
L221.043 226.799
L221.385 227.359
L221.726 226.845
L222.068 227.614
L222.409 227.352
L222.751 226.814
L223.092 227.484
L223.434 227.081
L224.117 227.365
L224.8 226.875
L225.141 226.825
L225.483 227.3
L225.824 227.404
L226.166 227.361
L226.507 227.029
L226.849 227.339
L227.19 226.91
L227.532 227.473
L227.873 227.311
L228.215 226.925
L228.556 227.532
L228.898 227.475
L229.239 227.3
L229.581 227.564
L229.922 227.284
L230.947 227.772
L231.288 227.486
L231.63 227.839
L231.971 227.485
L232.313 227.5
L232.654 227.999
L232.996 227.732
L233.338 227.62
L234.362 227.927
L234.704 227.68
L235.045 227.786
L235.387 228.102
L235.728 227.882
L236.07 227.995
L236.411 227.902
L236.753 228.116
L237.094 227.774
L237.436 227.865
L237.777 227.635
L238.119 227.88
L238.46 227.725
L238.802 228.18
L239.143 227.89
L239.485 228.119
L240.509 228.336
L240.851 227.964
L241.192 227.89
L241.534 227.992
L241.875 228.442
L242.217 227.85
L243.241 228.4
L243.583 228.098
L243.924 228.391
L244.266 228.169
L244.949 228.067
L245.29 227.827
L245.632 228.482
L246.315 228.187
L246.656 228.826
L246.998 228.392
L247.339 228.149
L247.681 228.481
L248.022 228.189
L248.364 228.838
L248.705 228.139
L249.047 228.565
L249.388 228.358
L250.071 228.326
L250.413 229.064
L250.754 228.441
L251.096 228.686
L251.437 228.688
L252.12 228.419
L252.462 228.439
L252.803 228.759
L253.145 228.78
L253.486 229.341
L253.828 228.434
L254.169 228.581
L254.511 229.065
L254.852 229.286
L255.194 228.681
L255.535 228.909
L255.877 229.435
L256.56 228.97
L256.901 229.586
L257.243 229.078
L257.926 229.455
L258.267 229.333
L258.609 229.518
L259.292 228.923
L259.633 229.192
L260.316 229.114
L260.658 229.42
L261.683 229.367
L262.024 229.441
L262.707 229.456
L263.049 229.722
L263.39 229.438
L263.732 229.383
L264.073 229.58
L264.415 229.442
L264.756 229.686
L265.098 229.657
L265.439 229.45
L265.781 229.763
L266.122 229.586
L266.805 229.772
L267.147 229.979
L267.488 229.867
L267.83 230.219
L268.171 229.738
L268.513 229.929
L268.854 230.291
L269.196 229.791
L269.537 230.411
L269.879 229.812
L270.22 230.082
L270.562 230.088
L270.903 229.93
L271.245 230.091
L271.586 229.82
L272.269 230.573
L272.611 230.16
L272.952 230.116
L273.294 230.293
L273.635 230.628
L273.977 230.079
L274.318 230.763
L274.66 230.215
L275.343 230.108
L275.684 231.066
L276.026 230.824
L276.367 230.881
L276.709 230.758
L277.05 231.132
L277.392 230.825
L278.075 230.7
L278.416 231.111
L278.758 230.814
L279.099 230.75
L279.441 231.221
L279.782 230.814
L280.124 231.087
L280.465 231.039
L280.807 230.858
L281.49 230.757
L282.173 231.366
L282.514 231.152
L282.856 231.443
L283.197 231.099
L283.539 231.195
L283.88 231.488
L284.222 231.368
L284.563 231.573
L284.905 231.493
L285.246 231.129
L285.929 231.444
L286.271 231.419
L286.612 231.209
L286.954 231.799
L287.295 231.53
L288.32 231.692
L288.661 231.998
L289.003 231.64
L289.686 231.442
L290.028 231.727
L290.369 231.602
L291.052 231.808
L291.735 231.781
L292.077 232.203
L292.418 232.03
L292.76 231.678
L293.443 232.14
L293.784 232.01
L294.126 232.095
L294.467 232.781
L294.809 231.992
L295.15 232.892
L295.492 232.878
L295.833 232.197
L296.175 232.146
L296.516 232.253
L296.858 232.665
L297.199 232.661
L297.541 232.844
L297.882 232.357
L298.565 232.821
L298.907 232.559
L299.248 233.364
L299.59 232.68
L299.931 233.112
L300.273 233.214
L300.614 233.065
L300.956 233.084
L301.297 232.831
L302.322 233.541
L302.663 233.644
L303.005 233.495
L303.346 233.214
L304.371 233.51
L305.395 233.55
L306.078 233.461
L306.42 233.912
L306.761 233.573
L307.103 233.876
L307.444 233.692
L308.469 234.062
L308.81 234.048
L309.152 233.906
L309.493 234.129
L309.835 233.776
L310.176 234.164
L310.518 233.95
L310.859 234.08
L311.201 234.039
L311.542 234.635
L312.225 234.115
L312.567 234.39
L312.908 235.255
L313.25 234.263
L313.591 234.729
L314.274 234.832
L314.957 235.01
L315.299 235.406
L315.64 235.06
L315.982 234.89
L316.323 235.152
L316.665 235.625
L317.006 235.202
L317.348 235.409
L317.69 235.218
L318.373 235.768
L319.056 235.387
L319.397 235.963
L319.739 235.677
L320.08 236.055
L320.422 235.859
L320.763 236.2
L321.105 236.119
L321.446 235.894
L321.788 235.831
L322.129 235.965
L322.471 235.913
L322.812 235.713
L323.154 236.322
L323.495 235.93
L324.178 236.339
L324.52 236.591
L325.203 236.535
L325.544 236.697
L326.569 236.818
L326.91 236.944
L327.252 236.862
L327.593 237.248
L327.935 236.969
L328.276 237.062
L328.618 236.987
L329.642 237.162
L329.984 237.154
L330.325 237.418
L331.008 237.343
L331.35 237.308
L332.033 237.819
L332.374 237.419
L332.716 237.663
L333.057 237.584
L333.399 237.993
L333.74 237.706
L334.082 238.198
L334.423 237.972
L334.765 238.298
L335.106 237.867
L335.448 237.804
L335.789 238.079
L336.131 237.8
L336.472 238.346
L336.814 238.126
L337.155 238.29
L337.497 238.144
L337.838 238.845
L338.18 238.226
L338.521 238.587
L338.863 238.529
L339.204 238.977
L339.546 238.824
L339.887 238.84
L340.57 239.565
L340.912 239.177
L341.595 239.282
L341.936 239.596
L342.278 239.604
L342.619 239.239
L342.961 239.776
L343.302 239.751
L343.644 240.377
L343.985 240.195
L344.327 239.748
L344.668 239.969
L345.01 240.719
L345.352 240.096
L345.693 240.373
L346.035 240.232
L346.718 241.06
L347.059 240.714
L347.401 241.132
L347.742 241.284
L348.084 241.043
L348.425 240.949
L348.767 240.978
L349.108 241.345
L349.45 241.12
L349.791 241.117
L350.133 241.913
L350.474 241.314
L351.157 241.647
L351.499 242.493
L351.84 241.743
L352.182 242.418
L352.523 242.537
L352.865 241.874
L353.548 241.711
L353.889 242.796
L354.231 242.551
L354.572 242.934
L354.914 241.937
L355.255 242.678
L356.28 243.309
L356.621 242.86
L357.304 242.956
L357.987 243.052
L358.329 243.456
L358.67 243.148
L359.012 243.374
L359.353 242.977
L359.695 243.563
L360.036 243.171
L360.378 243.546
L361.061 243.746
L361.744 243.692
L362.085 243.38
L362.427 243.746
L362.768 243.74
L363.11 244.085
L363.451 244.013
L363.793 244.163
L364.134 244.053
L364.476 244.411
L364.817 244.235
L365.5 244.834
L365.842 244.693
L366.183 244.898
L366.525 244.956
L366.866 244.891
L367.208 245.14
L367.549 244.98
L367.891 245.806
L368.232 245.259
L368.574 245.359
L368.915 245.81
L369.257 245.068
L369.598 245.81
L369.94 245.794
L370.281 245.923
L370.623 245.694
L370.964 246.115
L371.306 245.882
L371.647 245.933
L371.989 245.845
L373.013 246.256
L373.355 246.234
L373.697 245.912
L374.038 246.498
L374.38 246.462
L374.721 246.295
L375.063 246.724
L375.746 246.591
L376.429 247.188
L376.77 247.058
L377.112 247.132
L377.453 247.784
L377.795 247.336
L378.136 247.229
L378.478 247.717
L378.819 247.63
L379.161 247.293
L379.844 247.844
L380.527 247.645
L380.868 248.032
L381.21 247.754
L381.551 248.437
L381.893 247.963
L382.234 247.702
L382.576 247.655
L383.259 248.222
L383.6 248.333
L384.283 248.073
L384.625 248.539
L384.966 248.434
L385.308 248.137
L385.649 248.813
L385.991 248.989
L386.332 248.49
L386.674 249.526
L387.357 248.946
L387.698 249.6
L388.04 249.675
L388.723 249.536
L389.064 249.991
L389.406 249.422
L389.747 249.672
L390.089 249.272
L390.43 249.697
L390.772 249.418
L391.113 249.956
L391.455 250.199
L391.796 249.846
L392.138 250.407
L392.479 249.938
L392.821 250.457
L393.504 250.303
L393.845 250.367
L394.187 250.164
L394.528 251.271
L394.87 250.758
L395.211 250.613
L395.553 250.821
L395.894 251.578
L396.236 251.141
L396.577 251.694
L396.919 251.413
L397.26 251.294
L397.943 251.97
L398.285 252.083
L398.626 252.003
L398.968 252.372
L399.309 251.948
L399.651 252.394
L399.992 252.352
L400.334 252.158
L400.675 252.557
L401.017 253.273
L401.358 252.374
L401.7 252.417
L402.042 252.75
L402.383 253.317
L402.725 252.494
L403.066 253.491
L403.408 253.068
L403.749 253.525
L404.091 252.753
L404.432 252.872
L404.774 253.527
L405.798 254.158
L406.14 253.953
L406.481 254.138
L406.823 253.697
L407.164 253.932
L407.506 254.717
L407.847 254.167
L408.189 254.776
L408.53 253.922
L408.872 254.043
L409.213 254.296
L409.555 254.365
L409.896 255.126
L410.238 254.76
L410.579 254.696
L410.921 255.627
L411.262 255.654
L411.604 255.152
L411.945 255.77
L412.287 255.913
L412.628 255.487
L412.97 256.11
L413.311 256.016
L413.653 256.475
L413.994 256.039
L414.336 256.231
L414.677 255.91
L415.019 256.542
L415.36 256.332
L416.385 256.368
L416.726 257.164
L417.068 256.609
L417.409 256.775
L417.751 256.416
L418.092 257.849
L418.434 257.072
L418.775 258.035
L419.117 257.174
L419.458 258.241
L419.8 257.904
L420.141 257.188
L420.483 258.069
L420.824 257.515
L420.824 257.515" style="fill:none;stroke:#0000ff;stroke-linecap:square;"/>
   </g>
   <g id="line2d_2">
    <path clip-path="url(#p0cf8f7abe3)" d="
M52.6808 77.4441
L53.0223 77.6517
L53.3638 77.534
L53.7053 77.7843
L54.3883 77.5476
L56.4374 77.6176
L56.7789 77.8999
L57.1204 77.716
L57.8034 77.8426
L58.1449 78.1015
L58.8279 77.7928
L59.1694 77.9011
L59.8524 77.8157
L60.1939 77.7434
L60.5354 77.8741
L60.8769 77.7865
L61.56 77.9157
L61.9015 77.7736
L62.243 78.1265
L62.926 77.9489
L63.2675 77.8186
L63.609 78.1852
L63.9505 78.0148
L64.292 77.716
L64.6335 78.0215
L65.658 77.9408
L65.9995 77.9419
L66.341 78.3419
L66.6825 77.8668
L67.024 78.0538
L67.3656 77.9844
L68.0486 78.0429
L68.3901 77.8584
L68.7316 78.4909
L69.0731 78.2277
L69.7561 78.004
L70.0976 78.0899
L70.4391 78.3628
L70.7806 78.0451
L71.8051 78.1428
L72.1466 77.8441
L72.4881 78.4727
L72.8297 78.0366
L73.1712 77.9485
L74.1957 78.3612
L74.5372 77.9503
L74.8787 78.1383
L75.9032 78.0866
L76.2447 78.3404
L76.5862 78.3892
L76.9277 78.078
L77.6107 78.0443
L77.9522 78.4483
L78.2937 78.1666
L78.6353 78.1272
L78.9768 78.5116
L79.3183 78.4447
L79.6598 78.1472
L80.0013 78.4713
L80.6843 78.2099
L81.0258 78.3253
L81.7088 78.2024
L82.0503 78.2164
L82.3918 78.6585
L82.7333 78.2273
L83.0748 78.2374
L83.4163 78.4275
L83.7578 78.4158
L84.0994 78.1435
L84.4409 78.3289
L85.1239 78.2085
L85.4654 78.5836
L85.8069 78.347
L86.1484 78.5869
L86.4899 78.1775
L86.8314 78.2897
L87.1729 78.5985
L87.5144 78.3482
L88.5389 78.402
L88.8804 78.2286
L89.2219 78.3314
L89.5634 78.1998
L89.905 78.1945
L90.2465 78.5941
L90.588 78.2552
L90.9295 78.3844
L91.271 78.2961
L91.6125 78.5104
L91.954 78.2928
L92.2955 78.2129
L92.9785 78.6418
L93.32 78.4225
L93.6615 78.3626
L94.003 78.4608
L94.3445 78.23
L95.0275 78.4196
L95.3691 78.2705
L96.0521 78.3566
L96.3936 78.7483
L97.0766 78.3496
L97.4181 78.9024
L97.7596 78.3433
L98.1011 78.7668
L98.4426 78.4145
L98.7841 78.7915
L99.1256 78.4121
L99.4671 78.3199
L99.8086 78.7059
L100.15 78.3865
L100.492 78.4547
L100.833 78.3043
L101.175 78.7049
L101.516 78.6616
L101.858 78.7953
L102.199 78.4264
L102.541 78.3371
L102.882 78.4491
L103.224 78.2469
L103.565 78.4289
L103.907 78.8257
L104.248 78.3616
L104.59 78.7568
L104.931 78.3367
L105.273 78.6924
L105.956 78.3493
L106.297 78.5003
L106.639 78.8652
L107.322 78.3695
L107.663 78.6704
L108.005 78.4933
L108.346 78.8889
L108.688 78.5803
L109.029 78.4606
L109.371 78.7254
L109.712 78.2861
L110.054 78.5784
L111.078 78.5983
L111.42 78.8355
L111.761 78.5704
L112.444 78.8333
L112.786 78.4458
L113.127 78.599
L113.469 78.9962
L113.81 78.3855
L114.152 78.8702
L115.176 78.7064
L115.518 78.8842
L115.859 78.384
L117.225 78.576
L117.567 78.4126
L118.25 78.6543
L118.591 78.5736
L118.933 78.7304
L119.274 78.5526
L119.616 78.6851
L119.957 78.6415
L120.982 78.9303
L121.324 78.719
L121.665 78.9418
L122.348 78.6022
L122.69 78.9737
L123.373 78.5516
L123.714 78.6082
L124.056 78.5259
L124.397 78.7435
L124.739 78.5577
L125.422 78.799
L126.105 78.6666
L126.446 78.4652
L126.788 78.9484
L127.129 78.5595
L127.471 78.8014
L127.812 78.6173
L128.154 78.9027
L128.495 79.0345
L128.837 78.9342
L129.178 78.7025
L129.861 78.8153
L130.203 78.613
L130.886 78.9262
L131.227 78.6454
L131.569 78.7541
L131.91 78.7121
L132.252 79.1155
L132.593 78.8349
L132.935 79.0003
L133.618 78.8123
L133.959 78.6798
L134.642 78.9224
L135.325 78.6902
L136.008 78.9555
L136.35 78.9328
L136.691 78.6952
L137.033 79.0122
L137.374 78.7042
L137.716 78.8291
L138.057 78.7334
L138.399 78.5173
L138.74 78.8504
L139.082 78.6616
L139.423 79.0426
L139.765 78.6728
L140.106 79.0421
L140.448 79.1554
L140.789 78.621
L141.131 78.8567
L141.472 78.8304
L141.814 79.0667
L142.155 78.5888
L142.497 79.1563
L142.838 78.9432
L143.18 78.8843
L143.863 79.1137
L144.204 78.8599
L144.546 78.7543
L145.229 79.151
L145.57 78.7672
L145.912 78.925
L146.253 78.7807
L146.595 78.9494
L146.936 78.8781
L147.278 79.0096
L147.619 78.904
L147.961 78.9879
L148.644 78.708
L148.986 78.8257
L149.669 78.7825
L150.01 78.8692
L150.352 78.7064
L150.693 78.8528
L151.035 78.7363
L151.376 78.9073
L152.059 78.6677
L152.401 79.1717
L153.425 78.8117
L153.767 79.2263
L154.108 78.8041
L154.45 78.9077
L154.791 79.2106
L155.133 79.0331
L155.816 78.8532
L156.157 79.1485
L156.84 79.2141
L157.523 78.7899
L157.865 79.3397
L158.206 78.7703
L158.889 79.0745
L159.231 78.8538
L159.914 79.0049
L160.255 78.9452
L160.597 79.0574
L161.28 78.9431
L161.621 79.179
L162.304 78.7679
L162.646 78.8642
L162.987 79.1509
L163.329 78.939
L163.67 78.9034
L164.353 79.1583
L164.695 79.1215
L165.036 78.8995
L165.378 78.9562
L165.719 79.1957
L166.061 78.8883
L166.402 78.8101
L166.744 78.8744
L167.427 79.3279
L167.768 79.2609
L168.11 78.9315
L168.793 78.8609
L169.134 79.0422
L169.817 79.0216
L170.159 78.9678
L170.5 79.3138
L170.842 78.9061
L171.183 78.8675
L171.866 78.9667
L172.549 78.8539
L172.891 79.3113
L173.232 78.9335
L173.915 79.3835
L174.257 78.8027
L174.598 79.294
L174.94 78.964
L175.281 79.2955
L175.964 78.9791
L176.989 79.3074
L177.331 78.9641
L177.672 79.3679
L178.014 79.1026
L178.355 79.2123
L178.697 78.9938
L179.038 78.9266
L179.38 79.345
L179.721 78.9636
L180.063 79.0053
L180.404 78.8588
L180.746 79.1238
L181.087 78.9585
L181.429 78.9467
L181.77 79.1602
L182.112 79.1651
L182.795 78.964
L183.136 79.2566
L183.478 79.2365
L183.819 78.9711
L184.844 78.9631
L185.185 79.284
L185.527 78.9595
L185.868 79.0408
L186.21 78.9116
L186.551 79.1142
L187.576 78.982
L188.259 79.0874
L188.6 78.9727
L189.283 79.1861
L189.625 79.3831
L189.966 78.9783
L190.308 79.1796
L190.991 78.9419
L191.332 79.3675
L191.674 78.9359
L192.357 79.1078
L192.698 78.959
L193.04 79.0614
L193.381 78.9729
L193.723 79.3988
L194.064 79.0042
L194.406 79.0912
L195.089 78.9603
L195.43 79.1831
L195.772 78.9465
L196.113 79.2576
L196.455 79.0417
L197.138 79.2568
L197.479 79.0046
L197.821 79.0819
L198.162 78.9807
L199.187 79.0792
L199.528 79.3072
L199.87 79.0743
L200.211 79.3891
L200.553 79.1258
L201.236 79.1674
L201.577 79.4441
L201.919 79.41
L202.26 78.8982
L202.602 79.4805
L202.943 79.061
L203.285 79.0762
L203.626 78.9749
L203.968 79.3398
L204.309 79.0721
L204.651 79.4214
L204.993 79.4776
L205.676 79.1975
L206.017 79.0193
L206.359 79.0226
L206.7 79.1724
L207.042 79.1561
L207.383 79.3086
L207.725 78.9841
L208.408 79.4839
L208.749 79.1712
L209.774 79.1257
L210.115 79.0636
L210.798 79.4771
L211.481 79.1536
L211.823 79.1786
L212.164 79.5809
L212.847 79.2578
L213.53 79.467
L213.872 79.2272
L214.213 79.3452
L214.555 79.043
L214.896 79.3286
L215.238 79.1913
L215.579 79.4
L215.921 78.9825
L216.262 79.2567
L216.945 79.1623
L217.628 79.5337
L217.97 79.3104
L218.311 79.4766
L218.653 79.123
L218.994 79.0974
L219.336 79.2356
L219.677 79.1781
L220.019 79.5673
L220.702 79.3472
L221.043 79.3996
L221.726 79.184
L222.068 79.1339
L223.092 79.5115
L223.434 79.2569
L223.775 79.5112
L224.117 79.3948
L224.458 79.1473
L224.8 79.2344
L225.141 79.1255
L225.483 79.2493
L225.824 79.1863
L226.166 79.5019
L226.507 79.1719
L226.849 79.4069
L227.19 79.2427
L227.532 79.4518
L227.873 79.2069
L228.215 79.427
L228.556 79.1955
L228.898 79.4312
L229.239 79.0936
L229.581 79.2116
L230.264 79.0869
L230.605 79.4852
L231.288 79.4384
L231.63 79.2217
L231.971 79.3261
L232.313 79.0818
L232.654 79.3429
L232.996 79.4211
L233.338 79.1901
L233.679 79.31
L234.362 79.2298
L234.704 79.5826
L235.045 79.3386
L235.728 79.136
L236.07 79.3725
L236.411 79.2312
L236.753 79.3738
L237.094 79.2662
L237.436 79.6366
L237.777 79.2284
L238.46 79.3289
L238.802 79.1109
L239.143 79.6749
L239.485 79.3703
L239.826 79.3922
L240.168 79.2385
L240.851 79.6462
L241.192 79.1334
L241.534 79.7485
L241.875 79.1198
L242.217 79.3139
L243.241 79.3671
L243.583 79.2503
L243.924 79.3806
L244.266 79.2604
L244.607 79.6656
L244.949 79.2882
L245.29 79.1724
L245.632 79.6997
L246.315 79.226
L246.656 79.2445
L246.998 79.7055
L247.681 79.2256
L248.022 79.3033
L248.364 79.2158
L248.705 79.2915
L249.388 79.6988
L249.73 79.2219
L250.071 79.3483
L250.413 79.6566
L250.754 79.655
L251.096 79.3061
L251.437 79.2347
L251.779 79.4784
L252.12 79.5702
L252.462 79.1805
L252.803 79.6779
L253.145 79.2958
L253.486 79.768
L253.828 79.6969
L254.169 79.3108
L254.511 79.3857
L254.852 79.2961
L255.194 79.6719
L255.535 79.3983
L255.877 79.6259
L256.218 79.6492
L256.56 79.3489
L256.901 79.3641
L257.243 79.201
L257.584 79.6626
L257.926 79.071
L258.267 79.6136
L258.609 79.1137
L259.292 79.5643
L259.633 79.5238
L259.975 79.7073
L260.316 79.4288
L260.999 79.4024
L261.341 79.7162
L262.024 79.5156
L262.366 79.9066
L262.707 79.3002
L263.049 79.6249
L263.39 79.3087
L263.732 79.4481
L264.073 79.7658
L264.415 79.4222
L264.756 79.5107
L265.098 79.3024
L265.439 79.8819
L265.781 79.4711
L266.122 79.5272
L266.464 79.2371
L267.147 79.814
L267.488 79.3776
L268.171 79.6977
L268.854 79.826
L269.196 79.7726
L269.879 79.1596
L270.22 79.8545
L270.562 79.7417
L270.903 79.2749
L271.245 79.7749
L271.586 79.3832
L271.928 79.8825
L272.269 79.3238
L272.952 79.7571
L273.294 79.4241
L273.977 79.417
L274.318 79.6008
L274.66 79.3271
L275.001 79.5727
L275.684 79.4538
L276.026 79.5055
L276.367 79.8842
L276.709 79.616
L277.05 79.5429
L277.392 79.8593
L277.733 79.5824
L278.075 79.9447
L278.416 79.844
L278.758 79.5149
L279.099 79.6563
L279.441 79.6064
L280.124 79.7278
L280.465 79.6246
L280.807 80.0161
L281.148 79.8408
L281.49 79.485
L281.831 79.4857
L282.173 79.9536
L282.514 79.6961
L282.856 79.8079
L283.197 79.7081
L283.88 79.834
L284.222 79.3535
L284.563 79.5217
L284.905 79.3839
L285.246 79.5431
L285.588 79.8803
L285.929 79.8204
L286.612 79.4505
L286.954 79.6214
L287.295 79.3832
L287.978 79.8143
L288.32 79.745
L288.661 79.8593
L289.003 79.34
L289.345 79.914
L289.686 79.5283
L290.028 79.8939
L290.369 79.6632
L290.711 79.9316
L291.052 79.6772
L291.394 79.8707
L292.077 79.4762
L292.418 79.912
L293.443 80.1076
L293.784 79.9147
L294.126 79.9625
L294.467 79.7749
L294.809 80.0359
L295.15 79.7161
L295.833 80.1182
L296.175 80.0012
L296.516 80.077
L296.858 79.7671
L297.199 80.1459
L297.541 79.7168
L297.882 79.7363
L298.224 79.9877
L298.565 79.8105
L298.907 79.9829
L299.248 79.8005
L299.59 79.9604
L300.273 79.8269
L300.614 79.5687
L300.956 79.8525
L301.297 79.9735
L303.346 79.9246
L303.688 80.107
L304.029 79.9127
L305.054 79.8404
L305.395 79.8712
L305.737 80.1521
L306.078 79.9169
L306.761 80.2014
L307.103 79.8684
L307.444 80.1338
L308.127 79.8821
L308.469 80.2082
L308.81 79.8784
L310.176 80.0207
L310.518 79.8208
L310.859 79.9025
L311.201 79.7847
L311.542 79.7885
L311.884 80.2783
L312.225 79.8698
L312.567 79.9721
L313.25 79.8404
L313.591 80.0827
L313.933 79.8526
L314.274 80.2103
L314.957 79.931
L315.299 79.7109
L315.64 80.2458
L315.982 80.1013
L316.323 79.8197
L316.665 80.0861
L317.006 79.9996
L317.348 80.1494
L317.69 80.0499
L318.031 80.2046
L318.714 80.1846
L319.056 80.4001
L319.397 79.9348
L319.739 80.2018
L322.129 79.9861
L322.471 80.1988
L322.812 79.965
L323.154 80.2699
L323.495 80.2469
L323.837 80.0506
L324.178 79.9858
L324.52 80.3566
L324.861 80.0793
L325.203 80.3003
L325.544 80.0155
L325.886 80.5063
L326.227 80.3979
L326.569 79.8722
L326.91 80.4287
L327.252 80.0137
L328.618 80.2051
L328.959 80.0762
L329.301 80.3624
L329.642 80.0884
L330.325 80.0839
L330.667 80.3973
L331.008 80.1233
L331.35 80.3429
L331.691 80.1633
L332.033 80.4243
L332.374 80.5093
L332.716 80.1646
L333.057 80.5035
L333.399 80.5772
L333.74 80.3906
L334.082 80.5881
L334.423 80.0486
L334.765 80.5187
L335.448 80.5634
L335.789 80.0891
L336.131 80.332
L336.472 80.0009
L336.814 79.9059
L337.497 80.1223
L337.838 80.4345
L338.18 80.0603
L338.521 80.3113
L339.204 80.1327
L339.546 80.1537
L339.887 80.3819
L340.229 80.2519
L340.57 80.3778
L341.595 80.293
L341.936 80.518
L342.278 80.5191
L342.619 80.3085
L342.961 80.2544
L343.302 80.6345
L343.644 80.7166
L343.985 80.2936
L344.668 80.6583
L345.01 80.448
L345.352 80.5343
L345.693 80.3765
L346.035 80.5187
L347.059 80.525
L347.401 80.7718
L347.742 80.768
L348.084 80.297
L348.425 80.4605
L348.767 80.3161
L349.108 80.5625
L349.45 80.3424
L350.133 80.8201
L351.157 80.3967
L351.499 80.7013
L351.84 80.4208
L352.182 80.9101
L352.865 80.3568
L354.231 80.8847
L354.572 80.5953
L354.914 80.9352
L355.255 80.5193
L355.597 80.8482
L355.938 80.9425
L356.28 80.89
L356.621 80.7223
L356.963 80.9959
L357.304 80.6772
L357.646 80.9741
L357.987 80.7099
L358.329 80.8941
L358.67 80.6437
L359.012 80.909
L360.036 80.6426
L360.378 81.1024
L360.719 81.0271
L361.402 80.6533
L361.744 80.6221
L362.085 80.9669
L362.768 80.6669
L363.451 80.7943
L363.793 80.6085
L364.134 80.6334
L364.817 81.0547
L365.5 80.95
L365.842 80.6753
L366.183 80.7804
L366.525 81.0074
L366.866 80.7405
L367.208 80.6611
L367.549 80.8226
L367.891 80.7129
L368.232 80.8838
L368.574 80.7305
L368.915 80.9291
L369.257 80.8989
L369.598 81.0806
L369.94 80.8351
L370.281 80.7965
L370.623 81.2305
L370.964 81.0996
L371.306 80.8285
L371.647 81.2163
L372.672 81.0073
L373.355 81.1875
L373.697 80.8285
L374.038 81.1939
L374.38 80.7443
L374.721 81.1014
L375.063 80.8313
L375.404 81.1343
L375.746 80.8862
L376.087 81.3128
L376.429 81.3117
L376.77 80.757
L377.112 81.0102
L377.453 80.7668
L378.478 81.3522
L378.819 80.9834
L379.161 81.0217
L379.502 81.2731
L379.844 80.845
L380.527 80.8719
L380.868 81.1464
L381.551 81.1425
L381.893 80.9074
L382.234 81.2943
L382.576 81.2816
L382.917 81.0519
L383.259 81.272
L383.942 80.9017
L384.625 81.1481
L385.308 80.9973
L386.332 80.9302
L386.674 81.1245
L387.015 81.0408
L387.698 81.3858
L388.04 81.3511
L388.381 81.0831
L388.723 81.1756
L389.064 81.1128
L389.406 81.3022
L390.089 81.0356
L390.772 81.4601
L391.113 81.3166
L391.455 81.4131
L391.796 80.933
L392.138 81.0507
L392.821 81.0063
L393.162 81.6281
L393.504 80.9495
L393.845 81.2643
L394.528 81.0658
L394.87 81.052
L395.211 81.1819
L395.553 81.5343
L395.894 80.9209
L396.236 81.3455
L396.577 81.0642
L396.919 81.1972
L397.602 81.0468
L397.943 81.5983
L398.285 81.5897
L398.626 81.3104
L398.968 81.4629
L399.309 81.1965
L399.651 81.3199
L399.992 81.0848
L400.334 81.7171
L400.675 81.5032
L401.017 81.7702
L401.358 81.0197
L401.7 81.3388
L402.383 81.241
L403.066 81.6528
L403.749 81.4218
L404.091 81.8019
L404.432 81.4973
L404.774 81.8617
L405.457 81.3368
L405.798 81.5634
L406.14 81.4129
L406.823 81.5105
L407.164 81.3722
L407.506 81.4787
L407.847 81.2505
L408.189 81.6551
L408.872 81.3422
L409.213 81.4598
L409.555 81.8836
L409.896 81.9611
L410.921 81.5466
L411.262 81.8339
L412.287 81.7589
L412.628 81.5068
L412.97 81.8553
L413.653 81.9542
L414.336 81.4621
L414.677 81.7819
L415.019 81.6674
L415.36 81.8291
L416.043 81.6932
L417.068 82.0348
L417.409 81.6497
L417.751 81.9996
L418.092 81.7061
L418.434 81.724
L418.775 82.0574
L419.8 81.7095
L420.141 81.7158
L420.483 82.009
L420.824 81.7609
L420.824 81.7609" style="fill:none;stroke:#008000;stroke-linecap:square;"/>
   </g>
   <g id="patch_4">
    <path d="
M52.3734 27.1119
L421.2 27.1119" style="fill:none;stroke:#000000;stroke-linecap:square;stroke-linejoin:miter;"/>
   </g>
   <g id="patch_5">
    <path d="
M421.2 250.2
L421.2 27.1119" style="fill:none;stroke:#000000;stroke-linecap:square;stroke-linejoin:miter;"/>
   </g>
   <g id="patch_6">
    <path d="
M52.3734 250.2
L421.2 250.2" style="fill:none;stroke:#000000;stroke-linecap:square;stroke-linejoin:miter;"/>
   </g>
   <g id="patch_7">
    <path d="
M52.3734 250.2
L52.3734 27.1119" style="fill:none;stroke:#000000;stroke-linecap:square;stroke-linejoin:miter;"/>
   </g>
   <g id="matplotlib.axis_1">
    <g id="xtick_1">
     <g id="line2d_3">
      <path clip-path="url(#p0cf8f7abe3)" d="
M52.3734 250.2
L52.3734 27.1119" style="fill:none;stroke:#cccccc;stroke-dasharray:1.000000,3.000000;stroke-dashoffset:0.0;stroke-width:0.5;"/>
     </g>
     <g id="line2d_4">
      <defs>
       <path d="
M0 0
L0 -4" id="m93b0483c22" style="stroke:#000000;stroke-width:0.5;"/>
      </defs>
      <g>
       <use style="stroke:#000000;stroke-width:0.5;" x="52.3734375089" xlink:href="#m93b0483c22" y="250.2"/>
      </g>
     </g>
     <g id="line2d_5">
      <defs>
       <path d="
M0 0
L0 4" id="m741efc42ff" style="stroke:#000000;stroke-width:0.5;"/>
      </defs>
      <g>
       <use style="stroke:#000000;stroke-width:0.5;" x="52.3734375089" xlink:href="#m741efc42ff" y="27.111875"/>
      </g>
     </g>
    </g>
    <g id="xtick_2">
     <g id="line2d_6">
      <path clip-path="url(#p0cf8f7abe3)" d="
M175.316 250.2
L175.316 27.1119" style="fill:none;stroke:#cccccc;stroke-dasharray:1.000000,3.000000;stroke-dashoffset:0.0;stroke-width:0.5;"/>
     </g>
     <g id="line2d_7">
      <g>
       <use style="stroke:#000000;stroke-width:0.5;" x="175.315625012" xlink:href="#m93b0483c22" y="250.2"/>
      </g>
     </g>
     <g id="line2d_8">
      <g>
       <use style="stroke:#000000;stroke-width:0.5;" x="175.315625012" xlink:href="#m741efc42ff" y="27.111875"/>
      </g>
     </g>
    </g>
    <g id="xtick_3">
     <g id="line2d_9">
      <path clip-path="url(#p0cf8f7abe3)" d="
M298.258 250.2
L298.258 27.1119" style="fill:none;stroke:#cccccc;stroke-dasharray:1.000000,3.000000;stroke-dashoffset:0.0;stroke-width:0.5;"/>
     </g>
     <g id="line2d_10">
      <g>
       <use style="stroke:#000000;stroke-width:0.5;" x="298.257812507" xlink:href="#m93b0483c22" y="250.2"/>
      </g>
     </g>
     <g id="line2d_11">
      <g>
       <use style="stroke:#000000;stroke-width:0.5;" x="298.257812507" xlink:href="#m741efc42ff" y="27.111875"/>
      </g>
     </g>
    </g>
    <g id="xtick_4">
     <g id="line2d_12">
      <path clip-path="url(#p0cf8f7abe3)" d="
M421.2 250.2
L421.2 27.1119" style="fill:none;stroke:#cccccc;stroke-dasharray:1.000000,3.000000;stroke-dashoffset:0.0;stroke-width:0.5;"/>
     </g>
     <g id="line2d_13">
      <g>
       <use style="stroke:#000000;stroke-width:0.5;" x="421.20000001" xlink:href="#m93b0483c22" y="250.2"/>
      </g>
     </g>
     <g id="line2d_14">
      <g>
       <use style="stroke:#000000;stroke-width:0.5;" x="421.20000001" xlink:href="#m741efc42ff" y="27.111875"/>
      </g>
     </g>
    </g>
    <g id="xtick_5">
     <g id="line2d_15">
      <defs>
       <path d="
M0 0
L0 -2" id="m177f7580d0" style="stroke:#000000;stroke-width:0.5;"/>
      </defs>
      <g>
       <use style="stroke:#000000;stroke-width:0.5;" x="61.5599509627" xlink:href="#m177f7580d0" y="250.2"/>
      </g>
     </g>
     <g id="line2d_16">
      <defs>
       <path d="
M0 0
L0 2" id="m5284c7e2a0" style="stroke:#000000;stroke-width:0.5;"/>
      </defs>
      <g>
       <use style="stroke:#000000;stroke-width:0.5;" x="61.5599509627" xlink:href="#m5284c7e2a0" y="27.111875"/>
      </g>
     </g>
     <g id="text_1">
      <!-- 06:30 -->
      <defs>
       <path d="
M40.5781 39.3125
Q47.6562 37.7969 51.625 33
Q55.6094 28.2188 55.6094 21.1875
Q55.6094 10.4062 48.1875 4.48438
Q40.7656 -1.42188 27.0938 -1.42188
Q22.5156 -1.42188 17.6562 -0.515625
Q12.7969 0.390625 7.625 2.20312
L7.625 11.7188
Q11.7188 9.32812 16.5938 8.10938
Q21.4844 6.89062 26.8125 6.89062
Q36.0781 6.89062 40.9375 10.5469
Q45.7969 14.2031 45.7969 21.1875
Q45.7969 27.6406 41.2812 31.2656
Q36.7656 34.9062 28.7188 34.9062
L20.2188 34.9062
L20.2188 43.0156
L29.1094 43.0156
Q36.375 43.0156 40.2344 45.9219
Q44.0938 48.8281 44.0938 54.2969
Q44.0938 59.9062 40.1094 62.9062
Q36.1406 65.9219 28.7188 65.9219
Q24.6562 65.9219 20.0156 65.0312
Q15.375 64.1562 9.8125 62.3125
L9.8125 71.0938
Q15.4375 72.6562 20.3438 73.4375
Q25.25 74.2188 29.5938 74.2188
Q40.8281 74.2188 47.3594 69.1094
Q53.9062 64.0156 53.9062 55.3281
Q53.9062 49.2656 50.4375 45.0938
Q46.9688 40.9219 40.5781 39.3125" id="BitstreamVeraSans-Roman-33"/>
       <path d="
M31.7812 66.4062
Q24.1719 66.4062 20.3281 58.9062
Q16.5 51.4219 16.5 36.375
Q16.5 21.3906 20.3281 13.8906
Q24.1719 6.39062 31.7812 6.39062
Q39.4531 6.39062 43.2812 13.8906
Q47.125 21.3906 47.125 36.375
Q47.125 51.4219 43.2812 58.9062
Q39.4531 66.4062 31.7812 66.4062
M31.7812 74.2188
Q44.0469 74.2188 50.5156 64.5156
Q56.9844 54.8281 56.9844 36.375
Q56.9844 17.9688 50.5156 8.26562
Q44.0469 -1.42188 31.7812 -1.42188
Q19.5312 -1.42188 13.0625 8.26562
Q6.59375 17.9688 6.59375 36.375
Q6.59375 54.8281 13.0625 64.5156
Q19.5312 74.2188 31.7812 74.2188" id="BitstreamVeraSans-Roman-30"/>
       <path d="
M11.7188 12.4062
L22.0156 12.4062
L22.0156 0
L11.7188 0
z

M11.7188 51.7031
L22.0156 51.7031
L22.0156 39.3125
L11.7188 39.3125
z
" id="BitstreamVeraSans-Roman-3a"/>
       <path d="
M33.0156 40.375
Q26.375 40.375 22.4844 35.8281
Q18.6094 31.2969 18.6094 23.3906
Q18.6094 15.5312 22.4844 10.9531
Q26.375 6.39062 33.0156 6.39062
Q39.6562 6.39062 43.5312 10.9531
Q47.4062 15.5312 47.4062 23.3906
Q47.4062 31.2969 43.5312 35.8281
Q39.6562 40.375 33.0156 40.375
M52.5938 71.2969
L52.5938 62.3125
Q48.875 64.0625 45.0938 64.9844
Q41.3125 65.9219 37.5938 65.9219
Q27.8281 65.9219 22.6719 59.3281
Q17.5312 52.7344 16.7969 39.4062
Q19.6719 43.6562 24.0156 45.9219
Q28.375 48.1875 33.5938 48.1875
Q44.5781 48.1875 50.9531 41.5156
Q57.3281 34.8594 57.3281 23.3906
Q57.3281 12.1562 50.6875 5.35938
Q44.0469 -1.42188 33.0156 -1.42188
Q20.3594 -1.42188 13.6719 8.26562
Q6.98438 17.9688 6.98438 36.375
Q6.98438 53.6562 15.1875 63.9375
Q23.3906 74.2188 37.2031 74.2188
Q40.9219 74.2188 44.7031 73.4844
Q48.4844 72.75 52.5938 71.2969" id="BitstreamVeraSans-Roman-36"/>
      </defs>
      <g transform="translate(47.8122947127 261.7984375)scale(0.1 -0.1)">
       <use xlink:href="#BitstreamVeraSans-Roman-30"/>
       <use x="63.623046875" xlink:href="#BitstreamVeraSans-Roman-36"/>
       <use x="127.24609375" xlink:href="#BitstreamVeraSans-Roman-3a"/>
       <use x="160.9375" xlink:href="#BitstreamVeraSans-Roman-33"/>
       <use x="224.560546875" xlink:href="#BitstreamVeraSans-Roman-30"/>
      </g>
     </g>
    </g>
    <g id="xtick_6">
     <g id="line2d_17">
      <g>
       <use style="stroke:#000000;stroke-width:0.5;" x="123.031044714" xlink:href="#m177f7580d0" y="250.2"/>
      </g>
     </g>
     <g id="line2d_18">
      <g>
       <use style="stroke:#000000;stroke-width:0.5;" x="123.031044714" xlink:href="#m5284c7e2a0" y="27.111875"/>
      </g>
     </g>
    </g>
    <g id="xtick_7">
     <g id="line2d_19">
      <g>
       <use style="stroke:#000000;stroke-width:0.5;" x="184.502138466" xlink:href="#m177f7580d0" y="250.2"/>
      </g>
     </g>
     <g id="line2d_20">
      <g>
       <use style="stroke:#000000;stroke-width:0.5;" x="184.502138466" xlink:href="#m5284c7e2a0" y="27.111875"/>
      </g>
     </g>
     <g id="text_2">
      <!-- 07:30 -->
      <defs>
       <path d="
M8.20312 72.9062
L55.0781 72.9062
L55.0781 68.7031
L28.6094 0
L18.3125 0
L43.2188 64.5938
L8.20312 64.5938
z
" id="BitstreamVeraSans-Roman-37"/>
      </defs>
      <g transform="translate(170.754482216 261.7984375)scale(0.1 -0.1)">
       <use xlink:href="#BitstreamVeraSans-Roman-30"/>
       <use x="63.623046875" xlink:href="#BitstreamVeraSans-Roman-37"/>
       <use x="127.24609375" xlink:href="#BitstreamVeraSans-Roman-3a"/>
       <use x="160.9375" xlink:href="#BitstreamVeraSans-Roman-33"/>
       <use x="224.560546875" xlink:href="#BitstreamVeraSans-Roman-30"/>
      </g>
     </g>
    </g>
    <g id="xtick_8">
     <g id="line2d_21">
      <g>
       <use style="stroke:#000000;stroke-width:0.5;" x="245.973232217" xlink:href="#m177f7580d0" y="250.2"/>
      </g>
     </g>
     <g id="line2d_22">
      <g>
       <use style="stroke:#000000;stroke-width:0.5;" x="245.973232217" xlink:href="#m5284c7e2a0" y="27.111875"/>
      </g>
     </g>
    </g>
    <g id="xtick_9">
     <g id="line2d_23">
      <g>
       <use style="stroke:#000000;stroke-width:0.5;" x="307.444325961" xlink:href="#m177f7580d0" y="250.2"/>
      </g>
     </g>
     <g id="line2d_24">
      <g>
       <use style="stroke:#000000;stroke-width:0.5;" x="307.444325961" xlink:href="#m5284c7e2a0" y="27.111875"/>
      </g>
     </g>
     <g id="text_3">
      <!-- 08:30 -->
      <defs>
       <path d="
M31.7812 34.625
Q24.75 34.625 20.7188 30.8594
Q16.7031 27.0938 16.7031 20.5156
Q16.7031 13.9219 20.7188 10.1562
Q24.75 6.39062 31.7812 6.39062
Q38.8125 6.39062 42.8594 10.1719
Q46.9219 13.9688 46.9219 20.5156
Q46.9219 27.0938 42.8906 30.8594
Q38.875 34.625 31.7812 34.625
M21.9219 38.8125
Q15.5781 40.375 12.0312 44.7188
Q8.5 49.0781 8.5 55.3281
Q8.5 64.0625 14.7188 69.1406
Q20.9531 74.2188 31.7812 74.2188
Q42.6719 74.2188 48.875 69.1406
Q55.0781 64.0625 55.0781 55.3281
Q55.0781 49.0781 51.5312 44.7188
Q48 40.375 41.7031 38.8125
Q48.8281 37.1562 52.7969 32.3125
Q56.7812 27.4844 56.7812 20.5156
Q56.7812 9.90625 50.3125 4.23438
Q43.8438 -1.42188 31.7812 -1.42188
Q19.7344 -1.42188 13.25 4.23438
Q6.78125 9.90625 6.78125 20.5156
Q6.78125 27.4844 10.7812 32.3125
Q14.7969 37.1562 21.9219 38.8125
M18.3125 54.3906
Q18.3125 48.7344 21.8438 45.5625
Q25.3906 42.3906 31.7812 42.3906
Q38.1406 42.3906 41.7188 45.5625
Q45.3125 48.7344 45.3125 54.3906
Q45.3125 60.0625 41.7188 63.2344
Q38.1406 66.4062 31.7812 66.4062
Q25.3906 66.4062 21.8438 63.2344
Q18.3125 60.0625 18.3125 54.3906" id="BitstreamVeraSans-Roman-38"/>
      </defs>
      <g transform="translate(293.696669711 261.7984375)scale(0.1 -0.1)">
       <use xlink:href="#BitstreamVeraSans-Roman-30"/>
       <use x="63.623046875" xlink:href="#BitstreamVeraSans-Roman-38"/>
       <use x="127.24609375" xlink:href="#BitstreamVeraSans-Roman-3a"/>
       <use x="160.9375" xlink:href="#BitstreamVeraSans-Roman-33"/>
       <use x="224.560546875" xlink:href="#BitstreamVeraSans-Roman-30"/>
      </g>
     </g>
    </g>
    <g id="xtick_10">
     <g id="line2d_25">
      <g>
       <use style="stroke:#000000;stroke-width:0.5;" x="368.915419713" xlink:href="#m177f7580d0" y="250.2"/>
      </g>
     </g>
     <g id="line2d_26">
      <g>
       <use style="stroke:#000000;stroke-width:0.5;" x="368.915419713" xlink:href="#m5284c7e2a0" y="27.111875"/>
      </g>
     </g>
    </g>
    <g id="text_4">
     <!-- Time -->
     <defs>
      <path d="
M56.2031 29.5938
L56.2031 25.2031
L14.8906 25.2031
Q15.4844 15.9219 20.4844 11.0625
Q25.4844 6.20312 34.4219 6.20312
Q39.5938 6.20312 44.4531 7.46875
Q49.3125 8.73438 54.1094 11.2812
L54.1094 2.78125
Q49.2656 0.734375 44.1875 -0.34375
Q39.1094 -1.42188 33.8906 -1.42188
Q20.7969 -1.42188 13.1562 6.1875
Q5.51562 13.8125 5.51562 26.8125
Q5.51562 40.2344 12.7656 48.1094
Q20.0156 56 32.3281 56
Q43.3594 56 49.7812 48.8906
Q56.2031 41.7969 56.2031 29.5938
M47.2188 32.2344
Q47.125 39.5938 43.0938 43.9844
Q39.0625 48.3906 32.4219 48.3906
Q24.9062 48.3906 20.3906 44.1406
Q15.875 39.8906 15.1875 32.1719
z
" id="BitstreamVeraSans-Roman-65"/>
      <path d="
M9.42188 54.6875
L18.4062 54.6875
L18.4062 0
L9.42188 0
z

M9.42188 75.9844
L18.4062 75.9844
L18.4062 64.5938
L9.42188 64.5938
z
" id="BitstreamVeraSans-Roman-69"/>
      <path d="
M-0.296875 72.9062
L61.375 72.9062
L61.375 64.5938
L35.5 64.5938
L35.5 0
L25.5938 0
L25.5938 64.5938
L-0.296875 64.5938
z
" id="BitstreamVeraSans-Roman-54"/>
      <path d="
M52 44.1875
Q55.375 50.25 60.0625 53.125
Q64.75 56 71.0938 56
Q79.6406 56 84.2812 50.0156
Q88.9219 44.0469 88.9219 33.0156
L88.9219 0
L79.8906 0
L79.8906 32.7188
Q79.8906 40.5781 77.0938 44.375
Q74.3125 48.1875 68.6094 48.1875
Q61.625 48.1875 57.5625 43.5469
Q53.5156 38.9219 53.5156 30.9062
L53.5156 0
L44.4844 0
L44.4844 32.7188
Q44.4844 40.625 41.7031 44.4062
Q38.9219 48.1875 33.1094 48.1875
Q26.2188 48.1875 22.1562 43.5312
Q18.1094 38.875 18.1094 30.9062
L18.1094 0
L9.07812 0
L9.07812 54.6875
L18.1094 54.6875
L18.1094 46.1875
Q21.1875 51.2188 25.4844 53.6094
Q29.7812 56 35.6875 56
Q41.6562 56 45.8281 52.9688
Q50 49.9531 52 44.1875" id="BitstreamVeraSans-Roman-6d"/>
     </defs>
     <g transform="translate(224.8046875 276.4765625)scale(0.1 -0.1)">
      <use xlink:href="#BitstreamVeraSans-Roman-54"/>
      <use x="57.958984375" xlink:href="#BitstreamVeraSans-Roman-69"/>
      <use x="85.7421875" xlink:href="#BitstreamVeraSans-Roman-6d"/>
      <use x="183.154296875" xlink:href="#BitstreamVeraSans-Roman-65"/>
     </g>
    </g>
   </g>
   <g id="matplotlib.axis_2">
    <g id="ytick_1">
     <g id="line2d_27">
      <path clip-path="url(#p0cf8f7abe3)" d="
M52.3734 233.039
L421.2 233.039" style="fill:none;stroke:#cccccc;stroke-dasharray:1.000000,3.000000;stroke-dashoffset:0.0;stroke-width:0.5;"/>
     </g>
     <g id="line2d_28">
      <defs>
       <path d="
M0 0
L4 0" id="m728421d6d4" style="stroke:#000000;stroke-width:0.5;"/>
      </defs>
      <g>
       <use style="stroke:#000000;stroke-width:0.5;" x="52.3734375" xlink:href="#m728421d6d4" y="233.039375"/>
      </g>
     </g>
     <g id="line2d_29">
      <defs>
       <path d="
M0 0
L-4 0" id="mcb0005524f" style="stroke:#000000;stroke-width:0.5;"/>
      </defs>
      <g>
       <use style="stroke:#000000;stroke-width:0.5;" x="421.2" xlink:href="#mcb0005524f" y="233.039375"/>
      </g>
     </g>
     <g id="text_5">
      <!-- −10 -->
      <defs>
       <path d="
M10.5938 35.5
L73.1875 35.5
L73.1875 27.2031
L10.5938 27.2031
z
" id="BitstreamVeraSans-Roman-2212"/>
       <path d="
M12.4062 8.29688
L28.5156 8.29688
L28.5156 63.9219
L10.9844 60.4062
L10.9844 69.3906
L28.4219 72.9062
L38.2812 72.9062
L38.2812 8.29688
L54.3906 8.29688
L54.3906 0
L12.4062 0
z
" id="BitstreamVeraSans-Roman-31"/>
      </defs>
      <g transform="translate(28.9921875 235.79875)scale(0.1 -0.1)">
       <use xlink:href="#BitstreamVeraSans-Roman-2212"/>
       <use x="83.7890625" xlink:href="#BitstreamVeraSans-Roman-31"/>
       <use x="147.412109375" xlink:href="#BitstreamVeraSans-Roman-30"/>
      </g>
     </g>
    </g>
    <g id="ytick_2">
     <g id="line2d_30">
      <path clip-path="url(#p0cf8f7abe3)" d="
M52.3734 198.718
L421.2 198.718" style="fill:none;stroke:#cccccc;stroke-dasharray:1.000000,3.000000;stroke-dashoffset:0.0;stroke-width:0.5;"/>
     </g>
     <g id="line2d_31">
      <g>
       <use style="stroke:#000000;stroke-width:0.5;" x="52.3734375" xlink:href="#m728421d6d4" y="198.718125"/>
      </g>
     </g>
     <g id="line2d_32">
      <g>
       <use style="stroke:#000000;stroke-width:0.5;" x="421.2" xlink:href="#mcb0005524f" y="198.718125"/>
      </g>
     </g>
     <g id="text_6">
      <!-- 0 -->
      <g transform="translate(43.334375 201.4775)scale(0.1 -0.1)">
       <use xlink:href="#BitstreamVeraSans-Roman-30"/>
      </g>
     </g>
    </g>
    <g id="ytick_3">
     <g id="line2d_33">
      <path clip-path="url(#p0cf8f7abe3)" d="
M52.3734 164.397
L421.2 164.397" style="fill:none;stroke:#cccccc;stroke-dasharray:1.000000,3.000000;stroke-dashoffset:0.0;stroke-width:0.5;"/>
     </g>
     <g id="line2d_34">
      <g>
       <use style="stroke:#000000;stroke-width:0.5;" x="52.3734375" xlink:href="#m728421d6d4" y="164.396875"/>
      </g>
     </g>
     <g id="line2d_35">
      <g>
       <use style="stroke:#000000;stroke-width:0.5;" x="421.2" xlink:href="#mcb0005524f" y="164.396875"/>
      </g>
     </g>
     <g id="text_7">
      <!-- 10 -->
      <g transform="translate(37.4109375 167.15625)scale(0.1 -0.1)">
       <use xlink:href="#BitstreamVeraSans-Roman-31"/>
       <use x="63.623046875" xlink:href="#BitstreamVeraSans-Roman-30"/>
      </g>
     </g>
    </g>
    <g id="ytick_4">
     <g id="line2d_36">
      <path clip-path="url(#p0cf8f7abe3)" d="
M52.3734 130.076
L421.2 130.076" style="fill:none;stroke:#cccccc;stroke-dasharray:1.000000,3.000000;stroke-dashoffset:0.0;stroke-width:0.5;"/>
     </g>
     <g id="line2d_37">
      <g>
       <use style="stroke:#000000;stroke-width:0.5;" x="52.3734375" xlink:href="#m728421d6d4" y="130.075625"/>
      </g>
     </g>
     <g id="line2d_38">
      <g>
       <use style="stroke:#000000;stroke-width:0.5;" x="421.2" xlink:href="#mcb0005524f" y="130.075625"/>
      </g>
     </g>
     <g id="text_8">
      <!-- 20 -->
      <defs>
       <path d="
M19.1875 8.29688
L53.6094 8.29688
L53.6094 0
L7.32812 0
L7.32812 8.29688
Q12.9375 14.1094 22.625 23.8906
Q32.3281 33.6875 34.8125 36.5312
Q39.5469 41.8438 41.4219 45.5312
Q43.3125 49.2188 43.3125 52.7812
Q43.3125 58.5938 39.2344 62.25
Q35.1562 65.9219 28.6094 65.9219
Q23.9688 65.9219 18.8125 64.3125
Q13.6719 62.7031 7.8125 59.4219
L7.8125 69.3906
Q13.7656 71.7812 18.9375 73
Q24.125 74.2188 28.4219 74.2188
Q39.75 74.2188 46.4844 68.5469
Q53.2188 62.8906 53.2188 53.4219
Q53.2188 48.9219 51.5312 44.8906
Q49.8594 40.875 45.4062 35.4062
Q44.1875 33.9844 37.6406 27.2188
Q31.1094 20.4531 19.1875 8.29688" id="BitstreamVeraSans-Roman-32"/>
      </defs>
      <g transform="translate(37.0453125 132.835)scale(0.1 -0.1)">
       <use xlink:href="#BitstreamVeraSans-Roman-32"/>
       <use x="63.623046875" xlink:href="#BitstreamVeraSans-Roman-30"/>
      </g>
     </g>
    </g>
    <g id="ytick_5">
     <g id="line2d_39">
      <path clip-path="url(#p0cf8f7abe3)" d="
M52.3734 95.7544
L421.2 95.7544" style="fill:none;stroke:#cccccc;stroke-dasharray:1.000000,3.000000;stroke-dashoffset:0.0;stroke-width:0.5;"/>
     </g>
     <g id="line2d_40">
      <g>
       <use style="stroke:#000000;stroke-width:0.5;" x="52.3734375" xlink:href="#m728421d6d4" y="95.754375"/>
      </g>
     </g>
     <g id="line2d_41">
      <g>
       <use style="stroke:#000000;stroke-width:0.5;" x="421.2" xlink:href="#mcb0005524f" y="95.754375"/>
      </g>
     </g>
     <g id="text_9">
      <!-- 30 -->
      <g transform="translate(37.075 98.51375)scale(0.1 -0.1)">
       <use xlink:href="#BitstreamVeraSans-Roman-33"/>
       <use x="63.623046875" xlink:href="#BitstreamVeraSans-Roman-30"/>
      </g>
     </g>
    </g>
    <g id="ytick_6">
     <g id="line2d_42">
      <path clip-path="url(#p0cf8f7abe3)" d="
M52.3734 61.4331
L421.2 61.4331" style="fill:none;stroke:#cccccc;stroke-dasharray:1.000000,3.000000;stroke-dashoffset:0.0;stroke-width:0.5;"/>
     </g>
     <g id="line2d_43">
      <g>
       <use style="stroke:#000000;stroke-width:0.5;" x="52.3734375" xlink:href="#m728421d6d4" y="61.433125"/>
      </g>
     </g>
     <g id="line2d_44">
      <g>
       <use style="stroke:#000000;stroke-width:0.5;" x="421.2" xlink:href="#mcb0005524f" y="61.433125"/>
      </g>
     </g>
     <g id="text_10">
      <!-- 40 -->
      <defs>
       <path d="
M37.7969 64.3125
L12.8906 25.3906
L37.7969 25.3906
z

M35.2031 72.9062
L47.6094 72.9062
L47.6094 25.3906
L58.0156 25.3906
L58.0156 17.1875
L47.6094 17.1875
L47.6094 0
L37.7969 0
L37.7969 17.1875
L4.89062 17.1875
L4.89062 26.7031
z
" id="BitstreamVeraSans-Roman-34"/>
      </defs>
      <g transform="translate(36.8015625 64.1925)scale(0.1 -0.1)">
       <use xlink:href="#BitstreamVeraSans-Roman-34"/>
       <use x="63.623046875" xlink:href="#BitstreamVeraSans-Roman-30"/>
      </g>
     </g>
    </g>
    <g id="ytick_7">
     <g id="line2d_45">
      <path clip-path="url(#p0cf8f7abe3)" d="
M52.3734 27.1119
L421.2 27.1119" style="fill:none;stroke:#cccccc;stroke-dasharray:1.000000,3.000000;stroke-dashoffset:0.0;stroke-width:0.5;"/>
     </g>
     <g id="line2d_46">
      <g>
       <use style="stroke:#000000;stroke-width:0.5;" x="52.3734375" xlink:href="#m728421d6d4" y="27.111875"/>
      </g>
     </g>
     <g id="line2d_47">
      <g>
       <use style="stroke:#000000;stroke-width:0.5;" x="421.2" xlink:href="#mcb0005524f" y="27.111875"/>
      </g>
     </g>
     <g id="text_11">
      <!-- 50 -->
      <defs>
       <path d="
M10.7969 72.9062
L49.5156 72.9062
L49.5156 64.5938
L19.8281 64.5938
L19.8281 46.7344
Q21.9688 47.4688 24.1094 47.8281
Q26.2656 48.1875 28.4219 48.1875
Q40.625 48.1875 47.75 41.5
Q54.8906 34.8125 54.8906 23.3906
Q54.8906 11.625 47.5625 5.09375
Q40.2344 -1.42188 26.9062 -1.42188
Q22.3125 -1.42188 17.5469 -0.640625
Q12.7969 0.140625 7.71875 1.70312
L7.71875 11.625
Q12.1094 9.23438 16.7969 8.0625
Q21.4844 6.89062 26.7031 6.89062
Q35.1562 6.89062 40.0781 11.3281
Q45.0156 15.7656 45.0156 23.3906
Q45.0156 31 40.0781 35.4375
Q35.1562 39.8906 26.7031 39.8906
Q22.75 39.8906 18.8125 39.0156
Q14.8906 38.1406 10.7969 36.2812
z
" id="BitstreamVeraSans-Roman-35"/>
      </defs>
      <g transform="translate(37.084375 29.87125)scale(0.1 -0.1)">
       <use xlink:href="#BitstreamVeraSans-Roman-35"/>
       <use x="63.623046875" xlink:href="#BitstreamVeraSans-Roman-30"/>
      </g>
     </g>
    </g>
    <g id="text_12">
     <!-- Temperature in $^\circ$C -->
     <defs>
      <path id="BitstreamVeraSans-Roman-20"/>
      <path d="
M25 5.60938
Q19.8281 5.60938 15.3594 8.21875
Q10.8906 10.8438 8.25 15.375
Q5.60938 19.9219 5.60938 25
Q5.60938 30.0781 8.25 34.6094
Q10.8906 39.1562 15.3594 41.7656
Q19.8281 44.3906 25 44.3906
Q30.1719 44.3906 34.6094 41.75
Q39.0625 39.1094 41.6719 34.5938
Q44.2812 30.0781 44.2812 25
Q44.2812 19.9219 41.6719 15.4062
Q39.0625 10.8906 34.6094 8.25
Q30.1719 5.60938 25 5.60938
M25 9.625
Q31.25 9.625 35.7656 14.1875
Q40.2812 18.75 40.2812 25
Q40.2812 29 38.2031 32.5938
Q36.1406 36.1875 32.625 38.2812
Q29.1094 40.375 25 40.375
Q21.9219 40.375 19.1406 39.1719
Q16.3594 37.9844 14.1562 35.7812
Q11.9688 33.5938 10.7969 30.8281
Q9.625 28.0781 9.625 25
Q9.625 18.75 14.1406 14.1875
Q18.6562 9.625 25 9.625" id="Cmsy10-b1"/>
      <path d="
M54.8906 33.0156
L54.8906 0
L45.9062 0
L45.9062 32.7188
Q45.9062 40.4844 42.875 44.3281
Q39.8438 48.1875 33.7969 48.1875
Q26.5156 48.1875 22.3125 43.5469
Q18.1094 38.9219 18.1094 30.9062
L18.1094 0
L9.07812 0
L9.07812 54.6875
L18.1094 54.6875
L18.1094 46.1875
Q21.3438 51.125 25.7031 53.5625
Q30.0781 56 35.7969 56
Q45.2188 56 50.0469 50.1719
Q54.8906 44.3438 54.8906 33.0156" id="BitstreamVeraSans-Roman-6e"/>
      <path d="
M41.1094 46.2969
Q39.5938 47.1719 37.8125 47.5781
Q36.0312 48 33.8906 48
Q26.2656 48 22.1875 43.0469
Q18.1094 38.0938 18.1094 28.8125
L18.1094 0
L9.07812 0
L9.07812 54.6875
L18.1094 54.6875
L18.1094 46.1875
Q20.9531 51.1719 25.4844 53.5781
Q30.0312 56 36.5312 56
Q37.4531 56 38.5781 55.875
Q39.7031 55.7656 41.0625 55.5156
z
" id="BitstreamVeraSans-Roman-72"/>
      <path d="
M64.4062 67.2812
L64.4062 56.8906
Q59.4219 61.5312 53.7812 63.8125
Q48.1406 66.1094 41.7969 66.1094
Q29.2969 66.1094 22.6562 58.4688
Q16.0156 50.8281 16.0156 36.375
Q16.0156 21.9688 22.6562 14.3281
Q29.2969 6.6875 41.7969 6.6875
Q48.1406 6.6875 53.7812 8.98438
Q59.4219 11.2812 64.4062 15.9219
L64.4062 5.60938
Q59.2344 2.09375 53.4375 0.328125
Q47.6562 -1.42188 41.2188 -1.42188
Q24.6562 -1.42188 15.125 8.70312
Q5.60938 18.8438 5.60938 36.375
Q5.60938 53.9531 15.125 64.0781
Q24.6562 74.2188 41.2188 74.2188
Q47.75 74.2188 53.5312 72.4844
Q59.3281 70.75 64.4062 67.2812" id="BitstreamVeraSans-Roman-43"/>
      <path d="
M18.3125 70.2188
L18.3125 54.6875
L36.8125 54.6875
L36.8125 47.7031
L18.3125 47.7031
L18.3125 18.0156
Q18.3125 11.3281 20.1406 9.42188
Q21.9688 7.51562 27.5938 7.51562
L36.8125 7.51562
L36.8125 0
L27.5938 0
Q17.1875 0 13.2344 3.875
Q9.28125 7.76562 9.28125 18.0156
L9.28125 47.7031
L2.6875 47.7031
L2.6875 54.6875
L9.28125 54.6875
L9.28125 70.2188
z
" id="BitstreamVeraSans-Roman-74"/>
      <path d="
M8.5 21.5781
L8.5 54.6875
L17.4844 54.6875
L17.4844 21.9219
Q17.4844 14.1562 20.5 10.2656
Q23.5312 6.39062 29.5938 6.39062
Q36.8594 6.39062 41.0781 11.0312
Q45.3125 15.6719 45.3125 23.6875
L45.3125 54.6875
L54.2969 54.6875
L54.2969 0
L45.3125 0
L45.3125 8.40625
Q42.0469 3.42188 37.7188 1
Q33.4062 -1.42188 27.6875 -1.42188
Q18.2656 -1.42188 13.375 4.4375
Q8.5 10.2969 8.5 21.5781" id="BitstreamVeraSans-Roman-75"/>
      <path d="
M34.2812 27.4844
Q23.3906 27.4844 19.1875 25
Q14.9844 22.5156 14.9844 16.5
Q14.9844 11.7188 18.1406 8.90625
Q21.2969 6.10938 26.7031 6.10938
Q34.1875 6.10938 38.7031 11.4062
Q43.2188 16.7031 43.2188 25.4844
L43.2188 27.4844
z

M52.2031 31.2031
L52.2031 0
L43.2188 0
L43.2188 8.29688
Q40.1406 3.32812 35.5469 0.953125
Q30.9531 -1.42188 24.3125 -1.42188
Q15.9219 -1.42188 10.9531 3.29688
Q6 8.01562 6 15.9219
Q6 25.1406 12.1719 29.8281
Q18.3594 34.5156 30.6094 34.5156
L43.2188 34.5156
L43.2188 35.4062
Q43.2188 41.6094 39.1406 45
Q35.0625 48.3906 27.6875 48.3906
Q23 48.3906 18.5469 47.2656
Q14.1094 46.1406 10.0156 43.8906
L10.0156 52.2031
Q14.9375 54.1094 19.5781 55.0469
Q24.2188 56 28.6094 56
Q40.4844 56 46.3438 49.8438
Q52.2031 43.7031 52.2031 31.2031" id="BitstreamVeraSans-Roman-61"/>
      <path d="
M18.1094 8.20312
L18.1094 -20.7969
L9.07812 -20.7969
L9.07812 54.6875
L18.1094 54.6875
L18.1094 46.3906
Q20.9531 51.2656 25.2656 53.625
Q29.5938 56 35.5938 56
Q45.5625 56 51.7812 48.0938
Q58.0156 40.1875 58.0156 27.2969
Q58.0156 14.4062 51.7812 6.48438
Q45.5625 -1.42188 35.5938 -1.42188
Q29.5938 -1.42188 25.2656 0.953125
Q20.9531 3.32812 18.1094 8.20312
M48.6875 27.2969
Q48.6875 37.2031 44.6094 42.8438
Q40.5312 48.4844 33.4062 48.4844
Q26.2656 48.4844 22.1875 42.8438
Q18.1094 37.2031 18.1094 27.2969
Q18.1094 17.3906 22.1875 11.75
Q26.2656 6.10938 33.4062 6.10938
Q40.5312 6.10938 44.6094 11.75
Q48.6875 17.3906 48.6875 27.2969" id="BitstreamVeraSans-Roman-70"/>
     </defs>
     <g transform="translate(21.8921875 185.9559375)rotate(-90.0)scale(0.1 -0.1)">
      <use transform="translate(0.0 0.015625)" xlink:href="#BitstreamVeraSans-Roman-54"/>
      <use transform="translate(61.083984375 0.015625)" xlink:href="#BitstreamVeraSans-Roman-65"/>
      <use transform="translate(122.607421875 0.015625)" xlink:href="#BitstreamVeraSans-Roman-6d"/>
      <use transform="translate(220.01953125 0.015625)" xlink:href="#BitstreamVeraSans-Roman-70"/>
      <use transform="translate(283.49609375 0.015625)" xlink:href="#BitstreamVeraSans-Roman-65"/>
      <use transform="translate(345.01953125 0.015625)" xlink:href="#BitstreamVeraSans-Roman-72"/>
      <use transform="translate(386.1328125 0.015625)" xlink:href="#BitstreamVeraSans-Roman-61"/>
      <use transform="translate(447.412109375 0.015625)" xlink:href="#BitstreamVeraSans-Roman-74"/>
      <use transform="translate(486.62109375 0.015625)" xlink:href="#BitstreamVeraSans-Roman-75"/>
      <use transform="translate(550.0 0.015625)" xlink:href="#BitstreamVeraSans-Roman-72"/>
      <use transform="translate(591.11328125 0.015625)" xlink:href="#BitstreamVeraSans-Roman-65"/>
      <use transform="translate(652.63671875 0.015625)" xlink:href="#BitstreamVeraSans-Roman-20"/>
      <use transform="translate(684.423828125 0.015625)" xlink:href="#BitstreamVeraSans-Roman-69"/>
      <use transform="translate(712.20703125 0.015625)" xlink:href="#BitstreamVeraSans-Roman-6e"/>
      <use transform="translate(775.5859375 0.015625)" xlink:href="#BitstreamVeraSans-Roman-20"/>
      <use transform="translate(819.6640625 42.53125)scale(0.7)" xlink:href="#Cmsy10-b1"/>
      <use transform="translate(876.031640625 0.015625)" xlink:href="#BitstreamVeraSans-Roman-43"/>
     </g>
    </g>
   </g>
   <g id="text_13">
    <!-- test 50, water 30/35$^\circ$C, 4h defr, 30pct, 15/01/2018 -->
    <defs>
     <path d="
M25.3906 72.9062
L33.6875 72.9062
L8.29688 -9.28125
L0 -9.28125
z
" id="BitstreamVeraSans-Roman-2f"/>
     <path d="
M11.7188 12.4062
L22.0156 12.4062
L22.0156 4
L14.0156 -11.625
L7.71875 -11.625
L11.7188 4
z
" id="BitstreamVeraSans-Roman-2c"/>
     <path d="
M54.8906 33.0156
L54.8906 0
L45.9062 0
L45.9062 32.7188
Q45.9062 40.4844 42.875 44.3281
Q39.8438 48.1875 33.7969 48.1875
Q26.5156 48.1875 22.3125 43.5469
Q18.1094 38.9219 18.1094 30.9062
L18.1094 0
L9.07812 0
L9.07812 75.9844
L18.1094 75.9844
L18.1094 46.1875
Q21.3438 51.125 25.7031 53.5625
Q30.0781 56 35.7969 56
Q45.2188 56 50.0469 50.1719
Q54.8906 44.3438 54.8906 33.0156" id="BitstreamVeraSans-Roman-68"/>
     <path d="
M45.4062 46.3906
L45.4062 75.9844
L54.3906 75.9844
L54.3906 0
L45.4062 0
L45.4062 8.20312
Q42.5781 3.32812 38.25 0.953125
Q33.9375 -1.42188 27.875 -1.42188
Q17.9688 -1.42188 11.7344 6.48438
Q5.51562 14.4062 5.51562 27.2969
Q5.51562 40.1875 11.7344 48.0938
Q17.9688 56 27.875 56
Q33.9375 56 38.25 53.625
Q42.5781 51.2656 45.4062 46.3906
M14.7969 27.2969
Q14.7969 17.3906 18.875 11.75
Q22.9531 6.10938 30.0781 6.10938
Q37.2031 6.10938 41.2969 11.75
Q45.4062 17.3906 45.4062 27.2969
Q45.4062 37.2031 41.2969 42.8438
Q37.2031 48.4844 30.0781 48.4844
Q22.9531 48.4844 18.875 42.8438
Q14.7969 37.2031 14.7969 27.2969" id="BitstreamVeraSans-Roman-64"/>
     <path d="
M4.20312 54.6875
L13.1875 54.6875
L24.4219 12.0156
L35.5938 54.6875
L46.1875 54.6875
L57.4219 12.0156
L68.6094 54.6875
L77.5938 54.6875
L63.2812 0
L52.6875 0
L40.9219 44.8281
L29.1094 0
L18.5 0
z
" id="BitstreamVeraSans-Roman-77"/>
     <path d="
M37.1094 75.9844
L37.1094 68.5
L28.5156 68.5
Q23.6875 68.5 21.7969 66.5469
Q19.9219 64.5938 19.9219 59.5156
L19.9219 54.6875
L34.7188 54.6875
L34.7188 47.7031
L19.9219 47.7031
L19.9219 0
L10.8906 0
L10.8906 47.7031
L2.29688 47.7031
L2.29688 54.6875
L10.8906 54.6875
L10.8906 58.5
Q10.8906 67.625 15.1406 71.7969
Q19.3906 75.9844 28.6094 75.9844
z
" id="BitstreamVeraSans-Roman-66"/>
     <path d="
M44.2812 53.0781
L44.2812 44.5781
Q40.4844 46.5312 36.375 47.5
Q32.2812 48.4844 27.875 48.4844
Q21.1875 48.4844 17.8438 46.4375
Q14.5 44.3906 14.5 40.2812
Q14.5 37.1562 16.8906 35.375
Q19.2812 33.5938 26.5156 31.9844
L29.5938 31.2969
Q39.1562 29.25 43.1875 25.5156
Q47.2188 21.7812 47.2188 15.0938
Q47.2188 7.46875 41.1875 3.01562
Q35.1562 -1.42188 24.6094 -1.42188
Q20.2188 -1.42188 15.4531 -0.5625
Q10.6875 0.296875 5.42188 2
L5.42188 11.2812
Q10.4062 8.6875 15.2344 7.39062
Q20.0625 6.10938 24.8125 6.10938
Q31.1562 6.10938 34.5625 8.28125
Q37.9844 10.4531 37.9844 14.4062
Q37.9844 18.0625 35.5156 20.0156
Q33.0625 21.9688 24.7031 23.7812
L21.5781 24.5156
Q13.2344 26.2656 9.51562 29.9062
Q5.8125 33.5469 5.8125 39.8906
Q5.8125 47.6094 11.2812 51.7969
Q16.75 56 26.8125 56
Q31.7812 56 36.1719 55.2656
Q40.5781 54.5469 44.2812 53.0781" id="BitstreamVeraSans-Roman-73"/>
     <path d="
M48.7812 52.5938
L48.7812 44.1875
Q44.9688 46.2969 41.1406 47.3438
Q37.3125 48.3906 33.4062 48.3906
Q24.6562 48.3906 19.8125 42.8438
Q14.9844 37.3125 14.9844 27.2969
Q14.9844 17.2812 19.8125 11.7344
Q24.6562 6.20312 33.4062 6.20312
Q37.3125 6.20312 41.1406 7.25
Q44.9688 8.29688 48.7812 10.4062
L48.7812 2.09375
Q45.0156 0.34375 40.9844 -0.53125
Q36.9688 -1.42188 32.4219 -1.42188
Q20.0625 -1.42188 12.7812 6.34375
Q5.51562 14.1094 5.51562 27.2969
Q5.51562 40.6719 12.8594 48.3281
Q20.2188 56 33.0156 56
Q37.1562 56 41.1094 55.1406
Q45.0625 54.2969 48.7812 52.5938" id="BitstreamVeraSans-Roman-63"/>
    </defs>
    <g transform="translate(82.76671875 22.111875)scale(0.12 -0.12)">
     <use transform="translate(0.0 0.015625)" xlink:href="#BitstreamVeraSans-Roman-74"/>
     <use transform="translate(39.208984375 0.015625)" xlink:href="#BitstreamVeraSans-Roman-65"/>
     <use transform="translate(100.732421875 0.015625)" xlink:href="#BitstreamVeraSans-Roman-73"/>
     <use transform="translate(152.83203125 0.015625)" xlink:href="#BitstreamVeraSans-Roman-74"/>
     <use transform="translate(192.041015625 0.015625)" xlink:href="#BitstreamVeraSans-Roman-20"/>
     <use transform="translate(223.828125 0.015625)" xlink:href="#BitstreamVeraSans-Roman-35"/>
     <use transform="translate(287.451171875 0.015625)" xlink:href="#BitstreamVeraSans-Roman-30"/>
     <use transform="translate(351.07421875 0.015625)" xlink:href="#BitstreamVeraSans-Roman-2c"/>
     <use transform="translate(382.861328125 0.015625)" xlink:href="#BitstreamVeraSans-Roman-20"/>
     <use transform="translate(414.6484375 0.015625)" xlink:href="#BitstreamVeraSans-Roman-77"/>
     <use transform="translate(496.435546875 0.015625)" xlink:href="#BitstreamVeraSans-Roman-61"/>
     <use transform="translate(557.71484375 0.015625)" xlink:href="#BitstreamVeraSans-Roman-74"/>
     <use transform="translate(596.923828125 0.015625)" xlink:href="#BitstreamVeraSans-Roman-65"/>
     <use transform="translate(658.447265625 0.015625)" xlink:href="#BitstreamVeraSans-Roman-72"/>
     <use transform="translate(699.560546875 0.015625)" xlink:href="#BitstreamVeraSans-Roman-20"/>
     <use transform="translate(731.34765625 0.015625)" xlink:href="#BitstreamVeraSans-Roman-33"/>
     <use transform="translate(794.970703125 0.015625)" xlink:href="#BitstreamVeraSans-Roman-30"/>
     <use transform="translate(858.59375 0.015625)" xlink:href="#BitstreamVeraSans-Roman-2f"/>
     <use transform="translate(892.28515625 0.015625)" xlink:href="#BitstreamVeraSans-Roman-33"/>
     <use transform="translate(955.908203125 0.015625)" xlink:href="#BitstreamVeraSans-Roman-35"/>
     <use transform="translate(1031.82226562 42.53125)scale(0.7)" xlink:href="#Cmsy10-b1"/>
     <use transform="translate(1088.18984375 0.015625)" xlink:href="#BitstreamVeraSans-Roman-43"/>
     <use transform="translate(1158.0140625 0.015625)" xlink:href="#BitstreamVeraSans-Roman-2c"/>
     <use transform="translate(1189.80117187 0.015625)" xlink:href="#BitstreamVeraSans-Roman-20"/>
     <use transform="translate(1221.58828125 0.015625)" xlink:href="#BitstreamVeraSans-Roman-34"/>
     <use transform="translate(1285.21132812 0.015625)" xlink:href="#BitstreamVeraSans-Roman-68"/>
     <use transform="translate(1348.59023437 0.015625)" xlink:href="#BitstreamVeraSans-Roman-20"/>
     <use transform="translate(1380.37734375 0.015625)" xlink:href="#BitstreamVeraSans-Roman-64"/>
     <use transform="translate(1443.85390625 0.015625)" xlink:href="#BitstreamVeraSans-Roman-65"/>
     <use transform="translate(1505.37734375 0.015625)" xlink:href="#BitstreamVeraSans-Roman-66"/>
     <use transform="translate(1540.58242187 0.015625)" xlink:href="#BitstreamVeraSans-Roman-72"/>
     <use transform="translate(1581.69570312 0.015625)" xlink:href="#BitstreamVeraSans-Roman-2c"/>
     <use transform="translate(1613.4828125 0.015625)" xlink:href="#BitstreamVeraSans-Roman-20"/>
     <use transform="translate(1645.26992187 0.015625)" xlink:href="#BitstreamVeraSans-Roman-33"/>
     <use transform="translate(1708.89296875 0.015625)" xlink:href="#BitstreamVeraSans-Roman-30"/>
     <use transform="translate(1772.51601562 0.015625)" xlink:href="#BitstreamVeraSans-Roman-70"/>
     <use transform="translate(1835.99257812 0.015625)" xlink:href="#BitstreamVeraSans-Roman-63"/>
     <use transform="translate(1890.97304687 0.015625)" xlink:href="#BitstreamVeraSans-Roman-74"/>
     <use transform="translate(1930.18203125 0.015625)" xlink:href="#BitstreamVeraSans-Roman-2c"/>
     <use transform="translate(1961.96914062 0.015625)" xlink:href="#BitstreamVeraSans-Roman-20"/>
     <use transform="translate(1993.75625 0.015625)" xlink:href="#BitstreamVeraSans-Roman-31"/>
     <use transform="translate(2057.37929687 0.015625)" xlink:href="#BitstreamVeraSans-Roman-35"/>
     <use transform="translate(2121.00234375 0.015625)" xlink:href="#BitstreamVeraSans-Roman-2f"/>
     <use transform="translate(2154.69375 0.015625)" xlink:href="#BitstreamVeraSans-Roman-30"/>
     <use transform="translate(2218.31679687 0.015625)" xlink:href="#BitstreamVeraSans-Roman-31"/>
     <use transform="translate(2281.93984375 0.015625)" xlink:href="#BitstreamVeraSans-Roman-2f"/>
     <use transform="translate(2312.00625 0.015625)" xlink:href="#BitstreamVeraSans-Roman-32"/>
     <use transform="translate(2375.62929687 0.015625)" xlink:href="#BitstreamVeraSans-Roman-30"/>
     <use transform="translate(2439.25234375 0.015625)" xlink:href="#BitstreamVeraSans-Roman-31"/>
     <use transform="translate(2502.87539062 0.015625)" xlink:href="#BitstreamVeraSans-Roman-38"/>
    </g>
   </g>
   <g id="legend_1">
    <g id="patch_8">
     <path d="
M447.33 151.598
L491.751 151.598
L491.751 125.713
L447.33 125.713
z
" style="fill:#ffffff;stroke:#000000;stroke-linejoin:miter;"/>
    </g>
    <g id="line2d_48">
     <path d="
M452.93 132.192" style="fill:none;stroke:#0000ff;stroke-linecap:square;"/>
    </g>
    <g id="line2d_49"/>
    <g id="text_14">
     <!-- SST -->
     <defs>
      <path d="
M53.5156 70.5156
L53.5156 60.8906
Q47.9062 63.5781 42.9219 64.8906
Q37.9375 66.2188 33.2969 66.2188
Q25.25 66.2188 20.875 63.0938
Q16.5 59.9688 16.5 54.2031
Q16.5 49.3594 19.4062 46.8906
Q22.3125 44.4375 30.4219 42.9219
L36.375 41.7031
Q47.4062 39.5938 52.6562 34.2969
Q57.9062 29 57.9062 20.125
Q57.9062 9.51562 50.7969 4.04688
Q43.7031 -1.42188 29.9844 -1.42188
Q24.8125 -1.42188 18.9688 -0.25
Q13.1406 0.921875 6.89062 3.21875
L6.89062 13.375
Q12.8906 10.0156 18.6562 8.29688
Q24.4219 6.59375 29.9844 6.59375
Q38.4219 6.59375 43.0156 9.90625
Q47.6094 13.2344 47.6094 19.3906
Q47.6094 24.75 44.3125 27.7812
Q41.0156 30.8125 33.5 32.3281
L27.4844 33.5
Q16.4531 35.6875 11.5156 40.375
Q6.59375 45.0625 6.59375 53.4219
Q6.59375 63.0938 13.4062 68.6562
Q20.2188 74.2188 32.1719 74.2188
Q37.3125 74.2188 42.625 73.2812
Q47.9531 72.3594 53.5156 70.5156" id="BitstreamVeraSans-Roman-53"/>
     </defs>
     <g transform="translate(472.92959375 134.9921875)scale(0.08 -0.08)">
      <use xlink:href="#BitstreamVeraSans-Roman-53"/>
      <use x="63.4765625" xlink:href="#BitstreamVeraSans-Roman-53"/>
      <use x="126.953125" xlink:href="#BitstreamVeraSans-Roman-54"/>
     </g>
    </g>
    <g id="line2d_50">
     <path d="
M452.93 143.935" style="fill:none;stroke:#008000;stroke-linecap:square;"/>
    </g>
    <g id="line2d_51"/>
    <g id="text_15">
     <!-- SDT -->
     <defs>
      <path d="
M19.6719 64.7969
L19.6719 8.10938
L31.5938 8.10938
Q46.6875 8.10938 53.6875 14.9375
Q60.6875 21.7812 60.6875 36.5312
Q60.6875 51.1719 53.6875 57.9844
Q46.6875 64.7969 31.5938 64.7969
z

M9.8125 72.9062
L30.0781 72.9062
Q51.2656 72.9062 61.1719 64.0938
Q71.0938 55.2812 71.0938 36.5312
Q71.0938 17.6719 61.125 8.82812
Q51.1719 0 30.0781 0
L9.8125 0
z
" id="BitstreamVeraSans-Roman-44"/>
     </defs>
     <g transform="translate(472.92959375 146.7346875)scale(0.08 -0.08)">
      <use xlink:href="#BitstreamVeraSans-Roman-53"/>
      <use x="63.4765625" xlink:href="#BitstreamVeraSans-Roman-44"/>
      <use x="140.478515625" xlink:href="#BitstreamVeraSans-Roman-54"/>
     </g>
    </g>
   </g>
  </g>
 </g>
 <defs>
  <clipPath id="p0cf8f7abe3">
   <rect height="223.088125" width="368.8265625" x="52.3734375" y="27.111875"/>
  </clipPath>
 </defs>
</svg>
