<?xml version="1.0" encoding="utf-8" standalone="no"?>
<!DOCTYPE svg PUBLIC "-//W3C//DTD SVG 1.1//EN"
  "http://www.w3.org/Graphics/SVG/1.1/DTD/svg11.dtd">
<!-- Created with matplotlib (http://matplotlib.org/) -->
<svg height="288pt" version="1.1" viewBox="0 0 432 288" width="432pt" xmlns="http://www.w3.org/2000/svg" xmlns:xlink="http://www.w3.org/1999/xlink">
 <defs>
  <style type="text/css">
*{stroke-linecap:butt;stroke-linejoin:round;}
  </style>
 </defs>
 <g id="figure_1">
  <g id="patch_1">
   <path d="
M0 288
L432 288
L432 0
L0 0
z
" style="fill:#ffffff;"/>
  </g>
  <g id="axes_1">
   <g id="patch_2">
    <path d="
M40.3875 250.2
L421.2 250.2
L421.2 27.1119
L40.3875 27.1119
z
" style="fill:#ffffff;"/>
   </g>
   <g id="patch_3">
    <path clip-path="url(#pef8030b3c2)" d="
M40.3875 250.2
L40.3875 250.2
L421.2 250.2
L421.2 250.2
z
" style="fill:#808080;opacity:0.2;stroke:#808080;stroke-linejoin:miter;"/>
   </g>
   <g id="line2d_1">
    <path clip-path="url(#pef8030b3c2)" d="
M0 0" style="fill:none;stroke:#0000ff;stroke-linecap:square;"/>
   </g>
   <g id="patch_4">
    <path d="
M40.3875 27.1119
L421.2 27.1119" style="fill:none;stroke:#000000;stroke-linecap:square;stroke-linejoin:miter;"/>
   </g>
   <g id="patch_5">
    <path d="
M421.2 250.2
L421.2 27.1119" style="fill:none;stroke:#000000;stroke-linecap:square;stroke-linejoin:miter;"/>
   </g>
   <g id="patch_6">
    <path d="
M40.3875 250.2
L421.2 250.2" style="fill:none;stroke:#000000;stroke-linecap:square;stroke-linejoin:miter;"/>
   </g>
   <g id="patch_7">
    <path d="
M40.3875 250.2
L40.3875 27.1119" style="fill:none;stroke:#000000;stroke-linecap:square;stroke-linejoin:miter;"/>
   </g>
   <g id="matplotlib.axis_1">
    <g id="xtick_1">
     <g id="line2d_2">
      <path clip-path="url(#pef8030b3c2)" d="
M40.3875 250.2
L40.3875 27.1119" style="fill:none;stroke:#cccccc;stroke-dasharray:1.000000,3.000000;stroke-dashoffset:0.0;stroke-width:0.5;"/>
     </g>
     <g id="line2d_3">
      <defs>
       <path d="
M0 0
L0 -4" id="m93b0483c22" style="stroke:#000000;stroke-width:0.5;"/>
      </defs>
      <g>
       <use style="stroke:#000000;stroke-width:0.5;" x="40.3874999955" xlink:href="#m93b0483c22" y="250.2"/>
      </g>
     </g>
     <g id="line2d_4">
      <defs>
       <path d="
M0 0
L0 4" id="m741efc42ff" style="stroke:#000000;stroke-width:0.5;"/>
      </defs>
      <g>
       <use style="stroke:#000000;stroke-width:0.5;" x="40.3874999955" xlink:href="#m741efc42ff" y="27.111875"/>
      </g>
     </g>
    </g>
    <g id="xtick_2">
     <g id="line2d_5">
      <path clip-path="url(#pef8030b3c2)" d="
M167.325 250.2
L167.325 27.1119" style="fill:none;stroke:#cccccc;stroke-dasharray:1.000000,3.000000;stroke-dashoffset:0.0;stroke-width:0.5;"/>
     </g>
     <g id="line2d_6">
      <g>
       <use style="stroke:#000000;stroke-width:0.5;" x="167.324999996" xlink:href="#m93b0483c22" y="250.2"/>
      </g>
     </g>
     <g id="line2d_7">
      <g>
       <use style="stroke:#000000;stroke-width:0.5;" x="167.324999996" xlink:href="#m741efc42ff" y="27.111875"/>
      </g>
     </g>
    </g>
    <g id="xtick_3">
     <g id="line2d_8">
      <path clip-path="url(#pef8030b3c2)" d="
M294.262 250.2
L294.262 27.1119" style="fill:none;stroke:#cccccc;stroke-dasharray:1.000000,3.000000;stroke-dashoffset:0.0;stroke-width:0.5;"/>
     </g>
     <g id="line2d_9">
      <g>
       <use style="stroke:#000000;stroke-width:0.5;" x="294.262499996" xlink:href="#m93b0483c22" y="250.2"/>
      </g>
     </g>
     <g id="line2d_10">
      <g>
       <use style="stroke:#000000;stroke-width:0.5;" x="294.262499996" xlink:href="#m741efc42ff" y="27.111875"/>
      </g>
     </g>
    </g>
    <g id="xtick_4">
     <g id="line2d_11">
      <path clip-path="url(#pef8030b3c2)" d="
M421.2 250.2
L421.2 27.1119" style="fill:none;stroke:#cccccc;stroke-dasharray:1.000000,3.000000;stroke-dashoffset:0.0;stroke-width:0.5;"/>
     </g>
     <g id="line2d_12">
      <g>
       <use style="stroke:#000000;stroke-width:0.5;" x="421.199999996" xlink:href="#m93b0483c22" y="250.2"/>
      </g>
     </g>
     <g id="line2d_13">
      <g>
       <use style="stroke:#000000;stroke-width:0.5;" x="421.199999996" xlink:href="#m741efc42ff" y="27.111875"/>
      </g>
     </g>
    </g>
    <g id="xtick_5">
     <g id="line2d_14">
      <defs>
       <path d="
M0 0
L0 -2" id="m177f7580d0" style="stroke:#000000;stroke-width:0.5;"/>
      </defs>
      <g>
       <use style="stroke:#000000;stroke-width:0.5;" x="49.8725520819" xlink:href="#m177f7580d0" y="250.2"/>
      </g>
     </g>
     <g id="line2d_15">
      <defs>
       <path d="
M0 0
L0 2" id="m5284c7e2a0" style="stroke:#000000;stroke-width:0.5;"/>
      </defs>
      <g>
       <use style="stroke:#000000;stroke-width:0.5;" x="49.8725520819" xlink:href="#m5284c7e2a0" y="27.111875"/>
      </g>
     </g>
     <g id="text_1">
      <!-- 06:30 -->
      <defs>
       <path d="
M40.5781 39.3125
Q47.6562 37.7969 51.625 33
Q55.6094 28.2188 55.6094 21.1875
Q55.6094 10.4062 48.1875 4.48438
Q40.7656 -1.42188 27.0938 -1.42188
Q22.5156 -1.42188 17.6562 -0.515625
Q12.7969 0.390625 7.625 2.20312
L7.625 11.7188
Q11.7188 9.32812 16.5938 8.10938
Q21.4844 6.89062 26.8125 6.89062
Q36.0781 6.89062 40.9375 10.5469
Q45.7969 14.2031 45.7969 21.1875
Q45.7969 27.6406 41.2812 31.2656
Q36.7656 34.9062 28.7188 34.9062
L20.2188 34.9062
L20.2188 43.0156
L29.1094 43.0156
Q36.375 43.0156 40.2344 45.9219
Q44.0938 48.8281 44.0938 54.2969
Q44.0938 59.9062 40.1094 62.9062
Q36.1406 65.9219 28.7188 65.9219
Q24.6562 65.9219 20.0156 65.0312
Q15.375 64.1562 9.8125 62.3125
L9.8125 71.0938
Q15.4375 72.6562 20.3438 73.4375
Q25.25 74.2188 29.5938 74.2188
Q40.8281 74.2188 47.3594 69.1094
Q53.9062 64.0156 53.9062 55.3281
Q53.9062 49.2656 50.4375 45.0938
Q46.9688 40.9219 40.5781 39.3125" id="BitstreamVeraSans-Roman-33"/>
       <path d="
M31.7812 66.4062
Q24.1719 66.4062 20.3281 58.9062
Q16.5 51.4219 16.5 36.375
Q16.5 21.3906 20.3281 13.8906
Q24.1719 6.39062 31.7812 6.39062
Q39.4531 6.39062 43.2812 13.8906
Q47.125 21.3906 47.125 36.375
Q47.125 51.4219 43.2812 58.9062
Q39.4531 66.4062 31.7812 66.4062
M31.7812 74.2188
Q44.0469 74.2188 50.5156 64.5156
Q56.9844 54.8281 56.9844 36.375
Q56.9844 17.9688 50.5156 8.26562
Q44.0469 -1.42188 31.7812 -1.42188
Q19.5312 -1.42188 13.0625 8.26562
Q6.59375 17.9688 6.59375 36.375
Q6.59375 54.8281 13.0625 64.5156
Q19.5312 74.2188 31.7812 74.2188" id="BitstreamVeraSans-Roman-30"/>
       <path d="
M11.7188 12.4062
L22.0156 12.4062
L22.0156 0
L11.7188 0
z

M11.7188 51.7031
L22.0156 51.7031
L22.0156 39.3125
L11.7188 39.3125
z
" id="BitstreamVeraSans-Roman-3a"/>
       <path d="
M33.0156 40.375
Q26.375 40.375 22.4844 35.8281
Q18.6094 31.2969 18.6094 23.3906
Q18.6094 15.5312 22.4844 10.9531
Q26.375 6.39062 33.0156 6.39062
Q39.6562 6.39062 43.5312 10.9531
Q47.4062 15.5312 47.4062 23.3906
Q47.4062 31.2969 43.5312 35.8281
Q39.6562 40.375 33.0156 40.375
M52.5938 71.2969
L52.5938 62.3125
Q48.875 64.0625 45.0938 64.9844
Q41.3125 65.9219 37.5938 65.9219
Q27.8281 65.9219 22.6719 59.3281
Q17.5312 52.7344 16.7969 39.4062
Q19.6719 43.6562 24.0156 45.9219
Q28.375 48.1875 33.5938 48.1875
Q44.5781 48.1875 50.9531 41.5156
Q57.3281 34.8594 57.3281 23.3906
Q57.3281 12.1562 50.6875 5.35938
Q44.0469 -1.42188 33.0156 -1.42188
Q20.3594 -1.42188 13.6719 8.26562
Q6.98438 17.9688 6.98438 36.375
Q6.98438 53.6562 15.1875 63.9375
Q23.3906 74.2188 37.2031 74.2188
Q40.9219 74.2188 44.7031 73.4844
Q48.4844 72.75 52.5938 71.2969" id="BitstreamVeraSans-Roman-36"/>
      </defs>
      <g transform="translate(36.1248958319 261.7984375)scale(0.1 -0.1)">
       <use xlink:href="#BitstreamVeraSans-Roman-30"/>
       <use x="63.623046875" xlink:href="#BitstreamVeraSans-Roman-36"/>
       <use x="127.24609375" xlink:href="#BitstreamVeraSans-Roman-3a"/>
       <use x="160.9375" xlink:href="#BitstreamVeraSans-Roman-33"/>
       <use x="224.560546875" xlink:href="#BitstreamVeraSans-Roman-30"/>
      </g>
     </g>
    </g>
    <g id="xtick_6">
     <g id="line2d_16">
      <g>
       <use style="stroke:#000000;stroke-width:0.5;" x="113.341302082" xlink:href="#m177f7580d0" y="250.2"/>
      </g>
     </g>
     <g id="line2d_17">
      <g>
       <use style="stroke:#000000;stroke-width:0.5;" x="113.341302082" xlink:href="#m5284c7e2a0" y="27.111875"/>
      </g>
     </g>
    </g>
    <g id="xtick_7">
     <g id="line2d_18">
      <g>
       <use style="stroke:#000000;stroke-width:0.5;" x="176.810052082" xlink:href="#m177f7580d0" y="250.2"/>
      </g>
     </g>
     <g id="line2d_19">
      <g>
       <use style="stroke:#000000;stroke-width:0.5;" x="176.810052082" xlink:href="#m5284c7e2a0" y="27.111875"/>
      </g>
     </g>
     <g id="text_2">
      <!-- 07:30 -->
      <defs>
       <path d="
M8.20312 72.9062
L55.0781 72.9062
L55.0781 68.7031
L28.6094 0
L18.3125 0
L43.2188 64.5938
L8.20312 64.5938
z
" id="BitstreamVeraSans-Roman-37"/>
      </defs>
      <g transform="translate(163.062395832 261.7984375)scale(0.1 -0.1)">
       <use xlink:href="#BitstreamVeraSans-Roman-30"/>
       <use x="63.623046875" xlink:href="#BitstreamVeraSans-Roman-37"/>
       <use x="127.24609375" xlink:href="#BitstreamVeraSans-Roman-3a"/>
       <use x="160.9375" xlink:href="#BitstreamVeraSans-Roman-33"/>
       <use x="224.560546875" xlink:href="#BitstreamVeraSans-Roman-30"/>
      </g>
     </g>
    </g>
    <g id="xtick_8">
     <g id="line2d_20">
      <g>
       <use style="stroke:#000000;stroke-width:0.5;" x="240.278802082" xlink:href="#m177f7580d0" y="250.2"/>
      </g>
     </g>
     <g id="line2d_21">
      <g>
       <use style="stroke:#000000;stroke-width:0.5;" x="240.278802082" xlink:href="#m5284c7e2a0" y="27.111875"/>
      </g>
     </g>
    </g>
    <g id="xtick_9">
     <g id="line2d_22">
      <g>
       <use style="stroke:#000000;stroke-width:0.5;" x="303.747552082" xlink:href="#m177f7580d0" y="250.2"/>
      </g>
     </g>
     <g id="line2d_23">
      <g>
       <use style="stroke:#000000;stroke-width:0.5;" x="303.747552082" xlink:href="#m5284c7e2a0" y="27.111875"/>
      </g>
     </g>
     <g id="text_3">
      <!-- 08:30 -->
      <defs>
       <path d="
M31.7812 34.625
Q24.75 34.625 20.7188 30.8594
Q16.7031 27.0938 16.7031 20.5156
Q16.7031 13.9219 20.7188 10.1562
Q24.75 6.39062 31.7812 6.39062
Q38.8125 6.39062 42.8594 10.1719
Q46.9219 13.9688 46.9219 20.5156
Q46.9219 27.0938 42.8906 30.8594
Q38.875 34.625 31.7812 34.625
M21.9219 38.8125
Q15.5781 40.375 12.0312 44.7188
Q8.5 49.0781 8.5 55.3281
Q8.5 64.0625 14.7188 69.1406
Q20.9531 74.2188 31.7812 74.2188
Q42.6719 74.2188 48.875 69.1406
Q55.0781 64.0625 55.0781 55.3281
Q55.0781 49.0781 51.5312 44.7188
Q48 40.375 41.7031 38.8125
Q48.8281 37.1562 52.7969 32.3125
Q56.7812 27.4844 56.7812 20.5156
Q56.7812 9.90625 50.3125 4.23438
Q43.8438 -1.42188 31.7812 -1.42188
Q19.7344 -1.42188 13.25 4.23438
Q6.78125 9.90625 6.78125 20.5156
Q6.78125 27.4844 10.7812 32.3125
Q14.7969 37.1562 21.9219 38.8125
M18.3125 54.3906
Q18.3125 48.7344 21.8438 45.5625
Q25.3906 42.3906 31.7812 42.3906
Q38.1406 42.3906 41.7188 45.5625
Q45.3125 48.7344 45.3125 54.3906
Q45.3125 60.0625 41.7188 63.2344
Q38.1406 66.4062 31.7812 66.4062
Q25.3906 66.4062 21.8438 63.2344
Q18.3125 60.0625 18.3125 54.3906" id="BitstreamVeraSans-Roman-38"/>
      </defs>
      <g transform="translate(289.999895832 261.7984375)scale(0.1 -0.1)">
       <use xlink:href="#BitstreamVeraSans-Roman-30"/>
       <use x="63.623046875" xlink:href="#BitstreamVeraSans-Roman-38"/>
       <use x="127.24609375" xlink:href="#BitstreamVeraSans-Roman-3a"/>
       <use x="160.9375" xlink:href="#BitstreamVeraSans-Roman-33"/>
       <use x="224.560546875" xlink:href="#BitstreamVeraSans-Roman-30"/>
      </g>
     </g>
    </g>
    <g id="xtick_10">
     <g id="line2d_24">
      <g>
       <use style="stroke:#000000;stroke-width:0.5;" x="367.216302082" xlink:href="#m177f7580d0" y="250.2"/>
      </g>
     </g>
     <g id="line2d_25">
      <g>
       <use style="stroke:#000000;stroke-width:0.5;" x="367.216302082" xlink:href="#m5284c7e2a0" y="27.111875"/>
      </g>
     </g>
    </g>
    <g id="text_4">
     <!-- Time -->
     <defs>
      <path d="
M56.2031 29.5938
L56.2031 25.2031
L14.8906 25.2031
Q15.4844 15.9219 20.4844 11.0625
Q25.4844 6.20312 34.4219 6.20312
Q39.5938 6.20312 44.4531 7.46875
Q49.3125 8.73438 54.1094 11.2812
L54.1094 2.78125
Q49.2656 0.734375 44.1875 -0.34375
Q39.1094 -1.42188 33.8906 -1.42188
Q20.7969 -1.42188 13.1562 6.1875
Q5.51562 13.8125 5.51562 26.8125
Q5.51562 40.2344 12.7656 48.1094
Q20.0156 56 32.3281 56
Q43.3594 56 49.7812 48.8906
Q56.2031 41.7969 56.2031 29.5938
M47.2188 32.2344
Q47.125 39.5938 43.0938 43.9844
Q39.0625 48.3906 32.4219 48.3906
Q24.9062 48.3906 20.3906 44.1406
Q15.875 39.8906 15.1875 32.1719
z
" id="BitstreamVeraSans-Roman-65"/>
      <path d="
M9.42188 54.6875
L18.4062 54.6875
L18.4062 0
L9.42188 0
z

M9.42188 75.9844
L18.4062 75.9844
L18.4062 64.5938
L9.42188 64.5938
z
" id="BitstreamVeraSans-Roman-69"/>
      <path d="
M-0.296875 72.9062
L61.375 72.9062
L61.375 64.5938
L35.5 64.5938
L35.5 0
L25.5938 0
L25.5938 64.5938
L-0.296875 64.5938
z
" id="BitstreamVeraSans-Roman-54"/>
      <path d="
M52 44.1875
Q55.375 50.25 60.0625 53.125
Q64.75 56 71.0938 56
Q79.6406 56 84.2812 50.0156
Q88.9219 44.0469 88.9219 33.0156
L88.9219 0
L79.8906 0
L79.8906 32.7188
Q79.8906 40.5781 77.0938 44.375
Q74.3125 48.1875 68.6094 48.1875
Q61.625 48.1875 57.5625 43.5469
Q53.5156 38.9219 53.5156 30.9062
L53.5156 0
L44.4844 0
L44.4844 32.7188
Q44.4844 40.625 41.7031 44.4062
Q38.9219 48.1875 33.1094 48.1875
Q26.2188 48.1875 22.1562 43.5312
Q18.1094 38.875 18.1094 30.9062
L18.1094 0
L9.07812 0
L9.07812 54.6875
L18.1094 54.6875
L18.1094 46.1875
Q21.1875 51.2188 25.4844 53.6094
Q29.7812 56 35.6875 56
Q41.6562 56 45.8281 52.9688
Q50 49.9531 52 44.1875" id="BitstreamVeraSans-Roman-6d"/>
     </defs>
     <g transform="translate(218.81171875 276.4765625)scale(0.1 -0.1)">
      <use xlink:href="#BitstreamVeraSans-Roman-54"/>
      <use x="57.958984375" xlink:href="#BitstreamVeraSans-Roman-69"/>
      <use x="85.7421875" xlink:href="#BitstreamVeraSans-Roman-6d"/>
      <use x="183.154296875" xlink:href="#BitstreamVeraSans-Roman-65"/>
     </g>
    </g>
   </g>
   <g id="matplotlib.axis_2">
    <g id="ytick_1">
     <g id="line2d_26">
      <path clip-path="url(#pef8030b3c2)" d="
M40.3875 250.2
L421.2 250.2" style="fill:none;stroke:#cccccc;stroke-dasharray:1.000000,3.000000;stroke-dashoffset:0.0;stroke-width:0.5;"/>
     </g>
     <g id="line2d_27">
      <defs>
       <path d="
M0 0
L4 0" id="m728421d6d4" style="stroke:#000000;stroke-width:0.5;"/>
      </defs>
      <g>
       <use style="stroke:#000000;stroke-width:0.5;" x="40.3875" xlink:href="#m728421d6d4" y="250.2"/>
      </g>
     </g>
     <g id="line2d_28">
      <defs>
       <path d="
M0 0
L-4 0" id="mcb0005524f" style="stroke:#000000;stroke-width:0.5;"/>
      </defs>
      <g>
       <use style="stroke:#000000;stroke-width:0.5;" x="421.2" xlink:href="#mcb0005524f" y="250.2"/>
      </g>
     </g>
     <g id="text_5">
      <!-- 0 -->
      <g transform="translate(31.3484375 252.959375)scale(0.1 -0.1)">
       <use xlink:href="#BitstreamVeraSans-Roman-30"/>
      </g>
     </g>
    </g>
    <g id="ytick_2">
     <g id="line2d_29">
      <path clip-path="url(#pef8030b3c2)" d="
M40.3875 222.314
L421.2 222.314" style="fill:none;stroke:#cccccc;stroke-dasharray:1.000000,3.000000;stroke-dashoffset:0.0;stroke-width:0.5;"/>
     </g>
     <g id="line2d_30">
      <g>
       <use style="stroke:#000000;stroke-width:0.5;" x="40.3875" xlink:href="#m728421d6d4" y="222.313984375"/>
      </g>
     </g>
     <g id="line2d_31">
      <g>
       <use style="stroke:#000000;stroke-width:0.5;" x="421.2" xlink:href="#mcb0005524f" y="222.313984375"/>
      </g>
     </g>
     <g id="text_6">
      <!-- 5 -->
      <defs>
       <path d="
M10.7969 72.9062
L49.5156 72.9062
L49.5156 64.5938
L19.8281 64.5938
L19.8281 46.7344
Q21.9688 47.4688 24.1094 47.8281
Q26.2656 48.1875 28.4219 48.1875
Q40.625 48.1875 47.75 41.5
Q54.8906 34.8125 54.8906 23.3906
Q54.8906 11.625 47.5625 5.09375
Q40.2344 -1.42188 26.9062 -1.42188
Q22.3125 -1.42188 17.5469 -0.640625
Q12.7969 0.140625 7.71875 1.70312
L7.71875 11.625
Q12.1094 9.23438 16.7969 8.0625
Q21.4844 6.89062 26.7031 6.89062
Q35.1562 6.89062 40.0781 11.3281
Q45.0156 15.7656 45.0156 23.3906
Q45.0156 31 40.0781 35.4375
Q35.1562 39.8906 26.7031 39.8906
Q22.75 39.8906 18.8125 39.0156
Q14.8906 38.1406 10.7969 36.2812
z
" id="BitstreamVeraSans-Roman-35"/>
      </defs>
      <g transform="translate(31.6703125 225.073359375)scale(0.1 -0.1)">
       <use xlink:href="#BitstreamVeraSans-Roman-35"/>
      </g>
     </g>
    </g>
    <g id="ytick_3">
     <g id="line2d_32">
      <path clip-path="url(#pef8030b3c2)" d="
M40.3875 194.428
L421.2 194.428" style="fill:none;stroke:#cccccc;stroke-dasharray:1.000000,3.000000;stroke-dashoffset:0.0;stroke-width:0.5;"/>
     </g>
     <g id="line2d_33">
      <g>
       <use style="stroke:#000000;stroke-width:0.5;" x="40.3875" xlink:href="#m728421d6d4" y="194.42796875"/>
      </g>
     </g>
     <g id="line2d_34">
      <g>
       <use style="stroke:#000000;stroke-width:0.5;" x="421.2" xlink:href="#mcb0005524f" y="194.42796875"/>
      </g>
     </g>
     <g id="text_7">
      <!-- 10 -->
      <defs>
       <path d="
M12.4062 8.29688
L28.5156 8.29688
L28.5156 63.9219
L10.9844 60.4062
L10.9844 69.3906
L28.4219 72.9062
L38.2812 72.9062
L38.2812 8.29688
L54.3906 8.29688
L54.3906 0
L12.4062 0
z
" id="BitstreamVeraSans-Roman-31"/>
      </defs>
      <g transform="translate(25.425 197.18734375)scale(0.1 -0.1)">
       <use xlink:href="#BitstreamVeraSans-Roman-31"/>
       <use x="63.623046875" xlink:href="#BitstreamVeraSans-Roman-30"/>
      </g>
     </g>
    </g>
    <g id="ytick_4">
     <g id="line2d_35">
      <path clip-path="url(#pef8030b3c2)" d="
M40.3875 166.542
L421.2 166.542" style="fill:none;stroke:#cccccc;stroke-dasharray:1.000000,3.000000;stroke-dashoffset:0.0;stroke-width:0.5;"/>
     </g>
     <g id="line2d_36">
      <g>
       <use style="stroke:#000000;stroke-width:0.5;" x="40.3875" xlink:href="#m728421d6d4" y="166.541953125"/>
      </g>
     </g>
     <g id="line2d_37">
      <g>
       <use style="stroke:#000000;stroke-width:0.5;" x="421.2" xlink:href="#mcb0005524f" y="166.541953125"/>
      </g>
     </g>
     <g id="text_8">
      <!-- 15 -->
      <g transform="translate(25.634375 169.301328125)scale(0.1 -0.1)">
       <use xlink:href="#BitstreamVeraSans-Roman-31"/>
       <use x="63.623046875" xlink:href="#BitstreamVeraSans-Roman-35"/>
      </g>
     </g>
    </g>
    <g id="ytick_5">
     <g id="line2d_38">
      <path clip-path="url(#pef8030b3c2)" d="
M40.3875 138.656
L421.2 138.656" style="fill:none;stroke:#cccccc;stroke-dasharray:1.000000,3.000000;stroke-dashoffset:0.0;stroke-width:0.5;"/>
     </g>
     <g id="line2d_39">
      <g>
       <use style="stroke:#000000;stroke-width:0.5;" x="40.3875" xlink:href="#m728421d6d4" y="138.6559375"/>
      </g>
     </g>
     <g id="line2d_40">
      <g>
       <use style="stroke:#000000;stroke-width:0.5;" x="421.2" xlink:href="#mcb0005524f" y="138.6559375"/>
      </g>
     </g>
     <g id="text_9">
      <!-- 20 -->
      <defs>
       <path d="
M19.1875 8.29688
L53.6094 8.29688
L53.6094 0
L7.32812 0
L7.32812 8.29688
Q12.9375 14.1094 22.625 23.8906
Q32.3281 33.6875 34.8125 36.5312
Q39.5469 41.8438 41.4219 45.5312
Q43.3125 49.2188 43.3125 52.7812
Q43.3125 58.5938 39.2344 62.25
Q35.1562 65.9219 28.6094 65.9219
Q23.9688 65.9219 18.8125 64.3125
Q13.6719 62.7031 7.8125 59.4219
L7.8125 69.3906
Q13.7656 71.7812 18.9375 73
Q24.125 74.2188 28.4219 74.2188
Q39.75 74.2188 46.4844 68.5469
Q53.2188 62.8906 53.2188 53.4219
Q53.2188 48.9219 51.5312 44.8906
Q49.8594 40.875 45.4062 35.4062
Q44.1875 33.9844 37.6406 27.2188
Q31.1094 20.4531 19.1875 8.29688" id="BitstreamVeraSans-Roman-32"/>
      </defs>
      <g transform="translate(25.059375 141.4153125)scale(0.1 -0.1)">
       <use xlink:href="#BitstreamVeraSans-Roman-32"/>
       <use x="63.623046875" xlink:href="#BitstreamVeraSans-Roman-30"/>
      </g>
     </g>
    </g>
    <g id="ytick_6">
     <g id="line2d_41">
      <path clip-path="url(#pef8030b3c2)" d="
M40.3875 110.77
L421.2 110.77" style="fill:none;stroke:#cccccc;stroke-dasharray:1.000000,3.000000;stroke-dashoffset:0.0;stroke-width:0.5;"/>
     </g>
     <g id="line2d_42">
      <g>
       <use style="stroke:#000000;stroke-width:0.5;" x="40.3875" xlink:href="#m728421d6d4" y="110.769921875"/>
      </g>
     </g>
     <g id="line2d_43">
      <g>
       <use style="stroke:#000000;stroke-width:0.5;" x="421.2" xlink:href="#mcb0005524f" y="110.769921875"/>
      </g>
     </g>
     <g id="text_10">
      <!-- 25 -->
      <g transform="translate(25.26875 113.529296875)scale(0.1 -0.1)">
       <use xlink:href="#BitstreamVeraSans-Roman-32"/>
       <use x="63.623046875" xlink:href="#BitstreamVeraSans-Roman-35"/>
      </g>
     </g>
    </g>
    <g id="ytick_7">
     <g id="line2d_44">
      <path clip-path="url(#pef8030b3c2)" d="
M40.3875 82.8839
L421.2 82.8839" style="fill:none;stroke:#cccccc;stroke-dasharray:1.000000,3.000000;stroke-dashoffset:0.0;stroke-width:0.5;"/>
     </g>
     <g id="line2d_45">
      <g>
       <use style="stroke:#000000;stroke-width:0.5;" x="40.3875" xlink:href="#m728421d6d4" y="82.88390625"/>
      </g>
     </g>
     <g id="line2d_46">
      <g>
       <use style="stroke:#000000;stroke-width:0.5;" x="421.2" xlink:href="#mcb0005524f" y="82.88390625"/>
      </g>
     </g>
     <g id="text_11">
      <!-- 30 -->
      <g transform="translate(25.0890625 85.64328125)scale(0.1 -0.1)">
       <use xlink:href="#BitstreamVeraSans-Roman-33"/>
       <use x="63.623046875" xlink:href="#BitstreamVeraSans-Roman-30"/>
      </g>
     </g>
    </g>
    <g id="ytick_8">
     <g id="line2d_47">
      <path clip-path="url(#pef8030b3c2)" d="
M40.3875 54.9979
L421.2 54.9979" style="fill:none;stroke:#cccccc;stroke-dasharray:1.000000,3.000000;stroke-dashoffset:0.0;stroke-width:0.5;"/>
     </g>
     <g id="line2d_48">
      <g>
       <use style="stroke:#000000;stroke-width:0.5;" x="40.3875" xlink:href="#m728421d6d4" y="54.997890625"/>
      </g>
     </g>
     <g id="line2d_49">
      <g>
       <use style="stroke:#000000;stroke-width:0.5;" x="421.2" xlink:href="#mcb0005524f" y="54.997890625"/>
      </g>
     </g>
     <g id="text_12">
      <!-- 35 -->
      <g transform="translate(25.2984375 57.757265625)scale(0.1 -0.1)">
       <use xlink:href="#BitstreamVeraSans-Roman-33"/>
       <use x="63.623046875" xlink:href="#BitstreamVeraSans-Roman-35"/>
      </g>
     </g>
    </g>
    <g id="ytick_9">
     <g id="line2d_50">
      <path clip-path="url(#pef8030b3c2)" d="
M40.3875 27.1119
L421.2 27.1119" style="fill:none;stroke:#cccccc;stroke-dasharray:1.000000,3.000000;stroke-dashoffset:0.0;stroke-width:0.5;"/>
     </g>
     <g id="line2d_51">
      <g>
       <use style="stroke:#000000;stroke-width:0.5;" x="40.3875" xlink:href="#m728421d6d4" y="27.111875"/>
      </g>
     </g>
     <g id="line2d_52">
      <g>
       <use style="stroke:#000000;stroke-width:0.5;" x="421.2" xlink:href="#mcb0005524f" y="27.111875"/>
      </g>
     </g>
     <g id="text_13">
      <!-- 40 -->
      <defs>
       <path d="
M37.7969 64.3125
L12.8906 25.3906
L37.7969 25.3906
z

M35.2031 72.9062
L47.6094 72.9062
L47.6094 25.3906
L58.0156 25.3906
L58.0156 17.1875
L47.6094 17.1875
L47.6094 0
L37.7969 0
L37.7969 17.1875
L4.89062 17.1875
L4.89062 26.7031
z
" id="BitstreamVeraSans-Roman-34"/>
      </defs>
      <g transform="translate(24.815625 29.87125)scale(0.1 -0.1)">
       <use xlink:href="#BitstreamVeraSans-Roman-34"/>
       <use x="63.623046875" xlink:href="#BitstreamVeraSans-Roman-30"/>
      </g>
     </g>
    </g>
    <g id="text_14">
     <!-- Volume flow in l/min -->
     <defs>
      <path id="BitstreamVeraSans-Roman-20"/>
      <path d="
M37.1094 75.9844
L37.1094 68.5
L28.5156 68.5
Q23.6875 68.5 21.7969 66.5469
Q19.9219 64.5938 19.9219 59.5156
L19.9219 54.6875
L34.7188 54.6875
L34.7188 47.7031
L19.9219 47.7031
L19.9219 0
L10.8906 0
L10.8906 47.7031
L2.29688 47.7031
L2.29688 54.6875
L10.8906 54.6875
L10.8906 58.5
Q10.8906 67.625 15.1406 71.7969
Q19.3906 75.9844 28.6094 75.9844
z
" id="BitstreamVeraSans-Roman-66"/>
      <path d="
M54.8906 33.0156
L54.8906 0
L45.9062 0
L45.9062 32.7188
Q45.9062 40.4844 42.875 44.3281
Q39.8438 48.1875 33.7969 48.1875
Q26.5156 48.1875 22.3125 43.5469
Q18.1094 38.9219 18.1094 30.9062
L18.1094 0
L9.07812 0
L9.07812 54.6875
L18.1094 54.6875
L18.1094 46.1875
Q21.3438 51.125 25.7031 53.5625
Q30.0781 56 35.7969 56
Q45.2188 56 50.0469 50.1719
Q54.8906 44.3438 54.8906 33.0156" id="BitstreamVeraSans-Roman-6e"/>
      <path d="
M30.6094 48.3906
Q23.3906 48.3906 19.1875 42.75
Q14.9844 37.1094 14.9844 27.2969
Q14.9844 17.4844 19.1562 11.8438
Q23.3438 6.20312 30.6094 6.20312
Q37.7969 6.20312 41.9844 11.8594
Q46.1875 17.5312 46.1875 27.2969
Q46.1875 37.0156 41.9844 42.7031
Q37.7969 48.3906 30.6094 48.3906
M30.6094 56
Q42.3281 56 49.0156 48.375
Q55.7188 40.7656 55.7188 27.2969
Q55.7188 13.875 49.0156 6.21875
Q42.3281 -1.42188 30.6094 -1.42188
Q18.8438 -1.42188 12.1719 6.21875
Q5.51562 13.875 5.51562 27.2969
Q5.51562 40.7656 12.1719 48.375
Q18.8438 56 30.6094 56" id="BitstreamVeraSans-Roman-6f"/>
      <path d="
M9.42188 75.9844
L18.4062 75.9844
L18.4062 0
L9.42188 0
z
" id="BitstreamVeraSans-Roman-6c"/>
      <path d="
M28.6094 0
L0.78125 72.9062
L11.0781 72.9062
L34.1875 11.5312
L57.3281 72.9062
L67.5781 72.9062
L39.7969 0
z
" id="BitstreamVeraSans-Roman-56"/>
      <path d="
M25.3906 72.9062
L33.6875 72.9062
L8.29688 -9.28125
L0 -9.28125
z
" id="BitstreamVeraSans-Roman-2f"/>
      <path d="
M4.20312 54.6875
L13.1875 54.6875
L24.4219 12.0156
L35.5938 54.6875
L46.1875 54.6875
L57.4219 12.0156
L68.6094 54.6875
L77.5938 54.6875
L63.2812 0
L52.6875 0
L40.9219 44.8281
L29.1094 0
L18.5 0
z
" id="BitstreamVeraSans-Roman-77"/>
      <path d="
M8.5 21.5781
L8.5 54.6875
L17.4844 54.6875
L17.4844 21.9219
Q17.4844 14.1562 20.5 10.2656
Q23.5312 6.39062 29.5938 6.39062
Q36.8594 6.39062 41.0781 11.0312
Q45.3125 15.6719 45.3125 23.6875
L45.3125 54.6875
L54.2969 54.6875
L54.2969 0
L45.3125 0
L45.3125 8.40625
Q42.0469 3.42188 37.7188 1
Q33.4062 -1.42188 27.6875 -1.42188
Q18.2656 -1.42188 13.375 4.4375
Q8.5 10.2969 8.5 21.5781" id="BitstreamVeraSans-Roman-75"/>
     </defs>
     <g transform="translate(17.7359375 188.9528125)rotate(-90.0)scale(0.1 -0.1)">
      <use xlink:href="#BitstreamVeraSans-Roman-56"/>
      <use x="60.658203125" xlink:href="#BitstreamVeraSans-Roman-6f"/>
      <use x="121.83984375" xlink:href="#BitstreamVeraSans-Roman-6c"/>
      <use x="149.623046875" xlink:href="#BitstreamVeraSans-Roman-75"/>
      <use x="213.001953125" xlink:href="#BitstreamVeraSans-Roman-6d"/>
      <use x="310.4140625" xlink:href="#BitstreamVeraSans-Roman-65"/>
      <use x="371.9375" xlink:href="#BitstreamVeraSans-Roman-20"/>
      <use x="403.724609375" xlink:href="#BitstreamVeraSans-Roman-66"/>
      <use x="438.9296875" xlink:href="#BitstreamVeraSans-Roman-6c"/>
      <use x="466.712890625" xlink:href="#BitstreamVeraSans-Roman-6f"/>
      <use x="527.89453125" xlink:href="#BitstreamVeraSans-Roman-77"/>
      <use x="609.681640625" xlink:href="#BitstreamVeraSans-Roman-20"/>
      <use x="641.46875" xlink:href="#BitstreamVeraSans-Roman-69"/>
      <use x="669.251953125" xlink:href="#BitstreamVeraSans-Roman-6e"/>
      <use x="732.630859375" xlink:href="#BitstreamVeraSans-Roman-20"/>
      <use x="764.41796875" xlink:href="#BitstreamVeraSans-Roman-6c"/>
      <use x="792.201171875" xlink:href="#BitstreamVeraSans-Roman-2f"/>
      <use x="825.892578125" xlink:href="#BitstreamVeraSans-Roman-6d"/>
      <use x="923.3046875" xlink:href="#BitstreamVeraSans-Roman-69"/>
      <use x="951.087890625" xlink:href="#BitstreamVeraSans-Roman-6e"/>
     </g>
    </g>
   </g>
   <g id="text_15">
    <!-- test 50, water 30/35$^\circ$C, 4h defr, 30pct, 15/01/2018 -->
    <defs>
     <path d="
M25 5.60938
Q19.8281 5.60938 15.3594 8.21875
Q10.8906 10.8438 8.25 15.375
Q5.60938 19.9219 5.60938 25
Q5.60938 30.0781 8.25 34.6094
Q10.8906 39.1562 15.3594 41.7656
Q19.8281 44.3906 25 44.3906
Q30.1719 44.3906 34.6094 41.75
Q39.0625 39.1094 41.6719 34.5938
Q44.2812 30.0781 44.2812 25
Q44.2812 19.9219 41.6719 15.4062
Q39.0625 10.8906 34.6094 8.25
Q30.1719 5.60938 25 5.60938
M25 9.625
Q31.25 9.625 35.7656 14.1875
Q40.2812 18.75 40.2812 25
Q40.2812 29 38.2031 32.5938
Q36.1406 36.1875 32.625 38.2812
Q29.1094 40.375 25 40.375
Q21.9219 40.375 19.1406 39.1719
Q16.3594 37.9844 14.1562 35.7812
Q11.9688 33.5938 10.7969 30.8281
Q9.625 28.0781 9.625 25
Q9.625 18.75 14.1406 14.1875
Q18.6562 9.625 25 9.625" id="Cmsy10-b1"/>
     <path d="
M34.2812 27.4844
Q23.3906 27.4844 19.1875 25
Q14.9844 22.5156 14.9844 16.5
Q14.9844 11.7188 18.1406 8.90625
Q21.2969 6.10938 26.7031 6.10938
Q34.1875 6.10938 38.7031 11.4062
Q43.2188 16.7031 43.2188 25.4844
L43.2188 27.4844
z

M52.2031 31.2031
L52.2031 0
L43.2188 0
L43.2188 8.29688
Q40.1406 3.32812 35.5469 0.953125
Q30.9531 -1.42188 24.3125 -1.42188
Q15.9219 -1.42188 10.9531 3.29688
Q6 8.01562 6 15.9219
Q6 25.1406 12.1719 29.8281
Q18.3594 34.5156 30.6094 34.5156
L43.2188 34.5156
L43.2188 35.4062
Q43.2188 41.6094 39.1406 45
Q35.0625 48.3906 27.6875 48.3906
Q23 48.3906 18.5469 47.2656
Q14.1094 46.1406 10.0156 43.8906
L10.0156 52.2031
Q14.9375 54.1094 19.5781 55.0469
Q24.2188 56 28.6094 56
Q40.4844 56 46.3438 49.8438
Q52.2031 43.7031 52.2031 31.2031" id="BitstreamVeraSans-Roman-61"/>
     <path d="
M11.7188 12.4062
L22.0156 12.4062
L22.0156 4
L14.0156 -11.625
L7.71875 -11.625
L11.7188 4
z
" id="BitstreamVeraSans-Roman-2c"/>
     <path d="
M64.4062 67.2812
L64.4062 56.8906
Q59.4219 61.5312 53.7812 63.8125
Q48.1406 66.1094 41.7969 66.1094
Q29.2969 66.1094 22.6562 58.4688
Q16.0156 50.8281 16.0156 36.375
Q16.0156 21.9688 22.6562 14.3281
Q29.2969 6.6875 41.7969 6.6875
Q48.1406 6.6875 53.7812 8.98438
Q59.4219 11.2812 64.4062 15.9219
L64.4062 5.60938
Q59.2344 2.09375 53.4375 0.328125
Q47.6562 -1.42188 41.2188 -1.42188
Q24.6562 -1.42188 15.125 8.70312
Q5.60938 18.8438 5.60938 36.375
Q5.60938 53.9531 15.125 64.0781
Q24.6562 74.2188 41.2188 74.2188
Q47.75 74.2188 53.5312 72.4844
Q59.3281 70.75 64.4062 67.2812" id="BitstreamVeraSans-Roman-43"/>
     <path d="
M54.8906 33.0156
L54.8906 0
L45.9062 0
L45.9062 32.7188
Q45.9062 40.4844 42.875 44.3281
Q39.8438 48.1875 33.7969 48.1875
Q26.5156 48.1875 22.3125 43.5469
Q18.1094 38.9219 18.1094 30.9062
L18.1094 0
L9.07812 0
L9.07812 75.9844
L18.1094 75.9844
L18.1094 46.1875
Q21.3438 51.125 25.7031 53.5625
Q30.0781 56 35.7969 56
Q45.2188 56 50.0469 50.1719
Q54.8906 44.3438 54.8906 33.0156" id="BitstreamVeraSans-Roman-68"/>
     <path d="
M48.7812 52.5938
L48.7812 44.1875
Q44.9688 46.2969 41.1406 47.3438
Q37.3125 48.3906 33.4062 48.3906
Q24.6562 48.3906 19.8125 42.8438
Q14.9844 37.3125 14.9844 27.2969
Q14.9844 17.2812 19.8125 11.7344
Q24.6562 6.20312 33.4062 6.20312
Q37.3125 6.20312 41.1406 7.25
Q44.9688 8.29688 48.7812 10.4062
L48.7812 2.09375
Q45.0156 0.34375 40.9844 -0.53125
Q36.9688 -1.42188 32.4219 -1.42188
Q20.0625 -1.42188 12.7812 6.34375
Q5.51562 14.1094 5.51562 27.2969
Q5.51562 40.6719 12.8594 48.3281
Q20.2188 56 33.0156 56
Q37.1562 56 41.1094 55.1406
Q45.0625 54.2969 48.7812 52.5938" id="BitstreamVeraSans-Roman-63"/>
     <path d="
M45.4062 46.3906
L45.4062 75.9844
L54.3906 75.9844
L54.3906 0
L45.4062 0
L45.4062 8.20312
Q42.5781 3.32812 38.25 0.953125
Q33.9375 -1.42188 27.875 -1.42188
Q17.9688 -1.42188 11.7344 6.48438
Q5.51562 14.4062 5.51562 27.2969
Q5.51562 40.1875 11.7344 48.0938
Q17.9688 56 27.875 56
Q33.9375 56 38.25 53.625
Q42.5781 51.2656 45.4062 46.3906
M14.7969 27.2969
Q14.7969 17.3906 18.875 11.75
Q22.9531 6.10938 30.0781 6.10938
Q37.2031 6.10938 41.2969 11.75
Q45.4062 17.3906 45.4062 27.2969
Q45.4062 37.2031 41.2969 42.8438
Q37.2031 48.4844 30.0781 48.4844
Q22.9531 48.4844 18.875 42.8438
Q14.7969 37.2031 14.7969 27.2969" id="BitstreamVeraSans-Roman-64"/>
     <path d="
M18.3125 70.2188
L18.3125 54.6875
L36.8125 54.6875
L36.8125 47.7031
L18.3125 47.7031
L18.3125 18.0156
Q18.3125 11.3281 20.1406 9.42188
Q21.9688 7.51562 27.5938 7.51562
L36.8125 7.51562
L36.8125 0
L27.5938 0
Q17.1875 0 13.2344 3.875
Q9.28125 7.76562 9.28125 18.0156
L9.28125 47.7031
L2.6875 47.7031
L2.6875 54.6875
L9.28125 54.6875
L9.28125 70.2188
z
" id="BitstreamVeraSans-Roman-74"/>
     <path d="
M41.1094 46.2969
Q39.5938 47.1719 37.8125 47.5781
Q36.0312 48 33.8906 48
Q26.2656 48 22.1875 43.0469
Q18.1094 38.0938 18.1094 28.8125
L18.1094 0
L9.07812 0
L9.07812 54.6875
L18.1094 54.6875
L18.1094 46.1875
Q20.9531 51.1719 25.4844 53.5781
Q30.0312 56 36.5312 56
Q37.4531 56 38.5781 55.875
Q39.7031 55.7656 41.0625 55.5156
z
" id="BitstreamVeraSans-Roman-72"/>
     <path d="
M44.2812 53.0781
L44.2812 44.5781
Q40.4844 46.5312 36.375 47.5
Q32.2812 48.4844 27.875 48.4844
Q21.1875 48.4844 17.8438 46.4375
Q14.5 44.3906 14.5 40.2812
Q14.5 37.1562 16.8906 35.375
Q19.2812 33.5938 26.5156 31.9844
L29.5938 31.2969
Q39.1562 29.25 43.1875 25.5156
Q47.2188 21.7812 47.2188 15.0938
Q47.2188 7.46875 41.1875 3.01562
Q35.1562 -1.42188 24.6094 -1.42188
Q20.2188 -1.42188 15.4531 -0.5625
Q10.6875 0.296875 5.42188 2
L5.42188 11.2812
Q10.4062 8.6875 15.2344 7.39062
Q20.0625 6.10938 24.8125 6.10938
Q31.1562 6.10938 34.5625 8.28125
Q37.9844 10.4531 37.9844 14.4062
Q37.9844 18.0625 35.5156 20.0156
Q33.0625 21.9688 24.7031 23.7812
L21.5781 24.5156
Q13.2344 26.2656 9.51562 29.9062
Q5.8125 33.5469 5.8125 39.8906
Q5.8125 47.6094 11.2812 51.7969
Q16.75 56 26.8125 56
Q31.7812 56 36.1719 55.2656
Q40.5781 54.5469 44.2812 53.0781" id="BitstreamVeraSans-Roman-73"/>
     <path d="
M18.1094 8.20312
L18.1094 -20.7969
L9.07812 -20.7969
L9.07812 54.6875
L18.1094 54.6875
L18.1094 46.3906
Q20.9531 51.2656 25.2656 53.625
Q29.5938 56 35.5938 56
Q45.5625 56 51.7812 48.0938
Q58.0156 40.1875 58.0156 27.2969
Q58.0156 14.4062 51.7812 6.48438
Q45.5625 -1.42188 35.5938 -1.42188
Q29.5938 -1.42188 25.2656 0.953125
Q20.9531 3.32812 18.1094 8.20312
M48.6875 27.2969
Q48.6875 37.2031 44.6094 42.8438
Q40.5312 48.4844 33.4062 48.4844
Q26.2656 48.4844 22.1875 42.8438
Q18.1094 37.2031 18.1094 27.2969
Q18.1094 17.3906 22.1875 11.75
Q26.2656 6.10938 33.4062 6.10938
Q40.5312 6.10938 44.6094 11.75
Q48.6875 17.3906 48.6875 27.2969" id="BitstreamVeraSans-Roman-70"/>
    </defs>
    <g transform="translate(76.77375 22.111875)scale(0.12 -0.12)">
     <use transform="translate(0.0 0.015625)" xlink:href="#BitstreamVeraSans-Roman-74"/>
     <use transform="translate(39.208984375 0.015625)" xlink:href="#BitstreamVeraSans-Roman-65"/>
     <use transform="translate(100.732421875 0.015625)" xlink:href="#BitstreamVeraSans-Roman-73"/>
     <use transform="translate(152.83203125 0.015625)" xlink:href="#BitstreamVeraSans-Roman-74"/>
     <use transform="translate(192.041015625 0.015625)" xlink:href="#BitstreamVeraSans-Roman-20"/>
     <use transform="translate(223.828125 0.015625)" xlink:href="#BitstreamVeraSans-Roman-35"/>
     <use transform="translate(287.451171875 0.015625)" xlink:href="#BitstreamVeraSans-Roman-30"/>
     <use transform="translate(351.07421875 0.015625)" xlink:href="#BitstreamVeraSans-Roman-2c"/>
     <use transform="translate(382.861328125 0.015625)" xlink:href="#BitstreamVeraSans-Roman-20"/>
     <use transform="translate(414.6484375 0.015625)" xlink:href="#BitstreamVeraSans-Roman-77"/>
     <use transform="translate(496.435546875 0.015625)" xlink:href="#BitstreamVeraSans-Roman-61"/>
     <use transform="translate(557.71484375 0.015625)" xlink:href="#BitstreamVeraSans-Roman-74"/>
     <use transform="translate(596.923828125 0.015625)" xlink:href="#BitstreamVeraSans-Roman-65"/>
     <use transform="translate(658.447265625 0.015625)" xlink:href="#BitstreamVeraSans-Roman-72"/>
     <use transform="translate(699.560546875 0.015625)" xlink:href="#BitstreamVeraSans-Roman-20"/>
     <use transform="translate(731.34765625 0.015625)" xlink:href="#BitstreamVeraSans-Roman-33"/>
     <use transform="translate(794.970703125 0.015625)" xlink:href="#BitstreamVeraSans-Roman-30"/>
     <use transform="translate(858.59375 0.015625)" xlink:href="#BitstreamVeraSans-Roman-2f"/>
     <use transform="translate(892.28515625 0.015625)" xlink:href="#BitstreamVeraSans-Roman-33"/>
     <use transform="translate(955.908203125 0.015625)" xlink:href="#BitstreamVeraSans-Roman-35"/>
     <use transform="translate(1031.82226562 42.53125)scale(0.7)" xlink:href="#Cmsy10-b1"/>
     <use transform="translate(1088.18984375 0.015625)" xlink:href="#BitstreamVeraSans-Roman-43"/>
     <use transform="translate(1158.0140625 0.015625)" xlink:href="#BitstreamVeraSans-Roman-2c"/>
     <use transform="translate(1189.80117187 0.015625)" xlink:href="#BitstreamVeraSans-Roman-20"/>
     <use transform="translate(1221.58828125 0.015625)" xlink:href="#BitstreamVeraSans-Roman-34"/>
     <use transform="translate(1285.21132812 0.015625)" xlink:href="#BitstreamVeraSans-Roman-68"/>
     <use transform="translate(1348.59023437 0.015625)" xlink:href="#BitstreamVeraSans-Roman-20"/>
     <use transform="translate(1380.37734375 0.015625)" xlink:href="#BitstreamVeraSans-Roman-64"/>
     <use transform="translate(1443.85390625 0.015625)" xlink:href="#BitstreamVeraSans-Roman-65"/>
     <use transform="translate(1505.37734375 0.015625)" xlink:href="#BitstreamVeraSans-Roman-66"/>
     <use transform="translate(1540.58242187 0.015625)" xlink:href="#BitstreamVeraSans-Roman-72"/>
     <use transform="translate(1581.69570312 0.015625)" xlink:href="#BitstreamVeraSans-Roman-2c"/>
     <use transform="translate(1613.4828125 0.015625)" xlink:href="#BitstreamVeraSans-Roman-20"/>
     <use transform="translate(1645.26992187 0.015625)" xlink:href="#BitstreamVeraSans-Roman-33"/>
     <use transform="translate(1708.89296875 0.015625)" xlink:href="#BitstreamVeraSans-Roman-30"/>
     <use transform="translate(1772.51601562 0.015625)" xlink:href="#BitstreamVeraSans-Roman-70"/>
     <use transform="translate(1835.99257812 0.015625)" xlink:href="#BitstreamVeraSans-Roman-63"/>
     <use transform="translate(1890.97304687 0.015625)" xlink:href="#BitstreamVeraSans-Roman-74"/>
     <use transform="translate(1930.18203125 0.015625)" xlink:href="#BitstreamVeraSans-Roman-2c"/>
     <use transform="translate(1961.96914062 0.015625)" xlink:href="#BitstreamVeraSans-Roman-20"/>
     <use transform="translate(1993.75625 0.015625)" xlink:href="#BitstreamVeraSans-Roman-31"/>
     <use transform="translate(2057.37929687 0.015625)" xlink:href="#BitstreamVeraSans-Roman-35"/>
     <use transform="translate(2121.00234375 0.015625)" xlink:href="#BitstreamVeraSans-Roman-2f"/>
     <use transform="translate(2154.69375 0.015625)" xlink:href="#BitstreamVeraSans-Roman-30"/>
     <use transform="translate(2218.31679687 0.015625)" xlink:href="#BitstreamVeraSans-Roman-31"/>
     <use transform="translate(2281.93984375 0.015625)" xlink:href="#BitstreamVeraSans-Roman-2f"/>
     <use transform="translate(2312.00625 0.015625)" xlink:href="#BitstreamVeraSans-Roman-32"/>
     <use transform="translate(2375.62929687 0.015625)" xlink:href="#BitstreamVeraSans-Roman-30"/>
     <use transform="translate(2439.25234375 0.015625)" xlink:href="#BitstreamVeraSans-Roman-31"/>
     <use transform="translate(2502.87539062 0.015625)" xlink:href="#BitstreamVeraSans-Roman-38"/>
    </g>
   </g>
   <g id="legend_1">
    <g id="patch_8">
     <path d="
M448.049 146.656
L487.329 146.656
L487.329 130.656
L448.049 130.656
z
" style="fill:#ffffff;stroke:#000000;stroke-linejoin:miter;"/>
    </g>
    <g id="line2d_53">
     <path d="
M453.649 138.416" style="fill:none;stroke:#0000ff;stroke-linecap:square;"/>
    </g>
    <g id="line2d_54"/>
    <g id="text_16">
     <!-- $\dot{V}_\mathrm{W}$ -->
     <defs>
      <path d="
M31.1094 -1.125
L10.6875 61.625
Q9.90625 63.7188 7.65625 64.25
Q5.42188 64.7969 1.8125 64.7969
L1.8125 68.3125
L28.6094 68.3125
L28.6094 64.7969
Q20.2188 64.7969 20.2188 62.1094
L20.2188 61.625
L36.1875 12.4062
L49.8125 54.5
L47.5156 61.625
Q46.7344 63.7188 44.4844 64.25
Q42.2344 64.7969 38.625 64.7969
L38.625 68.3125
L65.375 68.3125
L65.375 64.7969
Q56.8906 64.7969 56.8906 62.1094
Q56.8906 61.9688 56.9844 61.6719
Q57.0781 61.375 57.0781 61.2812
L73 12.4062
L87.9844 58.8906
Q88.0938 59.1875 88.0938 59.8125
Q88.0938 62.4531 85.2969 63.625
Q82.5156 64.7969 79.5 64.7969
L79.5 68.3125
L100.875 68.3125
L100.875 64.7969
Q92.9688 64.7969 91.1094 58.8906
L71.5781 -1.125
Q71.2344 -2.20312 70.125 -2.20312
L69.3906 -2.20312
Q68.2656 -2.20312 67.9219 -1.125
L51.4219 49.8125
L34.8125 -1.125
Q34.4688 -2.20312 33.2969 -2.20312
L32.625 -2.20312
Q31.4531 -2.20312 31.1094 -1.125" id="Cmr10-57"/>
      <path d="
M8.40625 61.375
Q8.40625 63.5781 10.0625 65.2344
Q11.7188 66.8906 13.9219 66.8906
Q15.2812 66.8906 16.5938 66.1562
Q17.9219 65.4375 18.6562 64.1094
Q19.3906 62.7969 19.3906 61.375
Q19.3906 59.2344 17.7656 57.5625
Q16.1562 55.9062 13.9219 55.9062
Q11.7188 55.9062 10.0625 57.5625
Q8.40625 59.2344 8.40625 61.375" id="Cmr10-5f"/>
      <path d="
M22.0156 -1.125
L14.0156 62.5938
Q13.2812 64.7969 6.5 64.7969
Q5.51562 64.7969 5.51562 66.1094
Q5.71875 67.1875 6 67.75
Q6.29688 68.3125 7.17188 68.3125
L31.5938 68.3125
Q32.125 68.3125 32.375 67.9219
Q32.625 67.5312 32.625 67
Q32.2344 64.7969 31.2969 64.7969
Q23.4844 64.7969 23 62.1094
L29.5938 9.8125
L60.4062 58.9844
Q61.2812 60.6406 61.2812 61.625
Q61.2812 63.375 59.6875 64.0781
Q58.1094 64.7969 56 64.7969
Q54.9844 64.7969 54.9844 66.1094
Q55.1719 66.8906 55.3125 67.3281
Q55.4688 67.7812 55.7656 68.0469
Q56.0625 68.3125 56.6875 68.3125
L75.9844 68.3125
Q76.9062 68.3125 76.9062 67
Q76.5156 64.7969 75.5938 64.7969
Q68.0625 64.7969 63.8125 58.2031
Q63.625 58.0156 63.4844 58.0156
L26.6094 -1.125
Q25.875 -2.20312 24.7031 -2.20312
L23.2969 -2.20312
Q22.1719 -2.20312 22.0156 -1.125" id="Cmmi10-56"/>
     </defs>
     <g transform="translate(473.64875 141.2159375)scale(0.08 -0.08)">
      <use transform="translate(15.59375 25.109375)" xlink:href="#Cmr10-5f"/>
      <use transform="translate(0.0 0.203125)" xlink:href="#Cmmi10-56"/>
      <use transform="translate(58.30078125 -25.30625)scale(0.7)" xlink:href="#Cmr10-57"/>
     </g>
    </g>
   </g>
  </g>
 </g>
 <defs>
  <clipPath id="pef8030b3c2">
   <rect height="223.088125" width="380.8125" x="40.3875" y="27.111875"/>
  </clipPath>
 </defs>
</svg>
