<?xml version="1.0" encoding="UTF-8" standalone="no"?>
<!-- Created with Inkscape (http://www.inkscape.org/) -->

<svg
   xmlns:dc="http://purl.org/dc/elements/1.1/"
   xmlns:cc="http://creativecommons.org/ns#"
   xmlns:rdf="http://www.w3.org/1999/02/22-rdf-syntax-ns#"
   xmlns:svg="http://www.w3.org/2000/svg"
   xmlns="http://www.w3.org/2000/svg"
   xmlns:sodipodi="http://sodipodi.sourceforge.net/DTD/sodipodi-0.dtd"
   xmlns:inkscape="http://www.inkscape.org/namespaces/inkscape"
   width="744.09448819"
   height="1052.3622047"
   id="svg2"
   version="1.1"
   inkscape:version="0.48.2 r9819"
   sodipodi:docname="New document 1">
  <defs
     id="defs4">
    <clipPath
       id="clipPath3003"
       clipPathUnits="userSpaceOnUse">
      <path
         id="path3005"
         d="m 44.71875,43.2 448.48125,0 0,270 -448.48125,0 0,-270 z" />
    </clipPath>
  </defs>
  <sodipodi:namedview
     id="base"
     pagecolor="#ffffff"
     bordercolor="#666666"
     borderopacity="1.0"
     inkscape:pageopacity="0.0"
     inkscape:pageshadow="2"
     inkscape:zoom="0.98994949"
     inkscape:cx="354.34453"
     inkscape:cy="351.1006"
     inkscape:document-units="px"
     inkscape:current-layer="layer1"
     showgrid="false"
     inkscape:window-width="1920"
     inkscape:window-height="1017"
     inkscape:window-x="-8"
     inkscape:window-y="-8"
     inkscape:window-maximized="1" />
  <metadata
     id="metadata7">
    <rdf:RDF>
      <cc:Work
         rdf:about="">
        <dc:format>image/svg+xml</dc:format>
        <dc:type
           rdf:resource="http://purl.org/dc/dcmitype/StillImage" />
        <dc:title></dc:title>
      </cc:Work>
    </rdf:RDF>
  </metadata>
  <g
     inkscape:label="Layer 1"
     inkscape:groupmode="layer"
     id="layer1">
    <g
       transform="matrix(1.25,0,0,-1.25,60,734.86218)"
       inkscape:label="delTaT_evap"
       id="g2993">
      <path
         id="path2995"
         style="fill:#ffffff;fill-opacity:1;fill-rule:nonzero;stroke:none"
         d="M 0,0 504,0 504,324 0,324 0,0 z"
         inkscape:connector-curvature="0" />
      <path
         id="path2997"
         style="fill:#ffffff;fill-opacity:1;fill-rule:nonzero;stroke:none"
         d="m 44.71875,43.2 448.48125,0 0,270 -448.48125,0 0,-270 z"
         inkscape:connector-curvature="0" />
      <g
         id="g2999">
        <g
           clip-path="url(#clipPath3003)"
           id="g3001">
          <path
             id="path3007"
             style="fill:none;stroke:#0000ff;stroke-width:1;stroke-linecap:square;stroke-linejoin:round;stroke-miterlimit:10;stroke-opacity:1;stroke-dasharray:none"
             d="m 44.71875,222.11392 0.378465,-1.40292 0.378465,-6.45478 0.378466,-3.16124 0.378465,-4.37516 0.378465,-1.63636 0.378465,-6.30249 0.378465,-2.17077 0.378466,-0.64426 0.75693,-6.95629 0.378465,0.61577 0.378465,-0.46458 0.378465,-4.04145 0.378466,0.53179 0.378465,-1.74629 0.378465,-1.16623 0.75693,0.58584 0.378466,-0.71377 0.378465,-2.979 0.378465,1.09289 0.378465,-3.72508 0.378465,0.0563 0.378466,-0.66199 0.378465,0.94334 0.378465,-3.61257 0.378465,2.26625 0.378465,-2.86191 0.378466,-4.91137 0.378465,6.63133 0.378465,-5.18556 0.378465,2.3517 0.75693,-5.63583 0.378466,-0.86166 0.378465,-2.10546 0.378465,0.0518 0.378465,3.42704 0.378465,-5.18917 0.378466,4.04526 0.378465,0.85828 0.378465,-1.11614 0.378465,-4.89698 0.378465,0.82852 0.378466,-3.59679 0.378465,0.44766 0.75693,-3.68666 0.378465,0.78366 0.378465,-1.95251 0.378466,-1.18136 0.378465,-2.05731 0.378465,-0.95758 0.378465,-1.80778 0.378465,2.7035 0.378466,-1.75218 0.378465,-5.90442 0.378465,0.70407 0.378465,-3.47343 0.378465,-1.53436 0.756931,-4.55942 0.378465,-2.06584 0.378465,-0.84289 0.378465,-1.2571 0.378466,-4.23157 0.378465,3.25646 1.135395,-9.90863 0.378465,-0.88926 0.378466,-3.90916 0.378465,-0.69751 0.378465,-3.18052 0.378465,-0.94475 0.378465,-1.84173 0.378466,0.28039 0.378465,-2.61376 0.378465,-0.321 0.378465,-0.0778 0.378465,-2.27477 0.378466,0.05 0.378465,0.4312 0.378465,-0.97078 0.378465,0.0662 0.378465,-2.286968 0.378466,-0.05079 0.378465,-3.781318 0.378465,0.675347 0.378465,-3.539327 0.378465,3.867622 0.378465,-3.568256 0.378466,-1.526509 0.378465,2.582903 0.378465,-2.128712 0.378465,0.587944 0.378465,-0.955022 0.378466,-1.898614 0.378465,-0.277811 0.378465,2.908485 0.378465,1.53396 0.378465,0.08964 0.378466,3.184162 0.378465,5.553574 0.378465,-0.8026 0.75693,5.41408 0.378466,2.40454 0.378465,3.83804 0.378465,2.1751 0.378465,0.74501 0.75693,7.14742 0.378466,3.61408 0.75693,10.7708 0.378465,1.27892 0.756931,9.84771 0.378465,-1.27144 0.75693,1.18578 0.378465,-0.0915 0.378466,3.85408 0.378465,2.37264 0.378465,0.053 0.378465,-1.30676 0.75693,3.39599 0.378466,0.97513 0.378465,2.02314 0.378465,-2.27767 0.378465,0.28612 0.378465,1.30837 0.378466,-0.69773 0.378465,0.55953 0.378465,-0.39993 0.378465,0.24149 0.378465,-1.00833 0.378466,0.57279 0.378465,1.20254 0.378465,1.94008 0.378465,-2.95587 0.378465,-1.93077 0.378466,1.06698 0.378465,0.62893 0.378462,0.32298 0.37847,-1.37803 0.37846,5.47314 0.37847,-4.15038 0.37846,0.42528 0.37847,2.14827 0.37846,0.1705 0.37847,1.0831 0.37846,0.10912 0.75693,-2.12069 0.37847,-0.63848 0.37847,-0.37843 0.37846,0.1849 0.37847,1.07272 0.37846,2.79133 0.37847,1.24186 0.37846,-3.89873 0.37847,0.82195 0.37846,0.50913 0.37847,1.28701 0.37846,0.12852 0.37847,0.71315 0.37846,-0.45552 0.37847,2.5454 0.37846,-4.86609 0.37847,0.72796 0.37846,1.87597 0.37847,-0.31831 0.37846,-0.52689 0.37847,1.55761 0.37846,3.19154 0.37847,0.92004 0.37846,-3.84057 0.37847,0.76316 0.75693,-1.39415 0.37846,1.58087 0.37847,3.45051 0.37847,-1.33954 0.37846,0.61469 0.37847,1.03475 0.37846,-0.12534 0.37847,1.41897 0.37846,-0.0668 0.37847,0.25315 0.37846,-2.06077 0.37847,1.24018 0.75693,3.30529 0.37846,-3.20866 0.37847,1.49601 0.37846,0.39385 0.37847,-1.80335 0.37846,0.65255 0.37847,2.06653 0.37846,-2.2812 0.37847,0.88488 0.37846,-0.0452 0.37847,2.19525 0.37846,1.48681 0.37847,-4.30438 0.37846,-0.52902 0.37847,0.2562 0.37847,-1.18807 0.37846,1.96299 0.37847,-2.00569 0.37846,8.25343 0.37847,-1.44111 0.75693,-0.31726 0.37846,-2.70123 0.37847,1.09551 0.37846,-1.70547 0.37847,1.07371 0.37846,-1.50396 0.37847,0.9287 0.37846,2.33272 0.37847,-2.49151 0.37846,-1.58153 0.37847,2.92058 0.37846,1.04065 0.75693,-3.17789 0.37847,0.8745 0.37846,-1.33083 0.37847,1.99719 0.37846,-1.89166 0.37847,0.80323 0.37846,-0.30841 0.37847,2.54079 0.37847,0.87446 0.37846,-1.11555 0.37847,1.54968 0.37846,3.99727 0.37847,-4.1195 0.75693,-2.04294 0.37846,0.25105 0.37847,-0.89789 0.37846,0.7316 0.37847,1.4508 0.37846,-0.17673 0.37847,0.91395 0.37846,-0.0765 0.37847,-0.59159 0.37846,-1.61093 0.37847,-2.09698 0.37846,2.31995 0.37847,-1.29098 0.37846,0.89399 0.37847,0.0866 0.37846,-0.76343 0.37847,0.12685 0.37846,3.17372 0.37847,0.71244 0.37846,-1.48607 0.37847,1.52894 0.37847,-3.69773 0.37846,3.33513 0.37847,-1.18463 0.37846,-0.68391 0.37847,0.73145 0.37846,-0.66636 0.37847,2.04932 0.37846,-3.10013 0.37847,3.28777 0.37846,-2.88331 0.37847,1.49469 0.37846,0.28868 0.75693,-1.17682 0.37847,1.05197 0.37846,0.22935 0.37847,-0.11116 0.37846,-1.07409 0.37847,1.78149 0.37846,-1.12039 0.37847,-3.23269 0.37846,3.6288 0.37847,-1.49433 0.37846,0.67987 0.37847,0.0488 0.37847,1.15957 0.37846,1.53259 0.37847,-1.82843 0.37846,0.38502 0.37847,-1.2455 0.37846,0.27518 0.37847,2.2393 0.75693,-3.78587 0.37846,-0.1867 0.75693,2.00013 0.37847,1.83953 0.37846,-2.68933 0.37847,0.90697 0.37846,-0.63831 0.37847,1.48468 0.37846,-2.93391 0.37847,1.69201 0.37846,0.51283 0.37847,0.0111 0.37846,-3.30655 0.37847,3.15694 0.37846,0.67561 0.37847,-0.95545 0.37846,3.8759 0.37847,-2.61399 0.37847,1.51397 0.37846,-2.62071 0.37847,-1.29452 0.37846,0.70754 0.37847,-0.61321 0.37846,1.01482 0.37847,-5.03645 0.37846,6.0981 0.37847,-1.72289 0.37846,-0.41022 0.37847,0.0193 0.37846,-1.71469 0.37847,0.78883 0.37846,-2.00247 0.75693,4.90409 0.37847,0.467 0.37846,-2.44899 0.37847,2.65646 0.37846,0.59614 0.37847,-1.08783 0.37846,3.59516 0.37847,-0.63256 0.37846,-1.47193 0.37847,0.63647 0.37846,-1.52315 0.37847,1.21008 0.37847,-0.74101 0.37846,-1.2401 0.37847,0.1804 0.37846,-0.69879 0.37847,-1.545 0.37846,1.53568 0.37847,-2.68568 0.37846,3.05657 0.37847,-0.30496 0.37846,-2.31076 0.37847,1.86723 0.37846,-0.52909 0.37847,1.12191 0.37846,0.42102 0.37847,-2.00221 0.37846,2.38303 0.37847,-0.88179 0.37846,0.0532 0.37847,-0.63917 0.37846,-0.91163 0.37847,0.58516 0.37846,2.859 0.37847,-0.5346 0.37846,-3.36721 0.37847,1.29298 0.37847,-1.1958 0.37846,2.07495 0.37847,-0.67482 0.37846,0.57645 0.37847,1.82405 0.37846,-1.37438 0.37847,0.33868 0.37846,-0.26963 0.37847,1.95272 0.37846,-4.06735 0.37847,0.83195 0.37846,2.38297 0.37847,0.90847 0.37846,-2.01855 0.37847,1.74646 0.37846,-1.08794 0.37847,-0.16191 0.37846,-0.43317 0.37847,-1.01361 0.37846,1.97292 0.37847,-0.0629 0.37846,0.62498 0.37847,-4.40695 0.37846,1.38342 0.37847,-0.64893 0.75693,4.00712 0.37847,-1.15383 1.13539,0.25892 0.37847,0.83088 0.37846,1.95446 0.75693,-3.74818 0.37847,-0.35845 0.37846,0.0742 0.75693,6.35616 0.37847,-3.2482 0.37846,-1.43424 0.37847,2.49455 0.37846,-1.71812 0.37847,-0.81102 0.37846,-1.48137 0.37847,1.76295 0.37846,-0.46441 0.37847,3.97527 0.37846,1.57174 0.37847,-3.71385 0.37846,-0.83226 0.37847,-0.51783 0.37846,-1.75831 0.37847,0.82501 0.37847,-0.86947 0.37846,2.85827 0.37847,-1.03797 0.37846,-0.38572 0.37847,0.37253 0.37846,-1.43444 0.37847,2.41621 0.75693,-3.06477 0.75693,3.63568 0.37846,-0.38301 0.37847,0.48108 0.37846,0.95951 0.37847,-3.28407 0.75693,4.13668 0.75693,-3.09677 0.37846,0.87886 0.37847,-1.8648 0.37846,-0.34163 0.37847,-0.0636 0.37846,-0.55061 0.37847,3.94153 0.37847,-0.82553 0.37846,-1.34285 0.37847,-1.91227 0.37846,5.11497 0.37847,-2.83081 0.37846,0.61516 0.37847,-0.64586 0.37846,1.14217 0.37847,-1.12959 0.37846,-2.07945 0.37847,5.3286 0.37846,-0.092 0.37847,-5.29173 0.37846,1.79835 0.75693,1.7499 0.37847,0.10791 0.37846,0.48512 0.37847,-0.52119 0.37846,0.37152 0.37847,2.22981 0.37846,-0.11876 0.37847,-1.77876 0.37846,-0.43262 0.37847,-1.52946 0.37846,0.93361 0.37847,0.60876 0.37847,1.37969 0.37846,-1.41409 0.37847,-2.72823 0.37846,4.71839 0.37847,-3.48755 0.75693,-1.39363 0.37846,3.55745 0.75693,-4.45941 0.37847,3.42609 0.37846,-0.56793 0.37847,1.0192 0.37846,-1.26878 0.37847,3.58972 0.37846,-1.09487 0.37847,-3.29865 0.37846,0.31724 0.37847,0.0641 0.37846,1.0755 0.37847,0.14279 0.37846,1.69598 0.37847,-1.2362 0.37846,1.60572 0.75693,-0.47837 0.37847,-0.81658 0.37847,-1.37824 0.37846,0.0173 0.37847,-0.93057 0.37846,-1.34986 0.37847,1.03427 0.75693,3.10936 0.75693,-1.31166 0.37846,-1.03258 0.37847,3.50229 0.37846,-2.2956 0.37847,1.86094 0.37846,-2.72766 0.37847,5.85875 0.37846,-1.44622 0.37847,-2.51925 0.37846,-1.08359 0.37847,2.67746 0.37846,-1.52854 0.37847,-2.51758 0.37846,4.21118 0.37847,-1.35401 0.37846,-4.49989 0.37847,3.82198 0.37847,1.92469 0.37846,-1.49216 0.75693,-0.51204 0.37847,-2.33851 0.37846,2.22464 0.37847,0.5478 0.37846,-0.45655 0.37847,-1.3537 0.37846,0.55459 0.37847,1.15074 0.37846,0.11147 0.37847,0.6781 0.37846,-1.70154 0.37847,2.28488 0.37846,-0.84753 0.37847,0.0931 0.37846,-0.13869 0.37847,1.96635 0.37846,-0.26836 0.75693,-2.35601 0.37847,2.09002 0.37846,-0.57213 0.75693,-4.05447 0.75694,1.24701 0.37846,4.17112 0.37847,-0.12716 0.37846,-3.63969 0.37847,2.08742 0.37846,-2.31637 0.37847,0.0423 0.37846,1.88177 0.37847,1.26439 0.37846,-2.7282 0.75693,2.67077 0.37847,-1.98976 0.37846,1.82023 0.37847,0.89 0.37846,-2.58722 0.37847,3.69038 0.75693,-5.12611 0.37846,2.96626 0.37847,-1.99917 0.37846,0.75848 0.75693,-1.21485 0.75693,1.85205 0.37847,2.05753 0.37847,-0.60519 0.37846,-3.16024 0.37847,1.53387 0.37846,-1.75602 0.37847,0.28159 0.37846,2.31327 0.37847,-2.85721 0.37846,2.74822 0.37847,1.04968 0.37846,-1.97363 0.37847,1.02028 0.37846,-2.66791 0.37847,-0.53186 0.37846,1.91492 0.37847,2.63046 0.37846,-2.54154 0.37847,-0.41647 0.37846,2.21823 0.37847,-2.12729 0.37846,1.28962 0.37847,-0.0153 0.37846,-2.46827 0.37847,1.79342 0.37846,1.221 0.37847,-0.12163 0.37847,-0.57121 0.37846,0.89262 0.37847,0.16365 0.37846,-2.2438 0.37847,0.3756 0.37846,0.60983 0.37847,3.02769 0.75693,-1.84769 0.37846,-2.13761 0.75693,-1.61161 0.37847,4.03671 0.75693,2.1056 0.37846,-4.9535 0.37847,2.2985 0.37846,1.32943 0.37847,-0.51143 0.37846,2.78165 0.37847,-2.17716 0.75693,-1.04228 0.37846,-1.6846 0.37847,0.72405 0.37846,2.51474 0.37847,1.38959 0.37847,-3.20035 0.37846,2.55496 0.37847,-0.71892 0.37846,-3.48431 0.75693,4.03353 0.37847,-2.26722 0.37846,1.39362 0.37847,-0.13265 0.37846,-3.82081 0.37847,3.47376 0.37846,0.87463 0.37847,-1.70134 0.37846,1.86737 0.37847,-2.79424 0.37846,2.28092 0.37847,0.15096 0.37846,2.37149 0.37847,-3.80619 0.37846,-0.90823 0.37847,3.08038 0.37846,0.54506 0.37847,-2.64023 0.37846,3.90337 0.37847,-0.28342 0.37846,-1.43415 0.37847,-3.26885 0.37847,2.48004 0.37846,-0.14307 0.37847,-1.41337 0.75693,0.0807 0.37846,0.44183 0.37847,2.22946 0.37846,-2.75535 0.37847,0.51975 0.37846,1.47025 0.37847,2.12777 0.37846,-1.46083 0.37847,2.46595 0.37846,-2.07104 0.75693,0.34282 0.37847,0.50063 0.37846,0.17205 1.1354,-5.54901 0.37846,2.76698 0.37847,-0.09 0.37846,0.76831 0.37847,-0.0762 0.37847,2.56278 0.37846,-3.41667 0.37847,3.16999 0.37846,-0.1491 0.37847,-1.58981 0.37846,1.37495 0.37847,-2.22188 0.75693,5.14195 0.37846,-2.99758 0.37847,-1.81769 0.75693,0.22925 0.37846,1.094 0.37847,4.46994 0.37846,-2.41028 0.37847,-3.42882 0.37846,2.7484 0.37847,-0.63283 0.37846,0.3119 0.75693,-2.01885 0.37847,2.28756 0.37846,-2.55474 0.37847,-1.53623 0.37846,2.54901 0.37847,0.40878 0.75693,-1.85013 0.37847,1.60158 0.37846,0.7529 0.37847,-0.78308 0.37846,0.28446 0.37847,-0.30256 0.37846,1.57036 0.37847,0.45066 0.37846,1.69747 0.37847,-0.97658 0.37846,-1.65736 0.37847,0.79216 0.37846,-1.18555 0.37847,1.16539 0.37846,-3.69238 0.37847,0.67402 0.37846,-1.13107 0.75693,2.20115 0.37847,-0.67457 0.37846,1.6008 0.37847,-1.33166 0.37846,-0.2142 0.37847,2.85735 0.37846,0.20114 0.37847,-2.1538 0.37847,-0.32518 0.37846,0.50371 0.37847,-0.0498 0.37846,-1.47234 0.37847,1.48617 0.37846,-0.46593 0.37847,0.49397 0.37846,2.00068 0.37847,0.7644 0.37846,-0.55459 0.37847,1.18086 0.37846,2.28583 0.37847,-2.82387 0.37846,0.43564 0.37847,-0.0174 0.37846,-1.48495 0.37847,0.53138 0.37846,-0.17011 0.37847,-1.65759 0.37846,-0.38837 0.37847,3.15839 0.37846,1.57738 0.37847,0.0223 0.37846,-3.70272 0.37847,0.59578 0.37847,3.35191 0.37846,-0.38814 0.37847,0.8536 0.37846,-1.8031 0.37847,1.83413 1.13539,-3.89636 0.37847,-0.58613 0.37846,3.34983 0.37847,0.1369 0.75693,-2.12042 0.37846,-0.45201 0.37847,1.57757 0.37846,-1.60807 0.75693,4.95834 0.37847,-1.65746 0.37846,-0.34681 0.37847,0.34617 0.75693,-2.02459 0.37846,-0.21392 0.37847,-1.08787 0.37846,-2.5489 0.75694,7.64107 0.37846,-1.28432 0.37847,-0.13601 0.37846,1.7928 0.75693,-1.79861 0.37847,1.06634 0.37846,-2.1529 0.37847,-0.2152 1.13539,3.44914 0.37847,-1.25779 0.37846,0.50519 0.37847,-1.14983 0.37846,2.05188 0.37847,-3.41744 0.37846,1.79174 0.37847,0.33919 0.37846,0.65223 0.37847,-2.87972 0.37846,2.95718 0.37847,0.98163 0.75693,-0.0406 0.37846,-2.74675 0.37847,2.55814 0.37847,-1.04585 0.37846,1.10841 0.37847,-2.19882 0.37846,1.45391 0.75693,4.20034 0.37847,-2.40702 0.37846,2.58735 0.37847,1.74283 0.75693,-6.41187 0.37846,3.29633 0.37847,-0.52308 0.37846,0.0741 0.37847,-1.39805 0.37846,2.03998 0.37847,-0.84529 0.37846,-0.35154 0.37847,1.53317 0.37846,-0.85617 0.37847,0.83139 0.37846,-0.49689 0.37847,-1.49091 0.37846,1.04658 0.37847,1.65504 0.37847,-1.63863 0.37846,-2.84564 0.37847,4.37049 0.37846,0.88791 0.37847,-0.91335 0.37846,-0.28185 0.37847,2.96165 0.37846,-1.27599 0.37847,-0.54199 0.75693,0.82988 0.37846,-0.0587 0.37847,2.8741 0.37846,-0.3091 0.37847,-5.28998 0.37846,0.87463 0.37847,-1.56482 0.37846,-0.51028 0.37847,3.89443 0.37846,0.83241 0.37847,2.38997 0.37846,-2.98196 0.37847,0.95742 0.37846,-0.22888 0.37847,-2.28755 0.37846,1.96574 0.37847,0.27051 0.37847,4.73569 0.37846,-4.1244 0.75693,2.16439 0.37847,-2.0074 0.37846,0.6219 0.37847,-2.40613 0.37846,2.9726 0.37847,-1.51106 0.37846,3.15229 0.37847,-2.92639 0.37846,2.37965 0.37847,-0.49516 0.75693,-3.00779 0.37846,3.14338 0.37847,1.34955 0.37846,2.72156 0.37847,-2.5624 0.37846,0.46084 0.37847,-0.0113 0.37846,-4.64804 0.37847,-0.0816 0.37846,2.15777 0.37847,1.14641 0.37846,0.23706 0.37847,-0.39893 0.37847,0.46935 0.37846,-0.0152 0.75693,-1.28116 0.37847,2.77023 0.75693,-3.39971 0.37846,0.43451 0.37847,0.67839 0.37846,2.05962 0.37847,3.10143 0.37846,-2.3919 0.37847,2.42595 0.37846,0.0502 0.37847,-0.0687 0.37846,-1.03323 0.37847,-1.62452 0.37846,-0.32125 0.37847,4.35566 0.37846,-1.20924 0.37847,1.29469 0.37846,0.67787 0.37847,-1.8426 0.37846,0.14391 0.37847,2.91639 0.37847,-2.92616 0.37846,-0.63184 0.37847,1.12135 0.37846,-2.20607 0.75693,1.56867 0.37847,-2.47029 0.37846,2.9164 0.37847,-1.96587 0.37846,-1.24361 0.37847,1.56471 0.37846,0.79845 0.37847,4.17085 0.37846,0.17953 0.75693,-3.36566 0.37847,2.87337 0.37846,0.22209 0.37847,-1.59782 0.37846,0.55534 0.75693,-1.51868 0.37847,-0.0247 0.37846,-0.61988 0.37847,-1.7181 0.37846,2.92408 0.75694,2.43306 0.37846,-0.46192 0.37847,-3.88513 0.37846,2.95193 0.37847,1.81187 0.75693,1.72093 0.37846,-2.51194 0.37847,0.51878 0.37846,1.08636 0.37847,-1.85955 0.37846,0.44776 0.37847,0.27103 0.37846,2.69338 0.37847,-1.33029 0.75693,3.34372 0.37846,-2.19272 0.37847,1.21134 0.37846,2.09595 0.37847,-5.57083 0.37846,3.19808 0.37847,1.97847 0.37846,0.0496 0.75693,-0.63342 0.37847,1.78378 0.37847,-1.42063 0.37846,0.52466 0.37847,1.64552 0.37846,0.59818 0.37847,-1.86865 0.37846,2.29561 0.37847,-1.75286 0.37846,1.84609 0.37847,-3.5311 0.37846,-0.52837 0.37847,1.09523 0.37846,-0.98326 0.37847,-1.83007 0.37846,6.05659 0.37847,0.0264 0.75693,1.62497 0.75693,-4.86397 0.37846,2.2976 0.75693,-1.38392 0.37847,3.69998 0.37846,-2.91413 0.37847,0.42559 0.37847,1.62234 0.37846,-1.40127 0.37847,1.40974 0.37846,2.06986 0.37847,-3.51438 0.37846,0.79179 0.37847,-0.11335 0.37846,-0.77069 0.75693,3.90169 0.37847,-0.25517 0.37846,0.10711 0.37847,-0.26079 0.37846,0.53665 0.37847,-1.66696 0.37846,0.31549 0.37847,0.13515 0.37846,3.01891 0.37847,0.84708 0.37846,-2.0547 0.75693,1.98253 0.37847,0.75266 0.75693,4.64902 0.37846,-6.69726 0.37847,0.54956 0.37847,1.79114 0.37846,-0.11728 0.37847,0.26597 0.75693,3.32584 0.75693,-1.55425 0.37846,-2.81265 0.37847,3.10539 0.37846,-1.9815 0.37847,-1.06721 0.37846,-0.19323 0.37847,2.93988 0.37846,-0.78592 0.37847,-2.67397 0.37846,3.25777 0.37847,-3.7577 0.37846,-1.7554 0.37847,2.17419 0.37846,4.26282 0.37847,-1.3243 0.75693,3.70794 0.75693,-4.87107 0.37846,2.99487 0.37847,-3.51044 0.37847,0.28789 0.75693,2.97827 0.37846,-2.95418 0.37847,1.19458 0.37846,1.95641 0.37847,-1.25823 0.37846,-1.76196 0.37847,3.95728 0.37846,1.87187 0.37847,-0.75839 0.37846,-1.98687 0.37847,0.1429 0.37846,1.13249 0.37847,0.25768 0.37846,0.9254 0.75693,-1.62422 0.37847,-0.31226 0.37846,3.30803 0.37847,-2.56574 0.37846,2.4612 1.1354,-7.46281 0.75693,-12.40439 0.37847,-2.17452 0.37846,-5.39675 0.37847,-1.31879 0.37846,-4.26292 0.37847,-1.87569 0.37846,-3.3274 0.37847,-4.52571 0.37846,2.15948 1.1354,-7.70696 0.37846,0.80457 0.37847,-4.96687 0.37846,-1.30577 0.37847,0.38812 0.37846,-0.0662 0.37847,0.29891 0.37846,-4.81431 0.37847,-2.40489 0.37846,0.97131 0.37847,-1.12606 0.37846,-1.6125 0.37847,1.39742 0.37846,-0.46213 0.37847,-1.85315 0.37847,-1.06465 0.37846,-3.12065 0.75693,-1.27535 0.37847,2.03951 0.37846,-2.74464 0.37847,-1.24751 0.37846,-0.39613 0.37847,-0.0299 0.37846,-2.05988 0.37847,0.91419 0.37846,-4.77291 0.37847,2.76201 0.37846,-0.97795 0.37847,1.8629 0.37846,-3.95115 0.37847,0.54843 0.75693,-4.17558 0.37846,-0.59451 0.37847,-2.62285 0.75693,0.97004 0.37846,0.6273 0.37847,-3.13227 0.37846,-1.32161 0.37847,-3.58913 0.37847,1.30754 0.37846,-4.37882 0.37847,-0.168 0.37846,-3.6574 0.37847,0.88117 0.37846,-1.98036 0.37847,-5.46294 0.37846,0.67254 0.37847,-2.63813 0.37846,-0.12917 0.37847,-2.71461 0.75693,-7.45391 0.37846,0.62078 0.37847,-0.48394 0.37846,-3.11161 0.37847,-1.13134 0.37846,-5.09283 0.37847,0.0285 0.37846,0.31492 0.37847,-2.41723 0.37846,-4.04018 0.37847,0.76998 0.37846,-1.46691 1.1354,-5.583749 0.37847,2.119309 0.37846,-2.357969 0.37847,-0.732845 0.37846,-2.214238 0.37847,-1.096084 0.37846,0.517687 0.37847,-1.461292 0.37846,-0.351675 0.37847,0.01576 0.37846,-0.161556 0.37847,-1.245665 0.37846,-1.941178 0.75693,-1.986801 0.37847,-1.965651 0.37846,4.151288 0.75693,-3.322253 0.37847,-0.310353 0.37846,-3.916632 0.37847,4.104218 0.37846,2.579824 0.37847,0.968381 0.37846,7.790111 0.37847,-2.346499 0,0"
             inkscape:connector-curvature="0" />
        </g>
      </g>
      <g
         id="g3009">
        <path
           id="path3011"
           style="fill:none;stroke:#000000;stroke-width:1;stroke-linecap:square;stroke-linejoin:miter;stroke-miterlimit:10;stroke-opacity:1;stroke-dasharray:none"
           d="M 44.71875,313.2 493.2,313.2"
           inkscape:connector-curvature="0" />
        <path
           id="path3013"
           style="fill:none;stroke:#000000;stroke-width:1;stroke-linecap:square;stroke-linejoin:miter;stroke-miterlimit:10;stroke-opacity:1;stroke-dasharray:none"
           d="m 493.2,43.2 0,270"
           inkscape:connector-curvature="0" />
        <path
           id="path3015"
           style="fill:none;stroke:#000000;stroke-width:1;stroke-linecap:square;stroke-linejoin:miter;stroke-miterlimit:10;stroke-opacity:1;stroke-dasharray:none"
           d="M 44.71875,43.2 493.2,43.2"
           inkscape:connector-curvature="0" />
        <path
           id="path3017"
           style="fill:none;stroke:#000000;stroke-width:1;stroke-linecap:square;stroke-linejoin:miter;stroke-miterlimit:10;stroke-opacity:1;stroke-dasharray:none"
           d="m 44.71875,43.2 0,270"
           inkscape:connector-curvature="0" />
        <path
           id="path3019"
           style="fill:#000000;fill-opacity:1;fill-rule:nonzero;stroke:#000000;stroke-width:0.5;stroke-linecap:butt;stroke-linejoin:round;stroke-miterlimit:10;stroke-opacity:1;stroke-dasharray:none"
           d="m 44.71875,43.2 0,4"
           inkscape:connector-curvature="0" />
        <path
           id="path3021"
           style="fill:#000000;fill-opacity:1;fill-rule:nonzero;stroke:#000000;stroke-width:0.5;stroke-linecap:butt;stroke-linejoin:round;stroke-miterlimit:10;stroke-opacity:1;stroke-dasharray:none"
           d="m 44.71875,313.2 0,-4"
           inkscape:connector-curvature="0" />
        <text
           id="text3023"
           transform="matrix(1,0,0,-1,35.96875,30.075)"
           style="-inkscape-font-specification:Utopia;font-family:Utopia">
          <tspan
             id="tspan3025"
             sodipodi:role="line"
             y="0"
             x="0 7.632 11.448"
             style="font-size:12px;font-variant:normal;font-weight:normal;writing-mode:lr-tb;fill:#000000;fill-opacity:1;fill-rule:nonzero;stroke:none;font-family:Utopia;-inkscape-font-specification:Utopia">0.0</tspan>
        </text>
        <path
           id="path3027"
           style="fill:#000000;fill-opacity:1;fill-rule:nonzero;stroke:#000000;stroke-width:0.5;stroke-linecap:butt;stroke-linejoin:round;stroke-miterlimit:10;stroke-opacity:1;stroke-dasharray:none"
           d="m 180.96622,43.2 0,4"
           inkscape:connector-curvature="0" />
        <path
           id="path3029"
           style="fill:#000000;fill-opacity:1;fill-rule:nonzero;stroke:#000000;stroke-width:0.5;stroke-linecap:butt;stroke-linejoin:round;stroke-miterlimit:10;stroke-opacity:1;stroke-dasharray:none"
           d="m 180.96622,313.2 0,-4"
           inkscape:connector-curvature="0" />
        <text
           id="text3031"
           transform="matrix(1,0,0,-1,172.47403,30.075)"
           style="-inkscape-font-specification:Utopia;font-family:Utopia">
          <tspan
             id="tspan3033"
             sodipodi:role="line"
             y="0"
             x="0 7.632 11.448"
             style="font-size:12px;font-variant:normal;font-weight:normal;writing-mode:lr-tb;fill:#000000;fill-opacity:1;fill-rule:nonzero;stroke:none;font-family:Utopia;-inkscape-font-specification:Utopia">1.0</tspan>
        </text>
        <path
           id="path3035"
           style="fill:#000000;fill-opacity:1;fill-rule:nonzero;stroke:#000000;stroke-width:0.5;stroke-linecap:butt;stroke-linejoin:round;stroke-miterlimit:10;stroke-opacity:1;stroke-dasharray:none"
           d="m 317.21369,43.2 0,4"
           inkscape:connector-curvature="0" />
        <path
           id="path3037"
           style="fill:#000000;fill-opacity:1;fill-rule:nonzero;stroke:#000000;stroke-width:0.5;stroke-linecap:butt;stroke-linejoin:round;stroke-miterlimit:10;stroke-opacity:1;stroke-dasharray:none"
           d="m 317.21369,313.2 0,-4"
           inkscape:connector-curvature="0" />
        <text
           id="text3039"
           transform="matrix(1,0,0,-1,308.50275,30.075)"
           style="-inkscape-font-specification:Utopia;font-family:Utopia">
          <tspan
             id="tspan3041"
             sodipodi:role="line"
             y="0"
             x="0 7.632 11.448"
             style="font-size:12px;font-variant:normal;font-weight:normal;writing-mode:lr-tb;fill:#000000;fill-opacity:1;fill-rule:nonzero;stroke:none;font-family:Utopia;-inkscape-font-specification:Utopia">2.0</tspan>
        </text>
        <path
           id="path3043"
           style="fill:#000000;fill-opacity:1;fill-rule:nonzero;stroke:#000000;stroke-width:0.5;stroke-linecap:butt;stroke-linejoin:round;stroke-miterlimit:10;stroke-opacity:1;stroke-dasharray:none"
           d="m 453.46116,43.2 0,4"
           inkscape:connector-curvature="0" />
        <path
           id="path3045"
           style="fill:#000000;fill-opacity:1;fill-rule:nonzero;stroke:#000000;stroke-width:0.5;stroke-linecap:butt;stroke-linejoin:round;stroke-miterlimit:10;stroke-opacity:1;stroke-dasharray:none"
           d="m 453.46116,313.2 0,-4"
           inkscape:connector-curvature="0" />
        <text
           id="text3047"
           transform="matrix(1,0,0,-1,444.77366,30.075)"
           style="-inkscape-font-specification:Utopia;font-family:Utopia">
          <tspan
             id="tspan3049"
             sodipodi:role="line"
             y="0"
             x="0 7.632 11.448"
             style="font-size:12px;font-variant:normal;font-weight:normal;writing-mode:lr-tb;fill:#000000;fill-opacity:1;fill-rule:nonzero;stroke:none;font-family:Utopia;-inkscape-font-specification:Utopia">3.0</tspan>
        </text>
        <text
           id="text3051"
           transform="matrix(1,0,0,-1,244.56094,13.45)"
           style="-inkscape-font-specification:Utopia;font-family:Utopia">
          <tspan
             id="tspan3053"
             sodipodi:role="line"
             y="0"
             x="0 8.2200003 15.6 18.936001 23.639999 27.455999 30.792 38.400002 42.216"
             style="font-size:12px;font-variant:normal;font-weight:normal;writing-mode:lr-tb;fill:#000000;fill-opacity:1;fill-rule:nonzero;stroke:none;font-family:Utopia;-inkscape-font-specification:Utopia">Zeit in h</tspan>
        </text>
        <path
           id="path3055"
           style="fill:#000000;fill-opacity:1;fill-rule:nonzero;stroke:#000000;stroke-width:0.5;stroke-linecap:butt;stroke-linejoin:round;stroke-miterlimit:10;stroke-opacity:1;stroke-dasharray:none"
           d="m 44.71875,43.2 4,0"
           inkscape:connector-curvature="0" />
        <path
           id="path3057"
           style="fill:#000000;fill-opacity:1;fill-rule:nonzero;stroke:#000000;stroke-width:0.5;stroke-linecap:butt;stroke-linejoin:round;stroke-miterlimit:10;stroke-opacity:1;stroke-dasharray:none"
           d="m 493.2,43.2 -4,0"
           inkscape:connector-curvature="0" />
        <text
           id="text3059"
           transform="matrix(1,0,0,-1,34.671875,39.8875)"
           style="-inkscape-font-specification:Utopia;font-family:Utopia">
          <tspan
             id="tspan3061"
             y="0"
             x="0"
             style="font-size:12px;font-variant:normal;font-weight:normal;writing-mode:lr-tb;fill:#000000;fill-opacity:1;fill-rule:nonzero;stroke:none;font-family:Utopia;-inkscape-font-specification:Utopia">0</tspan>
        </text>
        <path
           id="path3063"
           style="fill:#000000;fill-opacity:1;fill-rule:nonzero;stroke:#000000;stroke-width:0.5;stroke-linecap:butt;stroke-linejoin:round;stroke-miterlimit:10;stroke-opacity:1;stroke-dasharray:none"
           d="m 44.71875,81.771429 4,0"
           inkscape:connector-curvature="0" />
        <path
           id="path3065"
           style="fill:#000000;fill-opacity:1;fill-rule:nonzero;stroke:#000000;stroke-width:0.5;stroke-linecap:butt;stroke-linejoin:round;stroke-miterlimit:10;stroke-opacity:1;stroke-dasharray:none"
           d="m 493.2,81.771429 -4,0"
           inkscape:connector-curvature="0" />
        <text
           id="text3067"
           transform="matrix(1,0,0,-1,35.15625,78.458929)"
           style="-inkscape-font-specification:Utopia;font-family:Utopia">
          <tspan
             id="tspan3069"
             y="0"
             x="0"
             style="font-size:12px;font-variant:normal;font-weight:normal;writing-mode:lr-tb;fill:#000000;fill-opacity:1;fill-rule:nonzero;stroke:none;font-family:Utopia;-inkscape-font-specification:Utopia">2</tspan>
        </text>
        <path
           id="path3071"
           style="fill:#000000;fill-opacity:1;fill-rule:nonzero;stroke:#000000;stroke-width:0.5;stroke-linecap:butt;stroke-linejoin:round;stroke-miterlimit:10;stroke-opacity:1;stroke-dasharray:none"
           d="m 44.71875,120.34286 4,0"
           inkscape:connector-curvature="0" />
        <path
           id="path3073"
           style="fill:#000000;fill-opacity:1;fill-rule:nonzero;stroke:#000000;stroke-width:0.5;stroke-linecap:butt;stroke-linejoin:round;stroke-miterlimit:10;stroke-opacity:1;stroke-dasharray:none"
           d="m 493.2,120.34286 -4,0"
           inkscape:connector-curvature="0" />
        <text
           id="text3075"
           transform="matrix(1,0,0,-1,34.34375,117.03036)"
           style="-inkscape-font-specification:Utopia;font-family:Utopia">
          <tspan
             id="tspan3077"
             y="0"
             x="0"
             style="font-size:12px;font-variant:normal;font-weight:normal;writing-mode:lr-tb;fill:#000000;fill-opacity:1;fill-rule:nonzero;stroke:none;font-family:Utopia;-inkscape-font-specification:Utopia">4</tspan>
        </text>
        <path
           id="path3079"
           style="fill:#000000;fill-opacity:1;fill-rule:nonzero;stroke:#000000;stroke-width:0.5;stroke-linecap:butt;stroke-linejoin:round;stroke-miterlimit:10;stroke-opacity:1;stroke-dasharray:none"
           d="m 44.71875,158.91429 4,0"
           inkscape:connector-curvature="0" />
        <path
           id="path3081"
           style="fill:#000000;fill-opacity:1;fill-rule:nonzero;stroke:#000000;stroke-width:0.5;stroke-linecap:butt;stroke-linejoin:round;stroke-miterlimit:10;stroke-opacity:1;stroke-dasharray:none"
           d="m 493.2,158.91429 -4,0"
           inkscape:connector-curvature="0" />
        <text
           id="text3083"
           transform="matrix(1,0,0,-1,34.6875,155.60179)"
           style="-inkscape-font-specification:Utopia;font-family:Utopia">
          <tspan
             id="tspan3085"
             y="0"
             x="0"
             style="font-size:12px;font-variant:normal;font-weight:normal;writing-mode:lr-tb;fill:#000000;fill-opacity:1;fill-rule:nonzero;stroke:none;font-family:Utopia;-inkscape-font-specification:Utopia">6</tspan>
        </text>
        <path
           id="path3087"
           style="fill:#000000;fill-opacity:1;fill-rule:nonzero;stroke:#000000;stroke-width:0.5;stroke-linecap:butt;stroke-linejoin:round;stroke-miterlimit:10;stroke-opacity:1;stroke-dasharray:none"
           d="m 44.71875,197.48571 4,0"
           inkscape:connector-curvature="0" />
        <path
           id="path3089"
           style="fill:#000000;fill-opacity:1;fill-rule:nonzero;stroke:#000000;stroke-width:0.5;stroke-linecap:butt;stroke-linejoin:round;stroke-miterlimit:10;stroke-opacity:1;stroke-dasharray:none"
           d="m 493.2,197.48571 -4,0"
           inkscape:connector-curvature="0" />
        <text
           id="text3091"
           transform="matrix(1,0,0,-1,34.71875,194.17321)"
           style="-inkscape-font-specification:Utopia;font-family:Utopia">
          <tspan
             id="tspan3093"
             y="0"
             x="0"
             style="font-size:12px;font-variant:normal;font-weight:normal;writing-mode:lr-tb;fill:#000000;fill-opacity:1;fill-rule:nonzero;stroke:none;font-family:Utopia;-inkscape-font-specification:Utopia">8</tspan>
        </text>
        <path
           id="path3095"
           style="fill:#000000;fill-opacity:1;fill-rule:nonzero;stroke:#000000;stroke-width:0.5;stroke-linecap:butt;stroke-linejoin:round;stroke-miterlimit:10;stroke-opacity:1;stroke-dasharray:none"
           d="m 44.71875,236.05714 4,0"
           inkscape:connector-curvature="0" />
        <path
           id="path3097"
           style="fill:#000000;fill-opacity:1;fill-rule:nonzero;stroke:#000000;stroke-width:0.5;stroke-linecap:butt;stroke-linejoin:round;stroke-miterlimit:10;stroke-opacity:1;stroke-dasharray:none"
           d="m 493.2,236.05714 -4,0"
           inkscape:connector-curvature="0" />
        <text
           id="text3099"
           transform="matrix(1,0,0,-1,27.546875,232.74464)"
           style="-inkscape-font-specification:Utopia;font-family:Utopia">
          <tspan
             id="tspan3101"
             sodipodi:role="line"
             y="0"
             x="0 7.632"
             style="font-size:12px;font-variant:normal;font-weight:normal;writing-mode:lr-tb;fill:#000000;fill-opacity:1;fill-rule:nonzero;stroke:none;font-family:Utopia;-inkscape-font-specification:Utopia">10</tspan>
        </text>
        <path
           id="path3103"
           style="fill:#000000;fill-opacity:1;fill-rule:nonzero;stroke:#000000;stroke-width:0.5;stroke-linecap:butt;stroke-linejoin:round;stroke-miterlimit:10;stroke-opacity:1;stroke-dasharray:none"
           d="m 44.71875,274.62857 4,0"
           inkscape:connector-curvature="0" />
        <path
           id="path3105"
           style="fill:#000000;fill-opacity:1;fill-rule:nonzero;stroke:#000000;stroke-width:0.5;stroke-linecap:butt;stroke-linejoin:round;stroke-miterlimit:10;stroke-opacity:1;stroke-dasharray:none"
           d="m 493.2,274.62857 -4,0"
           inkscape:connector-curvature="0" />
        <text
           id="text3107"
           transform="matrix(1,0,0,-1,27.953125,271.31607)"
           style="-inkscape-font-specification:Utopia;font-family:Utopia">
          <tspan
             id="tspan3109"
             sodipodi:role="line"
             y="0"
             x="0 7.632"
             style="font-size:12px;font-variant:normal;font-weight:normal;writing-mode:lr-tb;fill:#000000;fill-opacity:1;fill-rule:nonzero;stroke:none;font-family:Utopia;-inkscape-font-specification:Utopia">12</tspan>
        </text>
        <path
           id="path3111"
           style="fill:#000000;fill-opacity:1;fill-rule:nonzero;stroke:#000000;stroke-width:0.5;stroke-linecap:butt;stroke-linejoin:round;stroke-miterlimit:10;stroke-opacity:1;stroke-dasharray:none"
           d="m 44.71875,313.2 4,0"
           inkscape:connector-curvature="0" />
        <path
           id="path3113"
           style="fill:#000000;fill-opacity:1;fill-rule:nonzero;stroke:#000000;stroke-width:0.5;stroke-linecap:butt;stroke-linejoin:round;stroke-miterlimit:10;stroke-opacity:1;stroke-dasharray:none"
           d="m 493.2,313.2 -4,0"
           inkscape:connector-curvature="0" />
        <text
           id="text3115"
           transform="matrix(0,1,1,0,20.046875,104.09844)"
           style="-inkscape-font-specification:Utopia;font-family:Utopia">
          <tspan
             id="tspan3117"
             sodipodi:role="line"
             y="0"
             x="0 7.3319998 14.712 26.4 34.02 41.400002 46.332001 53.688 58.391998 66 70.931999 78.552002 81.888 86.112 90.335999 97.716003 102.648 110.028 117.636 123.936 127.752 131.088 138.696 142.51199"
             style="font-size:12px;font-variant:normal;font-weight:normal;writing-mode:lr-tb;fill:#000000;fill-opacity:1;fill-rule:nonzero;stroke:none;font-family:Utopia;-inkscape-font-specification:Utopia">Temperaturdifferenz in K</tspan>
        </text>
        <path
           id="path3119"
           style="fill:#ffffff;fill-opacity:1;fill-rule:nonzero;stroke:#000000;stroke-width:1;stroke-linecap:butt;stroke-linejoin:miter;stroke-miterlimit:10;stroke-opacity:1;stroke-dasharray:none"
           d="m 410,283.475 77.2,0 0,23.725 -77.2,0 0,-23.725 z"
           inkscape:connector-curvature="0" />
        <path
           id="path3121"
           style="fill:none;stroke:#0000ff;stroke-width:1;stroke-linecap:square;stroke-linejoin:round;stroke-miterlimit:10;stroke-opacity:1;stroke-dasharray:none"
           d="m 418.4,297.475 16.8,0"
           inkscape:connector-curvature="0" />
        <g
           transform="translate(448.4,293.275)"
           id="g3123">
          <text
             id="text3125"
             transform="matrix(1,0,0,-1,0,0.40625)">
            <tspan
               id="tspan3127"
               y="0"
               x="0"
               style="font-size:12px;font-variant:normal;font-weight:normal;writing-mode:lr-tb;fill:#000000;fill-opacity:1;fill-rule:nonzero;stroke:none;font-family:Cmr10;-inkscape-font-specification:Cmr10">∆</tspan>
          </text>
          <text
             id="text3129"
             transform="matrix(1,0,0,-1,9.9960938,0.40625)"
             style="-inkscape-font-specification:Utopia Italic;font-family:Utopia;font-style:italic">
            <tspan
               id="tspan3131"
               y="0"
               x="0"
               style="font-size:12px;font-variant:normal;font-weight:normal;writing-mode:lr-tb;fill:#000000;fill-opacity:1;fill-rule:nonzero;stroke:none;font-family:Utopia;-inkscape-font-specification:Utopia Italic;font-style:italic">T</tspan>
          </text>
          <text
             id="text3133"
             transform="matrix(1,0,0,-1,17.003906,-2.654875)">
            <tspan
               id="tspan3135"
               sodipodi:role="line"
               y="0"
               x="0 5.7134767 8.2055855 12.110273"
               style="font-size:8.39999961999999910px;font-variant:normal;font-weight:normal;writing-mode:lr-tb;fill:#000000;fill-opacity:1;fill-rule:nonzero;stroke:none;font-family:Utopia;-inkscape-font-specification:Utopia Italic;font-style:italic">L,ev</tspan>
          </text>
        </g>
      </g>
    </g>
  </g>
</svg>
