<?xml version="1.0" encoding="UTF-8" standalone="no"?>
<!-- Created with Inkscape (http://www.inkscape.org/) -->

<svg
   xmlns:dc="http://purl.org/dc/elements/1.1/"
   xmlns:cc="http://creativecommons.org/ns#"
   xmlns:rdf="http://www.w3.org/1999/02/22-rdf-syntax-ns#"
   xmlns:svg="http://www.w3.org/2000/svg"
   xmlns="http://www.w3.org/2000/svg"
   xmlns:sodipodi="http://sodipodi.sourceforge.net/DTD/sodipodi-0.dtd"
   xmlns:inkscape="http://www.inkscape.org/namespaces/inkscape"
   width="297mm"
   height="210mm"
   viewBox="0 0 297 210"
   version="1.1"
   id="svg8"
   inkscape:version="0.92.3 (2405546, 2018-03-11)"
   sodipodi:docname="T_air,evap1.svg">
  <defs
     id="defs2">
    <clipPath
       id="clipPath30"
       clipPathUnits="userSpaceOnUse">
      <path
         inkscape:connector-curvature="0"
         id="path28"
         d="M 44.71875,43.2 H 493.2 v 270 H 44.71875 Z" />
    </clipPath>
    <clipPath
       id="clipPath40"
       clipPathUnits="userSpaceOnUse">
      <path
         inkscape:connector-curvature="0"
         id="path38"
         d="M 44.71875,43.2 H 493.2 v 270 H 44.71875 Z" />
    </clipPath>
  </defs>
  <sodipodi:namedview
     id="base"
     pagecolor="#ffffff"
     bordercolor="#666666"
     borderopacity="1.0"
     inkscape:pageopacity="0.0"
     inkscape:pageshadow="2"
     inkscape:zoom="1.4"
     inkscape:cx="357.11998"
     inkscape:cy="325.96377"
     inkscape:document-units="mm"
     inkscape:current-layer="g44"
     showgrid="false"
     inkscape:window-width="1920"
     inkscape:window-height="1017"
     inkscape:window-x="-8"
     inkscape:window-y="-8"
     inkscape:window-maximized="1" />
  <metadata
     id="metadata5">
    <rdf:RDF>
      <cc:Work
         rdf:about="">
        <dc:format>image/svg+xml</dc:format>
        <dc:type
           rdf:resource="http://purl.org/dc/dcmitype/StillImage" />
        <dc:title></dc:title>
      </cc:Work>
    </rdf:RDF>
  </metadata>
  <g
     inkscape:label="Layer 1"
     inkscape:groupmode="layer"
     id="layer1"
     transform="translate(0,-87)">
    <g
       transform="matrix(0.35277777,0,0,-0.35277777,53.219053,250.58452)"
       inkscape:label="T_air,evap"
       id="g18">
      <path
         inkscape:connector-curvature="0"
         id="path20"
         style="fill:#ffffff;fill-opacity:1;fill-rule:nonzero;stroke:none"
         d="M 0,0 H 504 V 324 H 0 Z" />
      <path
         inkscape:connector-curvature="0"
         id="path22"
         style="fill:#ffffff;fill-opacity:1;fill-rule:nonzero;stroke:none"
         d="M 44.71875,43.2 H 493.2 v 270 H 44.71875 Z" />
      <g
         id="g24">
        <g
           clip-path="url(#clipPath30)"
           id="g26">
          <path
             inkscape:connector-curvature="0"
             id="path32"
             style="fill:none;stroke:#0000ff;stroke-width:1;stroke-linecap:square;stroke-linejoin:round;stroke-miterlimit:10;stroke-dasharray:none;stroke-opacity:1"
             d="m 44.71875,229.50627 0.378465,2.89001 0.378465,-2.06653 0.378466,0.46335 0.378465,-1.06097 0.378465,0.94055 0.378465,-3.53297 0.378465,-0.0563 0.378466,1.35215 0.378465,-1.08917 0.378465,-1.84339 0.378465,1.58329 0.378465,0.48089 0.378465,-2.55633 0.378466,1.39081 0.75693,-1.09874 0.75693,2.00483 0.378466,0.10646 0.378465,-2.02516 0.378465,1.38103 0.378465,-2.33603 0.378465,0.4179 0.378466,0.0234 0.378465,1.75277 0.378465,-2.56062 0.378465,2.96615 0.378465,-1.83559 0.378466,-3.52569 0.378465,6.96311 0.378465,-3.75316 0.378465,2.8672 0.378465,-1.65263 0.378465,-1.01802 0.378466,0.009 0.378465,-0.93419 0.378465,1.07022 0.378465,3.98441 0.378465,-3.43507 0.378466,4.91291 0.378465,1.76596 0.378465,0.0513 0.378465,-2.88189 0.378465,2.02209 0.378466,-1.86238 0.378465,1.81945 0.378465,0.0259 0.378465,-0.20357 0.378465,2.30189 0.378465,-0.11645 0.378466,0.6238 0.378465,0.10549 0.378465,1.34833 0.378465,0.37198 0.378465,4.39398 0.378466,0.79463 0.378465,-2.9064 0.378465,3.22029 0.378465,-0.54813 0.378465,1.70065 0.378466,0.4277 0.378465,1.46906 0.378465,0.78134 0.75693,4.38887 0.378466,-0.20692 0.378465,6.17264 0.378465,0.28157 0.378465,-0.34631 0.378465,1.96718 0.378465,2.82883 0.378466,0.1926 0.378465,2.87889 0.378465,0.4371 1.135396,5.98374 0.378465,0.51656 0.75693,4.5646 0.378465,0.2528 0.756931,4.6027 0.75693,3.03163 0.378465,-0.18696 0.378466,1.79214 0.378465,-1.4454 0.378465,2.29748 0.378465,-1.59058 0.378465,5.22897 0.378465,-1.77074 0.378466,0.12735 0.378465,3.71105 0.378465,-0.59516 0.378465,2.10445 0.378465,0.35318 0.378466,-0.71333 0.378465,1.00047 0.378465,0.3317 0.378465,-1.61829 0.378465,-3.16296 0.378466,-0.1875 0.378465,2.16248 0.378465,-2.49418 0.378465,-0.39281 1.513861,-10.71066 0.378465,-3.57122 0.378465,-0.87685 0.756931,-6.83554 0.378465,-0.63909 0.378465,-1.63634 0.378465,-3.46856 0.378465,-0.56777 0.378466,0.97197 0.378465,-4.37683 1.135395,-7.7203 0.378466,0.86898 0.378465,-0.0129 0.378465,-1.85826 0.378465,-2.98118 1.135396,-1.57091 0.378465,0.52945 0.378465,-3.18835 0.378465,-1.13926 0.378465,0.0635 0.378466,-1.55154 0.378465,-0.7006 0.378465,-1.15752 0.378465,-0.38456 0.378465,-1.84057 0.756931,0.33745 0.378465,1.3195 0.378465,-3.20993 0.378465,-1.73905 0.378466,0.50615 0.378465,0.0482 0.378462,-0.33957 0.37847,-1.48416 0.37846,4.21684 0.37847,-4.56428 0.37846,-0.2563 0.37847,1.13129 0.37846,-0.60355 0.37847,0.46828 0.37846,-0.6859 0.75693,-3.20063 0.37847,-0.95761 0.37847,-0.59108 0.37846,-0.31422 0.37847,0.72381 0.37846,2.1829 0.37847,0.99083 0.37846,-4.01821 0.37847,0.44933 0.37846,-0.16221 0.37847,0.74307 0.37846,-0.18739 0.37847,0.10913 0.37846,-0.53592 0.37847,1.86307 0.37846,-4.39125 0.37847,0.52402 0.37846,1.4962 0.37847,-0.65622 0.37846,-0.95986 0.37847,0.98199 0.37846,2.54335 0.37847,0.36726 0.37846,-3.49141 0.37847,0.37456 0.75693,-1.9805 0.37846,1.21298 0.37847,2.84221 0.37847,-1.70509 0.75693,0.90378 0.37846,-0.27722 0.37847,0.99444 0.37846,-0.25923 0.37847,0.0542 0.37846,-2.07187 1.1354,3.82467 0.37846,-2.9443 0.37847,1.36992 0.37846,0.0535 0.37847,-1.75152 0.37846,0.59378 0.37847,1.79067 0.37846,-2.2518 0.37847,1.03392 0.37846,-0.24329 0.37847,1.90088 0.37846,1.21161 0.37847,-4.00581 0.37846,-0.44661 0.37847,0.12348 0.37847,-1.16429 0.37846,1.42132 0.37847,-1.8363 0.37846,7.20714 0.37847,-1.37186 0.37846,-0.51058 0.37847,0.23101 0.37846,-2.57429 0.37847,0.54358 0.37846,-1.67164 0.37847,0.87846 0.37846,-1.35855 0.37847,0.76294 0.37846,1.72919 0.37847,-2.52459 0.37846,-1.31948 0.37847,2.47158 0.37846,0.73637 0.37847,-1.82751 0.37846,-1.04185 0.37847,0.51601 0.37846,-1.61601 0.37847,1.81627 0.37846,-1.90417 0.37847,0.41662 0.37846,-0.29284 0.37847,1.80511 0.37847,0.52703 0.37846,-0.68398 0.37847,1.48837 0.37846,3.20966 0.37847,-3.71553 0.75693,-1.95572 0.37846,0.17389 0.37847,-0.80401 0.37846,0.50041 0.37847,1.26795 0.37846,-0.34606 0.37847,0.52967 0.37846,-0.14405 0.37847,-0.58467 0.37846,-1.52927 0.37847,-2.03636 0.37846,2.10724 0.37847,-1.30453 0.37846,0.89003 0.37847,-0.0992 0.37846,-1.15799 0.37847,0.1573 0.37846,2.55827 0.37847,0.70034 0.37846,-1.34062 0.37847,1.25053 0.37847,-3.08514 0.37846,2.69877 0.37847,-1.10204 0.37846,-0.72855 0.37847,0.6143 0.37846,-0.77673 0.37847,1.77984 0.37846,-3.04478 0.37847,2.90596 0.37846,-2.56481 0.37847,1.38489 0.37846,0.0473 0.37847,-0.69735 0.37846,-0.45904 0.37847,0.74491 0.37846,0.20262 0.37847,0.0574 0.37846,-1.07542 0.37847,1.43909 0.37846,-1.06292 0.37847,-2.80087 0.37846,3.2141 0.37847,-1.41444 0.75693,0.61923 0.37847,0.82575 0.37846,1.26463 0.37847,-1.44096 0.37846,0.21179 0.37847,-1.19584 0.37846,0.24294 0.37847,2.28616 0.75693,-3.48382 0.37846,-0.0755 0.75693,1.5253 0.37847,1.70333 0.37846,-2.49859 0.37847,0.71684 0.37846,-0.64593 0.37847,1.36561 0.37846,-2.72054 0.37847,1.54604 0.37846,0.35246 0.37847,-0.17988 0.37846,-2.8992 0.37847,2.74184 0.37846,0.57975 0.37847,-0.89401 0.37846,3.49666 0.37847,-2.44465 0.37847,1.221 0.37846,-2.23824 0.37847,-1.31449 0.37846,0.95531 0.37847,-0.57051 0.37846,0.73921 0.37847,-4.50417 0.37846,5.36225 0.37847,-1.61569 0.37846,-0.50731 0.37847,0.0515 0.37846,-1.56673 0.37847,0.70482 0.37846,-1.85624 0.75693,4.03786 0.37847,0.56565 0.37846,-2.12831 0.37847,2.37574 0.37846,0.31543 0.37847,-1.04086 0.37846,3.35244 0.37847,-0.40934 0.37846,-1.41323 0.37847,0.68103 0.37846,-1.49661 0.37847,1.10097 0.37847,-0.52189 0.37846,-1.08662 0.37847,-0.1277 0.37846,-0.48922 0.37847,-1.29815 0.37846,1.17777 0.37847,-2.3518 0.37846,2.60876 0.37847,0.004 0.37846,-2.18831 0.37847,1.29167 0.37846,-0.43449 0.37847,0.95256 0.37846,0.23323 0.37847,-1.74324 0.37846,1.97977 0.37847,-0.93095 0.37846,0.10766 0.37847,-0.45422 0.37846,-0.82898 0.37847,0.37583 0.37846,2.62485 0.37847,-0.44239 0.37846,-3.00887 0.37847,1.09775 0.37847,-1.07161 0.37846,1.75977 0.37847,-0.42215 0.37846,0.37159 0.37847,1.73538 0.37846,-1.41392 0.37847,0.55705 0.37846,-0.53448 0.37847,1.91609 0.37846,-3.94167 0.37847,1.1574 0.37846,1.99364 0.37847,0.61464 0.37846,-1.74585 0.37847,1.6196 0.37846,-0.91641 0.75693,-0.53594 0.37847,-0.96614 0.37846,1.84161 0.37847,-0.0781 0.37846,0.86627 0.37847,-4.30832 0.37846,1.24968 0.37847,-0.66734 0.75693,3.55514 0.37847,-1.07666 0.37846,0.12894 0.37847,-0.0777 0.37846,0.19416 0.37847,0.95901 0.37846,1.30814 0.75693,-3.1392 0.37847,-0.19674 0.37846,0.0887 0.75693,5.39989 0.37847,-2.783 0.37846,-1.28 0.37847,2.28626 0.37846,-1.55815 0.37847,-0.79526 0.37846,-1.35198 0.37847,1.43674 0.37846,-0.21925 0.37847,3.33665 0.37846,1.59811 0.37847,-3.39247 0.75693,-1.11094 0.37846,-1.61085 0.37847,0.71509 0.37847,-0.94672 0.37846,2.66406 0.75693,-1.30893 0.37847,0.28323 0.37846,-0.97751 0.37847,2.09784 0.75693,-2.66604 0.75693,3.09778 0.37846,-0.36004 0.37847,0.45895 0.37846,0.82714 0.37847,-2.70935 0.37846,1.46008 0.37847,1.91706 0.37846,-1.04297 0.37847,-1.51622 0.37846,0.68358 0.37847,-1.54347 1.13539,-1.21677 0.37847,3.55481 0.37847,-0.6666 0.37846,-1.16826 0.37847,-1.63745 0.37846,4.55485 0.37847,-2.78752 0.37846,0.62178 0.37847,-0.61085 0.37846,0.89722 0.37847,-0.83312 0.37846,-1.6762 0.37847,4.32821 0.37846,0.22239 0.37847,-4.64228 0.37846,1.59626 0.75693,1.61879 0.37847,0.0425 0.37846,0.43345 0.37847,-0.33772 0.37846,0.16528 0.37847,1.91453 0.37846,-0.0467 0.37847,-1.43072 0.37846,-0.53529 0.37847,-1.33793 0.75693,1.42882 0.37847,1.28791 0.37846,-1.41723 0.37847,-2.58065 0.37846,4.23133 0.37847,-3.05228 0.37846,-0.74714 0.37847,-0.4384 0.37846,2.9843 0.75693,-3.9759 0.37847,2.87512 0.37846,-0.66617 0.37847,1.04149 0.37846,-1.2651 0.37847,3.00302 0.37846,-0.65022 0.37847,-2.99369 0.37846,0.23974 0.37847,0.43248 0.37846,0.66558 0.37847,-0.006 0.37846,1.3666 0.37847,-0.93252 0.37846,1.35169 0.75693,-0.54962 0.37847,-0.63365 0.37847,-1.19042 0.37846,10e-4 0.37847,-0.88973 0.37846,-1.29952 0.37847,1.01812 0.37846,1.49372 0.37847,0.93245 0.37846,-0.36127 0.75693,-1.64092 0.37847,3.25688 0.37846,-2.19094 0.37847,1.74365 0.37846,-2.3686 0.37847,5.08067 0.37846,-1.35645 0.37847,-2.00162 0.37846,-0.90734 0.37847,2.37299 0.37846,-1.33457 0.37847,-2.11271 0.37846,3.28987 0.37847,-0.96013 0.37846,-4.10847 0.37847,3.34674 0.37847,1.57694 0.37846,-1.39183 0.75693,-0.50836 0.37847,-1.74013 0.37846,1.824 0.37847,0.26707 0.37846,-0.16365 0.37847,-1.31567 0.37846,0.51925 0.37847,1.08058 0.37846,0.1123 0.37847,0.44961 0.37846,-1.45324 0.37847,2.01856 0.37846,-0.71574 0.37847,0.11891 0.37846,-0.0524 0.37847,1.76066 0.37846,-0.50947 0.75693,-2.02594 0.37847,1.93806 0.37846,-0.61388 0.37847,-1.44413 0.37846,-1.99041 0.75694,0.79696 0.37846,3.75454 0.37847,-0.19574 0.37846,-3.04746 0.37847,1.6867 0.37846,-1.95939 0.37847,-0.0607 0.75693,2.76789 0.37846,-2.44656 0.37847,0.9113 0.37846,1.4129 0.37847,-1.64709 0.37846,1.31757 0.37847,0.7991 0.37846,-2.14652 0.37847,3.2402 0.75693,-4.47744 0.37846,2.48736 0.37847,-1.74673 0.37846,0.64672 0.75693,-1.28117 0.37847,1.22403 0.37846,0.5706 0.37847,1.67595 0.37847,-0.52706 0.37846,-2.66863 0.37847,1.44177 0.37846,-1.71735 0.37847,0.21825 0.37846,1.82945 0.37847,-2.37465 0.37846,2.32905 0.37847,1.00756 0.37846,-1.76252 0.37847,0.81963 0.37846,-2.32712 0.37847,-0.48537 0.37846,1.48635 0.37847,2.5375 0.37846,-2.16922 0.37847,-0.39207 0.37846,2.05413 0.37847,-2.21512 0.37846,1.29315 0.37847,-0.008 0.37846,-2.2616 0.37847,1.60908 0.37846,1.01131 0.37847,0.0768 0.37847,-0.37504 0.37846,0.63456 0.37847,0.065 0.37846,-1.98028 0.75693,0.94847 0.37847,2.32207 0.75693,-1.56296 0.75693,-2.76414 0.37846,-0.495 0.37847,3.51932 0.75693,1.77667 0.37846,-4.21802 0.37847,2.07301 0.37846,1.02389 0.37847,-0.59554 0.37846,2.35944 0.37847,-1.80438 0.75693,-1.00711 0.37846,-1.33408 0.37847,0.65058 0.37846,1.85504 0.37847,1.1916 0.37847,-2.80121 0.37846,2.2899 0.37847,-0.66456 0.37846,-2.90769 0.75693,3.34321 0.37847,-1.73747 0.37846,1.036 0.37847,-0.3106 0.37846,-3.24963 0.37847,2.99051 0.37846,0.77909 0.37847,-1.43768 0.37846,1.46439 0.37847,-2.70699 0.37846,2.26388 0.37847,0.15762 0.37846,2.0254 0.37847,-3.39201 0.37846,-0.78119 0.37847,2.62206 0.37846,0.50981 0.37847,-2.36678 0.37846,3.32738 0.37847,-0.45129 0.37846,-1.25369 0.37847,-2.72434 0.37847,2.05155 0.37846,0.0876 0.37847,-1.24794 0.37846,-0.0958 0.37847,0.0568 0.37846,0.33281 0.37847,1.8928 0.37846,-2.33785 0.37847,0.1017 0.75693,3.11441 0.37846,-1.31415 0.37847,2.22852 0.37846,-1.7605 0.37847,0.24907 0.37846,0.008 0.37847,0.85693 0.37846,-0.10729 1.1354,-4.97031 0.37846,2.59237 0.37847,-0.21814 0.37846,0.46369 0.37847,0.0196 0.37847,2.11933 0.37846,-2.99278 0.37847,2.8105 0.37846,-0.24661 0.37847,-1.35553 0.37846,1.34678 0.37847,-2.13665 0.75693,4.50266 0.37846,-2.6313 0.37847,-1.72746 0.37846,0.0841 0.37847,0.28302 0.37846,0.87969 0.37847,3.55626 0.37846,-1.89248 0.37847,-3.06265 0.37846,2.51195 0.37847,-0.62621 0.37846,0.50087 0.37847,-1.34002 0.37846,-0.77374 0.37847,2.07207 0.75693,-3.49259 0.37846,2.19254 0.37847,0.19295 0.37847,-0.60929 0.37846,-0.92818 0.37847,1.24848 0.37846,0.60885 0.37847,-0.88181 0.37846,0.49158 0.37847,-0.37979 0.37846,1.29488 0.37847,0.26219 0.37846,1.76643 0.37847,-0.66018 0.37846,-1.72789 0.37847,0.70628 0.37846,-0.89542 0.37847,0.96351 0.37846,-3.31371 0.37847,0.63733 0.37846,-1.09814 0.37847,1.04886 0.37846,0.65549 0.37847,-0.83311 0.37846,1.68932 0.37847,-1.43456 0.37846,-0.38745 0.37847,2.56023 0.37846,0.40119 0.37847,-2.19399 0.37847,-0.4829 0.75693,0.67316 0.37846,-1.4315 0.37847,1.37056 0.37846,-0.63997 0.37847,0.4242 0.37846,1.73031 0.37847,0.73265 0.37846,-0.49565 0.37847,1.02818 0.37846,1.95755 0.37847,-2.58476 0.37846,0.55985 0.37847,-0.23101 0.37846,-1.38455 0.37847,0.48023 0.37846,-0.003 0.37847,-1.51799 0.37846,-0.49461 0.37847,2.80448 0.37846,1.31557 0.37847,0.0189 0.37846,-3.33041 0.37847,0.4718 0.37847,2.93944 0.37846,-0.40367 0.37847,0.62194 0.37846,-1.54714 0.37847,1.73785 1.13539,-3.42718 0.37847,-0.46485 0.37846,2.72573 0.37847,-0.28978 1.13539,-2.33884 0.37847,1.13842 0.37846,-1.15616 0.75693,4.43229 0.37847,-1.81072 0.37846,-0.34206 0.37847,0.275 0.37846,-1.2555 0.37847,-0.61378 0.37846,-0.17051 0.37847,-1.12519 0.37846,-2.27022 0.75694,6.73406 0.37846,-1.06072 0.37847,-0.12186 0.37846,1.45084 0.75693,-1.86558 0.37847,0.87983 0.37846,-1.88761 0.37847,-0.33174 1.13539,3.04986 0.37847,-1.13427 0.37846,0.5381 0.37847,-0.89534 0.37846,1.75892 0.37847,-3.04128 0.37846,1.54437 0.37847,0.20588 0.37846,0.53703 0.37847,-2.5411 0.37846,2.3503 0.37847,0.94454 0.37846,0.0678 0.37847,-0.0658 0.37846,-2.1933 0.37847,1.963 0.37847,-1.08111 0.37846,0.96444 0.37847,-2.10424 0.37846,1.25467 0.37847,2.25335 0.37846,1.34982 0.37847,-1.98321 0.37846,2.31535 0.37847,1.44039 0.75693,-5.75263 0.37846,2.96521 0.37847,-0.58373 0.37846,-0.14697 0.37847,-0.99924 0.37846,1.58063 0.37847,-0.80216 0.37846,-0.28926 0.37847,1.43825 0.37846,-0.73089 0.37847,0.6342 0.37846,-0.58985 0.37847,-1.22218 0.37846,0.71821 0.37847,1.43413 0.37847,-1.38252 0.37846,-2.53553 0.37847,3.65049 0.37846,0.65757 0.37847,-0.71191 0.37846,-0.17365 0.37847,2.48225 0.37846,-1.45023 0.37847,-0.57017 0.75693,0.52105 0.37846,0.036 0.37847,2.51134 0.37846,-0.038 0.37847,-4.66724 0.37846,0.72806 0.37847,-1.42331 0.37846,-0.40742 0.37847,3.27463 0.37846,0.4875 0.37847,1.90804 0.37846,-2.62878 0.37847,0.84332 0.37846,-0.23305 0.37847,-1.87259 0.37846,1.5781 0.37847,0.11075 0.37847,4.02615 0.37846,-3.6622 0.75693,1.8189 0.37847,-2.00321 0.37846,0.70799 0.37847,-2.40143 0.37846,2.8357 0.37847,-1.29269 0.37846,2.31179 0.37847,-2.36694 0.37846,2.1386 0.37847,-0.85371 0.75693,-2.46478 0.37846,2.48324 0.37847,1.3049 0.37846,2.13746 0.37847,-2.13306 0.37846,0.0305 0.37847,-0.16457 0.37846,-4.20341 0.37847,-0.45462 0.37846,1.89532 0.37847,0.98899 0.37846,0.0615 0.37847,-0.42743 0.75693,0.19513 0.75693,-1.53866 0.37847,2.14393 0.75693,-3.16917 0.37846,0.37751 0.37847,-0.11604 0.37846,1.80157 0.37847,2.57323 0.37846,-2.34505 0.37847,1.94933 0.37846,0.0796 0.37847,-0.16246 0.75693,-2.504 0.37846,-0.45767 0.37847,3.48093 0.37846,-1.3116 0.75693,1.62362 0.37847,-1.96052 0.37846,0.0469 0.37847,2.00615 0.37847,-3.22732 0.37846,-0.56442 0.37847,0.61474 0.37846,-2.10771 0.75693,1.25497 0.37847,-2.74383 0.37846,2.53845 0.75693,-3.60247 0.37847,1.39668 0.37846,0.46267 0.37847,3.34334 0.37846,0.11114 0.37847,-2.07834 0.37846,-1.19294 0.37847,2.22103 0.37846,-0.0348 0.37847,-1.6208 0.37846,0.17941 0.37847,-0.57039 0.37846,-1.20145 0.37847,-0.0836 0.37846,-1.05921 0.37847,-1.65262 0.37846,2.44345 0.37847,0.61578 0.37847,0.99933 0.37846,-0.70869 0.37847,-3.33817 0.37846,2.36085 0.37847,1.41596 0.37846,0.94288 0.37847,0.35738 0.37846,-2.16782 0.37847,0.0111 0.37846,0.90684 0.37847,-1.86327 0.37846,-0.37762 0.37847,0.28203 0.37846,2.34469 0.37847,-1.39957 0.75693,2.6837 0.37846,-2.10858 0.37847,0.93458 0.37846,1.81256 0.37847,-5.36573 0.37846,2.73496 0.37847,1.38687 0.37846,-0.0415 0.75693,-0.78044 0.37847,1.6292 0.37847,-1.33425 0.37846,0.1655 0.37847,1.36413 0.37846,0.4875 0.37847,-1.4742 0.37846,1.75192 0.37847,-1.94976 0.37846,1.70587 0.37847,-3.26502 0.37846,-0.56467 0.37847,0.67834 0.75693,-2.41035 0.37846,4.9118 0.37847,0.11791 0.37846,0.336 0.37847,0.89494 0.75693,-4.4003 0.37846,1.76231 0.75693,-1.36463 0.37847,2.81152 0.37846,-2.23453 0.37847,0.10812 0.37847,1.42029 0.37846,-1.35592 0.37847,1.1198 0.37846,1.71921 0.37847,-3.05077 0.37846,0.60272 0.37847,-0.1976 0.37846,-0.69483 0.75693,3.33721 0.37847,-0.51282 0.37846,-0.12546 0.37847,-0.29804 0.37846,0.6495 0.37847,-1.62648 0.37846,0.13279 0.37847,-0.10633 0.37846,2.69617 0.37847,0.72194 0.37846,-2.0304 0.37847,1.01624 0.37846,0.11253 0.37847,0.64986 0.37846,1.59156 0.37847,2.29707 0.37846,-5.94285 0.37847,0.36567 0.37847,1.49013 0.37846,-0.0113 0.37847,0.17483 0.37846,0.95294 0.37847,1.47741 0.37846,-0.38261 0.37847,-1.13321 0.37846,-2.2519 0.37847,2.79982 0.37846,-1.87767 0.37847,-1.04475 0.37846,-0.58237 0.37847,2.4674 0.37846,-0.51715 0.37847,-2.43512 0.37846,2.79143 0.37847,-3.33425 0.37846,-1.63387 0.37847,1.84143 0.37846,3.27199 0.37847,-0.90133 0.75693,3.01066 0.37846,-1.81194 0.37847,-2.89197 0.37846,2.29354 0.37847,-3.37104 0.37847,-0.003 0.37846,1.58607 0.37847,1.06617 0.37846,-2.8945 0.37847,1.13706 0.37846,1.70462 0.37847,-1.16015 0.37846,-1.98308 0.37847,3.608 0.37846,1.37401 0.37847,-0.6402 0.37846,-1.98061 0.37847,0.0371 0.37846,0.88452 0.37847,-0.10727 0.37846,0.7133 0.37847,-0.42628 0.75693,-1.25437 0.37846,2.8481 0.37847,-2.17966 0.37846,1.97639 0.37847,-1.29227 0.37846,0.55748 0.37847,1.36411 0.37847,-1.41276 0.37846,-0.86002 0.37847,1.6686 0.37846,-1.519 0.37847,1.90461 0.37846,-1.51661 0.37847,0.72092 0.37846,-1.19388 0.37847,-1.88331 0.37846,3.19397 0.37847,-1.1127 0.37846,-0.44739 0.37847,-1.54191 0.37846,1.86249 0.37847,-3.61154 0.37846,-0.4287 1.1354,2.76055 0.37846,-3.61661 0.37847,-1.27546 0.37846,1.28301 0.75693,-0.89999 0.37847,1.62707 0.37846,0.58126 0.37847,-0.97739 0.37847,0.0176 0.37846,-2.17834 0.37847,0.44655 0.37846,0.26095 0.37847,2.51305 0.37846,-1.1097 0.37847,-0.21462 0.37846,0.52152 0.37847,1.35643 0.37846,-0.95921 0.37847,1.86977 0.37846,-3.09353 0.37847,3.50685 0.37846,0.21633 0.37847,2.83003 0.37846,-2.15128 0.37847,1.57453 0.37846,-0.295 0.37847,-0.48539 0.37846,0.93035 0.37847,-0.78479 1.13539,6.73216 0.37847,-0.90044 0.37846,0.45779 0.37847,-0.66512 0.37847,3.26807 0.37846,-1.66469 0.37847,2.12764 0.37846,-0.67695 0.37847,3.50836 0.37846,1.08934 0.37847,-1.81615 0.37846,3.49261 0.37847,0.65581 0.37846,3.11971 0.37847,0.67404 0.37846,-0.31233 0.37847,0.71759 0.75693,7.1081 0.37846,0.93535 0.37847,3.04665 0.37846,-1.22083 0.75693,6.9886 0.37847,1.29313 0.37846,-0.70871 0.37847,3.53713 0.37846,1.32315 1.1354,2.3087 0.37847,4.07765 0.37846,-0.12514 0.37847,1.44133 0.37846,0.41465 0.37847,0.75787 0.37846,2.12465 0.37847,0.36021 0.37846,1.41711 0.37847,1.88177 0.37846,1.27421 0.37847,0.45324 0.37846,-0.47469 0.37847,0.63566 0.37846,0.39369 0.37847,-0.24556 0.37846,4.6974 0.37847,-0.31031 0.37846,0.0907 0.37847,0.68256 0.37846,-2.1747 0.37847,1.81849 0.37846,-0.96979 0.37847,-2.69558 0.37846,3.84519 0.37847,-4.36523 v 0" />
        </g>
      </g>
      <g
         id="g34">
        <g
           clip-path="url(#clipPath40)"
           id="g36">
          <path
             inkscape:connector-curvature="0"
             id="path42"
             style="fill:none;stroke:#008000;stroke-width:1;stroke-linecap:square;stroke-linejoin:round;stroke-miterlimit:10;stroke-dasharray:none;stroke-opacity:1"
             d="m 44.71875,72.956587 0.378465,4.117568 0.378465,3.581404 0.756931,5.996734 0.75693,4.35407 1.513861,6.913153 1.135395,2.911834 0.756931,1.80824 0.378465,0.56696 1.135396,2.22323 1.892326,2.90088 0.378465,0.92734 0.378465,0.60039 0.378465,0.98317 0.756931,1.44034 0.378465,1.1607 1.135395,2.59457 0.378465,1.2598 0.756931,1.67109 1.135395,3.11608 0.756931,2.38828 0.378465,1.02797 2.649256,10.07697 1.135396,5.15513 2.649256,15.85152 3.406187,27.96245 3.027721,26.79795 2.270792,14.7058 2.649256,12.96157 3.027721,11.66296 0.756931,2.19151 0.378465,-2.21322 1.513861,-11.87244 0.378465,-1.7919 0.378465,-3.05942 0.756931,-10.1206 0.75693,-10.02625 0.75693,-8.74432 1.513861,-24.30737 1.135396,-12.80016 1.135395,-9.35568 1.135396,-7.17874 1.892326,-9.13806 1.892326,-5.84814 0.378465,-1.19018 1.135395,-2.36173 0.378466,-0.36867 0.378465,-0.8473 0.378465,-0.37807 0.378465,-0.62353 0.378465,-0.0496 0.756931,-0.9296 0.378462,-0.62217 0.37847,-0.27839 0.37846,-0.57215 0.37847,-0.9327 0.75693,-1.37686 0.37846,-0.75275 0.37847,-0.47943 1.13539,-2.12641 1.1354,-1.13489 1.1354,-0.57014 0.37846,-0.60682 0.37847,-0.26988 0.37846,-0.6077 1.1354,-1.19778 0.37846,-0.13734 0.37847,-0.36414 1.13539,-0.39165 1.89233,-1.94447 0.37846,-0.13091 0.75693,-0.53496 0.37847,-0.51887 0.75693,-0.34726 0.37847,-0.533 0.37846,-0.0662 0.37847,-0.47325 1.51386,-0.78278 0.37846,-0.26869 0.37847,0.0734 0.37846,-0.17929 1.1354,-0.12255 0.75693,-0.46466 0.75693,0.005 0.37846,-0.25575 0.37847,0.25965 0.37846,-0.20371 0.75693,-0.10932 0.37847,-0.23948 0.37846,0.0163 0.75694,-0.22542 0.37846,-0.29631 1.1354,-0.20681 0.37846,-0.32726 0.37847,0.32529 0.37846,-0.21071 0.37847,-0.41499 0.75693,-0.24039 0.75693,-0.0923 0.75693,-0.65645 0.37846,0.0644 0.75693,-0.25813 0.37847,-0.24988 0.37846,0.16117 0.37847,-0.24917 0.37846,-0.45154 0.37847,0.0687 0.75693,-0.53518 0.37846,-0.023 0.37847,-0.41808 0.37847,-0.23811 0.37846,0.29213 0.37847,0.13239 0.37846,-0.28795 1.1354,-0.27912 1.51386,-0.20538 1.13539,-0.53852 0.75693,-0.18674 0.37847,-0.2015 0.37846,0.0773 0.37847,-0.17492 0.37846,0.10778 0.37847,-0.175 0.37846,-0.48998 0.37847,0.0463 0.37846,-0.21874 0.37847,0.077 0.75693,-0.12761 0.37847,0.15038 0.37846,-0.21947 1.1354,-0.22133 0.37846,-0.19367 0.37847,-0.0133 0.37846,-0.33218 1.1354,0.0643 0.75693,-0.33478 0.37846,0.003 0.37847,-0.17557 0.37846,0.002 0.37847,0.15463 1.13539,-0.33788 0.75693,0.0666 0.37847,-0.1069 0.37846,-0.2467 0.37847,0.22837 0.75693,-0.26526 0.37847,0.15892 0.75693,-0.23113 0.37846,0.002 0.37847,0.32677 0.37846,0.0508 0.37847,-0.22201 0.37846,0.0878 0.75693,-0.22482 0.37847,0.0937 0.75693,-0.22219 0.37846,-0.0874 0.37847,0.0665 0.37846,-0.15336 0.37847,0.0655 1.51386,-0.31234 1.51386,-0.12156 0.37847,-0.10373 0.37846,0.0549 0.37847,-0.18179 0.37846,0.33621 0.37847,-0.034 0.75693,-0.24602 0.37846,0.0264 1.1354,-0.22191 1.89232,-0.40907 0.37847,0.15702 0.75693,0.0659 0.75693,-0.2952 0.75693,0.35082 0.37846,-0.12529 0.37847,0.12412 0.37846,-0.16386 1.1354,0.16711 0.37847,-0.28554 0.75693,0.17594 0.37846,-0.16595 0.75693,-0.0676 0.37847,0.27133 0.37846,-0.16639 0.37847,-0.34216 0.75693,-6.5e-4 0.37846,-0.13516 0.37847,0.009 1.13539,-0.203683 0.37847,0.105058 3.02772,-0.196144 0.37847,0.168311 0.37846,-0.1328 0.37847,0.139337 0.37846,-0.211332 0.37847,0.260713 0.37846,-0.298563 0.37847,0.207455 0.37846,-0.382736 0.37847,0.429441 1.13539,-0.251342 0.75693,0.126979 0.37847,-0.09347 0.37846,0.07823 0.37847,-0.07924 0.37846,0.115301 0.37847,-0.02307 0.37846,0.319415 0.37847,-0.452243 0.37846,0.03918 0.75693,-0.173013 0.37847,0.1224 0.37847,-0.06706 0.75693,0.03391 0.37846,-0.0151 0.37847,0.231986 0.37846,-0.402007 0.37847,0.302782 0.37846,-0.162332 0.75693,0.140682 0.75693,-0.161753 1.1354,0.137661 1.51386,-0.302035 0.37846,0.187116 0.37847,-0.141711 0.37846,0.222829 0.37847,-0.142847 0.37846,0.156808 1.51387,-0.351478 0.75693,0.304307 0.37846,-0.204435 0.37847,-0.04273 0.37846,0.277622 3.02772,-0.08347 0.37847,0.164211 0.37846,-0.192055 0.37847,-0.05041 0.37846,0.181086 1.51386,-0.101138 0.75693,-0.307063 0.75694,0.161713 1.13539,0.121764 0.37847,-0.310562 0.37846,0.08352 0.75693,-0.147904 0.75693,0.298586 0.37847,-0.334305 0.37846,0.302879 1.1354,0.01128 0.37846,0.08703 0.75693,-0.04292 0.37847,0.118322 0.37846,-0.159812 0.75693,0.0207 0.37847,0.125691 0.37846,-0.156752 1.1354,0.07959 0.37847,0.08069 0.75693,-0.373348 0.75693,0.10206 0.37846,-0.182621 0.37847,0.216512 0.37846,-0.128469 0.75693,-0.07392 0.75693,-0.291931 0.37847,0.149686 0.75693,-0.292905 0.37846,0.307795 0.75693,-0.145215 0.37847,0.37634 0.37846,-0.275478 0.75693,-0.248254 0.37847,0.149158 1.51386,-0.103511 0.75693,0.0019 0.75693,-0.193877 0.37847,0.113136 0.75693,-0.294519 0.37846,0.175651 0.37847,-0.214638 0.75693,0.280383 0.37846,-0.182295 0.75693,0.133431 0.75693,-0.136738 0.37847,0.202725 1.51386,0.164081 0.37846,-0.394909 0.37847,0.224624 0.37846,-0.171062 0.75694,-0.104653 0.37846,-0.08619 0.37847,0.04169 0.37846,-0.102027 0.37847,0.306068 0.75693,-0.334806 0.37846,0.235834 0.37847,-0.131192 1.13539,0.122434 0.37847,-0.143736 2.27079,0.22734 0.37846,-0.274652 0.75693,0.03557 0.37847,0.109282 0.37846,-0.11327 0.37847,0.267862 1.1354,-0.448914 0.37846,0.104816 0.37847,-0.08447 0.37846,0.137261 0.37847,-0.139787 0.37846,0.06743 0.75693,-0.248456 0.37847,0.165735 1.13539,-0.07211 0.37847,0.09395 0.37846,-0.275135 1.1354,0.14877 0.37846,-0.273505 0.37847,0.281402 0.75693,-0.10557 0.75693,3.66e-4 0.37846,-0.235491 0.37847,0.309184 0.75693,-0.259493 0.75693,0.09906 0.37847,0.09963 0.37846,-0.180827 0.37847,-0.02815 0.37846,-0.194659 0.37847,0.125409 0.37846,-0.07564 0.37847,0.08909 1.51386,-0.121404 0.37846,-0.189203 0.37847,0.235845 1.13539,0.140142 0.37847,-0.35374 0.37846,0.164734 1.1354,-0.05684 0.37846,-0.05705 0.75694,0.308042 0.75693,-0.224629 0.37846,-0.01695 0.37847,0.109991 0.37846,-0.02378 0.37847,-0.327156 0.37846,0.09358 0.37847,-0.03981 0.37846,0.262524 0.37847,-0.323145 0.75693,0.06925 0.37846,-0.116685 1.1354,0.229073 1.13539,-0.361907 0.37847,0.100637 0.75693,-0.09512 0.37846,0.13995 0.37847,0.01703 0.37846,-0.345359 1.51387,-0.0064 0.37846,0.141081 0.37847,-0.168525 0.37846,-0.0176 0.37847,0.246347 0.75693,-0.377943 0.37846,0.09358 0.75693,-0.03525 0.37847,0.051 0.75693,-0.431584 0.37846,0.268065 0.75693,-0.02412 1.1354,-0.121359 0.75693,-0.02369 0.37846,-0.08806 0.37847,-0.203305 0.37846,0.0012 0.37847,0.135905 0.37847,-0.11849 0.37846,0.212793 0.37847,-0.01123 0.37846,-0.155711 0.75693,-0.0076 0.37847,-0.05798 0.37846,0.07308 0.37847,-0.353075 0.37846,0.125477 0.37847,-0.159345 0.75693,0.03489 0.75693,0.191936 0.37846,-0.183094 0.37847,0.418882 0.37846,-0.257838 0.75693,0.132609 0.37847,-0.247539 0.37846,0.17127 0.75693,-0.347985 0.37847,0.08623 0.37847,-0.123097 1.51386,-0.04703 0.37846,0.143696 0.37847,-0.192504 0.37846,0.109069 1.1354,-0.251022 0.37846,-0.04598 0.37847,0.21254 0.37846,-0.07756 0.37847,-0.354938 0.37846,0.216512 0.37847,-0.06243 0.37846,0.107105 0.37847,-0.07248 0.37846,0.227953 0.37847,-0.410974 0.75693,0.134162 0.37846,0.193523 1.1354,-0.309094 0.37847,0.230501 1.51386,-0.548561 0.37846,0.242685 1.1354,-0.326374 0.75693,0.475465 0.37846,-0.277707 0.37847,0.01315 0.37846,0.141936 1.51386,-0.199969 0.37847,0.08822 0.75693,-0.552741 0.37846,0.28863 0.75693,-0.469384 0.37847,0.06005 0.37846,0.225192 0.75694,-0.507792 0.37846,-0.106093 0.37847,0.382073 0.37846,-0.143196 0.37847,0.07015 0.37846,-0.232273 3.40619,-0.173548 0.75693,-0.06994 0.37846,0.145923 2.64926,-0.38673 0.75693,-0.05752 0.37847,-0.124959 0.75693,0.163558 0.37846,0.05121 0.37847,-0.298637 0.37846,0.229556 0.37847,0.04801 0.37846,-0.205364 0.37847,-0.409567 0.37846,0.127777 0.37847,9.17e-4 0.75693,-0.458612 0.37846,0.250898 0.75693,0.09374 0.37847,-0.360439 0.75693,-0.06651 0.37846,-0.302698 0.37847,0.204941 0.37846,0.01667 0.37847,-0.173312 0.37846,-0.03993 0.37847,0.184292 0.37847,-0.13617 0.75693,0.0602 1.51386,-0.462864 0.37846,-0.0038 0.75693,-0.254987 0.75693,0.143409 0.37847,-0.03372 0.75693,0.206826 2.27079,-0.256827 0.37846,-0.237234 0.75693,0.13338 0.37847,-0.01031 0.37846,0.210116 0.75694,-0.441371 0.37846,-0.0054 0.37847,-0.180275 0.37846,-0.01751 0.37847,0.0991 0.37846,-0.171219 0.75693,0.174352 1.1354,-0.226834 0.37846,0.08092 0.75693,-0.337866 0.37847,0.224055 0.37846,-0.204356 0.75693,-0.04419 0.75693,0.114986 1.89233,-0.37755 0.75693,0.0057 0.75693,-0.293034 0.75693,0.160233 0.37847,-0.109192 0.37846,-0.333743 1.1354,-0.301022 1.51386,0.277808 1.51386,-0.185254 0.75693,-0.424035 1.13539,-0.04677 0.37847,0.12901 1.1354,-0.385442 1.13539,-0.128295 0.37847,-0.246735 0.37846,0.163828 0.37847,-0.296066 0.37846,0.234675 0.37847,0.02949 0.37846,-0.446468 0.37847,0.193652 0.37846,0.05641 0.37847,-0.420457 0.75693,0.16704 0.37846,-0.267216 0.37847,0.124042 0.37846,-0.243905 0.37847,0.10904 0.37846,-0.37278 0.75693,-0.291071 0.37847,-0.383254 0.75693,-0.0069 1.1354,-0.537497 0.37846,0.110897 0.37847,-0.117912 0.75693,-0.579757 0.37846,0.01437 0.37847,-0.208794 0.37846,-0.0027 0.37847,-0.709633 0.37846,-5.96e-4 0.75693,-0.392664 0.37847,-0.173374 0.37846,0.03573 0.37847,-0.102347 0.37846,-0.26455 0.37847,0.08609 0.37846,-0.17658 0.75693,-0.583784 0.37847,-0.208193 0.37846,0.105823 0.37847,-0.348255 0.37846,-0.07899 0.75694,-1.212609 0.37846,-0.01157 0.37847,-0.366429 0.75693,-0.306231 0.37846,0.01122 0.37847,-0.582333 0.37846,-0.0134 0.37847,-0.30947 0.37846,-0.484701 0.37847,0.02756 1.51386,-0.944252 0.37846,0.02985 1.51386,-1.051509 0.37847,0.0103 0.37846,-0.453296 0.37847,-0.06191 0.37846,-0.516819 0.75693,-0.264403 1.1354,-0.818336 0.37847,0.06133 0.75693,-0.391511 0.37846,0.09763 0.37847,-0.303193 0.37846,0.03013 0.37847,-0.442878 0.37846,-0.04372 0.37847,-0.236166 0.37846,-0.76941 0.75693,0.03286 0.75693,-0.56749 0.37847,0.08988 0.75693,-0.315299 0.37846,-0.02139 0.37847,-0.491265 0.37846,-0.06336 0.37847,-0.344283 1.89233,-0.333945 0.37846,-0.293575 0.75693,-0.111605 0.37847,0.160869 0.37846,-0.256742 0.37847,-0.416002 0.37846,0.09054 1.51386,-0.793705 0.37847,0.287376 0.37846,-0.38772 0.37847,0.09478 0.37846,-0.322194 0.37847,0.131293 1.89232,-0.54612 0.37847,-0.425964 0.37846,0.315326 0.37847,-0.264268 0.37847,7.42e-4 1.13539,-0.335447 0.37847,0.02431 1.51386,-0.429222 0.37846,0.143455 0.75693,-0.508725 0.37847,-0.06985 0.37846,0.179933 1.1354,-0.535742 0.75693,0.03537 0.37846,-0.232543 0.37847,0.0095 0.37846,-0.615387 0.37847,-0.0087 0.37846,-0.199772 0.75693,-0.06224 0.75694,-0.192307 0.37846,0.0913 0.37847,-0.05789 0.37846,-0.468568 0.37847,-0.01119 0.37846,0.229494 0.37847,-0.385346 0.75693,0.291774 0.75693,-0.254801 0.37846,-0.413291 0.37847,-0.104991 0.37846,0.170522 1.51386,-0.298671 0.37847,-0.06099 0.37846,-0.45797 0.37847,0.257434 0.37846,-0.266097 0.75693,0.136328 0.37847,-0.545749 1.1354,-0.881224 0.37846,0.190654 0.37847,-0.144399 0.37846,-0.309595 0.75693,0.08456 0.37847,-0.0592 0.37846,-0.441371 0.37847,0.14539 0.37846,-0.263886 0.37847,0.02339 0.37846,-0.242094 0.75693,-0.194372 0.37847,-0.33273 0.37846,-0.09643 0.37847,0.325586 0.37846,-0.06509 0.37847,-0.246724 1.13539,-0.158231 0.37847,0.84123 0.37846,2.553081 2.2708,22.179037 1.51386,8.369882 1.51386,4.946015 0.37846,1.15849 2.64926,5.09041 0.37846,0.43311 0.37847,0.60489 0.37846,0.89137 0.37847,0.40433 0.37846,0.98562 0.37847,0.64412 0.37847,0.94918 0.37846,0.55224 0.75693,1.82344 0.37847,0.72847 0.37846,1.29186 0.75693,1.74508 0.37847,1.38262 0.75693,1.91304 1.51386,4.44488 2.27079,8.23463 1.89232,8.78898 1.1354,6.76612 0.75693,4.79791 1.89233,14.39174 2.27079,20.19785 2.27079,21.02628 1.89233,13.34294 2.27079,12.46104 2.27079,9.86209 1.13539,3.99164 0.75693,2.5394 1.1354,3.64149 0.37846,1.25236 0.37847,-1.7727 L 493.2,242.6516 v 0" />
        </g>
      </g>
      <g
         id="g44">
        <path
           inkscape:connector-curvature="0"
           id="path46"
           style="fill:none;stroke:#000000;stroke-width:1;stroke-linecap:square;stroke-linejoin:miter;stroke-miterlimit:10;stroke-dasharray:none;stroke-opacity:1"
           d="M 44.71875,313.2 H 493.2" />
        <path
           inkscape:connector-curvature="0"
           id="path48"
           style="fill:none;stroke:#000000;stroke-width:1;stroke-linecap:square;stroke-linejoin:miter;stroke-miterlimit:10;stroke-dasharray:none;stroke-opacity:1"
           d="m 493.2,43.2 v 270" />
        <path
           inkscape:connector-curvature="0"
           id="path50"
           style="fill:none;stroke:#000000;stroke-width:1;stroke-linecap:square;stroke-linejoin:miter;stroke-miterlimit:10;stroke-dasharray:none;stroke-opacity:1"
           d="M 44.71875,43.2 H 493.2" />
        <path
           inkscape:connector-curvature="0"
           id="path52"
           style="fill:none;stroke:#000000;stroke-width:1;stroke-linecap:square;stroke-linejoin:miter;stroke-miterlimit:10;stroke-dasharray:none;stroke-opacity:1"
           d="m 44.71875,43.2 v 270" />
        <path
           inkscape:connector-curvature="0"
           id="path54"
           style="fill:#000000;fill-opacity:1;fill-rule:nonzero;stroke:#000000;stroke-width:0.5;stroke-linecap:butt;stroke-linejoin:round;stroke-miterlimit:10;stroke-dasharray:none;stroke-opacity:1"
           d="m 44.71875,43.2 v 4" />
        <path
           inkscape:connector-curvature="0"
           id="path56"
           style="fill:#000000;fill-opacity:1;fill-rule:nonzero;stroke:#000000;stroke-width:0.5;stroke-linecap:butt;stroke-linejoin:round;stroke-miterlimit:10;stroke-dasharray:none;stroke-opacity:1"
           d="m 44.71875,313.2 v -4" />
        <text
           id="text60"
           style="font-variant:normal;font-weight:normal;font-size:12px;font-family:BitstreamVeraSans;-inkscape-font-specification:BitstreamVeraSans-Roman;writing-mode:lr-tb;fill:#000000;fill-opacity:1;fill-rule:nonzero;stroke:none"
           transform="matrix(1,0,0,-1,35.96875,30.075)">
          <tspan
             id="tspan58"
             sodipodi:role="line"
             y="0"
             x="0 7.632 11.448"
             style="-inkscape-font-specification:Utopia;font-family:Utopia;font-weight:normal;font-style:normal;font-stretch:normal;font-variant:normal">0.0</tspan>
        </text>
        <path
           inkscape:connector-curvature="0"
           id="path62"
           style="fill:#000000;fill-opacity:1;fill-rule:nonzero;stroke:#000000;stroke-width:0.5;stroke-linecap:butt;stroke-linejoin:round;stroke-miterlimit:10;stroke-dasharray:none;stroke-opacity:1"
           d="m 180.96622,43.2 v 4" />
        <path
           inkscape:connector-curvature="0"
           id="path64"
           style="fill:#000000;fill-opacity:1;fill-rule:nonzero;stroke:#000000;stroke-width:0.5;stroke-linecap:butt;stroke-linejoin:round;stroke-miterlimit:10;stroke-dasharray:none;stroke-opacity:1"
           d="m 180.96622,313.2 v -4" />
        <text
           id="text68"
           style="font-variant:normal;font-weight:normal;font-size:12px;font-family:BitstreamVeraSans;-inkscape-font-specification:BitstreamVeraSans-Roman;writing-mode:lr-tb;fill:#000000;fill-opacity:1;fill-rule:nonzero;stroke:none"
           transform="matrix(1,0,0,-1,172.47403,30.075)">
          <tspan
             id="tspan66"
             sodipodi:role="line"
             y="0"
             x="0 7.632 11.448"
             style="-inkscape-font-specification:Utopia;font-family:Utopia;font-weight:normal;font-style:normal;font-stretch:normal;font-variant:normal">1.0</tspan>
        </text>
        <path
           inkscape:connector-curvature="0"
           id="path70"
           style="fill:#000000;fill-opacity:1;fill-rule:nonzero;stroke:#000000;stroke-width:0.5;stroke-linecap:butt;stroke-linejoin:round;stroke-miterlimit:10;stroke-dasharray:none;stroke-opacity:1"
           d="m 317.21369,43.2 v 4" />
        <path
           inkscape:connector-curvature="0"
           id="path72"
           style="fill:#000000;fill-opacity:1;fill-rule:nonzero;stroke:#000000;stroke-width:0.5;stroke-linecap:butt;stroke-linejoin:round;stroke-miterlimit:10;stroke-dasharray:none;stroke-opacity:1"
           d="m 317.21369,313.2 v -4" />
        <text
           id="text76"
           style="font-variant:normal;font-weight:normal;font-size:12px;font-family:BitstreamVeraSans;-inkscape-font-specification:BitstreamVeraSans-Roman;writing-mode:lr-tb;fill:#000000;fill-opacity:1;fill-rule:nonzero;stroke:none"
           transform="matrix(1,0,0,-1,308.50275,30.075)">
          <tspan
             id="tspan74"
             sodipodi:role="line"
             y="0"
             x="0 7.632 11.448"
             style="-inkscape-font-specification:Utopia;font-family:Utopia;font-weight:normal;font-style:normal;font-stretch:normal;font-variant:normal">2.0</tspan>
        </text>
        <path
           inkscape:connector-curvature="0"
           id="path78"
           style="fill:#000000;fill-opacity:1;fill-rule:nonzero;stroke:#000000;stroke-width:0.5;stroke-linecap:butt;stroke-linejoin:round;stroke-miterlimit:10;stroke-dasharray:none;stroke-opacity:1"
           d="m 453.46116,43.2 v 4" />
        <path
           inkscape:connector-curvature="0"
           id="path80"
           style="fill:#000000;fill-opacity:1;fill-rule:nonzero;stroke:#000000;stroke-width:0.5;stroke-linecap:butt;stroke-linejoin:round;stroke-miterlimit:10;stroke-dasharray:none;stroke-opacity:1"
           d="m 453.46116,313.2 v -4" />
        <text
           id="text84"
           style="font-variant:normal;font-weight:normal;font-size:12px;font-family:BitstreamVeraSans;-inkscape-font-specification:BitstreamVeraSans-Roman;writing-mode:lr-tb;fill:#000000;fill-opacity:1;fill-rule:nonzero;stroke:none"
           transform="matrix(1,0,0,-1,444.77366,30.075)">
          <tspan
             id="tspan82"
             sodipodi:role="line"
             y="0"
             x="0 7.632 11.448"
             style="-inkscape-font-specification:Utopia;font-family:Utopia;font-weight:normal;font-style:normal;font-stretch:normal;font-variant:normal">3.0</tspan>
        </text>
        <text
           id="text88"
           style="font-variant:normal;font-weight:normal;font-size:12px;font-family:BitstreamVeraSans;-inkscape-font-specification:BitstreamVeraSans-Roman;writing-mode:lr-tb;fill:#000000;fill-opacity:1;fill-rule:nonzero;stroke:none"
           transform="matrix(1,0,0,-1,244.56094,13.45)">
          <tspan
             id="tspan86"
             sodipodi:role="line"
             y="0"
             x="0 8.2200003 15.6 18.936001 23.639999 27.455999 30.792 38.400002 42.216"
             style="-inkscape-font-specification:Utopia;font-family:Utopia;font-weight:normal;font-style:normal;font-stretch:normal;font-variant:normal">Zeit in h</tspan>
        </text>
        <path
           inkscape:connector-curvature="0"
           id="path90"
           style="fill:#000000;fill-opacity:1;fill-rule:nonzero;stroke:#000000;stroke-width:0.5;stroke-linecap:butt;stroke-linejoin:round;stroke-miterlimit:10;stroke-dasharray:none;stroke-opacity:1"
           d="m 44.71875,43.2 h 4" />
        <path
           inkscape:connector-curvature="0"
           id="path92"
           style="fill:#000000;fill-opacity:1;fill-rule:nonzero;stroke:#000000;stroke-width:0.5;stroke-linecap:butt;stroke-linejoin:round;stroke-miterlimit:10;stroke-dasharray:none;stroke-opacity:1"
           d="m 493.2,43.2 h -4" />
        <text
           id="text96"
           style="font-variant:normal;font-weight:normal;font-size:12px;font-family:BitstreamVeraSans;-inkscape-font-specification:BitstreamVeraSans-Roman;writing-mode:lr-tb;fill:#000000;fill-opacity:1;fill-rule:nonzero;stroke:none"
           transform="matrix(1,0,0,-1,30.546875,39.8875)">
          <tspan
             id="tspan94"
             sodipodi:role="line"
             y="0"
             x="0 4.3319998"
             style="-inkscape-font-specification:Utopia;font-family:Utopia;font-weight:normal;font-style:normal;font-stretch:normal;font-variant:normal">-2</tspan>
        </text>
        <path
           inkscape:connector-curvature="0"
           id="path98"
           style="fill:#000000;fill-opacity:1;fill-rule:nonzero;stroke:#000000;stroke-width:0.5;stroke-linecap:butt;stroke-linejoin:round;stroke-miterlimit:10;stroke-dasharray:none;stroke-opacity:1"
           d="m 44.71875,76.95 h 4" />
        <path
           inkscape:connector-curvature="0"
           id="path100"
           style="fill:#000000;fill-opacity:1;fill-rule:nonzero;stroke:#000000;stroke-width:0.5;stroke-linecap:butt;stroke-linejoin:round;stroke-miterlimit:10;stroke-dasharray:none;stroke-opacity:1"
           d="m 493.2,76.95 h -4" />
        <text
           id="text104"
           style="font-variant:normal;font-weight:normal;font-size:12px;font-family:BitstreamVeraSans;-inkscape-font-specification:BitstreamVeraSans-Roman;writing-mode:lr-tb;fill:#000000;fill-opacity:1;fill-rule:nonzero;stroke:none"
           transform="matrix(1,0,0,-1,34.671875,73.6375)">
          <tspan
             id="tspan102"
             y="0"
             x="0"
             style="-inkscape-font-specification:Utopia;font-family:Utopia;font-weight:normal;font-style:normal;font-stretch:normal;font-variant:normal">0</tspan>
        </text>
        <path
           inkscape:connector-curvature="0"
           id="path106"
           style="fill:#000000;fill-opacity:1;fill-rule:nonzero;stroke:#000000;stroke-width:0.5;stroke-linecap:butt;stroke-linejoin:round;stroke-miterlimit:10;stroke-dasharray:none;stroke-opacity:1"
           d="m 44.71875,110.7 h 4" />
        <path
           inkscape:connector-curvature="0"
           id="path108"
           style="fill:#000000;fill-opacity:1;fill-rule:nonzero;stroke:#000000;stroke-width:0.5;stroke-linecap:butt;stroke-linejoin:round;stroke-miterlimit:10;stroke-dasharray:none;stroke-opacity:1"
           d="m 493.2,110.7 h -4" />
        <text
           id="text112"
           style="font-variant:normal;font-weight:normal;font-size:12px;font-family:BitstreamVeraSans;-inkscape-font-specification:BitstreamVeraSans-Roman;writing-mode:lr-tb;fill:#000000;fill-opacity:1;fill-rule:nonzero;stroke:none"
           transform="matrix(1,0,0,-1,35.15625,107.3875)">
          <tspan
             id="tspan110"
             y="0"
             x="0"
             style="-inkscape-font-specification:Utopia;font-family:Utopia;font-weight:normal;font-style:normal;font-stretch:normal;font-variant:normal">2</tspan>
        </text>
        <path
           inkscape:connector-curvature="0"
           id="path114"
           style="fill:#000000;fill-opacity:1;fill-rule:nonzero;stroke:#000000;stroke-width:0.5;stroke-linecap:butt;stroke-linejoin:round;stroke-miterlimit:10;stroke-dasharray:none;stroke-opacity:1"
           d="m 44.71875,144.45 h 4" />
        <path
           inkscape:connector-curvature="0"
           id="path116"
           style="fill:#000000;fill-opacity:1;fill-rule:nonzero;stroke:#000000;stroke-width:0.5;stroke-linecap:butt;stroke-linejoin:round;stroke-miterlimit:10;stroke-dasharray:none;stroke-opacity:1"
           d="m 493.2,144.45 h -4" />
        <text
           id="text120"
           style="font-variant:normal;font-weight:normal;font-size:12px;font-family:BitstreamVeraSans;-inkscape-font-specification:BitstreamVeraSans-Roman;writing-mode:lr-tb;fill:#000000;fill-opacity:1;fill-rule:nonzero;stroke:none"
           transform="matrix(1,0,0,-1,34.34375,141.1375)">
          <tspan
             id="tspan118"
             y="0"
             x="0"
             style="-inkscape-font-specification:Utopia;font-family:Utopia;font-weight:normal;font-style:normal;font-stretch:normal;font-variant:normal">4</tspan>
        </text>
        <path
           inkscape:connector-curvature="0"
           id="path122"
           style="fill:#000000;fill-opacity:1;fill-rule:nonzero;stroke:#000000;stroke-width:0.5;stroke-linecap:butt;stroke-linejoin:round;stroke-miterlimit:10;stroke-dasharray:none;stroke-opacity:1"
           d="m 44.71875,178.2 h 4" />
        <path
           inkscape:connector-curvature="0"
           id="path124"
           style="fill:#000000;fill-opacity:1;fill-rule:nonzero;stroke:#000000;stroke-width:0.5;stroke-linecap:butt;stroke-linejoin:round;stroke-miterlimit:10;stroke-dasharray:none;stroke-opacity:1"
           d="m 493.2,178.2 h -4" />
        <text
           id="text128"
           style="font-variant:normal;font-weight:normal;font-size:12px;font-family:BitstreamVeraSans;-inkscape-font-specification:BitstreamVeraSans-Roman;writing-mode:lr-tb;fill:#000000;fill-opacity:1;fill-rule:nonzero;stroke:none"
           transform="matrix(1,0,0,-1,34.6875,174.8875)">
          <tspan
             id="tspan126"
             y="0"
             x="0"
             style="-inkscape-font-specification:Utopia;font-family:Utopia;font-weight:normal;font-style:normal;font-stretch:normal;font-variant:normal">6</tspan>
        </text>
        <path
           inkscape:connector-curvature="0"
           id="path130"
           style="fill:#000000;fill-opacity:1;fill-rule:nonzero;stroke:#000000;stroke-width:0.5;stroke-linecap:butt;stroke-linejoin:round;stroke-miterlimit:10;stroke-dasharray:none;stroke-opacity:1"
           d="m 44.71875,211.95 h 4" />
        <path
           inkscape:connector-curvature="0"
           id="path132"
           style="fill:#000000;fill-opacity:1;fill-rule:nonzero;stroke:#000000;stroke-width:0.5;stroke-linecap:butt;stroke-linejoin:round;stroke-miterlimit:10;stroke-dasharray:none;stroke-opacity:1"
           d="m 493.2,211.95 h -4" />
        <text
           id="text136"
           style="font-variant:normal;font-weight:normal;font-size:12px;font-family:BitstreamVeraSans;-inkscape-font-specification:BitstreamVeraSans-Roman;writing-mode:lr-tb;fill:#000000;fill-opacity:1;fill-rule:nonzero;stroke:none"
           transform="matrix(1,0,0,-1,34.71875,208.6375)">
          <tspan
             id="tspan134"
             y="0"
             x="0"
             style="-inkscape-font-specification:Utopia;font-family:Utopia;font-weight:normal;font-style:normal;font-stretch:normal;font-variant:normal">8</tspan>
        </text>
        <path
           inkscape:connector-curvature="0"
           id="path138"
           style="fill:#000000;fill-opacity:1;fill-rule:nonzero;stroke:#000000;stroke-width:0.5;stroke-linecap:butt;stroke-linejoin:round;stroke-miterlimit:10;stroke-dasharray:none;stroke-opacity:1"
           d="m 44.71875,245.7 h 4" />
        <path
           inkscape:connector-curvature="0"
           id="path140"
           style="fill:#000000;fill-opacity:1;fill-rule:nonzero;stroke:#000000;stroke-width:0.5;stroke-linecap:butt;stroke-linejoin:round;stroke-miterlimit:10;stroke-dasharray:none;stroke-opacity:1"
           d="m 493.2,245.7 h -4" />
        <text
           id="text144"
           style="font-variant:normal;font-weight:normal;font-size:12px;font-family:BitstreamVeraSans;-inkscape-font-specification:BitstreamVeraSans-Roman;writing-mode:lr-tb;fill:#000000;fill-opacity:1;fill-rule:nonzero;stroke:none"
           transform="matrix(1,0,0,-1,27.546875,242.3875)">
          <tspan
             id="tspan142"
             sodipodi:role="line"
             y="0"
             x="0 7.632"
             style="-inkscape-font-specification:Utopia;font-family:Utopia;font-weight:normal;font-style:normal;font-stretch:normal;font-variant:normal">10</tspan>
        </text>
        <path
           inkscape:connector-curvature="0"
           id="path146"
           style="fill:#000000;fill-opacity:1;fill-rule:nonzero;stroke:#000000;stroke-width:0.5;stroke-linecap:butt;stroke-linejoin:round;stroke-miterlimit:10;stroke-dasharray:none;stroke-opacity:1"
           d="m 44.71875,279.45 h 4" />
        <path
           inkscape:connector-curvature="0"
           id="path148"
           style="fill:#000000;fill-opacity:1;fill-rule:nonzero;stroke:#000000;stroke-width:0.5;stroke-linecap:butt;stroke-linejoin:round;stroke-miterlimit:10;stroke-dasharray:none;stroke-opacity:1"
           d="m 493.2,279.45 h -4" />
        <text
           id="text152"
           style="font-variant:normal;font-weight:normal;font-size:12px;font-family:BitstreamVeraSans;-inkscape-font-specification:BitstreamVeraSans-Roman;writing-mode:lr-tb;fill:#000000;fill-opacity:1;fill-rule:nonzero;stroke:none"
           transform="matrix(1,0,0,-1,27.953125,276.1375)">
          <tspan
             id="tspan150"
             sodipodi:role="line"
             y="0"
             x="0 7.632"
             style="-inkscape-font-specification:Utopia;font-family:Utopia;font-weight:normal;font-style:normal;font-stretch:normal;font-variant:normal">12</tspan>
        </text>
        <path
           inkscape:connector-curvature="0"
           id="path154"
           style="fill:#000000;fill-opacity:1;fill-rule:nonzero;stroke:#000000;stroke-width:0.5;stroke-linecap:butt;stroke-linejoin:round;stroke-miterlimit:10;stroke-dasharray:none;stroke-opacity:1"
           d="m 44.71875,313.2 h 4" />
        <path
           inkscape:connector-curvature="0"
           id="path156"
           style="fill:#000000;fill-opacity:1;fill-rule:nonzero;stroke:#000000;stroke-width:0.5;stroke-linecap:butt;stroke-linejoin:round;stroke-miterlimit:10;stroke-dasharray:none;stroke-opacity:1"
           d="m 493.2,313.2 h -4" />
        <text
           id="text160"
           style="font-variant:normal;font-weight:normal;font-size:12px;font-family:BitstreamVeraSans;-inkscape-font-specification:BitstreamVeraSans-Roman;writing-mode:lr-tb;fill:#000000;fill-opacity:1;fill-rule:nonzero;stroke:none"
           transform="matrix(0,1,1,0,20.046875,127.55156)">
          <tspan
             id="tspan158"
             sodipodi:role="line"
             y="0"
             x="0 7.3319998 14.712 26.4 34.02 41.400002 46.332001 53.688 58.391998 66 70.931999 74.748001 78.084 85.692001 89.508003 95.508003"
             style="-inkscape-font-specification:Utopia;font-family:Utopia;font-weight:normal;font-style:normal;font-stretch:normal;font-variant:normal">Temperatur in C</tspan>
        </text>
        <path
           inkscape:connector-curvature="0"
           id="path162"
           style="fill:#ffffff;fill-opacity:1;fill-rule:nonzero;stroke:#000000;stroke-width:1;stroke-linecap:butt;stroke-linejoin:miter;stroke-miterlimit:10;stroke-dasharray:none;stroke-opacity:1"
           d="M 309.4,283.475 H 487.2 V 307.2 H 309.4 Z" />
        <path
           inkscape:connector-curvature="0"
           id="path164"
           style="fill:none;stroke:#0000ff;stroke-width:1;stroke-linecap:square;stroke-linejoin:round;stroke-miterlimit:10;stroke-dasharray:none;stroke-opacity:1"
           d="m 317.8,297.475 h 16.8" />
        <g
           transform="translate(347.8,293.275)"
           id="g166">
          <text
             id="text170"
             style="font-variant:normal;font-weight:normal;font-size:12px;font-family:Cmmi10;-inkscape-font-specification:Cmmi10;writing-mode:lr-tb;fill:#000000;fill-opacity:1;fill-rule:nonzero;stroke:none"
             transform="matrix(1,0,0,-1,0,0.796875)">
            <tspan
               id="tspan168"
               y="0"
               x="0"
               style="-inkscape-font-specification:'Utopia, Italic+# Italic';font-family:Utopia, 'Italic+#';font-weight:normal;font-style:italic;font-stretch:normal;font-variant:normal">T</tspan>
          </text>
          <text
             id="text174"
             style="font-variant:normal;font-weight:normal;font-size:8.39999962px;font-family:Cmmi10;-inkscape-font-specification:Cmmi10;writing-mode:lr-tb;fill:#000000;fill-opacity:1;fill-rule:nonzero;stroke:none"
             transform="matrix(1,0,0,-1,7.0078125,-2.26425)">
            <tspan
               id="tspan172"
               sodipodi:role="line"
               y="0"
               x="0 5.7134767 8.2055855 12.110273 16.174921 18.66703 22.571718 25.46332"
               style="-inkscape-font-specification:'Utopia Italic';font-family:Utopia;font-weight:normal;font-style:italic;font-stretch:normal;font-variant:normal">L,ev,ein</tspan>
          </text>
        </g>
        <path
           inkscape:connector-curvature="0"
           id="path176"
           style="fill:none;stroke:#008000;stroke-width:1;stroke-linecap:square;stroke-linejoin:round;stroke-miterlimit:10;stroke-dasharray:none;stroke-opacity:1"
           d="m 413.4,297.475 h 16.8" />
        <g
           transform="translate(443.4,293.275)"
           id="g178">
          <text
             id="text182"
             style="font-variant:normal;font-weight:normal;font-size:12px;font-family:Cmmi10;-inkscape-font-specification:Cmmi10;writing-mode:lr-tb;fill:#000000;fill-opacity:1;fill-rule:nonzero;stroke:none"
             transform="matrix(1,0,0,-1,0,0.796875)">
            <tspan
               id="tspan180"
               y="0"
               x="0"
               style="-inkscape-font-specification:'Utopia Italic';font-family:Utopia;font-weight:normal;font-style:italic;font-stretch:normal;font-variant:normal">T</tspan>
          </text>
          <text
             id="text186"
             style="font-variant:normal;font-weight:normal;font-size:8.39999962px;font-family:Cmmi10;-inkscape-font-specification:Cmmi10;writing-mode:lr-tb;fill:#000000;fill-opacity:1;fill-rule:nonzero;stroke:none"
             transform="matrix(1,0,0,-1,7.0078125,-2.26425)">
            <tspan
               id="tspan184"
               sodipodi:role="line"
               y="0"
               x="0 5.7134767 8.2055855 12.110273 16.174921 18.66703 23.100821 27.903749"
               style="-inkscape-font-specification:'Utopia Italic';font-family:Utopia;font-weight:normal;font-style:italic;font-stretch:normal;font-variant:normal">L,ev,aus</tspan>
          </text>
        </g>
      </g>
    </g>
  </g>
</svg>
