<?xml version="1.0" encoding="UTF-8" standalone="no"?>
<!-- Created with Inkscape (http://www.inkscape.org/) -->

<svg
   xmlns:dc="http://purl.org/dc/elements/1.1/"
   xmlns:cc="http://creativecommons.org/ns#"
   xmlns:rdf="http://www.w3.org/1999/02/22-rdf-syntax-ns#"
   xmlns:svg="http://www.w3.org/2000/svg"
   xmlns="http://www.w3.org/2000/svg"
   xmlns:sodipodi="http://sodipodi.sourceforge.net/DTD/sodipodi-0.dtd"
   xmlns:inkscape="http://www.inkscape.org/namespaces/inkscape"
   width="744.09448819"
   height="1052.3622047"
   id="svg2"
   version="1.1"
   inkscape:version="0.48.2 r9819"
   sodipodi:docname="New document 1">
  <defs
     id="defs4">
    <clipPath
       id="pbd0a946183">
      <rect
         id="rect3437"
         y="10.8"
         x="53.836875"
         width="439.363125"
         height="270.0" />
    </clipPath>
    <style
       id="style2989"
       type="text/css">
*{stroke-linecap:butt;stroke-linejoin:round;}
  </style>
    <clipPath
       id="clipPath4315"
       clipPathUnits="userSpaceOnUse">
      <path
         id="path4317"
         d="m 53.836875,43.2 439.363125,0 0,270 -439.363125,0 0,-270 z" />
    </clipPath>
    <clipPath
       id="clipPath4305"
       clipPathUnits="userSpaceOnUse">
      <path
         id="path4307"
         d="m 53.836875,43.2 439.363125,0 0,270 -439.363125,0 0,-270 z" />
    </clipPath>
    <clipPath
       id="clipPath4295"
       clipPathUnits="userSpaceOnUse">
      <path
         id="path4297"
         d="m 53.836875,43.2 439.363125,0 0,270 -439.363125,0 0,-270 z" />
    </clipPath>
    <clipPath
       clipPathUnits="userSpaceOnUse"
       id="clipPath1186">
      <path
         d="M 53.836875,43.2 H 493.2 v 270 H 53.836875 Z"
         id="path1184"
         inkscape:connector-curvature="0" />
    </clipPath>
    <clipPath
       clipPathUnits="userSpaceOnUse"
       id="clipPath1176">
      <path
         d="M 53.836875,43.2 H 493.2 v 270 H 53.836875 Z"
         id="path1174"
         inkscape:connector-curvature="0" />
    </clipPath>
    <clipPath
       clipPathUnits="userSpaceOnUse"
       id="clipPath1166">
      <path
         d="M 53.836875,43.2 H 493.2 v 270 H 53.836875 Z"
         id="path1164"
         inkscape:connector-curvature="0" />
    </clipPath>
    <clipPath
       clipPathUnits="userSpaceOnUse"
       id="clipPath50">
      <path
         d="M 53.836875,43.2 H 493.2 v 270 H 53.836875 Z"
         id="path48"
         inkscape:connector-curvature="0" />
    </clipPath>
    <clipPath
       clipPathUnits="userSpaceOnUse"
       id="clipPath40">
      <path
         d="M 53.836875,43.2 H 493.2 v 270 H 53.836875 Z"
         id="path38"
         inkscape:connector-curvature="0" />
    </clipPath>
    <clipPath
       clipPathUnits="userSpaceOnUse"
       id="clipPath30">
      <path
         d="M 53.836875,43.2 H 493.2 v 270 H 53.836875 Z"
         id="path28"
         inkscape:connector-curvature="0" />
    </clipPath>
  </defs>
  <sodipodi:namedview
     id="base"
     pagecolor="#ffffff"
     bordercolor="#666666"
     borderopacity="1.0"
     inkscape:pageopacity="0.0"
     inkscape:pageshadow="2"
     inkscape:zoom="2.8"
     inkscape:cx="-219.68086"
     inkscape:cy="739.92712"
     inkscape:document-units="px"
     inkscape:current-layer="g1288"
     showgrid="false"
     inkscape:window-width="1920"
     inkscape:window-height="1017"
     inkscape:window-x="-8"
     inkscape:window-y="-8"
     inkscape:window-maximized="1" />
  <metadata
     id="metadata7">
    <rdf:RDF>
      <cc:Work
         rdf:about="">
        <dc:format>image/svg+xml</dc:format>
        <dc:type
           rdf:resource="http://purl.org/dc/dcmitype/StillImage" />
        <dc:title></dc:title>
      </cc:Work>
    </rdf:RDF>
  </metadata>
  <g
     inkscape:label="Layer 1"
     inkscape:groupmode="layer"
     id="layer1">
    <g
       id="layer1-0"
       inkscape:label="Layer 1"
       transform="matrix(3.543307,0,0,3.543307,-206.02697,-274.46592)"
       style="stroke-linecap:butt;stroke-linejoin:round">
      <g
         id="g1154"
         inkscape:label="Tsats_K1K2K3lastCycle"
         transform="matrix(0.35277777,0,0,-0.35277777,5.5940496,243.025)"
         style="stroke-linecap:butt;stroke-linejoin:round">
        <path
           d="M 0,0 H 504 V 324 H 0 z"
           style="fill:#ffffff;fill-opacity:1;fill-rule:nonzero;stroke:none"
           id="path1156"
           inkscape:connector-curvature="0" />
        <path
           d="M 53.836875,43.2 H 493.2 v 270 H 53.836875 z"
           style="fill:#ffffff;fill-opacity:1;fill-rule:nonzero;stroke:none"
           id="path1158"
           inkscape:connector-curvature="0" />
        <g
           style="stroke-linecap:butt;stroke-linejoin:round"
           id="g1160">
          <g
             style="stroke-linecap:butt;stroke-linejoin:round"
             id="g1162"
             clip-path="url(#clipPath1166)">
            <path
               d="m 53.836875,175.99643 0.370771,3.27834 0.37077,0.95986 0.370771,2.09767 0.37077,1.15746 0.370771,0.18568 0.37077,-0.54718 0.370771,-0.11928 0.370771,0.87361 0.37077,-0.48398 0.370771,-0.21366 0.37077,0.64375 0.370771,0.0817 0.37077,0.41854 0.370771,-0.3788 0.370771,-0.63074 0.37077,0.8722 0.370771,-0.44851 0.37077,0.2829 0.370771,0.46335 0.741541,0.0264 0.370771,-0.52038 0.37077,0.005 0.370771,0.65815 0.37077,-0.0273 0.370771,0.30267 0.37077,-0.72321 0.370771,0.84497 0.370771,-0.6315 0.37077,1.41833 0.370771,-0.0478 0.37077,-1.27559 0.370771,1.39764 0.37077,-1.28889 0.370771,1.57732 0.370771,-0.36752 0.37077,0.73086 0.370771,0.31445 0.37077,-0.39858 0.370771,0.20113 0.37077,1.05438 0.370771,0.43689 0.37077,1.13249 0.370771,0.0655 0.370771,1.27285 0.37077,-0.27686 0.370771,1.09314 0.37077,1.78942 0.370771,0.21229 0.37077,1.22383 0.370771,2.20495 0.370771,0.6298 0.37077,1.36095 1.112312,6.52934 0.37077,3.11079 0.370771,1.89772 2.966165,20.62517 0.741541,4.95642 0.37077,1.32374 0.370771,2.01238 0.37077,2.81243 0.370771,0.58839 0.370771,2.90967 0.37077,1.21328 1.112312,5.44359 0.37077,0.80757 0.741542,3.04756 0.37077,1.00293 0.370771,1.40369 0.37077,0.35416 0.741541,2.90846 0.370771,1.14419 0.370771,0.62813 0.37077,1.12038 0.370771,0.64312 0.37077,0.009 0.370771,0.79879 0.741541,2.26861 0.741541,1.12697 0.370771,0.28608 0.37077,1.09763 0.370771,0.53604 0.37077,-100.2778 0.370771,-26.00055 0.370771,0.44083 0.37077,2.97371 0.370771,-0.8515 0.37077,1.22343 0.370771,0.14002 0.37077,-3.43569 1.112312,1.76003 0.370771,-0.49171 0.37077,-0.97735 1.483083,-8.6262 0.741541,-3.24747 0.37077,-0.76077 0.370771,-1.40209 0.37077,0.46153 0.370771,-2.34947 1.112312,-2.06942 0.370774,-0.11356 1.11231,-2.95635 0.37077,-0.0457 0.37077,-0.443 0.37077,-0.0691 0.37077,-0.67816 0.74154,-0.12439 0.37077,-1.62543 0.37077,0.30426 1.11231,1.68805 1.11232,3.19863 0.37077,1.52523 0.74154,0.2281 0.37077,-0.5641 0.37077,0.23515 0.37077,-3.09645 0.37077,-0.13071 0.37077,-1.22855 0.37077,-0.65266 0.37077,-1.19127 0.37077,-0.3269 0.37077,0.3975 0.37077,0.93138 0.37077,0.37412 1.11232,2.58758 0.37077,0.65603 0.37077,-0.28058 0.37077,0.80043 0.37077,-1.3955 0.37077,-0.75823 0.37077,-0.11688 0.37077,-0.36279 0.74154,0.0718 0.37077,0.53679 0.37077,0.25715 0.37077,-0.0586 0.37077,0.35297 0.74154,-0.88271 0.37077,-0.47001 0.37078,0.42937 0.37077,-0.51869 0.37077,-0.84217 0.37077,0.21886 0.37077,-1.50042 0.37077,1.30453 0.37077,-2.07399 0.37077,1.36114 0.37077,-0.9338 0.37077,-0.19534 0.37077,1.38186 0.37077,-2.40811 0.37077,1.05652 0.37077,0.28637 0.37077,1.28082 0.37077,-1.60494 0.37077,0.42585 0.37077,-1.22021 0.37078,0.93902 0.37077,-0.005 0.37077,0.97562 0.37077,0.42567 0.37077,0.18838 0.37077,-1.61814 0.37077,1.76808 0.37077,-1.74306 0.37077,1.0256 0.37077,-0.16457 0.37077,0.58997 0.37077,-1.03528 0.37077,0.88014 0.37077,0.3095 0.37077,-0.0171 0.37077,-1.21936 0.37077,-0.0231 0.37078,1.08081 0.37077,-0.73112 0.37077,0.15008 0.37077,-1.38517 0.37077,-0.40294 0.37077,-0.11994 0.37077,0.6839 0.37077,0.0855 0.37077,-0.51339 0.37077,0.15003 0.37077,-0.0463 0.37077,-0.27553 0.37077,-0.0951 0.37077,0.24836 0.37077,0.0236 0.37077,-0.0917 0.37077,-0.22778 0.37077,0.228 0.37078,-0.24394 0.37077,0.20928 0.37077,-0.0564 0.37077,0.11697 1.11231,-0.0755 0.37077,-0.33268 0.74154,-0.15794 0.37077,0.22689 0.74154,-0.39579 0.37077,0.75334 0.37077,-0.21543 0.37077,0.20563 0.37077,-0.79639 0.37078,-0.11801 1.11231,0.27264 0.37077,0.0165 0.37077,-0.26057 0.37077,-0.0106 0.37077,-1.19676 0.37077,1.2658 0.37077,-0.48226 0.37077,0.53909 0.37077,-0.77517 0.37077,0.69292 0.37077,-0.53986 0.37077,0.0354 0.37077,-0.15088 0.37077,0.63768 0.37077,-0.10509 0.37078,-0.84395 0.37077,0.45371 0.37077,0.26018 0.37077,0.11279 0.37077,-0.36343 0.37077,-0.60193 0.74154,0.84939 0.37077,-0.54328 0.74154,0.18704 0.37077,-0.48975 0.37077,0.51066 0.37077,-0.31131 0.74154,0.38023 0.37077,-0.16666 0.37078,0.16327 0.74154,0.0699 0.37077,-0.41831 0.37077,-0.1359 0.74154,0.30199 0.37077,0.50796 0.37077,-1.02986 0.74154,-0.39205 0.37077,0.85693 0.37077,-0.8578 0.37077,0.003 0.37077,0.91743 0.37077,-0.11022 0.37077,0.2946 0.74155,-0.67614 0.37077,-0.66067 0.37077,0.007 0.74154,0.84659 0.37077,-0.12928 0.37077,0.13869 0.37077,-0.56936 0.37077,-1.11966 0.37077,1.13909 0.37077,0.49779 0.37077,0.0848 0.37077,-0.9214 0.37077,0.24641 0.37077,0.70771 0.37077,-0.62082 0.37077,0.70537 0.37077,-0.0713 0.37078,0.10785 0.37077,-0.14608 0.37077,-0.013 0.37077,-0.24727 0.37077,-1.19558 0.37077,-0.053 0.37077,1.44066 0.37077,-0.34152 0.37077,-0.13158 0.37077,-1.96927 0.37077,1.83235 0.37077,0.25545 0.37077,-0.24566 0.37077,0.38336 0.37077,-2.03931 0.37077,1.74588 0.37077,-0.10596 0.37078,-1.47829 0.37077,0.17764 0.37077,1.41814 0.37077,-1.78452 0.37077,1.22568 0.37077,0.61148 0.37077,-0.8871 0.37077,1.4873 0.37077,-0.13821 1.11231,-1.22862 0.37077,0.33449 0.74154,1.04233 0.37077,-1.18674 0.37077,-0.56711 0.37077,1.4424 0.37078,-0.60003 0.37077,-1.63067 0.37077,-0.11954 0.37077,0.9759 0.37077,0.46739 0.37077,-1.38585 0.37077,1.67194 0.37077,-1.55562 0.37077,1.23845 0.37077,0.22108 0.37077,-2.20996 0.37077,2.26178 0.37077,-1.63459 0.37077,1.1351 0.37077,-1.31986 0.37077,0.30537 0.37077,0.0454 0.37078,1.62763 0.37077,-1.63776 0.37077,1.27712 0.37077,-0.0951 0.37077,-1.53255 0.37077,-0.0929 0.37077,2.03198 0.37077,-1.93752 0.37077,0.2435 0.37077,0.83699 0.37077,0.55081 0.37077,-0.45061 0.37077,-1.08349 0.37077,1.93492 0.37077,-1.10721 0.37077,-0.49116 0.37077,0.74912 0.37077,0.20285 0.37078,0.0133 0.37077,-1.29365 0.74154,1.49079 0.37077,-1.33873 0.37077,-0.60897 0.37077,2.24866 0.37077,-1.49651 0.37077,1.07811 0.37077,-0.97897 0.37077,0.54519 0.37077,-0.80361 0.37077,1.27988 0.37077,-0.001 0.37077,-0.73963 0.37077,-0.003 0.37077,-0.5587 0.37078,1.1436 0.37077,-0.60287 0.37077,-0.87266 0.37077,1.57848 0.74154,-2.06678 0.37077,0.23011 0.37077,1.54205 0.37077,-0.81536 0.37077,0.0647 0.37077,-0.13567 0.37077,0.19671 0.37077,-1.0959 0.37077,-0.0338 0.37077,1.03087 0.37077,-0.90691 0.37077,1.49388 0.74155,-1.19406 1.11231,0.68555 0.37077,-0.0635 0.37077,-0.88336 0.74154,0.09 0.37077,1.11178 0.37077,0.63085 0.37077,-1.40243 0.37077,0.17488 0.37077,0.43558 0.37077,-0.0733 0.37077,0.064 0.37077,-0.0717 0.37077,-1.01382 0.37078,0.93449 0.37077,-0.90498 0.37077,0.74693 0.37077,-0.0174 0.37077,-0.72279 0.37077,0.5826 0.37077,-0.74126 0.37077,0.43329 0.37077,-0.72418 0.37077,1.55306 0.37077,-1.41351 0.37077,0.87131 0.37077,-0.59411 0.37077,0.62138 0.37077,0.31078 0.37077,-1.00995 0.37077,0.91901 0.37077,-0.64991 0.37078,-0.23177 0.37077,0.71025 0.37077,-0.14627 0.37077,-0.70688 0.37077,0.0894 0.37077,0.96802 0.37077,-1.04605 0.37077,0.79764 0.37077,0.42229 0.37077,-0.35193 0.37077,-0.0729 0.37077,0.27355 1.11231,-0.0241 0.37077,-0.85444 0.37077,-0.25585 0.37078,0.98173 0.37077,-0.0258 0.37077,-0.77247 0.37077,0.12197 0.37077,-0.62384 0.37077,0.9361 0.37077,-0.57779 0.37077,1.12183 0.37077,-0.48699 0.37077,-0.0153 0.37077,0.19845 0.74154,-0.57164 0.37077,-0.13359 0.37077,0.12219 0.37077,-0.21681 0.37077,-0.58992 0.37077,1.0032 0.37078,-0.005 0.37077,0.36674 0.37077,-0.7356 0.37077,0.22606 0.37077,-0.25346 0.37077,0.0877 0.37077,-1.02822 0.37077,1.14888 0.37077,-0.52397 0.37077,0.96217 0.37077,-1.16436 0.37077,0.78283 0.37077,0.27006 0.37077,-0.42394 0.37077,-0.86155 0.37077,0.12225 0.74154,1.38491 0.74155,-1.35249 0.37077,0.0371 0.37077,0.59541 0.37077,-0.61136 0.37077,-0.0979 0.37077,0.0179 0.37077,1.04035 0.37077,-1.0334 0.37077,0.85438 0.37077,-0.75097 0.37077,0.64543 0.74154,-0.60467 0.37077,0.70897 0.37077,-0.12154 0.37077,-0.91046 0.37078,0.77997 0.37077,-0.18866 0.37077,0.15007 0.37077,-1.35468 0.74154,1.47072 0.37077,-0.12569 0.37077,0.0785 0.37077,-1.50297 0.37077,1.2124 0.37077,-0.43735 0.74154,0.15182 0.37077,-0.68381 0.37077,1.14948 0.74154,0.25589 0.37077,-0.44744 0.74155,-0.50656 0.37077,0.14541 0.37077,0.44809 0.37077,-0.007 0.37077,-1.30725 0.37077,1.57571 0.37077,-0.33814 0.37077,-1.01547 0.37077,0.84452 0.37077,0.10015 0.37077,-0.291 0.37077,0.27696 0.37077,0.0896 0.37077,-0.3372 0.37077,0.73071 0.37077,-0.92729 0.37078,0.21663 0.37077,-1.35355 0.37077,-0.0651 0.37077,1.40137 0.37077,-1.34502 0.37077,1.41843 0.37077,-0.42168 0.37077,-1.22263 0.37077,1.5701 0.37077,-1.15739 0.37077,1.40887 0.74154,-0.61302 0.37077,0.21139 0.37077,-1.15132 0.37077,-0.005 0.37077,1.37576 0.37077,-2.01718 0.37078,1.65271 0.74154,0.19078 0.37077,-1.81958 0.37077,1.83495 0.37077,0.22308 0.37077,-1.79767 0.37077,-1.00523 0.37077,2.52213 0.37077,-1.55895 0.37077,1.66803 0.37077,-0.37212 0.37077,0.35163 0.37077,-1.02196 0.37077,1.04465 0.37077,-0.50704 0.37077,0.31564 0.37078,-0.87513 0.37077,0.89366 0.37077,-0.20079 0.37077,-0.93814 0.37077,0.42714 0.74154,-1.23578 0.37077,0.032 0.37077,1.26033 0.37077,-0.83384 0.37077,1.17812 0.37077,0.44083 0.37077,-0.9293 0.37077,0.79626 0.37077,-0.72434 0.37077,0.12054 0.37077,0.36842 0.37077,-0.72047 0.74155,-0.57322 0.37077,0.61477 0.37077,-0.0786 0.37077,0.12782 0.37077,-1.874 0.37077,1.78979 0.37077,-0.18749 0.37077,0.0668 0.37077,-1.10488 0.37077,1.08798 0.74154,-1.6234 0.37077,1.60908 0.37077,-0.30679 0.37077,0.81166 0.37077,-0.69714 0.37078,-0.33512 0.37077,0.66369 0.37077,-0.77876 0.37077,-1.48286 0.37077,0.72488 0.37077,-0.31666 0.37077,0.18201 0.37077,1.39382 0.37077,0.0605 0.37077,-0.35266 0.37077,0.22606 0.37077,-1.53559 0.37077,1.76445 0.37077,-2.27778 0.37077,1.79616 0.37077,-1.59343 0.37077,1.55335 0.37077,0.2666 0.37078,-1.18161 0.37077,-0.29291 0.74154,0.65197 0.37077,-0.39689 0.37077,-0.79171 0.37077,1.15316 0.37077,0.21314 0.37077,-1.1008 0.37077,-0.29255 0.37077,0.30126 0.37077,1.26912 0.37077,-0.54196 0.37077,0.16542 0.37077,0.80658 0.37077,-1.39033 0.37077,-0.52089 0.37077,0.56959 0.37078,0.0446 0.37077,-0.12845 0.37077,-0.4659 0.37077,-0.12651 0.37077,1.17157 0.74154,-0.89777 0.37077,0.68664 0.37077,-1.39268 0.37077,1.01491 0.37077,0.009 0.37077,-0.21346 0.37077,-0.66937 0.37077,-0.1342 0.37077,0.98478 0.74154,0.29861 0.37078,-0.29226 0.37077,-0.0442 0.37077,-0.77693 0.37077,-0.22261 0.37077,0.52579 0.37077,-0.67604 0.37077,1.1162 0.37077,-0.5616 0.74154,-0.24742 0.37077,-0.70866 0.37077,0.21383 0.37077,1.1054 0.37077,-1.34354 0.37077,0.25755 0.37077,1.14617 0.37077,-0.17149 0.37077,-0.0149 0.74155,-0.43049 0.37077,-0.0709 0.37077,-0.72136 0.37077,1.27945 0.37077,0.20484 0.37077,-0.20115 0.37077,-0.61852 0.37077,-0.14149 0.37077,0.37477 0.37077,-0.34945 0.37077,0.46722 0.37077,-0.20503 0.37077,0.15513 0.37077,-0.93034 0.37077,-0.14855 0.37077,0.97723 0.37078,-0.38702 0.37077,0.10917 0.37077,0.23459 0.37077,0.0101 0.37077,-0.56861 0.37077,0.51995 0.37077,-0.92724 0.37077,0.90808 0.37077,-0.61991 0.37077,0.26293 0.37077,-0.44442 0.37077,-0.0385 0.37077,0.15328 0.37077,-0.68476 0.37077,0.86138 0.37077,-0.16981 0.37077,0.70597 0.37077,-0.0814 0.37078,-1.48541 0.37077,0.0605 0.37077,0.21908 0.37077,0.64469 0.37077,0.16548 1.11231,-0.36898 0.37077,0.18105 0.74154,-0.37406 0.37077,0.0423 0.37077,-0.16964 0.74154,0.37264 0.37077,-0.84006 0.37077,1.58547 0.37078,-0.94233 0.37077,0.28637 0.37077,-0.22571 0.37077,-0.71235 0.37077,0.79761 0.37077,-0.28989 0.74154,-1.63142 1.11231,2.00158 0.37077,0.023 0.37077,-0.35441 0.37077,0.12734 0.74154,-0.6622 0.74154,0.0691 0.37078,-1.02483 0.37077,1.42844 0.37077,0.0736 0.37077,-0.63127 1.11231,0.31135 0.37077,-0.4307 0.37077,-1.78499 0.37077,0.73085 0.37077,1.30588 0.37077,-1.84752 0.37077,1.46746 0.37077,-0.56746 0.37077,0.77411 0.37077,-1.547 0.37077,1.3463 0.37078,-0.51562 0.37077,0.76365 0.37077,-0.22476 0.37077,-1.06367 0.37077,0.55463 1.11231,0.59372 0.37077,-1.23 0.37077,-0.18926 0.37077,0.84155 0.37077,-0.11623 0.37077,-0.90586 0.37077,1.57304 0.37077,-0.7287 0.37077,-1.45387 0.37077,0.32193 0.37077,0.70117 0.37078,0.40731 0.37077,-1.55022 0.37077,1.51588 0.37077,-0.78878 0.37077,0.19398 0.37077,-0.22436 0.37077,0.18832 0.37077,-0.10262 0.37077,0.20454 0.37077,-0.26606 0.37077,0.0897 0.37077,-0.22272 0.37077,-0.0509 0.37077,-0.54626 0.37077,0.75773 0.37077,-0.11983 0.37077,0.56008 0.37077,-0.70595 0.37078,0.15296 0.74154,-0.0661 0.37077,-1.05682 0.37077,1.23901 0.37077,-0.0425 0.74154,-1.43675 0.37077,0.10035 0.37077,0.71644 0.37077,-0.12551 0.37077,-0.006 0.37077,-0.47969 0.37077,0.83688 0.37077,-0.15728 0.37077,0.11976 0.37077,-0.66635 0.37078,0.54943 0.37077,-0.21951 0.37077,-0.73555 0.74154,0.77662 0.37077,-0.0177 0.37077,-0.83881 0.37077,0.71535 0.37077,-0.13996 0.37077,0.1137 0.37077,-0.1557 0.37077,0.2226 0.37077,-0.51366 0.37077,0.26276 0.37077,0.049 0.37077,-1.08837 0.37077,0.91935 0.37077,-0.42005 0.37078,0.59019 0.37077,-0.22362 0.37077,-0.52618 0.37077,-0.0115 0.37077,0.4557 0.37077,-0.87605 0.37077,1.20641 0.74154,-0.59645 0.37077,-0.16657 0.37077,0.25286 0.74154,-0.17276 0.37077,-0.18724 0.37077,0.40048 0.74154,-0.49812 0.37078,0.34593 0.37077,-0.82706 0.37077,0.92573 0.37077,-0.37976 0.37077,-0.83612 0.37077,0.86089 1.48308,-1.32254 0.37077,0.8301 0.37077,-0.5758 0.37077,0.51125 0.37077,0.0119 0.37077,-0.61668 0.37077,0.0504 0.37077,-0.13061 0.37077,-0.61807 0.37078,0.30917 0.37077,0.7039 0.37077,-0.58388 0.37077,-1.83376 0.37077,0.71255 0.37077,1.17499 0.37077,-0.86615 0.37077,-0.39113 0.37077,0.98693 0.37077,-1.78137 0.37077,1.32235 0.37077,-1.7971 0.37077,1.00283 0.37077,-1.02346 0.37077,0.51212 1.11232,-0.20697 0.37077,-0.33958 0.74154,0.007 0.37077,-0.85857 0.37077,0.0666 0.37077,0.88214 0.37077,0.003 0.37077,-1.08941 0.37077,-0.51108 0.37077,1.19085 0.37077,-0.85954 0.37077,0.59131 0.37077,-1.24858 0.37077,1.17328 0.74154,-0.15679 0.37077,-1.03608 0.37078,0.81198 0.37077,0.008 0.37077,-2.251093 0.74154,1.371653 0.37077,0.0367 0.37077,-1.658135 0.37077,1.509435 0.37077,-0.41117 0.74154,0.138788 0.37077,0.493502 0.37077,-0.878161 0.37077,-1.680833 0.37077,0.304298 0.37077,0.558679 0.37077,-0.950646 0.37077,0.148149 0.37078,-0.215873 0.37077,0.816149 0.37077,-0.480034 0.37077,-1.271402 0.37077,0.730427 0.37077,0.374069 0.37077,-0.117763 0.37077,0.07155 0.37077,-0.07247 1.11231,-1.637175 0.37077,0.231998 0.37077,0.723342 0.37077,-0.699218 0.37077,0.348891 0.37077,-0.573161 0.37078,0.70034 0.37077,-0.767054 0.37077,0.691383 0.37077,-1.728524 0.37077,0.986152 0.37077,-1.77368 0.37077,0.560814 0.37077,1.289616 0.74154,-0.337435 0.37077,-1.64682 0.37077,0.343689 0.74154,1.618893 0.37077,-1.310206 0.37077,0.163994 0.37077,-1.296014 0.37077,-0.09692 0.37078,0.07464 0.37077,0.71598 0.37077,-0.853223 0.37077,0.739586 0.37077,-0.181459 0.37077,-1.082957 0.37077,1.318836 0.37077,-1.726255 0.74154,1.816162 0.37077,-0.899917 0.37077,0.522856 0.74154,-1.253472 0.37077,0.658359 1.11232,-0.216703 0.37077,0.349863 0.37077,-0.157016 0.37077,-0.764994 0.37077,0.695982 0.37077,-0.849891 0.37077,0.539952 0.37077,-0.105109 0.74154,-0.924809 0.37077,0.249237 0.37077,0.607791 0.37077,-0.279974 0.37077,0.327289 0.37077,-1.211523 0.37077,0.901914 0.37077,-0.164526 0.37077,-0.897949 0.37078,-0.55955 0.37077,0.712304 0.74154,-0.131586 0.37077,0.970037 0.37077,-1.010811 0.37077,0.645908 0.37077,-0.35606 0.37077,-0.786142 0.37077,1.17651 0.37077,-0.556034 0.37077,0.602735 0.37077,-1.14703 0.37077,0.590677 0.37077,-0.879919 0.37077,-0.360683 0.37077,1.049805 0.37078,-0.730059 0.37077,0.968949 0.74154,-0.495525 0.37077,0.08465 0.74154,-0.508844 0.37077,0.601917 0.37077,-1.265283 0.74154,-1.126534 0.37077,1.099953 0.37077,-1.164927 0.37077,0.367429 0.37077,1.392026 0.74154,0.0074 0.37077,-2.039027 0.37078,2.054214 0.37077,-2.402827 0.37077,1.882113 0.37077,-0.232515 0.74154,-1.863296 0.37077,1.30646 0.37077,-1.402984 0.37077,0.84836 0.37077,-0.881408 0.37077,1.121792 0.37077,0.187885 0.37077,-0.377914 0.37077,0.09534 0.37077,-0.15687 0.37077,-0.704393 0.74155,0.386432 0.37077,-0.447855 0.37077,-0.87042 0.37077,0.745493 0.37077,0.138648 0.37077,64.885075 0.37077,9.08937 0.37077,3.90773 0.74154,8.92128 0.37077,4.32424 0.37077,1.21783 0.37077,2.04097 0.74154,0.81591 0.74154,-0.0282 0.37077,0.70645 0.37078,-0.65394 0.37077,0.69913 0.37077,-0.69606 0.37077,0.78136 0.37077,0.0536 0.37077,-0.79353 0.37077,0.73732 0.37077,-0.0883 0.37077,0.37652 0.37077,-0.60244 0.37077,0.71329 0.37077,-0.7117 0.37077,0.90568 0.37077,-0.73886 0.37077,0.0194 0.37077,1.61641 0.37077,-0.58737 0.37077,-1.01618 0.37078,1.16814 0.37077,-0.62318 0.37077,1.06633 0.37077,0.12918 0.37077,-1.13778 0.37077,1.38436 0.37077,-1.23823 0.37077,1.12712 0.37077,0.38756 0.37077,-0.19535 0.37077,0.0208 0.37077,0.99623 0.37077,0.35184 0.37077,-0.31489 0.74154,2.07184 1.48309,2.4156 0.37077,0.1475 0.37077,2.22192 0.37077,1.03127 0.74154,3.08337 0.74154,2.94223 0.37077,1.60318 0.74154,5.70195 0.37077,1.39704 0.74154,6.1095 0.37077,2.26495 0.74155,6.16506 0.37077,1.84617 0.37077,3.25148 1.11231,5.83512 1.11231,7.17848 0.37077,1.52602 0.74154,3.68551 0.37077,1.23245 0.37077,2.55777 1.11231,4.71314 0.37078,0.92622 0.37077,0.39147 0.37077,2.08008 1.11231,3.31943 0.74154,2.0569 0.37077,0.13815 1.85385,4.1185 0.37077,-0.17803 0.37077,1.70994 1.48309,2.13401 0.37077,0.25458 0.37077,0.0888 0.74154,-5.27964 0.37077,-1.74058 0.37077,-1.05234 0.37077,-0.54329 v 0"
               style="fill:none;stroke:#0000ff;stroke-width:1;stroke-linecap:square;stroke-linejoin:round;stroke-miterlimit:10;stroke-opacity:1;stroke-dasharray:none"
               id="path1168"
               inkscape:connector-curvature="0" />
          </g>
        </g>
        <g
           style="stroke-linecap:butt;stroke-linejoin:round"
           id="g1170">
          <g
             style="stroke-linecap:butt;stroke-linejoin:round"
             id="g1172"
             clip-path="url(#clipPath1176)">
            <path
               d="m 53.836875,174.47804 0.370771,3.12497 0.37077,1.3139 0.370771,1.8858 0.37077,0.93715 0.370771,0.58303 0.37077,1.51739 0.370771,-1.32409 0.370771,0.32344 0.37077,0.68648 0.370771,-0.48743 0.37077,0.67983 0.370771,0.93661 0.741541,-0.0128 0.370771,0.0271 0.37077,-0.24856 0.370771,-0.50476 0.37077,-0.0781 0.370771,0.81319 0.37077,-0.75789 0.370771,0.78491 0.370771,-0.69136 0.37077,0.78925 0.370771,0.14978 0.37077,-0.85272 0.370771,-0.0822 0.37077,0.53176 0.370771,-0.31308 0.370771,1.07966 0.37077,-0.63871 0.370771,0.70479 0.37077,0.0849 0.370771,-0.76427 0.37077,0.37108 0.741542,0.21608 0.741541,0.0792 0.741541,0.0486 0.37077,0.67133 0.370771,-0.34009 0.37077,0.75101 0.370771,0.30718 0.370771,0.65873 0.37077,-1.32598 0.370771,-0.0505 0.37077,1.4877 0.370771,-0.69143 0.37077,0.63967 0.370771,0.15538 0.370771,0.36293 0.37077,0.86756 0.370771,-0.7408 0.741541,0.73917 0.37077,0.60619 0.370771,0.8654 0.370771,1.32991 0.37077,0.0333 0.370771,0.544 0.37077,2.73537 1.483083,7.59356 0.37077,2.76669 0.741541,9.0662 1.112312,14.00558 0.370771,3.00227 0.37077,4.80414 1.483082,11.2556 0.370771,1.83478 0.741541,2.38426 0.741541,4.70721 0.741541,1.5711 0.370771,1.77805 1.112312,3.08379 0.741541,1.1492 0.37077,1.47084 0.370771,0.24703 1.112312,2.57788 0.37077,0.31648 0.370771,0.56393 0.37077,0.20611 0.741542,-5.60733 0.37077,-1.01335 0.370771,-2.01833 0.37077,0.10539 0.741541,-121.51724 0.370771,-3.86677 0.370771,5.52316 0.37077,2.61602 0.370771,-0.60724 0.37077,-1.65819 0.370771,-3.62081 0.37077,-1.32661 0.370771,-2.68971 0.370771,0.15808 0.37077,-0.007 0.370771,-0.66131 0.741541,-3.47159 0.37077,-0.93901 0.370771,0.44942 0.37077,-1.59529 0.370771,0.27988 0.741545,-2.22864 0.37077,-0.21723 0.37077,-0.76588 0.37077,0.48104 0.37077,-1.34167 0.37077,-0.21321 0.37077,-1.08799 0.37077,1.30499 0.37077,-2.09895 0.37077,-0.46884 0.74154,-0.42717 0.74154,0.93233 0.37077,0.99242 0.37077,0.62634 0.37078,2.54957 0.37077,-1.0068 0.37077,2.38365 0.37077,-0.17275 0.37077,0.7728 0.37077,-2.15974 0.37077,0.2147 0.37077,-1.09336 0.37077,-1.53691 0.37077,-0.7291 0.37077,-1.68743 0.37077,-0.60615 0.37077,0.90151 0.37077,0.0312 0.37077,-0.0901 0.37077,1.84698 0.37077,0.52179 0.37078,0.20925 0.37077,1.01521 0.37077,0.67374 0.37077,-1.25499 0.37077,0.78583 0.37077,-1.98108 0.37077,0.0163 0.37077,-0.70606 0.37077,-1.19113 0.37077,1.98407 0.37077,-1.1137 0.37077,1.31074 0.37077,0.10335 0.74154,1.08195 0.37077,-0.84391 0.37077,0.13452 0.37077,0.36012 0.37078,-1.15335 0.37077,-0.74492 0.37077,0.0314 0.37077,-0.95642 0.37077,-0.0259 0.37077,-0.44772 0.37077,0.32938 0.37077,-0.60802 0.74154,0.63734 0.37077,-0.75592 0.37077,0.0117 0.37077,0.4523 0.37077,-0.51423 0.37077,1.07065 0.37077,0.39334 0.37077,-0.6793 0.37077,-0.19557 0.37078,0.01 0.37077,1.02216 0.37077,-0.77127 0.37077,0.23365 0.37077,0.85512 0.37077,0.1627 0.37077,-0.90633 0.37077,2.06312 0.37077,-1.91218 0.37077,1.50339 0.37077,-0.21098 0.37077,-0.0125 0.37077,-0.88386 0.37077,0.92178 0.37077,0.56484 0.37077,-1.71433 0.37077,0.65027 0.37078,-1.83656 0.37077,1.36312 0.37077,-6.5e-4 0.74154,0.67056 0.37077,-2.32295 0.37077,0.85282 0.37077,-0.90184 0.37077,1.04736 0.37077,-1.0418 0.74154,0.10438 0.37077,0.80191 0.37077,-1.33442 0.37077,0.45751 0.37077,-0.3718 0.37077,0.50467 0.37077,-0.75766 0.37078,0.24143 0.74154,-0.29516 0.37077,1.01382 0.37077,-1.10256 0.37077,0.9259 0.37077,-0.93531 0.74154,-0.0626 0.37077,1.01851 0.37077,-0.18865 0.74154,-0.66444 0.37077,0.20966 0.37077,0.4254 0.37077,-0.69248 0.37077,-0.15518 0.37078,0.69046 0.37077,-0.56197 0.37077,0.59735 0.37077,-0.98338 0.37077,0.0663 0.37077,0.33497 0.37077,-0.20577 0.37077,0.96447 0.37077,-2.31429 0.37077,1.5524 0.37077,-0.7693 0.37077,0.74218 0.37077,-0.36446 0.37077,0.0392 0.37077,0.63729 0.74154,-1.31992 0.37077,0.16686 0.37078,0.72082 0.37077,-1.10004 0.37077,0.17617 0.37077,-0.23699 0.37077,1.23618 0.37077,-0.0493 0.74154,-1.43821 0.37077,0.97188 0.37077,-1.0698 0.37077,0.76679 0.37077,0.10461 0.37077,0.49668 0.37077,-0.71384 0.37077,0.1111 0.37077,0.45171 0.37077,0.0117 0.37078,-1.5166 0.37077,0.87338 0.37077,0.1027 0.37077,-1.55529 0.37077,2.21803 0.37077,-0.0116 0.37077,-1.04137 0.37077,0.80384 0.37077,-0.41465 0.37077,-0.68317 0.37077,0.69318 0.37077,-0.26195 0.37077,-0.81474 0.37077,1.81006 0.37077,-1.58584 0.37077,1.02836 0.37077,-1.33513 0.37077,1.89138 0.74155,-0.60439 0.74154,-1.51096 0.37077,0.70848 0.37077,0.94853 0.37077,0.11136 0.37077,-0.0263 0.37077,-0.80866 0.37077,0.89349 0.37077,-1.13731 0.37077,-0.61376 0.37077,0.9992 0.37077,-0.77833 0.37077,-0.4707 0.37077,0.0123 0.37077,0.17909 0.37077,1.88157 0.37078,-2.14645 1.11231,2.4017 0.37077,-1.03273 0.37077,0.84605 0.37077,0.25774 0.37077,-2.26909 0.37077,-0.39068 0.37077,0.25023 0.37077,-0.16826 0.37077,1.39758 0.37077,-1.31548 0.37077,1.84127 0.37077,-0.47658 0.37077,-1.07709 0.37077,1.45378 0.37078,-2.28939 0.37077,0.12844 0.74154,-0.0176 0.74154,0.68901 0.37077,1.32273 0.37077,-1.56964 0.37077,-0.13623 0.37077,0.29462 0.37077,1.10445 0.37077,-1.42786 0.37077,1.6188 0.37077,-0.24386 0.37077,-1.23549 0.37077,-0.46707 0.37077,1.46667 0.37077,-1.2109 0.37078,-0.24804 0.37077,2.35551 0.37077,-0.33498 0.37077,-0.51081 0.37077,-1.20899 0.37077,-0.37455 0.37077,0.30575 0.37077,0.14232 0.37077,-0.69259 0.37077,1.15467 0.37077,-0.57131 0.37077,0.0669 0.37077,1.55112 0.37077,-1.78839 0.37077,0.40789 0.37077,-0.0793 0.37077,-0.28663 0.37078,1.88874 0.37077,-1.68364 0.37077,-0.0296 0.37077,-0.41473 0.37077,0.66969 0.37077,-0.43172 0.37077,0.01 0.37077,0.45661 0.37077,-0.74623 0.37077,0.0435 0.37077,0.56802 0.37077,-0.67652 0.37077,0.55267 0.37077,-0.0756 0.37077,0.096 0.37077,-0.37806 0.37077,-0.087 0.37077,0.67159 0.74155,-0.57071 0.37077,0.28178 0.37077,0.49488 0.37077,-1.03084 0.37077,0.16899 0.74154,-0.37902 0.37077,2.72412 0.37077,-1.74848 0.37077,-0.32491 0.37077,-0.54968 0.37077,0.14277 0.37077,0.3448 0.37077,-0.0998 0.37077,1.33984 0.37077,-1.5133 0.37078,0.032 0.37077,1.0784 0.74154,-0.94433 0.37077,-0.18507 0.37077,0.30173 0.37077,-0.46105 0.74154,0.0626 0.37077,0.68915 0.37077,-1.05907 0.37077,-0.0289 0.37077,0.32039 0.37077,-0.87397 0.37077,1.84689 0.37077,0.43733 0.37077,0.0436 0.37077,-1.44323 0.74155,0.37539 0.37077,0.73283 0.37077,-0.98786 0.37077,0.0192 0.37077,0.25312 0.37077,0.57418 0.74154,-0.66111 0.37077,0.44364 0.37077,-0.12015 1.85385,0.0787 0.37077,-0.055 0.37078,1.15038 0.37077,-1.08567 0.37077,-0.17439 0.37077,0.3953 0.37077,-0.88707 0.37077,0.341 0.37077,0.80098 0.37077,-0.40341 0.37077,-0.84084 0.37077,0.54884 0.37077,-0.37074 0.37077,0.47891 0.37077,-0.5862 0.37077,-0.0368 0.37077,0.38445 0.37077,-0.6876 0.37077,0.13769 0.37077,0.34289 0.37078,-0.52376 0.37077,1.01152 0.37077,-0.91749 0.37077,0.25055 0.37077,-0.35898 0.37077,0.76392 0.37077,-0.67164 0.37077,0.21567 0.37077,0.75425 0.37077,-1.23556 0.37077,0.46707 0.37077,-0.0879 0.37077,-0.23984 0.37077,0.16593 0.37077,0.0226 0.37077,-0.66221 0.37077,1.53295 0.37078,-1.071 0.37077,0.5828 0.37077,-0.0945 0.74154,0.51449 0.74154,-1.29918 0.37077,-0.0863 0.37077,0.14526 0.37077,-0.30587 0.37077,0.50429 0.37077,0.0884 0.37077,-1.05878 0.37077,0.31702 0.37077,1.45148 0.37077,-1.60813 0.37077,1.43072 0.37077,-1.47738 0.37078,0.15344 0.37077,-0.76542 0.37077,0.81448 0.37077,-0.45137 0.37077,0.42604 0.37077,-0.13263 0.37077,-1.13548 0.37077,0.85373 0.37077,1.42195 0.37077,-1.20855 0.37077,0.0216 0.37077,0.52467 0.37077,-0.68462 0.37077,-0.19772 0.37077,-0.86033 0.37077,0.47897 0.37077,-0.29079 0.37077,1.69346 0.37078,-1.14335 0.37077,1.65504 0.37077,-1.55654 0.37077,-0.2197 0.37077,1.86583 0.37077,-0.39914 0.37077,-1.36214 0.37077,-0.37717 0.37077,0.89778 0.37077,1.23724 0.37077,-1.32391 0.74154,-0.0336 0.37077,1.32899 0.37077,-1.34665 0.37077,0.47338 0.37077,-0.85023 0.37078,0.3833 0.37077,-0.25517 0.37077,-0.85322 0.37077,-0.44566 0.37077,1.50847 0.37077,0.43024 0.74154,-0.25022 0.37077,-1.67745 0.37077,2.03088 0.37077,0.30022 0.37077,-0.63416 0.37077,-1.70283 0.37077,1.89681 0.37077,0.0843 0.37077,-1.56878 0.74154,0.11017 0.37078,-0.41195 0.37077,0.2265 0.37077,-0.25424 0.37077,1.53984 0.37077,-0.13879 0.37077,0.41211 0.37077,-2.06985 0.74154,0.60444 0.37077,-0.11431 0.37077,-0.30576 0.37077,2.53898 0.37077,-2.48777 0.37077,0.11328 0.37077,-0.35733 0.37077,-0.007 0.37077,1.15335 0.37078,-1.08496 0.37077,-0.1812 0.37077,-5.9e-4 0.37077,1.95712 0.37077,-2.09515 0.37077,0.07 0.37077,0.26051 0.37077,1.41263 0.37077,-1.84009 0.37077,0.34965 0.37077,1.0726 0.37077,0.53485 0.37077,-0.74625 0.37077,-0.041 0.37077,0.32132 0.37077,-1.20316 0.37077,-0.0113 0.37077,1.64773 0.74155,-2.10294 0.37077,0.31049 0.37077,-0.004 0.37077,0.19274 0.37077,-0.27923 0.37077,1.16187 0.37077,-0.77384 0.37077,1.16961 0.74154,-1.68374 0.37077,0.60819 0.37077,-0.57038 0.37077,-0.0657 0.37077,0.51638 0.37077,1.1032 0.37077,-1.33066 0.37078,-0.53388 1.11231,0.23059 0.37077,0.4854 0.37077,-0.71208 0.37077,0.94156 0.37077,-0.38507 0.74154,1.29702 0.37077,-1.07459 0.37077,-0.66099 0.37077,0.33793 0.37077,-0.0672 0.37077,-0.1931 0.74154,-0.0887 0.37077,0.72394 0.37078,-1.08752 0.37077,1.05889 0.37077,-0.88989 0.37077,0.8232 0.37077,-0.96386 0.37077,-0.51561 0.37077,1.23226 0.37077,-0.58359 0.37077,0.8827 0.37077,-1.54659 0.37077,0.78007 0.37077,-0.42391 0.37077,-0.25454 0.37077,1.20648 0.37077,-0.88556 0.37077,-0.0697 0.37077,-0.28699 0.74155,0.19985 0.37077,-0.32284 0.37077,-0.005 0.37077,0.88619 0.37077,-1.10486 0.37077,0.21186 0.37077,0.38629 0.37077,-0.43449 0.37077,1.1772 0.74154,-1.7839 0.37077,1.54857 0.37077,-0.0233 0.37077,-1.71564 0.37077,0.65791 0.37077,-0.43391 0.37077,-0.17829 0.37078,1.06562 0.37077,-0.40498 0.37077,0.1396 0.74154,-0.62062 0.37077,0.21358 0.37077,1.11503 0.37077,-1.6213 0.37077,0.90784 0.37077,-0.1697 0.37077,-0.009 0.37077,0.16209 0.37077,-0.14094 0.37077,-0.62 0.37077,1.08735 0.37077,-0.99513 0.37077,-0.10163 0.37077,1.47248 0.74155,-1.55554 0.37077,0.0125 0.37077,0.94475 0.74154,-1.39822 0.37077,0.53327 0.37077,0.0983 0.37077,0.91253 0.37077,-0.98549 0.37077,-0.13988 0.74154,0.0671 0.37077,0.72946 0.37077,-0.6499 0.37077,-0.17115 0.37077,0.51937 0.37078,-1.56515 0.37077,0.92488 0.37077,0.27042 0.37077,-1.67997 0.37077,0.57697 0.74154,-0.74415 0.37077,1.90071 0.37077,-1.76367 0.37077,0.0744 0.37077,0.9573 0.37077,-0.84994 0.37077,0.92875 0.37077,-0.18525 0.37077,-0.64361 0.37077,0.17412 0.37077,1.73162 0.37077,-1.57592 0.37078,-0.70944 0.37077,-0.20009 0.37077,2.58672 0.37077,-1.91183 0.37077,1.0816 0.74154,0.0584 0.37077,-1.20188 0.37077,1.24627 0.37077,-0.40123 0.37077,-1.20765 0.37077,1.2009 0.37077,-1.17478 0.74154,0.34222 0.37077,-0.43995 0.37077,1.78898 0.37078,-0.63757 0.37077,0.36333 0.37077,-1.85625 0.37077,0.0969 0.37077,1.17237 0.37077,-0.56951 0.37077,0.24328 0.37077,-0.77933 0.37077,2.05978 0.37077,-2.30707 0.37077,0.30799 0.37077,0.98938 0.37077,-1.49867 0.37077,-0.0774 0.37077,0.57196 0.37077,-0.66044 0.37077,0.72418 0.37077,-0.45375 0.37078,0.50535 0.37077,-0.87375 0.37077,0.90249 0.37077,-0.69583 0.37077,-0.0398 0.37077,-0.81629 0.37077,1.48018 0.37077,0.0406 0.37077,-0.1193 0.37077,0.035 0.37077,-0.68441 0.37077,0.10697 0.37077,-0.17898 0.37077,0.13385 0.74154,-0.15235 0.37077,-0.73019 0.37078,1.09947 0.37077,-0.74484 0.37077,0.0286 0.37077,0.30687 0.37077,0.13872 0.37077,-0.93226 0.74154,-0.0759 0.37077,0.21928 0.37077,0.69421 0.37077,-0.97005 0.37077,0.16023 0.37077,-0.50494 0.37077,1.31237 0.37077,-0.76637 0.74154,0.70689 0.37077,-1.07065 0.37078,1.07924 0.37077,-0.0726 0.37077,-1.25296 0.37077,0.0223 0.37077,0.65307 0.37077,-1.25711 0.37077,0.35933 0.37077,0.68665 0.37077,0.18997 0.37077,-0.51307 0.37077,0.37868 0.37077,-0.78427 0.37077,-1.12338 0.37077,1.7554 0.37077,-1.79247 0.74154,1.82293 0.37078,-2.24381 0.37077,2.1228 0.37077,-0.32543 0.37077,-1.62238 0.37077,1.0114 0.37077,-0.4466 0.37077,-1.04239 0.37077,0.6558 0.37077,1.86921 0.37077,-2.33301 0.37077,0.28092 0.37077,-0.0226 0.37077,-0.34654 0.37077,1.10331 0.37077,-1.10707 0.37077,2.00576 0.37077,-1.645 0.37077,-0.25096 0.37078,1.89372 0.37077,-1.5928 0.37077,0.69372 0.37077,-1.77685 0.37077,0.66887 0.37077,1.1932 0.37077,-0.70393 0.37077,0.55202 0.37077,-0.56248 0.37077,-0.31773 0.37077,-0.62536 0.37077,1.13704 0.37077,-0.42308 0.37077,-1.25578 0.37077,0.21029 0.37077,0.047 0.37077,2.04476 0.37077,-1.866 0.37078,-0.19589 0.37077,0.23398 0.37077,-0.1721 0.37077,0.0966 0.37077,-0.14866 0.37077,0.46487 0.37077,0.27678 0.37077,-1.21233 0.37077,0.46774 0.37077,0.66194 0.37077,-0.5203 0.37077,-0.7124 0.37077,0.17595 0.37077,0.59696 0.37077,-0.44157 0.37077,0.48879 0.74155,-1.00463 1.48308,-0.0346 0.74154,0.16153 0.37077,-0.28205 0.37077,0.47782 0.37077,-0.0412 0.37077,-0.40901 0.37077,0.64707 0.37077,-0.45245 0.37077,0.0302 0.37077,0.67106 0.37077,0.27357 0.37077,-0.95892 0.37077,0.16481 0.37078,-0.61485 0.37077,-0.0597 0.37077,1.15988 0.37077,0.004 0.37077,-0.78744 0.37077,-0.11045 0.37077,-0.5302 0.37077,0.53867 0.37077,-0.17861 0.37077,0.0812 0.37077,0.58442 0.37077,-1.21663 0.37077,-0.13292 0.37077,0.48704 0.37077,0.99556 0.37077,-1.09162 0.37077,-0.12033 0.37078,-0.41167 0.37077,0.27099 0.37077,0.78748 0.37077,-1.39192 0.37077,0.59079 0.37077,-0.95883 0.37077,0.43395 0.37077,-0.18334 0.37077,0.54427 0.37077,0.0145 0.37077,0.52935 0.37077,-1.33788 0.37077,-0.87256 0.37077,0.17483 0.37077,-0.27306 0.37077,1.83507 0.37077,-0.57325 0.37077,-2.040529 0.37078,0.06041 0.37077,0.825289 0.37077,-0.671899 0.37077,-0.316089 0.37077,0.105419 0.37077,-0.08655 0.37077,0.800689 0.37077,-1.003122 0.37077,-0.467574 0.37077,0.445711 0.37077,-0.483217 0.37077,-0.11093 0.37077,-0.714315 0.37077,1.423875 0.37077,-1.155767 0.37077,0.0509 0.37077,1.023241 0.37078,-0.52106 0.37077,-0.779994 0.37077,0.921117 0.37077,-1.007809 0.37077,0.884061 0.37077,0.139969 0.37077,-1.416319 0.37077,-0.593148 0.37077,1.123291 0.74154,-0.159799 0.37077,-1.745834 0.74154,1.290221 0.37077,-1.448618 0.37077,-0.445641 0.37077,-0.0458 0.37077,1.169275 0.37078,-1.330428 0.37077,1.880879 0.37077,-0.197159 0.37077,-1.742992 0.74154,-0.231462 0.37077,1.176581 0.37077,-1.55393 0.37077,-0.299558 0.37077,1.491012 0.37077,-0.803433 0.37077,-0.291886 0.37077,-0.510454 0.74154,0.695608 0.37077,-0.307843 0.37077,-1.468497 0.37077,0.524622 0.37078,1.060372 0.37077,-1.875438 0.37077,0.142102 0.37077,-0.496159 0.37077,1.917463 1.11231,-2.237415 0.37077,1.18095 0.37077,-0.356363 0.37077,-1.339343 0.37077,0.787126 0.37077,-0.619985 0.37077,-0.214598 0.37077,0.02326 0.37077,0.960198 0.37077,-0.558833 0.37078,-0.01676 0.37077,-0.333012 0.37077,-0.965659 0.74154,0.855523 0.37077,-0.600046 0.37077,0.558122 0.37077,0.0431 0.37077,-0.263569 0.37077,0.03781 0.37077,-0.977594 0.37077,-0.08805 0.74154,0.485255 0.37077,-0.605063 0.37077,-0.251421 0.37077,1.245284 0.37077,-1.181923 0.37078,0.282405 0.37077,0.06127 0.37077,-0.870347 0.37077,0.352955 0.74154,-0.02965 0.37077,0.697891 0.37077,-1.173405 0.37077,0.572 0.37077,-1.089753 0.37077,0.768423 0.37077,-0.229853 0.37077,0.871132 0.37077,-1.332377 0.37077,0.125509 0.37077,-0.915816 0.37077,0.0439 0.37078,-0.137875 0.37077,0.03162 0.37077,0.339873 0.37077,-0.366364 0.37077,0.03721 0.37077,-0.357937 0.37077,0.311815 0.37077,-0.07278 0.37077,1.335437 0.37077,-1.027531 0.74154,-0.677329 0.37077,0.731773 0.37077,0.0086 0.37077,-0.108577 0.37077,-1.012331 0.37077,0.769528 0.37077,-0.887296 0.37078,0.989877 0.37077,-0.763938 0.37077,-0.239299 0.37077,0.240168 0.37077,-0.301283 0.37077,0.861213 0.37077,-0.210908 0.37077,-0.372329 0.37077,-0.0056 0.37077,-0.996487 0.74154,0.860092 0.37077,-0.08205 0.37077,-0.833425 0.37077,0.704619 0.74154,0.291783 0.37078,-0.949892 0.37077,0.393632 0.37077,-0.742803 0.37077,0.963702 0.37077,-0.734741 0.37077,1.069154 0.37077,-1.431531 0.37077,0.223733 0.37077,0.08538 0.37077,0.474417 0.74154,-0.562176 0.37077,0.181757 0.37077,-0.891192 0.37077,0.918056 0.37077,-0.124825 0.37077,-0.312133 0.37077,0.434184 0.37078,-0.966446 0.37077,0.891873 0.37077,-0.629376 0.37077,-1.046281 0.37077,-0.314979 0.37077,1.218558 0.37077,-0.101919 0.37077,-0.366845 0.37077,1.277298 0.37077,-0.641458 0.37077,0.147953 0.37077,-2.201738 0.37077,1.268715 0.37077,0.516075 0.37077,-0.05347 0.37077,-0.44295 0.37077,-1.639051 0.37078,1.549138 0.37077,-1.484567 0.37077,1.885898 0.37077,-1.886377 0.37077,0.217122 0.37077,56.024524 0.37077,23.6925 0.37077,5.44822 0.74154,5.20382 0.37077,3.79992 0.37077,2.2663 0.37077,1.56538 0.37077,0.99246 0.37077,0.49088 0.37077,-0.3344 0.37077,1.45685 0.74155,0.0773 0.37077,-0.36446 0.37077,0.77371 0.37077,-1.47697 0.37077,0.15857 0.37077,1.02183 0.37077,-0.53081 0.37077,0.70591 0.37077,-0.39817 0.74154,0.62658 0.37077,-0.11397 0.37077,0.25859 0.37077,-0.0183 0.37077,-0.68545 0.74154,0.0697 0.37077,0.66455 0.74155,-0.43618 0.37077,0.89026 0.37077,0.0229 0.37077,-0.13345 0.37077,-0.41075 0.37077,-0.002 0.37077,0.86102 0.37077,-0.45479 0.37077,-0.0292 0.37077,0.89293 0.37077,-0.057 0.74154,0.26814 0.37077,0.58291 0.37077,-1.26853 0.37077,0.76002 0.37078,-0.16995 0.37077,1.16666 0.37077,0.29715 0.37077,-1.4403 0.74154,1.98493 0.37077,-0.51884 0.37077,0.83928 0.37077,0.39769 0.37077,0.12508 0.37077,0.88809 0.74154,0.70739 0.37077,0.39288 0.37077,0.0641 0.74154,1.36998 0.74155,4.28957 0.37077,1.29132 1.85385,17.49717 1.85385,22.93814 1.11231,8.79746 0.37077,1.31594 0.37077,1.92939 0.37078,2.709 0.37077,0.83598 0.74154,3.03682 0.37077,2.43998 0.74154,1.13856 0.74154,2.75048 0.37077,-0.0771 0.37077,0.80332 0.37077,1.39657 1.11231,1.763 0.37077,1.41105 0.37077,0.54929 0.37077,-0.0235 0.37078,0.59078 0.37077,1.62789 0.37077,0.13342 0.37077,0.55762 0.74154,-10.7847 0.37077,-2.9914 0.37077,-0.96492 0.37077,-2.65421 v 0"
               style="fill:none;stroke:#008000;stroke-width:1;stroke-linecap:square;stroke-linejoin:round;stroke-miterlimit:10;stroke-opacity:1;stroke-dasharray:none"
               id="path1178"
               inkscape:connector-curvature="0" />
          </g>
        </g>
        <g
           style="stroke-linecap:butt;stroke-linejoin:round"
           id="g1180">
          <g
             style="stroke-linecap:butt;stroke-linejoin:round"
             id="g1182"
             clip-path="url(#clipPath1186)">
            <path
               d="m 53.836875,172.212 0.370771,4.9267 0.741541,4.79948 0.37077,1.57077 0.741541,0.39691 0.370771,0.20575 0.370771,0.0515 0.37077,-0.13403 0.370771,0.18255 0.37077,-0.0612 0.370771,0.12346 1.112312,-0.0614 0.37077,0.0744 0.370771,-0.0535 0.37077,0.0746 0.370771,0.32761 0.37077,-0.0925 0.370771,0.19332 0.741541,-0.21569 0.370771,0.43701 0.741541,-0.0418 0.741541,0.1976 0.370771,-0.15362 0.37077,1.02354 0.370771,0.17892 0.37077,0.0245 0.370771,0.14438 0.37077,0.002 0.370771,-1.36356 0.370771,1.68538 1.112311,0.36068 0.370771,0.10503 0.741541,1.25157 0.741541,0.16666 0.370771,0.52017 0.37077,0.10987 1.112312,2.03037 0.37077,0.21951 0.741542,0.74994 0.37077,1.10519 0.370771,0.51465 0.741541,1.73225 1.112312,4.19356 0.741541,3.60855 0.37077,2.23941 0.741541,5.76369 1.483083,11.03904 1.112311,10.17322 0.741542,6.28336 0.741541,6.41618 0.741541,4.89217 0.741541,3.21382 2.224623,8.24938 1.112312,2.90292 0.370771,0.8144 0.37077,-0.18402 0.741541,2.82566 0.741542,1.12447 0.741541,1.23105 0.37077,0.35736 0.370771,0.51959 0.37077,-0.57393 0.741542,-10.84036 0.37077,-1.54025 0.370771,-0.49971 0.37077,-1.77492 0.370771,0.0153 0.37077,-5.78851 0.370771,-9.1898 0.370771,-5.57955 0.741541,-4.24311 0.37077,-1.07031 0.370771,-99.61841 0.37077,-9.08263 0.370771,-1.26688 0.370771,0.17109 0.37077,-1.13167 0.741541,-0.72423 0.370771,-0.19983 0.37077,-0.73978 0.370771,-1.63271 0.37077,0.29267 0.370771,-0.96976 0.370771,1.60769 0.370774,-1.60513 0.37077,-0.0667 0.37077,-1.62517 0.37077,1.10007 0.37077,-2.67094 0.37077,0.12131 0.37077,-0.11673 0.37077,-1.5185 0.37077,-0.33241 0.37077,0.016 0.37077,-0.34629 0.37077,0.92826 0.74154,0.96702 0.37077,0.91446 0.74155,3.90907 0.37077,0.58219 0.37077,0.37434 0.37077,-0.0152 0.37077,0.56315 0.37077,-0.68447 0.37077,-1.38565 0.74154,-1.52256 0.37077,-1.77958 0.37077,-0.95943 0.37077,-1.32176 0.37077,-0.127 0.37077,0.9879 0.37077,1.46231 0.37077,0.27341 0.37077,1.53428 0.37078,0.77454 0.37077,-0.1432 0.37077,1.69351 1.11231,-2.72613 0.37077,0.56613 0.37077,-1.51556 0.37077,-0.099 0.37077,1.63189 0.37077,-0.17416 0.37077,0.35167 0.37077,0.67265 0.37077,-0.59696 0.37077,0.6004 0.37077,-0.33639 0.37077,-0.0782 0.37077,-0.70861 0.37078,0.075 0.37077,-1.06361 0.37077,1.61098 0.37077,-2.13465 0.37077,-0.22651 0.37077,0.0883 0.74154,-0.46255 0.37077,0.1021 0.37077,-0.18763 0.37077,0.15827 0.37077,-1.41395 0.37077,1.30682 0.74154,0.33139 0.37077,0.59146 0.37077,-0.18487 0.37077,0.13444 0.37078,1.16066 0.37077,-0.51935 0.37077,0.0592 0.37077,0.82182 0.37077,0.29732 0.37077,-0.42975 1.48308,0.55397 0.37077,0.14388 0.37077,-0.63398 0.37077,0.81665 0.74154,-0.89761 0.74154,-0.0599 0.37078,-0.29706 0.37077,0.18731 0.37077,-0.55376 0.74154,0.68295 0.37077,-0.31217 0.37077,-0.018 0.37077,-0.28974 0.37077,0.58095 0.37077,-0.36096 0.37077,-0.81768 0.37077,-0.13161 0.37077,0.84419 0.37077,-1.06821 0.37077,0.90908 0.37077,-0.33877 0.37077,0.51891 0.37077,-1.04966 0.37078,0.34367 0.37077,-0.0645 0.37077,1.1693 0.37077,-1.20492 0.37077,-0.0569 0.37077,0.95691 0.37077,-0.40209 0.37077,-0.78076 0.37077,0.80656 0.37077,6.6e-4 0.37077,-0.33195 0.37077,1.17372 0.37077,-1.0483 0.37077,0.64039 0.37077,-0.56943 0.37077,0.83474 0.37077,-0.30687 0.74155,-1.002 0.37077,-0.15185 0.37077,0.0611 0.37077,2.14783 0.37077,-1.1107 0.37077,0.0128 0.37077,-1.39037 0.74154,-0.0946 0.74154,0.3496 0.37077,-0.29674 0.37077,0.17872 0.37077,-0.15093 0.37077,0.0612 0.37077,0.93667 0.37077,-0.45924 0.37078,-0.27097 0.37077,-1.04154 0.37077,1.09766 0.37077,-0.19935 0.37077,-0.0195 1.11231,0.33595 0.37077,-0.27553 0.37077,-0.50299 0.37077,0.88821 0.37077,-0.54721 0.37077,0.14239 0.37077,-0.25356 1.11231,0.18679 0.37078,-0.19505 0.37077,0.20161 0.37077,-0.1879 0.37077,-0.76747 0.37077,0.85425 0.74154,0.0506 0.74154,0.25221 0.37077,-0.17741 0.37077,0.12283 0.37077,-0.16454 0.37077,0.0192 0.37077,-0.31415 1.48308,0.27303 0.74155,-0.24736 0.37077,-0.41303 0.37077,0.51708 0.37077,-0.007 0.37077,-0.18431 0.37077,0.22301 0.74154,0.069 0.37077,0.10915 0.37077,-0.42662 0.37077,0.21455 0.37077,0.0274 0.37077,-0.59435 0.37077,0.60371 0.37077,-0.30557 0.37077,0.25964 0.37077,-0.28185 0.74155,0.44653 0.74154,-0.0386 0.37077,-0.67845 0.37077,-0.10768 0.37077,0.526 0.37077,-1.69025 0.37077,1.30376 0.37077,0.11871 0.37077,-0.0815 0.74154,0.17988 0.37077,-0.45005 0.37077,0.82961 0.37077,-0.12904 0.37077,-0.31015 0.37078,-0.77275 0.37077,0.41306 0.37077,0.21744 0.37077,0.0597 0.37077,-0.2016 0.37077,-0.0553 0.74154,0.73948 0.37077,-0.42528 0.37077,0.29904 0.37077,-0.62676 0.37077,0.1983 0.37077,0.41518 0.37077,-0.52676 1.11231,-0.0466 0.37077,0.13597 0.37078,0.28396 0.37077,-0.0766 0.37077,-0.26556 0.37077,0.0199 0.37077,-0.39154 0.37077,-1.10116 0.37077,1.53693 0.74154,-0.10634 0.37077,0.01 0.37077,-0.12883 0.74154,0.26737 0.37077,-0.2164 0.37077,0.17172 0.37077,-0.0725 0.37077,-0.21647 0.74155,0.30863 0.37077,-0.49704 0.37077,-0.0197 0.37077,1.13377 0.37077,-0.36772 0.37077,0.13758 0.74154,-0.34292 0.37077,0.3562 1.11231,-0.35709 0.37077,-0.15403 0.37077,0.12768 0.37077,-0.12155 0.37077,0.17751 0.37077,-0.17604 0.37078,0.15404 0.37077,-0.15463 0.74154,0.0392 0.74154,-0.0972 1.11231,-0.0798 0.37077,0.39323 0.37077,0.0863 0.37077,-0.50699 0.37077,0.14362 0.37077,-0.58819 0.37077,0.68258 0.37077,0.26987 0.37077,-0.37209 0.37078,-0.13645 0.37077,0.25698 0.37077,0.75174 0.37077,-2.44996 0.37077,1.32898 0.37077,0.2383 0.37077,0.006 0.37077,0.18477 0.37077,-0.27888 0.37077,-0.0876 0.37077,-0.26155 0.37077,0.82868 h 0.37077 l 0.37077,-0.38538 0.37077,0.009 0.37077,-0.22801 0.37077,0.19448 0.37077,-0.0511 0.37078,0.22187 0.37077,-0.16913 0.74154,0.0611 0.37077,-0.4193 0.37077,0.37808 0.74154,-0.027 0.37077,0.08 0.37077,-1.52365 0.37077,1.14606 0.37077,0.35883 0.37077,-0.24196 0.37077,0.26552 0.37077,0.0939 0.74154,-0.19741 0.37078,-0.54745 0.37077,0.59169 1.11231,-0.0714 0.37077,-0.77426 0.74154,0.74367 0.37077,-0.126 0.37077,0.0168 0.37077,-0.17705 0.37077,0.16308 1.11231,0.18865 0.74154,-1.22329 0.37077,-0.38747 0.74155,0.0709 0.37077,0.56275 0.37077,0.23828 0.37077,-0.72463 0.37077,-0.0843 0.37077,0.78314 0.37077,-0.54642 0.37077,0.5473 0.37077,-0.42522 0.37077,0.0445 0.37077,0.94921 0.37077,-0.2454 0.37077,-0.96801 0.37077,0.95729 0.37077,0.51575 0.37077,-0.99134 0.74155,0.53734 0.37077,0.47734 0.37077,-0.23109 0.37077,-0.0106 0.37077,0.18397 0.37077,-1.56552 0.74154,1.21427 0.74154,-0.003 0.37077,0.34388 0.37077,-1.06925 0.37077,0.01 0.37077,0.91096 0.37077,-0.31324 0.37077,0.0943 0.37077,0.37588 0.37078,-1.09412 0.37077,0.69184 0.37077,0.16686 0.74154,-0.14793 0.37077,-0.24328 0.37077,0.35174 0.37077,-0.0608 0.37077,-0.44639 0.74154,0.34819 0.37077,-0.86442 0.37077,-0.15029 0.37077,0.96079 0.37077,-0.31374 0.37077,-1.66893 0.74154,2.013 0.37078,-0.67401 0.37077,0.43438 0.37077,0.12268 0.37077,-0.35099 0.37077,0.32147 0.37077,-0.89456 0.37077,1.27097 0.37077,-0.34408 0.37077,0.51241 0.37077,-1.44627 0.37077,0.86683 0.37077,0.35766 0.37077,0.0583 0.37077,-0.25153 0.74154,-0.87238 0.37077,-0.13458 0.37078,1.27985 0.37077,-0.35034 0.37077,-0.69085 0.37077,-0.0695 0.37077,-0.33299 0.37077,1.19981 0.37077,0.0131 0.37077,-1.14791 0.37077,-0.0246 0.37077,-0.20229 0.37077,0.5935 0.37077,0.27255 0.37077,-0.76971 0.74154,0.1064 0.37077,0.74699 0.74154,-1.3279 0.37078,0.60413 0.37077,0.39111 0.37077,-0.43577 0.37077,0.86015 0.37077,-0.36295 0.37077,-0.67123 0.37077,0.83886 0.37077,-0.64465 0.37077,0.22272 0.37077,-0.35629 0.37077,0.0714 0.37077,0.92857 0.37077,-1.32464 0.37077,0.51381 0.37077,-0.21325 0.37077,0.24017 0.37077,0.76052 0.37078,-0.99341 0.74154,0.0696 0.37077,-0.18727 0.37077,0.11788 0.74154,-0.039 0.37077,0.17454 0.37077,0.86428 1.11231,-1.399 0.37077,0.4338 0.37077,0.11887 0.37077,0.002 0.37077,-0.14566 0.37077,0.19462 0.37077,0.41909 0.37078,-1.60077 0.37077,1.01756 0.37077,-0.43602 0.37077,0.51631 0.37077,-0.24433 0.74154,-0.071 0.74154,-0.0936 0.37077,0.10123 0.37077,-0.80359 0.37077,0.91376 0.37077,-0.0837 0.37077,0.14016 0.74154,-0.67463 0.37077,0.15575 0.37078,-0.0158 0.37077,0.64046 0.37077,-0.90301 0.37077,0.8527 0.37077,-0.14103 0.37077,-0.4263 0.37077,0.32659 0.37077,-0.0372 0.37077,-0.43762 0.37077,-0.0964 0.37077,0.49605 0.37077,-0.28607 0.37077,0.26705 0.37077,-0.21183 0.37077,0.0606 0.37077,-0.25222 0.37077,0.15635 0.37077,-0.30621 0.74155,0.0858 0.37077,0.22134 0.37077,-0.0469 0.37077,-0.28877 0.37077,0.37558 0.37077,-0.29546 0.37077,0.0333 0.37077,0.53547 0.37077,-0.65374 0.37077,0.77863 0.74154,-0.6643 0.74154,0.0581 0.74154,-0.13864 0.74155,3.8e-4 0.37077,-0.0742 0.37077,0.11546 0.37077,0.36214 0.37077,-1.40383 0.37077,0.92162 0.37077,-0.73243 0.37077,0.47155 0.74154,0.28722 0.37077,-0.26943 0.37077,0.0229 0.37077,-0.23534 0.37077,0.36099 0.37077,-0.57471 0.37077,0.19986 0.37077,0.52627 0.37078,-0.28764 0.74154,-0.33929 0.37077,0.52485 0.37077,-0.68846 0.37077,0.67886 0.37077,-0.47456 0.37077,-0.0853 0.74154,0.51092 0.37077,-0.0569 0.37077,-0.44414 0.37077,-0.0728 0.37077,0.42926 0.37077,-0.55287 0.37077,0.28653 0.37077,-0.23724 0.37077,0.33401 1.11232,-0.47704 0.37077,0.29323 0.37077,-0.14409 0.74154,0.19446 0.37077,-0.14913 0.37077,0.0506 0.37077,0.52459 0.74154,-0.53935 0.74154,-0.19243 0.37077,-0.25276 0.74154,0.75559 0.37078,-0.84538 0.37077,0.38319 0.37077,0.0784 0.37077,-0.19322 0.37077,0.27262 0.37077,-0.12562 0.37077,0.0312 0.37077,-0.4153 0.37077,0.61767 0.37077,-0.10166 0.37077,-0.37668 0.37077,-0.005 0.37077,-1.01225 0.37077,0.77617 0.37077,-0.0302 0.37077,0.59373 0.37077,-1.0699 0.37077,0.30103 0.37078,-0.1398 0.37077,-0.57303 0.37077,0.91754 0.37077,-0.16221 0.37077,0.41388 0.37077,-0.60014 1.11231,0.16117 0.37077,-0.82082 0.37077,-1.15812 0.37077,1.96347 0.37077,-0.47063 0.37077,0.0437 0.74154,-0.0948 0.37077,0.59985 0.37078,-1.06059 0.37077,0.40687 0.37077,-1.07267 0.37077,1.91627 0.37077,-1.0161 0.37077,-0.24141 0.37077,0.22712 0.37077,-0.21056 0.74154,0.0228 0.37077,0.14758 0.37077,-0.15597 0.37077,0.12079 0.37077,-0.18446 0.37077,-1.06 0.37077,0.92559 0.37077,-0.18994 0.74155,0.47788 0.37077,-0.34827 0.37077,0.32334 0.37077,-1.52299 0.37077,1.42555 0.37077,-0.87689 0.37077,0.66777 0.37077,0.14567 0.37077,-0.22752 0.37077,0.2485 0.37077,-0.6641 0.37077,0.72028 0.37077,-0.0537 0.37077,-0.73322 0.37077,0.38891 0.37077,0.56261 0.37077,1.0713 0.37078,-1.61554 0.74154,-0.24008 0.37077,0.65178 0.37077,-0.92596 0.37077,0.16057 0.37077,-0.53046 0.37077,0.47665 0.37077,-0.13446 0.37077,0.19112 0.74154,-0.0522 0.37077,-1.02344 0.37077,1.15252 0.37077,-0.85947 0.37077,0.85414 0.37077,-0.84045 0.37077,0.67526 0.37078,10e-4 0.37077,0.31905 0.74154,-0.37799 0.37077,0.01 0.37077,-0.4524 0.74154,0.38197 1.11231,-0.11702 0.37077,-0.59578 0.37077,0.74381 0.37077,0.0149 0.37077,-0.81059 0.37077,-0.0649 0.37077,-0.92757 0.37078,0.81187 0.37077,-0.86303 0.37077,0.22609 0.37077,-0.0734 0.37077,1.55587 0.37077,-1.43573 0.37077,1.51219 0.37077,0.0158 0.37077,-1.35072 0.37077,-0.72207 0.37077,0.0298 0.37077,0.87587 0.37077,-1.35516 0.37077,0.097 0.37077,1.41799 0.37077,-0.34564 0.37077,-0.0926 0.37077,0.41772 0.37078,-0.0931 0.37077,-0.61214 0.37077,0.0644 0.37077,0.25941 0.37077,-0.24718 0.37077,-0.85021 0.37077,0.74096 0.37077,0.14176 0.37077,-0.0463 0.37077,0.0726 0.37077,-1.31542 0.37077,1.14071 0.37077,0.23127 0.37077,-0.46307 0.74154,0.19708 0.37077,0.28017 0.37077,-0.28552 1.48309,0.14245 0.37077,-0.61169 0.37077,-0.31001 0.37077,0.65343 0.37077,-0.27648 0.74154,0.1306 0.37077,-1.11312 0.37077,0.79391 0.74154,0.13331 0.74154,0.0644 0.74155,-0.27494 0.37077,0.16365 0.74154,-0.22973 0.37077,0.0121 0.37077,-1.4942 0.37077,1.15288 0.74154,0.35939 0.37077,-0.49005 0.37077,0.49361 0.37077,-0.0317 0.37077,-0.25037 0.37077,-2.22094 0.37077,2.4974 0.74154,-1.20394 0.37077,0.56206 0.37078,-1.08259 0.37077,1.05085 0.37077,0.10368 0.37077,-1.29441 0.74154,0.70274 0.37077,-0.30178 0.37077,-0.0303 0.37077,-0.42736 0.37077,0.47845 0.37077,-0.61727 0.37077,0.48873 0.37077,-0.24519 0.74154,0.35376 0.37077,-0.27171 0.37077,-0.0318 0.37078,0.0975 0.37077,-0.0674 0.37077,-1.05207 0.37077,0.93194 0.74154,-0.42291 0.37077,-0.4164 0.37077,0.59522 0.37077,0.23961 0.37077,-0.0797 0.74154,-0.36351 0.37077,0.13967 0.37077,-0.38307 0.37077,-0.0139 0.37077,-0.877561 0.37077,0.586751 1.11232,0.23172 0.37077,-0.54771 0.74154,-0.255955 0.37077,0.114842 0.37077,-0.240942 1.11231,-0.09147 0.37077,-0.148711 0.74154,-1.044893 0.37077,0.802488 0.37077,-0.106199 0.74154,-1.085003 0.37078,-0.05883 0.37077,-0.18115 0.37077,0.93035 0.37077,-0.80919 0.37077,0.0267 0.37077,0.239117 0.74154,-0.308857 0.37077,-0.272182 0.37077,-0.461545 0.37077,0.42937 0.37077,-0.652015 0.37077,0.259777 0.74154,-0.1937 0.37077,0.152262 0.74154,-0.644626 0.37078,0.121594 0.37077,-0.739508 0.37077,-0.490621 0.37077,1.374311 0.37077,-1.213657 0.37077,-0.336449 0.37077,0.122177 0.37077,-0.323113 0.37077,-0.05159 0.37077,0.299744 0.37077,-0.86023 0.37077,0.0677 0.37077,0.401046 0.37077,-0.438533 0.37077,0.144662 0.74154,-0.229721 0.37077,0.133079 0.37078,-0.735874 0.37077,0.219321 0.37077,0.01 0.37077,0.232204 0.37077,-0.277033 0.37077,-1.376116 0.37077,-0.167279 0.74154,0.488926 0.37077,-0.383239 0.37077,0.08822 0.74154,-0.219689 0.37077,-1.306237 0.37077,1.088986 0.37077,-0.423653 0.37077,-0.02786 0.74155,0.370362 0.37077,-0.444277 0.37077,-0.0769 0.37077,-1.51157 0.37077,1.315 0.37077,0.394595 0.37077,-0.641064 0.37077,-1.043757 0.37077,-0.646798 0.37077,1.172379 0.74154,-0.185735 0.37077,0.133986 0.37077,0.958151 0.37077,-2.537174 0.37077,1.033216 0.37077,-0.01294 0.37078,-0.342521 0.37077,0.161337 0.37077,-0.06159 0.37077,-0.3887 0.37077,0.459549 0.37077,0.0019 0.37077,-0.392078 0.37077,0.179726 0.37077,-0.593378 0.37077,0.102514 0.37077,0.31852 0.37077,-0.388091 0.74154,-0.152868 0.37077,0.257966 0.74154,-0.318297 0.37078,0.326628 0.74154,-0.346374 0.37077,-0.02368 0.37077,-0.289796 0.37077,0.0174 0.37077,0.386771 0.37077,-0.337565 0.74154,-0.09865 0.37077,-2.195277 0.37077,2.151335 0.37077,-0.413854 0.37077,0.11005 0.74154,-0.190323 0.37077,-1.745554 0.37077,1.990968 0.37078,-0.513328 0.37077,-0.162059 0.37077,0.284286 0.37077,0.02398 0.37077,-0.172965 0.37077,-1.16477 0.37077,1.585991 0.37077,-0.482946 0.37077,0.333366 0.37077,-1.136599 0.37077,-0.289836 0.37077,-0.446923 0.37077,0.263499 0.37077,1.715289 0.37077,-1.831442 0.37077,-0.112941 0.37077,0.12974 0.37078,0.009 0.37077,-0.654787 0.74154,0.871677 0.37077,-0.331725 0.74154,0.161821 0.74154,-0.539949 0.74154,0.208781 0.37077,-0.191483 0.37077,-0.359047 0.37077,0.194213 0.37077,-0.24179 0.37077,-0.04663 1.11232,0.224276 0.37077,-0.216094 0.74154,0.01597 0.37077,-0.15287 0.74154,-2.273749 0.37077,0.236805 0.37077,1.282372 0.37077,-0.812022 0.37077,0.989092 0.37077,-0.146809 0.37077,-1.066559 0.37077,-0.02731 0.37077,-0.733901 0.37077,0.880198 0.37077,-0.08272 0.37078,0.165429 0.37077,-0.183797 0.37077,-0.643791 0.37077,0.530448 0.37077,0.244613 0.37077,55.422888 0.37077,26.03117 0.37077,0.23748 0.37077,4.11595 0.37077,2.77097 0.37077,4.88727 0.74154,4.96582 0.37077,1.59602 0.37077,-0.28679 0.37077,0.68374 0.37077,0.30288 0.37077,-0.0199 0.74155,0.2886 1.48308,-0.1359 0.37077,0.0598 0.37077,-0.70997 0.37077,0.92281 0.37077,-0.0773 0.37077,0.0754 0.37077,0.33062 0.74154,-0.16708 0.37077,0.16421 0.74154,0.0591 1.11232,0.0592 0.37077,-0.23301 0.37077,1.39401 0.37077,0.11317 0.37077,-0.13776 0.37077,0.21499 0.37077,0.059 0.74154,0.4977 0.74154,0.12619 0.37077,0.23794 0.37077,0.37169 0.37077,0.74132 0.37077,-0.0114 0.37077,0.5059 0.37078,0.24168 0.37077,0.0936 0.37077,1.03808 1.48308,1.60234 0.37077,0.49798 0.37077,0.9333 0.37077,0.56711 0.37077,1.03355 0.37077,0.24297 0.37077,1.99377 0.37077,0.99169 1.48308,7.53135 1.11232,8.87972 0.74154,5.68086 2.96616,26.31811 0.74154,5.05732 1.11232,4.65546 0.37077,1.77108 0.37077,0.91107 0.74154,2.8988 2.59539,6.20098 0.37077,0.56537 0.37077,1.07518 0.74154,0.66223 0.37077,0.53253 0.37077,1.01809 0.37078,0.23005 0.37077,0.47957 0.37077,-0.037 0.37077,-82.35335 0.37077,-46.39566 0.37077,-0.83028 0.37077,2.72929 0.37077,0.50687 0.37077,1.06486 v 0"
               style="fill:none;stroke:#ff0000;stroke-width:1;stroke-linecap:square;stroke-linejoin:round;stroke-miterlimit:10;stroke-opacity:1;stroke-dasharray:none"
               id="path1188"
               inkscape:connector-curvature="0" />
          </g>
        </g>
        <g
           id="g1190"
           style="stroke-linecap:butt;stroke-linejoin:round">
          <path
             d="M 53.836875,313.2 H 493.2"
             style="fill:none;stroke:#000000;stroke-width:1;stroke-linecap:square;stroke-linejoin:miter;stroke-miterlimit:10;stroke-opacity:1;stroke-dasharray:none"
             id="path1192"
             inkscape:connector-curvature="0" />
          <path
             d="m 493.2,43.2 v 270"
             style="fill:none;stroke:#000000;stroke-width:1;stroke-linecap:square;stroke-linejoin:miter;stroke-miterlimit:10;stroke-opacity:1;stroke-dasharray:none"
             id="path1194"
             inkscape:connector-curvature="0" />
          <path
             d="M 53.836875,43.2 H 493.2"
             style="fill:none;stroke:#000000;stroke-width:1;stroke-linecap:square;stroke-linejoin:miter;stroke-miterlimit:10;stroke-opacity:1;stroke-dasharray:none"
             id="path1196"
             inkscape:connector-curvature="0" />
          <path
             d="m 53.836875,43.2 v 270"
             style="fill:none;stroke:#000000;stroke-width:1;stroke-linecap:square;stroke-linejoin:miter;stroke-miterlimit:10;stroke-opacity:1;stroke-dasharray:none"
             id="path1198"
             inkscape:connector-curvature="0" />
          <path
             d="m 53.836875,43.2 v 4"
             style="fill:#000000;fill-opacity:1;fill-rule:nonzero;stroke:#000000;stroke-width:0.5;stroke-linecap:butt;stroke-linejoin:round;stroke-miterlimit:10;stroke-opacity:1;stroke-dasharray:none"
             id="path1200"
             inkscape:connector-curvature="0" />
          <path
             d="m 53.836875,313.2 v -4"
             style="fill:#000000;fill-opacity:1;fill-rule:nonzero;stroke:#000000;stroke-width:0.5;stroke-linecap:butt;stroke-linejoin:round;stroke-miterlimit:10;stroke-opacity:1;stroke-dasharray:none"
             id="path1202"
             inkscape:connector-curvature="0" />
          <text
             transform="matrix(1,0,0,-1,45.086875,30.075)"
             style="font-size:12px;font-style:normal;font-variant:normal;font-weight:normal;font-stretch:normal;writing-mode:lr-tb;fill:#000000;fill-opacity:1;fill-rule:nonzero;stroke:none;font-family:Utopia;-inkscape-font-specification:Utopia"
             id="text1206">
            <tspan
               x="0 7.632 11.448"
               y="0"
               sodipodi:role="line"
               id="tspan1204">0.0</tspan>
          </text>
          <path
             d="m 187.31428,43.2 v 4"
             style="fill:#000000;fill-opacity:1;fill-rule:nonzero;stroke:#000000;stroke-width:0.5;stroke-linecap:butt;stroke-linejoin:round;stroke-miterlimit:10;stroke-opacity:1;stroke-dasharray:none"
             id="path1208"
             inkscape:connector-curvature="0" />
          <path
             d="m 187.31428,313.2 v -4"
             style="fill:#000000;fill-opacity:1;fill-rule:nonzero;stroke:#000000;stroke-width:0.5;stroke-linecap:butt;stroke-linejoin:round;stroke-miterlimit:10;stroke-opacity:1;stroke-dasharray:none"
             id="path1210"
             inkscape:connector-curvature="0" />
          <text
             transform="matrix(1,0,0,-1,178.82209,30.075)"
             style="font-size:12px;font-style:normal;font-variant:normal;font-weight:normal;font-stretch:normal;writing-mode:lr-tb;fill:#000000;fill-opacity:1;fill-rule:nonzero;stroke:none;font-family:Utopia;-inkscape-font-specification:Utopia"
             id="text1214">
            <tspan
               x="0 7.632 11.448"
               y="0"
               sodipodi:role="line"
               id="tspan1212">1.0</tspan>
          </text>
          <path
             d="m 320.79169,43.2 v 4"
             style="fill:#000000;fill-opacity:1;fill-rule:nonzero;stroke:#000000;stroke-width:0.5;stroke-linecap:butt;stroke-linejoin:round;stroke-miterlimit:10;stroke-opacity:1;stroke-dasharray:none"
             id="path1216"
             inkscape:connector-curvature="0" />
          <path
             d="m 320.79169,313.2 v -4"
             style="fill:#000000;fill-opacity:1;fill-rule:nonzero;stroke:#000000;stroke-width:0.5;stroke-linecap:butt;stroke-linejoin:round;stroke-miterlimit:10;stroke-opacity:1;stroke-dasharray:none"
             id="path1218"
             inkscape:connector-curvature="0" />
          <text
             transform="matrix(1,0,0,-1,312.08075,30.075)"
             style="font-size:12px;font-style:normal;font-variant:normal;font-weight:normal;font-stretch:normal;writing-mode:lr-tb;fill:#000000;fill-opacity:1;fill-rule:nonzero;stroke:none;font-family:Utopia;-inkscape-font-specification:Utopia"
             id="text1222">
            <tspan
               x="0 7.632 11.448"
               y="0"
               sodipodi:role="line"
               id="tspan1220">2.0</tspan>
          </text>
          <path
             d="m 454.26909,43.2 v 4"
             style="fill:#000000;fill-opacity:1;fill-rule:nonzero;stroke:#000000;stroke-width:0.5;stroke-linecap:butt;stroke-linejoin:round;stroke-miterlimit:10;stroke-opacity:1;stroke-dasharray:none"
             id="path1224"
             inkscape:connector-curvature="0" />
          <path
             d="m 454.26909,313.2 v -4"
             style="fill:#000000;fill-opacity:1;fill-rule:nonzero;stroke:#000000;stroke-width:0.5;stroke-linecap:butt;stroke-linejoin:round;stroke-miterlimit:10;stroke-opacity:1;stroke-dasharray:none"
             id="path1226"
             inkscape:connector-curvature="0" />
          <text
             transform="matrix(1,0,0,-1,445.58159,30.075)"
             style="font-size:12px;font-style:normal;font-variant:normal;font-weight:normal;font-stretch:normal;writing-mode:lr-tb;fill:#000000;fill-opacity:1;fill-rule:nonzero;stroke:none;font-family:Utopia;-inkscape-font-specification:Utopia"
             id="text1230">
            <tspan
               x="0 7.632 11.448"
               y="0"
               sodipodi:role="line"
               id="tspan1228">3.0</tspan>
          </text>
          <text
             transform="matrix(1,0,0,-1,249.12,13.45)"
             style="font-size:12px;font-style:normal;font-variant:normal;font-weight:normal;font-stretch:normal;writing-mode:lr-tb;fill:#000000;fill-opacity:1;fill-rule:nonzero;stroke:none;font-family:Utopia;-inkscape-font-specification:Utopia"
             id="text1234">
            <tspan
               x="0 8.2200003 15.6 18.936001 23.639999 27.455999 30.792 38.400002 42.216"
               y="0"
               sodipodi:role="line"
               id="tspan1232">Zeit in h</tspan>
          </text>
          <path
             d="m 53.836875,43.2 h 4"
             style="fill:#000000;fill-opacity:1;fill-rule:nonzero;stroke:#000000;stroke-width:0.5;stroke-linecap:butt;stroke-linejoin:round;stroke-miterlimit:10;stroke-opacity:1;stroke-dasharray:none"
             id="path1236"
             inkscape:connector-curvature="0" />
          <path
             d="m 493.2,43.2 h -4"
             style="fill:#000000;fill-opacity:1;fill-rule:nonzero;stroke:#000000;stroke-width:0.5;stroke-linecap:butt;stroke-linejoin:round;stroke-miterlimit:10;stroke-opacity:1;stroke-dasharray:none"
             id="path1238"
             inkscape:connector-curvature="0" />
          <text
             transform="matrix(1,0,0,-1,31.868125,39.8875)"
             style="font-size:12px;font-style:normal;font-variant:normal;font-weight:normal;font-stretch:normal;writing-mode:lr-tb;fill:#000000;fill-opacity:1;fill-rule:nonzero;stroke:none;font-family:Utopia;-inkscape-font-specification:Utopia"
             id="text1242">
            <tspan
               x="0 4.3319998 11.964"
               y="0"
               sodipodi:role="line"
               id="tspan1240">-15</tspan>
          </text>
          <path
             d="m 53.836875,88.2 h 4"
             style="fill:#000000;fill-opacity:1;fill-rule:nonzero;stroke:#000000;stroke-width:0.5;stroke-linecap:butt;stroke-linejoin:round;stroke-miterlimit:10;stroke-opacity:1;stroke-dasharray:none"
             id="path1244"
             inkscape:connector-curvature="0" />
          <path
             d="m 493.2,88.2 h -4"
             style="fill:#000000;fill-opacity:1;fill-rule:nonzero;stroke:#000000;stroke-width:0.5;stroke-linecap:butt;stroke-linejoin:round;stroke-miterlimit:10;stroke-opacity:1;stroke-dasharray:none"
             id="path1246"
             inkscape:connector-curvature="0" />
          <text
             transform="matrix(1,0,0,-1,31.618125,84.8875)"
             style="font-size:12px;font-style:normal;font-variant:normal;font-weight:normal;font-stretch:normal;writing-mode:lr-tb;fill:#000000;fill-opacity:1;fill-rule:nonzero;stroke:none;font-family:Utopia;-inkscape-font-specification:Utopia"
             id="text1250">
            <tspan
               x="0 4.3319998 11.964"
               y="0"
               sodipodi:role="line"
               id="tspan1248">-10</tspan>
          </text>
          <path
             d="m 53.836875,133.2 h 4"
             style="fill:#000000;fill-opacity:1;fill-rule:nonzero;stroke:#000000;stroke-width:0.5;stroke-linecap:butt;stroke-linejoin:round;stroke-miterlimit:10;stroke-opacity:1;stroke-dasharray:none"
             id="path1252"
             inkscape:connector-curvature="0" />
          <path
             d="m 493.2,133.2 h -4"
             style="fill:#000000;fill-opacity:1;fill-rule:nonzero;stroke:#000000;stroke-width:0.5;stroke-linecap:butt;stroke-linejoin:round;stroke-miterlimit:10;stroke-opacity:1;stroke-dasharray:none"
             id="path1254"
             inkscape:connector-curvature="0" />
          <text
             transform="matrix(1,0,0,-1,39.50875,129.8875)"
             style="font-size:12px;font-style:normal;font-variant:normal;font-weight:normal;font-stretch:normal;writing-mode:lr-tb;fill:#000000;fill-opacity:1;fill-rule:nonzero;stroke:none;font-family:Utopia;-inkscape-font-specification:Utopia"
             id="text1258">
            <tspan
               x="0 4.3319998"
               y="0"
               sodipodi:role="line"
               id="tspan1256">-5</tspan>
          </text>
          <path
             d="m 53.836875,178.2 h 4"
             style="fill:#000000;fill-opacity:1;fill-rule:nonzero;stroke:#000000;stroke-width:0.5;stroke-linecap:butt;stroke-linejoin:round;stroke-miterlimit:10;stroke-opacity:1;stroke-dasharray:none"
             id="path1260"
             inkscape:connector-curvature="0" />
          <path
             d="m 493.2,178.2 h -4"
             style="fill:#000000;fill-opacity:1;fill-rule:nonzero;stroke:#000000;stroke-width:0.5;stroke-linecap:butt;stroke-linejoin:round;stroke-miterlimit:10;stroke-opacity:1;stroke-dasharray:none"
             id="path1262"
             inkscape:connector-curvature="0" />
          <text
             transform="matrix(1,0,0,-1,43.79,174.8875)"
             style="font-size:12px;font-style:normal;font-variant:normal;font-weight:normal;font-stretch:normal;writing-mode:lr-tb;fill:#000000;fill-opacity:1;fill-rule:nonzero;stroke:none;font-family:Utopia;-inkscape-font-specification:Utopia"
             id="text1266">
            <tspan
               style="font-style:normal;font-variant:normal;font-weight:normal;font-stretch:normal;font-family:Utopia;-inkscape-font-specification:Utopia"
               x="0"
               y="0"
               id="tspan1264">0</tspan>
          </text>
          <path
             d="m 53.836875,223.2 h 4"
             style="fill:#000000;fill-opacity:1;fill-rule:nonzero;stroke:#000000;stroke-width:0.5;stroke-linecap:butt;stroke-linejoin:round;stroke-miterlimit:10;stroke-opacity:1;stroke-dasharray:none"
             id="path1268"
             inkscape:connector-curvature="0" />
          <path
             d="m 493.2,223.2 h -4"
             style="fill:#000000;fill-opacity:1;fill-rule:nonzero;stroke:#000000;stroke-width:0.5;stroke-linecap:butt;stroke-linejoin:round;stroke-miterlimit:10;stroke-opacity:1;stroke-dasharray:none"
             id="path1270"
             inkscape:connector-curvature="0" />
          <text
             transform="matrix(1,0,0,-1,44.165,219.8875)"
             style="font-size:12px;font-style:normal;font-variant:normal;font-weight:normal;font-stretch:normal;writing-mode:lr-tb;fill:#000000;fill-opacity:1;fill-rule:nonzero;stroke:none;font-family:Utopia;-inkscape-font-specification:Utopia"
             id="text1274">
            <tspan
               style="font-style:normal;font-variant:normal;font-weight:normal;font-stretch:normal;font-family:Utopia;-inkscape-font-specification:Utopia"
               x="0"
               y="0"
               id="tspan1272">5</tspan>
          </text>
          <path
             d="m 53.836875,268.2 h 4"
             style="fill:#000000;fill-opacity:1;fill-rule:nonzero;stroke:#000000;stroke-width:0.5;stroke-linecap:butt;stroke-linejoin:round;stroke-miterlimit:10;stroke-opacity:1;stroke-dasharray:none"
             id="path1276"
             inkscape:connector-curvature="0" />
          <path
             d="m 493.2,268.2 h -4"
             style="fill:#000000;fill-opacity:1;fill-rule:nonzero;stroke:#000000;stroke-width:0.5;stroke-linecap:butt;stroke-linejoin:round;stroke-miterlimit:10;stroke-opacity:1;stroke-dasharray:none"
             id="path1278"
             inkscape:connector-curvature="0" />
          <text
             transform="matrix(1,0,0,-1,36.665,264.8875)"
             style="font-size:12px;font-style:normal;font-variant:normal;font-weight:normal;font-stretch:normal;writing-mode:lr-tb;fill:#000000;fill-opacity:1;fill-rule:nonzero;stroke:none;font-family:Utopia;-inkscape-font-specification:Utopia"
             id="text1282">
            <tspan
               x="0 7.632"
               y="0"
               sodipodi:role="line"
               id="tspan1280">10</tspan>
          </text>
          <path
             d="m 53.836875,313.2 h 4"
             style="fill:#000000;fill-opacity:1;fill-rule:nonzero;stroke:#000000;stroke-width:0.5;stroke-linecap:butt;stroke-linejoin:round;stroke-miterlimit:10;stroke-opacity:1;stroke-dasharray:none"
             id="path1284"
             inkscape:connector-curvature="0" />
          <path
             d="m 493.2,313.2 h -4"
             style="fill:#000000;fill-opacity:1;fill-rule:nonzero;stroke:#000000;stroke-width:0.5;stroke-linecap:butt;stroke-linejoin:round;stroke-miterlimit:10;stroke-opacity:1;stroke-dasharray:none"
             id="path1286"
             inkscape:connector-curvature="0" />
          <g
             style="stroke-linecap:butt;stroke-linejoin:round"
             id="g1288"
             transform="matrix(0,1,-1,0,23.618126,124.7)">
            <text
               transform="matrix(1,0,0,-1,0,0.875)"
               style="font-size:12px;font-style:normal;font-variant:normal;font-weight:normal;font-stretch:normal;writing-mode:lr-tb;fill:#000000;fill-opacity:1;fill-rule:nonzero;stroke:none;font-family:Utopia;-inkscape-font-specification:Utopia"
               id="text1292">
              <tspan
                 x="0 7.3300781 14.712891 26.402344 34.019531 41.402344 46.335938 53.689453 58.394531 66 70.933594 74.748047 78.082031 85.6875"
                 y="0"
                 sodipodi:role="line"
                 id="tspan1290">Temperatur in</tspan>
            </text>
            <text
               transform="matrix(1,0,0,-1,90.976875,5.976875)"
               style="font-size:8.39999962px;font-variant:normal;font-weight:normal;writing-mode:lr-tb;fill:#000000;fill-opacity:1;fill-rule:nonzero;stroke:none;font-family:Cmsy10;-inkscape-font-specification:Cmsy10"
               id="text1296">
              <tspan
                 style="font-style:normal;font-variant:normal;font-weight:normal;font-stretch:normal;font-family:Utopia;-inkscape-font-specification:Utopia"
                 x="0"
                 y="0"
                 id="tspan1294"></tspan>
            </text>
            <text
               transform="scale(1,-1)"
               style="font-size:12px;font-variant:normal;font-weight:normal;writing-mode:lr-tb;fill:#000000;fill-opacity:1;fill-rule:nonzero;stroke:none;font-family:BitstreamVeraSans;-inkscape-font-specification:BitstreamVeraSans-Roman"
               id="text1300"
               x="91.340988"
               y="-0.875">
              <tspan
                 style="font-style:normal;font-variant:normal;font-weight:normal;font-stretch:normal;font-family:Utopia;-inkscape-font-specification:Utopia"
                 x="91.340988"
                 y="-0.875"
                 id="tspan1298">C</tspan>
            </text>
          </g>
          <path
             d="m 154.8,282.6 h 332.4 v 24.6 H 154.8 z"
             style="fill:#ffffff;fill-opacity:1;fill-rule:nonzero;stroke:#000000;stroke-width:1;stroke-linecap:butt;stroke-linejoin:miter;stroke-miterlimit:10;stroke-opacity:1;stroke-dasharray:none"
             id="path1302"
             inkscape:connector-curvature="0" />
          <path
             d="M 163.2,296.6 H 180"
             style="fill:none;stroke:#0000ff;stroke-width:1;stroke-linecap:square;stroke-linejoin:round;stroke-miterlimit:10;stroke-opacity:1;stroke-dasharray:none"
             id="path1304"
             inkscape:connector-curvature="0" />
          <g
             style="stroke-linecap:butt;stroke-linejoin:round"
             id="g1306"
             transform="translate(193.2,292.4)">
            <text
               transform="matrix(1,0,0,-1,0,0.890625)"
               style="font-size:12px;font-variant:normal;font-weight:normal;writing-mode:lr-tb;fill:#000000;fill-opacity:1;fill-rule:nonzero;stroke:none;font-family:Cmmi10;-inkscape-font-specification:Cmmi10"
               id="text1310">
              <tspan
                 style="font-style:italic;font-variant:normal;font-weight:normal;font-stretch:normal;font-family:Utopia;-inkscape-font-specification:Utopia Italic"
                 x="0"
                 y="0"
                 id="tspan1308">T</tspan>
            </text>
            <text
               transform="matrix(1,0,0,-1,7.0078125,-2.1705)"
               style="font-size:8.39999961999999910px;font-variant:normal;font-weight:normal;writing-mode:lr-tb;fill:#000000;fill-opacity:1;fill-rule:nonzero;stroke:none;font-family:Cmr10;-inkscape-font-specification:Cmr10"
               id="text1314">
              <tspan
                 style="font-style:italic;font-variant:normal;font-weight:normal;font-stretch:normal;font-family:Utopia;-inkscape-font-specification:Utopia Italic"
                 x="0 3.7283204"
                 y="0"
                 sodipodi:role="line"
                 id="tspan1312">ev</tspan>
            </text>
            <text
               transform="matrix(1,0,0,-1,15.161719,-2.1705)"
               style="font-size:8.39999961999999910px;font-style:normal;font-variant:normal;font-weight:normal;font-stretch:normal;writing-mode:lr-tb;fill:#000000;fill-opacity:1;fill-rule:nonzero;stroke:none;font-family:Utopia;-inkscape-font-specification:Utopia"
               id="text1318">
              <tspan
                 style="font-style:italic;font-variant:normal;font-weight:normal;font-stretch:normal;font-family:Utopia;-inkscape-font-specification:Utopia Italic"
                 x="0"
                 y="0"
                 id="tspan1316">,</tspan>
            </text>
            <text
               transform="matrix(1,0,0,-1,17.578359,-2.1705)"
               style="font-size:8.39999961999999910px;font-variant:normal;font-weight:normal;writing-mode:lr-tb;fill:#000000;fill-opacity:1;fill-rule:nonzero;stroke:none;font-family:Cmr10;-inkscape-font-specification:Cmr10"
               id="text1322">
              <tspan
                 style="font-style:italic;font-variant:normal;font-weight:normal;font-stretch:normal;font-family:Utopia;-inkscape-font-specification:Utopia Italic"
                 x="0 3.3099608 7.5099611"
                 y="0"
                 sodipodi:role="line"
                 id="tspan1320">sat</tspan>
            </text>
            <text
               transform="matrix(1,0,0,-1,32.163516,0.890625)"
               style="font-size:12px;font-variant:normal;font-weight:normal;writing-mode:lr-tb;fill:#000000;fill-opacity:1;fill-rule:nonzero;stroke:none;font-family:BitstreamVeraSans;-inkscape-font-specification:BitstreamVeraSans-Roman"
               id="text1326">
              <tspan
                 style="font-style:italic;font-variant:normal;font-weight:normal;font-stretch:normal;font-family:Utopia;-inkscape-font-specification:Utopia Italic"
                 x="0 4.6816406 12.550781 20.185547"
                 y="0"
                 sodipodi:role="line"
                 id="tspan1324">(K1)</tspan>
            </text>
          </g>
          <path
             d="m 278.8,296.6 h 16.8"
             style="fill:none;stroke:#008000;stroke-width:1;stroke-linecap:square;stroke-linejoin:round;stroke-miterlimit:10;stroke-opacity:1;stroke-dasharray:none"
             id="path1328"
             inkscape:connector-curvature="0" />
          <g
             style="stroke-linecap:butt;stroke-linejoin:round"
             id="g1330"
             transform="translate(308.8,292.4)">
            <text
               transform="matrix(1,0,0,-1,0,0.890625)"
               style="font-size:12px;font-variant:normal;font-weight:normal;writing-mode:lr-tb;fill:#000000;fill-opacity:1;fill-rule:nonzero;stroke:none;font-family:Cmmi10;-inkscape-font-specification:Cmmi10"
               id="text1334">
              <tspan
                 style="font-style:italic;font-variant:normal;font-weight:normal;font-stretch:normal;font-family:Utopia;-inkscape-font-specification:Utopia Italic"
                 x="0"
                 y="0"
                 id="tspan1332">T</tspan>
            </text>
            <text
               transform="matrix(1,0,0,-1,7.0078125,-2.1705)"
               style="font-size:8.39999962px;font-variant:normal;font-weight:normal;writing-mode:lr-tb;fill:#000000;fill-opacity:1;fill-rule:nonzero;stroke:none;font-family:Cmr10;-inkscape-font-specification:Cmr10"
               id="text1338">
              <tspan
                 style="font-style:italic;font-variant:normal;font-weight:normal;font-stretch:normal;font-family:Utopia;-inkscape-font-specification:Utopia Italic"
                 x="0 3.7283204"
                 y="0"
                 sodipodi:role="line"
                 id="tspan1336">ev</tspan>
            </text>
            <text
               transform="matrix(1,0,0,-1,15.161719,-2.1705)"
               style="font-size:8.39999962px;font-style:normal;font-variant:normal;font-weight:normal;font-stretch:normal;writing-mode:lr-tb;fill:#000000;fill-opacity:1;fill-rule:nonzero;stroke:none;font-family:Utopia;-inkscape-font-specification:Utopia"
               id="text1342">
              <tspan
                 style="font-style:italic;font-variant:normal;font-weight:normal;font-stretch:normal;font-family:Utopia;-inkscape-font-specification:Utopia Italic"
                 x="0"
                 y="0"
                 id="tspan1340">,</tspan>
            </text>
            <text
               transform="matrix(1,0,0,-1,17.578359,-2.1705)"
               style="font-size:8.39999962px;font-variant:normal;font-weight:normal;writing-mode:lr-tb;fill:#000000;fill-opacity:1;fill-rule:nonzero;stroke:none;font-family:Cmr10;-inkscape-font-specification:Cmr10"
               id="text1346">
              <tspan
                 style="font-style:italic;font-variant:normal;font-weight:normal;font-stretch:normal;font-family:Utopia;-inkscape-font-specification:Utopia Italic"
                 x="0 3.3099608 7.5099611"
                 y="0"
                 sodipodi:role="line"
                 id="tspan1344">sat</tspan>
            </text>
            <text
               transform="matrix(1,0,0,-1,32.163516,0.890625)"
               style="font-size:12px;font-variant:normal;font-weight:normal;writing-mode:lr-tb;fill:#000000;fill-opacity:1;fill-rule:nonzero;stroke:none;font-family:BitstreamVeraSans;-inkscape-font-specification:BitstreamVeraSans-Roman"
               id="text1350">
              <tspan
                 style="font-style:italic;font-variant:normal;font-weight:normal;font-stretch:normal;font-family:Utopia;-inkscape-font-specification:Utopia Italic"
                 x="0 4.6816406 12.550781 20.185547"
                 y="0"
                 sodipodi:role="line"
                 id="tspan1348">(K2)</tspan>
            </text>
          </g>
          <path
             d="m 394.4,296.6 h 16.8"
             style="fill:none;stroke:#ff0000;stroke-width:1;stroke-linecap:square;stroke-linejoin:round;stroke-miterlimit:10;stroke-opacity:1;stroke-dasharray:none"
             id="path1352"
             inkscape:connector-curvature="0" />
          <g
             style="stroke-linecap:butt;stroke-linejoin:round"
             id="g1354"
             transform="translate(424.4,292.4)">
            <text
               transform="matrix(1,0,0,-1,0,0.890625)"
               style="font-size:12px;font-variant:normal;font-weight:normal;writing-mode:lr-tb;fill:#000000;fill-opacity:1;fill-rule:nonzero;stroke:none;font-family:Cmmi10;-inkscape-font-specification:Cmmi10"
               id="text1358">
              <tspan
                 style="font-style:italic;font-variant:normal;font-weight:normal;font-stretch:normal;font-family:Utopia;-inkscape-font-specification:Utopia Italic"
                 x="0"
                 y="0"
                 id="tspan1356">T</tspan>
            </text>
            <text
               transform="matrix(1,0,0,-1,7.0078125,-2.1705)"
               style="font-size:8.39999962px;font-variant:normal;font-weight:normal;writing-mode:lr-tb;fill:#000000;fill-opacity:1;fill-rule:nonzero;stroke:none;font-family:Cmr10;-inkscape-font-specification:Cmr10"
               id="text1362">
              <tspan
                 style="font-style:italic;font-variant:normal;font-weight:normal;font-stretch:normal;font-family:Utopia;-inkscape-font-specification:Utopia Italic"
                 x="0 3.7283204"
                 y="0"
                 sodipodi:role="line"
                 id="tspan1360">ev</tspan>
            </text>
            <text
               transform="matrix(1,0,0,-1,15.161719,-2.1705)"
               style="font-size:8.39999962px;font-variant:normal;font-weight:normal;writing-mode:lr-tb;fill:#000000;fill-opacity:1;fill-rule:nonzero;stroke:none;font-family:Cmmi10;-inkscape-font-specification:Cmmi10"
               id="text1366">
              <tspan
                 style="font-style:italic;font-variant:normal;font-weight:normal;font-stretch:normal;font-family:Utopia;-inkscape-font-specification:Utopia Italic"
                 x="0"
                 y="0"
                 id="tspan1364">,</tspan>
            </text>
            <text
               transform="matrix(1,0,0,-1,17.578359,-2.1705)"
               style="font-size:8.39999962px;font-variant:normal;font-weight:normal;writing-mode:lr-tb;fill:#000000;fill-opacity:1;fill-rule:nonzero;stroke:none;font-family:Cmr10;-inkscape-font-specification:Cmr10"
               id="text1370">
              <tspan
                 style="font-style:italic;font-variant:normal;font-weight:normal;font-stretch:normal;font-family:Utopia;-inkscape-font-specification:Utopia Italic"
                 x="0 3.3099608 7.5099611"
                 y="0"
                 sodipodi:role="line"
                 id="tspan1368">sat</tspan>
            </text>
            <text
               transform="matrix(1,0,0,-1,32.163516,0.890625)"
               style="font-size:12px;font-variant:normal;font-weight:normal;writing-mode:lr-tb;fill:#000000;fill-opacity:1;fill-rule:nonzero;stroke:none;font-family:BitstreamVeraSans;-inkscape-font-specification:BitstreamVeraSans-Roman"
               id="text1374">
              <tspan
                 style="font-style:italic;font-variant:normal;font-weight:normal;font-stretch:normal;font-family:Utopia;-inkscape-font-specification:Utopia Italic"
                 x="0 4.6816406 12.550781 20.185547"
                 y="0"
                 sodipodi:role="line"
                 id="tspan1372">(K3)</tspan>
            </text>
          </g>
        </g>
      </g>
    </g>
  </g>
</svg>
