<?xml version="1.0" encoding="UTF-8" standalone="no"?>
<!-- Created with Inkscape (http://www.inkscape.org/) -->

<svg
   xmlns:dc="http://purl.org/dc/elements/1.1/"
   xmlns:cc="http://creativecommons.org/ns#"
   xmlns:rdf="http://www.w3.org/1999/02/22-rdf-syntax-ns#"
   xmlns:svg="http://www.w3.org/2000/svg"
   xmlns="http://www.w3.org/2000/svg"
   xmlns:sodipodi="http://sodipodi.sourceforge.net/DTD/sodipodi-0.dtd"
   xmlns:inkscape="http://www.inkscape.org/namespaces/inkscape"
   width="744.09448819"
   height="1052.3622047"
   id="svg2"
   version="1.1"
   inkscape:version="0.48.2 r9819"
   sodipodi:docname="50powerloss.pdf">
  <defs
     id="defs4">
    <clipPath
       id="clipPath3023"
       clipPathUnits="userSpaceOnUse">
      <path
         id="path3025"
         d="m 37.828125,43.2 455.371875,0 0,306 -455.371875,0 0,-306 z" />
    </clipPath>
    <clipPath
       id="clipPath3013"
       clipPathUnits="userSpaceOnUse">
      <path
         id="path3015"
         d="m 37.828125,43.2 455.371875,0 0,306 -455.371875,0 0,-306 z" />
    </clipPath>
    <clipPath
       id="clipPath3003"
       clipPathUnits="userSpaceOnUse">
      <path
         id="path3005"
         d="m 37.828125,43.2 455.371875,0 0,306 -455.371875,0 0,-306 z" />
    </clipPath>
    <clipPath
       id="clipPath4861"
       clipPathUnits="userSpaceOnUse">
      <path
         id="path4863"
         d="m 37.828125,43.2 455.371875,0 0,270 -455.371875,0 0,-270 z" />
    </clipPath>
    <clipPath
       id="clipPath4851"
       clipPathUnits="userSpaceOnUse">
      <path
         id="path4853"
         d="m 37.828125,43.2 455.371875,0 0,270 -455.371875,0 0,-270 z" />
    </clipPath>
    <clipPath
       id="clipPath4841"
       clipPathUnits="userSpaceOnUse">
      <path
         id="path4843"
         d="m 37.828125,43.2 455.371875,0 0,270 -455.371875,0 0,-270 z" />
    </clipPath>
  </defs>
  <sodipodi:namedview
     id="base"
     pagecolor="#ffffff"
     bordercolor="#666666"
     borderopacity="1.0"
     inkscape:pageopacity="0.0"
     inkscape:pageshadow="2"
     inkscape:zoom="2.8"
     inkscape:cx="417.15852"
     inkscape:cy="610.77065"
     inkscape:document-units="px"
     inkscape:current-layer="layer1"
     showgrid="false"
     inkscape:window-width="1920"
     inkscape:window-height="1017"
     inkscape:window-x="-8"
     inkscape:window-y="-8"
     inkscape:window-maximized="1" />
  <metadata
     id="metadata7">
    <rdf:RDF>
      <cc:Work
         rdf:about="">
        <dc:format>image/svg+xml</dc:format>
        <dc:type
           rdf:resource="http://purl.org/dc/dcmitype/StillImage" />
        <dc:title></dc:title>
      </cc:Work>
    </rdf:RDF>
  </metadata>
  <g
     inkscape:label="Layer 1"
     inkscape:groupmode="layer"
     id="layer1">
    <g
       transform="matrix(1.25,0,0,-1.25,35.87211,763.96395)"
       inkscape:label="Qdots_lastCycle"
       id="g4831">
      <path
         id="path4833"
         style="fill:#ffffff;fill-opacity:1;fill-rule:nonzero;stroke:none"
         d="M 0,0 504,0 504,324 0,324 0,0 z"
         inkscape:connector-curvature="0" />
      <path
         id="path4835"
         style="fill:#ffffff;fill-opacity:1;fill-rule:nonzero;stroke:none"
         d="m 37.828125,43.2 455.371875,0 0,270 -455.371875,0 0,-270 z"
         inkscape:connector-curvature="0" />
      <g
         id="g4837">
        <g
           clip-path="url(#clipPath4841)"
           id="g4839">
          <path
             id="path4845"
             style="fill:none;stroke:#0000ff;stroke-width:1;stroke-linecap:square;stroke-linejoin:round;stroke-miterlimit:10;stroke-opacity:1;stroke-dasharray:none"
             d="m 69.840234,-1 0.265208,36.80206 0.290786,15.841127 0.581574,16.546601 0.290786,2.462786 0.290787,3.536549 0.581573,40.069637 0.290787,6.90468 0.290787,3.80873 0.290786,-0.89065 0.290787,1.47827 0.290786,-1.97472 0.290787,15.86519 0.290787,4.41198 0.290786,1.91704 0.290787,-0.87619 0.290787,-2.33155 0.290786,-3.41877 0.290787,0.22313 0.290787,3.09361 0.290786,1.09853 0.581573,7.64146 0.581574,7.29297 0.290786,7.08793 0.581574,20.2986 0.87236,11.00787 0.290786,0.035 0.290787,2.71199 0.290786,8.06481 0.290787,0.19654 0.290787,-2.11381 0.290786,1.3574 0.290787,0.59554 0.581573,-15.24002 0.581574,-29.40391 0.290786,-5.01454 0.290787,-0.96487 1.74472,47.27244 0.581573,4.37057 0.290787,-5.60911 0.290786,-0.62124 0.290787,-4.68581 0.290787,0.82827 0.290786,1.90356 0.87236,18.39775 0.290787,1.25602 0.290786,-0.0129 0.290787,-4.06641 0.581573,-15.66645 0.581574,-21.98 0.290786,-7.52164 0.290787,-1.22013 0.581573,10.83996 0.290787,17.07692 0.581573,22.51684 0.290787,0.62902 0.290786,-0.43887 0.87236,-27.36133 0.290787,-3.24465 0.290786,1.09689 1.163147,21.49277 0.290787,0.28804 0.581573,-3.6641 0.581573,-3.03159 0.290787,-0.71493 0.290786,1.57274 0.290787,-2.14761 0.290787,1.32121 0.290786,-1.66727 0.290787,2.08069 0.581573,-2.40606 0.290787,-4.51313 0.290787,0.19218 0.290786,1.2162 0.290787,-0.24729 0.290791,-4.28238 0.29078,2.3674 0.29079,-7.97712 0.29079,8.33032 0.29078,-5.23206 0.29079,4.38614 0.29079,-0.52658 0.87236,-3.46455 0.29078,3.8596 0.29079,1.63131 0.29079,-1.31932 0.29078,4.35449 0.29079,-0.2887 0.29079,2.56344 0.29078,-2.47168 0.29079,1.40163 0.29079,-0.13092 0.29078,1.62836 0.29079,-3.41184 0.29078,1.99335 0.29079,-1.09585 0.29079,-0.12289 0.29078,0.81966 0.29079,-1.18441 0.29079,2.90447 0.29078,-2.84287 0.29079,-1.38872 0.29079,1.94832 0.29078,-1.98102 0.29079,2.51827 0.29079,-3.25319 0.29078,2.47328 0.29079,-2.44701 0.29079,2.38459 0.29078,-3.47694 0.29079,3.42801 0.29079,0.88711 0.29078,-4.12438 0.29079,1.73041 0.29079,-2.071 0.29078,0.83209 0.29079,0.003 0.29079,-0.49181 0.29078,1.75131 0.29079,-3.06374 0.29079,3.42352 0.29078,-2.22676 0.29079,3.92373 0.29079,-2.94207 0.29078,0.43544 0.29079,1.44284 0.29079,-2.13949 0.29078,2.09719 0.29079,-4.15035 0.29079,5.81133 0.29078,-3.05238 0.29079,0.71902 0.29079,-0.84403 0.29078,1.49913 0.29079,0.66912 0.29079,-1.76141 0.29078,4.88157 0.29079,-5.41207 0.29079,1.83867 0.29078,0.66194 0.29079,-0.54124 0.29079,1.18879 0.29078,-1.76307 0.29079,2.76458 0.29079,-3.49467 0.58157,1.62083 0.29079,-3.40585 0.29078,3.05192 0.29079,-3.03363 0.29079,1.28561 0.29078,-3.54992 0.29079,5.55086 0.29079,0.23317 0.29078,-2.58132 0.29079,3.75509 0.29079,-3.88892 0.29078,5.38339 0.29079,-6.14684 0.29079,2.28054 0.29078,3.50977 0.29079,-3.24503 0.29079,1.39157 0.29078,-4.20904 0.29079,6.05985 0.29079,-4.1776 0.29078,2.77063 0.29079,-3.12642 0.29079,2.94604 0.29078,0.72615 0.29079,-5.04383 0.29079,6.73441 0.29078,-7.91668 0.29079,5.27872 0.29079,-0.39315 0.29078,0.24532 0.29079,-0.17105 0.29079,-0.50772 0.29078,2.09427 0.29079,-3.10479 0.29079,2.8433 0.29078,-2.61933 0.29079,1.45872 0.29079,-0.68032 0.29078,-0.99028 0.29079,2.37807 0.29079,-3.82584 0.29078,3.60317 0.29079,-4.24559 0.58157,4.42009 0.29079,-4.24489 0.29079,4.59936 0.29078,-5.155 0.29079,3.95431 0.29079,0.56612 0.29078,-0.75816 0.29079,1.67382 0.29079,-4.34777 0.29078,5.52978 0.29079,-4.56246 0.29079,3.61498 0.29078,-5.67781 0.58158,6.76087 0.29078,-3.72925 0.29079,1.2252 0.29078,-5.20692 0.29079,7.28426 0.29079,-4.35814 0.58157,1.20233 0.29079,-1.69517 0.29078,4.7824 0.29079,-4.0672 0.29079,2.18834 0.29078,-1.89731 0.29079,-0.55446 0.29079,2.5341 0.29078,-3.631 0.29079,4.98018 0.58157,-3.67536 0.29079,-0.72149 0.29079,3.12877 0.29078,-2.44733 0.29079,0.14654 0.29079,3.18228 0.29078,-5.60827 0.29079,5.63791 0.29079,-3.12906 0.29078,-0.68531 0.29079,2.44514 0.29079,-2.35849 0.29078,3.03371 0.29079,-1.25145 0.29079,1.71429 0.29078,-3.51386 0.29079,3.94714 0.29079,-1.73589 0.29078,-0.42044 0.29079,3.23397 0.29079,-6.22138 0.29078,5.60418 0.29079,-2.19164 0.29079,0.81527 0.29078,-2.29983 0.29079,-1.17949 0.29079,3.66733 0.29078,0.0919 0.29079,-0.36329 0.29079,-3.87522 0.29078,3.95911 0.29079,0.66477 0.29079,-3.93477 0.29078,4.00852 0.29079,-2.97112 0.29079,2.62498 0.58157,-1.23637 0.29079,1.72467 0.29078,-2.17091 0.29079,1.6056 0.29079,-2.52692 0.29078,3.54229 0.29079,-3.80914 0.58157,2.48048 0.58158,1.4167 0.29078,-3.93367 0.29079,2.85747 0.29079,-2.35691 0.29078,2.07167 0.29079,-2.04269 0.29079,1.88584 0.29078,-0.84938 0.29079,-1.34739 0.29079,3.91865 0.29078,-4.16758 0.29079,4.22974 0.29079,-3.24596 0.29078,1.02278 0.29079,-0.38979 0.29079,-1.30244 0.29078,4.29638 0.29079,-5.37355 0.29079,4.58602 0.29078,-2.62699 0.29079,1.24877 0.29079,-0.51387 0.29078,-1.48286 0.29079,3.62569 0.29079,-4.89309 0.29078,2.49721 0.29079,0.64709 0.29079,-0.79176 0.29078,3.48674 0.29079,-6.0682 0.29079,2.14683 0.29078,3.18208 0.29079,-1.48823 0.29079,0.47954 0.29078,-2.28007 0.29079,0.61315 0.29079,-0.90408 0.29078,2.46097 0.29079,-4.09936 0.29079,5.13684 0.29078,-4.22475 0.58158,2.61953 0.29078,-3.46793 0.29079,2.96591 0.29079,-3.49161 0.58157,4.12987 0.29079,-3.79781 0.29078,5.40239 0.29079,-2.43878 0.29079,1.80427 0.29078,0.52139 0.29079,0.0959 0.29078,-3.16911 0.29079,2.98114 0.29079,0.84508 0.29078,-6.93686 0.29079,5.49971 0.29079,-3.08365 0.29078,2.99265 0.29079,-0.97102 0.29079,-2.68634 0.29078,1.65165 0.29079,-2.11383 0.29079,4.37259 0.29078,-5.06334 0.29079,4.4833 0.29079,-0.015 0.29078,-0.52196 0.58158,-3.32966 0.29078,4.34705 0.29079,-1.47525 0.29079,1.663 0.29078,-3.72749 0.29079,0.43933 0.29079,3.22237 0.29078,-2.90475 0.29079,3.25273 0.29079,-3.33165 0.29078,1.22048 0.29079,-1.94727 0.29079,0.75861 0.58157,-1.98207 0.29079,5.9504 0.29078,-3.46596 0.29079,2.6517 0.29079,-2.05004 0.29078,-0.80626 0.29079,0.8579 0.29079,-2.23668 0.29078,5.78928 0.29079,-6.93491 0.29079,4.28525 0.29078,-1.84624 0.29079,-0.37396 0.29079,3.38342 0.29078,-4.34461 0.29079,3.84594 0.29079,-4.35634 0.29078,5.07963 0.29079,-3.45454 0.29079,1.41377 0.29078,0.42101 0.29079,-4.75414 0.29079,6.55023 0.29078,-2.65466 0.29079,-0.74184 0.29079,0.0126 0.29078,1.58064 0.29079,0.76694 0.29079,-2.00057 0.29078,1.91337 0.29079,-2.24111 0.29079,-0.35259 0.29078,-1.51308 0.29079,3.28868 0.29079,-1.85149 0.29078,-2.65898 0.29079,4.35783 0.29079,-2.1788 0.29078,3.44458 0.58158,-4.23945 0.29078,3.27209 0.29079,-1.63867 0.29079,1.1065 0.29078,-1.85302 0.29079,4.1189 0.29079,-2.44805 0.29078,-1.29061 0.29079,2.37655 0.29079,-6.08634 0.29078,5.82079 0.29079,-2.17424 0.29079,1.51732 0.29078,0.26188 0.29079,-2.08968 0.29079,0.22002 0.29078,-1.19446 0.29079,4.04145 0.29079,-2.86793 0.29078,0.31773 0.29079,-0.92829 0.29079,2.16806 0.58157,-4.15873 0.29079,5.53031 0.29078,-3.03076 0.29079,1.97852 0.58157,-1.81761 0.29079,0.48172 0.29079,-0.3177 0.29078,1.93031 0.29079,-2.75234 0.29079,2.35748 0.29078,-0.60381 0.29079,0.46825 0.29079,-0.0433 0.29078,-2.17032 0.29079,3.33088 0.29079,-3.80949 0.29078,3.85389 0.29079,-4.90583 0.29079,4.13374 0.58157,-2.90474 0.29078,4.80541 0.29079,-8.71532 0.29079,7.39016 0.29078,-0.30467 0.29079,-2.45076 0.29079,2.55623 0.29078,-3.23974 0.29079,2.81621 0.29079,-2.14994 0.29078,2.60232 0.29079,-1.67848 0.29079,1.74486 0.29078,-1.99411 0.29079,-0.0621 0.29079,3.1385 0.29078,-1.88529 0.29079,-0.42884 0.29079,-3.40425 0.29078,2.02766 0.29079,-0.74682 0.29079,1.36161 0.29078,3.29707 0.29079,-4.50043 0.29079,1.08577 0.29078,-1.19037 0.29079,-0.25687 0.29079,3.27204 0.29078,-3.51902 0.29079,2.32304 0.29079,-2.17091 0.29078,2.56349 0.29079,-4.1165 0.29079,4.03739 0.29078,0.89419 0.29079,-3.62901 0.29079,3.66512 0.29078,-4.74942 0.29079,3.30513 0.58157,0.95952 0.29079,2.19518 0.29079,-8.6261 0.29078,7.32414 0.29079,-4.97486 0.29079,3.86512 0.29078,-2.04454 0.29079,-0.73164 0.29079,4.26366 0.29078,-5.6616 0.29079,4.27023 0.29079,-3.82244 0.29078,1.48225 0.29079,0.0922 0.29079,0.44449 0.29078,-0.78602 0.29079,0.064 0.29079,3.02056 0.29078,-4.44261 0.29079,3.47004 0.29079,-3.13366 0.29078,1.287 0.29079,0.25298 0.29079,-4.7096 0.29078,9.70011 0.29079,-8.14757 0.29079,4.71269 0.29078,-1.85674 0.29079,-0.16351 0.29079,3.58332 0.29078,-5.59674 0.29079,4.08654 0.29079,-6.04368 0.29078,5.34858 0.29079,-4.70455 0.29079,4.188 0.29078,1.63596 0.29079,-2.36174 0.29079,0.89872 0.29078,-1.42576 0.29079,-0.67666 0.29079,0.31286 0.58157,4.66776 0.29079,-4.08474 0.29078,3.59582 0.29079,-4.05092 0.29079,1.13576 0.29078,-1.2654 0.29079,-0.11843 0.87236,1.98238 0.29079,-3.89956 0.29078,5.85277 0.29079,-2.29758 0.29079,-0.0728 0.29078,0.2124 0.29079,-3.0913 0.29079,5.10568 0.29078,-6.15922 0.29079,1.99226 0.29079,0.74615 0.29078,1.25097 0.29079,0.33854 0.29079,-1.01291 0.58157,0.62834 0.29079,0.17829 0.29078,-3.22013 0.58158,2.41265 0.29078,-4.81221 0.29079,5.94668 0.29079,-4.1848 0.29078,4.24156 0.29079,-1.93714 0.29078,-0.97267 0.29079,2.63896 0.29079,-3.45998 0.29078,2.05215 0.29079,-1.22834 0.29079,4.48379 0.29078,-3.56043 0.29079,-1.84598 0.29079,1.348 0.29078,-1.53519 0.29079,4.03728 0.29079,-4.92543 0.29078,5.83737 0.29079,-3.64394 0.29079,2.55137 0.29078,-1.71513 0.29079,1.75072 0.29079,-0.0273 0.29078,-1.65092 0.29079,2.63519 0.29079,-2.58944 0.29078,1.86861 0.29079,-4.06656 0.29079,-0.90511 0.29078,3.1169 0.29079,-1.1188 0.29079,2.88343 0.29078,-2.89533 0.58158,1.95414 0.29078,-1.2015 0.29079,3.37662 0.29079,-5.6363 0.29078,4.91353 0.29079,-3.03056 0.29079,0.8015 0.29078,-0.6695 0.29079,-1.39632 0.29079,3.05302 0.29078,-3.24291 0.29079,4.8991 0.29079,-1.59564 0.29078,-2.90679 0.29079,3.87819 0.29079,-3.88729 0.29078,5.16048 0.29079,-6.36334 0.29079,2.89141 0.29078,-2.16639 0.29079,2.02539 0.29079,0.35432 0.29078,-3.30904 0.29079,5.88221 0.29079,-6.32884 0.29078,4.15569 0.29079,-0.9881 0.29079,1.75278 0.29078,-0.17922 0.29079,-3.46898 0.29079,3.20467 0.29078,-4.51225 0.29079,7.85591 0.29079,-6.32705 0.58157,2.10713 0.29079,-0.1776 0.29078,0.24019 0.29079,-2.16457 0.29079,4.09214 0.29078,-4.36061 0.58158,2.49738 0.29078,-3.71564 0.29079,6.56973 0.29079,-8.12216 0.29078,7.62241 0.29079,-5.60787 0.29079,2.73064 0.58157,-0.52827 0.29079,2.02075 0.29078,-3.79283 0.29079,1.30753 0.29079,-0.24173 0.29078,2.33326 0.29079,-0.0598 0.29079,-2.49632 0.29078,2.15748 0.29079,-3.0656 0.29079,3.36584 0.29078,0.0997 0.29079,-1.56076 0.29079,-0.0577 0.29078,-1.69855 0.29079,3.40945 0.29079,-5.27991 0.29078,4.37405 0.29079,-2.31215 0.29079,0.95781 0.29078,-0.7895 0.29079,-1.65017 0.29079,2.53527 0.29078,-2.40652 0.29079,2.50656 0.29079,1.48141 0.29078,-0.65647 0.29079,-3.23555 0.58157,4.99403 0.29079,-4.78866 0.29079,3.49011 0.29078,-3.85364 0.29079,2.6308 0.29079,0.4103 0.29078,-2.42585 0.29079,3.33033 0.29078,-3.93557 0.29079,3.89857 0.29079,-3.49392 0.29078,0.90581 0.29079,-1.03985 0.29079,0.75684 0.29078,1.47808 0.29079,-3.1721 0.29079,2.37297 0.29078,-2.5759 0.29079,2.96386 0.29079,-1.92993 0.29078,-0.16927 0.29079,3.86786 0.29079,-3.01365 0.29078,1.09235 0.29079,-0.94321 0.29079,1.17425 0.29078,-0.47076 0.29079,-0.68498 0.29079,4.19121 0.29078,-3.64983 0.29079,3.24081 0.29079,-4.27315 0.29078,2.73802 0.29079,-1.66607 0.29079,0.10785 0.29078,4.73479 0.29079,-4.1718 0.29079,1.83103 0.29078,-2.22816 0.29079,-0.0974 0.29079,-0.79284 0.29078,0.35719 0.29079,-1.00173 0.58157,1.71827 0.29079,-3.41749 0.29079,3.49736 0.29078,-0.85566 0.29079,-1.62876 0.29079,2.96864 0.29078,-1.86321 0.58158,1.63005 0.29078,-2.56381 0.29079,2.67884 0.29079,-1.97999 0.29078,0.42805 0.29079,-1.98687 0.29079,1.97943 0.29078,-3.34792 0.29079,4.63244 0.29079,0.27731 0.29078,-3.13439 0.29079,4.93109 0.29079,-3.98568 0.29078,0.80594 0.29079,-1.45889 0.29079,0.20553 0.29078,4.59464 0.29079,-5.22081 0.29079,4.09315 0.29078,-2.97567 0.29079,0.11061 0.29079,-0.22616 0.29078,2.54795 0.29079,-0.69327 0.29079,-4.98131 0.29078,7.15788 0.29079,-5.04212 0.29079,4.08206 0.29078,-3.0891 0.29079,1.04257 0.29079,1.83453 0.29078,-2.67021 0.29079,0.94552 0.29079,0.12705 0.29078,1.24756 0.29079,-2.56273 0.29079,0.36012 0.29078,-0.62581 0.29079,0.47122 0.29079,0.82972 0.29078,-3.13163 0.29079,4.67526 0.29079,-4.04322 0.29078,2.04646 0.29079,0.82412 0.29079,-2.41201 0.29078,1.33098 0.29079,-2.21798 0.29079,3.1544 0.29078,-0.84427 0.29079,0.64999 0.29079,1.08021 0.29078,-6.36736 0.29079,6.94643 0.29079,-4.86713 0.29078,2.24716 0.29079,-1.40193 0.29079,0.30961 0.29078,1.36203 0.29079,-0.25449 0.29079,2.07163 0.29078,-5.6259 0.29079,4.1256 0.29079,-2.30295 0.58157,2.19659 0.29079,-2.87205 0.29078,5.34724 0.29079,-5.88991 0.29079,4.23764 0.29078,-3.4579 0.29079,0.91615 0.29078,1.81187 0.29079,-1.30398 0.29079,0.95364 0.29078,-4.59055 0.29079,4.28166 0.58157,-2.3658 0.29079,0.73433 0.29079,-1.55288 0.29078,3.85084 0.29079,-5.33598 0.29079,6.35026 0.29078,-3.81697 0.29079,2.16879 0.29079,-3.66487 0.58157,2.46953 0.29079,-0.29352 0.29078,0.91337 0.29079,-1.62082 0.29079,2.1986 0.29078,-1.97909 0.29079,0.01 0.29079,0.78873 0.29078,-3.26239 0.29079,5.68162 0.58157,-4.68042 0.29079,0.89005 0.29079,-0.68475 0.29078,3.01891 0.29079,-3.73198 0.29079,3.78876 0.29078,-2.89778 0.29079,0.0872 0.29079,3.02112 0.29078,-2.42112 0.29079,1.32907 0.29079,-1.40182 0.29078,1.33804 0.29079,-2.35171 0.29079,-0.28141 0.29078,2.2406 0.29079,-1.88072 0.29079,3.35028 0.29078,-5.15476 0.29079,3.18952 0.29079,-0.31153 0.29078,-1.37431 0.29079,0.90763 0.29079,-0.35903 0.29078,4.70443 0.29079,-4.55011 0.29079,4.71294 0.29078,-2.23624 0.29079,-3.35277 0.29079,3.788 0.29078,-3.74723 0.29079,2.32515 0.29079,-4.01581 0.29078,6.4673 0.58158,-5.19101 0.29078,4.16871 0.29079,-2.02228 0.29079,3.3332 0.29078,-6.80795 0.29079,3.61004 0.29079,-2.15839 0.29078,2.03452 0.29079,-3.07252 0.29079,0.36084 0.29078,3.3949 0.29079,-2.44322 0.29079,1.36547 0.29078,-1.5783 0.58158,2.58594 0.29078,-2.30363 0.29079,3.0017 0.29079,-2.40309 0.29078,-0.29258 0.29079,-1.62605 0.29079,0.51265 0.29078,1.96649 0.29079,-4.82503 0.29079,8.30909 0.29078,-5.67023 0.29079,1.94508 0.29079,-1.68477 0.29078,0.91512 0.29079,-0.52009 0.29079,-1.96692 0.29078,3.36157 0.29079,-0.53791 0.29079,1.01955 0.29078,-5.07475 0.29079,4.26775 0.29079,-0.43193 0.29078,-3.12137 0.29079,2.92392 0.29079,-0.87451 0.29078,-1.29385 0.58158,1.60699 0.29078,3.16984 0.29079,-7.11803 0.29079,4.99497 0.29078,-1.1611 0.29079,2.71004 0.29079,-1.79284 0.29078,-3.55018 0.29079,5.39094 0.29079,-5.989 0.29078,4.83615 0.29079,-3.02581 0.29078,1.16176 0.29079,2.47867 0.29079,-3.00884 0.29078,-0.28946 0.29079,-2.87113 0.29079,4.44538 0.29078,-2.28434 0.29079,3.19826 0.29079,-1.41827 0.29078,-3.05905 0.29079,4.3003 0.29079,-1.76272 0.29078,0.54095 0.29079,-2.34212 0.29079,2.25207 0.29078,-0.16852 0.29079,-2.50137 0.29079,0.095 0.29078,-0.47968 0.29079,1.49024 0.29079,-2.95029 0.29078,4.54935 0.29079,-1.37483 0.58157,0.006 0.29079,-1.27801 0.29079,-0.12742 0.29078,-1.41329 0.29079,3.1855 0.29079,-0.78458 0.29078,0.0233 0.29079,-0.81801 0.29079,-4.96862 0.29078,7.2882 0.29079,-2.6592 0.29079,-0.13196 0.29078,-1.13257 0.29079,0.76794 0.29079,2.82612 0.29078,-5.4733 0.29079,5.07197 0.29079,-3.83308 0.29078,5.41604 0.29079,-1.48062 0.29079,-2.25814 0.29078,1.98318 0.29079,-4.17857 0.29079,3.00664 0.29078,-1.36554 0.29079,2.04488 0.29079,-3.3535 0.29078,2.33934 0.29079,1.36916 0.29079,-4.25039 0.29078,3.13925 0.29079,-1.10014 0.29079,0.79207 0.29078,-1.70348 0.29079,-3.16111 0.29079,5.42604 0.29078,-3.28941 0.29079,3.2684 0.29079,-3.06991 0.29078,1.59462 0.29079,-0.81369 0.29079,-0.43974 0.29078,1.7565 0.29079,-2.10868 0.29079,3.41292 0.29078,-5.88949 0.29079,5.83404 0.29079,-4.84095 0.29078,4.83811 0.29079,0.68475 0.29079,-5.84576 0.29078,4.12879 0.29079,-4.047 0.29079,2.29894 0.29078,-0.0206 0.29079,-1.2356 0.29079,3.09054 0.29078,-3.23472 0.29079,3.63639 0.29079,-3.28202 0.29078,3.01577 0.29079,-2.5388 0.29079,0.60958 0.29078,0.0982 0.29079,-4.65802 0.29079,6.26962 0.29078,-6.571 0.29079,4.76698 0.29079,0.73031 0.29078,-1.15788 0.29079,0.53567 0.29079,-1.17686 0.29078,1.91374 0.29079,-4.70683 0.29079,4.84663 0.58157,-3.58424 0.29079,3.31271 0.29078,-2.74487 0.29079,0.9643 0.29079,-3.3953 0.29078,3.19764 0.29079,0.26878 0.29079,0.54627 0.29078,1.41521 0.29079,-5.07999 0.29079,2.54326 0.29078,-2.10984 0.29079,-0.22622 0.29079,2.13151 0.29078,-0.153 0.29079,1.81767 0.29079,-3.78144 0.29078,4.10148 0.29079,-2.20026 0.29078,1.11359 0.29079,-1.51065 0.29079,1.13966 0.58157,-1.01979 0.29079,0.68011 0.29078,-3.96268 0.29079,3.6611 0.29079,-3.65209 0.29078,1.69236 0.29079,2.98338 0.29079,-3.61837 0.29078,4.15606 0.29079,-3.32629 0.29079,-0.73712 0.29078,0.0982 0.29079,-2.16979 0.29079,5.49723 0.29078,-3.75146 0.29079,3.74748 0.29079,-3.1797 0.29078,1.58974 0.29079,-5.10179 0.58157,7.07925 0.29079,-4.48526 0.29079,0.99329 0.29078,-1.59036 0.29079,4.70882 0.29079,-5.93208 0.29078,0.99167 0.29079,3.83794 0.29079,-0.98156 0.29078,0.93145 0.29079,-5.3864 0.29079,4.00911 0.29078,-3.72822 0.58158,2.56348 0.29078,-1.95868 0.29079,3.799 0.29079,-4.43052 0.29078,1.19762 0.29079,0.56306 0.29079,-0.95708 0.29078,3.56523 0.29079,-2.88762 0.29079,4.72135 0.29078,-3.74918 0.29079,-0.44604 0.29079,1.42729 0.29078,-3.96665 0.29079,4.04514 0.29079,-4.27697 0.29078,1.15853 0.29079,2.07784 0.29079,-1.30391 0.29078,2.12112 0.29079,-1.6632 0.29079,2.36003 0.29078,-4.59863 0.29079,3.96631 0.29079,-3.84961 0.29078,1.6829 0.29079,2.96535 0.29079,-3.84308 0.29078,-1.6e-4 0.29079,-0.62811 0.29079,3.76287 0.29078,-3.15436 0.29079,1.2258 0.29079,-0.37198 0.29078,-0.92019 0.29079,1.41488 0.29079,-1.26237 0.29078,2.78717 0.29079,-3.12551 0.29079,-0.29198 0.29078,1.67736 0.29079,-2.75536 0.29079,0.12607 0.29078,-0.18619 0.29079,1.06219 0.29079,-0.40908 0.29078,3.25332 0.29079,-3.01876 0.29079,-0.15827 0.29078,1.32781 0.29079,-3.31093 0.58157,3.46252 0.29079,-0.71552 0.29079,-1.38086 0.29078,-3.69067 0.29079,6.97186 0.29079,-2.17518 0.29078,2.68437 0.29079,-5.23982 0.29079,1.88118 0.29078,-2.19408 0.29079,0.98568 0.29079,3.16987 0.29078,-2.69734 0.29079,-0.94374 0.58157,0.76009 0.29079,-1.24674 0.58157,0.27211 0.58158,1.51806 0.29078,-1.69586 0.58157,1.72869 0.29079,-2.15574 0.29079,1.16853 0.29078,-0.9537 0.29079,3.73067 0.29079,-3.86104 0.29078,-0.51949 0.29079,1.00325 0.29079,-1.90543 0.29078,6.19971 0.29079,-7.59117 0.29079,2.41243 0.29078,0.0285 0.29079,-0.47335 0.29079,1.29944 0.29078,0.34249 0.29079,1.83301 0.29079,-3.49287 0.29078,3.31891 0.58158,-5.14213 0.29078,2.21658 0.29079,-2.90934 0.29079,4.05467 0.29078,-2.69701 0.29079,0.68165 0.29079,-0.61869 0.29078,-2.0021 0.29079,2.54624 0.29079,-0.62006 0.29078,0.92929 0.29079,-3.30423 0.29079,4.56142 0.29078,-3.74211 0.29079,0.0171 0.29079,0.31367 0.29078,-3.1868 0.29079,5.52594 0.29079,-0.77672 0.29078,0.35199 0.29079,-3.81941 0.29079,2.72259 0.29078,0.48214 0.29079,-1.80879 0.29079,0.73105 0.29078,-0.0782 0.29079,-1.19644 0.29079,0.54465 0.29078,1.11576 0.58158,-2.81538 0.29078,2.58985 0.29079,-1.97253 0.29079,0.52001 0.29078,-2.89572 0.29079,3.65155 0.29079,0.85517 0.29078,-1.74238 0.29079,1.99333 0.29079,-2.6506 0.29078,1.30719 0.29079,-1.61091 0.29079,0.84684 0.29078,1.49913 0.29079,-5.92938 0.29079,3.98925 0.58157,2.73681 0.29079,-4.23049 0.29078,0.25774 0.29079,1.43708 0.29079,-0.13852 0.29078,1.50819 0.29079,-3.1097 0.29079,1.67656 0.29078,-4.45757 0.29079,2.24794 0.29079,3.166 0.29078,-7.18531 0.29079,5.49613 0.29079,-2.36602 0.29078,3.85437 0.29079,-3.02202 0.29079,-1.78425 0.29078,2.96871 0.29079,-4.60972 0.29079,5.04693 0.29078,-4.72524 0.29079,3.40802 0.29079,-0.61818 0.29078,-1.15736 0.29079,4.23867 0.29079,-8.36154 0.29078,4.06877 0.29079,0.13533 0.29079,-1.98896 0.29078,-1.05698 0.29079,1.08229 0.29079,2.99366 0.29078,-6.29878 0.29079,4.85338 0.29079,-3.70042 0.29078,5.64659 0.29079,-2.7032 0.29079,0.20437 0.29078,1.99761 0.29079,-5.75464 0.29079,5.05656 0.29078,-2.97022 0.29079,2.94797 0.29079,-3.86258 0.29078,0.19014 0.29079,2.88536 0.58157,-3.61747 0.29079,-0.31469 0.29078,4.47465 0.29079,-4.63973 0.29079,1.25803 0.29078,1.84857 0.29079,-2.97486 0.29079,3.41845 0.29078,-4.12303 0.29079,1.47691 0.29079,0.26009 0.29078,-1.62369 0.29079,2.84123 0.29079,-2.946 0.29078,1.70638 0.29079,-2.52212 0.29079,4.58858 0.58157,-8.61694 0.29079,6.97406 0.29078,-0.96602 0.58158,-4.74783 0.29078,5.8611 0.29079,2.27689 0.58157,-9.46647 0.29079,2.88788 0.29079,7.83813 0.29078,-6.96149 0.29079,-0.64747 0.29079,-3.53356 0.29078,3.77367 0.29079,5.5022 0.29079,-10.917 0.29078,4.25313 0.29079,0.20526 0.29079,7.57637 0.29078,-9.177 0.29079,-1.62545 0.29079,2.45614 0.29078,5.10046 0.29079,-0.48324 0.29079,-7.64553 0.58157,4.42376 0.29079,4.546 L 455.8734,-1 m 35.92516,0 0.23829,15.120133 0.29079,15.107672 0.87236,19.686669 0,0"
             inkscape:connector-curvature="0" />
        </g>
      </g>
      <g
         id="g4847">
        <g
           clip-path="url(#clipPath4851)"
           id="g4849">
          <path
             id="path4855"
             style="fill:none;stroke:#008000;stroke-width:1;stroke-linecap:square;stroke-linejoin:round;stroke-miterlimit:10;stroke-opacity:1;stroke-dasharray:none"
             d="m 37.828125,50.171049 0.290787,-2.345235 0.290786,1.847941 0.290787,0.512069 0.290787,2.722888 0.290786,4.583064 0.87236,-12.3009 0.290787,-1.167382 0.290786,-3.727625 0.290787,-0.773555 0.290787,4.826744 0.290786,-5.681885 0.581574,3.943264 0.581573,-8.348474 0.290786,1.173272 0.290787,2.997538 0.290787,-3.459194 0.290786,1.329838 0.290787,0.779694 0.290787,2.260568 0.290786,-2.35188 0.290787,-3.31926 0.290787,3.789699 0.290786,-1.506005 0.581574,5.319105 0.290786,1.011466 0.290787,0.325553 0.290786,0.681631 0.290787,-1.925617 0.290787,1.219155 0.290786,0.572296 0.581574,2.260856 0.290786,-1.862421 0.290787,0.375529 0.290787,0.923327 0.290786,-1.029902 0.290787,0.778603 0.290786,-1.765454 0.290787,-1.038889 0.290787,-0.02979 0.290786,-1.160804 0.581574,0.376986 0.581573,-2.968226 0.581573,-1.70519 0.290787,1.721156 0.290786,-4.179972 0.290787,5.308503 0.290787,-1.671604 0.290786,-1.011789 0.290787,3.781765 0.290787,-2.672845 0.290786,2.366858 0.290787,-0.182147 0.290787,1.688523 0.290786,-1.238167 0.290787,1.200854 0.290786,-0.250611 0.290787,2.01658 0.290787,0.19913 0.290786,-0.400646 0.290787,0.30971 0.290787,-0.906133 0.290786,0.964952 0.290787,-0.810521 0.290787,-0.01392 0.290786,-1.128717 0.290787,-0.514836 0.290786,0.238283 0.290787,-0.268727 0.290787,-0.972473 0.290786,0.319652 0.290787,-0.02216 0.290787,0.242866 0.290786,1.037806 0.290787,-0.286091 0.290787,0.141114 0.290786,0.879469 0.290787,0.0056 0.290787,0.503199 0.290786,-0.556246 0.290787,-0.239937 0.290786,0.285378 0.290787,0.898678 0.290787,-0.712126 0.290786,-0.17309 0.290787,-0.818228 0.290787,0.326229 0.290786,-0.272272 0.290787,-0.722751 0.290787,0.30698 0.290786,0.131949 0.290787,-0.12893 0.290786,0.01929 0.290787,0.799885 0.290787,-1.203305 0.290786,0.831843 0.290787,0.460747 0.290787,-0.457782 0.290786,0.405345 0.581574,-0.243145 0.290786,11.61176 0.290787,27.009283 0.581573,27.272187 0.290787,8.41598 0.290786,3.71994 0.290787,1.97589 0.581573,41.85176 0.290787,10.39522 0.290787,5.73477 0.290786,1.50069 0.290787,-1.77798 0.290786,3.08755 0.290787,15.58409 0.290787,8.40928 0.290786,4.3839 0.290787,0.43133 0.290787,-1.60512 0.290786,-2.61995 0.290787,0.44535 0.290787,3.24805 0.290786,1.14861 1.163147,13.48395 0.290786,6.84377 0.581574,19.33892 0.87236,9.72604 0.290786,-0.7486 0.290787,2.56316 0.290786,7.87545 0.290787,-0.14914 0.290787,-2.34489 0.290786,1.0779 0.290787,0.49419 0.581573,-15.35736 0.581574,-29.19412 0.290786,-4.41871 0.290787,0.0498 1.453933,48.10963 0.581573,5.75073 0.290787,2.13178 0.290787,-5.68181 0.290786,-0.49834 0.290787,-4.5677 0.290787,1.07722 0.290786,1.65248 0.87236,18.3226 0.290787,1.07339 0.290786,-0.44789 0.290787,-4.47005 0.581573,-15.77699 0.581574,-22.01073 0.290786,-6.77869 0.290787,-0.79161 0.581573,12.01824 0.290787,17.57028 0.581573,22.62027 0.290787,0.29308 0.290786,-0.69155 0.87236,-28.00851 0.290787,-3.01841 0.290786,1.45686 0.87236,17.84826 0.290787,3.47568 0.290787,0.13279 0.87236,-5.67753 0.290786,-1.71733 0.290787,-0.59865 0.290786,1.49523 0.290787,-2.17666 0.290787,1.28227 0.290786,-1.68396 0.290787,1.84079 0.581573,-2.39404 0.290787,-4.42094 0.290787,0.15041 0.290786,1.07464 0.290787,-0.15404 0.290791,-4.15755 0.29078,2.2927 0.29079,-7.90407 0.29079,8.34591 0.29078,-5.29893 0.29079,4.69058 0.29079,-0.39937 0.87236,-3.11316 0.29078,3.75234 0.29079,1.85978 0.29079,-1.45844 0.29078,4.40368 0.29079,-0.31295 0.29079,2.39279 0.29078,-2.36962 0.29079,1.40338 0.29079,-0.19561 0.29078,1.51207 0.29079,-3.65624 0.29078,2.00577 0.29079,-1.12606 0.29079,-0.0446 0.29078,0.69144 0.29079,-1.18799 0.29079,2.67392 0.29078,-2.86482 0.29079,-1.27542 0.29079,1.86605 0.29078,-1.9738 0.29079,2.56635 0.29079,-3.38377 0.29078,2.234 0.29079,-2.18745 0.29079,2.59169 0.29078,-3.92542 0.29079,3.73595 0.29079,0.91728 0.29078,-4.09941 0.29079,1.64972 0.29079,-2.11102 0.29078,1.00563 0.29079,0.0475 0.29079,-0.67951 0.29078,1.90326 0.29079,-3.20014 0.29079,3.48364 0.29078,-2.12488 0.29079,3.81303 0.29079,-2.88497 0.29078,0.38616 0.29079,1.325 0.29079,-1.98559 0.29078,2.05315 0.29079,-4.3489 0.29079,5.85601 0.29078,-3.11292 0.29079,0.8987 0.29079,-1.02138 0.29078,1.40429 0.29079,0.683 0.29079,-1.7284 0.29078,4.77308 0.29079,-5.28364 0.29079,1.7949 0.29078,0.45101 0.29079,-0.47872 0.29079,1.15521 0.29078,-1.66039 0.29079,2.47775 0.29079,-3.42086 0.29078,1.14674 0.29079,0.50498 0.29079,-3.42195 0.29078,3.12782 0.29079,-3.09367 0.29079,1.3778 0.29078,-3.54716 0.29079,5.36183 0.29079,0.38838 0.29078,-2.44075 0.29079,3.38056 0.29079,-3.50202 0.29078,4.95101 0.29079,-6.04681 0.58157,5.69045 0.29079,-3.05253 0.29079,1.27588 0.29078,-4.24138 0.29079,6.28047 0.29079,-4.11766 0.29078,2.69793 0.29079,-3.33169 0.29079,3.28141 0.29078,0.44033 0.29079,-5.00562 0.29079,6.76449 0.29078,-8.05198 0.29079,5.31258 0.29079,-0.44389 0.29078,0.0327 0.29079,-0.15879 0.29079,-0.451 0.29078,2.24034 0.29079,-3.17567 0.29079,2.93281 0.29078,-2.51376 0.29079,1.27534 0.29079,-0.53987 0.29078,-1.08675 0.29079,2.37815 0.29079,-3.93552 0.29078,3.7925 0.29079,-4.38039 0.58157,4.03159 0.29079,-4.02586 0.29079,4.57477 0.29078,-4.88938 0.29079,3.89965 0.29079,0.52374 0.29078,-0.7915 0.29079,1.56551 0.29079,-4.49948 0.29078,5.65928 0.29079,-4.60442 0.29079,3.70007 0.29078,-5.80039 0.58158,6.76365 0.29078,-3.64696 0.29079,0.94843 0.29078,-5.04666 0.29079,7.35739 0.29079,-4.38525 0.29078,0.81134 0.29079,0.39297 0.29079,-1.62082 0.29078,4.68128 0.29079,-4.00448 0.29079,2.19228 0.29078,-1.75058 0.29079,-0.80533 0.29079,2.69363 0.29078,-3.75461 0.29079,4.85787 0.58157,-3.70827 0.29079,-0.39293 0.29079,3.09502 0.29078,-2.73412 0.29079,0.29778 0.29079,2.89361 0.29078,-5.45342 0.29079,5.93399 0.29079,-3.31797 0.29078,-0.65805 0.29079,2.08575 0.29079,-2.21465 0.29078,3.31072 0.29079,-1.26311 0.29079,1.3965 0.29078,-3.16155 0.29079,3.84132 0.29079,-1.78358 0.29078,-0.55458 0.29079,3.326 0.29079,-6.32505 0.29078,5.66774 0.29079,-2.1201 0.29079,0.51616 0.58157,-3.63998 0.29079,4.0077 0.29078,-0.0347 0.29079,-0.42003 0.29079,-3.90854 0.29078,4.02337 0.29079,0.60806 0.29079,-3.93866 0.29078,4.28246 0.29079,-3.0847 0.29079,2.57637 0.29078,-0.3553 0.29079,-0.81203 0.29079,1.70565 0.29078,-2.03017 0.29079,1.5292 0.29079,-2.70936 0.29078,3.61647 0.29079,-3.74881 0.58157,2.54294 0.58158,1.40327 0.29078,-4.04921 0.29079,3.06979 0.29079,-2.5127 0.29078,2.15707 0.29079,-2.01558 0.29079,1.6813 0.29078,-0.74779 0.29079,-1.1395 0.29079,3.8387 0.29078,-4.47785 0.29079,4.58302 0.29079,-3.33019 0.29078,1.10234 0.29079,-0.6071 0.29079,-1.17879 0.29078,4.01506 0.29079,-5.31379 0.29079,4.93084 0.29078,-3.03637 0.29079,1.46612 0.29079,-0.62653 0.29078,-1.50762 0.29079,3.74437 0.29079,-4.74231 0.29078,2.49747 0.29079,0.52886 0.29079,-0.62503 0.29078,3.08059 0.29079,-6.10015 0.58157,5.47067 0.29079,-1.59492 0.29079,0.50592 0.29078,-2.51756 0.29079,0.75008 0.29079,-0.59941 0.29078,2.06839 0.29079,-3.64932 0.29079,4.90494 0.29078,-4.3765 0.58158,2.71824 0.29078,-3.57402 0.29079,2.89139 0.29079,-3.57567 0.29078,2.63626 0.29079,1.41582 0.29079,-3.75427 0.29078,5.45608 0.29079,-2.12741 0.29079,1.63509 0.29078,0.5603 0.29079,-0.0615 0.29078,-3.11779 0.29079,3.11408 0.29079,0.74416 0.29078,-6.78041 0.29079,5.50927 0.29079,-3.10162 0.29078,2.97489 0.29079,-0.92353 0.29079,-2.70069 0.29078,1.5011 0.29079,-1.80677 0.29079,4.32045 0.29078,-4.94672 0.29079,4.24815 0.29079,0.0166 0.29078,-0.72334 0.58158,-3.20819 0.29078,4.3046 0.29079,-1.57885 0.29079,2.04094 0.29078,-3.9094 0.29079,0.47511 0.29079,3.07162 0.29078,-2.68956 0.29079,3.16568 0.29079,-3.10843 0.29078,0.76533 0.29079,-1.82621 0.29079,0.73185 0.58157,-2.08091 0.29079,6.09559 0.29078,-3.53145 0.29079,2.66652 0.29079,-2.25026 0.29078,-0.56588 0.29079,0.86269 0.29079,-2.25946 0.29078,5.59488 0.29079,-7.08431 0.29079,4.47247 0.29078,-2.04726 0.29079,0.0453 0.29079,3.28252 0.29078,-4.24489 0.29079,3.88085 0.29079,-4.86394 0.29078,5.24767 0.29079,-3.43982 0.29079,1.73509 0.29078,0.14956 0.29079,-4.66249 0.29079,6.69272 0.29078,-2.8532 0.29079,-0.61462 0.29079,0.23897 0.58157,2.02046 0.29079,-1.94891 0.29078,1.90153 0.29079,-2.22436 0.29079,-0.14017 0.29078,-1.77898 0.29079,3.34479 0.29079,-1.67094 0.29078,-2.61904 0.29079,4.17355 0.29079,-2.08093 0.29078,3.2457 0.29079,-2.55893 0.29079,-1.53909 0.29078,3.32956 0.29079,-1.6774 0.29079,1.14158 0.29078,-2.01996 0.29079,4.10804 0.29079,-2.40239 0.29078,-1.21946 0.29079,2.36578 0.29079,-6.12255 0.29078,5.67708 0.29079,-2.00676 0.29079,1.56153 0.29078,0.3989 0.29079,-2.24506 0.29079,0.26929 0.29078,-1.277 0.29079,4.04881 0.29079,-3.00183 0.29078,0.45216 0.29079,-0.88897 0.29079,2.12525 0.58157,-4.2195 0.29079,5.52368 0.29078,-2.93626 0.29079,1.94284 0.58157,-1.79127 0.29079,0.57513 0.29079,-0.31263 0.29078,1.52416 0.29079,-2.59534 0.29079,2.45012 0.29078,-0.57727 0.29079,0.32574 0.29079,-0.0277 0.29078,-2.30859 0.29079,3.57822 0.29079,-3.92847 0.29078,3.97602 0.29079,-5.12214 0.29079,4.27956 0.58157,-2.82191 0.29078,4.76865 0.29079,-8.71129 0.29079,7.51553 0.29078,-0.64493 0.29079,-2.21749 0.29079,2.44365 0.29078,-3.19744 0.29079,2.83873 0.29079,-2.22109 0.29078,2.66154 0.29079,-1.87124 0.29079,2.04001 0.29078,-2.06039 0.29079,-0.20835 0.29079,3.09785 0.29078,-1.89042 0.29079,-0.3356 0.29079,-3.33857 0.29078,1.91567 0.29079,-0.70312 0.29079,1.17564 0.29078,3.45114 0.29079,-4.45157 0.29079,1.20367 0.29078,-1.19427 0.29079,-0.50643 0.29079,3.63437 0.29078,-4.00007 0.29079,2.66885 0.29079,-2.29725 0.29078,2.47236 0.29079,-4.09883 0.29079,4.07446 0.29078,0.84415 0.29079,-3.67706 0.29079,3.8442 0.29078,-4.73687 0.29079,3.3044 0.58157,0.99595 0.29079,2.01692 0.29079,-8.56448 0.29078,7.45461 0.29079,-5.03932 0.29079,3.64468 0.29078,-2.02624 0.29079,-0.51042 0.29079,4.22081 0.29078,-5.74563 0.29079,4.00744 0.29079,-3.52583 0.29078,1.36161 0.29079,0.13718 0.29079,0.7134 0.29078,-1.30074 0.29079,0.31961 0.29079,2.94491 0.29078,-4.49703 0.29079,3.56387 0.29079,-3.22434 0.29078,1.43563 0.29079,0.074 0.29079,-4.50271 0.29078,9.95504 0.29079,-8.38934 0.29079,4.65387 0.29078,-1.84189 0.29079,-0.0292 0.29079,3.43661 0.29078,-5.60492 0.29079,4.30509 0.29079,-6.00135 0.29078,5.48323 0.29079,-4.79649 0.29079,4.14103 0.29078,1.51818 0.29079,-2.3265 0.29079,0.7189 0.58157,-1.98442 0.29079,0.31416 0.58157,4.54872 0.29079,-3.87083 0.29078,3.55546 0.29079,-4.24407 0.29079,1.32847 0.29078,-1.29121 0.29079,-0.25279 0.58157,1.06115 0.29079,1.08644 0.29079,-4.03618 0.29078,5.87373 0.29079,-2.43875 0.29079,-0.16015 0.29078,0.48207 0.29079,-3.11852 0.29079,4.91262 0.29078,-5.95242 0.29079,1.73118 0.58157,1.98624 0.29079,0.4646 0.29079,-1.07031 0.29078,0.54217 0.58158,0.26331 0.29078,-3.22213 0.58158,2.70672 0.29078,-4.98773 0.29079,6.00902 0.29079,-4.34703 0.29078,4.36314 0.29079,-1.89809 0.29078,-1.00522 0.29079,2.29554 0.29079,-3.15228 0.29078,2.13786 0.29079,-1.33741 0.29079,4.39336 0.29078,-3.38837 0.29079,-1.84308 0.29079,1.40675 0.29078,-1.50483 0.29079,4.04241 0.29079,-4.92604 0.29078,5.8804 0.29079,-3.72755 0.29079,2.31518 0.29078,-1.48936 0.29079,1.81208 0.29079,-0.0343 0.29078,-1.66535 0.29079,2.39702 0.29079,-2.67296 0.29078,1.97033 0.29079,-3.92869 0.29079,-0.79985 0.29078,3.1444 0.29079,-1.44224 0.29079,3.12619 0.29078,-3.02021 0.29079,0.79773 0.29079,1.16307 0.29078,-1.52317 0.29079,3.81515 0.29079,-5.75061 0.29078,4.74167 0.29079,-2.75199 0.29079,0.74883 0.29078,-0.74537 0.29079,-1.40934 0.29079,3.23104 0.29078,-3.16107 0.29079,4.77654 0.29079,-1.84582 0.29078,-2.75034 0.29079,4.02812 0.29079,-4.13062 0.29078,5.13052 0.29079,-6.39523 0.29079,2.95148 0.29078,-2.20397 0.29079,2.21256 0.29079,0.22747 0.29078,-3.16686 0.29079,5.76123 0.29079,-6.22911 0.29078,4.01052 0.29079,-0.86002 0.29079,1.5549 0.29078,-0.11899 0.29079,-3.36882 0.29079,3.07613 0.29078,-4.39119 0.29079,7.82998 0.29079,-6.38009 0.58157,2.13309 0.29079,-0.20994 0.29078,0.32549 0.29079,-2.28933 0.29079,4.17818 0.29078,-4.30446 0.58158,2.42816 0.29078,-3.6485 0.29079,6.3474 0.29079,-7.92651 0.29078,7.58042 0.29079,-5.61098 0.29079,2.79003 0.58157,-0.70991 0.29079,2.02659 0.29078,-3.99875 0.29079,1.4838 0.29079,-0.21824 0.29078,2.37655 0.29079,-0.21728 0.29079,-2.45437 0.29078,2.07611 0.29079,-3.00652 0.29079,3.38248 0.29078,0.24355 0.29079,-1.50242 0.29079,-0.33102 0.29078,-1.33438 0.29079,3.26138 0.29079,-5.30265 0.29078,4.50807 0.29079,-2.31347 0.29079,0.86176 0.29078,-0.83696 0.29079,-1.51946 0.29079,2.60854 0.29078,-2.49947 0.58158,3.97706 0.29078,-0.67704 0.29079,-3.41136 0.58157,5.12754 0.29079,-4.77865 0.29079,3.51552 0.29078,-3.81532 0.29079,2.46998 0.29079,0.67138 0.29078,-2.45316 0.29079,3.37198 0.29078,-4.19275 0.29079,4.19167 0.29079,-3.60435 0.29078,0.93435 0.29079,-0.9887 0.29079,0.78066 0.29078,1.50776 0.29079,-3.28874 0.29079,2.52255 0.29078,-2.6419 0.29079,2.99543 0.29079,-1.84968 0.29078,-0.19759 0.29079,3.90058 0.29079,-3.02216 0.29078,1.06427 0.29079,-0.94557 0.29079,1.11991 0.29078,-0.40216 0.29079,-0.80316 0.29079,4.15625 0.29078,-3.67868 0.29079,3.60085 0.29079,-4.38997 0.29078,2.77466 0.29079,-1.77029 0.29079,0.13659 0.29078,4.35578 0.29079,-4.19451 0.29079,1.99602 0.29078,-2.03991 0.29079,-0.27698 0.29079,-0.56932 0.29078,0.11187 0.29079,-0.69705 0.58157,1.57156 0.29079,-3.73493 0.29079,3.82047 0.29078,-1.02871 0.29079,-1.58826 0.29079,3.08957 0.29078,-2.02079 0.58158,1.62037 0.29078,-2.40183 0.29079,2.51276 0.29079,-2.02676 0.29078,0.4066 0.29079,-1.8508 0.29079,2.01229 0.29078,-3.4603 0.29079,4.39996 0.29079,0.53507 0.29078,-3.11267 0.29079,5.07098 0.29079,-4.03751 0.29078,0.64208 0.29079,-1.187 0.29079,0.16627 0.29078,4.339 0.29079,-5.00306 0.29079,4.11373 0.29078,-3.14911 0.29079,-0.0102 0.29079,-0.34303 0.29078,2.79504 0.29079,-0.8041 0.29079,-4.8154 0.29078,7.03015 0.29079,-5.04948 0.29079,3.98054 0.29078,-2.85427 0.29079,1.05277 0.29079,1.84254 0.29078,-2.6511 0.29079,0.96045 0.29079,-0.0351 0.29078,1.40534 0.29079,-2.60087 0.29079,0.31011 0.29078,-0.75529 0.29079,0.41252 0.29079,0.76666 0.29078,-3.08313 0.29079,4.74014 0.29079,-3.9765 0.29078,1.95022 0.29079,0.97733 0.29079,-2.51918 0.29078,1.11716 0.29079,-2.3067 0.29079,3.38927 0.29078,-0.86708 0.29079,0.68959 0.29079,0.99225 0.29078,-6.22478 0.29079,7.05925 0.29079,-5.06846 0.29078,2.45483 0.29079,-1.57056 0.29079,0.43831 0.29078,1.41609 0.29079,-0.14814 0.29079,1.93592 0.29078,-5.56842 0.29079,4.25693 0.29079,-2.32139 0.58157,2.25839 0.29079,-3.2745 0.29078,5.59447 0.29079,-5.8668 0.29079,4.14934 0.29078,-3.36225 0.29079,1.10467 0.29078,1.75047 0.29079,-1.48685 0.29079,1.05349 0.29078,-4.77762 0.29079,4.29448 0.58157,-2.58938 0.29079,1.16912 0.29079,-1.90116 0.29078,4.11887 0.29079,-5.37482 0.29079,6.30381 0.29078,-3.89261 0.29079,2.30574 0.29079,-3.96184 0.58157,2.79415 0.29079,-0.30243 0.29078,0.86005 0.29079,-1.44376 0.29079,1.94185 0.29078,-2.04958 0.29079,0.0738 0.29079,0.82087 0.29078,-3.3029 0.29079,5.81783 0.58157,-4.8774 0.29079,0.98774 0.29079,-0.55764 0.29078,3.02147 0.29079,-4.06014 0.29079,3.80844 0.29078,-2.81444 0.29079,0.0909 0.29079,3.16434 0.29078,-2.31685 0.29079,1.02932 0.29079,-1.19122 0.29078,1.29734 0.29079,-2.42199 0.29079,-0.12065 0.29078,1.82886 0.29079,-1.69725 0.29079,3.29945 0.29078,-5.07622 0.29079,3.27746 0.29079,-0.4977 0.29078,-1.30385 0.29079,1.03156 0.29079,-0.30915 0.29078,4.50453 0.29079,-4.60517 0.29079,4.68753 0.29078,-1.93185 0.29079,-3.46529 0.29079,3.56326 0.29078,-3.6705 0.29079,2.34193 0.29079,-3.98545 0.29078,6.48843 0.58158,-5.37862 0.29078,4.32029 0.29079,-2.22939 0.29079,3.4177 0.29078,-6.94082 0.29079,4.0699 0.29079,-2.3433 0.29078,1.85166 0.29079,-2.84784 0.29079,0.17896 0.29078,3.6251 0.29079,-2.63181 0.29079,1.28932 0.29078,-1.411 0.58158,2.38408 0.29078,-2.45693 0.29079,3.1954 0.29079,-2.38292 0.29078,-0.30185 0.29079,-1.44088 0.29079,0.44466 0.29078,1.75574 0.29079,-4.45629 0.29079,8.08102 0.29078,-5.64949 0.29079,2.11902 0.29079,-1.79798 0.29078,0.87203 0.29079,-0.58993 0.29079,-1.71935 0.29078,3.23739 0.29079,-0.65252 0.29079,0.89462 0.29078,-5.15089 0.29079,4.52275 0.29079,-0.48931 0.29078,-3.15324 0.29079,2.70576 0.58157,-1.84952 0.58158,1.56795 0.29078,2.98655 0.29079,-7.07164 0.29079,4.98639 0.29078,-0.80403 0.29079,2.36281 0.29079,-1.77447 0.29078,-3.26322 0.29079,5.31782 0.29079,-6.0867 0.29078,5.09932 0.29079,-3.34294 0.29078,1.26959 0.29079,2.39996 0.29079,-2.9531 0.29078,-0.36319 0.29079,-2.63687 0.29079,4.24068 0.29078,-2.31104 0.29079,3.3509 0.29079,-1.48228 0.29078,-3.06073 0.29079,4.15712 0.29079,-1.56908 0.29078,0.56814 0.29079,-2.33668 0.29079,2.15485 0.29078,-0.0575 0.29079,-2.55258 0.29079,0.0381 0.29078,-0.27836 0.29079,1.38016 0.29079,-2.80305 0.29078,4.4177 0.29079,-1.45321 0.29079,0.12687 0.29078,-0.0618 0.29079,-1.48383 0.29079,-0.0239 0.29078,-1.60795 0.29079,3.41147 0.29079,-0.77292 0.29078,0.0904 0.29079,-1.06912 0.29079,-4.91852 0.29078,7.33957 0.29079,-2.5728 0.29079,-0.16491 0.29078,-1.1831 0.29079,0.75826 0.29079,3.05752 0.29078,-5.62426 0.29079,5.0928 0.29079,-3.94706 0.29078,5.43164 0.29079,-1.4315 0.29079,-2.33718 0.29078,1.93068 0.29079,-4.20461 0.29079,3.35641 0.29078,-1.5899 0.29079,1.94882 0.29079,-3.1795 0.58157,3.64251 0.29079,-4.49657 0.29078,3.45215 0.29079,-1.33155 0.29079,0.97253 0.29078,-1.82524 0.29079,-3.01387 0.29079,5.42922 0.29078,-3.40567 0.29079,3.33958 0.29079,-2.81837 0.29078,1.50037 0.29079,-1.03959 0.29079,-0.6164 0.29078,2.19095 0.29079,-2.53014 0.29079,3.65502 0.29078,-5.93219 0.29079,5.87661 0.29079,-4.96752 0.29078,4.99127 0.29079,0.40908 0.29079,-5.70327 0.29078,4.13995 0.29079,-4.0217 0.29079,2.17103 0.29078,-0.0203 0.29079,-1.22435 0.29079,3.22735 0.29078,-3.50763 0.29079,3.8437 0.29079,-3.59209 0.29078,3.30906 0.29079,-2.53906 0.29079,0.59796 0.29078,0.0716 0.29079,-4.66222 0.29079,6.28132 0.29078,-6.60913 0.29079,4.87209 0.29079,0.71085 0.29078,-1.19141 0.29079,0.55153 0.29079,-1.22478 0.29078,2.01403 0.29079,-4.7834 0.29079,5.09273 0.58157,-3.71282 0.29079,3.16759 0.29078,-2.67953 0.29079,0.7975 0.29079,-3.03523 0.29078,2.76282 0.29079,0.27989 0.29079,0.61537 0.29078,1.39454 0.29079,-5.0128 0.29079,2.44028 0.29078,-2.03223 0.29079,-0.0602 0.29079,2.0154 0.29078,-0.3711 0.29079,1.99031 0.29079,-3.84532 0.29078,4.09961 0.29079,-2.21565 0.29078,1.06685 0.29079,-1.69267 0.29079,1.25999 0.58157,-1.03254 0.29079,0.60439 0.29078,-3.81468 0.29079,3.80198 0.29079,-3.99472 0.29078,1.8578 0.29079,3.07934 0.29079,-3.77543 0.29078,4.25301 0.29079,-3.42444 0.29079,-0.81631 0.29078,0.11742 0.29079,-1.8255 0.29079,5.38838 0.29078,-3.75044 0.29079,3.61499 0.29079,-3.31723 0.29078,1.70814 0.29079,-4.85437 0.58157,6.85363 0.29079,-4.78007 0.29079,1.065 0.29078,-1.61108 0.29079,4.91069 0.29079,-6.01547 0.29078,0.96902 0.29079,3.67981 0.29079,-0.81198 0.29078,0.88671 0.29079,-5.44223 0.29079,4.18861 0.29078,-3.80275 0.58158,2.72045 0.29078,-2.03214 0.29079,3.86044 0.29079,-4.58308 0.29078,1.28266 0.29079,0.44232 0.29079,-0.95512 0.29078,3.68192 0.29079,-2.88833 0.29079,4.60846 0.29078,-3.9434 0.29079,-0.37281 0.29079,1.12196 0.29078,-3.81037 0.29079,4.13252 0.29079,-4.25147 0.29078,1.38722 0.29079,2.19627 0.29079,-1.55834 0.29078,1.83929 0.29079,-1.55999 0.29079,2.45965 0.29078,-4.73049 0.29079,4.02877 0.29079,-3.95151 0.29078,1.69571 0.29079,3.01947 0.29079,-3.92638 0.29078,0.19463 0.29079,-0.82422 0.29079,3.94037 0.29078,-3.25024 0.29079,1.39337 0.58157,-1.45119 0.29079,1.34491 0.29079,-1.35125 0.29078,2.67783 0.29079,-3.00205 0.29079,-0.20657 0.29078,1.78916 0.29079,-3.16209 0.29079,0.39795 0.29078,-0.26081 0.29079,1.08868 0.29079,-0.82048 0.29078,3.5798 0.29079,-3.09622 0.29079,-0.13586 0.29078,1.1404 0.29079,-3.0572 0.58157,3.3561 0.29079,-0.7248 0.29079,-1.43665 0.29078,-3.55272 0.29079,6.78143 0.29079,-2.16593 0.29078,2.78186 0.29079,-5.32311 0.29079,1.93219 0.29078,-2.26089 0.29079,0.78782 0.29079,3.27758 0.29078,-2.68346 0.29079,-1.05943 0.29079,0.81199 0.29078,0.10758 0.29079,-1.16755 0.29079,-0.0228 0.29078,0.17341 0.58158,1.51201 0.29078,-1.78284 0.58157,1.94801 0.29079,-2.3157 0.29079,0.93809 0.29078,-0.64404 0.29079,3.67346 0.29079,-3.84056 0.29078,-0.46551 0.29079,0.89285 0.29079,-2.42361 0.29078,6.91462 0.29079,-7.71794 0.29079,2.20924 0.29078,0.013 0.29079,-0.69113 0.29079,1.30053 0.29078,0.60428 0.29079,1.50688 0.29079,-3.41541 0.29078,3.33956 0.29079,-3.15423 0.29079,-1.92151 0.29078,2.16082 0.29079,-3.07684 0.29079,4.0759 0.29078,-2.55213 0.29079,0.55469 0.29079,-0.77951 0.29078,-1.80379 0.29079,2.43744 0.29079,-0.35821 0.29078,0.81988 0.29079,-3.44304 0.29079,4.32794 0.29078,-3.78079 0.58158,0.59875 0.29078,-3.16953 0.29079,5.43189 0.29079,-0.85634 0.29078,0.60869 0.29079,-4.02404 0.29079,2.83124 0.29078,0.41618 0.29079,-1.87145 0.29079,0.78798 0.29078,-0.11933 0.29079,-1.05282 0.29079,0.28399 0.29078,1.13083 0.58158,-3.21482 0.29078,3.04032 0.29079,-2.08391 0.29079,0.49621 0.29078,-2.8577 0.29079,3.4603 0.29079,0.86539 0.29078,-1.4223 0.29079,1.11959 0.29079,-1.97648 0.29078,1.23179 0.29079,-1.60081 0.29079,0.59685 0.29078,1.38277 0.29079,-5.85481 0.29079,4.06529 0.58157,2.60986 0.29079,-4.30182 0.29078,0.14507 0.29079,1.4667 0.29079,0.0463 0.29078,1.18198 0.29079,-2.92596 0.29079,1.67898 0.29078,-4.53331 0.58158,5.15421 0.29078,-7.06388 0.29079,5.43671 0.29079,-2.09925 0.29078,3.76739 0.29079,-3.10648 0.29079,-1.57821 0.29078,2.69272 0.29079,-4.52722 0.29079,4.94986 0.29078,-4.47655 0.29079,2.83468 0.29079,-0.49157 0.29078,-0.78794 0.29079,3.99668 0.29079,-8.47291 0.29078,4.20798 0.29079,-0.39177 0.58157,-2.99046 0.29079,1.48915 0.29079,2.76093 0.29078,-6.23921 0.29079,4.65807 0.29079,-3.83133 0.29078,5.60837 0.29079,-2.61701 0.29079,0.206 0.29078,2.0174 0.29079,-5.65104 0.29079,4.99292 0.29078,-3.08984 0.29079,3.06113 0.29079,-3.91588 0.29078,0.37809 0.29079,2.6443 0.58157,-4.03171 0.29079,0.22537 0.29078,3.7358 0.29079,-4.44036 0.58157,3.12357 0.29079,-2.96885 0.29079,3.87653 0.29078,-4.6825 0.29079,1.68741 0.29079,0.36527 0.29078,-1.58876 0.29079,2.58117 0.29079,-3.21864 0.29078,2.19916 0.29079,-2.35479 0.29079,3.15902 0.58157,-7.0741 0.29079,6.41329 0.87236,-5.45048 0.29078,5.82447 0.29079,1.06949 0.58157,-9.00589 0.29079,3.56348 0.29079,7.09442 0.29078,-8.1022 0.29079,0.017 0.29079,-1.84181 0.29078,2.60013 0.29079,4.43927 0.29079,-10.91382 0.29078,6.16869 0.29079,-0.0645 0.29079,5.80745 0.29078,-9.51723 0.29079,-0.68231 0.58157,8.02332 0.29079,-2.10022 0.29079,-7.24097 0.87236,9.0815 0.58157,-163.327331 0.29079,-9.612177 0.29078,-3.443096 0.58158,-4.783333 0.29078,2.908657 0.29079,7.104527 0.29079,-0.109109 0.58157,-3.69154 0.29079,-6.057786 0.29078,1.526401 0.29079,-6.352338 0.29079,-1.951269 0.29078,4.387069 0.29079,-1.56624 0.29079,-0.0306 0.29078,-4.570608 0.29079,-0.723371 0.29079,4.168339 0.29078,-8.34145 0.29079,9.663234 0.58157,-5.938569 0.29079,2.709617 0.29079,-0.227869 0.29078,-1.401589 0.29079,0.855909 0.29079,1.824142 0.29078,-2.044175 0.29079,4.832228 0.29079,-4.003025 0.29078,4.4767 0.29079,-0.01766 0.29079,-2.081439 0.29078,0.742434 0.29079,-0.805978 0.29079,1.856215 0.29078,0.864907 0.29079,1.563487 0.29079,-1.736118 0.29078,1.378166 0.29079,-2.205136 0.29079,0.647869 0.29078,-0.389928 0.29079,0.655088 0.29079,-2.228483 0.29078,0.611026 0.29079,-0.218631 0.29079,-1.338927 0.29078,-0.800264 0.29079,-0.172507 0.29079,1.095218 0.29078,-2.349188 0.29079,1.224045 0.29079,-0.156906 0.29078,-2.368336 0.29079,-0.89796 0.29079,1.320075 0.29078,2.405937 0.29079,-1.866034 0.29079,0.07011 0.29078,2.3868 0.29079,0.544697 0.29079,-0.405727 0.29078,3.517822 0.29079,-0.864954 0.29079,0.142526 0.29078,0.610745 0.29079,0.162863 0.29078,0.390855 0.29079,-1.089982 0.58157,-0.356251 0.29079,0.02524 0.58157,-1.512861 0.29079,0.225749 0.29079,-1.646861 0.87236,0.539767 0.29078,1.7521 0.29079,-0.45667 0.29079,-0.902485 0.58157,1.1302 0.29079,0.63074 0.29078,0.05874 0.29079,-0.889245 0.29079,0.349643 0.29078,1.436415 0.58158,-1.439096 0.29078,0.696641 0.29079,-0.08557 0.29079,-0.842951 0.29078,-0.328508 0.29079,0.387555 0.29079,-0.260548 0.29078,-0.716291 0.29079,0.513062 0.29079,-0.568651 0.29078,0.65266 0.29079,-0.528665 0.29079,0.02305 0.29078,0.958992 0.29079,-0.624083 0.29079,-0.04507 0.29078,0.451403 0.29079,0.245867 0.29079,0.627556 0.29078,0.151551 0.29079,0.322274 0.29079,-0.01606 0.29078,0.198797 0.29079,-0.20754 0.29079,0.363625 0.29078,-0.013 0.58158,-0.506474 0.29078,-0.09141 0.29079,-0.307593 0.29079,-0.506787 1.16314,51.960885 0.29079,6.642983 0,0"
             inkscape:connector-curvature="0" />
        </g>
      </g>
      <g
         id="g4857">
        <g
           clip-path="url(#clipPath4861)"
           id="g4859">
          <path
             id="path4865"
             style="fill:none;stroke:#ff0000;stroke-width:1;stroke-linecap:square;stroke-linejoin:round;stroke-miterlimit:10;stroke-opacity:1;stroke-dasharray:none"
             d="m 37.828125,110.78937 0.290787,-67.571332 32.85889,-6.4e-5 0.290786,27.448046 0.290787,2.09412 0.581573,1.9548 0.581574,0.75735 0.290786,26.51238 0.290787,2.6298 0.290786,1.2771 0.290787,0.70956 0.290787,-0.002 0.290786,-0.37179 0.290787,23.97222 0.290787,2.35737 0.290786,0.1512 0.290787,-0.7668 0.581573,-3.06261 2.035507,-12.43674 0.87236,-3.19437 0.872359,-3.04668 0.581574,-1.47663 0.581573,-0.52056 0.581573,-0.88857 0.290787,-0.17658 0.581573,-0.047 0.290787,0.3942 0.290787,1.03815 0.581573,3.98439 0.581573,3.72384 0.290787,1.3392 0.290786,0.73143 0.290787,0.43011 0.290787,0.037 0.290786,-0.20223 0.87236,-1.31328 0.87236,-0.54999 0.290787,-0.11961 0.290786,-0.37422 0.581574,-1.37322 0.87236,-2.48832 0.290786,-0.36018 0.290787,0.0502 0.290786,0.44442 0.290787,0.79488 1.163147,4.45851 0.290786,0.45711 0.290787,-0.378 0.290787,-0.70443 0.581573,-2.11734 0.290786,-0.66177 0.290787,-0.15876 0.290787,0.22086 0.87236,1.05003 0.290786,-0.10017 0.290787,-0.3159 0.87236,-1.49985 0.581573,-0.51192 2.326293,-0.77031 0.290787,0.15849 0.290791,-0.0267 3.78022,2.17377 0.58158,0.0521 0.29078,-0.21006 0.29079,-0.0132 0.29079,-0.20817 0.29078,-0.0599 0.58157,-0.40905 0.29079,-0.085 0.29079,-0.2214 1.74472,-0.40068 0.87236,-0.2565 0.29078,0.0718 0.29079,-0.0756 0.29079,0.067 0.29078,-0.0635 1.16315,0.11421 0.58157,0.0767 0.29079,0.0918 0.29079,-0.0594 1.74472,0.28404 0.87236,-0.0767 1.16314,0.051 0.58158,-0.19521 0.29078,0.0386 0.58158,-0.12096 0.58157,-0.0227 1.74472,-0.2457 0.58157,0.044 1.45394,-0.0335 0.87236,0.0224 0.29078,-0.0186 0.58158,0.0915 0.58157,0.0151 0.87236,0.0227 4.3618,-0.14283 0.58157,-0.0224 0.87236,-0.0419 0.58158,-0.005 4.3618,-0.0373 0.29078,0.12852 0.29079,-0.098 0.29079,0.0869 0.58157,-0.0948 0.29079,0.0489 0.29078,-0.10746 0.29079,0.13311 1.16314,-0.12987 0.87236,-0.0481 1.16315,0.0297 7.56045,-0.0707 0.29079,0.15552 0.87236,-0.16335 0.87236,0.0505 0.29079,-0.13365 0.58157,0.0851 0.87236,-0.0575 0.58157,-0.007 0.58158,0.02 0.29078,-0.0791 0.29079,0.10368 0.29079,-0.0929 1.16314,0.0424 1.16315,-0.002 1.45393,-0.0505 0.58158,0.0302 0.58157,0.009 0.29079,0.0302 0.29078,-0.0932 0.29079,0.10017 1.16315,-0.13203 0.29078,0.0937 0.29079,-0.0537 0.29079,0.0699 0.58157,-0.10098 4.07101,0.0748 0.58158,-0.0953 0.29078,0.0948 0.29079,-0.12825 0.29079,0.27 0.29078,-0.17712 3.48944,-0.088 0.87236,0.0445 0.87236,0.0394 0.29079,-0.14094 0.29078,0.1161 0.29079,-0.10557 0.29079,0.135 0.29078,-0.0818 0.87236,0.0788 2.61708,-0.0424 0.29079,-0.0807 0.29079,0.0872 0.29078,-0.03 0.29079,0.11772 0.29079,-0.11394 0.58157,-0.0197 0.58157,-0.047 0.29079,-0.0478 0.58157,0.11097 3.19866,-0.0994 0.58157,0.0724 3.78023,-0.0872 0.87236,0.12825 0.87236,-0.0707 1.16314,0.0343 0.29079,-0.0745 0.29079,0.0861 0.58157,-0.0529 0.29079,0.0891 0.29078,-0.12609 0.87236,0.0564 0.29079,-0.0867 1.16315,0.14121 0.29078,-0.10341 0.29079,0.0823 0.58157,-0.0842 3.78023,-0.0394 0.58157,0.0429 0.87236,-0.0367 1.16315,0.0551 0.58157,-0.0124 1.16315,-0.0335 0.29078,0.0745 0.87236,-0.068 0.29079,0.0737 0.58157,-0.15228 0.87236,0.0607 0.87236,-0.0562 0.58158,0.0348 0.29078,-0.0996 0.29079,0.1188 0.29079,-0.074 0.29078,0.0548 0.29079,-0.0972 0.58157,0.10206 0.29079,-0.0683 0.29079,0.10881 0.29078,-0.10692 0.29079,0.16821 0.58157,-0.0273 2.61708,-0.0394 0.58158,0.0181 2.32629,0.0127 0.29079,0.0616 0.58157,-0.0983 0.87236,-0.0351 0.58157,0.0211 0.58158,-0.0529 0.58157,0.0537 0.87236,-0.0448 0.87236,0.0683 1.45393,-0.003 0.58158,0.0157 2.32629,0.0869 0.29079,-0.10098 0.87236,-0.0221 3.19865,-0.0829 0.29079,0.11907 1.16314,-0.0651 0.87236,0.0456 1.16315,-0.0629 0.29079,0.11394 0.29078,-0.0996 1.74472,0.0516 0.29079,-0.12474 0.58157,0.0648 1.16315,-0.0165 0.29078,-0.0397 0.29079,0.0967 0.58157,-0.0975 1.45394,0.13338 0.58157,-0.10044 0.29079,0.12312 0.29078,-0.0969 0.29079,0.0883 0.29079,-0.11664 0.58157,0.0459 0.29079,-0.0888 0.29078,0.10854 0.29079,-0.0605 0.58157,0.0319 4.94338,-0.0265 2.90786,0.0432 0.29079,-0.0578 0.87236,0.0824 0.29079,0.027 0.29078,-0.11097 0.29079,0.12987 0.29079,-0.10125 0.87236,0.0591 0.87236,-0.0197 1.45393,-0.008 0.87236,-0.0365 0.29079,0.19872 0.29078,-0.17172 4.94338,0.0235 1.16314,-0.0175 0.58158,-0.061 0.58157,0.047 0.29079,-0.0737 0.29078,0.12204 0.58158,-0.0964 0.87236,0.0886 0.29078,-0.17847 0.58157,0.11421 3.48944,-0.007 0.29079,0.0651 0.29079,-0.0597 0.58157,0.0251 3.78023,0.0173 0.87236,-0.004 0.29078,-0.0602 0.29079,0.11718 0.29079,-0.1053 0.58157,0.0351 0.29079,-0.0805 0.29078,0.14499 0.29079,-0.0845 0.29079,0.0405 0.29078,-0.0921 1.16315,0.10017 0.29079,-0.0842 0.58157,0.0602 0.87236,-0.0575 0.29079,0.0478 0.29078,-0.0864 0.29079,0.0753 0.58157,-0.0443 0.87236,0.12879 0.29079,-0.0764 0.87236,0.0448 0.87236,0.008 0.29079,-0.0959 0.58157,0.0219 1.74472,0.0443 1.16315,-0.10719 0.29078,0.11394 0.29079,-0.1323 0.29079,0.12258 0.29078,-0.10341 3.19866,0.13041 0.87236,-0.0761 0.58157,-0.007 0.29079,-0.0297 0.29078,0.12069 0.29079,-0.13311 5.23416,0.0851 0.29078,-0.0888 0.58158,0.0605 2.90786,0.0189 0.29079,0.12636 0.58157,-0.10341 0.29079,-0.0499 0.29079,0.0748 0.58157,-0.1404 0.29079,0.0794 0.58157,-0.0221 0.87236,0.034 1.16315,0.0324 0.58157,-0.0988 1.45393,0.0578 0.58158,0.0165 0.29078,-0.0432 0.58158,0.0729 0.29078,-0.088 0.58158,0.001 0.87236,0.0219 0.29078,0.0907 0.29079,-0.12312 0.29079,0.0999 0.29078,-0.0572 0.29079,0.0656 0.29079,-0.0805 0.29078,0.0915 0.58158,-0.12042 0.87236,0.0138 2.90786,-0.0186 0.29079,-0.0491 0.29079,0.12393 1.16314,-0.0905 0.29079,0.064 0.58157,-0.0113 1.16315,-0.0418 0.87236,0.0454 0.29079,-0.0437 0.29078,0.11178 0.58158,-0.0672 0.29078,0.0526 0.29079,-0.13014 0.58157,0.0181 1.16315,0.0435 0.58157,0.0483 0.29079,-0.1242 0.29079,0.0567 0.29078,-0.0726 0.29079,0.0713 0.29079,-0.0675 0.58157,0.0945 0.87236,-0.0697 0.58157,0.0683 0.87236,-0.078 0.29079,0.10638 0.58157,-0.0877 2.90787,0.0575 0.29078,-0.0977 0.29079,0.0883 1.16315,-0.13041 0.29078,0.13824 0.58158,-0.0535 0.29078,0.0818 0.87236,-0.1269 0.29079,0.13068 0.29079,-0.10098 0.29078,0.0705 0.58158,-0.0896 0.29078,0.0545 0.29079,-0.0678 0.29079,0.0975 0.87236,-0.10422 0.58157,0.0913 0.87236,-0.078 0.29079,0.0956 0.58157,-0.12771 0.29079,0.0537 0.29078,-0.0748 0.58158,0.1188 1.45393,-0.094 0.29079,0.10692 0.29078,-0.12636 0.29079,0.12825 0.58157,-0.0435 0.87236,0.0356 0.29079,-0.10503 0.87236,0.0621 0.29079,0.0319 0.29078,-0.0869 1.16315,0.0418 1.74472,-0.0138 1.45393,0.0559 0.29079,-0.0688 0.87236,0.0254 1.74472,0.0238 0.29079,-0.0759 0.87236,0.0877 0.29078,-0.0883 0.58158,0.0837 0.58157,-0.0362 2.32629,-0.0886 0.58158,0.0545 1.16314,-0.0143 0.29079,-0.051 0.58157,0.0651 1.16315,-0.0421 0.87236,-0.0545 0.58157,0.0845 0.58157,-0.0502 0.87236,-0.0373 0.29079,0.0988 0.29079,-0.0818 0.58157,0.0802 0.29079,-0.11502 0.87236,0.0186 2.61708,-0.0545 0.29078,0.0994 0.29079,-0.0967 0.58157,0.009 1.16315,0.0545 0.29079,-0.0748 0.29078,0.0915 0.87236,-0.10098 0.58158,0.11232 0.87236,-0.0791 0.29078,0.10611 0.58158,-0.0853 0.29078,0.0888 0.58158,-0.0607 1.16314,-0.0446 0.29079,0.0529 0.29079,-0.088 1.16314,0.12258 0.87236,-0.1377 0.58158,-5.4e-4 1.16314,0.0635 0.58158,0.004 0.87236,-0.0605 0.29078,-0.0351 0.29079,0.0902 0.58157,-0.0205 0.87236,0.0308 0.29079,-0.0753 0.29079,0.0678 0.29078,-0.0894 0.29079,0.13365 0.58157,-0.11556 6.68809,-0.0562 0.29079,0.058 0.58157,-0.0742 0.58158,-0.0211 0.58157,0.0402 0.58157,-0.044 0.29079,0.0867 0.58157,-0.12393 0.29079,0.0945 0.87236,-0.0602 0.58157,0.0273 1.45394,-0.0832 0.87236,0.009 0.58157,-0.0494 0.29079,0.0192 0.29078,-0.17685 0.58158,0.0786 1.45393,-0.0524 0.29079,0.11799 1.45393,-0.12231 1.16315,0.0208 15.41169,-0.46548 0.29079,0.0621 0.87236,-0.13635 0.29078,0.0745 0.87236,-0.10503 0.58157,0.10044 0.58158,-0.13527 0.58157,0.0707 0.58157,-0.0635 1.16315,-0.008 0.58157,-0.0238 0.58158,0.002 0.58157,-0.1188 0.29079,0.12447 0.87236,-0.10719 0.29078,0.15984 0.87236,-0.1701 0.29079,0.23571 0.58157,-0.26568 0.29079,-0.16659 0.58157,0.30618 0.29079,-0.0905 0.29079,-0.28053 0.58157,0.30888 0.29079,0.0745 0.29078,-0.38556 0.58158,0.22869 0.29078,0.0707 0.29079,-0.38043 0.58157,0.11961 0.58158,0.20844 0.29078,-0.35478 0.87236,0.39474 0.29079,-45.04302 0.29079,-22.433374 35.76675,2.92e-4 0.29079,27.650022 0,0"
             inkscape:connector-curvature="0" />
        </g>
      </g>
      <g
         id="g4867">
        <path
           id="path4869"
           style="fill:none;stroke:#000000;stroke-width:1;stroke-linecap:square;stroke-linejoin:miter;stroke-miterlimit:10;stroke-opacity:1;stroke-dasharray:none"
           d="M 37.828125,313.2 493.2,313.2"
           inkscape:connector-curvature="0" />
        <path
           id="path4871"
           style="fill:none;stroke:#000000;stroke-width:1;stroke-linecap:square;stroke-linejoin:miter;stroke-miterlimit:10;stroke-opacity:1;stroke-dasharray:none"
           d="m 493.2,43.2 0,270"
           inkscape:connector-curvature="0" />
        <path
           id="path4873"
           style="fill:none;stroke:#000000;stroke-width:1;stroke-linecap:square;stroke-linejoin:miter;stroke-miterlimit:10;stroke-opacity:1;stroke-dasharray:none"
           d="M 37.828125,43.2 493.2,43.2"
           inkscape:connector-curvature="0" />
        <path
           id="path4875"
           style="fill:none;stroke:#000000;stroke-width:1;stroke-linecap:square;stroke-linejoin:miter;stroke-miterlimit:10;stroke-opacity:1;stroke-dasharray:none"
           d="m 37.828125,43.2 0,270"
           inkscape:connector-curvature="0" />
        <path
           id="path4877"
           style="fill:#000000;fill-opacity:1;fill-rule:nonzero;stroke:#000000;stroke-width:0.5;stroke-linecap:butt;stroke-linejoin:round;stroke-miterlimit:10;stroke-opacity:1;stroke-dasharray:none"
           d="m 37.828125,43.2 0,4"
           inkscape:connector-curvature="0" />
        <path
           id="path4879"
           style="fill:#000000;fill-opacity:1;fill-rule:nonzero;stroke:#000000;stroke-width:0.5;stroke-linecap:butt;stroke-linejoin:round;stroke-miterlimit:10;stroke-opacity:1;stroke-dasharray:none"
           d="m 37.828125,313.2 0,-4"
           inkscape:connector-curvature="0" />
        <text
           id="text4881"
           transform="matrix(1,0,0,-1,29.078125,30.075)">
          <tspan
             id="tspan4883"
             sodipodi:role="line"
             y="0"
             x="0 7.632 11.448"
             style="font-size:12px;font-variant:normal;font-weight:normal;writing-mode:lr-tb;fill:#000000;fill-opacity:1;fill-rule:nonzero;stroke:none;font-family:BitstreamVeraSans;-inkscape-font-specification:BitstreamVeraSans-Roman">0.0</tspan>
        </text>
        <path
           id="path4885"
           style="fill:#000000;fill-opacity:1;fill-rule:nonzero;stroke:#000000;stroke-width:0.5;stroke-linecap:butt;stroke-linejoin:round;stroke-miterlimit:10;stroke-opacity:1;stroke-dasharray:none"
           d="m 142.51131,43.2 0,4"
           inkscape:connector-curvature="0" />
        <path
           id="path4887"
           style="fill:#000000;fill-opacity:1;fill-rule:nonzero;stroke:#000000;stroke-width:0.5;stroke-linecap:butt;stroke-linejoin:round;stroke-miterlimit:10;stroke-opacity:1;stroke-dasharray:none"
           d="m 142.51131,313.2 0,-4"
           inkscape:connector-curvature="0" />
        <text
           id="text4889"
           transform="matrix(1,0,0,-1,134.01913,30.075)">
          <tspan
             id="tspan4891"
             sodipodi:role="line"
             y="0"
             x="0 7.632 11.448"
             style="font-size:12px;font-variant:normal;font-weight:normal;writing-mode:lr-tb;fill:#000000;fill-opacity:1;fill-rule:nonzero;stroke:none;font-family:BitstreamVeraSans;-inkscape-font-specification:BitstreamVeraSans-Roman">1.0</tspan>
        </text>
        <path
           id="path4893"
           style="fill:#000000;fill-opacity:1;fill-rule:nonzero;stroke:#000000;stroke-width:0.5;stroke-linecap:butt;stroke-linejoin:round;stroke-miterlimit:10;stroke-opacity:1;stroke-dasharray:none"
           d="m 247.1945,43.2 0,4"
           inkscape:connector-curvature="0" />
        <path
           id="path4895"
           style="fill:#000000;fill-opacity:1;fill-rule:nonzero;stroke:#000000;stroke-width:0.5;stroke-linecap:butt;stroke-linejoin:round;stroke-miterlimit:10;stroke-opacity:1;stroke-dasharray:none"
           d="m 247.1945,313.2 0,-4"
           inkscape:connector-curvature="0" />
        <text
           id="text4897"
           transform="matrix(1,0,0,-1,238.48357,30.075)">
          <tspan
             id="tspan4899"
             sodipodi:role="line"
             y="0"
             x="0 7.632 11.448"
             style="font-size:12px;font-variant:normal;font-weight:normal;writing-mode:lr-tb;fill:#000000;fill-opacity:1;fill-rule:nonzero;stroke:none;font-family:BitstreamVeraSans;-inkscape-font-specification:BitstreamVeraSans-Roman">2.0</tspan>
        </text>
        <path
           id="path4901"
           style="fill:#000000;fill-opacity:1;fill-rule:nonzero;stroke:#000000;stroke-width:0.5;stroke-linecap:butt;stroke-linejoin:round;stroke-miterlimit:10;stroke-opacity:1;stroke-dasharray:none"
           d="m 351.87769,43.2 0,4"
           inkscape:connector-curvature="0" />
        <path
           id="path4903"
           style="fill:#000000;fill-opacity:1;fill-rule:nonzero;stroke:#000000;stroke-width:0.5;stroke-linecap:butt;stroke-linejoin:round;stroke-miterlimit:10;stroke-opacity:1;stroke-dasharray:none"
           d="m 351.87769,313.2 0,-4"
           inkscape:connector-curvature="0" />
        <text
           id="text4905"
           transform="matrix(1,0,0,-1,343.19019,30.075)">
          <tspan
             id="tspan4907"
             sodipodi:role="line"
             y="0"
             x="0 7.632 11.448"
             style="font-size:12px;font-variant:normal;font-weight:normal;writing-mode:lr-tb;fill:#000000;fill-opacity:1;fill-rule:nonzero;stroke:none;font-family:BitstreamVeraSans;-inkscape-font-specification:BitstreamVeraSans-Roman">3.0</tspan>
        </text>
        <path
           id="path4909"
           style="fill:#000000;fill-opacity:1;fill-rule:nonzero;stroke:#000000;stroke-width:0.5;stroke-linecap:butt;stroke-linejoin:round;stroke-miterlimit:10;stroke-opacity:1;stroke-dasharray:none"
           d="m 456.56088,43.2 0,4"
           inkscape:connector-curvature="0" />
        <path
           id="path4911"
           style="fill:#000000;fill-opacity:1;fill-rule:nonzero;stroke:#000000;stroke-width:0.5;stroke-linecap:butt;stroke-linejoin:round;stroke-miterlimit:10;stroke-opacity:1;stroke-dasharray:none"
           d="m 456.56088,313.2 0,-4"
           inkscape:connector-curvature="0" />
        <text
           id="text4913"
           transform="matrix(1,0,0,-1,447.70932,30.075)">
          <tspan
             id="tspan4915"
             sodipodi:role="line"
             y="0"
             x="0 7.632 11.448"
             style="font-size:12px;font-variant:normal;font-weight:normal;writing-mode:lr-tb;fill:#000000;fill-opacity:1;fill-rule:nonzero;stroke:none;font-family:BitstreamVeraSans;-inkscape-font-specification:BitstreamVeraSans-Roman">4.0</tspan>
        </text>
        <text
           id="text4917"
           transform="matrix(1,0,0,-1,241.11562,13.45)">
          <tspan
             id="tspan4919"
             sodipodi:role="line"
             y="0"
             x="0 8.2200003 15.6 18.936001 23.639999 27.455999 30.792 38.400002 42.216"
             style="font-size:12px;font-variant:normal;font-weight:normal;writing-mode:lr-tb;fill:#000000;fill-opacity:1;fill-rule:nonzero;stroke:none;font-family:BitstreamVeraSans;-inkscape-font-specification:BitstreamVeraSans-Roman">Zeit in h</tspan>
        </text>
        <path
           id="path4921"
           style="fill:#000000;fill-opacity:1;fill-rule:nonzero;stroke:#000000;stroke-width:0.5;stroke-linecap:butt;stroke-linejoin:round;stroke-miterlimit:10;stroke-opacity:1;stroke-dasharray:none"
           d="m 37.828125,43.2 4,0"
           inkscape:connector-curvature="0" />
        <path
           id="path4923"
           style="fill:#000000;fill-opacity:1;fill-rule:nonzero;stroke:#000000;stroke-width:0.5;stroke-linecap:butt;stroke-linejoin:round;stroke-miterlimit:10;stroke-opacity:1;stroke-dasharray:none"
           d="m 493.2,43.2 -4,0"
           inkscape:connector-curvature="0" />
        <text
           id="text4925"
           transform="matrix(1,0,0,-1,27.78125,39.8875)">
          <tspan
             id="tspan4927"
             y="0"
             x="0"
             style="font-size:12px;font-variant:normal;font-weight:normal;writing-mode:lr-tb;fill:#000000;fill-opacity:1;fill-rule:nonzero;stroke:none;font-family:BitstreamVeraSans;-inkscape-font-specification:BitstreamVeraSans-Roman">0</tspan>
        </text>
        <path
           id="path4929"
           style="fill:#000000;fill-opacity:1;fill-rule:nonzero;stroke:#000000;stroke-width:0.5;stroke-linecap:butt;stroke-linejoin:round;stroke-miterlimit:10;stroke-opacity:1;stroke-dasharray:none"
           d="m 37.828125,97.2 4,0"
           inkscape:connector-curvature="0" />
        <path
           id="path4931"
           style="fill:#000000;fill-opacity:1;fill-rule:nonzero;stroke:#000000;stroke-width:0.5;stroke-linecap:butt;stroke-linejoin:round;stroke-miterlimit:10;stroke-opacity:1;stroke-dasharray:none"
           d="m 493.2,97.2 -4,0"
           inkscape:connector-curvature="0" />
        <text
           id="text4933"
           transform="matrix(1,0,0,-1,28.265625,93.8875)">
          <tspan
             id="tspan4935"
             y="0"
             x="0"
             style="font-size:12px;font-variant:normal;font-weight:normal;writing-mode:lr-tb;fill:#000000;fill-opacity:1;fill-rule:nonzero;stroke:none;font-family:BitstreamVeraSans;-inkscape-font-specification:BitstreamVeraSans-Roman">2</tspan>
        </text>
        <path
           id="path4937"
           style="fill:#000000;fill-opacity:1;fill-rule:nonzero;stroke:#000000;stroke-width:0.5;stroke-linecap:butt;stroke-linejoin:round;stroke-miterlimit:10;stroke-opacity:1;stroke-dasharray:none"
           d="m 37.828125,151.2 4,0"
           inkscape:connector-curvature="0" />
        <path
           id="path4939"
           style="fill:#000000;fill-opacity:1;fill-rule:nonzero;stroke:#000000;stroke-width:0.5;stroke-linecap:butt;stroke-linejoin:round;stroke-miterlimit:10;stroke-opacity:1;stroke-dasharray:none"
           d="m 493.2,151.2 -4,0"
           inkscape:connector-curvature="0" />
        <text
           id="text4941"
           transform="matrix(1,0,0,-1,27.453125,147.8875)">
          <tspan
             id="tspan4943"
             y="0"
             x="0"
             style="font-size:12px;font-variant:normal;font-weight:normal;writing-mode:lr-tb;fill:#000000;fill-opacity:1;fill-rule:nonzero;stroke:none;font-family:BitstreamVeraSans;-inkscape-font-specification:BitstreamVeraSans-Roman">4</tspan>
        </text>
        <path
           id="path4945"
           style="fill:#000000;fill-opacity:1;fill-rule:nonzero;stroke:#000000;stroke-width:0.5;stroke-linecap:butt;stroke-linejoin:round;stroke-miterlimit:10;stroke-opacity:1;stroke-dasharray:none"
           d="m 37.828125,205.2 4,0"
           inkscape:connector-curvature="0" />
        <path
           id="path4947"
           style="fill:#000000;fill-opacity:1;fill-rule:nonzero;stroke:#000000;stroke-width:0.5;stroke-linecap:butt;stroke-linejoin:round;stroke-miterlimit:10;stroke-opacity:1;stroke-dasharray:none"
           d="m 493.2,205.2 -4,0"
           inkscape:connector-curvature="0" />
        <text
           id="text4949"
           transform="matrix(1,0,0,-1,27.796875,201.8875)">
          <tspan
             id="tspan4951"
             y="0"
             x="0"
             style="font-size:12px;font-variant:normal;font-weight:normal;writing-mode:lr-tb;fill:#000000;fill-opacity:1;fill-rule:nonzero;stroke:none;font-family:BitstreamVeraSans;-inkscape-font-specification:BitstreamVeraSans-Roman">6</tspan>
        </text>
        <path
           id="path4953"
           style="fill:#000000;fill-opacity:1;fill-rule:nonzero;stroke:#000000;stroke-width:0.5;stroke-linecap:butt;stroke-linejoin:round;stroke-miterlimit:10;stroke-opacity:1;stroke-dasharray:none"
           d="m 37.828125,259.2 4,0"
           inkscape:connector-curvature="0" />
        <path
           id="path4955"
           style="fill:#000000;fill-opacity:1;fill-rule:nonzero;stroke:#000000;stroke-width:0.5;stroke-linecap:butt;stroke-linejoin:round;stroke-miterlimit:10;stroke-opacity:1;stroke-dasharray:none"
           d="m 493.2,259.2 -4,0"
           inkscape:connector-curvature="0" />
        <text
           id="text4957"
           transform="matrix(1,0,0,-1,27.828125,255.8875)">
          <tspan
             id="tspan4959"
             y="0"
             x="0"
             style="font-size:12px;font-variant:normal;font-weight:normal;writing-mode:lr-tb;fill:#000000;fill-opacity:1;fill-rule:nonzero;stroke:none;font-family:BitstreamVeraSans;-inkscape-font-specification:BitstreamVeraSans-Roman">8</tspan>
        </text>
        <path
           id="path4961"
           style="fill:#000000;fill-opacity:1;fill-rule:nonzero;stroke:#000000;stroke-width:0.5;stroke-linecap:butt;stroke-linejoin:round;stroke-miterlimit:10;stroke-opacity:1;stroke-dasharray:none"
           d="m 37.828125,313.2 4,0"
           inkscape:connector-curvature="0" />
        <path
           id="path4963"
           style="fill:#000000;fill-opacity:1;fill-rule:nonzero;stroke:#000000;stroke-width:0.5;stroke-linecap:butt;stroke-linejoin:round;stroke-miterlimit:10;stroke-opacity:1;stroke-dasharray:none"
           d="m 493.2,313.2 -4,0"
           inkscape:connector-curvature="0" />
        <text
           id="text4965"
           transform="matrix(0,1,1,0,19.953125,134.23125)">
          <tspan
             id="tspan4967"
             sodipodi:role="line"
             y="0"
             x="0 6.684 14.064 17.4 23.652 28.356001 35.964001 43.571999 51.192001 55.007999 58.344002 65.952003 69.767998 76.716003"
             style="font-size:12px;font-variant:normal;font-weight:normal;writing-mode:lr-tb;fill:#000000;fill-opacity:1;fill-rule:nonzero;stroke:none;font-family:BitstreamVeraSans;-inkscape-font-specification:BitstreamVeraSans-Roman">Leistung in kW</tspan>
        </text>
        <path
           id="path4969"
           style="fill:#ffffff;fill-opacity:1;fill-rule:nonzero;stroke:#000000;stroke-width:1;stroke-linecap:butt;stroke-linejoin:miter;stroke-miterlimit:10;stroke-opacity:1;stroke-dasharray:none"
           d="m 275.8,280.6 211.4,0 0,26.6 -211.4,0 0,-26.6 z"
           inkscape:connector-curvature="0" />
        <path
           id="path4971"
           style="fill:none;stroke:#0000ff;stroke-width:1;stroke-linecap:square;stroke-linejoin:round;stroke-miterlimit:10;stroke-opacity:1;stroke-dasharray:none"
           d="m 284.2,294.6 16.8,0"
           inkscape:connector-curvature="0" />
        <g
           transform="translate(314.2,290.4)"
           id="g4973">
          <text
             id="text4975"
             transform="matrix(1,0,0,-1,2.984375,3.96875)">
            <tspan
               id="tspan4977"
               y="0"
               x="0"
               style="font-size:12px;font-variant:normal;font-weight:normal;writing-mode:lr-tb;fill:#000000;fill-opacity:1;fill-rule:nonzero;stroke:none;font-family:Cmr10;-inkscape-font-specification:Cmr10"></tspan>
          </text>
          <text
             id="text4979"
             transform="matrix(1,0,0,-1,0,0.703125)">
            <tspan
               id="tspan4981"
               y="0"
               x="0"
               style="font-size:12px;font-variant:normal;font-weight:normal;writing-mode:lr-tb;fill:#000000;fill-opacity:1;fill-rule:nonzero;stroke:none;font-family:Cmmi10;-inkscape-font-specification:Cmmi10">Q</tspan>
          </text>
          <text
             id="text4983"
             transform="matrix(1,0,0,-1,9.4804688,-2.358)">
            <tspan
               id="tspan4985"
               sodipodi:role="line"
               y="0"
               x="0 3.7283204"
               style="font-size:8.39999962px;font-variant:normal;font-weight:normal;writing-mode:lr-tb;fill:#000000;fill-opacity:1;fill-rule:nonzero;stroke:none;font-family:Cmr10;-inkscape-font-specification:Cmr10">ev</tspan>
          </text>
        </g>
        <path
           id="path4987"
           style="fill:none;stroke:#008000;stroke-width:1;stroke-linecap:square;stroke-linejoin:round;stroke-miterlimit:10;stroke-opacity:1;stroke-dasharray:none"
           d="m 359.8,294.6 16.8,0"
           inkscape:connector-curvature="0" />
        <g
           transform="translate(389.8,290.4)"
           id="g4989">
          <text
             id="text4991"
             transform="matrix(1,0,0,-1,2.984375,3.96875)">
            <tspan
               id="tspan4993"
               y="0"
               x="0"
               style="font-size:12px;font-variant:normal;font-weight:normal;writing-mode:lr-tb;fill:#000000;fill-opacity:1;fill-rule:nonzero;stroke:none;font-family:Cmr10;-inkscape-font-specification:Cmr10"></tspan>
          </text>
          <text
             id="text4995"
             transform="matrix(1,0,0,-1,0,0.703125)">
            <tspan
               id="tspan4997"
               y="0"
               x="0"
               style="font-size:12px;font-variant:normal;font-weight:normal;writing-mode:lr-tb;fill:#000000;fill-opacity:1;fill-rule:nonzero;stroke:none;font-family:Cmmi10;-inkscape-font-specification:Cmmi10">Q</tspan>
          </text>
          <text
             id="text4999"
             transform="matrix(1,0,0,-1,9.4804688,-2.358)">
            <tspan
               id="tspan5001"
               sodipodi:role="line"
               y="0"
               x="0 3.7283204"
               style="font-size:8.39999962px;font-variant:normal;font-weight:normal;writing-mode:lr-tb;fill:#000000;fill-opacity:1;fill-rule:nonzero;stroke:none;font-family:Cmr10;-inkscape-font-specification:Cmr10">cd</tspan>
          </text>
        </g>
        <path
           id="path5003"
           style="fill:none;stroke:#ff0000;stroke-width:1;stroke-linecap:square;stroke-linejoin:round;stroke-miterlimit:10;stroke-opacity:1;stroke-dasharray:none"
           d="m 435.4,294.6 16.8,0"
           inkscape:connector-curvature="0" />
        <g
           transform="translate(465.4,290.4)"
           id="g5005">
          <text
             id="text5007"
             transform="matrix(1,0,0,-1,0,0.796875)">
            <tspan
               id="tspan5009"
               y="0"
               x="0"
               style="font-size:12px;font-variant:normal;font-weight:normal;writing-mode:lr-tb;fill:#000000;fill-opacity:1;fill-rule:nonzero;stroke:none;font-family:Cmmi10;-inkscape-font-specification:Cmmi10">P</tspan>
          </text>
          <text
             id="text5011"
             transform="matrix(1,0,0,-1,7.7050781,-2.26425)">
            <tspan
               id="tspan5013"
               sodipodi:role="line"
               y="0"
               x="0 3.7283204"
               style="font-size:8.39999962px;font-variant:normal;font-weight:normal;writing-mode:lr-tb;fill:#000000;fill-opacity:1;fill-rule:nonzero;stroke:none;font-family:Cmr10;-inkscape-font-specification:Cmr10">cp</tspan>
          </text>
        </g>
      </g>
    </g>
    <path
       style="fill:none;stroke:#4d4d4d;stroke-width:2;stroke-linecap:butt;stroke-linejoin:miter;stroke-miterlimit:4;stroke-opacity:1;stroke-dasharray:2, 6;stroke-dashoffset:0"
       d="m 475.78183,708.40527 0,-267.18356 130.30968,0"
       id="path3269"
       inkscape:connector-curvature="0" />
    <path
       style="fill:#4d4d4d;stroke:#4d4d4d;stroke-width:2;stroke-linecap:butt;stroke-linejoin:miter;stroke-miterlimit:4;stroke-opacity:1;stroke-dasharray:2, 6;stroke-dashoffset:0"
       d="m 475.78185,525.30366 129.8046,0"
       id="path3271"
       inkscape:connector-curvature="0" />
    <path
       style="opacity:0.5;fill:#ff0000;stroke:#ff0000;stroke-width:1px;stroke-linecap:butt;stroke-linejoin:miter;stroke-opacity:1"
       d="m 475.27677,441.64027 c 55.60428,6.91193 129.74333,42.20653 129.74333,42.20653 l 0,-41.72139"
       id="path3273"
       inkscape:connector-curvature="0"
       sodipodi:nodetypes="ccc" />
    <path
       style="opacity:0.5;fill:#ff0000;stroke:#ff0000;stroke-width:0.99999994px;stroke-linecap:butt;stroke-linejoin:miter;stroke-opacity:1"
       d="m 474.77169,525.4414 c 41.41625,0.99342 129.8046,35.76324 129.8046,35.76324 l 0,-35.26653"
       id="path3277"
       inkscape:connector-curvature="0"
       sodipodi:nodetypes="ccc" />
  </g>
</svg>
