<?xml version="1.0" encoding="UTF-8" standalone="no"?>
<!-- Created with Inkscape (http://www.inkscape.org/) -->

<svg
   xmlns:dc="http://purl.org/dc/elements/1.1/"
   xmlns:cc="http://creativecommons.org/ns#"
   xmlns:rdf="http://www.w3.org/1999/02/22-rdf-syntax-ns#"
   xmlns:svg="http://www.w3.org/2000/svg"
   xmlns="http://www.w3.org/2000/svg"
   xmlns:sodipodi="http://sodipodi.sourceforge.net/DTD/sodipodi-0.dtd"
   xmlns:inkscape="http://www.inkscape.org/namespaces/inkscape"
   width="744.09448819"
   height="1052.3622047"
   id="svg2"
   version="1.1"
   inkscape:version="0.48.2 r9819"
   sodipodi:docname="New document 1">
  <defs
     id="defs4">
    <clipPath
       id="clipPath3023"
       clipPathUnits="userSpaceOnUse">
      <path
         id="path3025"
         d="m 37.828125,43.2 455.371875,0 0,306 -455.371875,0 0,-306 z" />
    </clipPath>
    <clipPath
       id="clipPath3013"
       clipPathUnits="userSpaceOnUse">
      <path
         id="path3015"
         d="m 37.828125,43.2 455.371875,0 0,306 -455.371875,0 0,-306 z" />
    </clipPath>
    <clipPath
       id="clipPath3003"
       clipPathUnits="userSpaceOnUse">
      <path
         id="path3005"
         d="m 37.828125,43.2 455.371875,0 0,306 -455.371875,0 0,-306 z" />
    </clipPath>
  </defs>
  <sodipodi:namedview
     id="base"
     pagecolor="#ffffff"
     bordercolor="#666666"
     borderopacity="1.0"
     inkscape:pageopacity="0.0"
     inkscape:pageshadow="2"
     inkscape:zoom="1.979899"
     inkscape:cx="359.26454"
     inkscape:cy="546.62204"
     inkscape:document-units="px"
     inkscape:current-layer="layer1"
     showgrid="false"
     inkscape:window-width="1920"
     inkscape:window-height="1017"
     inkscape:window-x="-8"
     inkscape:window-y="-8"
     inkscape:window-maximized="1" />
  <metadata
     id="metadata7">
    <rdf:RDF>
      <cc:Work
         rdf:about="">
        <dc:format>image/svg+xml</dc:format>
        <dc:type
           rdf:resource="http://purl.org/dc/dcmitype/StillImage" />
        <dc:title></dc:title>
      </cc:Work>
    </rdf:RDF>
  </metadata>
  <g
     inkscape:label="Layer 1"
     inkscape:groupmode="layer"
     id="layer1">
    <g
       transform="matrix(1.25,0,0,-1.25,36.428571,763.07647)"
       inkscape:label="Qdots_lastCycle"
       id="g2993">
      <path
         id="path2995"
         style="fill:#ffffff;fill-opacity:1;fill-rule:nonzero;stroke:none"
         d="M 0,0 504,0 504,360 0,360 0,0 z"
         inkscape:connector-curvature="0" />
      <path
         id="path2997"
         style="fill:#ffffff;fill-opacity:1;fill-rule:nonzero;stroke:none"
         d="m 37.828125,43.2 455.371875,0 0,306 -455.371875,0 0,-306 z"
         inkscape:connector-curvature="0" />
      <g
         id="g2999">
        <g
           clip-path="url(#clipPath3003)"
           id="g3001">
          <path
             id="path3007"
             style="fill:none;stroke:#0000ff;stroke-width:1;stroke-linecap:square;stroke-linejoin:round;stroke-miterlimit:10;stroke-opacity:1;stroke-dasharray:none"
             d="m 69.877707,-1 0.227735,35.815668 0.290786,17.953277 0.581574,18.752815 0.290786,2.791157 0.290787,4.008089 0.581573,45.412254 0.290787,7.82531 0.290787,4.31655 0.290786,-1.0094 0.290787,1.67538 0.290786,-2.23802 0.290787,17.98055 0.290787,5.00024 0.290786,2.17265 0.290787,-0.99302 0.290787,-2.64242 0.290786,-3.87461 0.290787,0.25289 0.290787,3.50609 0.290786,1.245 0.581573,8.66032 0.581574,8.26536 0.290786,8.033 0.581574,23.00507 0.87236,12.47558 0.290786,0.0397 0.290787,3.07358 0.290786,9.14012 0.290787,0.22274 0.290787,-2.39565 0.290786,1.53839 0.290787,0.67495 0.581573,-17.27203 0.581574,-33.32442 0.290786,-5.68315 0.290787,-1.09352 1.74472,53.57543 0.581573,4.95332 0.290787,-6.357 0.290786,-0.70407 0.290787,-5.31059 0.290787,0.93871 0.290786,2.15737 0.87236,20.85078 0.290787,1.42349 0.290786,-0.0146 0.290787,-4.6086 0.581573,-17.75532 0.581574,-24.91066 0.290786,-8.52453 0.290787,-1.38282 0.581573,12.28529 0.290787,19.35385 0.581573,25.51908 0.290787,0.71289 0.290786,-0.49738 0.87236,-31.00951 0.290787,-3.67728 0.290786,1.24316 1.163147,24.35847 0.290787,0.32644 0.581573,-4.15265 0.581573,-3.4358 0.290787,-0.81025 0.290786,1.78244 0.290787,-2.43397 0.290787,1.49738 0.290786,-1.88958 0.290787,2.35812 0.581573,-2.72686 0.290787,-5.11489 0.290787,0.2178 0.290786,1.37836 0.290787,-0.28025 0.290791,-4.85337 0.29078,2.68305 0.29079,-9.04074 0.29079,9.44104 0.29078,-5.92967 0.29079,4.97095 0.29079,-0.59678 0.87236,-3.92649 0.29078,4.37421 0.29079,1.84882 0.29079,-1.49524 0.29078,4.9351 0.29079,-0.32719 0.29079,2.90523 0.29078,-2.80124 0.29079,1.58852 0.29079,-0.14838 0.29078,1.84547 0.29079,-3.86675 0.29078,2.25913 0.29079,-1.24196 0.29079,-0.13928 0.29078,0.92895 0.29079,-1.34233 0.29079,3.29173 0.29078,-3.22191 0.29079,-1.57389 0.29079,2.20809 0.29078,-2.24515 0.29079,2.85404 0.29079,-3.68695 0.29078,2.80304 0.29079,-2.77327 0.29079,2.70254 0.29078,-3.94054 0.29079,3.88508 0.29079,1.00539 0.29078,-4.67429 0.29079,1.96113 0.29079,-2.34713 0.29078,0.94303 0.29079,0.004 0.29079,-0.55739 0.29078,1.98481 0.29079,-3.47223 0.29079,3.87999 0.29078,-2.52366 0.29079,4.44689 0.29079,-3.33434 0.29078,0.49349 0.29079,1.63522 0.29079,-2.42476 0.29078,2.37682 0.29079,-4.70373 0.29079,6.58617 0.29078,-3.45936 0.29079,0.81489 0.29079,-0.95656 0.29078,1.69901 0.29079,0.75833 0.29079,-1.99626 0.29078,5.53245 0.29079,-6.13369 0.29079,2.08383 0.29078,0.75019 0.29079,-0.6134 0.29079,1.3473 0.29078,-1.99815 0.29079,3.1332 0.29079,-3.96063 0.58157,1.83694 0.29079,-3.85996 0.29078,3.45883 0.29079,-3.43811 0.29079,1.45703 0.29078,-4.02324 0.29079,6.29097 0.29079,0.26426 0.29078,-2.9255 0.29079,4.25578 0.29079,-4.40745 0.29078,6.10118 0.29079,-6.96643 0.29079,2.58461 0.29078,3.97775 0.29079,-3.6777 0.29079,1.57711 0.29078,-4.77024 0.29079,6.86782 0.29079,-4.73461 0.29078,3.14005 0.29079,-3.54328 0.29079,3.33884 0.29078,0.82297 0.29079,-5.71633 0.29079,7.63232 0.29078,-8.97223 0.29079,5.98255 0.29079,-0.44558 0.29078,0.27804 0.29079,-0.19386 0.29079,-0.57542 0.29078,2.37351 0.29079,-3.51876 0.29079,3.22241 0.29078,-2.96858 0.29079,1.65322 0.29079,-0.77103 0.29078,-1.12232 0.29079,2.69515 0.29079,-4.33596 0.29078,4.0836 0.29079,-4.81167 0.58157,5.00944 0.29079,-4.81088 0.29079,5.21261 0.29078,-5.84234 0.29079,4.48155 0.29079,0.64161 0.29078,-0.85925 0.29079,1.897 0.29079,-4.92748 0.29078,6.26708 0.29079,-5.17078 0.29079,4.09698 0.29078,-6.43485 0.58158,7.66232 0.29078,-4.22649 0.29079,1.38856 0.29078,-5.90118 0.29079,8.2555 0.29079,-4.93922 0.58157,1.36264 0.29079,-1.9212 0.29078,5.42006 0.29079,-4.6095 0.29079,2.48012 0.29078,-2.15028 0.29079,-0.62839 0.29079,2.87198 0.29078,-4.11513 0.29079,5.6442 0.58157,-4.16541 0.29079,-0.81768 0.29079,3.54593 0.29078,-2.77363 0.29079,0.16607 0.29079,3.60658 0.29078,-6.35604 0.29079,6.38964 0.29079,-3.54627 0.29078,-0.77668 0.29079,2.77115 0.29079,-2.67295 0.29078,3.4382 0.29079,-1.41831 0.29079,1.94286 0.29078,-3.98238 0.29079,4.47343 0.29079,-1.96734 0.29078,-0.4765 0.29079,3.66517 0.29079,-7.05089 0.29078,6.3514 0.29079,-2.48386 0.29079,0.92397 0.29078,-2.60647 0.29079,-1.33675 0.29079,4.1563 0.29078,0.10416 0.29079,-0.41172 0.29079,-4.39192 0.29078,4.48699 0.29079,0.7534 0.29079,-4.4594 0.29078,4.54299 0.29079,-3.36727 0.29079,2.97497 0.58157,-1.40122 0.29079,1.95463 0.29078,-2.46036 0.29079,1.81968 0.29079,-2.86384 0.29078,4.01459 0.29079,-4.31702 0.58157,2.81121 0.58158,1.60559 0.29078,-4.45816 0.29079,3.23846 0.29079,-2.67116 0.29078,2.3479 0.29079,-2.31506 0.29079,2.1373 0.29078,-0.96264 0.29079,-1.52704 0.29079,4.44114 0.29078,-4.72326 0.29079,4.79371 0.29079,-3.67876 0.29078,1.15915 0.29079,-0.44176 0.29079,-1.4761 0.29078,4.86923 0.29079,-6.09002 0.29079,5.19748 0.29078,-2.97725 0.29079,1.41527 0.29079,-0.58238 0.29078,-1.68058 0.29079,4.10912 0.29079,-5.54551 0.29078,2.83017 0.29079,0.73338 0.29079,-0.89733 0.29078,3.95164 0.29079,-6.87729 0.29079,2.43307 0.29078,3.60636 0.29079,-1.68667 0.29079,0.54348 0.29078,-2.58408 0.29079,0.69491 0.29079,-1.02463 0.29078,2.7891 0.29079,-4.64594 0.29079,5.82176 0.29078,-4.78805 0.58158,2.96879 0.29078,-3.93032 0.29079,3.36137 0.29079,-3.95715 0.58157,4.6805 0.29079,-4.30417 0.29078,6.12271 0.29079,-2.76396 0.29079,2.04484 0.29078,0.59091 0.29079,0.10872 0.29078,-3.59165 0.29079,3.37862 0.29079,0.95775 0.29078,-7.86176 0.29079,6.233 0.29079,-3.49481 0.29078,3.39168 0.29079,-1.10049 0.29079,-3.04452 0.29078,1.87186 0.29079,-2.39567 0.29079,4.95561 0.29078,-5.73846 0.29079,5.08108 0.29079,-0.017 0.29078,-0.59155 0.58158,-3.77362 0.29078,4.92666 0.29079,-1.67196 0.29079,1.88474 0.29078,-4.22449 0.29079,0.49791 0.29079,3.65201 0.29078,-3.29204 0.29079,3.68643 0.29079,-3.77588 0.29078,1.38321 0.29079,-2.2069 0.29079,0.85976 0.58157,-2.24635 0.29079,6.74378 0.29078,-3.92808 0.29079,3.00527 0.29079,-2.32339 0.29078,-0.91376 0.29079,0.97229 0.29079,-2.53491 0.29078,6.56119 0.29079,-7.85957 0.29079,4.85662 0.29078,-2.0924 0.29079,-0.42383 0.29079,3.83454 0.29078,-4.92388 0.29079,4.35872 0.29079,-4.93718 0.29078,5.75691 0.29079,-3.91514 0.29079,1.60227 0.29078,0.47714 0.29079,-5.38802 0.29079,7.42359 0.29078,-3.00861 0.29079,-0.84075 0.29079,0.0143 0.29078,1.7914 0.29079,0.8692 0.29079,-2.26731 0.29078,2.16848 0.29079,-2.53992 0.29079,-0.3996 0.29078,-1.71483 0.29079,3.72718 0.29079,-2.09836 0.29078,-3.01352 0.29079,4.93888 0.29079,-2.46931 0.29078,3.90387 0.58158,-4.80471 0.29078,3.70837 0.29079,-1.85717 0.29079,1.25403 0.29078,-2.10009 0.29079,4.6681 0.29079,-2.77447 0.29078,-1.46268 0.29079,2.69342 0.29079,-6.89785 0.29078,6.59689 0.29079,-2.46414 0.29079,1.71964 0.29078,0.29679 0.29079,-2.3683 0.29079,0.24935 0.29078,-1.35372 0.29079,4.58031 0.29079,-3.25032 0.29078,0.36009 0.29079,-1.05206 0.29079,2.45713 0.58157,-4.71322 0.29079,6.26769 0.29078,-3.43487 0.29079,2.24233 0.58157,-2.05997 0.29079,0.54595 0.29079,-0.36005 0.29078,2.18769 0.29079,-3.11932 0.29079,2.67181 0.29078,-0.68432 0.29079,0.53068 0.29079,-0.0491 0.29078,-2.45969 0.29079,3.775 0.29079,-4.31742 0.29078,4.36774 0.29079,-5.55994 0.29079,4.68491 0.58157,-3.29205 0.29078,5.44613 0.29079,-9.87735 0.29079,8.3755 0.29078,-0.34528 0.29079,-2.77753 0.29079,2.89706 0.29078,-3.6717 0.29079,3.19169 0.29079,-2.43659 0.29078,2.9493 0.29079,-1.90228 0.29079,1.97751 0.29078,-2.26 0.29079,-0.0703 0.29079,3.55696 0.29078,-2.13666 0.29079,-0.48601 0.29079,-3.85815 0.29078,2.298 0.29079,-0.84639 0.29079,1.54316 0.29078,3.73668 0.29079,-5.10048 0.29079,1.23053 0.29078,-1.34909 0.29079,-0.29111 0.29079,3.70831 0.29078,-3.98823 0.29079,2.63278 0.29079,-2.46036 0.29078,2.90529 0.29079,-4.66537 0.29079,4.57572 0.29078,1.0134 0.29079,-4.11287 0.29079,4.1538 0.29078,-5.38267 0.29079,3.74581 0.58157,1.08745 0.29079,2.48788 0.29079,-9.77625 0.29078,8.30069 0.29079,-5.63817 0.29079,4.38047 0.29078,-2.31716 0.29079,-0.82919 0.29079,4.83216 0.29078,-6.41649 0.29079,4.8396 0.29079,-4.3321 0.29078,1.67988 0.29079,0.10454 0.29079,0.50376 0.29078,-0.89083 0.29079,0.0725 0.29079,3.4233 0.29078,-5.03496 0.29079,3.93272 0.29079,-3.55148 0.29078,1.4586 0.29079,0.2867 0.29079,-5.33754 0.29078,10.99346 0.29079,-9.23392 0.29079,5.34105 0.29078,-2.1043 0.29079,-0.18532 0.29079,4.0611 0.29078,-6.34297 0.29079,4.63141 0.29079,-6.84951 0.29078,6.06173 0.29079,-5.33182 0.29079,4.74639 0.29078,1.8541 0.29079,-2.67665 0.29079,1.01856 0.29078,-1.61587 0.29079,-0.76688 0.29079,0.35457 0.58157,5.29013 0.29079,-4.62937 0.29078,4.07526 0.29079,-4.59104 0.29079,1.2872 0.29078,-1.43412 0.29079,-0.13423 0.87236,2.2467 0.29079,-4.41949 0.29078,6.63314 0.29079,-2.60393 0.29079,-0.0825 0.29078,0.24072 0.29079,-3.50347 0.29079,5.78643 0.29078,-6.98044 0.29079,2.25789 0.29079,0.84564 0.29078,1.41776 0.29079,0.38368 0.29079,-1.14797 0.58157,0.71212 0.29079,0.20207 0.29078,-3.64948 0.58158,2.73432 0.29078,-5.45383 0.29079,6.73957 0.29079,-4.74277 0.29078,4.8071 0.29079,-2.19543 0.29078,-1.10236 0.29079,2.99082 0.29079,-3.9213 0.29078,2.32577 0.29079,-1.39212 0.29079,5.08163 0.29078,-4.03515 0.29079,-2.09212 0.29079,1.52774 0.29078,-1.73989 0.29079,4.57558 0.29079,-5.58215 0.29078,6.61569 0.29079,-4.1298 0.29079,2.89155 0.29078,-1.94381 0.29079,1.98415 0.29079,-0.0309 0.29078,-1.87103 0.29079,2.98654 0.29079,-2.9347 0.29078,2.11776 0.29079,-4.60877 0.29079,-1.02579 0.29078,3.53248 0.29079,-1.26797 0.29079,3.26789 0.29078,-3.28138 0.58158,2.21469 0.29078,-1.36169 0.29079,3.82683 0.29079,-6.3878 0.29078,5.56866 0.29079,-3.43463 0.29079,0.90837 0.29078,-0.75876 0.29079,-1.58251 0.29079,3.46009 0.29078,-3.6753 0.29079,5.55232 0.29079,-1.80839 0.29078,-3.29436 0.29079,4.39528 0.29079,-4.4056 0.29078,5.84855 0.29079,-7.21178 0.29079,3.27692 0.29078,-2.45524 0.29079,2.29544 0.29079,0.40157 0.29078,-3.75025 0.29079,6.6665 0.29079,-7.17268 0.29078,4.70978 0.29079,-1.11984 0.29079,1.98648 0.29078,-0.20311 0.29079,-3.93152 0.29079,3.63197 0.29078,-5.1139 0.29079,8.90337 0.29079,-7.17065 0.58157,2.38808 0.29079,-0.20129 0.29078,0.27223 0.29079,-2.45319 0.29079,4.63776 0.29078,-4.94203 0.58158,2.83037 0.29078,-4.21106 0.29079,7.44569 0.29079,-9.20511 0.29078,8.63873 0.29079,-6.35559 0.29079,3.09473 0.58157,-0.5987 0.29079,2.29018 0.29078,-4.29855 0.29079,1.48188 0.29079,-0.27397 0.29078,2.64437 0.29079,-0.0678 0.29079,-2.82916 0.29078,2.44514 0.29079,-3.47434 0.29079,3.81462 0.29078,0.11304 0.29079,-1.76887 0.29079,-0.0654 0.29078,-1.92502 0.29079,3.86404 0.29079,-5.98389 0.29078,4.95725 0.29079,-2.62043 0.29079,1.08551 0.29078,-0.89476 0.29079,-1.87019 0.29079,2.8733 0.29078,-2.72738 0.29079,2.84076 0.29079,1.67894 0.29078,-0.744 0.29079,-3.66697 0.58157,5.65991 0.29079,-5.42715 0.29079,3.95546 0.29078,-4.36746 0.29079,2.98157 0.29079,0.46501 0.29078,-2.74929 0.29079,3.77436 0.29078,-4.46031 0.29079,4.41838 0.29079,-3.95978 0.29078,1.02659 0.29079,-1.1785 0.29079,0.85775 0.29078,1.67516 0.29079,-3.59504 0.29079,2.68937 0.29078,-2.91936 0.29079,3.35905 0.29079,-2.18726 0.29078,-0.19185 0.29079,4.38358 0.29079,-3.41547 0.29078,1.238 0.29079,-1.06897 0.29079,1.33082 0.29078,-0.53354 0.29079,-0.7763 0.29079,4.75003 0.29078,-4.13647 0.29079,3.67292 0.29079,-4.84291 0.29078,3.10309 0.29079,-1.88821 0.29079,0.12223 0.29078,5.3661 0.29079,-4.72804 0.29079,2.07516 0.29078,-2.52524 0.29079,-0.1104 0.29079,-0.89856 0.29078,0.40482 0.29079,-1.13529 0.58157,1.94737 0.29079,-3.87316 0.29079,3.96368 0.29078,-0.96975 0.29079,-1.84592 0.29079,3.36445 0.29078,-2.11164 0.58158,1.84739 0.29078,-2.90565 0.29079,3.03602 0.29079,-2.24399 0.29078,0.48513 0.29079,-2.25179 0.29079,2.24336 0.29078,-3.79432 0.29079,5.2501 0.29079,0.31428 0.29078,-3.5523 0.29079,5.58856 0.29079,-4.5171 0.29078,0.9134 0.29079,-1.65341 0.29079,0.23294 0.29078,5.20725 0.29079,-5.91691 0.29079,4.6389 0.29078,-3.37243 0.29079,0.12536 0.29079,-0.25631 0.29078,2.88767 0.29079,-0.7857 0.29079,-5.64549 0.29078,8.11227 0.29079,-5.71441 0.29079,4.62634 0.29078,-3.50097 0.29079,1.18157 0.29079,2.07913 0.29078,-3.02623 0.29079,1.07159 0.29079,0.14399 0.29078,1.4139 0.29079,-2.90443 0.29079,0.40814 0.29078,-0.70926 0.29079,0.53406 0.29079,0.94035 0.29078,-3.54919 0.29079,5.29863 0.29079,-4.58231 0.29078,2.31931 0.29079,0.93401 0.29079,-2.73362 0.29078,1.50846 0.29079,-2.51372 0.29079,3.57498 0.29078,-0.95683 0.29079,0.73666 0.29079,1.22423 0.29078,-7.21634 0.29079,7.87262 0.29079,-5.51608 0.29078,2.54678 0.29079,-1.58886 0.29079,0.3509 0.29078,1.54364 0.29079,-0.28843 0.29079,2.34785 0.29078,-6.37602 0.29079,4.67568 0.29079,-2.61001 0.58157,2.48947 0.29079,-3.25499 0.29078,6.0602 0.29079,-6.67523 0.29079,4.80266 0.29078,-3.91895 0.29079,1.0383 0.29078,2.05345 0.29079,-1.47784 0.29079,1.08079 0.29078,-5.20262 0.29079,4.85255 0.58157,-2.68125 0.29079,0.83224 0.29079,-1.75992 0.29078,4.36428 0.29079,-6.04744 0.29079,7.19696 0.29078,-4.3259 0.29079,2.45796 0.29079,-4.15352 0.58157,2.7988 0.29079,-0.33265 0.29078,1.03515 0.29079,-1.83693 0.29079,2.49175 0.29078,-2.24297 0.29079,0.0111 0.29079,0.89389 0.29078,-3.69737 0.29079,6.43916 0.58157,-5.30447 0.29079,1.00873 0.29079,-0.77605 0.29078,3.42143 0.29079,-4.22958 0.29079,4.29392 0.29078,-3.28415 0.29079,0.0989 0.29079,3.42394 0.29078,-2.74393 0.29079,1.50627 0.29079,-1.58872 0.29078,1.51644 0.29079,-2.66527 0.29079,-0.31893 0.29078,2.53935 0.29079,-2.13149 0.29079,3.79699 0.29078,-5.84207 0.29079,3.6148 0.29079,-0.35308 0.29078,-1.55755 0.29079,1.02865 0.29079,-0.4069 0.29078,5.33169 0.29079,-5.15679 0.29079,5.34133 0.29078,-2.53441 0.29079,-3.7998 0.29079,4.29306 0.29078,-4.24685 0.29079,2.63517 0.29079,-4.55126 0.29078,7.32961 0.58158,-5.88315 0.29078,4.72454 0.29079,-2.29192 0.29079,3.77763 0.29078,-7.71567 0.29079,4.09138 0.29079,-2.44618 0.29078,2.30579 0.29079,-3.48219 0.29079,0.40895 0.29078,3.84755 0.29079,-2.76898 0.29079,1.54753 0.29078,-1.78874 0.58158,2.93074 0.29078,-2.61079 0.29079,3.40193 0.29079,-2.7235 0.29078,-0.3316 0.29079,-1.84285 0.29079,0.58101 0.29078,2.22869 0.29079,-5.46837 0.29079,9.41697 0.29078,-6.42627 0.29079,2.20443 0.29079,-1.90941 0.29078,1.03714 0.29079,-0.58943 0.29079,-2.22919 0.29078,3.80979 0.29079,-0.60963 0.29079,1.15548 0.29078,-5.75138 0.29079,4.83679 0.29079,-0.48952 0.29078,-3.53756 0.29079,3.31378 0.29079,-0.99111 0.29078,-1.46637 0.29079,1.13629 0.29079,0.68498 0.29078,3.59247 0.29079,-8.0671 0.29079,5.66097 0.29078,-1.31591 0.29079,3.07137 0.29079,-2.03188 0.29078,-4.02353 0.29079,6.10973 0.29079,-6.78753 0.29078,5.48097 0.29079,-3.42926 0.29078,1.31666 0.29079,2.80917 0.29079,-3.41002 0.29078,-0.32806 0.29079,-3.25395 0.29079,5.0381 0.29078,-2.58893 0.29079,3.6247 0.29079,-1.60737 0.29078,-3.46692 0.29079,4.87367 0.29079,-1.99775 0.29078,0.61308 0.29079,-2.65441 0.29079,2.55236 0.29078,-0.191 0.29079,-2.83488 0.29079,0.10763 0.29078,-0.54363 0.29079,1.68893 0.29079,-3.34366 0.29078,5.15592 0.29079,-1.55814 0.58157,0.007 0.29079,-1.44842 0.29079,-0.1444 0.29078,-1.60173 0.29079,3.61023 0.29079,-0.8892 0.29078,0.0264 0.29079,-0.92708 0.29079,-5.6311 0.29078,8.25995 0.29079,-3.01376 0.29079,-0.14955 0.29078,-1.28358 0.29079,0.87033 0.29079,3.20294 0.29078,-6.20308 0.29079,5.74824 0.29079,-4.34416 0.29078,6.13819 0.29079,-1.67804 0.29079,-2.55923 0.29078,2.2476 0.29079,-4.73571 0.29079,3.40753 0.29078,-1.54762 0.29079,2.31753 0.29079,-3.80063 0.29078,2.65126 0.29079,1.55171 0.29079,-4.81711 0.29078,3.55781 0.29079,-1.24683 0.29079,0.89769 0.29078,-1.93061 0.29079,-3.58259 0.29079,6.14951 0.29078,-3.728 0.29079,3.70419 0.29079,-3.47923 0.29078,1.80723 0.29079,-0.92218 0.29079,-0.49837 0.29078,1.9907 0.29079,-2.38984 0.29079,3.86798 0.29078,-6.67476 0.29079,6.61192 0.29079,-5.48641 0.29078,5.48318 0.29079,0.77606 0.29079,-6.6252 0.29078,4.6793 0.29079,-4.5866 0.29079,2.60546 0.29078,-0.0234 0.29079,-1.40034 0.29079,3.5026 0.29078,-3.66601 0.29079,4.12125 0.29079,-3.71963 0.29078,3.41788 0.29079,-2.87732 0.29079,0.69086 0.29078,0.11131 0.29079,-5.27908 0.29079,7.10557 0.29078,-7.44714 0.29079,5.40258 0.29079,0.82769 0.29078,-1.31227 0.29079,0.6071 0.29079,-1.33378 0.29078,2.1689 0.29079,-5.3344 0.29079,5.49285 0.58157,-4.06214 0.29079,3.7544 0.29078,-3.11085 0.29079,1.09287 0.29079,-3.848 0.29078,3.62399 0.29079,0.30462 0.29079,0.6191 0.29078,1.60391 0.29079,-5.75732 0.29079,2.88236 0.29078,-2.39115 0.29079,-0.25639 0.29079,2.41572 0.29078,-0.1734 0.29079,2.06002 0.29079,-4.28563 0.29078,4.64834 0.29079,-2.49362 0.29078,1.26206 0.29079,-1.71207 0.29079,1.29162 0.58157,-1.15576 0.29079,0.77079 0.29078,-4.49104 0.29079,4.14925 0.29079,-4.13904 0.29078,1.918 0.29079,3.38117 0.29079,-4.10081 0.29078,4.7102 0.29079,-3.7698 0.29079,-0.8354 0.29078,0.11133 0.29079,-2.45909 0.29079,6.23019 0.29078,-4.25165 0.29079,4.24714 0.29079,-3.60365 0.29078,1.8017 0.29079,-5.78203 0.58157,8.02315 0.29079,-5.08329 0.29079,1.12572 0.29078,-1.8024 0.29079,5.33665 0.29079,-6.72302 0.29078,1.12389 0.29079,4.34968 0.29079,-1.11244 0.29078,1.05564 0.29079,-6.10458 0.29079,4.54366 0.29078,-4.22532 0.58158,2.90528 0.29078,-2.21985 0.29079,4.30554 0.29079,-5.02126 0.29078,1.35731 0.29079,0.63814 0.29079,-1.08469 0.29078,4.04058 0.29079,-3.27263 0.29079,5.35087 0.29078,-4.24908 0.29079,-0.50551 0.29079,1.61759 0.29078,-4.49553 0.29079,4.58449 0.29079,-4.84723 0.29078,1.31299 0.29079,2.3549 0.29079,-1.47777 0.29078,2.40394 0.29079,-1.88496 0.29079,2.6747 0.29078,-5.21179 0.29079,4.49515 0.29079,-4.36289 0.29078,1.9073 0.29079,3.36072 0.29079,-4.35549 0.29078,-1.8e-4 0.29079,-0.71186 0.29079,4.26458 0.29078,-3.57494 0.29079,1.38925 0.29079,-0.42158 0.29078,-1.04288 0.29079,1.60352 0.29079,-1.43068 0.29078,3.15879 0.29079,-3.54224 0.29079,-0.33091 0.29078,1.90101 0.29079,-3.12274 0.29079,0.14288 0.29078,-0.21102 0.29079,1.20381 0.29079,-0.46362 0.29078,3.68709 0.29079,-3.42126 0.29079,-0.17936 0.29078,1.50485 0.29079,-3.75239 0.58157,3.92419 0.29079,-0.81092 0.29079,-1.56498 0.29078,-4.18277 0.29079,7.90145 0.29079,-2.46521 0.29078,3.0423 0.29079,-5.93847 0.29079,2.132 0.29078,-2.48662 0.29079,1.1171 0.29079,3.59253 0.29078,-3.05699 0.29079,-1.06957 0.58157,0.86143 0.29079,-1.41297 0.58157,0.30839 0.58158,1.72046 0.29078,-1.92196 0.58157,1.95918 0.29079,-2.44318 0.29079,1.32434 0.29078,-1.08086 0.29079,4.22809 0.29079,-4.37584 0.29078,-0.58876 0.29079,1.13702 0.29079,-2.15949 0.29078,7.02633 0.29079,-8.60331 0.29079,2.73408 0.29078,0.0323 0.29079,-0.53646 0.29079,1.47269 0.29078,0.38816 0.29079,2.07742 0.29079,-3.95859 0.29078,3.76143 0.58158,-5.82775 0.29078,2.51213 0.29079,-3.29725 0.29079,4.59528 0.29078,-3.05661 0.29079,0.77254 0.29079,-0.70117 0.29078,-2.26906 0.29079,2.88574 0.29079,-0.70273 0.29078,1.0532 0.29079,-3.7448 0.29079,5.16961 0.29078,-4.24106 0.29079,0.0194 0.29079,0.35549 0.29078,-3.6117 0.29079,6.26272 0.29079,-0.88028 0.29078,0.39892 0.29079,-4.32866 0.29079,3.0856 0.29078,0.54642 0.29079,-2.04996 0.29079,0.82853 0.29078,-0.0887 0.29079,-1.35596 0.29079,0.61727 0.29078,1.26453 0.58158,-3.19076 0.29078,2.93516 0.29079,-2.23554 0.29079,0.58935 0.29078,-3.28182 0.29079,4.13843 0.29079,0.96919 0.29078,-1.9747 0.29079,2.25911 0.29079,-3.00402 0.29078,1.48149 0.29079,-1.8257 0.29079,0.95976 0.29078,1.69901 0.29079,-6.71997 0.29079,4.52116 0.58157,3.10171 0.29079,-4.79455 0.29078,0.2921 0.29079,1.62869 0.29079,-0.15699 0.29078,1.70929 0.29079,-3.52433 0.29079,1.9001 0.29078,-5.05191 0.29079,2.54766 0.29079,3.58813 0.29078,-8.14335 0.29079,6.22895 0.29079,-2.68149 0.29078,4.36829 0.29079,-3.42496 0.29079,-2.02215 0.29078,3.36454 0.29079,-5.22435 0.29079,5.71985 0.29078,-5.35527 0.29079,3.86243 0.29079,-0.70061 0.29078,-1.31168 0.29079,4.80383 0.29079,-9.47641 0.29078,4.61128 0.29079,0.15337 0.29079,-2.25416 0.29078,-1.19791 0.29079,1.2266 0.29079,3.39282 0.29078,-7.13863 0.29079,5.5005 0.29079,-4.19381 0.29078,6.39947 0.29079,-3.06362 0.29079,0.23161 0.29078,2.26396 0.29079,-6.52192 0.29079,5.73076 0.29078,-3.36624 0.29079,3.34102 0.29079,-4.37759 0.29078,0.2155 0.29079,3.27008 0.58157,-4.09981 0.29079,-0.35664 0.29078,5.07127 0.29079,-5.25836 0.29079,1.42576 0.29078,2.09505 0.29079,-3.37152 0.29079,3.87425 0.29078,-4.67276 0.29079,1.67383 0.29079,0.29476 0.29078,-1.84018 0.29079,3.22006 0.29079,-3.3388 0.29078,1.9339 0.29079,-2.8584 0.29079,5.20039 0.58157,-9.76587 0.29079,7.90394 0.29078,-1.09482 0.58158,-5.38088 0.29078,6.64258 0.29079,2.58048 0.58157,-10.72867 0.29079,3.27293 0.29079,8.88322 0.29078,-7.88969 0.29079,-0.73381 0.29079,-4.00469 0.29078,4.27682 0.29079,6.23583 0.29079,-12.3726 0.29078,4.82021 0.29079,0.23263 0.29079,8.58656 0.29078,-10.4006 0.29079,-1.84218 0.29079,2.78363 0.29078,5.78052 0.29079,-0.54768 0.29079,-8.66493 0.58157,5.0136 0.29079,5.15213 L 455.85226,-1 m 36.02825,0 0.44713,28.364846 0.87236,22.311558 0,0"
             inkscape:connector-curvature="0" />
        </g>
      </g>
      <g
         id="g3009">
        <g
           clip-path="url(#clipPath3013)"
           id="g3011">
          <path
             id="path3017"
             style="fill:none;stroke:#008000;stroke-width:1;stroke-linecap:square;stroke-linejoin:round;stroke-miterlimit:10;stroke-opacity:1;stroke-dasharray:none"
             d="m 37.828125,51.100522 0.290787,-2.657932 0.290786,2.094333 0.290787,0.580344 0.290787,3.08594 0.290786,5.19414 0.87236,-13.941021 0.290787,-1.323033 0.290786,-4.224641 0.290787,-0.876696 0.290787,5.470309 0.290786,-6.439469 0.581574,4.469033 0.581573,-9.461605 0.290786,1.329709 0.290787,3.39721 0.290787,-3.920421 0.290786,1.50715 0.290787,0.883654 0.290787,2.561977 0.290786,-2.665464 0.290787,-3.761828 0.290787,4.294993 0.290786,-1.706806 0.581574,6.028318 0.290786,1.146329 0.290787,0.36896 0.290786,0.772514 0.290787,-2.182365 0.290787,1.381709 0.290786,0.648602 0.581574,2.562304 0.290786,-2.110745 0.290787,0.4256 0.290787,1.046438 0.290786,-1.167223 0.290787,0.882417 0.290786,-2.000849 0.290787,-1.177407 0.290787,-0.03376 0.290786,-1.315577 0.581574,0.427251 0.581573,-3.36399 0.581573,-1.932548 0.290787,1.950643 0.290786,-4.737302 0.290787,6.016304 0.290787,-1.894485 0.290786,-1.146694 0.290787,4.286 0.290787,-3.029224 0.290786,2.682439 0.290787,-0.206433 0.290787,1.913659 0.290786,-1.403256 0.290787,1.360968 0.290786,-0.284025 0.290787,2.285456 0.290787,0.225681 0.290786,-0.454065 0.290787,0.351005 0.290787,-1.026951 0.290786,1.093612 0.290787,-0.91859 0.290787,-0.01578 0.290786,-1.279212 0.290787,-0.583481 0.290786,0.270054 0.290787,-0.304557 0.290787,-1.102137 0.290786,0.362273 0.290787,-0.02512 0.290787,0.275248 0.290786,1.176181 0.290787,-0.324237 0.290787,0.159929 0.290786,0.996732 0.290787,0.0064 0.290787,0.570292 0.290786,-0.630412 0.290787,-0.271928 0.290786,0.323428 0.290787,1.018502 0.290787,-0.807077 0.290786,-0.196168 0.290787,-0.927326 0.290787,0.369727 0.290786,-0.308575 0.290787,-0.819118 0.290787,0.34791 0.290786,0.149543 0.290787,-0.146121 0.290786,0.02186 0.290787,0.906536 0.290787,-1.363746 0.290786,0.942755 0.290787,0.522181 0.290787,-0.51882 0.290786,0.459391 0.290787,-0.207204 0.290787,-0.06836 0.290786,13.159995 0.290787,30.61052 0.581573,30.908484 0.290787,9.53811 0.290786,4.21594 0.290787,2.23933 0.581573,47.432 0.290787,11.78125 0.290787,6.49941 0.290786,1.70078 0.290787,-2.01505 0.290786,3.49922 0.290787,17.66198 0.290787,9.53051 0.290786,4.96843 0.290787,0.48884 0.290787,-1.81914 0.290786,-2.96928 0.290787,0.50473 0.290787,3.68112 0.290786,1.30176 1.163147,15.28181 0.290786,7.75628 0.581574,21.91744 0.87236,11.02284 0.290786,-0.84841 0.290787,2.90492 0.290786,8.92551 0.290787,-0.16903 0.290787,-2.65754 0.290786,1.22162 0.290787,0.56008 0.581573,-17.40501 0.581574,-33.08667 0.290786,-5.00787 0.290787,0.0564 1.453933,54.52426 0.581573,6.51749 0.290787,2.41601 0.290787,-6.43938 0.290786,-0.56479 0.290787,-5.17671 0.290787,1.22084 0.290786,1.87282 0.87236,20.76561 0.290787,1.21651 0.290786,-0.50761 0.290787,-5.06607 0.581573,-17.88058 0.581574,-24.9455 0.290786,-7.68251 0.290787,-0.89715 0.581573,13.62067 0.290787,19.91297 0.581573,25.63632 0.290787,0.33215 0.290786,-0.78376 0.87236,-31.74297 0.290787,-3.42087 0.290786,1.65111 0.87236,20.22803 0.290787,3.9391 0.290787,0.1505 0.87236,-6.43453 0.290786,-1.94632 0.290787,-0.67847 0.290786,1.6946 0.290787,-2.46688 0.290787,1.45323 0.290786,-1.90847 0.290787,2.08622 0.581573,-2.71324 0.290787,-5.01041 0.290787,0.17047 0.290786,1.21793 0.290787,-0.17458 0.290791,-4.71189 0.29078,2.59839 0.29079,-8.95795 0.29079,9.4587 0.29078,-6.00546 0.29079,5.316 0.29079,-0.45263 0.87236,-3.52824 0.29078,4.25265 0.29079,2.10776 0.29079,-1.65291 0.29078,4.99084 0.29079,-0.35468 0.29079,2.71184 0.29078,-2.68559 0.29079,1.5905 0.29079,-0.22169 0.29078,1.71368 0.29079,-4.14374 0.29078,2.27321 0.29079,-1.27621 0.29079,-0.0505 0.29078,0.78365 0.29079,-1.3464 0.29079,3.03045 0.29078,-3.24681 0.29079,-1.44546 0.29079,2.11485 0.29078,-2.23697 0.29079,2.90853 0.29079,-3.83494 0.29078,2.53186 0.29079,-2.47911 0.29079,2.93726 0.29078,-4.44882 0.29079,4.23409 0.29079,1.03957 0.29078,-4.64599 0.29079,1.86968 0.29079,-2.39249 0.29078,1.13972 0.29079,0.0539 0.29079,-0.77011 0.29078,2.15702 0.29079,-3.62681 0.29079,3.94813 0.29078,-2.4082 0.29079,4.32143 0.29079,-3.26964 0.29078,0.43765 0.29079,1.50166 0.29079,-2.25033 0.29078,2.3269 0.29079,-4.92875 0.29079,6.63681 0.29078,-3.52797 0.29079,1.01853 0.29079,-1.15757 0.29078,1.59153 0.29079,0.77406 0.29079,-1.95885 0.29078,5.40949 0.29079,-5.98812 0.29079,2.03422 0.29078,0.51114 0.29079,-0.54255 0.29079,1.30923 0.29078,-1.88177 0.29079,2.80812 0.29079,-3.87697 0.29078,1.29963 0.29079,0.57231 0.29079,-3.87821 0.29078,3.54487 0.29079,-3.50616 0.29079,1.5615 0.29078,-4.02011 0.29079,6.07675 0.29079,0.44015 0.29078,-2.76618 0.29079,3.8313 0.29079,-3.96896 0.29078,5.61116 0.29079,-6.85305 0.58157,6.44916 0.29079,-3.45951 0.29079,1.44599 0.29078,-4.8069 0.29079,7.11787 0.29079,-4.66668 0.29078,3.05765 0.29079,-3.77592 0.29079,3.71894 0.29078,0.49904 0.29079,-5.67304 0.29079,7.66642 0.29078,-9.12557 0.29079,6.02092 0.29079,-0.50308 0.29078,0.037 0.29079,-0.17996 0.29079,-0.51113 0.29078,2.53905 0.29079,-3.5991 0.29079,3.32385 0.29078,-2.84892 0.29079,1.44538 0.29079,-0.61185 0.29078,-1.23164 0.29079,2.69522 0.29079,-4.46025 0.29078,4.29817 0.29079,-4.96444 0.58157,4.56914 0.29079,-4.56264 0.29079,5.18474 0.29078,-5.54131 0.29079,4.41961 0.29079,0.59357 0.29078,-0.89704 0.29079,1.77425 0.29079,-5.0994 0.29078,6.41384 0.29079,-5.21834 0.29079,4.19341 0.29078,-6.57377 0.58158,7.66547 0.29078,-4.13323 0.29079,1.07489 0.29078,-5.71955 0.29079,8.33838 0.29079,-4.96995 0.29078,0.91952 0.29079,0.44537 0.29079,-1.83693 0.29078,5.30544 0.29079,-4.53841 0.29079,2.48459 0.29078,-1.98399 0.29079,-0.91271 0.29079,3.05279 0.29078,-4.25523 0.29079,5.50559 0.58157,-4.20271 0.29079,-0.44532 0.29079,3.50768 0.29078,-3.09866 0.29079,0.33748 0.29079,3.27942 0.29078,-6.18053 0.29079,6.72519 0.29079,-3.76037 0.29078,-0.7458 0.29079,2.36386 0.29079,-2.50994 0.29078,3.75214 0.29079,-1.43151 0.29079,1.5827 0.29078,-3.58309 0.29079,4.35349 0.29079,-2.02139 0.29078,-0.62852 0.29079,3.76946 0.29079,-7.16839 0.29078,6.42344 0.29079,-2.40278 0.29079,0.58498 0.58157,-4.12531 0.29079,4.54206 0.29078,-0.0393 0.29079,-0.47603 0.29079,-4.42968 0.29078,4.55982 0.29079,0.68913 0.29079,-4.46382 0.29078,4.85345 0.29079,-3.49598 0.29079,2.91988 0.29078,-0.40267 0.29079,-0.92029 0.29079,1.93306 0.29078,-2.30087 0.29079,1.73311 0.29079,-3.07061 0.29078,4.09867 0.29079,-4.24865 0.58157,2.88198 0.58158,1.59038 0.29078,-4.5891 0.29079,3.47909 0.29079,-2.84771 0.29078,2.44468 0.29079,-2.28434 0.29079,1.90547 0.29078,-0.84749 0.29079,-1.29143 0.29079,4.35052 0.29078,-5.0749 0.29079,5.1941 0.29079,-3.77422 0.29078,1.24931 0.29079,-0.68805 0.29079,-1.33595 0.29078,4.5504 0.29079,-6.02229 0.29079,5.58828 0.29078,-3.44122 0.29079,1.6616 0.29079,-0.71006 0.29078,-1.70864 0.29079,4.24362 0.29079,-5.37462 0.29078,2.83047 0.29079,0.59937 0.29079,-0.70836 0.29078,3.49133 0.29079,-6.9135 0.58157,6.20008 0.29079,-1.80757 0.29079,0.57337 0.29078,-2.85322 0.29079,0.85008 0.29079,-0.67933 0.29078,2.34418 0.29079,-4.13589 0.29079,5.55893 0.29078,-4.96004 0.58158,3.08067 0.29078,-4.05055 0.29079,3.27691 0.29079,-4.05243 0.29078,2.98776 0.29079,1.6046 0.29079,-4.25485 0.29078,6.18356 0.29079,-2.41106 0.29079,1.8531 0.29078,0.63501 0.29079,-0.0697 0.29078,-3.53349 0.29079,3.52929 0.29079,0.84338 0.29078,-7.68447 0.29079,6.24384 0.29079,-3.51517 0.29078,3.37154 0.29079,-1.04667 0.29079,-3.06078 0.29078,1.70125 0.29079,-2.04768 0.29079,4.89652 0.29078,-5.60628 0.29079,4.81456 0.29079,0.0188 0.29078,-0.81978 0.58158,-3.63595 0.29078,4.87856 0.29079,-1.78936 0.29079,2.31306 0.29078,-4.43065 0.29079,0.53845 0.29079,3.48117 0.29078,-3.04817 0.29079,3.58778 0.29079,-3.52291 0.29078,0.86738 0.29079,-2.0697 0.29079,0.82944 0.58157,-2.35836 0.29079,6.90832 0.29078,-4.0023 0.29079,3.02206 0.29079,-2.5503 0.29078,-0.64133 0.29079,0.97771 0.29079,-2.56071 0.29078,6.34085 0.29079,-8.02887 0.29079,5.0688 0.29078,-2.32024 0.29079,0.0514 0.29079,3.72019 0.29078,-4.81088 0.29079,4.3983 0.29079,-5.51247 0.29078,5.94736 0.29079,-3.89846 0.29079,1.96643 0.29078,0.16951 0.29079,-5.28416 0.29079,7.58508 0.29078,-3.23362 0.29079,-0.69657 0.29079,0.27083 0.58157,2.28986 0.29079,-2.20877 0.29078,2.15507 0.29079,-2.52094 0.29079,-0.15886 0.29078,-2.01618 0.29079,3.79076 0.29079,-1.89373 0.29078,-2.96825 0.29079,4.73003 0.29079,-2.35839 0.29078,3.67846 0.29079,-2.90012 0.29079,-1.7443 0.29078,3.7735 0.29079,-1.90105 0.29079,1.29379 0.29078,-2.28929 0.29079,4.65578 0.29079,-2.72271 0.29078,-1.38206 0.29079,2.68122 0.29079,-6.93889 0.29078,6.43403 0.29079,-2.27434 0.29079,1.76974 0.29078,0.45209 0.29079,-2.5444 0.29079,0.3052 0.29078,-1.44728 0.29079,4.58866 0.29079,-3.40207 0.29078,0.51245 0.29079,-1.00751 0.29079,2.40862 0.58157,-4.7821 0.29079,6.26017 0.29078,-3.32777 0.29079,2.20189 0.58157,-2.0301 0.29079,0.65181 0.29079,-0.35431 0.29078,1.72738 0.29079,-2.94138 0.29079,2.7768 0.29078,-0.65425 0.29079,0.36917 0.29079,-0.0315 0.29078,-2.61639 0.29079,4.05531 0.29079,-4.45228 0.29078,4.50616 0.29079,-5.80508 0.29079,4.85016 0.58157,-3.19815 0.29078,5.40447 0.29079,-9.8728 0.29079,8.5176 0.29078,-0.73092 0.29079,-2.51316 0.29079,2.76947 0.29078,-3.62376 0.29079,3.21722 0.29079,-2.51725 0.29078,3.01643 0.29079,-2.12074 0.29079,2.31201 0.29078,-2.3351 0.29079,-0.23614 0.29079,3.51089 0.29078,-2.14248 0.29079,-0.38033 0.29079,-3.78371 0.29078,2.17109 0.29079,-0.79687 0.29079,1.3324 0.29078,3.91128 0.29079,-5.04511 0.29079,1.36416 0.29078,-1.35351 0.29079,-0.57395 0.29079,4.11895 0.29078,-4.53341 0.29079,3.02469 0.29079,-2.60354 0.29078,2.80201 0.29079,-4.64535 0.29079,4.61773 0.29078,0.9567 0.29079,-4.16734 0.29079,4.35677 0.29078,-5.36846 0.29079,3.74498 0.58157,1.12875 0.29079,2.28585 0.29079,-9.70642 0.29078,8.44857 0.29079,-5.71124 0.29079,4.13065 0.29078,-2.29641 0.29079,-0.57848 0.29079,4.78359 0.29078,-6.51172 0.29079,4.54176 0.29079,-3.99594 0.29078,1.54316 0.29079,0.15547 0.29079,0.80853 0.29078,-1.47418 0.29079,0.36223 0.29079,3.33756 0.29078,-5.09663 0.29079,4.03905 0.29079,-3.65426 0.29078,1.62706 0.29079,0.0838 0.29079,-5.10307 0.29078,11.28238 0.29079,-9.50792 0.29079,5.2744 0.29078,-2.08748 0.29079,-0.0331 0.29079,3.89482 0.29078,-6.35224 0.29079,4.8791 0.29079,-6.80153 0.29078,6.21433 0.29079,-5.43602 0.29079,4.69316 0.29078,1.72061 0.29079,-2.6367 0.29079,0.81475 0.58157,-2.249 0.29079,0.35604 0.58157,5.15522 0.29079,-4.38694 0.29078,4.02953 0.29079,-4.80996 0.29079,1.5056 0.29078,-1.46337 0.29079,-0.28649 0.58157,1.20263 0.29079,1.23131 0.29079,-4.57434 0.29078,6.65689 0.29079,-2.76392 0.29079,-0.1815 0.29078,0.54634 0.29079,-3.53431 0.29079,5.56763 0.29078,-6.74607 0.29079,1.96199 0.58157,2.25108 0.29079,0.52655 0.29079,-1.21302 0.29078,0.61446 0.58158,0.29842 0.29078,-3.65176 0.58158,3.06762 0.29078,-5.65275 0.29079,6.81021 0.29079,-4.92663 0.29078,4.94489 0.29079,-2.15116 0.29078,-1.13925 0.29079,2.60161 0.29079,-3.57259 0.29078,2.42291 0.29079,-1.51572 0.29079,4.97913 0.29078,-3.84015 0.29079,-2.08882 0.29079,1.59432 0.29078,-1.70548 0.29079,4.5814 0.29079,-5.58285 0.29078,6.66446 0.29079,-4.22456 0.29079,2.62387 0.29078,-1.68794 0.29079,2.05369 0.29079,-0.0389 0.29078,-1.8874 0.29079,2.71663 0.29079,-3.02935 0.29078,2.23304 0.29079,-4.45252 0.29079,-0.9065 0.29078,3.56365 0.29079,-1.63454 0.29079,3.54303 0.29078,-3.42292 0.29079,0.9041 0.29079,1.31815 0.29078,-1.72627 0.29079,4.32384 0.29079,-6.51735 0.29078,5.37389 0.29079,-3.11893 0.29079,0.84869 0.29078,-0.84476 0.29079,-1.59725 0.29079,3.66184 0.29078,-3.58255 0.29079,5.41341 0.29079,-2.09193 0.29078,-3.11704 0.29079,4.5652 0.29079,-4.68137 0.29078,5.81459 0.29079,-7.24793 0.29079,3.34501 0.29078,-2.49783 0.29079,2.50757 0.29079,0.25779 0.29078,-3.5891 0.29079,6.52939 0.29079,-7.05966 0.29078,4.54526 0.29079,-0.97468 0.29079,1.76221 0.29078,-0.13485 0.29079,-3.818 0.29079,3.48628 0.29078,-4.97668 0.29079,8.87398 0.29079,-7.23078 0.58157,2.41751 0.29079,-0.23794 0.29078,0.3689 0.29079,-2.59457 0.29079,4.73526 0.29078,-4.87839 0.58158,2.75192 0.29078,-4.13497 0.29079,7.19372 0.29079,-8.98338 0.29078,8.59115 0.29079,-6.35912 0.29079,3.16204 0.58157,-0.80457 0.29079,2.2968 0.29078,-4.53191 0.29079,1.68164 0.29079,-0.24734 0.29078,2.69342 0.29079,-0.24624 0.29079,-2.78162 0.29078,2.35292 0.29079,-3.40739 0.29079,3.83348 0.29078,0.27602 0.29079,-1.70275 0.29079,-0.37514 0.29078,-1.51231 0.29079,3.69624 0.29079,-6.00967 0.29078,5.10915 0.29079,-2.62194 0.29079,0.97666 0.29078,-0.94855 0.29079,-1.72206 0.29079,2.95634 0.29078,-2.83273 0.58158,4.50734 0.29078,-0.76731 0.29079,-3.86621 0.58157,5.81121 0.29079,-5.4158 0.29079,3.98426 0.29078,-4.32403 0.29079,2.79931 0.29079,0.76089 0.29078,-2.78024 0.29079,3.82157 0.29078,-4.75178 0.29079,4.75056 0.29079,-4.08493 0.29078,1.05892 0.29079,-1.12052 0.29079,0.88475 0.29078,1.70879 0.29079,-3.72723 0.29079,2.85889 0.29078,-2.99416 0.29079,3.39482 0.29079,-2.0963 0.29078,-0.22394 0.29079,4.42066 0.29079,-3.42512 0.29078,1.20618 0.29079,-1.07165 0.29079,1.26923 0.29078,-0.45578 0.29079,-0.91025 0.29079,4.71042 0.29078,-4.16916 0.29079,4.08096 0.29079,-4.9753 0.29078,3.14461 0.29079,-2.00633 0.29079,0.1548 0.29078,4.93655 0.29079,-4.75377 0.29079,2.26215 0.29078,-2.3119 0.29079,-0.31391 0.29079,-0.64523 0.29078,0.12679 0.29079,-0.78999 0.58157,1.78111 0.29079,-4.23293 0.29079,4.32987 0.29078,-1.16588 0.29079,-1.80003 0.29079,3.50152 0.29078,-2.29023 0.58158,1.83642 0.29078,-2.72208 0.29079,2.8478 0.29079,-2.297 0.29078,0.46082 0.29079,-2.09757 0.29079,2.2806 0.29078,-3.92169 0.29079,4.98663 0.29079,0.60641 0.29078,-3.52769 0.29079,5.74711 0.29079,-4.57584 0.29078,0.72768 0.29079,-1.34526 0.29079,0.18844 0.29078,4.91754 0.29079,-5.67014 0.29079,4.66223 0.29078,-3.569 0.29079,-0.0116 0.29079,-0.38876 0.29078,3.16771 0.29079,-0.91132 0.29079,-5.45745 0.29078,7.9675 0.29079,-5.72274 0.29079,4.51128 0.29078,-3.23484 0.29079,1.19314 0.29079,2.08821 0.29078,-3.00457 0.29079,1.08851 0.29079,-0.0398 0.29078,1.59272 0.29079,-2.94766 0.29079,0.35147 0.29078,-0.856 0.29079,0.46752 0.29079,0.86889 0.29078,-3.49422 0.29079,5.37216 0.29079,-4.5067 0.29078,2.21025 0.29079,1.10764 0.29079,-2.85508 0.29078,1.26612 0.29079,-2.61426 0.29079,3.84118 0.29078,-0.98269 0.29079,0.78153 0.29079,1.12455 0.29078,-7.05476 0.29079,8.0005 0.29079,-5.74427 0.29078,2.78215 0.29079,-1.77997 0.29079,0.49675 0.29078,1.60491 0.29079,-0.16791 0.29079,2.19405 0.29078,-6.31089 0.29079,4.82453 0.29079,-2.63091 0.58157,2.5595 0.29079,-3.71109 0.29078,6.34039 0.29079,-6.64904 0.29079,4.70259 0.29078,-3.81054 0.29079,1.25197 0.29078,1.98386 0.29079,-1.6851 0.29079,1.19395 0.29078,-5.41464 0.29079,4.86708 0.58157,-2.93464 0.29079,1.32501 0.29079,-2.15465 0.29078,4.66806 0.29079,-6.09147 0.29079,7.14432 0.29078,-4.41163 0.29079,2.61318 0.29079,-4.49009 0.58157,3.1667 0.29079,-0.34275 0.29078,0.97473 0.29079,-1.63627 0.29079,2.20076 0.29078,-2.32285 0.29079,0.0836 0.29079,0.93032 0.29078,-3.74329 0.29079,6.59355 0.58157,-5.52773 0.29079,1.11944 0.29079,-0.63199 0.29078,3.42433 0.29079,-4.60149 0.29079,4.31623 0.29078,-3.18969 0.29079,0.10307 0.29079,3.58625 0.29078,-2.62576 0.29079,1.16656 0.29079,-1.35005 0.29078,1.47032 0.29079,-2.74492 0.29079,-0.13674 0.29078,2.07271 0.29079,-1.92356 0.29079,3.73939 0.29078,-5.75305 0.29079,3.71445 0.29079,-0.56405 0.29078,-1.4777 0.29079,1.16909 0.29079,-0.35036 0.29078,5.10514 0.29079,-5.21921 0.29079,5.31254 0.29078,-2.18943 0.29079,-3.92733 0.29079,4.03836 0.29078,-4.1599 0.29079,2.65419 0.29079,-4.51684 0.29078,7.35356 0.58158,-6.09578 0.29078,4.89633 0.29079,-2.52664 0.29079,3.87339 0.29078,-7.86625 0.29079,4.61254 0.29079,-2.65573 0.29078,2.09854 0.29079,-3.22754 0.29079,0.20282 0.29078,4.10844 0.29079,-2.98272 0.29079,1.46123 0.29078,-1.59914 0.58158,2.70196 0.29078,-2.78452 0.29079,3.62145 0.29079,-2.70064 0.29078,-0.3421 0.29079,-1.63299 0.29079,0.50395 0.29078,1.98984 0.29079,-5.05047 0.29079,9.1585 0.29078,-6.40276 0.29079,2.40155 0.29079,-2.03771 0.29078,0.98831 0.29079,-0.66859 0.29079,-1.9486 0.29078,3.66905 0.29079,-0.73953 0.29079,1.0139 0.29078,-5.83768 0.29079,5.12579 0.29079,-0.55455 0.29078,-3.57368 0.29079,3.06654 0.29079,-0.8705 0.29078,-1.22563 0.58158,1.77701 0.29078,3.38475 0.29079,-8.01451 0.29079,5.65124 0.29078,-0.91124 0.29079,2.67786 0.29079,-2.01108 0.29078,-3.69831 0.29079,6.02687 0.29079,-6.89826 0.29078,5.77922 0.29079,-3.78866 0.29078,1.43887 0.29079,2.71995 0.29079,-3.34685 0.29078,-0.41161 0.29079,-2.98846 0.29079,4.80611 0.29078,-2.61918 0.29079,3.79769 0.29079,-1.67992 0.29078,-3.46883 0.29079,4.71141 0.29079,-1.7783 0.29078,0.6439 0.29079,-2.64825 0.29079,2.44217 0.29078,-0.0651 0.29079,-2.89292 0.29079,0.0431 0.29078,-0.31548 0.29079,1.56419 0.29079,-3.17679 0.29078,5.00672 0.29079,-1.64697 0.29079,0.14379 0.29078,-0.07 0.29079,-1.68167 0.29079,-0.0271 0.29078,-1.82235 0.29079,3.86634 0.29079,-0.87598 0.29078,0.10247 0.29079,-1.21167 0.29079,-5.57432 0.29078,8.31818 0.29079,-2.91584 0.29079,-0.18691 0.29078,-1.34084 0.29079,0.85936 0.29079,3.46519 0.29078,-6.37416 0.29079,5.77184 0.29079,-4.47334 0.29078,6.15586 0.29079,-1.62237 0.29079,-2.6488 0.29078,2.18811 0.29079,-4.76522 0.29079,3.80393 0.29078,-1.80189 0.29079,2.20866 0.29079,-3.60344 0.58157,4.12819 0.29079,-5.09611 0.29078,3.91243 0.29079,-1.50909 0.29079,1.1022 0.29078,-2.0686 0.29079,-3.41572 0.29079,6.15311 0.29078,-3.85976 0.29079,3.78486 0.29079,-3.19415 0.29078,1.70041 0.29079,-1.17819 0.29079,-0.69859 0.29078,2.48308 0.29079,-2.8675 0.29079,4.14236 0.29078,-6.72315 0.29079,6.66016 0.29079,-5.62985 0.29078,5.65676 0.29079,0.46363 0.29079,-6.46371 0.29078,4.69195 0.29079,-4.55793 0.29079,2.4605 0.29078,-0.023 0.29079,-1.38759 0.29079,3.65766 0.29078,-3.97531 0.29079,4.35619 0.29079,-4.07104 0.29078,3.75027 0.29079,-2.8776 0.29079,0.67768 0.29078,0.0811 0.29079,-5.28384 0.29079,7.11882 0.29078,-7.49035 0.29079,5.52171 0.29079,0.80562 0.29078,-1.35026 0.29079,0.62506 0.29079,-1.38807 0.29078,2.28257 0.29079,-5.42119 0.29079,5.77176 0.58157,-4.20786 0.29079,3.58993 0.29078,-3.0368 0.29079,0.90383 0.29079,-3.43993 0.29078,3.1312 0.29079,0.31721 0.29079,0.69742 0.29078,1.58047 0.29079,-5.68117 0.29079,2.76565 0.29078,-2.30319 0.29079,-0.0683 0.29079,2.28411 0.29078,-0.42057 0.29079,2.25569 0.29079,-4.35804 0.29078,4.64622 0.29079,-2.51106 0.29078,1.2091 0.29079,-1.91837 0.29079,1.42799 0.58157,-1.17021 0.29079,0.68497 0.29078,-4.32329 0.29079,4.3089 0.29079,-4.52735 0.29078,2.10551 0.29079,3.48992 0.29079,-4.27882 0.29078,4.82008 0.29079,-3.88104 0.29079,-0.92515 0.29078,0.13308 0.29079,-2.0689 0.29079,6.10683 0.29078,-4.2505 0.29079,4.09699 0.29079,-3.75953 0.29078,1.9359 0.29079,-5.50163 0.58157,7.76745 0.29079,-5.41741 0.29079,1.207 0.29078,-1.82589 0.29079,5.56545 0.29079,-6.81753 0.29078,1.09822 0.29079,4.17045 0.29079,-0.92024 0.29078,1.00494 0.29079,-6.16787 0.29079,4.7471 0.29078,-4.30978 0.58158,3.08317 0.29078,-2.30309 0.29079,4.37517 0.29079,-5.19417 0.29078,1.45369 0.29079,0.5013 0.29079,-1.08248 0.29078,4.17285 0.29079,-3.27345 0.29079,5.22293 0.29078,-4.46919 0.29079,-0.42252 0.29079,1.27156 0.29078,-4.31842 0.29079,4.68352 0.29079,-4.81833 0.29078,1.57218 0.29079,2.48911 0.29079,-1.76613 0.29078,2.08453 0.29079,-1.76798 0.29079,2.7876 0.29078,-5.36123 0.29079,4.56595 0.29079,-4.47839 0.29078,1.92182 0.29079,3.42207 0.29079,-4.4499 0.29078,0.22057 0.29079,-0.93412 0.29079,4.46576 0.29078,-3.6836 0.29079,1.57915 0.58157,-1.64468 0.29079,1.52423 0.29079,-1.53142 0.29078,3.03487 0.29079,-3.40231 0.29079,-0.23412 0.29078,2.02772 0.29079,-3.58371 0.29079,0.45102 0.29078,-0.2956 0.29079,1.23384 0.29079,-0.92987 0.29078,4.0571 0.29079,-3.50905 0.29079,-0.15397 0.29078,1.29246 0.29079,-3.46484 0.58157,3.80359 0.29079,-0.82145 0.29079,-1.6282 0.29078,-4.02641 0.29079,7.68561 0.29079,-2.45472 0.29078,3.15279 0.29079,-6.03286 0.29079,2.18981 0.29078,-2.56235 0.29079,0.89287 0.29079,3.71459 0.29078,-3.04126 0.29079,-1.20069 0.29079,0.92026 0.29078,0.12192 0.29079,-1.32321 0.29079,-0.0259 0.29078,0.19653 0.58158,1.71362 0.29078,-2.02055 0.58157,2.20773 0.29079,-2.62446 0.29079,1.06318 0.29078,-0.72991 0.29079,4.16324 0.29079,-4.35263 0.29078,-0.52757 0.29079,1.01189 0.29079,-2.74676 0.29078,7.83657 0.29079,-8.747 0.29079,2.50381 0.29078,0.0147 0.29079,-0.78328 0.29079,1.47394 0.29078,0.68485 0.29079,1.7078 0.29079,-3.87081 0.29078,3.78484 0.29079,-3.57479 0.29079,-2.17771 0.29078,2.44892 0.29079,-3.48708 0.29079,4.61935 0.29078,-2.89241 0.29079,0.62865 0.29079,-0.88345 0.29078,-2.04429 0.29079,2.76243 0.29079,-0.40597 0.29078,0.9292 0.29079,-3.90212 0.29079,4.905 0.29078,-4.28489 0.58158,0.67858 0.29078,-3.59214 0.29079,6.15615 0.29079,-0.97053 0.29078,0.68986 0.29079,-4.56059 0.29079,3.20875 0.29078,0.47166 0.29079,-2.12097 0.29079,0.89305 0.29078,-0.13524 0.29079,-1.1932 0.29079,0.32186 0.29078,1.28161 0.58158,-3.64347 0.29078,3.4457 0.29079,-2.36177 0.29079,0.56237 0.29078,-3.23872 0.29079,3.92166 0.29079,0.98078 0.29078,-1.61193 0.29079,1.26886 0.29079,-2.24001 0.29078,1.39603 0.29079,-1.81425 0.29079,0.67643 0.29078,1.56713 0.29079,-6.63545 0.29079,4.60733 0.58157,2.95785 0.29079,-4.8754 0.29078,0.16441 0.29079,1.66227 0.29079,0.0525 0.29078,1.33957 0.29079,-3.31608 0.29079,1.90284 0.29078,-5.13775 0.58158,5.84143 0.29078,-8.00573 0.29079,6.16161 0.29079,-2.37915 0.29078,4.26971 0.29079,-3.52068 0.29079,-1.78864 0.29078,3.05175 0.29079,-5.13085 0.29079,5.60984 0.29078,-5.07342 0.29079,3.21264 0.29079,-0.55712 0.29078,-0.893 0.29079,4.52957 0.29079,-9.60263 0.29078,4.76904 0.29079,-0.444 0.58157,-3.38918 0.29079,1.6877 0.29079,3.12905 0.29078,-7.0711 0.29079,5.27915 0.29079,-4.34218 0.29078,6.35615 0.29079,-2.96594 0.29079,0.23347 0.29078,2.28638 0.29079,-6.40451 0.29079,5.65864 0.29078,-3.50181 0.29079,3.46928 0.29079,-4.43801 0.29078,0.42851 0.29079,2.99687 0.58157,-4.56927 0.29079,0.25542 0.29078,4.23391 0.29079,-5.03241 0.58157,3.54004 0.29079,-3.36469 0.29079,4.39339 0.29078,-5.30682 0.29079,1.91239 0.29079,0.41398 0.29078,-1.8006 0.29079,2.92533 0.29079,-3.6478 0.29078,2.49239 0.29079,-2.66876 0.29079,3.58022 0.58157,-8.01731 0.29079,7.26838 0.87236,-6.1772 0.29078,6.60107 0.29079,1.21208 0.58157,-10.20667 0.29079,4.03861 0.29079,8.04034 0.29078,-9.1825 0.29079,0.0193 0.29079,-2.08738 0.29078,2.94682 0.29079,5.03117 0.29079,-12.369 0.29078,6.99118 0.29079,-0.0731 0.29079,6.58178 0.29078,-10.7862 0.29079,-0.77329 0.58157,9.0931 0.29079,-2.38025 0.29079,-8.20643 0.87236,10.29236 0.58157,-185.104299 0.29079,-10.8938 0.29078,-3.902176 0.58158,-5.421111 0.29078,3.296478 0.29079,8.051798 0.29079,-0.123657 0.58157,-4.183745 0.29079,-6.865492 0.29078,1.729921 0.29079,-7.199316 0.29079,-2.211438 0.29078,4.972011 0.29079,-1.775072 0.29079,-0.03468 0.29078,-5.180022 0.29079,-0.81982 0.29079,4.724117 0.29078,-9.453643 0.29079,10.951665 0.58157,-6.730378 0.29079,3.070899 0.29079,-0.258252 0.29078,-1.588467 0.29079,0.97003 0.29079,2.067361 0.29078,-2.316732 0.29079,5.476526 0.29079,-4.536762 0.29078,5.073593 0.29079,-0.02002 0.29079,-2.358964 0.29078,0.841425 0.29079,-0.913441 0.29079,2.10371 0.29078,0.980228 0.29079,1.771952 0.29079,-1.9676 0.29078,1.561921 0.29079,-2.499154 0.29079,0.734252 0.29078,-0.441919 0.29079,0.742433 0.29079,-2.525614 0.29078,0.692496 0.29079,-0.247781 0.29079,-1.517451 0.29078,-0.906966 0.29079,-0.195508 0.29079,1.241247 0.29078,-2.662413 0.29079,1.387252 0.29079,-0.177828 0.29078,-2.684114 0.29079,-1.017688 0.29079,1.496085 0.29078,2.726729 0.29079,-2.114839 0.29079,0.07946 0.29078,2.705039 0.29079,0.617324 0.29079,-0.459824 0.29078,3.986865 0.29079,-0.980282 0.29079,0.16153 0.29078,0.692178 0.29079,0.184577 0.29078,0.44297 0.29079,-1.235313 0.58157,-0.403752 0.29079,0.0286 0.58157,-1.714575 0.29079,0.255849 0.29079,-1.866443 0.87236,0.611737 0.29078,1.985712 0.29079,-0.517559 0.29079,-1.022816 0.58157,1.280893 0.29079,0.714839 0.29078,0.06658 0.29079,-1.007811 0.29079,0.396262 0.29078,1.627938 0.58158,-1.630976 0.29078,0.789526 0.29079,-0.09698 0.29079,-0.955344 0.29078,-0.372309 0.29079,0.439228 0.29079,-0.295287 0.29078,-0.811797 0.29079,0.581471 0.29079,-0.644472 0.29078,0.739682 0.29079,-0.599154 0.29079,0.02613 0.29078,1.086858 0.29079,-0.707294 0.29079,-0.05109 0.29078,0.511591 0.29079,0.278649 0.29079,0.711229 0.29078,0.171758 0.29079,0.365244 0.29079,-0.0182 0.29078,0.225303 0.29079,-0.235213 0.29079,0.412109 0.29078,-0.01473 0.58158,-0.574003 0.29078,-0.103596 0.29079,-0.348606 0.29079,-0.574359 1.16314,58.889007 0.29079,7.52872 0,0"
             inkscape:connector-curvature="0" />
        </g>
      </g>
      <g
         id="g3019">
        <g
           clip-path="url(#clipPath3023)"
           id="g3021">
          <path
             id="path3027"
             style="fill:none;stroke:#ff0000;stroke-width:1;stroke-linecap:square;stroke-linejoin:round;stroke-miterlimit:10;stroke-opacity:1;stroke-dasharray:none"
             d="m 37.828125,119.80129 0.290787,-76.580847 32.85889,-7.2e-5 0.290786,31.107785 0.290787,2.373336 0.581573,2.21544 0.581574,0.85833 0.290786,30.047368 0.290787,2.98044 0.290786,1.44738 0.290787,0.80416 0.290787,-0.003 0.290786,-0.42136 0.290787,27.16851 0.290787,2.67169 0.290786,0.17136 0.290787,-0.86904 0.581573,-3.47096 2.035507,-14.09497 0.87236,-3.62029 0.872359,-3.4529 0.581574,-1.67351 0.581573,-0.58997 0.581573,-1.00705 0.290787,-0.20012 0.581573,-0.0533 0.290787,0.44676 0.290787,1.17657 0.581573,4.51565 0.581573,4.22035 0.290787,1.51776 0.290786,0.82895 0.290787,0.48746 0.290787,0.0419 0.290786,-0.22919 0.87236,-1.48839 0.87236,-0.62332 0.290787,-0.13556 0.290786,-0.42411 0.581574,-1.55632 0.87236,-2.82009 0.290786,-0.40821 0.290787,0.0569 0.290786,0.50367 0.290787,0.90087 1.163147,5.05298 0.290786,0.51805 0.290787,-0.4284 0.290787,-0.79835 0.581573,-2.39965 0.290786,-0.75001 0.290787,-0.17993 0.290787,0.25031 0.87236,1.19004 0.290786,-0.11353 0.290787,-0.35802 0.87236,-1.69983 0.581573,-0.58018 2.326293,-0.87301 0.290787,0.17962 0.290791,-0.0303 3.78022,2.46361 0.58158,0.0591 0.29078,-0.23807 0.29079,-0.015 0.29079,-0.23593 0.29078,-0.0679 0.58157,-0.46359 0.29079,-0.0964 0.29079,-0.25092 0.87236,-0.25 1.16314,-0.30203 1.16315,-0.19706 0.29079,0.0759 0.29078,-0.0719 1.16315,0.12944 0.58157,0.0869 0.29079,0.10404 0.29079,-0.0673 1.74472,0.32191 0.87236,-0.0869 1.16314,0.0578 0.58158,-0.22124 0.29078,0.0438 0.58158,-0.13709 0.58157,-0.0257 1.74472,-0.27846 0.58157,0.0499 0.58158,0.0101 0.58157,0.008 0.58157,-0.007 0.87236,-0.045 0.29079,0.11291 1.16315,0.0584 0.58157,-0.0248 4.3618,-0.16187 0.58157,-0.0254 0.58158,0.004 0.87236,-0.0572 2.90786,0.0138 0.29079,0.0685 0.58157,-0.0817 0.29079,0.0624 0.29079,-0.10527 0.29078,0.14566 0.29079,-0.11108 0.29079,0.0985 0.58157,-0.1074 0.29079,0.0554 0.29078,-0.12179 0.29079,0.15086 1.16314,-0.14718 0.87236,-0.0545 0.58158,-0.0116 0.58157,0.0453 5.23416,-0.10221 0.58157,0.0698 1.74472,-0.0477 0.29079,0.17625 0.87236,-0.18513 0.87236,0.0572 0.29079,-0.15147 0.58157,0.0964 0.87236,-0.0652 0.58157,-0.008 0.58158,0.0226 0.29078,-0.0897 0.29079,0.11751 0.29079,-0.10527 0.58157,0.0226 0.87236,-0.006 0.87236,0.0291 1.45393,-0.0572 0.29079,0.0783 0.87236,-0.0333 0.29079,0.0343 0.29078,-0.10557 0.29079,0.11353 1.16315,-0.14964 0.29078,0.10619 0.29079,-0.0609 0.29079,0.0793 0.58157,-0.11445 4.07101,0.0848 0.58158,-0.10801 0.29078,0.1074 0.29079,-0.14535 0.29079,0.306 0.29078,-0.20073 2.90787,-0.10557 0.29078,0.0765 0.29079,-0.0707 0.87236,0.0505 0.87236,0.0447 0.29079,-0.15974 0.29078,0.13158 0.29079,-0.11964 0.29079,0.153 0.29078,-0.0927 0.58158,0.0964 3.78022,-0.0817 0.29079,0.13341 0.29079,-0.12913 0.29078,0.0483 1.16315,-0.17809 0.58157,0.12576 3.19866,-0.1126 0.29078,0.10404 1.74472,-0.0643 0.58158,0.049 0.87236,-0.064 0.58157,-0.019 0.87236,0.0239 0.29079,0.0988 0.87236,-0.0802 1.16314,0.0389 0.29079,-0.0845 0.29079,0.0976 0.58157,-0.06 0.29079,0.10098 0.29078,-0.1429 0.87236,0.064 0.29079,-0.0982 1.16315,0.16004 0.29078,-0.1172 0.29079,0.0933 0.58157,-0.0955 3.78023,-0.0447 0.58157,0.0487 0.58158,-0.0156 0.58157,0.006 0.87236,0.0303 0.29079,-0.0698 0.87235,0.0845 0.58158,-0.0667 0.29078,0.0844 0.87236,-0.0771 0.29079,0.0835 0.58157,-0.17258 0.87236,0.0688 0.87236,-0.0637 0.58158,0.0395 0.29078,-0.11291 0.29079,0.13464 0.29079,-0.0839 0.29078,0.0621 0.29079,-0.11016 0.58157,0.11567 0.29079,-0.0774 0.29079,0.12332 0.29078,-0.12118 0.29079,0.19064 0.29079,-0.0744 0.58157,0.0328 0.87236,-0.10037 0.29079,0.14657 0.29078,-0.15024 0.58158,0.0854 2.32629,-0.0266 0.87236,0.0462 0.29079,0.0698 0.58157,-0.11138 0.58157,-0.026 1.45394,-0.0499 0.58157,0.0609 0.87236,-0.0508 0.58157,0.0597 1.16315,0.0242 0.29079,-0.13066 0.58157,0.17717 0.87236,-0.0719 0.29079,0.12669 0.29078,-0.14505 1.74472,0.0652 0.87236,-0.064 2.61708,0.0361 0.29079,-0.12087 0.29079,0.13494 1.16314,-0.0737 0.87236,0.0517 1.16315,-0.0713 0.29079,0.12913 0.29078,-0.11291 1.45393,0.0462 0.29079,0.0122 0.29079,-0.14138 0.58157,0.0734 0.87236,-0.0147 2.61708,0.0483 0.29079,0.0529 0.58157,-0.11383 0.29079,0.13954 0.29078,-0.10986 0.29079,0.10006 0.29079,-0.13219 0.58157,0.052 0.29079,-0.10067 0.29078,0.12301 0.29079,-0.0685 0.58157,0.0361 4.07102,-0.0116 10.17753,-0.0101 0.29079,0.22521 0.29078,-0.19461 4.65259,-0.0196 0.58157,0.0557 0.29079,-0.0845 0.58157,0.0551 0.58158,-0.0692 0.58157,0.0532 0.29079,-0.0835 0.29078,0.13831 0.29079,-0.11811 1.16315,0.10924 0.29078,-0.20227 0.58157,0.12944 3.48944,-0.008 0.29079,0.0737 0.29079,-0.0676 0.58157,0.0285 2.32629,-0.06 0.29079,0.1276 0.29079,-0.0728 0.58157,-3.1e-4 1.16315,0.0208 0.29078,-0.0682 0.29079,0.1328 0.29079,-0.11934 0.58157,0.0398 0.29079,-0.0912 0.29078,0.16432 0.29079,-0.0958 0.29079,0.0459 0.29078,-0.10435 1.16315,0.11353 0.29079,-0.0955 0.58157,0.0682 0.29079,-0.0536 0.29078,0.0655 0.29079,-0.0771 0.29079,0.0542 0.29078,-0.0979 0.29079,0.0854 0.58157,-0.0502 0.87236,0.14596 0.29079,-0.0866 0.29079,0.0474 0.29078,-0.0658 0.58158,0.0796 0.29078,-0.0796 0.29079,0.0777 0.29079,-0.10863 0.58157,0.0248 1.16315,0.0676 0.87236,-0.0425 0.58157,-0.005 0.29079,-0.0912 0.29078,0.12913 0.29079,-0.14994 0.29079,0.13892 0.29078,-0.1172 1.74472,0.1068 0.29079,0.13311 0.29079,-0.11445 0.29078,0.0315 0.29079,-0.0884 0.29079,0.0793 0.58157,-0.0633 1.16315,-0.0643 0.29078,0.13678 0.29079,-0.15086 1.16315,0.12087 0.29078,-0.19553 0.29079,0.11659 0.29079,-0.056 0.58157,0.0434 0.29079,-0.0692 0.29078,0.0866 0.29079,-0.0438 0.29078,0.13526 0.29079,-0.11475 0.58157,0.0532 0.87236,-0.0811 0.29079,0.0933 1.16315,-0.0379 0.29078,0.10832 0.29079,-0.0998 0.58157,0.0539 0.87236,-0.0279 0.29079,0.14321 0.58157,-0.1172 0.29079,-0.0566 0.29079,0.0848 0.58157,-0.15912 0.29079,0.09 0.58157,-0.0251 0.58157,0.0196 1.45394,0.0557 0.58157,-0.11199 0.87236,0.14076 0.29079,-0.15514 0.29078,0.0799 0.29079,-0.0536 0.29079,0.0722 0.29078,-0.049 0.58158,0.0826 0.29078,-0.0998 0.29079,0.0643 0.58157,-0.0633 2.61708,0.12362 0.58158,-0.13647 0.87236,0.0156 2.61708,-0.011 1.16314,0.0171 0.29079,0.045 0.58157,-0.09 0.29079,0.0725 0.29079,-0.0652 0.58157,0.0162 0.87236,-0.0113 0.87236,0.0514 0.29079,-0.0496 0.29078,0.12668 0.58158,-0.0762 0.29078,0.0597 0.29079,-0.14749 0.29079,0.074 0.58157,-0.0679 1.45393,0.11842 0.29079,-0.14076 0.29079,0.0643 0.29078,-0.0823 0.29079,0.0808 0.29079,-0.0765 0.58157,0.1071 0.58157,-0.0171 0.58157,-0.0119 0.87236,0.003 0.29079,-0.0643 0.29079,0.12057 0.58157,-0.0995 2.61708,0.049 0.29079,0.0162 0.29078,-0.11078 0.29079,0.10007 0.58157,-0.0404 0.29079,0.0523 0.29079,-0.15973 0.29078,0.15667 0.58158,-0.0606 0.29078,0.0927 0.87236,-0.14382 0.29079,0.1481 0.29079,-0.11444 0.29078,0.0799 0.58158,-0.1016 0.29078,0.0618 0.29079,-0.0768 0.29079,0.11047 0.58157,-0.0698 0.29079,-0.0483 0.58157,0.10343 0.58157,-0.0312 0.29079,-0.0572 0.29079,0.10833 0.58157,-0.14474 0.29079,0.0609 0.29078,-0.0848 0.29079,0.13281 1.45393,-0.0199 0.29079,-0.0848 0.29079,0.12118 0.29078,-0.14321 0.29079,0.14535 0.58157,-0.0493 0.87236,0.0404 0.29079,-0.11904 0.87236,0.0704 0.29079,0.0361 0.29078,-0.0985 1.16315,0.0474 1.74472,-0.0156 1.45393,0.0633 0.29079,-0.078 0.58157,0.0422 2.3263,-0.0725 0.29078,0.0649 0.29079,-0.056 0.29079,0.0906 0.29078,-0.10006 0.58158,0.0949 0.29078,-0.0808 0.87236,0.0532 0.87236,-0.056 2.90787,-0.0701 0.58157,0.0737 1.16315,-0.0477 0.87236,-0.0618 0.58157,0.0958 0.29079,-0.0912 0.87236,0.0462 0.29078,-0.0542 0.29079,0.112 0.29079,-0.0927 0.58157,0.0909 0.29079,-0.13036 0.58157,0.0373 1.74472,-0.01 0.58157,-0.022 0.58158,-0.0462 0.29078,0.1126 0.29079,-0.10954 0.58157,0.0107 1.16315,0.0618 0.29079,-0.0848 0.29078,0.10373 0.87236,-0.11444 0.58158,0.12729 0.29078,-0.0487 0.29079,0.0646 0.29079,-0.10557 0.29078,0.12026 0.58158,-0.0967 0.29078,0.10067 0.58158,-0.0688 0.87236,-0.0407 1.74472,0.0153 0.29078,0.074 0.29079,-0.0912 0.29079,0.0373 0.29078,-0.10221 0.29079,0.063 0.58157,-0.0184 2.3263,-0.0376 0.29078,-0.0398 0.29079,0.10221 0.58157,-0.0233 0.87236,0.0349 0.29079,-0.0854 0.29079,0.0768 0.29078,-0.10129 0.29079,0.15147 0.58157,-0.13097 4.65259,-0.0575 0.29078,0.0829 0.29079,-0.12546 0.58157,0.0266 4.07102,-0.0584 0.29078,-0.0205 0.29079,0.1071 0.58157,-0.13096 0.87236,0.0936 1.45394,-0.0943 0.87236,0.0104 0.58157,-0.056 0.29079,0.0217 0.29078,-0.20043 0.58158,0.089 1.45393,-0.0594 0.29079,0.13372 1.45393,-0.13862 0.87236,0.001 1.16315,0.0171 1.16314,-0.0324 0.29079,0.0196 0.29079,-0.0921 0.29078,0.0701 0.29079,-0.0793 0.58157,0.0542 0.58158,-0.09 0.87236,-0.0153 1.16314,0.0337 0.29079,-0.15698 0.29079,0.0961 2.0355,-0.1273 1.16315,-0.005 1.45393,-0.0679 0.58158,0.0453 0.29078,-0.11597 0.58158,0.0731 0.58157,-0.086 2.03551,0.0242 0.87236,-0.15453 0.29078,0.0845 0.87236,-0.11904 0.58157,0.11383 0.58158,-0.1533 0.29078,0.0988 3.78023,-0.25857 0.29079,0.14106 0.87236,-0.12148 0.29078,0.18115 0.29079,-0.089 0.29079,-0.21543 0.29078,0.11169 0.29079,0.26714 0.58157,-0.3011 0.29079,-0.18881 0.58157,0.34701 0.29079,-0.10251 0.29079,-0.31794 0.29078,0.25276 0.58158,0.18176 0.29078,-0.43696 0.58158,0.25918 0.29078,0.0802 0.29079,-0.43115 0.58157,0.13555 0.29079,0.18422 0.29079,0.052 0.29078,-0.40209 0.87236,0.44737 0.29079,-51.048752 0.29079,-25.42449 35.76675,3.3e-4 0.29079,31.336692 0,0"
             inkscape:connector-curvature="0" />
        </g>
      </g>
      <g
         id="g3029">
        <path
           id="path3031"
           style="fill:none;stroke:#000000;stroke-width:1;stroke-linecap:square;stroke-linejoin:miter;stroke-miterlimit:10;stroke-opacity:1;stroke-dasharray:none"
           d="M 37.828125,349.2 493.2,349.2"
           inkscape:connector-curvature="0" />
        <path
           id="path3033"
           style="fill:none;stroke:#000000;stroke-width:1;stroke-linecap:square;stroke-linejoin:miter;stroke-miterlimit:10;stroke-opacity:1;stroke-dasharray:none"
           d="m 493.2,43.2 0,306"
           inkscape:connector-curvature="0" />
        <path
           id="path3035"
           style="fill:none;stroke:#000000;stroke-width:1;stroke-linecap:square;stroke-linejoin:miter;stroke-miterlimit:10;stroke-opacity:1;stroke-dasharray:none"
           d="M 37.828125,43.2 493.2,43.2"
           inkscape:connector-curvature="0" />
        <path
           id="path3037"
           style="fill:none;stroke:#000000;stroke-width:1;stroke-linecap:square;stroke-linejoin:miter;stroke-miterlimit:10;stroke-opacity:1;stroke-dasharray:none"
           d="m 37.828125,43.2 0,306"
           inkscape:connector-curvature="0" />
        <path
           id="path3039"
           style="fill:#000000;fill-opacity:1;fill-rule:nonzero;stroke:#000000;stroke-width:0.5;stroke-linecap:butt;stroke-linejoin:round;stroke-miterlimit:10;stroke-opacity:1;stroke-dasharray:none"
           d="m 37.828125,43.2 0,4"
           inkscape:connector-curvature="0" />
        <path
           id="path3041"
           style="fill:#000000;fill-opacity:1;fill-rule:nonzero;stroke:#000000;stroke-width:0.5;stroke-linecap:butt;stroke-linejoin:round;stroke-miterlimit:10;stroke-opacity:1;stroke-dasharray:none"
           d="m 37.828125,349.2 0,-4"
           inkscape:connector-curvature="0" />
        <text
           id="text3043"
           transform="matrix(1,0,0,-1,29.078125,30.075)">
          <tspan
             id="tspan3045"
             sodipodi:role="line"
             y="0"
             x="0 7.632 11.448"
             style="font-size:12px;font-variant:normal;font-weight:normal;writing-mode:lr-tb;fill:#000000;fill-opacity:1;fill-rule:nonzero;stroke:none;font-family:BitstreamVeraSans;-inkscape-font-specification:BitstreamVeraSans-Roman">0.0</tspan>
        </text>
        <path
           id="path3047"
           style="fill:#000000;fill-opacity:1;fill-rule:nonzero;stroke:#000000;stroke-width:0.5;stroke-linecap:butt;stroke-linejoin:round;stroke-miterlimit:10;stroke-opacity:1;stroke-dasharray:none"
           d="m 142.51131,43.2 0,4"
           inkscape:connector-curvature="0" />
        <path
           id="path3049"
           style="fill:#000000;fill-opacity:1;fill-rule:nonzero;stroke:#000000;stroke-width:0.5;stroke-linecap:butt;stroke-linejoin:round;stroke-miterlimit:10;stroke-opacity:1;stroke-dasharray:none"
           d="m 142.51131,349.2 0,-4"
           inkscape:connector-curvature="0" />
        <text
           id="text3051"
           transform="matrix(1,0,0,-1,134.01913,30.075)">
          <tspan
             id="tspan3053"
             sodipodi:role="line"
             y="0"
             x="0 7.632 11.448"
             style="font-size:12px;font-variant:normal;font-weight:normal;writing-mode:lr-tb;fill:#000000;fill-opacity:1;fill-rule:nonzero;stroke:none;font-family:BitstreamVeraSans;-inkscape-font-specification:BitstreamVeraSans-Roman">1.0</tspan>
        </text>
        <path
           id="path3055"
           style="fill:#000000;fill-opacity:1;fill-rule:nonzero;stroke:#000000;stroke-width:0.5;stroke-linecap:butt;stroke-linejoin:round;stroke-miterlimit:10;stroke-opacity:1;stroke-dasharray:none"
           d="m 247.1945,43.2 0,4"
           inkscape:connector-curvature="0" />
        <path
           id="path3057"
           style="fill:#000000;fill-opacity:1;fill-rule:nonzero;stroke:#000000;stroke-width:0.5;stroke-linecap:butt;stroke-linejoin:round;stroke-miterlimit:10;stroke-opacity:1;stroke-dasharray:none"
           d="m 247.1945,349.2 0,-4"
           inkscape:connector-curvature="0" />
        <text
           id="text3059"
           transform="matrix(1,0,0,-1,238.48357,30.075)">
          <tspan
             id="tspan3061"
             sodipodi:role="line"
             y="0"
             x="0 7.632 11.448"
             style="font-size:12px;font-variant:normal;font-weight:normal;writing-mode:lr-tb;fill:#000000;fill-opacity:1;fill-rule:nonzero;stroke:none;font-family:BitstreamVeraSans;-inkscape-font-specification:BitstreamVeraSans-Roman">2.0</tspan>
        </text>
        <path
           id="path3063"
           style="fill:#000000;fill-opacity:1;fill-rule:nonzero;stroke:#000000;stroke-width:0.5;stroke-linecap:butt;stroke-linejoin:round;stroke-miterlimit:10;stroke-opacity:1;stroke-dasharray:none"
           d="m 351.87769,43.2 0,4"
           inkscape:connector-curvature="0" />
        <path
           id="path3065"
           style="fill:#000000;fill-opacity:1;fill-rule:nonzero;stroke:#000000;stroke-width:0.5;stroke-linecap:butt;stroke-linejoin:round;stroke-miterlimit:10;stroke-opacity:1;stroke-dasharray:none"
           d="m 351.87769,349.2 0,-4"
           inkscape:connector-curvature="0" />
        <text
           id="text3067"
           transform="matrix(1,0,0,-1,343.19019,30.075)">
          <tspan
             id="tspan3069"
             sodipodi:role="line"
             y="0"
             x="0 7.632 11.448"
             style="font-size:12px;font-variant:normal;font-weight:normal;writing-mode:lr-tb;fill:#000000;fill-opacity:1;fill-rule:nonzero;stroke:none;font-family:BitstreamVeraSans;-inkscape-font-specification:BitstreamVeraSans-Roman">3.0</tspan>
        </text>
        <path
           id="path3071"
           style="fill:#000000;fill-opacity:1;fill-rule:nonzero;stroke:#000000;stroke-width:0.5;stroke-linecap:butt;stroke-linejoin:round;stroke-miterlimit:10;stroke-opacity:1;stroke-dasharray:none"
           d="m 456.56088,43.2 0,4"
           inkscape:connector-curvature="0" />
        <path
           id="path3073"
           style="fill:#000000;fill-opacity:1;fill-rule:nonzero;stroke:#000000;stroke-width:0.5;stroke-linecap:butt;stroke-linejoin:round;stroke-miterlimit:10;stroke-opacity:1;stroke-dasharray:none"
           d="m 456.56088,349.2 0,-4"
           inkscape:connector-curvature="0" />
        <text
           id="text3075"
           transform="matrix(1,0,0,-1,447.70932,30.075)">
          <tspan
             id="tspan3077"
             sodipodi:role="line"
             y="0"
             x="0 7.632 11.448"
             style="font-size:12px;font-variant:normal;font-weight:normal;writing-mode:lr-tb;fill:#000000;fill-opacity:1;fill-rule:nonzero;stroke:none;font-family:BitstreamVeraSans;-inkscape-font-specification:BitstreamVeraSans-Roman">4.0</tspan>
        </text>
        <text
           id="text3079"
           transform="matrix(1,0,0,-1,241.11562,13.45)">
          <tspan
             id="tspan3081"
             sodipodi:role="line"
             y="0"
             x="0 8.2200003 15.6 18.936001 23.639999 27.455999 30.792 38.400002 42.216"
             style="font-size:12px;font-variant:normal;font-weight:normal;writing-mode:lr-tb;fill:#000000;fill-opacity:1;fill-rule:nonzero;stroke:none;font-family:BitstreamVeraSans;-inkscape-font-specification:BitstreamVeraSans-Roman">Zeit in h</tspan>
        </text>
        <path
           id="path3083"
           style="fill:#000000;fill-opacity:1;fill-rule:nonzero;stroke:#000000;stroke-width:0.5;stroke-linecap:butt;stroke-linejoin:round;stroke-miterlimit:10;stroke-opacity:1;stroke-dasharray:none"
           d="m 37.828125,43.2 4,0"
           inkscape:connector-curvature="0" />
        <path
           id="path3085"
           style="fill:#000000;fill-opacity:1;fill-rule:nonzero;stroke:#000000;stroke-width:0.5;stroke-linecap:butt;stroke-linejoin:round;stroke-miterlimit:10;stroke-opacity:1;stroke-dasharray:none"
           d="m 493.2,43.2 -4,0"
           inkscape:connector-curvature="0" />
        <text
           id="text3087"
           transform="matrix(1,0,0,-1,27.78125,39.8875)">
          <tspan
             id="tspan3089"
             y="0"
             x="0"
             style="font-size:12px;font-variant:normal;font-weight:normal;writing-mode:lr-tb;fill:#000000;fill-opacity:1;fill-rule:nonzero;stroke:none;font-family:BitstreamVeraSans;-inkscape-font-specification:BitstreamVeraSans-Roman">0</tspan>
        </text>
        <path
           id="path3091"
           style="fill:#000000;fill-opacity:1;fill-rule:nonzero;stroke:#000000;stroke-width:0.5;stroke-linecap:butt;stroke-linejoin:round;stroke-miterlimit:10;stroke-opacity:1;stroke-dasharray:none"
           d="m 37.828125,104.4 4,0"
           inkscape:connector-curvature="0" />
        <path
           id="path3093"
           style="fill:#000000;fill-opacity:1;fill-rule:nonzero;stroke:#000000;stroke-width:0.5;stroke-linecap:butt;stroke-linejoin:round;stroke-miterlimit:10;stroke-opacity:1;stroke-dasharray:none"
           d="m 493.2,104.4 -4,0"
           inkscape:connector-curvature="0" />
        <text
           id="text3095"
           transform="matrix(1,0,0,-1,28.265625,101.0875)">
          <tspan
             id="tspan3097"
             y="0"
             x="0"
             style="font-size:12px;font-variant:normal;font-weight:normal;writing-mode:lr-tb;fill:#000000;fill-opacity:1;fill-rule:nonzero;stroke:none;font-family:BitstreamVeraSans;-inkscape-font-specification:BitstreamVeraSans-Roman">2</tspan>
        </text>
        <path
           id="path3099"
           style="fill:#000000;fill-opacity:1;fill-rule:nonzero;stroke:#000000;stroke-width:0.5;stroke-linecap:butt;stroke-linejoin:round;stroke-miterlimit:10;stroke-opacity:1;stroke-dasharray:none"
           d="m 37.828125,165.6 4,0"
           inkscape:connector-curvature="0" />
        <path
           id="path3101"
           style="fill:#000000;fill-opacity:1;fill-rule:nonzero;stroke:#000000;stroke-width:0.5;stroke-linecap:butt;stroke-linejoin:round;stroke-miterlimit:10;stroke-opacity:1;stroke-dasharray:none"
           d="m 493.2,165.6 -4,0"
           inkscape:connector-curvature="0" />
        <text
           id="text3103"
           transform="matrix(1,0,0,-1,27.453125,162.2875)">
          <tspan
             id="tspan3105"
             y="0"
             x="0"
             style="font-size:12px;font-variant:normal;font-weight:normal;writing-mode:lr-tb;fill:#000000;fill-opacity:1;fill-rule:nonzero;stroke:none;font-family:BitstreamVeraSans;-inkscape-font-specification:BitstreamVeraSans-Roman">4</tspan>
        </text>
        <path
           id="path3107"
           style="fill:#000000;fill-opacity:1;fill-rule:nonzero;stroke:#000000;stroke-width:0.5;stroke-linecap:butt;stroke-linejoin:round;stroke-miterlimit:10;stroke-opacity:1;stroke-dasharray:none"
           d="m 37.828125,226.8 4,0"
           inkscape:connector-curvature="0" />
        <path
           id="path3109"
           style="fill:#000000;fill-opacity:1;fill-rule:nonzero;stroke:#000000;stroke-width:0.5;stroke-linecap:butt;stroke-linejoin:round;stroke-miterlimit:10;stroke-opacity:1;stroke-dasharray:none"
           d="m 493.2,226.8 -4,0"
           inkscape:connector-curvature="0" />
        <text
           id="text3111"
           transform="matrix(1,0,0,-1,27.796875,223.4875)">
          <tspan
             id="tspan3113"
             y="0"
             x="0"
             style="font-size:12px;font-variant:normal;font-weight:normal;writing-mode:lr-tb;fill:#000000;fill-opacity:1;fill-rule:nonzero;stroke:none;font-family:BitstreamVeraSans;-inkscape-font-specification:BitstreamVeraSans-Roman">6</tspan>
        </text>
        <path
           id="path3115"
           style="fill:#000000;fill-opacity:1;fill-rule:nonzero;stroke:#000000;stroke-width:0.5;stroke-linecap:butt;stroke-linejoin:round;stroke-miterlimit:10;stroke-opacity:1;stroke-dasharray:none"
           d="m 37.828125,288 4,0"
           inkscape:connector-curvature="0" />
        <path
           id="path3117"
           style="fill:#000000;fill-opacity:1;fill-rule:nonzero;stroke:#000000;stroke-width:0.5;stroke-linecap:butt;stroke-linejoin:round;stroke-miterlimit:10;stroke-opacity:1;stroke-dasharray:none"
           d="m 493.2,288 -4,0"
           inkscape:connector-curvature="0" />
        <text
           id="text3119"
           transform="matrix(1,0,0,-1,27.828125,284.6875)">
          <tspan
             id="tspan3121"
             y="0"
             x="0"
             style="font-size:12px;font-variant:normal;font-weight:normal;writing-mode:lr-tb;fill:#000000;fill-opacity:1;fill-rule:nonzero;stroke:none;font-family:BitstreamVeraSans;-inkscape-font-specification:BitstreamVeraSans-Roman">8</tspan>
        </text>
        <path
           id="path3123"
           style="fill:#000000;fill-opacity:1;fill-rule:nonzero;stroke:#000000;stroke-width:0.5;stroke-linecap:butt;stroke-linejoin:round;stroke-miterlimit:10;stroke-opacity:1;stroke-dasharray:none"
           d="m 37.828125,349.2 4,0"
           inkscape:connector-curvature="0" />
        <path
           id="path3125"
           style="fill:#000000;fill-opacity:1;fill-rule:nonzero;stroke:#000000;stroke-width:0.5;stroke-linecap:butt;stroke-linejoin:round;stroke-miterlimit:10;stroke-opacity:1;stroke-dasharray:none"
           d="m 493.2,349.2 -4,0"
           inkscape:connector-curvature="0" />
        <text
           id="text3127"
           transform="matrix(0,1,1,0,19.953125,152.23125)">
          <tspan
             id="tspan3129"
             sodipodi:role="line"
             y="0"
             x="0 6.684 14.064 17.4 23.652 28.356001 35.964001 43.571999 51.192001 55.007999 58.344002 65.952003 69.767998 76.716003"
             style="font-size:12px;font-variant:normal;font-weight:normal;writing-mode:lr-tb;fill:#000000;fill-opacity:1;fill-rule:nonzero;stroke:none;font-family:BitstreamVeraSans;-inkscape-font-specification:BitstreamVeraSans-Roman">Leistung in kW</tspan>
        </text>
        <path
           id="path3131"
           style="fill:#ffffff;fill-opacity:1;fill-rule:nonzero;stroke:#000000;stroke-width:1;stroke-linecap:butt;stroke-linejoin:miter;stroke-miterlimit:10;stroke-opacity:1;stroke-dasharray:none"
           d="m 275.8,316.6 211.4,0 0,26.6 -211.4,0 0,-26.6 z"
           inkscape:connector-curvature="0" />
        <path
           id="path3133"
           style="fill:none;stroke:#0000ff;stroke-width:1;stroke-linecap:square;stroke-linejoin:round;stroke-miterlimit:10;stroke-opacity:1;stroke-dasharray:none"
           d="m 284.2,330.6 16.8,0"
           inkscape:connector-curvature="0" />
        <g
           transform="translate(314.2,326.4)"
           id="g3135">
          <text
             id="text3137"
             transform="matrix(1,0,0,-1,2.984375,3.96875)">
            <tspan
               id="tspan3139"
               y="0"
               x="0"
               style="font-size:12px;font-variant:normal;font-weight:normal;writing-mode:lr-tb;fill:#000000;fill-opacity:1;fill-rule:nonzero;stroke:none;font-family:Cmr10;-inkscape-font-specification:Cmr10"></tspan>
          </text>
          <text
             id="text3141"
             transform="matrix(1,0,0,-1,0,0.703125)">
            <tspan
               id="tspan3143"
               y="0"
               x="0"
               style="font-size:12px;font-variant:normal;font-weight:normal;writing-mode:lr-tb;fill:#000000;fill-opacity:1;fill-rule:nonzero;stroke:none;font-family:Cmmi10;-inkscape-font-specification:Cmmi10">Q</tspan>
          </text>
          <text
             id="text3145"
             transform="matrix(1,0,0,-1,9.4804688,-2.358)">
            <tspan
               id="tspan3147"
               sodipodi:role="line"
               y="0"
               x="0 3.7283204"
               style="font-size:8.39999962px;font-variant:normal;font-weight:normal;writing-mode:lr-tb;fill:#000000;fill-opacity:1;fill-rule:nonzero;stroke:none;font-family:Cmr10;-inkscape-font-specification:Cmr10">ev</tspan>
          </text>
        </g>
        <path
           id="path3149"
           style="fill:none;stroke:#008000;stroke-width:1;stroke-linecap:square;stroke-linejoin:round;stroke-miterlimit:10;stroke-opacity:1;stroke-dasharray:none"
           d="m 359.8,330.6 16.8,0"
           inkscape:connector-curvature="0" />
        <g
           transform="translate(389.8,326.4)"
           id="g3151">
          <text
             id="text3153"
             transform="matrix(1,0,0,-1,2.984375,3.96875)">
            <tspan
               id="tspan3155"
               y="0"
               x="0"
               style="font-size:12px;font-variant:normal;font-weight:normal;writing-mode:lr-tb;fill:#000000;fill-opacity:1;fill-rule:nonzero;stroke:none;font-family:Cmr10;-inkscape-font-specification:Cmr10"></tspan>
          </text>
          <text
             id="text3157"
             transform="matrix(1,0,0,-1,0,0.703125)">
            <tspan
               id="tspan3159"
               y="0"
               x="0"
               style="font-size:12px;font-variant:normal;font-weight:normal;writing-mode:lr-tb;fill:#000000;fill-opacity:1;fill-rule:nonzero;stroke:none;font-family:Cmmi10;-inkscape-font-specification:Cmmi10">Q</tspan>
          </text>
          <text
             id="text3161"
             transform="matrix(1,0,0,-1,9.4804688,-2.358)">
            <tspan
               id="tspan3163"
               sodipodi:role="line"
               y="0"
               x="0 3.7283204"
               style="font-size:8.39999962px;font-variant:normal;font-weight:normal;writing-mode:lr-tb;fill:#000000;fill-opacity:1;fill-rule:nonzero;stroke:none;font-family:Cmr10;-inkscape-font-specification:Cmr10">cd</tspan>
          </text>
        </g>
        <path
           id="path3165"
           style="fill:none;stroke:#ff0000;stroke-width:1;stroke-linecap:square;stroke-linejoin:round;stroke-miterlimit:10;stroke-opacity:1;stroke-dasharray:none"
           d="m 435.4,330.6 16.8,0"
           inkscape:connector-curvature="0" />
        <g
           transform="translate(465.4,326.4)"
           id="g3167">
          <text
             id="text3169"
             transform="matrix(1,0,0,-1,0,0.796875)">
            <tspan
               id="tspan3171"
               y="0"
               x="0"
               style="font-size:12px;font-variant:normal;font-weight:normal;writing-mode:lr-tb;fill:#000000;fill-opacity:1;fill-rule:nonzero;stroke:none;font-family:Cmmi10;-inkscape-font-specification:Cmmi10">P</tspan>
          </text>
          <text
             id="text3173"
             transform="matrix(1,0,0,-1,7.7050781,-2.26425)">
            <tspan
               id="tspan3175"
               sodipodi:role="line"
               y="0"
               x="0 3.7283204"
               style="font-size:8.39999962px;font-variant:normal;font-weight:normal;writing-mode:lr-tb;fill:#000000;fill-opacity:1;fill-rule:nonzero;stroke:none;font-family:Cmr10;-inkscape-font-specification:Cmr10">cp</tspan>
          </text>
        </g>
      </g>
    </g>
    <path
       style="fill:none;stroke:#4d4d4d;stroke-width:2;stroke-linecap:butt;stroke-linejoin:miter;stroke-opacity:1;stroke-miterlimit:4;stroke-dasharray:2, 6;stroke-dashoffset:0"
       d="m 475.78183,708.40527 0,-302.5407 130.30968,0"
       id="path3269"
       inkscape:connector-curvature="0" />
    <path
       style="fill:#4d4d4d;stroke:#4d4d4d;stroke-width:2;stroke-linecap:butt;stroke-linejoin:miter;stroke-opacity:1;stroke-miterlimit:4;stroke-dasharray:2, 6;stroke-dashoffset:0"
       d="m 475.78185,499.30366 129.8046,0"
       id="path3271"
       inkscape:connector-curvature="0" />
    <path
       style="opacity:0.5;fill:#ff0000;stroke:#ff0000;stroke-width:1px;stroke-linecap:butt;stroke-linejoin:miter;stroke-opacity:1"
       d="m 475.27677,404.85456 c 56.06347,8.02318 130.81476,48.99224 130.81476,48.99224 l 0,-48.42911"
       id="path3273"
       inkscape:connector-curvature="0"
       sodipodi:nodetypes="ccc" />
    <path
       style="opacity:0.5;fill:#ff0000;stroke:#ff0000;stroke-width:0.99999994000000003px;stroke-linecap:butt;stroke-linejoin:miter;stroke-opacity:1"
       d="m 474.77169,498.79854 c 41.41625,1.12239 129.8046,40.4061 129.8046,40.4061 l 0,-39.8449"
       id="path3277"
       inkscape:connector-curvature="0"
       sodipodi:nodetypes="ccc" />
  </g>
</svg>
