<?xml version="1.0" encoding="UTF-8" standalone="no"?>
<!-- Created with Inkscape (http://www.inkscape.org/) -->

<svg
   xmlns:dc="http://purl.org/dc/elements/1.1/"
   xmlns:cc="http://creativecommons.org/ns#"
   xmlns:rdf="http://www.w3.org/1999/02/22-rdf-syntax-ns#"
   xmlns:svg="http://www.w3.org/2000/svg"
   xmlns="http://www.w3.org/2000/svg"
   xmlns:sodipodi="http://sodipodi.sourceforge.net/DTD/sodipodi-0.dtd"
   xmlns:inkscape="http://www.inkscape.org/namespaces/inkscape"
   width="744.09448819"
   height="1052.3622047"
   id="svg2"
   version="1.1"
   inkscape:version="0.48.2 r9819"
   sodipodi:docname="New document 1">
  <defs
     id="defs4">
    <clipPath
       id="clipPath3063"
       clipPathUnits="userSpaceOnUse">
      <path
         id="path3065"
         d="m 45.140625,43.2 448.059375,0 0,270 -448.059375,0 0,-270 z" />
    </clipPath>
    <clipPath
       id="clipPath3053"
       clipPathUnits="userSpaceOnUse">
      <path
         id="path3055"
         d="m 45.140625,43.2 448.059375,0 0,270 -448.059375,0 0,-270 z" />
    </clipPath>
    <clipPath
       id="clipPath3043"
       clipPathUnits="userSpaceOnUse">
      <path
         id="path3045"
         d="m 45.140625,43.2 448.059375,0 0,270 -448.059375,0 0,-270 z" />
    </clipPath>
    <clipPath
       id="clipPath3033"
       clipPathUnits="userSpaceOnUse">
      <path
         id="path3035"
         d="m 45.140625,43.2 448.059375,0 0,270 -448.059375,0 0,-270 z" />
    </clipPath>
    <clipPath
       id="clipPath3023"
       clipPathUnits="userSpaceOnUse">
      <path
         id="path3025"
         d="m 45.140625,43.2 448.059375,0 0,270 -448.059375,0 0,-270 z" />
    </clipPath>
    <clipPath
       id="clipPath3013"
       clipPathUnits="userSpaceOnUse">
      <path
         id="path3015"
         d="m 45.140625,43.2 448.059375,0 0,270 -448.059375,0 0,-270 z" />
    </clipPath>
    <clipPath
       id="clipPath3003"
       clipPathUnits="userSpaceOnUse">
      <path
         id="path3005"
         d="m 45.140625,43.2 448.059375,0 0,270 -448.059375,0 0,-270 z" />
    </clipPath>
  </defs>
  <sodipodi:namedview
     id="base"
     pagecolor="#ffffff"
     bordercolor="#666666"
     borderopacity="1.0"
     inkscape:pageopacity="0.0"
     inkscape:pageshadow="2"
     inkscape:zoom="1"
     inkscape:cx="603.34847"
     inkscape:cy="602.58997"
     inkscape:document-units="px"
     inkscape:current-layer="layer1"
     showgrid="false"
     inkscape:window-width="1920"
     inkscape:window-height="1017"
     inkscape:window-x="-8"
     inkscape:window-y="-8"
     inkscape:window-maximized="1" />
  <metadata
     id="metadata7">
    <rdf:RDF>
      <cc:Work
         rdf:about="">
        <dc:format>image/svg+xml</dc:format>
        <dc:type
           rdf:resource="http://purl.org/dc/dcmitype/StillImage" />
        <dc:title></dc:title>
      </cc:Work>
    </rdf:RDF>
  </metadata>
  <g
     inkscape:label="Layer 1"
     inkscape:groupmode="layer"
     id="layer1">
    <g
       transform="matrix(1.25,0,0,-1.25,60,734.86218)"
       inkscape:label="AT10pctOC"
       id="g2993">
      <path
         id="path2995"
         style="fill:#ffffff;fill-opacity:1;fill-rule:nonzero;stroke:none"
         d="M 0,0 504,0 504,324 0,324 0,0 z"
         inkscape:connector-curvature="0" />
      <path
         id="path2997"
         style="fill:#ffffff;fill-opacity:1;fill-rule:nonzero;stroke:none"
         d="m 45.140625,43.2 448.059375,0 0,270 -448.059375,0 0,-270 z"
         inkscape:connector-curvature="0" />
      <g
         id="g2999">
        <g
           clip-path="url(#clipPath3003)"
           id="g3001">
          <path
             id="path3007"
             style="fill:#008000;fill-opacity:0.2;fill-rule:nonzero;stroke:#008000;stroke-width:1;stroke-linecap:butt;stroke-linejoin:miter;stroke-miterlimit:10;stroke-opacity:0.2;stroke-dasharray:none"
             d="m 45.140625,200.7 0,0 448.059375,0 0,0 -448.059375,0 z"
             inkscape:connector-curvature="0" />
        </g>
      </g>
      <g
         id="g3009">
        <g
           clip-path="url(#clipPath3013)"
           id="g3011">
          <path
             id="path3017"
             style="fill:none;stroke:#0000ff;stroke-width:1;stroke-linecap:square;stroke-linejoin:round;stroke-miterlimit:10;stroke-opacity:1;stroke-dasharray:none"
             d="m 45.140625,211.275 0.746766,0.225 1.493531,0 0.746765,0.225 1.493532,0 2.240297,-0.675 2.240296,0 0.746766,0.225 0.746766,0 0.746765,-0.225 2.987063,0 0.746766,-0.225 0.746765,0 0.746766,-0.225 2.240297,0 0.746765,-0.225 1.493531,0 0.746766,-0.225 0.746766,-0.45 0.746765,-0.225 1.493532,-0.9 0.746765,0.45 1.493531,0 0.746766,-0.675 0.746766,0.225 0.746765,0.45 1.493532,0 0.746765,-0.225 0.746766,0.225 0.746765,-0.45 1.493532,0 0.746765,0.45 2.240297,0 1.493531,-0.45 0.746766,0 0.746766,1.35 0.746765,-1.125 0.746766,-0.45 0.746766,-0.225 0.746765,0.225 0.746766,0 0.746766,0.225 1.493531,-0.45 0.746765,0 1.493532,-0.45 0.746765,0.225 0.746766,0.45 1.493531,0 0.746766,-0.45 0.746765,0 0.746766,-0.675 0.746766,0 0.746764,0.45 1.49353,0.45 0.74677,-0.675 0.74676,-0.225 2.2403,0 0.74677,0.225 1.49353,-0.45 0.74676,1.8 0.74677,-0.9 1.49353,-0.45 0.74677,0 0.74676,-0.225 2.98706,0 0.74677,0.675 0.74677,0.9 0.74676,0.225 2.98706,-0.9 1.49353,0.9 0.74677,-0.225 0.74677,0 0.74676,-0.9 0.74677,0.45 0.74676,0 0.74677,-0.225 0.74676,1.125 0.74677,-0.45 2.2403,-0.675 1.49353,0 0.74676,0.9 0.74677,0.675 0.74676,0 0.74677,1.35 0.74677,0.225 0.74676,-0.45 0.74677,-0.675 0.74676,0 0.74677,0.675 0.74676,-1.125 0.74677,0.225 0.74676,-0.225 0.74677,2.475 0.74677,1.8 0.74676,0.225 0.74677,2.025 0.74676,0 0.74677,-1.125 0.74676,-0.45 0.74677,-0.675 0.74677,-0.225 0.74676,0.675 0.74677,0.45 0.74676,-0.675 0.74677,-0.225 0.74676,0 0.74677,-0.225 0.74676,0.225 0.74677,1.125 0.74677,0 0.74676,0.225 1.49353,1.35 1.49353,-0.45 0.74677,0.675 0.74677,-0.225 0.74676,0 0.74677,-0.45 0.74676,0.675 0.74677,1.35 0.74676,0.675 0.74677,-1.575 0.74676,-0.225 0.74677,-0.45 0.74677,0 1.49353,-0.45 0.74676,1.125 0.74677,0.675 0.74676,0.225 0.74677,-0.9 0.74677,-0.225 0.74676,0.225 0.74677,1.35 0.74676,0.675 0.74677,1.575 0.74676,0 0.74677,-0.45 0.74676,0.675 0.74677,-0.675 0.74677,-0.45 0.74676,0.45 0.74677,0.9 0.74676,0 0.74677,-0.675 0.74676,-0.225 0.74677,0 0.74677,-0.675 2.24029,2.7 0.74677,-0.45 0.74676,0.675 0.74677,0.9 0.74676,-0.675 0.74677,-0.9 0.74677,-0.225 0.74676,0 0.74677,0.675 0.74676,-0.225 0.74677,0.9 0.74676,1.35 1.49354,-1.8 0.74676,-0.225 0.74677,0.225 1.49353,1.35 0.74676,-0.9 1.49353,0 0.74677,0.225 1.49353,0.9 0.74677,0.675 0.74676,0.225 1.49353,0.9 0.74677,0 0.74677,1.125 0.74676,-0.225 2.2403,-2.7 0.74676,0 0.74677,0.45 0.74676,-0.45 0.74677,-0.225 0.74677,0.675 0.74676,0.9 0.74677,-0.225 0.74676,1.35 0.74677,0.9 0.74676,-0.9 0.74677,-0.225 0.74677,2.025 0.74676,0.675 0.74677,0.45 0.74676,-0.45 0.74677,-2.025 0.74676,0 0.74677,0.675 0.74676,0.45 0.74677,-1.125 0.74677,-0.675 0.74676,-0.45 0.74677,1.35 0.74676,-0.225 0.74677,-0.9 0.74676,-0.675 0.74677,0.45 0.74677,0.225 0.74676,-0.45 0.74677,0.45 0.74676,-0.225 0.74677,0.45 0.74676,0 0.74677,0.45 1.49353,-0.45 0.74677,0 0.74676,1.8 0.74677,0 0.74676,-0.45 0.74677,0.45 0.74676,-2.25 0.74677,0.675 0.74677,-0.225 0.74676,0.675 0.74677,0.9 2.24029,0.675 0.74677,-0.9 0.74676,-0.675 0.74677,1.125 0.74677,0.45 0.74676,-0.45 2.2403,-0.675 0.74676,0.45 1.49354,0.45 0.74676,0.9 0.74677,0.45 0.74676,1.125 0.74677,0.225 0.74676,-0.675 0.74677,0.225 0.74676,0.9 1.49354,0 0.74676,0.225 0.74677,-1.575 0.74676,-0.675 0.74677,0.45 0.74676,0.675 0.74677,-0.45 0.74677,0.45 0.74676,0 0.74677,-1.125 0.74676,1.125 0.74677,0.45 0.74676,-0.45 0.74677,-0.225 0.74676,0.225 0.74677,0.45 0.74677,0.225 0.74676,0.45 1.49353,-0.45 0.74677,0.675 0.74676,-0.9 0.74677,-0.225 1.49353,0 0.74677,-0.9 0.74676,1.125 0.74677,-0.225 0.74676,0.675 0.74677,-0.225 0.74677,0 0.74676,-0.675 0.74677,-2.025 0.74676,-0.675 0.74677,0 0.74676,0.225 0.74677,0.9 2.2403,-0.675 0.74676,-0.675 0.74677,-0.45 0.74676,0.225 0.74677,-0.45 1.49353,0.45 0.74676,-0.45 0.74677,-1.125 1.49353,0 0.74677,0.45 0.74676,1.125 0.74677,0.9 0.74676,0.45 0.74677,0.9 0.74677,-1.575 0.74676,1.125 1.49353,0.9 0.74677,-1.8 0.74676,-0.9 0.74677,0.675 0.74676,1.35 0.74677,0.9 0.74677,-0.225 0.74676,0 0.74677,-0.9 1.49353,-0.45 0.74676,0.675 0.74677,-1.125 0.74677,-0.45 0.74676,0.9 0.74677,0.45 0.74676,0.9 0.74677,0 0.74676,0.45 0.74677,-0.45 0.74676,1.125 0.74677,0 0.74677,0.45 0.74676,0.675 0.74677,-0.225 0.74676,-0.45 0.74677,0.675 0.74676,-0.225 0.74677,0.45 0.74677,0.225 0.74676,-0.45 0.74677,-1.575 0.74676,0.45 0.74677,-0.45 0.74676,0.675 1.49353,0.45 1.49354,0.9 0.74676,0 0.74677,0.45 0.74676,-1.125 0.74677,0.675 0.74676,0.45 0.74677,0 1.49353,-0.9 0.74677,-0.225 2.24029,0 0.74677,0.45 0.74676,0.225 0.74677,0 0.74677,0.45 0.74676,0.225 0.74677,-0.225 0.74676,0 1.49353,-1.8 0.74677,0.45 0.74677,0.225 0.74676,0.45 0.74677,0.225 0.74676,0.675 0.74677,-0.225 0.74676,0.225 0.74677,0.45 0.74676,0 0.74677,0.9 1.49353,-0.45 0.74677,-0.45 0.74676,0.45 0.74677,0 1.49353,0.9 2.2403,0 0.74676,0.45 0.74677,0 0.74676,-0.225 0.74677,-0.45 0.74676,0.45 2.2403,0.675 0.74677,-0.675 0.74676,-0.225 1.49353,1.8 0.74677,0 0.74677,-0.225 0.74676,-1.35 0.74677,-0.225 0.74676,0.45 0.74677,-0.225 0.74676,-1.125 0.74677,-0.45 0.74676,0.45 0.74677,0 0.74677,-0.9 0.74676,0.225 1.49353,1.35 0.74677,0.225 0.74676,0 0.74677,1.575 0.74677,-0.675 0.74676,-0.45 0.74677,1.125 0.74676,-0.675 0.74677,-0.45 0.74676,-0.225 0.74677,-0.9 1.49353,-0.45 0.74677,0 0.74676,0.45 0.74677,-0.9 0.74676,0 0.74677,0.45 0.74676,0.675 1.49354,0 0.74676,-1.125 0.74677,-0.675 0.74676,0.675 0.74677,0.45 1.49353,0 0.74676,0.675 0.74677,0 1.49353,-0.9 0.74677,0.225 1.49353,0 0.74676,0.9 0.74677,0.225 0.74677,-0.675 0.74676,-0.45 0.74677,0.675 0.74676,0 0.74677,0.45 0.74676,-0.9 0.74677,-0.225 0.74676,-0.9 0.74677,0.225 0.74677,-1.8 0.74676,0.45 0.74677,0.9 0.74676,0.675 0.74677,0 1.49353,-1.35 0.74677,0.225 0.74676,0.9 0.74677,0.225 0.74676,-0.225 0.74677,0.9 0.74676,0.45 0.74677,0 0.74676,-0.675 0.74677,0.225 0.74677,0.675 0.74676,-0.225 0.74677,0 0.74676,0.225 0.74677,0 0.74676,-0.225 1.49354,-1.35 0.74676,0.45 0.74677,-0.45 0.74676,0 0.74677,0.225 0.74676,-1.125 0.74677,-0.9 2.2403,1.35 0.74676,-0.225 0.74677,0.9 0.74676,0.45 2.2403,-2.025 1.49353,-1.8 0.74677,0.675 0.74676,0 0.74677,0.675 0.74676,-0.45 0.74677,0.675 0.74676,0.225 0.74677,-0.45 0.74677,0.225 1.49353,0.9 0.74676,0 0.74677,0.9 0.74676,0.45 1.49354,0.45 0.74676,-0.225 0.74677,0.225 0.74676,-0.225 1.49353,-1.35 0.74677,-0.225 0.74676,0 0.74677,0.45 0.74677,0 0.74676,0.45 0.74677,-0.675 1.49353,0 0.74676,-0.675 0.74677,0.45 0.74677,1.8 1.49353,-0.9 0.74676,0.225 0.74677,-0.9 0.74676,0.675 0.74677,0.45 0.74676,0 0.74677,-2.25 0.74677,-0.45 0.74676,0.45 0.74677,-0.675 0.74676,0.225 0.74677,0 0.74676,0.45 0.74677,1.8 1.49353,-0.9 0.74677,0.45 0.74676,-0.45 0.74677,-0.675 0.74676,0.45 0.74677,-0.675 2.2403,0.675 0.74676,0.45 0.74677,-1.125 0.74676,0.9 0.74677,0.675 0.74676,0 0,0"
             inkscape:connector-curvature="0" />
        </g>
      </g>
      <g
         id="g3019">
        <g
           clip-path="url(#clipPath3023)"
           id="g3021">
          <path
             id="path3027"
             style="fill:none;stroke:#00008b;stroke-width:2;stroke-linecap:butt;stroke-linejoin:round;stroke-miterlimit:10;stroke-opacity:1;stroke-dasharray:6, 6;stroke-dashoffset:0"
             d="m 45.140625,225.08625 447.312605,0 0,0"
             inkscape:connector-curvature="0" />
        </g>
      </g>
      <g
         id="g3029">
        <g
           clip-path="url(#clipPath3033)"
           id="g3031">
          <path
             id="path3037"
             style="fill:none;stroke:#ff0000;stroke-width:1;stroke-linecap:square;stroke-linejoin:round;stroke-miterlimit:10;stroke-opacity:1;stroke-dasharray:none"
             d="m 45.140625,186.75 0.746766,-0.225 0.746765,0 0.746766,-0.225 0.746765,0 0.746766,0.225 0.746766,0 0.746765,-0.225 0.746766,0 0.746766,-0.225 0.746765,0 0.746766,-0.225 1.493531,0 0.746766,-0.675 0.746765,0.45 0.746766,0 0.746766,-0.225 0.746765,0 0.746766,0.225 0.746766,-0.225 2.987062,0 1.493531,-0.45 0.746766,0 0.746765,-0.225 2.240297,0 0.746766,-0.225 1.493531,0 0.746766,-0.225 0.746765,0 0.746766,-0.225 3.733828,0 0.746766,-0.225 0.746765,0 1.493532,-0.45 2.987062,0 0.746766,-0.225 2.240297,0 0.746765,-0.225 3.733829,0 1.493531,-0.45 2.240297,0 1.493531,-0.45 1.493531,0 0.746766,-0.225 3.733831,0 0.74676,-0.225 0.74677,0 0.74676,-0.225 4.4806,0 0.74676,-0.225 1.49353,0 0.74677,-0.225 0.74677,0 0.74676,-0.225 0.74677,0.225 0.74676,-0.225 2.2403,0 0.74677,-0.225 1.49353,0 0.74676,-0.225 7.46766,0 0.74676,-0.225 1.49353,0 0.74677,-0.225 2.98706,0 0.74677,-0.225 1.49353,0 0.74677,-0.225 0.74676,0.225 0.74677,0 0.74676,-0.225 1.49353,0 0.74677,-0.225 0.74676,0 0.74677,0.225 1.49353,0 0.74677,-0.225 2.98706,0 0.74677,-0.225 1.49353,0 0.74676,0.225 1.49353,0 0.74677,-0.225 5.22736,0 0.74676,-0.225 4.4806,0 0.74676,0.225 0.74677,0 0.74676,-0.225 2.98707,0 0.74676,-0.225 1.49353,0 0.74677,0.225 2.2403,0 0.74676,-0.225 0.74677,0 0.74676,-0.225 0.74677,0 0.74676,-0.225 0.74677,0 0.74677,0.225 0.74676,-0.225 2.2403,0 0.74676,-0.225 0.74677,0.225 2.2403,0 0.74676,-0.225 1.49353,0 0.74677,-0.225 2.2403,0 1.49353,0.45 1.49353,0 0.74676,-0.225 0.74677,0.225 2.2403,0 0.74676,0.225 0.74677,-0.225 2.24029,0 0.74677,0.225 0.74677,0 0.74676,-0.225 1.49353,0 0.74677,0.225 0.74676,-0.225 2.2403,0 0.74677,0.225 5.22736,0 0.74676,-0.225 5.97413,0 0.74676,-0.225 0.74677,0 0.74676,0.225 3.73383,0 0.74677,-0.225 7.46765,0 0.74677,-0.225 1.49353,0 0.74677,0.225 5.22736,0 0.74676,0.225 0.74677,-0.225 1.49353,0 0.74676,-0.225 0.74677,0.225 0.74676,-0.225 2.98707,0 0.74676,0.225 2.2403,0 0.74677,-0.225 2.24029,0 0.74677,-0.225 0.74676,0 0.74677,-0.225 2.98706,0 0.74677,0.225 6.72089,0 0.74676,-0.225 2.2403,0 0.74677,0.225 0.74676,-0.225 1.49353,0 0.74677,0.225 1.49353,0 0.74677,-0.225 1.49353,0 0.74676,0.225 0.74677,0 0.74676,-0.225 6.72089,0 0.74677,-0.225 0.74677,0.225 1.49353,0 0.74676,-0.225 1.49353,0 0.74677,-0.225 2.98706,0 0.74677,0.45 2.24029,0 0.74677,-0.225 5.97412,0 0.74677,-0.225 0.74677,0 1.49353,0.45 0.74676,-0.225 0.74677,0.225 0.74676,-0.225 0.74677,0 0.74677,-0.225 1.49353,0.45 0.74676,-0.225 3.73383,0 0.74677,-0.225 1.49353,0 0.74676,-0.225 1.49353,0 0.74677,0.225 0.74677,0 0.74676,0.225 0.74677,0 0.74676,-0.225 2.98706,0 0.74677,-0.225 0.74677,0.225 2.24029,0 0.74677,-0.225 2.2403,0 0.74676,-0.225 5.97413,0 0.74676,0.225 0.74677,0 0.74676,-0.225 2.98707,0 0.74676,-0.225 1.49353,0 0.74677,0.225 0.74676,-0.225 0.74677,0.225 0.74676,-0.45 0.74677,0 0.74677,0.225 2.24029,0 0.74677,-0.225 1.49353,0 0.74677,0.225 3.73382,0 0.74677,-0.225 3.73383,0 0.74676,0.225 1.49353,0 0.74677,-0.225 0.74677,0 0.74676,0.225 0.74677,0 0.74676,-0.225 14.18855,0 0.74677,0.225 1.49353,0 0.74676,-0.225 2.2403,0 1.49353,0.45 0.74677,-0.225 1.49353,0 0.74676,-0.225 0.74677,0.45 1.49353,0 0.74676,0.225 1.49354,0 0.74676,-0.225 1.49353,0 0.74677,0.45 0.74676,0 0.74677,-0.225 2.98706,0 0.74677,0.225 0.74676,-0.225 9.70796,0 0.74676,-0.225 3.73383,0 0.74677,0.225 0.74676,-0.225 0.74677,0.225 0.74676,-0.225 0.74677,0.225 1.49353,0 0.74677,-0.225 3.73382,0 0.74677,-0.225 0.74676,0.225 0.74677,-0.225 2.2403,0 0.74676,-0.225 0.74677,0.225 0.74676,0 1.49354,-0.45 1.49353,0 0.74676,0.225 1.49353,0 1.49353,-0.45 3.73383,0 0.74677,-0.225 1.49353,0 0.74677,0.225 0.74676,0 0.74677,0.225 0.74676,0 0.74677,-0.225 0.74676,0 0.74677,0.225 3.73383,0 0.74676,0.225 0.74677,-0.225 2.2403,0 0.74676,0.225 0.74677,-0.225 1.49353,0 0.74676,0.225 0.74677,-0.225 0.74676,0 0.74677,0.225 0.74677,0 0.74676,-0.225 0.74677,0 0.74676,0.225 0.74677,0 1.49353,-0.45 3.73383,0 0.74676,-0.225 4.4806,0 0.74676,-0.225 0.74677,0.45 0.74676,-0.225 0,0"
             inkscape:connector-curvature="0" />
        </g>
      </g>
      <g
         id="g3039">
        <g
           clip-path="url(#clipPath3043)"
           id="g3041">
          <path
             id="path3047"
             style="fill:none;stroke:#dc143c;stroke-width:2;stroke-linecap:butt;stroke-linejoin:round;stroke-miterlimit:10;stroke-opacity:1;stroke-dasharray:6, 6;stroke-dashoffset:0"
             d="m 45.140625,178.09087 447.312605,0 0,0"
             inkscape:connector-curvature="0" />
        </g>
      </g>
      <g
         id="g3049">
        <g
           clip-path="url(#clipPath3053)"
           id="g3051">
          <path
             id="path3057"
             style="fill:none;stroke:#ffa500;stroke-width:1;stroke-linecap:square;stroke-linejoin:round;stroke-miterlimit:10;stroke-opacity:1;stroke-dasharray:none"
             d="m 45.140625,94.05 1.493531,-2.925 1.493531,-3.825 0.746766,-2.025 0.746766,-0.9 1.493531,0.45 0.746766,0.45 0.746765,-0.225 0.746766,0.9 0.746765,0 2.987063,1.8 0.746766,0 0.746765,0.45 1.493532,0.45 0.746765,-0.225 0.746766,0.675 0.746765,0.45 2.240297,0.675 0.746766,0 0.746765,0.225 0.746766,0 1.493531,-0.9 0.746766,-0.225 0.746766,0 0.746765,0.225 0.746766,0 0.746765,0.225 0.746766,0.45 0.746766,0.225 0.746765,0 2.240297,0.675 5.22736,0 1.493531,0.45 2.240297,0 0.746765,-0.675 0.746766,-0.225 0.746766,0 1.493531,-1.35 0.746766,-0.225 0.746765,0 0.746766,-0.45 0.746765,0 2.240297,-0.675 0.746766,0.225 0.746765,-0.45 0.746766,0 0.746766,-0.225 0.746765,0 0.746766,-0.225 0.746766,-0.675 0.746764,0.225 1.49353,0 0.74677,0.225 0.74676,-0.225 2.2403,0 0.74677,0.225 2.24029,0 0.74677,-0.225 0.74676,0.225 0.74677,0 0.74677,-0.225 2.24029,0 0.74677,-0.45 0.74676,0 0.74677,-0.225 0.74677,-0.45 0.74676,-0.225 0.74677,0 0.74676,-0.225 0.74677,0 1.49353,-0.45 0.74676,-0.45 5.97413,0 1.49353,-0.9 0.74677,-0.675 2.24029,-0.675 2.98707,0 0.74676,-0.225 1.49353,0 0.74677,-0.225 4.48059,0 0.74677,-0.225 1.49353,0 0.74676,-0.45 1.49354,-0.45 0.74676,-0.45 1.49353,-0.45 4.4806,0 0.74676,-0.225 0.74677,0 0.74676,-0.225 2.98707,0 1.49353,-0.45 0.74676,0 1.49353,-0.45 0.74677,0 1.49353,-0.45 2.2403,0 2.98706,-0.9 1.49353,0 0.74677,-0.225 0.74676,-0.675 0.74677,-0.45 1.49353,0 0.74676,-0.45 2.2403,0 0.74677,-0.225 2.98706,0 0.74677,-0.225 0.74676,0.225 4.48059,0 1.49354,-0.45 0.74676,0 0.74677,-0.225 2.98706,0 0.74677,-0.225 3.73382,0 0.74677,-0.225 0.74676,0 1.49354,-0.9 0.74676,0 1.49353,-0.45 4.4806,0 0.74676,-0.675 0.74677,-0.45 0.74676,0.225 2.98707,0 0.74676,-0.225 4.4806,0 0.74676,-0.45 0.74677,-0.225 7.46765,0 1.49353,-0.45 0.74677,-0.675 1.49353,-0.9 0.74677,-0.225 0.74676,0 0.74677,0.225 2.24029,0 0.74677,-0.675 0.74677,0.225 0.74676,0 0.74677,0.225 0.74676,0 0.74677,0.225 0.74676,-0.225 3.73383,0 0.74677,-0.45 0.74676,0 0.74677,-0.675 0.74676,-0.225 5.97413,0 0.74677,0.225 0.74676,0 0.74677,0.225 0.74676,-0.225 0.74677,0 0.74676,0.225 0.74677,-0.225 1.49353,0 0.74677,0.225 8.21442,0 0.74676,-0.225 0.74677,0 0.74676,0.225 1.49354,0 1.49353,-0.45 0.74676,0 2.2403,-0.675 2.2403,0 0.74676,0.225 0.74677,0 1.49353,-0.45 6.72089,0 1.49353,-0.45 0.74677,0.225 0.74676,-0.45 0.74677,0.225 2.98706,0 0.74677,-0.225 0.74676,0 0.74677,-0.225 0.74676,-1.35 0.74677,0 0.74676,-0.225 1.49354,0 0.74676,0.225 1.49353,0 0.74677,0.225 2.24029,0 0.74677,0.225 0.74677,-0.225 2.24029,0 0.74677,0.225 1.49353,0 0.74677,0.225 2.24029,0 0.74677,-0.225 0.74676,0 0.74677,-0.45 0.74676,0.225 1.49354,-0.45 0.74676,-1.125 3.73383,0 0.74677,0.225 1.49353,0 0.74676,0.225 1.49353,0 0.74677,-0.225 0.74676,0 0.74677,-0.45 0.74677,-0.675 0.74676,-0.225 1.49353,0 0.74677,-0.225 0.74676,0.225 0.74677,-0.225 0.74677,0.225 0.74676,0 0.74677,0.225 1.49353,0 0.74676,0.225 0.74677,0 0.74676,0.225 0.74677,-0.225 1.49353,-0.9 2.2403,0 0.74676,0.225 0.74677,0 0.74677,0.225 0.74676,0 0.74677,-0.45 0.74676,0.225 0.74677,0 0.74676,-0.225 0.74677,0.225 2.98706,0 0.74677,-0.225 2.24029,0 0.74677,-0.225 0.74677,0 0.74676,-0.45 3.73383,0 0.74676,0.225 1.49354,0 0.74676,0.225 0.74677,0 0.74676,0.225 1.49353,0 0.74677,-0.225 0.74677,0.225 3.73382,0 1.49353,-0.45 0.74677,0.225 0.74677,-0.225 0.74676,0 0.74677,0.225 2.98706,0 0.74677,0.225 0.74676,0 0.74677,-0.45 2.24029,0 0.74677,-0.225 0.74677,0.225 2.24029,0 0.74677,0.225 0.74676,0 1.49353,-0.45 0.74677,-0.45 0.74677,0 0.74676,-1.125 0.74677,-0.225 1.49353,0 0.74676,0.225 0.74677,0 1.49353,0.45 3.73383,0 0.74676,0.225 2.98707,0 0.74676,0.225 1.49353,0 1.49353,-0.45 0.74677,0.225 0.74677,-0.225 1.49353,0 0.74676,0.225 0.74677,0 0.74676,0.225 3.73383,0 0.74677,-0.225 0.74676,0 0.74677,-0.45 0.74676,0 0.74677,0.225 2.98706,0 0.74677,0.225 2.2403,0 0.74676,0.225 2.2403,0 0.74676,-0.225 0.74677,0 0.74676,0.225 0.74677,-0.225 0.74677,0 0.74676,0.225 1.49353,0 0.74677,-0.225 1.49353,0 1.49353,-0.9 0.74677,0 0.74676,0.225 0.74677,0 1.49353,0.45 1.49353,0 0.74677,0.225 2.98706,0 0.74676,0.225 7.46766,0 0.74677,-0.45 2.98706,0 0.74676,0.225 2.98707,0 0.74676,0.225 0.74677,0 2.24029,-0.675 0.74677,-0.9 0.74677,0 0.74676,0.225 0.74677,-0.675 1.49353,0 0.74676,0.225 0.74677,0 0.74677,0.225 1.49353,0 0.74676,-0.225 0.74677,0 0.74676,-0.225 0.74677,0.225 1.49353,0 0.74677,0.225 0.74676,0 0.74677,0.225 1.49353,0 0.74676,0.225 0,0"
             inkscape:connector-curvature="0" />
        </g>
      </g>
      <g
         id="g3059">
        <g
           clip-path="url(#clipPath3063)"
           id="g3061">
          <path
             id="path3067"
             style="fill:none;stroke:#ff6347;stroke-width:2;stroke-linecap:butt;stroke-linejoin:round;stroke-miterlimit:10;stroke-opacity:1;stroke-dasharray:6, 6;stroke-dashoffset:0"
             d="m 45.140625,70.221375 447.312605,0 0,0"
             inkscape:connector-curvature="0" />
        </g>
      </g>
      <g
         id="g3069">
        <path
           id="path3071"
           style="fill:none;stroke:#000000;stroke-width:1;stroke-linecap:square;stroke-linejoin:miter;stroke-miterlimit:10;stroke-opacity:1;stroke-dasharray:none"
           d="M 45.140625,313.2 493.2,313.2"
           inkscape:connector-curvature="0" />
        <path
           id="path3073"
           style="fill:none;stroke:#000000;stroke-width:1;stroke-linecap:square;stroke-linejoin:miter;stroke-miterlimit:10;stroke-opacity:1;stroke-dasharray:none"
           d="m 493.2,43.2 0,270"
           inkscape:connector-curvature="0" />
        <path
           id="path3075"
           style="fill:none;stroke:#000000;stroke-width:1;stroke-linecap:square;stroke-linejoin:miter;stroke-miterlimit:10;stroke-opacity:1;stroke-dasharray:none"
           d="M 45.140625,43.2 493.2,43.2"
           inkscape:connector-curvature="0" />
        <path
           id="path3077"
           style="fill:none;stroke:#000000;stroke-width:1;stroke-linecap:square;stroke-linejoin:miter;stroke-miterlimit:10;stroke-opacity:1;stroke-dasharray:none"
           d="m 45.140625,43.2 0,270"
           inkscape:connector-curvature="0" />
        <path
           id="path3079"
           style="fill:#000000;fill-opacity:1;fill-rule:nonzero;stroke:#000000;stroke-width:0.5;stroke-linecap:butt;stroke-linejoin:round;stroke-miterlimit:10;stroke-opacity:1;stroke-dasharray:none"
           d="m 45.140625,43.2 0,4"
           inkscape:connector-curvature="0" />
        <path
           id="path3081"
           style="fill:#000000;fill-opacity:1;fill-rule:nonzero;stroke:#000000;stroke-width:0.5;stroke-linecap:butt;stroke-linejoin:round;stroke-miterlimit:10;stroke-opacity:1;stroke-dasharray:none"
           d="m 45.140625,313.2 0,-4"
           inkscape:connector-curvature="0" />
        <text
           id="text3083"
           transform="matrix(1,0,0,-1,36.390625,30.075)"
           style="-inkscape-font-specification:Utopia;font-family:Utopia">
          <tspan
             id="tspan3085"
             sodipodi:role="line"
             y="0"
             x="0 7.632 11.448"
             style="font-size:12px;font-variant:normal;font-weight:normal;writing-mode:lr-tb;fill:#000000;fill-opacity:1;fill-rule:nonzero;stroke:none;font-family:Utopia;-inkscape-font-specification:Utopia">0.0</tspan>
        </text>
        <path
           id="path3087"
           style="fill:#000000;fill-opacity:1;fill-rule:nonzero;stroke:#000000;stroke-width:0.5;stroke-linecap:butt;stroke-linejoin:round;stroke-miterlimit:10;stroke-opacity:1;stroke-dasharray:none"
           d="m 134.7525,43.2 0,4"
           inkscape:connector-curvature="0" />
        <path
           id="path3089"
           style="fill:#000000;fill-opacity:1;fill-rule:nonzero;stroke:#000000;stroke-width:0.5;stroke-linecap:butt;stroke-linejoin:round;stroke-miterlimit:10;stroke-opacity:1;stroke-dasharray:none"
           d="m 134.7525,313.2 0,-4"
           inkscape:connector-curvature="0" />
        <text
           id="text3091"
           transform="matrix(1,0,0,-1,126.04156,30.075)"
           style="-inkscape-font-specification:Utopia;font-family:Utopia">
          <tspan
             id="tspan3093"
             sodipodi:role="line"
             y="0"
             x="0 7.632 11.448"
             style="font-size:12px;font-variant:normal;font-weight:normal;writing-mode:lr-tb;fill:#000000;fill-opacity:1;fill-rule:nonzero;stroke:none;font-family:Utopia;-inkscape-font-specification:Utopia">2.0</tspan>
        </text>
        <path
           id="path3095"
           style="fill:#000000;fill-opacity:1;fill-rule:nonzero;stroke:#000000;stroke-width:0.5;stroke-linecap:butt;stroke-linejoin:round;stroke-miterlimit:10;stroke-opacity:1;stroke-dasharray:none"
           d="m 224.36437,43.2 0,4"
           inkscape:connector-curvature="0" />
        <path
           id="path3097"
           style="fill:#000000;fill-opacity:1;fill-rule:nonzero;stroke:#000000;stroke-width:0.5;stroke-linecap:butt;stroke-linejoin:round;stroke-miterlimit:10;stroke-opacity:1;stroke-dasharray:none"
           d="m 224.36437,313.2 0,-4"
           inkscape:connector-curvature="0" />
        <text
           id="text3099"
           transform="matrix(1,0,0,-1,215.51281,30.075)"
           style="-inkscape-font-specification:Utopia;font-family:Utopia">
          <tspan
             id="tspan3101"
             sodipodi:role="line"
             y="0"
             x="0 7.632 11.448"
             style="font-size:12px;font-variant:normal;font-weight:normal;writing-mode:lr-tb;fill:#000000;fill-opacity:1;fill-rule:nonzero;stroke:none;font-family:Utopia;-inkscape-font-specification:Utopia">4.0</tspan>
        </text>
        <path
           id="path3103"
           style="fill:#000000;fill-opacity:1;fill-rule:nonzero;stroke:#000000;stroke-width:0.5;stroke-linecap:butt;stroke-linejoin:round;stroke-miterlimit:10;stroke-opacity:1;stroke-dasharray:none"
           d="m 313.97625,43.2 0,4"
           inkscape:connector-curvature="0" />
        <path
           id="path3105"
           style="fill:#000000;fill-opacity:1;fill-rule:nonzero;stroke:#000000;stroke-width:0.5;stroke-linecap:butt;stroke-linejoin:round;stroke-miterlimit:10;stroke-opacity:1;stroke-dasharray:none"
           d="m 313.97625,313.2 0,-4"
           inkscape:connector-curvature="0" />
        <text
           id="text3107"
           transform="matrix(1,0,0,-1,305.24969,30.075)"
           style="-inkscape-font-specification:Utopia;font-family:Utopia">
          <tspan
             id="tspan3109"
             sodipodi:role="line"
             y="0"
             x="0 7.632 11.448"
             style="font-size:12px;font-variant:normal;font-weight:normal;writing-mode:lr-tb;fill:#000000;fill-opacity:1;fill-rule:nonzero;stroke:none;font-family:Utopia;-inkscape-font-specification:Utopia">6.0</tspan>
        </text>
        <path
           id="path3111"
           style="fill:#000000;fill-opacity:1;fill-rule:nonzero;stroke:#000000;stroke-width:0.5;stroke-linecap:butt;stroke-linejoin:round;stroke-miterlimit:10;stroke-opacity:1;stroke-dasharray:none"
           d="m 403.58812,43.2 0,4"
           inkscape:connector-curvature="0" />
        <path
           id="path3113"
           style="fill:#000000;fill-opacity:1;fill-rule:nonzero;stroke:#000000;stroke-width:0.5;stroke-linecap:butt;stroke-linejoin:round;stroke-miterlimit:10;stroke-opacity:1;stroke-dasharray:none"
           d="m 403.58812,313.2 0,-4"
           inkscape:connector-curvature="0" />
        <text
           id="text3115"
           transform="matrix(1,0,0,-1,394.84594,30.075)"
           style="-inkscape-font-specification:Utopia;font-family:Utopia">
          <tspan
             id="tspan3117"
             sodipodi:role="line"
             y="0"
             x="0 7.632 11.448"
             style="font-size:12px;font-variant:normal;font-weight:normal;writing-mode:lr-tb;fill:#000000;fill-opacity:1;fill-rule:nonzero;stroke:none;font-family:Utopia;-inkscape-font-specification:Utopia">8.0</tspan>
        </text>
        <text
           id="text3119"
           transform="matrix(1,0,0,-1,237.26406,13.45)"
           style="-inkscape-font-specification:Utopia;font-family:Utopia">
          <tspan
             id="tspan3121"
             sodipodi:role="line"
             y="0"
             x="0 8.2200003 15.6 18.936001 23.639999 27.455999 30.792 38.400002 42.216 53.903999 57.240002"
             style="font-size:12px;font-variant:normal;font-weight:normal;writing-mode:lr-tb;fill:#000000;fill-opacity:1;fill-rule:nonzero;stroke:none;font-family:Utopia;-inkscape-font-specification:Utopia">Zeit in min</tspan>
        </text>
        <path
           id="path3123"
           style="fill:#000000;fill-opacity:1;fill-rule:nonzero;stroke:#000000;stroke-width:0.5;stroke-linecap:butt;stroke-linejoin:round;stroke-miterlimit:10;stroke-opacity:1;stroke-dasharray:none"
           d="m 45.140625,43.2 4,0"
           inkscape:connector-curvature="0" />
        <path
           id="path3125"
           style="fill:#000000;fill-opacity:1;fill-rule:nonzero;stroke:#000000;stroke-width:0.5;stroke-linecap:butt;stroke-linejoin:round;stroke-miterlimit:10;stroke-opacity:1;stroke-dasharray:none"
           d="m 493.2,43.2 -4,0"
           inkscape:connector-curvature="0" />
        <text
           id="text3127"
           transform="matrix(1,0,0,-1,28,39.8875)"
           style="-inkscape-font-specification:Utopia;font-family:Utopia">
          <tspan
             id="tspan3129"
             sodipodi:role="line"
             y="0"
             x="0 7.632"
             style="font-size:12px;font-variant:normal;font-weight:normal;writing-mode:lr-tb;fill:#000000;fill-opacity:1;fill-rule:nonzero;stroke:none;font-family:Utopia;-inkscape-font-specification:Utopia">18</tspan>
        </text>
        <path
           id="path3131"
           style="fill:#000000;fill-opacity:1;fill-rule:nonzero;stroke:#000000;stroke-width:0.5;stroke-linecap:butt;stroke-linejoin:round;stroke-miterlimit:10;stroke-opacity:1;stroke-dasharray:none"
           d="m 45.140625,88.2 4,0"
           inkscape:connector-curvature="0" />
        <path
           id="path3133"
           style="fill:#000000;fill-opacity:1;fill-rule:nonzero;stroke:#000000;stroke-width:0.5;stroke-linecap:butt;stroke-linejoin:round;stroke-miterlimit:10;stroke-opacity:1;stroke-dasharray:none"
           d="m 493.2,88.2 -4,0"
           inkscape:connector-curvature="0" />
        <text
           id="text3135"
           transform="matrix(1,0,0,-1,27.53125,84.8875)"
           style="-inkscape-font-specification:Utopia;font-family:Utopia">
          <tspan
             id="tspan3137"
             sodipodi:role="line"
             y="0"
             x="0 7.632"
             style="font-size:12px;font-variant:normal;font-weight:normal;writing-mode:lr-tb;fill:#000000;fill-opacity:1;fill-rule:nonzero;stroke:none;font-family:Utopia;-inkscape-font-specification:Utopia">20</tspan>
        </text>
        <path
           id="path3139"
           style="fill:#000000;fill-opacity:1;fill-rule:nonzero;stroke:#000000;stroke-width:0.5;stroke-linecap:butt;stroke-linejoin:round;stroke-miterlimit:10;stroke-opacity:1;stroke-dasharray:none"
           d="m 45.140625,133.2 4,0"
           inkscape:connector-curvature="0" />
        <path
           id="path3141"
           style="fill:#000000;fill-opacity:1;fill-rule:nonzero;stroke:#000000;stroke-width:0.5;stroke-linecap:butt;stroke-linejoin:round;stroke-miterlimit:10;stroke-opacity:1;stroke-dasharray:none"
           d="m 493.2,133.2 -4,0"
           inkscape:connector-curvature="0" />
        <text
           id="text3143"
           transform="matrix(1,0,0,-1,27.9375,129.8875)"
           style="-inkscape-font-specification:Utopia;font-family:Utopia">
          <tspan
             id="tspan3145"
             sodipodi:role="line"
             y="0"
             x="0 7.632"
             style="font-size:12px;font-variant:normal;font-weight:normal;writing-mode:lr-tb;fill:#000000;fill-opacity:1;fill-rule:nonzero;stroke:none;font-family:Utopia;-inkscape-font-specification:Utopia">22</tspan>
        </text>
        <path
           id="path3147"
           style="fill:#000000;fill-opacity:1;fill-rule:nonzero;stroke:#000000;stroke-width:0.5;stroke-linecap:butt;stroke-linejoin:round;stroke-miterlimit:10;stroke-opacity:1;stroke-dasharray:none"
           d="m 45.140625,178.2 4,0"
           inkscape:connector-curvature="0" />
        <path
           id="path3149"
           style="fill:#000000;fill-opacity:1;fill-rule:nonzero;stroke:#000000;stroke-width:0.5;stroke-linecap:butt;stroke-linejoin:round;stroke-miterlimit:10;stroke-opacity:1;stroke-dasharray:none"
           d="m 493.2,178.2 -4,0"
           inkscape:connector-curvature="0" />
        <text
           id="text3151"
           transform="matrix(1,0,0,-1,27.40625,174.8875)"
           style="-inkscape-font-specification:Utopia;font-family:Utopia">
          <tspan
             id="tspan3153"
             sodipodi:role="line"
             y="0"
             x="0 7.632"
             style="font-size:12px;font-variant:normal;font-weight:normal;writing-mode:lr-tb;fill:#000000;fill-opacity:1;fill-rule:nonzero;stroke:none;font-family:Utopia;-inkscape-font-specification:Utopia">24</tspan>
        </text>
        <path
           id="path3155"
           style="fill:#000000;fill-opacity:1;fill-rule:nonzero;stroke:#000000;stroke-width:0.5;stroke-linecap:butt;stroke-linejoin:round;stroke-miterlimit:10;stroke-opacity:1;stroke-dasharray:none"
           d="m 45.140625,223.2 4,0"
           inkscape:connector-curvature="0" />
        <path
           id="path3157"
           style="fill:#000000;fill-opacity:1;fill-rule:nonzero;stroke:#000000;stroke-width:0.5;stroke-linecap:butt;stroke-linejoin:round;stroke-miterlimit:10;stroke-opacity:1;stroke-dasharray:none"
           d="m 493.2,223.2 -4,0"
           inkscape:connector-curvature="0" />
        <text
           id="text3159"
           transform="matrix(1,0,0,-1,27.5,219.8875)"
           style="-inkscape-font-specification:Utopia;font-family:Utopia">
          <tspan
             id="tspan3161"
             sodipodi:role="line"
             y="0"
             x="0 7.632"
             style="font-size:12px;font-variant:normal;font-weight:normal;writing-mode:lr-tb;fill:#000000;fill-opacity:1;fill-rule:nonzero;stroke:none;font-family:Utopia;-inkscape-font-specification:Utopia">26</tspan>
        </text>
        <path
           id="path3163"
           style="fill:#000000;fill-opacity:1;fill-rule:nonzero;stroke:#000000;stroke-width:0.5;stroke-linecap:butt;stroke-linejoin:round;stroke-miterlimit:10;stroke-opacity:1;stroke-dasharray:none"
           d="m 45.140625,268.2 4,0"
           inkscape:connector-curvature="0" />
        <path
           id="path3165"
           style="fill:#000000;fill-opacity:1;fill-rule:nonzero;stroke:#000000;stroke-width:0.5;stroke-linecap:butt;stroke-linejoin:round;stroke-miterlimit:10;stroke-opacity:1;stroke-dasharray:none"
           d="m 493.2,268.2 -4,0"
           inkscape:connector-curvature="0" />
        <text
           id="text3167"
           transform="matrix(1,0,0,-1,27.5625,264.8875)"
           style="-inkscape-font-specification:Utopia;font-family:Utopia">
          <tspan
             id="tspan3169"
             sodipodi:role="line"
             y="0"
             x="0 7.632"
             style="font-size:12px;font-variant:normal;font-weight:normal;writing-mode:lr-tb;fill:#000000;fill-opacity:1;fill-rule:nonzero;stroke:none;font-family:Utopia;-inkscape-font-specification:Utopia">28</tspan>
        </text>
        <path
           id="path3171"
           style="fill:#000000;fill-opacity:1;fill-rule:nonzero;stroke:#000000;stroke-width:0.5;stroke-linecap:butt;stroke-linejoin:round;stroke-miterlimit:10;stroke-opacity:1;stroke-dasharray:none"
           d="m 45.140625,313.2 4,0"
           inkscape:connector-curvature="0" />
        <path
           id="path3173"
           style="fill:#000000;fill-opacity:1;fill-rule:nonzero;stroke:#000000;stroke-width:0.5;stroke-linecap:butt;stroke-linejoin:round;stroke-miterlimit:10;stroke-opacity:1;stroke-dasharray:none"
           d="m 493.2,313.2 -4,0"
           inkscape:connector-curvature="0" />
        <text
           id="text3175"
           transform="matrix(0,1,1,0,19.90625,127.55156)"
           style="-inkscape-font-specification:Utopia;font-family:Utopia">
          <tspan
             id="tspan3177"
             sodipodi:role="line"
             y="0"
             x="0 7.3319998 14.712 26.4 34.02 41.400002 46.332001 53.688 58.391998 66 70.931999 74.748001 78.084 85.692001 89.508003 95.508003"
             style="font-size:12px;font-variant:normal;font-weight:normal;writing-mode:lr-tb;fill:#000000;fill-opacity:1;fill-rule:nonzero;stroke:none;font-family:Utopia;-inkscape-font-specification:Utopia">Temperatur in °C</tspan>
        </text>
        <path
           id="path3179"
           style="fill:#ffffff;fill-opacity:1;fill-rule:nonzero;stroke:#000000;stroke-width:1;stroke-linecap:butt;stroke-linejoin:miter;stroke-miterlimit:10;stroke-opacity:1;stroke-dasharray:none"
           d="m 190.25312,268.35 296.94688,0 0,38.85 -296.94688,0 0,-38.85 z"
           inkscape:connector-curvature="0" />
        <path
           id="path3181"
           style="fill:none;stroke:#0000ff;stroke-width:1;stroke-linecap:square;stroke-linejoin:round;stroke-miterlimit:10;stroke-opacity:1;stroke-dasharray:none"
           d="m 198.65312,297.475 16.8,0"
           inkscape:connector-curvature="0" />
        <text
           id="text3183"
           transform="matrix(1,0,0,-1,228.65312,293.275)"
           style="-inkscape-font-specification:Utopia;font-family:Utopia">
          <tspan
             id="tspan3185"
             sodipodi:role="line"
             y="0"
             x="0 7.2360001 14.58 20.832001 24.648001"
             style="font-size:12px;font-variant:normal;font-weight:normal;writing-mode:lr-tb;fill:#000000;fill-opacity:1;fill-rule:nonzero;stroke:none;font-family:Utopia;-inkscape-font-specification:Utopia">Pos A</tspan>
        </text>
        <path
           id="path3187"
           style="fill:none;stroke:#00008b;stroke-width:2;stroke-linecap:butt;stroke-linejoin:round;stroke-miterlimit:10;stroke-opacity:1;stroke-dasharray:6, 6;stroke-dashoffset:0"
           d="m 198.65312,279.85 16.8,0"
           inkscape:connector-curvature="0" />
        <text
           id="text3189"
           transform="matrix(1,0,0,-1,228.65312,275.65)"
           style="font-family:Utopia;-inkscape-font-specification:Utopia">
          <tspan
             id="tspan3191"
             sodipodi:role="line"
             x="0 10.356 14.172 21.408001 28.752001 35.004002 38.82"
             style="font-size:12px;font-variant:normal;font-weight:normal;writing-mode:lr-tb;fill:#000000;fill-opacity:1;fill-rule:nonzero;stroke:none;font-family:Utopia;-inkscape-font-specification:Utopia"
             y="0">Ø Pos A</tspan>
        </text>
        <path
           id="path3193"
           style="fill:none;stroke:#ff0000;stroke-width:1;stroke-linecap:square;stroke-linejoin:round;stroke-miterlimit:10;stroke-opacity:1;stroke-dasharray:none"
           d="m 302.8,297.475 16.8,0"
           inkscape:connector-curvature="0" />
        <text
           id="text3195"
           transform="matrix(1,0,0,-1,332.8,293.275)"
           style="-inkscape-font-specification:Utopia;font-family:Utopia">
          <tspan
             id="tspan3197"
             sodipodi:role="line"
             y="0"
             x="0 7.2360001 14.58 20.832001 24.648001"
             style="font-size:12px;font-variant:normal;font-weight:normal;writing-mode:lr-tb;fill:#000000;fill-opacity:1;fill-rule:nonzero;stroke:none;font-family:Utopia;-inkscape-font-specification:Utopia">Pos B</tspan>
        </text>
        <path
           id="path3199"
           style="fill:none;stroke:#dc143c;stroke-width:2;stroke-linecap:butt;stroke-linejoin:round;stroke-miterlimit:10;stroke-opacity:1;stroke-dasharray:6, 6;stroke-dashoffset:0"
           d="m 302.8,279.85 16.8,0"
           inkscape:connector-curvature="0" />
        <text
           id="text3201"
           transform="matrix(1,0,0,-1,332.8,275.65)"
           style="font-family:Utopia;-inkscape-font-specification:Utopia">
          <tspan
             id="tspan3203"
             sodipodi:role="line"
             y="0"
             x="0 10.356 14.172 21.408001 28.752001 35.004002 38.82"
             style="font-size:12px;font-variant:normal;font-weight:normal;writing-mode:lr-tb;fill:#000000;fill-opacity:1;fill-rule:nonzero;stroke:none;font-family:Utopia;-inkscape-font-specification:Utopia">Ø Pos B</tspan>
        </text>
        <path
           id="path3205"
           style="fill:none;stroke:#ffa500;stroke-width:1;stroke-linecap:square;stroke-linejoin:round;stroke-miterlimit:10;stroke-opacity:1;stroke-dasharray:none"
           d="m 406.22812,297.475 16.8,0"
           inkscape:connector-curvature="0" />
        <text
           id="text3207"
           transform="matrix(1,0,0,-1,436.22812,293.275)"
           style="-inkscape-font-specification:Utopia;font-family:Utopia">
          <tspan
             id="tspan3209"
             sodipodi:role="line"
             y="0"
             x="0 7.2360001 14.58 20.832001 24.648001"
             style="font-size:12px;font-variant:normal;font-weight:normal;writing-mode:lr-tb;fill:#000000;fill-opacity:1;fill-rule:nonzero;stroke:none;font-family:Utopia;-inkscape-font-specification:Utopia">Pos C</tspan>
        </text>
        <path
           id="path3211"
           style="fill:none;stroke:#ff6347;stroke-width:2;stroke-linecap:butt;stroke-linejoin:round;stroke-miterlimit:10;stroke-opacity:1;stroke-dasharray:6, 6;stroke-dashoffset:0"
           d="m 406.22812,279.85 16.8,0"
           inkscape:connector-curvature="0" />
        <text
           id="text3213"
           transform="matrix(1,0,0,-1,436.22812,275.65)"
           style="font-family:Utopia;-inkscape-font-specification:Utopia">
          <tspan
             id="tspan3215"
             sodipodi:role="line"
             y="0"
             x="0 10.356 14.172 21.408001 28.752001 35.004002 38.82"
             style="font-size:12px;font-variant:normal;font-weight:normal;writing-mode:lr-tb;fill:#000000;fill-opacity:1;fill-rule:nonzero;stroke:none;font-family:Utopia;-inkscape-font-specification:Utopia">Ø Pos C</tspan>
        </text>
      </g>
    </g>
  </g>
</svg>
