<?xml version="1.0" encoding="UTF-8" standalone="no"?>
<!-- Created with Inkscape (http://www.inkscape.org/) -->

<svg
   xmlns:dc="http://purl.org/dc/elements/1.1/"
   xmlns:cc="http://creativecommons.org/ns#"
   xmlns:rdf="http://www.w3.org/1999/02/22-rdf-syntax-ns#"
   xmlns:svg="http://www.w3.org/2000/svg"
   xmlns="http://www.w3.org/2000/svg"
   xmlns:sodipodi="http://sodipodi.sourceforge.net/DTD/sodipodi-0.dtd"
   xmlns:inkscape="http://www.inkscape.org/namespaces/inkscape"
   width="744.09448819"
   height="1052.3622047"
   id="svg2"
   version="1.1"
   inkscape:version="0.48.2 r9819"
   sodipodi:docname="New document 1">
  <defs
     id="defs4">
    <clipPath
       id="clipPath3063"
       clipPathUnits="userSpaceOnUse">
      <path
         id="path3065"
         d="m 56.5875,43.2 436.6125,0 0,270 -436.6125,0 0,-270 z" />
    </clipPath>
    <clipPath
       id="clipPath3053"
       clipPathUnits="userSpaceOnUse">
      <path
         id="path3055"
         d="m 56.5875,43.2 436.6125,0 0,270 -436.6125,0 0,-270 z" />
    </clipPath>
    <clipPath
       id="clipPath3043"
       clipPathUnits="userSpaceOnUse">
      <path
         id="path3045"
         d="m 56.5875,43.2 436.6125,0 0,270 -436.6125,0 0,-270 z" />
    </clipPath>
    <clipPath
       id="clipPath3033"
       clipPathUnits="userSpaceOnUse">
      <path
         id="path3035"
         d="m 56.5875,43.2 436.6125,0 0,270 -436.6125,0 0,-270 z" />
    </clipPath>
    <clipPath
       id="clipPath3023"
       clipPathUnits="userSpaceOnUse">
      <path
         id="path3025"
         d="m 56.5875,43.2 436.6125,0 0,270 -436.6125,0 0,-270 z" />
    </clipPath>
    <clipPath
       id="clipPath3013"
       clipPathUnits="userSpaceOnUse">
      <path
         id="path3015"
         d="m 56.5875,43.2 436.6125,0 0,270 -436.6125,0 0,-270 z" />
    </clipPath>
    <clipPath
       id="clipPath3003"
       clipPathUnits="userSpaceOnUse">
      <path
         id="path3005"
         d="m 56.5875,43.2 436.6125,0 0,270 -436.6125,0 0,-270 z" />
    </clipPath>
  </defs>
  <sodipodi:namedview
     id="base"
     pagecolor="#ffffff"
     bordercolor="#666666"
     borderopacity="1.0"
     inkscape:pageopacity="0.0"
     inkscape:pageshadow="2"
     inkscape:zoom="0.98994949"
     inkscape:cx="509.19282"
     inkscape:cy="503.70002"
     inkscape:document-units="px"
     inkscape:current-layer="layer1"
     showgrid="false"
     inkscape:window-width="1920"
     inkscape:window-height="1017"
     inkscape:window-x="-8"
     inkscape:window-y="-8"
     inkscape:window-maximized="1" />
  <metadata
     id="metadata7">
    <rdf:RDF>
      <cc:Work
         rdf:about="">
        <dc:format>image/svg+xml</dc:format>
        <dc:type
           rdf:resource="http://purl.org/dc/dcmitype/StillImage" />
        <dc:title></dc:title>
      </cc:Work>
    </rdf:RDF>
  </metadata>
  <g
     inkscape:label="Layer 1"
     inkscape:groupmode="layer"
     id="layer1">
    <g
       transform="matrix(1.25,0,0,-1.25,60,734.86218)"
       inkscape:label="AT30pctOC"
       id="g2993">
      <path
         id="path2995"
         style="fill:#ffffff;fill-opacity:1;fill-rule:nonzero;stroke:none"
         d="M 0,0 504,0 504,324 0,324 0,0 z"
         inkscape:connector-curvature="0" />
      <path
         id="path2997"
         style="fill:#ffffff;fill-opacity:1;fill-rule:nonzero;stroke:none"
         d="m 56.5875,43.2 436.6125,0 0,270 -436.6125,0 0,-270 z"
         inkscape:connector-curvature="0" />
      <g
         id="g2999">
        <g
           clip-path="url(#clipPath3003)"
           id="g3001">
          <path
             id="path3007"
             style="fill:#008000;fill-opacity:0.2;fill-rule:nonzero;stroke:#008000;stroke-width:1;stroke-linecap:butt;stroke-linejoin:miter;stroke-miterlimit:10;stroke-opacity:0.2;stroke-dasharray:none"
             d="m 56.5875,223.2 0,0 436.6125,0 0,0 -436.6125,0 z"
             inkscape:connector-curvature="0" />
        </g>
      </g>
      <g
         id="g3009">
        <g
           clip-path="url(#clipPath3013)"
           id="g3011">
          <path
             id="path3017"
             style="fill:none;stroke:#0000ff;stroke-width:1;stroke-linecap:square;stroke-linejoin:round;stroke-miterlimit:10;stroke-opacity:1;stroke-dasharray:none"
             d="m 56.5875,264.6 2.91075,0 0.727688,-0.9 4.366124,0 0.727688,-0.9 0.727687,0 0.727688,0.9 0.727687,-0.9 6.549188,0 0.727687,-0.9 0.727688,0.9 2.183062,0 0.727688,-0.9 8.004562,0 0.727688,-0.9 1.455375,0 0.727687,0.9 0.727688,-0.9 0.727687,0.9 0.727688,-0.9 0.727688,0.9 0.727687,0 0.727687,-0.9 2.183063,0 0.727687,0.9 0.727688,0 0.727687,-0.9 18.192193,0 0.72768,-0.9 5.8215,0 0.72769,-0.9 2.91075,0 0.72769,0.9 0.72769,-0.9 10.18762,0 0.72769,-0.9 0.72768,0 0.72769,0.9 0.72769,0 0.72769,-0.9 0.72768,0.9 2.91075,0 0.72769,-0.9 0.72769,0.9 0.72769,-0.9 5.09381,0 0.72769,-0.9 13.09837,0 0.72769,-0.9 15.28144,0 0.72768,-0.9 29.83519,0 0.72769,-0.9 26.92444,0 0.72769,-0.9 26.92443,0 0.72769,-0.9 78.59025,0 0.72769,-0.9 0.72769,0.9 1.45537,0 0.72769,-0.9 14.55375,0 0.72768,0.9 9.45994,0 0.72769,-0.9 115.70231,0 0,0"
             inkscape:connector-curvature="0" />
        </g>
      </g>
      <g
         id="g3019">
        <g
           clip-path="url(#clipPath3023)"
           id="g3021">
          <path
             id="path3027"
             style="fill:none;stroke:#00008b;stroke-width:2;stroke-linecap:butt;stroke-linejoin:round;stroke-miterlimit:10;stroke-opacity:1;stroke-dasharray:6, 6;stroke-dashoffset:0"
             d="m 56.5875,252.531 435.88481,0 0,0"
             inkscape:connector-curvature="0" />
        </g>
      </g>
      <g
         id="g3029">
        <g
           clip-path="url(#clipPath3033)"
           id="g3031">
          <path
             id="path3037"
             style="fill:none;stroke:#ff0000;stroke-width:1;stroke-linecap:square;stroke-linejoin:round;stroke-miterlimit:10;stroke-opacity:1;stroke-dasharray:none"
             d="m 56.5875,198.9 0.727687,0 0.727688,-0.9 1.455375,5.4 0.727688,-2.7 0.727687,4.5 0.727688,1.8 0.727687,-4.5 0.727687,2.7 1.455375,3.6 3.638438,4.5 1.455375,-1.8 0.727688,-1.8 0.727687,-0.9 0.727687,2.7 0.727688,-0.9 1.455375,-5.4 0.727687,0 0.727688,-1.8 0.727687,0 0.727688,5.4 0.727687,2.7 0.727688,0 0.727687,3.6 0.727688,0 0.727687,1.8 0.727688,-1.8 0.727687,2.7 0.727688,-0.9 2.183063,0 0.727687,0.9 0.727687,1.8 0.727688,-1.8 0.727687,1.8 0.727688,-1.8 0.727687,3.6 2.183063,2.7 0.727688,0 0.727687,-2.7 0.727687,0 0.727688,-1.8 0.727687,2.7 0.727688,-0.9 0.727687,0 0.727688,1.8 0.727687,-0.9 1.455375,1.8 0.727688,0 0.72769,0.9 2.91075,0 0.72768,2.7 0.72769,1.8 0.72769,0.9 0.72769,-1.8 0.72769,1.8 0.72768,-0.9 0.72769,3.6 0.72769,-0.9 1.45537,3.6 0.72769,-1.8 1.45538,3.6 0.72768,0 0.72769,2.7 0.72769,0 0.72769,-1.8 2.18306,0 0.72769,-0.9 1.45537,0 0.72769,0.9 0.72768,0 0.72769,0.9 0.72769,-1.8 0.72769,0 1.45537,1.8 0.72769,1.8 0.72769,-2.7 0.72769,-0.9 0.72768,3.6 0.72769,0.9 0.72769,0 0.72768,-2.7 0.72769,0 0.72769,-0.9 0.72769,0.9 0.72768,-0.9 0.72769,2.7 0.72769,-0.9 0.72769,-1.8 0.72768,5.4 0.72769,-0.9 0.72769,0.9 0.72769,-1.8 0.72768,0 0.72769,2.7 0.72769,0 0.72769,-0.9 0.72768,-2.7 0.72769,0 1.45538,3.6 0.72768,-2.7 1.45538,1.8 0.72769,0 0.72768,0.9 1.45538,0 0.72769,-0.9 1.45537,0 1.45538,-5.4 1.45537,3.6 1.45538,1.8 0.72768,0 0.72769,-0.9 0.72769,0 0.72769,1.8 0.72768,0.9 0.72769,-1.8 1.45538,-1.8 0.72768,0 0.72769,-0.9 1.45538,1.8 1.45537,-1.8 0.72769,0 0.72769,0.9 1.45537,0 0.72769,0.9 1.45537,-1.8 0.72769,0.9 1.45538,-3.6 1.45537,1.8 0.72769,1.8 0.72769,-1.8 2.91075,0 0.72768,4.5 0.72769,1.8 0.72769,0 0.72769,-2.7 0.72768,0.9 2.18307,0 0.72768,0.9 0.72769,1.8 0.72769,0 0.72769,-1.8 0.72768,0.9 0.72769,-1.8 1.45538,0 0.72768,-0.9 1.45538,3.6 0.72769,0 2.18306,-2.7 1.45537,3.6 0.72769,-0.9 1.45538,1.8 0.72768,-0.9 1.45538,0 0.72769,0.9 1.45537,0 0.72769,1.8 0.72769,-0.9 0.72768,0.9 0.72769,1.8 0.72769,-2.7 0.72769,-0.9 0.72768,0.9 0.72769,0 0.72769,-0.9 1.45537,1.8 0.72769,2.7 0.72769,-1.8 0.72769,0.9 0.72768,-0.9 0.72769,-1.8 1.45538,0 0.72768,-0.9 0.72769,0.9 0.72769,0 1.45537,1.8 1.45538,-1.8 0.72769,0 0.72768,1.8 0.72769,0 0.72769,-0.9 0.72769,0.9 2.18306,0 0.72769,-1.8 1.45537,-1.8 2.18306,0 1.45538,3.6 0.72769,-2.7 0.72768,0.9 0.72769,0 0.72769,1.8 1.45537,0 0.72769,-1.8 0.72769,1.8 0.72769,0.9 0.72769,0 0.72768,-1.8 0.72769,0 0.72769,2.7 1.45537,1.8 0.72769,-0.9 0.72769,0.9 0.72768,-0.9 0.72769,0.9 0.72769,-2.7 0.72769,-0.9 1.45537,0 1.45538,-1.8 0.72768,2.7 0.72769,0 0.72769,-0.9 0.72769,0 2.18306,2.7 0.72769,-1.8 0.72769,1.8 1.45537,-1.8 2.91075,0 0.72769,3.6 0.72768,-1.8 0.72769,-0.9 0.72769,-1.8 0.72769,0.9 0.72768,3.6 0.72769,0 0.72769,-1.8 0.72769,0 0.72768,-1.8 0.72769,0 2.18306,2.7 2.18307,-2.7 0.72769,0 0.72768,3.6 2.18307,0 0.72768,-0.9 0.72769,0 0.72769,-0.9 0.72769,0.9 0.72768,-0.9 2.18306,0 0.72769,-0.9 0.72769,0.9 0.72769,-0.9 0.72768,1.8 0.72769,-0.9 2.18306,0 0.72769,-1.8 0.72769,2.7 0.72769,0.9 0.72768,-0.9 0.72769,0.9 0.72769,-1.8 0.72769,-0.9 2.91075,0 0.72768,1.8 0.72769,-0.9 2.18307,0 1.45537,-1.8 0.72769,0.9 0.72768,-0.9 0.72769,3.6 0.72769,0 0.72769,-1.8 1.45537,1.8 0.72769,0 0.72769,-1.8 1.45537,-1.8 0.72769,0.9 1.45537,0 0.72769,1.8 2.18306,-2.7 1.45538,1.8 1.45537,0 0.72769,-1.8 0.72769,0 0.72769,1.8 0.72768,0 0.72769,0.9 1.45538,0 0.72768,-2.7 0.72769,-0.9 0.72769,0 0.72769,-0.9 0.72769,0.9 0.72768,0 0.72769,1.8 0.72769,2.7 0.72768,-0.9 0.72769,0.9 0.72769,-1.8 0.72769,2.7 0.72768,1.8 0.72769,-0.9 0.72769,0.9 0.72769,1.8 0.72768,-1.8 0.72769,-2.7 2.18306,0 0.72769,-1.8 1.45538,1.8 2.91075,0 0.72768,1.8 0.72769,-1.8 0.72769,-0.9 0.72769,0.9 0.72769,2.7 1.45537,1.8 0.72769,0 0.72768,-1.8 0.72769,-0.9 0.72769,0 0.72769,0.9 0.72768,-0.9 0.72769,-1.8 0.72769,0.9 1.45537,-1.8 0.72769,0 0.72769,-0.9 0.72769,1.8 0.72768,0 0.72769,-0.9 0.72769,0 1.45537,1.8 0.72769,1.8 0.72769,0 1.45537,-1.8 0.72769,0 0.72769,1.8 0.72769,0 0.72768,-0.9 0.72769,0 0.72769,-0.9 0.72769,0 0.72768,0.9 1.45538,-1.8 0.72769,0 0.72769,1.8 1.45537,-1.8 0.72769,0 0.72768,1.8 0.72769,-2.7 0.72769,1.8 0.72769,0 0.72768,-0.9 0.72769,0 0.72769,-0.9 0.72769,0 0.72768,4.5 0.72769,0.9 0.72769,-0.9 0.72769,0 0.72768,-0.9 0.72769,0.9 0.72769,2.7 0.72769,0.9 0.72768,-4.5 0.72769,2.7 0.72769,-1.8 0.72769,0.9 0.72768,-0.9 1.45538,0 0.72769,-0.9 1.45537,0 0.72769,-0.9 1.45538,0 0.72768,0.9 1.45538,0 0.72768,-0.9 0.72769,2.7 0.72769,-1.8 0.72769,0.9 0.72768,-0.9 0.72769,0.9 0.72769,-1.8 2.18306,0 0.72769,-0.9 2.18306,0 0.72769,-0.9 0.72769,2.7 0.72769,0.9 0.72768,-1.8 0.72769,0 1.45537,-1.8 0.72769,3.6 0.72769,-0.9 0.72769,1.8 1.45537,1.8 0.72769,-0.9 0.72769,-1.8 0.72768,0.9 0.72769,0 0.72769,0.9 0.72769,-0.9 1.45537,1.8 0.72769,-1.8 1.45537,-1.8 0.72769,0.9 0.72769,-0.9 0.72769,0 0.72768,-0.9 1.45538,0 0.72769,0.9 1.45537,0 0.72769,0.9 0.72769,0 0.72768,-0.9 0.72769,0.9 0.72769,0 0.72769,-0.9 0.72768,0 0.72769,0.9 0.72769,0 1.45537,-1.8 0.72769,0.9 0.72769,-0.9 0.72769,0.9 0.72769,-0.9 1.45537,0 0.72769,-3.6 1.45537,0 0.72769,-0.9 3.63844,4.5 0.72768,-0.9 0.72769,2.7 0.72769,-0.9 1.45537,0 1.45538,1.8 0.72769,0 0.72768,1.8 0.72769,0.9 0.72769,-4.5 1.45537,-1.8 0.72769,1.8 1.45538,0 1.45537,3.6 0.72769,-0.9 0.72769,0.9 0.72768,0 1.45538,-1.8 2.18306,0 0.72769,-0.9 0.72769,0.9 0.72768,2.7 2.18307,-2.7 0.72768,0.9 0.72769,0 0.72769,0.9 0.72769,-1.8 0.72769,0.9 0.72768,4.5 1.45538,-3.6 1.45537,0 0.72769,0.9 2.18306,0 0.72769,-1.8 0.72769,0 1.45537,1.8 0.72769,-0.9 0.72769,0 0.72769,-0.9 0.72768,0 0,0"
             inkscape:connector-curvature="0" />
        </g>
      </g>
      <g
         id="g3039">
        <g
           clip-path="url(#clipPath3043)"
           id="g3041">
          <path
             id="path3047"
             style="fill:none;stroke:#dc143c;stroke-width:2;stroke-linecap:butt;stroke-linejoin:round;stroke-miterlimit:10;stroke-opacity:1;stroke-dasharray:6, 6;stroke-dashoffset:0"
             d="m 56.5875,256.73025 435.88481,0 0,0"
             inkscape:connector-curvature="0" />
        </g>
      </g>
      <g
         id="g3049">
        <g
           clip-path="url(#clipPath3053)"
           id="g3051">
          <path
             id="path3057"
             style="fill:none;stroke:#ffa500;stroke-width:1;stroke-linecap:square;stroke-linejoin:round;stroke-miterlimit:10;stroke-opacity:1;stroke-dasharray:none"
             d="m 56.5875,138.6 0.727687,0.9 0.727688,-0.9 0.727688,0 0.727687,-0.9 0.727688,0.9 0.727687,-0.9 2.183062,0 0.727688,0.9 0.727687,1.8 1.455375,0 0.727688,-0.9 0.727687,0.9 0.727688,-0.9 5.093812,0 2.183063,-2.7 4.366125,0 0.727687,0.9 1.455375,-1.8 0.727688,0 0.727688,-1.8 0.727687,0 5.093812,-6.3 1.455375,0 0.727688,-0.9 0.727688,0 0.727687,-0.9 0.727687,0 0.727688,-0.9 0.727687,0 0.727688,-0.9 1.455375,0 0.727687,-0.9 1.455375,0 1.455378,-1.8 1.45537,0 1.45538,-1.8 2.18306,0 0.72769,-0.9 1.45537,0 0.72769,-0.9 2.18306,0 0.72769,-0.9 2.91075,0 0.72769,1.8 3.63844,0 0.72768,-0.9 0.72769,0.9 0.72769,0 0.72768,-0.9 1.45538,0 0.72769,-0.9 0.72769,0 2.18306,-2.7 0.72769,0.9 1.45537,0 1.45537,-1.8 0.72769,0 0.72769,-0.9 2.91075,0 0.72769,-0.9 0.72768,0 0.72769,-0.9 2.91075,0 1.45538,-1.8 1.45537,0 0.72769,-0.9 0.72769,0 0.72768,-0.9 0.72769,0 0.72769,0.9 1.45537,0 0.72769,-0.9 0.72769,0 0.72769,0.9 0.72768,-0.9 2.18307,0 0.72768,-0.9 2.18307,0 0.72768,-0.9 1.45538,0 2.18306,-2.7 0.72769,0 0.72769,-0.9 0.72768,0.9 0.72769,0 0.72769,-0.9 0.72769,0 0.72768,-0.9 5.8215,0 0.72769,-0.9 0.72769,0 0.72769,-0.9 0.72768,0 0.72769,0.9 0.72769,0 1.45537,-1.8 1.45538,0 0.72769,0.9 1.45537,-1.8 0.72769,0 0.72769,-0.9 1.45537,0 0.72769,0.9 1.45537,0 1.45538,-1.8 1.45537,0 0.72769,0.9 0.72769,-0.9 0.72769,0 0.72768,-0.9 2.18307,0 0.72768,-0.9 1.45538,0 0.72769,-0.9 3.63843,0 0.72769,0.9 2.18306,0 0.72769,0.9 1.45538,0 0.72768,-1.8 2.91075,0 0.72769,-0.9 0.72769,0.9 2.18306,0 1.45538,-1.8 2.18306,0 0.72769,-0.9 0.72768,0.9 3.63844,0 0.72769,0.9 0.72769,0 0.72768,-0.9 0.72769,0 1.45538,-1.8 0.72768,0 0.72769,-0.9 0.72769,0 0.72769,-0.9 9.45993,0 0.72769,-0.9 2.18307,0 0.72768,0.9 4.36613,0 0.72768,-0.9 0.72769,0 0.72769,-0.9 2.18306,0 0.72769,0.9 0.72769,0 2.18306,-2.7 1.45537,0 0.72769,0.9 1.45538,0 0.72769,-0.9 1.45537,0 0.72769,-0.9 0.72768,0.9 1.45538,0 0.72769,0.9 1.45537,0 0.72769,0.9 0.72769,-0.9 0.72768,0 0.72769,0.9 2.91075,0 0.72769,-0.9 0.72769,0 0.72768,-0.9 0.72769,0 0.72769,0.9 2.18306,0 0.72769,-0.9 5.09381,0 0.72769,0.9 1.45537,0 0.72769,0.9 2.91075,0 1.45538,-1.8 2.91075,0 0.72768,-0.9 7.27688,0 0.72769,-1.8 2.18306,0 0.72769,0.9 0.72768,0 0.72769,0.9 0.72769,0 0.72769,0.9 1.45537,0 0.72769,-0.9 0.72769,-1.8 0.72768,-0.9 6.54919,0 0.72769,0.9 1.45537,0 0.72769,0.9 1.45538,0 0.72768,-0.9 3.63844,0 0.72769,0.9 1.45538,0 1.45537,-1.8 5.8215,0 0.72769,0.9 0.72768,0 0.72769,-0.9 0.72769,0 0.72769,-0.9 0.72768,0 0.72769,0.9 1.45538,-1.8 1.45537,0 0.72769,0.9 0.72769,0 0.72768,0.9 2.18307,0 0.72769,-0.9 0.72768,0 0.72769,-0.9 1.45537,0 0.72769,0.9 0.72769,0 0.72769,0.9 0.72768,0 0.72769,0.9 2.91075,0 0.72769,-0.9 0.72769,0 0.72768,0.9 1.45538,0 1.45537,-1.8 6.54919,0 0.72769,0.9 2.18306,0 0.72769,-0.9 5.09381,0 0.72769,0.9 0.72769,0 0.72768,-0.9 0.72769,0.9 9.45994,0 0.72769,-0.9 0.72768,0 0.72769,-0.9 3.63844,0 0.72769,0.9 2.18306,0 0.72769,-0.9 4.36612,0 0.72769,0.9 0.72769,0 0.72768,-0.9 0.72769,0 0.72769,-0.9 4.36613,0 0.72768,0.9 2.18306,0 0.72769,0.9 2.18306,0 0.72769,0.9 2.18306,0 0.72769,-0.9 0.72769,0 0.72769,-0.9 1.45537,0 2.18306,-2.7 1.45538,0 0.72769,-0.9 3.63843,0 2.18307,2.7 2.18306,0 0.72769,0.9 5.09381,0 0.72769,-0.9 1.45537,0 0.72769,-0.9 1.45537,1.8 0.72769,0 0.72769,-0.9 0.72769,0 0.72768,0.9 0.72769,0 0.72769,-0.9 0.72769,0 0.72768,-0.9 2.18307,0 0.72768,0.9 0.72769,-0.9 9.45994,0 0.72769,0.9 0.72768,0 0.72769,0.9 0.72769,-0.9 2.91075,0 0.72769,0.9 7.27687,0 1.45538,-1.8 5.09381,0 0.72769,0.9 1.45537,0 0.72769,0.9 2.18306,0 0,0"
             inkscape:connector-curvature="0" />
        </g>
      </g>
      <g
         id="g3059">
        <g
           clip-path="url(#clipPath3063)"
           id="g3061">
          <path
             id="path3067"
             style="fill:none;stroke:#ff6347;stroke-width:2;stroke-linecap:butt;stroke-linejoin:round;stroke-miterlimit:10;stroke-opacity:1;stroke-dasharray:6, 6;stroke-dashoffset:0"
             d="m 56.5875,87.2985 435.88481,0 0,0"
             inkscape:connector-curvature="0" />
        </g>
      </g>
      <g
         id="g3069">
        <path
           id="path3071"
           style="fill:none;stroke:#000000;stroke-width:1;stroke-linecap:square;stroke-linejoin:miter;stroke-miterlimit:10;stroke-opacity:1;stroke-dasharray:none"
           d="m 56.5875,313.2 436.6125,0"
           inkscape:connector-curvature="0" />
        <path
           id="path3073"
           style="fill:none;stroke:#000000;stroke-width:1;stroke-linecap:square;stroke-linejoin:miter;stroke-miterlimit:10;stroke-opacity:1;stroke-dasharray:none"
           d="m 493.2,43.2 0,270"
           inkscape:connector-curvature="0" />
        <path
           id="path3075"
           style="fill:none;stroke:#000000;stroke-width:1;stroke-linecap:square;stroke-linejoin:miter;stroke-miterlimit:10;stroke-opacity:1;stroke-dasharray:none"
           d="M 56.5875,43.2 493.2,43.2"
           inkscape:connector-curvature="0" />
        <path
           id="path3077"
           style="fill:none;stroke:#000000;stroke-width:1;stroke-linecap:square;stroke-linejoin:miter;stroke-miterlimit:10;stroke-opacity:1;stroke-dasharray:none"
           d="m 56.5875,43.2 0,270"
           inkscape:connector-curvature="0" />
        <path
           id="path3079"
           style="fill:#000000;fill-opacity:1;fill-rule:nonzero;stroke:#000000;stroke-width:0.5;stroke-linecap:butt;stroke-linejoin:round;stroke-miterlimit:10;stroke-opacity:1;stroke-dasharray:none"
           d="m 56.5875,43.2 0,4"
           inkscape:connector-curvature="0" />
        <path
           id="path3081"
           style="fill:#000000;fill-opacity:1;fill-rule:nonzero;stroke:#000000;stroke-width:0.5;stroke-linecap:butt;stroke-linejoin:round;stroke-miterlimit:10;stroke-opacity:1;stroke-dasharray:none"
           d="m 56.5875,313.2 0,-4"
           inkscape:connector-curvature="0" />
        <text
           id="text3083"
           transform="matrix(1,0,0,-1,47.8375,30.075)"
           style="-inkscape-font-specification:Utopia;font-family:Utopia">
          <tspan
             id="tspan3085"
             sodipodi:role="line"
             y="0"
             x="0 7.632 11.448"
             style="font-size:12px;font-variant:normal;font-weight:normal;writing-mode:lr-tb;fill:#000000;fill-opacity:1;fill-rule:nonzero;stroke:none;font-family:Utopia;-inkscape-font-specification:Utopia">0.0</tspan>
        </text>
        <path
           id="path3087"
           style="fill:#000000;fill-opacity:1;fill-rule:nonzero;stroke:#000000;stroke-width:0.5;stroke-linecap:butt;stroke-linejoin:round;stroke-miterlimit:10;stroke-opacity:1;stroke-dasharray:none"
           d="m 143.91,43.2 0,4"
           inkscape:connector-curvature="0" />
        <path
           id="path3089"
           style="fill:#000000;fill-opacity:1;fill-rule:nonzero;stroke:#000000;stroke-width:0.5;stroke-linecap:butt;stroke-linejoin:round;stroke-miterlimit:10;stroke-opacity:1;stroke-dasharray:none"
           d="m 143.91,313.2 0,-4"
           inkscape:connector-curvature="0" />
        <text
           id="text3091"
           transform="matrix(1,0,0,-1,135.19906,30.075)"
           style="-inkscape-font-specification:Utopia;font-family:Utopia">
          <tspan
             id="tspan3093"
             sodipodi:role="line"
             y="0"
             x="0 7.632 11.448"
             style="font-size:12px;font-variant:normal;font-weight:normal;writing-mode:lr-tb;fill:#000000;fill-opacity:1;fill-rule:nonzero;stroke:none;font-family:Utopia;-inkscape-font-specification:Utopia">2.0</tspan>
        </text>
        <path
           id="path3095"
           style="fill:#000000;fill-opacity:1;fill-rule:nonzero;stroke:#000000;stroke-width:0.5;stroke-linecap:butt;stroke-linejoin:round;stroke-miterlimit:10;stroke-opacity:1;stroke-dasharray:none"
           d="m 231.2325,43.2 0,4"
           inkscape:connector-curvature="0" />
        <path
           id="path3097"
           style="fill:#000000;fill-opacity:1;fill-rule:nonzero;stroke:#000000;stroke-width:0.5;stroke-linecap:butt;stroke-linejoin:round;stroke-miterlimit:10;stroke-opacity:1;stroke-dasharray:none"
           d="m 231.2325,313.2 0,-4"
           inkscape:connector-curvature="0" />
        <text
           id="text3099"
           transform="matrix(1,0,0,-1,222.38094,30.075)"
           style="-inkscape-font-specification:Utopia;font-family:Utopia">
          <tspan
             id="tspan3101"
             sodipodi:role="line"
             y="0"
             x="0 7.632 11.448"
             style="font-size:12px;font-variant:normal;font-weight:normal;writing-mode:lr-tb;fill:#000000;fill-opacity:1;fill-rule:nonzero;stroke:none;font-family:Utopia;-inkscape-font-specification:Utopia">4.0</tspan>
        </text>
        <path
           id="path3103"
           style="fill:#000000;fill-opacity:1;fill-rule:nonzero;stroke:#000000;stroke-width:0.5;stroke-linecap:butt;stroke-linejoin:round;stroke-miterlimit:10;stroke-opacity:1;stroke-dasharray:none"
           d="m 318.555,43.2 0,4"
           inkscape:connector-curvature="0" />
        <path
           id="path3105"
           style="fill:#000000;fill-opacity:1;fill-rule:nonzero;stroke:#000000;stroke-width:0.5;stroke-linecap:butt;stroke-linejoin:round;stroke-miterlimit:10;stroke-opacity:1;stroke-dasharray:none"
           d="m 318.555,313.2 0,-4"
           inkscape:connector-curvature="0" />
        <text
           id="text3107"
           transform="matrix(1,0,0,-1,309.82844,30.075)"
           style="-inkscape-font-specification:Utopia;font-family:Utopia">
          <tspan
             id="tspan3109"
             sodipodi:role="line"
             y="0"
             x="0 7.632 11.448"
             style="font-size:12px;font-variant:normal;font-weight:normal;writing-mode:lr-tb;fill:#000000;fill-opacity:1;fill-rule:nonzero;stroke:none;font-family:Utopia;-inkscape-font-specification:Utopia">6.0</tspan>
        </text>
        <path
           id="path3111"
           style="fill:#000000;fill-opacity:1;fill-rule:nonzero;stroke:#000000;stroke-width:0.5;stroke-linecap:butt;stroke-linejoin:round;stroke-miterlimit:10;stroke-opacity:1;stroke-dasharray:none"
           d="m 405.8775,43.2 0,4"
           inkscape:connector-curvature="0" />
        <path
           id="path3113"
           style="fill:#000000;fill-opacity:1;fill-rule:nonzero;stroke:#000000;stroke-width:0.5;stroke-linecap:butt;stroke-linejoin:round;stroke-miterlimit:10;stroke-opacity:1;stroke-dasharray:none"
           d="m 405.8775,313.2 0,-4"
           inkscape:connector-curvature="0" />
        <text
           id="text3115"
           transform="matrix(1,0,0,-1,397.13531,30.075)"
           style="-inkscape-font-specification:Utopia;font-family:Utopia">
          <tspan
             id="tspan3117"
             sodipodi:role="line"
             y="0"
             x="0 7.632 11.448"
             style="font-size:12px;font-variant:normal;font-weight:normal;writing-mode:lr-tb;fill:#000000;fill-opacity:1;fill-rule:nonzero;stroke:none;font-family:Utopia;-inkscape-font-specification:Utopia">8.0</tspan>
        </text>
        <text
           id="text3119"
           transform="matrix(1,0,0,-1,242.9875,13.45)"
           style="-inkscape-font-specification:Utopia;font-family:Utopia">
          <tspan
             id="tspan3121"
             sodipodi:role="line"
             y="0"
             x="0 8.2200003 15.6 18.936001 23.639999 27.455999 30.792 38.400002 42.216 53.903999 57.240002"
             style="font-size:12px;font-variant:normal;font-weight:normal;writing-mode:lr-tb;fill:#000000;fill-opacity:1;fill-rule:nonzero;stroke:none;font-family:Utopia;-inkscape-font-specification:Utopia">Zeit in min</tspan>
        </text>
        <path
           id="path3123"
           style="fill:#000000;fill-opacity:1;fill-rule:nonzero;stroke:#000000;stroke-width:0.5;stroke-linecap:butt;stroke-linejoin:round;stroke-miterlimit:10;stroke-opacity:1;stroke-dasharray:none"
           d="m 56.5875,43.2 4,0"
           inkscape:connector-curvature="0" />
        <path
           id="path3125"
           style="fill:#000000;fill-opacity:1;fill-rule:nonzero;stroke:#000000;stroke-width:0.5;stroke-linecap:butt;stroke-linejoin:round;stroke-miterlimit:10;stroke-opacity:1;stroke-dasharray:none"
           d="m 493.2,43.2 -4,0"
           inkscape:connector-curvature="0" />
        <text
           id="text3127"
           transform="matrix(1,0,0,-1,27.525,39.8875)"
           style="-inkscape-font-specification:Utopia;font-family:Utopia">
          <tspan
             id="tspan3129"
             sodipodi:role="line"
             y="0"
             x="0 7.632 15.264 19.08"
             style="font-size:12px;font-variant:normal;font-weight:normal;writing-mode:lr-tb;fill:#000000;fill-opacity:1;fill-rule:nonzero;stroke:none;font-family:Utopia;-inkscape-font-specification:Utopia">23.0</tspan>
        </text>
        <path
           id="path3131"
           style="fill:#000000;fill-opacity:1;fill-rule:nonzero;stroke:#000000;stroke-width:0.5;stroke-linecap:butt;stroke-linejoin:round;stroke-miterlimit:10;stroke-opacity:1;stroke-dasharray:none"
           d="m 56.5875,88.2 4,0"
           inkscape:connector-curvature="0" />
        <path
           id="path3133"
           style="fill:#000000;fill-opacity:1;fill-rule:nonzero;stroke:#000000;stroke-width:0.5;stroke-linecap:butt;stroke-linejoin:round;stroke-miterlimit:10;stroke-opacity:1;stroke-dasharray:none"
           d="m 493.2,88.2 -4,0"
           inkscape:connector-curvature="0" />
        <text
           id="text3135"
           transform="matrix(1,0,0,-1,27.775,84.8875)"
           style="-inkscape-font-specification:Utopia;font-family:Utopia">
          <tspan
             id="tspan3137"
             sodipodi:role="line"
             y="0"
             x="0 7.632 15.264 19.08"
             style="font-size:12px;font-variant:normal;font-weight:normal;writing-mode:lr-tb;fill:#000000;fill-opacity:1;fill-rule:nonzero;stroke:none;font-family:Utopia;-inkscape-font-specification:Utopia">23.5</tspan>
        </text>
        <path
           id="path3139"
           style="fill:#000000;fill-opacity:1;fill-rule:nonzero;stroke:#000000;stroke-width:0.5;stroke-linecap:butt;stroke-linejoin:round;stroke-miterlimit:10;stroke-opacity:1;stroke-dasharray:none"
           d="m 56.5875,133.2 4,0"
           inkscape:connector-curvature="0" />
        <path
           id="path3141"
           style="fill:#000000;fill-opacity:1;fill-rule:nonzero;stroke:#000000;stroke-width:0.5;stroke-linecap:butt;stroke-linejoin:round;stroke-miterlimit:10;stroke-opacity:1;stroke-dasharray:none"
           d="m 493.2,133.2 -4,0"
           inkscape:connector-curvature="0" />
        <text
           id="text3143"
           transform="matrix(1,0,0,-1,27.525,129.8875)"
           style="-inkscape-font-specification:Utopia;font-family:Utopia">
          <tspan
             id="tspan3145"
             sodipodi:role="line"
             y="0"
             x="0 7.632 15.264 19.08"
             style="font-size:12px;font-variant:normal;font-weight:normal;writing-mode:lr-tb;fill:#000000;fill-opacity:1;fill-rule:nonzero;stroke:none;font-family:Utopia;-inkscape-font-specification:Utopia">24.0</tspan>
        </text>
        <path
           id="path3147"
           style="fill:#000000;fill-opacity:1;fill-rule:nonzero;stroke:#000000;stroke-width:0.5;stroke-linecap:butt;stroke-linejoin:round;stroke-miterlimit:10;stroke-opacity:1;stroke-dasharray:none"
           d="m 56.5875,178.2 4,0"
           inkscape:connector-curvature="0" />
        <path
           id="path3149"
           style="fill:#000000;fill-opacity:1;fill-rule:nonzero;stroke:#000000;stroke-width:0.5;stroke-linecap:butt;stroke-linejoin:round;stroke-miterlimit:10;stroke-opacity:1;stroke-dasharray:none"
           d="m 493.2,178.2 -4,0"
           inkscape:connector-curvature="0" />
        <text
           id="text3151"
           transform="matrix(1,0,0,-1,27.775,174.8875)"
           style="-inkscape-font-specification:Utopia;font-family:Utopia">
          <tspan
             id="tspan3153"
             sodipodi:role="line"
             y="0"
             x="0 7.632 15.264 19.08"
             style="font-size:12px;font-variant:normal;font-weight:normal;writing-mode:lr-tb;fill:#000000;fill-opacity:1;fill-rule:nonzero;stroke:none;font-family:Utopia;-inkscape-font-specification:Utopia">24.5</tspan>
        </text>
        <path
           id="path3155"
           style="fill:#000000;fill-opacity:1;fill-rule:nonzero;stroke:#000000;stroke-width:0.5;stroke-linecap:butt;stroke-linejoin:round;stroke-miterlimit:10;stroke-opacity:1;stroke-dasharray:none"
           d="m 56.5875,223.2 4,0"
           inkscape:connector-curvature="0" />
        <path
           id="path3157"
           style="fill:#000000;fill-opacity:1;fill-rule:nonzero;stroke:#000000;stroke-width:0.5;stroke-linecap:butt;stroke-linejoin:round;stroke-miterlimit:10;stroke-opacity:1;stroke-dasharray:none"
           d="m 493.2,223.2 -4,0"
           inkscape:connector-curvature="0" />
        <text
           id="text3159"
           transform="matrix(1,0,0,-1,27.525,219.8875)"
           style="-inkscape-font-specification:Utopia;font-family:Utopia">
          <tspan
             id="tspan3161"
             sodipodi:role="line"
             y="0"
             x="0 7.632 15.264 19.08"
             style="font-size:12px;font-variant:normal;font-weight:normal;writing-mode:lr-tb;fill:#000000;fill-opacity:1;fill-rule:nonzero;stroke:none;font-family:Utopia;-inkscape-font-specification:Utopia">25.0</tspan>
        </text>
        <path
           id="path3163"
           style="fill:#000000;fill-opacity:1;fill-rule:nonzero;stroke:#000000;stroke-width:0.5;stroke-linecap:butt;stroke-linejoin:round;stroke-miterlimit:10;stroke-opacity:1;stroke-dasharray:none"
           d="m 56.5875,268.2 4,0"
           inkscape:connector-curvature="0" />
        <path
           id="path3165"
           style="fill:#000000;fill-opacity:1;fill-rule:nonzero;stroke:#000000;stroke-width:0.5;stroke-linecap:butt;stroke-linejoin:round;stroke-miterlimit:10;stroke-opacity:1;stroke-dasharray:none"
           d="m 493.2,268.2 -4,0"
           inkscape:connector-curvature="0" />
        <text
           id="text3167"
           transform="matrix(1,0,0,-1,27.775,264.8875)"
           style="-inkscape-font-specification:Utopia;font-family:Utopia">
          <tspan
             id="tspan3169"
             sodipodi:role="line"
             y="0"
             x="0 7.632 15.264 19.08"
             style="font-size:12px;font-variant:normal;font-weight:normal;writing-mode:lr-tb;fill:#000000;fill-opacity:1;fill-rule:nonzero;stroke:none;font-family:Utopia;-inkscape-font-specification:Utopia">25.5</tspan>
        </text>
        <path
           id="path3171"
           style="fill:#000000;fill-opacity:1;fill-rule:nonzero;stroke:#000000;stroke-width:0.5;stroke-linecap:butt;stroke-linejoin:round;stroke-miterlimit:10;stroke-opacity:1;stroke-dasharray:none"
           d="m 56.5875,313.2 4,0"
           inkscape:connector-curvature="0" />
        <path
           id="path3173"
           style="fill:#000000;fill-opacity:1;fill-rule:nonzero;stroke:#000000;stroke-width:0.5;stroke-linecap:butt;stroke-linejoin:round;stroke-miterlimit:10;stroke-opacity:1;stroke-dasharray:none"
           d="m 493.2,313.2 -4,0"
           inkscape:connector-curvature="0" />
        <text
           id="text3175"
           transform="matrix(0,1,1,0,20.025,127.55156)"
           style="-inkscape-font-specification:Utopia;font-family:Utopia">
          <tspan
             id="tspan3177"
             sodipodi:role="line"
             y="0"
             x="0 7.3319998 14.712 26.4 34.02 41.400002 46.332001 53.688 58.391998 66 70.931999 74.748001 78.084 85.692001 89.508003 95.508003"
             style="font-size:12px;font-variant:normal;font-weight:normal;writing-mode:lr-tb;fill:#000000;fill-opacity:1;fill-rule:nonzero;stroke:none;font-family:Utopia;-inkscape-font-specification:Utopia">Temperatur in °C</tspan>
        </text>
        <path
           id="path3179"
           style="fill:#ffffff;fill-opacity:1;fill-rule:nonzero;stroke:#000000;stroke-width:1;stroke-linecap:butt;stroke-linejoin:miter;stroke-miterlimit:10;stroke-opacity:1;stroke-dasharray:none"
           d="m 190.25312,268.35 296.94688,0 0,38.85 -296.94688,0 0,-38.85 z"
           inkscape:connector-curvature="0" />
        <path
           id="path3181"
           style="fill:none;stroke:#0000ff;stroke-width:1;stroke-linecap:square;stroke-linejoin:round;stroke-miterlimit:10;stroke-opacity:1;stroke-dasharray:none"
           d="m 198.65312,297.475 16.8,0"
           inkscape:connector-curvature="0" />
        <text
           id="text3183"
           transform="matrix(1,0,0,-1,228.65312,293.275)"
           style="-inkscape-font-specification:Utopia;font-family:Utopia">
          <tspan
             id="tspan3185"
             sodipodi:role="line"
             y="0"
             x="0 7.2360001 14.58 20.832001 24.648001"
             style="font-size:12px;font-variant:normal;font-weight:normal;writing-mode:lr-tb;fill:#000000;fill-opacity:1;fill-rule:nonzero;stroke:none;font-family:Utopia;-inkscape-font-specification:Utopia">Pos A</tspan>
        </text>
        <path
           id="path3187"
           style="fill:none;stroke:#00008b;stroke-width:2;stroke-linecap:butt;stroke-linejoin:round;stroke-miterlimit:10;stroke-opacity:1;stroke-dasharray:6, 6;stroke-dashoffset:0"
           d="m 198.65312,279.85 16.8,0"
           inkscape:connector-curvature="0" />
        <text
           id="text3189"
           transform="matrix(1,0,0,-1,228.65312,275.65)"
           style="font-family:Utopia;-inkscape-font-specification:Utopia">
          <tspan
             id="tspan3191"
             sodipodi:role="line"
             y="0"
             x="0 10.356 14.172 21.408001 28.752001 35.004002 38.82"
             style="font-size:12px;font-variant:normal;font-weight:normal;writing-mode:lr-tb;fill:#000000;fill-opacity:1;fill-rule:nonzero;stroke:none;font-family:Utopia;-inkscape-font-specification:Utopia">Ø Pos A</tspan>
        </text>
        <path
           id="path3193"
           style="fill:none;stroke:#ff0000;stroke-width:1;stroke-linecap:square;stroke-linejoin:round;stroke-miterlimit:10;stroke-opacity:1;stroke-dasharray:none"
           d="m 302.8,297.475 16.8,0"
           inkscape:connector-curvature="0" />
        <text
           id="text3195"
           transform="matrix(1,0,0,-1,332.8,293.275)"
           style="-inkscape-font-specification:Utopia;font-family:Utopia">
          <tspan
             id="tspan3197"
             sodipodi:role="line"
             y="0"
             x="0 7.2360001 14.58 20.832001 24.648001"
             style="font-size:12px;font-variant:normal;font-weight:normal;writing-mode:lr-tb;fill:#000000;fill-opacity:1;fill-rule:nonzero;stroke:none;font-family:Utopia;-inkscape-font-specification:Utopia">Pos B</tspan>
        </text>
        <path
           id="path3199"
           style="fill:none;stroke:#dc143c;stroke-width:2;stroke-linecap:butt;stroke-linejoin:round;stroke-miterlimit:10;stroke-opacity:1;stroke-dasharray:6, 6;stroke-dashoffset:0"
           d="m 302.8,279.85 16.8,0"
           inkscape:connector-curvature="0" />
        <text
           id="text3201"
           transform="matrix(1,0,0,-1,332.8,275.65)"
           style="font-family:Utopia;-inkscape-font-specification:Utopia">
          <tspan
             id="tspan3203"
             sodipodi:role="line"
             y="0"
             x="0 10.356 14.172 21.408001 28.752001 35.004002 38.82"
             style="font-size:12px;font-variant:normal;font-weight:normal;writing-mode:lr-tb;fill:#000000;fill-opacity:1;fill-rule:nonzero;stroke:none;font-family:Utopia;-inkscape-font-specification:Utopia">Ø Pos B</tspan>
        </text>
        <path
           id="path3205"
           style="fill:none;stroke:#ffa500;stroke-width:1;stroke-linecap:square;stroke-linejoin:round;stroke-miterlimit:10;stroke-opacity:1;stroke-dasharray:none"
           d="m 406.22812,297.475 16.8,0"
           inkscape:connector-curvature="0" />
        <text
           id="text3207"
           transform="matrix(1,0,0,-1,436.22812,293.275)"
           style="-inkscape-font-specification:Utopia;font-family:Utopia">
          <tspan
             id="tspan3209"
             sodipodi:role="line"
             y="0"
             x="0 7.2360001 14.58 20.832001 24.648001"
             style="font-size:12px;font-variant:normal;font-weight:normal;writing-mode:lr-tb;fill:#000000;fill-opacity:1;fill-rule:nonzero;stroke:none;font-family:Utopia;-inkscape-font-specification:Utopia">Pos C</tspan>
        </text>
        <path
           id="path3211"
           style="fill:none;stroke:#ff6347;stroke-width:2;stroke-linecap:butt;stroke-linejoin:round;stroke-miterlimit:10;stroke-opacity:1;stroke-dasharray:6, 6;stroke-dashoffset:0"
           d="m 406.22812,279.85 16.8,0"
           inkscape:connector-curvature="0" />
        <text
           id="text3213"
           transform="matrix(1,0,0,-1,436.22812,275.65)"
           style="font-family:Utopia;-inkscape-font-specification:Utopia">
          <tspan
             id="tspan3215"
             sodipodi:role="line"
             y="0"
             x="0 10.356 14.172 21.408001 28.752001 35.004002 38.82"
             style="font-size:12px;font-variant:normal;font-weight:normal;writing-mode:lr-tb;fill:#000000;fill-opacity:1;fill-rule:nonzero;stroke:none;font-family:Utopia;-inkscape-font-specification:Utopia">Ø Pos C</tspan>
        </text>
      </g>
    </g>
  </g>
</svg>
