<?xml version="1.0" encoding="UTF-8" standalone="no"?>
<!-- Created with Inkscape (http://www.inkscape.org/) -->

<svg
   xmlns:dc="http://purl.org/dc/elements/1.1/"
   xmlns:cc="http://creativecommons.org/ns#"
   xmlns:rdf="http://www.w3.org/1999/02/22-rdf-syntax-ns#"
   xmlns:svg="http://www.w3.org/2000/svg"
   xmlns="http://www.w3.org/2000/svg"
   xmlns:sodipodi="http://sodipodi.sourceforge.net/DTD/sodipodi-0.dtd"
   xmlns:inkscape="http://www.inkscape.org/namespaces/inkscape"
   width="744.09448819"
   height="1052.3622047"
   id="svg2"
   version="1.1"
   inkscape:version="0.48.2 r9819"
   sodipodi:docname="New document 1">
  <defs
     id="defs4">
    <clipPath
       id="clipPath3063"
       clipPathUnits="userSpaceOnUse">
      <path
         id="path3065"
         d="m 49.078125,43.2 444.121875,0 0,270 -444.121875,0 0,-270 z" />
    </clipPath>
    <clipPath
       id="clipPath3053"
       clipPathUnits="userSpaceOnUse">
      <path
         id="path3055"
         d="m 49.078125,43.2 444.121875,0 0,270 -444.121875,0 0,-270 z" />
    </clipPath>
    <clipPath
       id="clipPath3043"
       clipPathUnits="userSpaceOnUse">
      <path
         id="path3045"
         d="m 49.078125,43.2 444.121875,0 0,270 -444.121875,0 0,-270 z" />
    </clipPath>
    <clipPath
       id="clipPath3033"
       clipPathUnits="userSpaceOnUse">
      <path
         id="path3035"
         d="m 49.078125,43.2 444.121875,0 0,270 -444.121875,0 0,-270 z" />
    </clipPath>
    <clipPath
       id="clipPath3023"
       clipPathUnits="userSpaceOnUse">
      <path
         id="path3025"
         d="m 49.078125,43.2 444.121875,0 0,270 -444.121875,0 0,-270 z" />
    </clipPath>
    <clipPath
       id="clipPath3013"
       clipPathUnits="userSpaceOnUse">
      <path
         id="path3015"
         d="m 49.078125,43.2 444.121875,0 0,270 -444.121875,0 0,-270 z" />
    </clipPath>
    <clipPath
       id="clipPath3003"
       clipPathUnits="userSpaceOnUse">
      <path
         id="path3005"
         d="m 49.078125,43.2 444.121875,0 0,270 -444.121875,0 0,-270 z" />
    </clipPath>
  </defs>
  <sodipodi:namedview
     id="base"
     pagecolor="#ffffff"
     bordercolor="#666666"
     borderopacity="1.0"
     inkscape:pageopacity="0.0"
     inkscape:pageshadow="2"
     inkscape:zoom="1.4"
     inkscape:cx="400.26804"
     inkscape:cy="484.48902"
     inkscape:document-units="px"
     inkscape:current-layer="layer1"
     showgrid="false"
     inkscape:window-width="1920"
     inkscape:window-height="1017"
     inkscape:window-x="-8"
     inkscape:window-y="-8"
     inkscape:window-maximized="1" />
  <metadata
     id="metadata7">
    <rdf:RDF>
      <cc:Work
         rdf:about="">
        <dc:format>image/svg+xml</dc:format>
        <dc:type
           rdf:resource="http://purl.org/dc/dcmitype/StillImage" />
        <dc:title></dc:title>
      </cc:Work>
    </rdf:RDF>
  </metadata>
  <g
     inkscape:label="Layer 1"
     inkscape:groupmode="layer"
     id="layer1">
    <g
       transform="matrix(1.25,0,0,-1.25,60,734.86218)"
       inkscape:label="AV10pctOC"
       id="g2993">
      <path
         id="path2995"
         style="fill:#ffffff;fill-opacity:1;fill-rule:nonzero;stroke:none"
         d="M 0,0 504,0 504,324 0,324 0,0 z"
         inkscape:connector-curvature="0" />
      <path
         id="path2997"
         style="fill:#ffffff;fill-opacity:1;fill-rule:nonzero;stroke:none"
         d="m 49.078125,43.2 444.121875,0 0,270 -444.121875,0 0,-270 z"
         inkscape:connector-curvature="0" />
      <g
         id="g2999">
        <g
           clip-path="url(#clipPath3003)"
           id="g3001">
          <path
             id="path3007"
             style="fill:#008000;fill-opacity:0.2;fill-rule:nonzero;stroke:#008000;stroke-width:1;stroke-linecap:butt;stroke-linejoin:miter;stroke-miterlimit:10;stroke-opacity:0.2;stroke-dasharray:none"
             d="m 49.078125,97.2 0,54 444.121875,0 0,-54 -444.121875,0 z"
             inkscape:connector-curvature="0" />
        </g>
      </g>
      <g
         id="g3009">
        <g
           clip-path="url(#clipPath3013)"
           id="g3011">
          <path
             id="path3017"
             style="fill:none;stroke:#0000ff;stroke-width:1;stroke-linecap:square;stroke-linejoin:round;stroke-miterlimit:10;stroke-opacity:1;stroke-dasharray:none"
             d="m 49.078125,124.2 0.740203,32.4 0.740203,-27 0.740203,-10.8 0.740204,64.8 0.740203,-16.2 0.740203,-91.8 0.740203,124.2 1.480406,-86.4 0.740203,0 0.740203,10.8 0.740204,21.6 0.740203,-97.2 0.740203,75.6 0.740203,32.4 0.740203,-70.2 0.740203,-5.4 0.740203,27 0.740203,-16.2 0.740203,10.8 0.740204,5.4 0.740203,-37.8 0.740203,54 0.740203,-59.4 0.740203,48.6 0.740203,27 0.740203,0 0.740203,108 0.740204,-64.8 0.740203,-27 0.740203,10.8 0.740203,-48.6 0.740203,5.4 0.740203,-16.2 0.740203,140.4 0.740203,-75.6 0.740204,91.8 0.740203,-48.6 1.480406,-70.2 0.740203,5.4 0.740203,27 0.740203,-59.4 0.740204,16.2 0.740203,48.6 0.740203,21.6 0.740203,-10.8 0.740203,43.2 0.740203,-5.4 0.740203,-108 0.740203,-48.6 0.740203,64.8 0.740204,183.6 0.740203,-118.8 0.740203,-21.6 0.740203,-70.2 0.740203,-48.6 0.740203,37.8 0.740203,108 0.740204,-27 0.740203,-118.8 0.740203,151.2 0.740203,-156.6 0.740203,97.2 1.480406,0 0.740203,129.6 0.740204,-75.6 0.740202,-43.2 0.7402,5.4 0.74021,48.6 0.7402,-118.8 0.7402,27 0.74021,97.2 0.7402,-5.4 0.7402,-16.2 0.74021,-48.6 0.7402,-32.4 0.7402,64.8 0.74021,27 0.7402,-32.4 0.7402,-75.6 0.7402,-5.4 0.74021,81 0.7402,64.8 0.7402,-27 0.74021,-91.8 0.7402,27 0.7402,-27 0.74021,43.2 0.7402,5.4 0.7402,10.8 0.74021,75.6 0.7402,-37.8 0.7402,37.8 0.74021,-54 0.7402,-21.6 0.7402,-75.6 0.7402,-48.6 0.74021,48.6 0.7402,75.6 0.7402,54 0.74021,-32.4 0.7402,-21.6 0.7402,43.2 0.74021,-91.8 0.7402,97.2 0.7402,-54 0.74021,48.6 0.7402,5.4 1.4804,-97.2 1.48041,64.8 0.7402,-10.8 0.74021,86.4 0.7402,-91.8 0.7402,-5.4 0.74021,59.4 0.7402,32.4 0.7402,-59.4 0.74021,-5.4 0.7402,-43.2 0.7402,21.6 0.74021,10.8 0.7402,16.2 0.7402,-91.8 0.7402,140.4 0.74021,16.2 0.7402,-32.4 0.7402,27 0.74021,-5.4 0.7402,-64.8 0.7402,-37.8 0.74021,-27 0.7402,86.4 0.7402,-54 0.74021,75.6 0.7402,27 0.7402,-64.8 0.74021,-43.2 0.7402,27 0.7402,-43.2 0.7402,86.4 0.74021,10.8 0.7402,0 0.7402,27 0.74021,-37.8 1.4804,43.2 0.74021,-54 0.7402,-32.4 0.7402,32.4 0.74021,-32.4 0.7402,75.6 0.7402,37.8 0.74021,-70.2 0.7402,-10.8 0.7402,-140.4 0.7402,10.8 0.74021,129.6 0.7402,21.6 0.7402,-43.2 1.48041,81 0.7402,16.2 0.74021,-81 0.7402,64.8 0.7402,-48.6 0.74021,64.8 0.7402,-10.8 0.7402,5.4 0.63968,28 m 0.12063,0 0.7201,-157.6 0.7402,151.2 0.7402,-32.4 0.74021,-70.2 0.7402,10.8 0.7402,43.2 0.74021,-75.6 0.7402,-37.8 0.7402,10.8 0.74021,-37.8 1.4804,140.4 0.74021,-10.8 0.7402,59.4 0.7402,-27 0.74021,-16.2 1.4804,32.4 0.7402,-108 0.74021,48.6 0.7402,0 0.7402,-16.2 0.74021,64.8 0.7402,5.4 0.44256,22.6 m 0.4134,0 0.62445,-82 0.7402,-43.2 0.7402,81 0.74021,-81 0.7402,86.4 0.7402,-27 0.74021,0 0.7402,-43.2 0.7402,43.2 0.7402,27 0.74021,-10.8 0.7402,-16.2 0.7402,10.8 0.57994,55 m 0.42071,0 0.47976,-28 0.7402,0 0.74021,27 1.4804,-64.8 0.74021,-113.4 1.4804,43.2 0.74021,27 0.7402,64.8 0.7402,-70.2 0.7402,-21.6 0.74021,102.6 0.57228,33.4 m 0.25188,0 0.65624,-76.6 0.74021,37.8 0.7402,27 0.7402,-70.2 0.74021,32.4 0.7402,16.2 0.7402,32.4 0.74021,-16.2 0.7402,-27 0.7402,-10.8 0.74021,16.2 0.7402,-43.2 0.7402,-21.6 0.7402,21.6 0.74021,-59.4 0.7402,5.4 0.7402,97.2 0.74021,27 0.7402,-75.6 0.7402,0 0.74021,-91.8 0.7402,145.8 0.7402,5.4 0.74021,-10.8 0.7402,-64.8 0.7402,27 0.74021,-10.8 0.7402,86.4 0.7402,-5.4 1.48041,-64.8 0.7402,64.8 0.7402,-91.8 0.74021,54 0.7402,21.6 0.7402,-118.8 0.74021,59.4 0.7402,-10.8 0.7402,54 0.74021,10.8 0.7402,16.2 0.7402,-64.8 0.74021,10.8 0.7402,-54 0.7402,-10.8 0.7402,70.2 1.48041,-81 0.7402,86.4 0.74021,-37.8 0.7402,32.4 0.7402,21.6 0.74021,-54 0.7402,70.2 0.7402,-21.6 0.74021,5.4 0.7402,10.8 0.7402,-81 0.74021,32.4 0.7402,16.2 0.7402,-5.4 0.7402,-32.4 0.74021,10.8 0.7402,21.6 0.7402,-27 0.74021,-37.8 0.7402,21.6 0.7402,70.2 0.74021,27 0.7402,5.4 0.7402,-32.4 1.48041,-21.6 0.7402,10.8 0.74021,-27 0.7402,27 0.7402,-48.6 0.7402,54 0.74021,-16.2 0.7402,37.8 0.7402,5.4 0.74021,-27 0.7402,-37.8 0.7402,37.8 0.74021,-54 0.7402,21.6 0.7402,-5.4 0.74021,-32.4 0.7402,81 0.7402,-10.8 0.74021,10.8 0.7402,-32.4 0.7402,43.2 0.7402,-91.8 0.74021,-43.2 1.4804,43.2 0.74021,16.2 0.7402,-21.6 0.7402,21.6 0.74021,-10.8 0.7402,5.4 0.7402,-16.2 0.74021,-64.8 0.7402,75.6 0.7402,-54 0.74021,75.6 0.7402,-48.6 0.7402,-32.4 0.7402,64.8 0.74021,54 0.7402,5.4 0.7402,-37.8 0.74021,16.2 1.4804,43.2 1.48041,-54 0.69999,76.6 m 0.24126,0 0.53916,-11.8 0.7402,-21.6 0.7402,-27 0.74021,-91.8 0.7402,64.8 0.7402,37.8 0.74021,0 0.7402,21.6 0.7402,-16.2 0.7402,0 0.74021,-5.4 0.7402,-81 0.7402,75.6 0.74021,-43.2 0.7402,0 1.48041,70.2 0.7402,-43.2 0.7402,-5.4 0.74021,32.4 0.7402,-21.6 0.7402,-16.2 0.7402,43.2 0.74021,-5.4 0.7402,43.2 0.7402,-27 0.74021,-5.4 0.7402,-21.6 0.7402,27 0.74021,0 0.7402,-16.2 1.48041,-54 0.7402,64.8 0.7402,-10.8 0.60587,44.2 m 0.35822,0 1.25652,-55 0.7402,43.2 1.48041,-32.4 0.7402,37.8 0.74021,-64.8 0.7402,21.6 0.7402,43.2 0.74021,-27 0.7402,-48.6 0.7402,54 0.74021,0 0.7402,-5.4 0.7402,-37.8 0.74021,21.6 0.7402,-43.2 0.7402,27 0.7402,-32.4 0.74021,-16.2 0.7402,86.4 0.7402,-81 0.74021,48.6 0.7402,-48.6 0.7402,-32.4 0.74021,54 0.7402,21.6 0.7402,-37.8 0.74021,10.8 1.4804,54 0.74021,-32.4 0.7402,27 0.7402,-32.4 1.48041,-10.8 0.7402,16.2 0.7402,32.4 0.74021,-5.4 0.7402,16.2 0.7402,-37.8 0.74021,-16.2 0.7402,0 0.7402,21.6 0.74021,-21.6 0.7402,59.4 0.7402,-43.2 0.74021,54 0.7402,-54 0.7402,21.6 0.74021,-10.8 0.7402,27 0.7402,16.2 0.7402,-5.4 0.74021,-27 0.7402,10.8 0.7402,5.4 0.74021,27 0.7402,-48.6 0.7402,-10.8 0.74021,0 0.7402,-21.6 0.7402,59.4 0.74021,-43.2 0.7402,-32.4 0.7402,27 0.7402,54 1.48041,-32.4 0.7402,37.8 0.53916,11.8 m 0.40209,0 0.53916,-11.8 0.7402,-21.6 0.74021,-10.8 0.67319,44.2 m 0.11727,0 0.68994,-60.4 0.74021,27 0.7402,5.4 0.7402,-27 0.74021,0 0.7402,-5.4 0.7402,5.4 0.7402,43.2 0.74021,0 0.7402,-27 0.7402,27 0.74021,-32.4 0.7402,-10.8 0.7402,10.8 1.48041,-10.8 0.7402,-70.2 0.74021,64.8 0.7402,27 0.7402,-5.4 0.74021,0 1.4804,10.8 0.74021,10.8 0.7402,-64.8 0.7402,16.2 0.7402,-5.4 0.74021,-27 0.7402,32.4 0.7402,16.2 0.74021,-27 0.7402,54 0.7402,-37.8 0.74021,-21.6 0.7402,16.2 0.7402,-5.4 0.74021,59.4 0.7402,-21.6 0.7402,10.8 0.7402,-32.4 0.74021,-37.8 0.7402,48.6 0.7402,16.2 0.42646,28 m 0.54906,0 0.50489,-44.2 0.7402,-43.2 0.74021,-27 0.7402,54 0.7402,-10.8 0.74021,32.4 0.7402,-32.4 0.7402,-5.4 0.74021,59.4 0.7402,0 0.7402,-32.4 0.7402,-5.4 0.74021,5.4 0.7402,-27 0.7402,43.2 0.74021,10.8 0.7402,0 0.7402,5.4 1.48041,-172.8 0.7402,172.8 0.74021,-145.8 0.7402,102.6 0.7402,16.2 0.74021,-48.6 0.7402,-86.4 0.7402,124.2 0.7402,-10.8 0.74021,5.4 0.7402,-48.6 0.7402,-32.4 0.64608,141.4 m 0.40788,0 0.42645,-28 0.7402,-16.2 0.74021,-86.4 0.7402,-32.4 0.7402,-16.2 0.74021,-10.8 0.7402,91.8 0.7402,43.2 0.74021,-21.6 0.7402,-10.8 0.7402,37.8 0.7402,-5.4 0.68538,55 m 0.15535,0 0.63968,-28 0.7402,-21.6 0.74021,-5.4 0.7402,-10.8 0.7402,64.8 0.74021,-59.4 0.7402,5.4 0.7402,-43.2 0.74021,75.6 0.7402,-37.8 0.7402,0 0.74021,-70.2 0.7402,27 0.7402,-5.4 0.7402,54 0.74021,-16.2 0.7402,27 0.7402,-37.8 0.74021,16.2 0.7402,5.4 0.7402,-27 0.74021,81 0.7402,-16.2 0.7402,10.8 0.74021,-10.8 0.7402,-21.6 0.7402,37.8 0.74021,-43.2 0.7402,27 0.7402,-10.8 0.7402,0 0.74021,-48.6 0.7402,43.2 0.7402,-64.8 0.74021,27 0.7402,-16.2 0.7402,21.6 0.74021,54 0.7402,-16.2 0.7402,32.4 0.74021,-21.6 0.7402,5.4 0.7402,-54 0.74021,16.2 0.7402,-27 0.7402,10.8 0.7402,37.8 0.74021,-32.4 0.7402,-27 0.7402,48.6 0.74021,27 0.7402,-75.6 0.7402,59.4 0.74021,10.8 0,0"
             inkscape:connector-curvature="0" />
        </g>
      </g>
      <g
         id="g3019">
        <g
           clip-path="url(#clipPath3023)"
           id="g3021">
          <path
             id="path3027"
             style="fill:none;stroke:#00008b;stroke-width:2;stroke-linecap:butt;stroke-linejoin:round;stroke-miterlimit:10;stroke-opacity:1;stroke-dasharray:6, 6;stroke-dashoffset:0"
             d="m 49.078125,240.336 443.381675,0 0,0"
             inkscape:connector-curvature="0" />
        </g>
      </g>
      <g
         id="g3029">
        <g
           clip-path="url(#clipPath3033)"
           id="g3031">
          <path
             id="path3037"
             style="fill:none;stroke:#ff0000;stroke-width:1;stroke-linecap:square;stroke-linejoin:round;stroke-miterlimit:10;stroke-opacity:1;stroke-dasharray:none"
             d="m 49.078125,129.6 0.740203,-43.2 0.740203,-16.2 0.740203,54 0.740204,16.2 0.740203,-27 1.480406,-10.8 0.740203,-21.6 0.740203,59.4 0.740203,-59.4 0.740203,-16.2 0.740204,37.8 0.740203,-10.8 0.740203,113.4 0.740203,-37.8 0.740203,-102.6 0.740203,54 0.740203,-10.8 0.740203,0 0.740203,-48.6 0.740204,70.2 0.740203,-70.2 0.740203,32.4 0.740203,54 0.740203,-81 0.740203,0 0.740203,-10.8 0.740203,91.8 0.740204,-59.4 0.740203,27 0.740203,-21.6 0.740203,59.4 0.740203,-5.4 0.740203,-32.4 0.740203,-43.2 0.740203,43.2 0.740204,-5.4 0.740203,10.8 0.740203,5.4 0.740203,32.4 0.740203,-21.6 0.740203,-37.8 0.740203,86.4 0.740204,-27 0.740203,-81 0.740203,-5.4 0.740203,64.8 0.740203,-70.2 0.740203,124.2 1.480406,-118.8 0.740203,10.8 0.740204,54 0.740203,-10.8 0.740203,10.8 0.740203,-37.8 0.740203,54 0.740203,-5.4 0.740203,16.2 0.740204,-27 0.740203,16.2 0.740203,-75.6 0.740203,54 0.740203,27 0.740203,-5.4 0.740203,27 0.740203,0 0.740204,-102.6 0.740202,48.6 1.48041,-43.2 0.7402,86.4 0.7402,-54 0.74021,48.6 0.7402,-37.8 0.7402,-10.8 0.74021,-43.2 0.7402,0 0.7402,32.4 0.74021,48.6 0.7402,-54 0.7402,-16.2 0.7402,32.4 0.74021,10.8 1.4804,43.2 0.74021,-48.6 0.7402,27 0.7402,0 0.74021,5.4 1.4804,-86.4 0.74021,75.6 0.7402,-5.4 0.7402,-43.2 0.74021,21.6 0.7402,5.4 0.7402,-21.6 0.7402,16.2 0.74021,-27 0.7402,54 0.7402,-27 0.74021,0 0.7402,27 0.7402,37.8 0.74021,-16.2 0.7402,-86.4 0.7402,16.2 0.74021,-10.8 0.7402,21.6 0.7402,59.4 0.7402,-5.4 0.74021,-32.4 0.7402,59.4 0.7402,-81 0.74021,-16.2 1.4804,91.8 1.48041,-32.4 0.7402,21.6 0.74021,-54 0.7402,64.8 0.7402,-54 0.74021,21.6 0.7402,10.8 0.7402,-27 0.7402,0 0.74021,54 0.7402,-75.6 0.7402,0 0.74021,-21.6 0.7402,37.8 0.7402,27 0.74021,10.8 0.7402,-43.2 0.7402,10.8 0.74021,-16.2 0.7402,-27 0.7402,16.2 0.74021,-21.6 0.7402,48.6 0.7402,-16.2 0.7402,-5.4 0.74021,48.6 0.7402,21.6 0.7402,-37.8 0.74021,16.2 0.7402,-16.2 0.7402,-64.8 0.74021,10.8 0.7402,0 0.7402,75.6 0.74021,-54 0.7402,70.2 0.7402,-54 0.74021,-32.4 0.7402,43.2 0.7402,-32.4 0.7402,37.8 0.74021,5.4 0.7402,-64.8 0.7402,70.2 0.74021,48.6 0.7402,-70.2 0.7402,-54 0.74021,97.2 0.7402,-27 0.7402,-5.4 0.74021,-21.6 0.7402,21.6 0.7402,-5.4 0.74021,27 0.7402,-10.8 0.7402,-64.8 0.7402,70.2 0.74021,0 0.7402,10.8 0.7402,-27 0.74021,-5.4 0.7402,27 0.7402,-21.6 0.74021,-59.4 0.7402,32.4 0.7402,-10.8 0.74021,16.2 0.7402,-5.4 0.7402,43.2 0.74021,10.8 0.7402,-32.4 0.7402,37.8 0.7402,-43.2 0.74021,0 0.7402,86.4 0.7402,-86.4 0.74021,16.2 0.7402,-37.8 0.7402,37.8 0.74021,-5.4 0.7402,-21.6 0.7402,-5.4 0.74021,37.8 0.7402,-21.6 0.7402,-27 0.74021,54 0.7402,-75.6 0.7402,54 1.48041,43.2 0.7402,-21.6 0.7402,-5.4 0.74021,0 0.7402,-59.4 0.7402,21.6 0.74021,-21.6 0.7402,70.2 0.7402,-27 0.74021,10.8 0.7402,32.4 0.7402,-5.4 0.74021,16.2 0.7402,-32.4 0.7402,-27 0.7402,21.6 0.74021,0 0.7402,43.2 0.7402,-108 0.74021,75.6 0.7402,10.8 0.7402,-16.2 0.74021,5.4 0.7402,16.2 0.7402,-5.4 0.74021,16.2 0.7402,-37.8 0.7402,10.8 0.74021,0 0.7402,-10.8 0.7402,-5.4 0.7402,-10.8 0.74021,-5.4 0.7402,16.2 0.7402,0 0.74021,16.2 0.7402,-91.8 0.7402,37.8 0.74021,-10.8 0.7402,70.2 0.7402,-21.6 0.74021,21.6 0.7402,5.4 0.7402,0 0.74021,-43.2 0.7402,0 0.7402,21.6 0.7402,-86.4 0.74021,86.4 0.7402,-5.4 0.7402,43.2 0.74021,-86.4 0.7402,21.6 0.7402,-27 0.74021,37.8 0.7402,5.4 0.7402,10.8 0.74021,-70.2 0.7402,32.4 0.7402,-10.8 0.74021,91.8 0.7402,-64.8 0.7402,21.6 0.7402,48.6 0.74021,-64.8 0.7402,21.6 0.7402,-21.6 0.74021,21.6 0.7402,-5.4 0.7402,43.2 0.74021,-54 0.7402,-21.6 0.7402,16.2 0.74021,0 0.7402,43.2 0.7402,-86.4 0.74021,-5.4 0.7402,5.4 0.7402,27 0.7402,59.4 0.74021,0 1.4804,-43.2 0.74021,16.2 0.7402,21.6 0.7402,-10.8 0.74021,-27 0.7402,0 0.7402,5.4 0.74021,-48.6 0.7402,-21.6 0.7402,64.8 0.74021,-16.2 0.7402,-43.2 0.7402,43.2 0.7402,10.8 0.74021,5.4 0.7402,0 0.7402,32.4 0.74021,10.8 0.7402,5.4 0.7402,-86.4 0.74021,54 0.7402,27 0.7402,0 0.74021,-37.8 0.7402,37.8 0.7402,-43.2 0.74021,48.6 0.7402,-5.4 0.7402,0 0.7402,-5.4 0.74021,-16.2 0.7402,16.2 0.7402,-10.8 0.74021,-97.2 0.7402,43.2 0.7402,86.4 0.74021,-37.8 0.7402,0 0.7402,-5.4 0.74021,27 0.7402,-21.6 0.7402,-37.8 0.74021,5.4 0.7402,-54 0.7402,108 0.7402,-5.4 0.74021,-21.6 0.7402,0 0.7402,21.6 0.74021,-5.4 0.7402,-75.6 0.7402,5.4 0.74021,54 0.7402,-5.4 0.7402,37.8 0.74021,-54 0.7402,10.8 0.7402,16.2 1.48041,-10.8 0.7402,54 0.74021,-32.4 0.7402,32.4 0.7402,0 0.7402,-113.4 1.48041,118.8 0.7402,-81 0.74021,75.6 1.4804,-43.2 0.74021,5.4 1.4804,-10.8 0.74021,0 0.7402,-64.8 0.7402,81 0.7402,-16.2 0.74021,37.8 0.7402,-5.4 0.7402,-75.6 0.74021,59.4 0.7402,16.2 0.7402,-5.4 0.74021,10.8 0.7402,-59.4 0.7402,-10.8 0.74021,5.4 0.7402,37.8 0.7402,-59.4 0.74021,43.2 0.7402,16.2 0.7402,64.8 0.7402,-54 0.74021,-16.2 0.7402,-10.8 0.7402,0 0.74021,10.8 0.7402,37.8 0.7402,-5.4 0.74021,-21.6 0.7402,-54 0.7402,48.6 0.74021,0 0.7402,-21.6 0.7402,10.8 0.74021,-21.6 0.7402,0 1.4804,10.8 0.74021,0 0.7402,10.8 0.7402,-27 0.74021,10.8 0.7402,0 0.7402,32.4 0.74021,-91.8 0.7402,97.2 0.7402,-27 0.74021,54 0.7402,-27 0.7402,0 0.74021,-64.8 0.7402,21.6 0.7402,64.8 1.48041,-43.2 0.7402,10.8 0.7402,-59.4 0.74021,37.8 0.7402,5.4 0.7402,-10.8 0.74021,5.4 0.7402,21.6 0.7402,10.8 0.74021,-10.8 0.7402,32.4 0.7402,-43.2 0.74021,10.8 0.7402,27 0.7402,-48.6 1.48041,0 0.7402,16.2 0.7402,-32.4 0.74021,16.2 0.7402,0 0.7402,27 0.74021,-10.8 0.7402,-32.4 0.7402,0 0.74021,27 0.7402,-70.2 0.7402,0 0.74021,97.2 1.4804,-10.8 0.7402,-32.4 0.74021,21.6 0.7402,-16.2 0.7402,5.4 0.74021,0 0.7402,21.6 0.7402,-27 0.74021,21.6 0.7402,-16.2 0.7402,-43.2 0.74021,27 0.7402,0 0.7402,32.4 0.74021,0 0.7402,10.8 0.7402,-59.4 0.7402,59.4 0.74021,-21.6 0.7402,-27 0.7402,64.8 0.74021,-21.6 0.7402,-27 0.7402,0 0.74021,32.4 0.7402,-70.2 0.7402,64.8 0.74021,48.6 0.7402,-54 0.7402,37.8 0.74021,-10.8 0.7402,-16.2 0.7402,-10.8 0.74021,-5.4 0.7402,10.8 0.7402,21.6 0.7402,5.4 0.74021,-54 0.7402,27 0.7402,-97.2 1.48041,64.8 0.7402,-5.4 0.74021,21.6 0.7402,5.4 0.7402,0 0.74021,32.4 0.7402,-59.4 0.7402,16.2 0.7402,43.2 0.74021,-5.4 0.7402,-21.6 0.7402,-32.4 0.74021,27 0.7402,-32.4 0.7402,54 0.74021,-102.6 0.7402,81 1.48041,-10.8 0.7402,-10.8 0.7402,37.8 0.74021,5.4 0.7402,-5.4 0.7402,-16.2 0.7402,-10.8 0.74021,37.8 0.7402,-16.2 0.7402,0 0.74021,-5.4 0.7402,43.2 0.7402,-21.6 0.74021,-43.2 0.7402,16.2 0.7402,-5.4 0.74021,-37.8 0.7402,54 0.7402,-16.2 1.48041,-10.8 0.7402,10.8 0.7402,21.6 0.74021,-10.8 0.7402,21.6 0.7402,-48.6 0.74021,27 0.7402,21.6 0.7402,-37.8 0.74021,10.8 0.7402,59.4 0.7402,-32.4 0.74021,27 0.7402,-81 0.7402,37.8 0.74021,16.2 0.7402,-32.4 0.7402,-10.8 0.7402,27 0.74021,16.2 0.7402,-16.2 0.7402,10.8 0.74021,5.4 0.7402,-32.4 0.7402,37.8 0.74021,-37.8 0.7402,-54 0.7402,124.2 0.74021,-48.6 0.7402,10.8 0.7402,-75.6 0.74021,86.4 0.7402,-21.6 0.7402,-32.4 0.7402,64.8 0.74021,-10.8 0.7402,-70.2 0.7402,32.4 0.74021,21.6 0.7402,0 0.7402,-10.8 0.74021,-91.8 0.7402,108 0.7402,-16.2 0.74021,37.8 0.7402,-48.6 0.7402,5.4 0.74021,-43.2 0.7402,81 0.7402,-59.4 0.7402,-16.2 0.74021,0 0.7402,59.4 0.7402,-5.4 0.74021,-16.2 0.7402,59.4 0.7402,5.4 1.48041,-91.8 0.7402,5.4 0.74021,-16.2 0.7402,43.2 0.7402,10.8 0.74021,-43.2 0.7402,16.2 0.7402,43.2 0.7402,-37.8 0.74021,21.6 0.7402,-16.2 0.7402,-10.8 0.74021,0 0.7402,16.2 0.7402,-5.4 0.74021,54 0,0"
             inkscape:connector-curvature="0" />
        </g>
      </g>
      <g
         id="g3039">
        <g
           clip-path="url(#clipPath3043)"
           id="g3041">
          <path
             id="path3047"
             style="fill:none;stroke:#dc143c;stroke-width:2;stroke-linecap:butt;stroke-linejoin:round;stroke-miterlimit:10;stroke-opacity:1;stroke-dasharray:6, 6;stroke-dashoffset:0"
             d="m 49.078125,142.614 443.381675,0 0,0"
             inkscape:connector-curvature="0" />
        </g>
      </g>
      <g
         id="g3049">
        <g
           clip-path="url(#clipPath3053)"
           id="g3051">
          <path
             id="path3057"
             style="fill:none;stroke:#ffa500;stroke-width:1;stroke-linecap:square;stroke-linejoin:round;stroke-miterlimit:10;stroke-opacity:1;stroke-dasharray:none"
             d="m 49.078125,97.2 0.740203,43.2 0.740203,16.2 0.740203,-27 0.740204,162 1.480406,-199.8 0.740203,10.8 0.740203,-43.2 0.740203,75.6 0.740203,-70.2 0.740203,48.6 0.740204,-54 0.740203,108 0.740203,-108 0.740203,129.6 0.740203,-91.8 0.740203,59.4 0.740203,5.4 0.740203,-81 0.740203,0 0.740204,-21.6 0.740203,-5.4 0.740203,5.4 0.740203,-10.8 0.740203,16.2 0.740203,-5.4 0.740203,-10.8 0.740203,5.4 0.740204,16.2 0.740203,32.4 0.740203,-16.2 0.740203,5.4 0.740203,-37.8 0.740203,27 0.740203,-10.8 0.740203,-5.4 0.740204,16.2 0.740203,-16.2 0.740203,75.6 0.740203,-64.8 0.740203,-10.8 0.740203,-5.4 0.740203,10.8 1.480407,0 0.740203,-10.8 0.740203,10.8 0.740203,-5.4 1.480406,10.8 0.740203,-21.6 1.480407,0 0.740203,54 0.740203,21.6 0.740203,-59.4 0.740203,113.4 0.740203,-118.8 0.740203,5.4 0.740204,10.8 0.740203,-21.6 0.740203,32.4 0.740203,-21.6 0.740203,-5.4 0.740203,-10.8 0.740203,0 0.740203,54 0.740204,-32.4 0.740202,0 0.7402,16.2 0.74021,27 0.7402,10.8 1.48041,-75.6 0.7402,0 0.7402,16.2 0.74021,-10.8 0.7402,5.4 0.7402,-10.8 0.74021,5.4 0.7402,0 1.4804,-10.8 0.74021,5.4 0.7402,0 0.7402,-5.4 0.74021,5.4 0.7402,-5.4 0.7402,5.4 0.74021,0 0.7402,5.4 0.7402,64.8 0.74021,-59.4 0.7402,16.2 0.7402,-27 0.74021,75.6 0.7402,-54 0.7402,-21.6 0.7402,5.4 0.74021,43.2 0.7402,-21.6 0.7402,0 0.74021,-37.8 0.7402,10.8 0.7402,-5.4 0.74021,16.2 0.7402,-5.4 0.7402,-16.2 0.74021,5.4 0.7402,0 0.7402,32.4 0.7402,75.6 0.74021,-75.6 0.7402,-21.6 0.7402,81 0.74021,-81 1.4804,10.8 0.74021,-16.2 0.7402,-10.8 0.7402,16.2 0.74021,0 0.7402,5.4 0.7402,-5.4 0.74021,5.4 0.7402,-10.8 2.22061,0 1.4804,43.2 0.74021,-37.8 1.4804,43.2 0.74021,-48.6 0.7402,70.2 1.48041,-64.8 0.7402,16.2 0.7402,-16.2 1.48041,32.4 0.7402,-21.6 0.7402,-16.2 0.74021,21.6 0.7402,5.4 1.48041,-21.6 0.7402,5.4 0.7402,-5.4 0.74021,-10.8 0.7402,21.6 0.7402,-5.4 0.74021,-10.8 0.7402,-5.4 1.48041,81 0.7402,-75.6 0.7402,10.8 0.7402,-16.2 0.74021,32.4 0.7402,-16.2 1.48041,0 0.7402,-5.4 0.7402,21.6 0.74021,-27 0.7402,-5.4 0.7402,16.2 0.74021,10.8 0.7402,21.6 0.7402,-21.6 0.74021,-27 0.7402,81 0.7402,-75.6 0.7402,43.2 0.74021,-43.2 0.7402,0 0.7402,-5.4 1.48041,10.8 0.7402,-10.8 0.74021,0 0.7402,-5.4 0.7402,10.8 0.74021,-5.4 0.7402,5.4 0.7402,-10.8 0.74021,10.8 0.7402,-10.8 0.7402,0 0.7402,5.4 0.74021,0 0.7402,10.8 0.7402,-10.8 0.74021,91.8 0.7402,-64.8 0.7402,-27 0.74021,0 0.7402,16.2 0.7402,48.6 0.74021,-70.2 0.7402,16.2 0.7402,-10.8 0.74021,0 0.7402,32.4 0.7402,-21.6 0.7402,5.4 0.74021,10.8 0.7402,-16.2 0.7402,21.6 0.74021,-21.6 0.7402,10.8 0.7402,0 0.74021,-27 0.7402,5.4 0.7402,21.6 0.74021,-5.4 0.7402,-16.2 0.7402,10.8 0.74021,21.6 0.7402,-27 0.7402,10.8 0.7402,-16.2 1.48041,10.8 0.7402,10.8 0.74021,0 0.7402,-21.6 0.7402,0 0.74021,21.6 0.7402,-27 0.7402,37.8 1.48041,-32.4 0.7402,81 0.74021,-64.8 0.7402,-5.4 0.7402,-10.8 0.7402,0 0.74021,-5.4 0.7402,27 0.7402,-10.8 0.74021,21.6 0.7402,-16.2 0.7402,-5.4 0.74021,70.2 0.7402,5.4 0.7402,-10.8 0.74021,-70.2 0.7402,0 1.48041,10.8 0.7402,-16.2 0.7402,5.4 0.7402,70.2 0.74021,-75.6 0.7402,10.8 0.7402,48.6 0.74021,-48.6 0.7402,-5.4 0.7402,0 0.74021,10.8 0.7402,21.6 0.7402,-43.2 0.74021,10.8 0.7402,0 0.7402,32.4 0.74021,-32.4 0.7402,54 0.7402,-10.8 0.7402,-48.6 0.74021,32.4 0.7402,-32.4 0.7402,5.4 0.74021,0 0.7402,5.4 0.7402,-16.2 0.74021,10.8 0.7402,16.2 0.7402,-5.4 0.74021,-16.2 0.7402,70.2 0.7402,-70.2 0.74021,0 0.7402,70.2 0.7402,-64.8 0.7402,-10.8 0.74021,16.2 0.7402,5.4 0.7402,-5.4 0.74021,-16.2 1.4804,10.8 0.74021,-10.8 1.4804,0 0.74021,16.2 0.7402,0 0.7402,32.4 0.74021,-32.4 0.7402,-10.8 0.7402,-5.4 0.7402,0 0.74021,27 0.7402,-21.6 0.7402,5.4 0.74021,-10.8 0.7402,32.4 0.7402,-10.8 0.74021,-16.2 0.7402,0 0.7402,32.4 0.74021,-37.8 0.7402,0 0.7402,5.4 0.74021,-5.4 0.7402,0 0.7402,5.4 1.48041,0 0.7402,5.4 1.48041,-10.8 0.7402,0 0.7402,16.2 0.74021,37.8 0.7402,-54 0.7402,10.8 0.74021,-10.8 0.7402,32.4 0.7402,-32.4 0.74021,16.2 0.7402,-10.8 0.7402,16.2 0.7402,0 0.74021,-16.2 0.7402,-5.4 0.7402,32.4 0.74021,48.6 0.7402,-59.4 0.7402,32.4 0.74021,-32.4 0.7402,-5.4 1.48041,0 0.7402,5.4 0.7402,-16.2 0.74021,-5.4 0.7402,0 0.7402,37.8 0.74021,-10.8 0.7402,-5.4 0.7402,-16.2 0.7402,21.6 0.74021,-27 0.7402,10.8 0.7402,-10.8 0.74021,16.2 0.7402,0 0.7402,-16.2 0.74021,16.2 0.7402,-16.2 0.7402,59.4 0.74021,-54 0.7402,27 0.7402,-21.6 0.7402,86.4 0.74021,-64.8 0.7402,5.4 0.7402,-21.6 0.74021,5.4 0.7402,-21.6 0.7402,27 0.74021,-27 0.7402,43.2 0.7402,-32.4 0.74021,5.4 0.7402,-16.2 0.7402,0 0.74021,37.8 0.7402,75.6 0.7402,-86.4 0.7402,-21.6 0.74021,64.8 1.4804,-64.8 0.74021,10.8 0.7402,-16.2 0.7402,0 0.74021,54 1.4804,-54 1.48041,0 0.7402,64.8 0.74021,-37.8 0.7402,-27 0.7402,16.2 0.7402,37.8 0.74021,27 0.7402,-75.6 0.7402,54 0.74021,-48.6 1.4804,21.6 0.74021,-10.8 0.7402,-21.6 2.22061,0 0.7402,48.6 0.74021,-32.4 0.7402,-16.2 0.7402,10.8 0.74021,-10.8 0.7402,75.6 0.7402,-70.2 0.7402,37.8 0.74021,-21.6 0.7402,16.2 0.7402,5.4 0.74021,-10.8 0.7402,-21.6 0.7402,5.4 0.74021,-5.4 0.7402,-10.8 0.7402,5.4 0.74021,21.6 0.7402,16.2 0.7402,-43.2 0.74021,10.8 1.4804,-10.8 0.7402,43.2 0.74021,-27 0.7402,-10.8 0.7402,0 0.74021,5.4 0.7402,-5.4 0.7402,0 0.74021,-5.4 0.7402,21.6 0.7402,-10.8 0.74021,86.4 1.4804,-81 0.7402,-16.2 0.74021,27 0.7402,-21.6 0.7402,-5.4 0.74021,21.6 0.7402,-10.8 0.7402,-5.4 0.74021,5.4 0.7402,16.2 0.7402,10.8 0.74021,21.6 0.7402,-32.4 0.7402,-27 0.74021,10.8 0.7402,21.6 0.7402,5.4 0.7402,-37.8 0.74021,16.2 0.7402,5.4 0.7402,-21.6 0.74021,0 0.7402,5.4 0.7402,48.6 0.74021,10.8 0.7402,-43.2 0.7402,108 0.74021,-118.8 0.7402,32.4 0.7402,-43.2 0.74021,21.6 0.7402,-21.6 0.7402,10.8 0.74021,-10.8 0.7402,5.4 0.7402,10.8 0.7402,-16.2 0.74021,16.2 0.7402,-5.4 0.7402,21.6 0.74021,27 0.7402,-37.8 0.7402,16.2 0.74021,-32.4 0.7402,-5.4 0.7402,0 0.74021,16.2 0.7402,-5.4 1.4804,0 0.74021,48.6 0.7402,-32.4 0.7402,-27 0.74021,0 0.7402,27 0.7402,-5.4 0.74021,-21.6 0.7402,0 0.7402,5.4 0.74021,37.8 0.7402,-5.4 0.7402,-27 0.74021,0 0.7402,70.2 0.7402,-81 0.7402,27 0.74021,-27 0.7402,43.2 0.7402,-21.6 0.74021,-10.8 1.4804,-10.8 1.48041,0 0.7402,37.8 0.74021,-32.4 0.7402,27 0.7402,-32.4 1.48041,10.8 0.7402,0 0.7402,37.8 0.74021,-48.6 1.4804,10.8 0.74021,-5.4 0.7402,16.2 0.7402,-16.2 0.74021,-5.4 0.7402,27 0.7402,108 0.74021,-91.8 0.7402,-16.2 1.48041,-10.8 0.7402,-16.2 2.22061,0 0.7402,10.8 0.7402,-10.8 0.74021,43.2 0.7402,-16.2 0.7402,-27 1.48041,10.8 0.7402,-10.8 2.22061,0 0.74021,64.8 0.7402,-16.2 0.7402,-48.6 0.7402,0 0.74021,48.6 0.7402,-16.2 0.7402,-32.4 0.74021,5.4 0.7402,27 0.7402,-32.4 0.74021,10.8 0.7402,0 0.7402,16.2 0.74021,-10.8 0.7402,0 0.7402,-5.4 0.74021,5.4 0.7402,16.2 0.7402,-10.8 0.7402,10.8 0.74021,-5.4 0.7402,-27 0.7402,118.8 0.74021,-81 0.7402,-27 0.7402,-10.8 0.74021,0 0.7402,21.6 0.7402,16.2 0.74021,10.8 0.7402,-37.8 0.7402,10.8 0.74021,-21.6 1.4804,0 0.7402,27 0.74021,-16.2 0.7402,43.2 0.7402,-48.6 0.74021,0 0.7402,-5.4 0.7402,0 0.74021,48.6 0,0"
             inkscape:connector-curvature="0" />
        </g>
      </g>
      <g
         id="g3059">
        <g
           clip-path="url(#clipPath3063)"
           id="g3061">
          <path
             id="path3067"
             style="fill:none;stroke:#ff6347;stroke-width:2;stroke-linecap:butt;stroke-linejoin:round;stroke-miterlimit:10;stroke-opacity:1;stroke-dasharray:6, 6;stroke-dashoffset:0"
             d="m 49.078125,67.023 443.381675,0 0,0"
             inkscape:connector-curvature="0" />
        </g>
      </g>
      <g
         id="g3069">
        <path
           id="path3071"
           style="fill:none;stroke:#000000;stroke-width:1;stroke-linecap:square;stroke-linejoin:miter;stroke-miterlimit:10;stroke-opacity:1;stroke-dasharray:none"
           d="M 49.078125,313.2 493.2,313.2"
           inkscape:connector-curvature="0" />
        <path
           id="path3073"
           style="fill:none;stroke:#000000;stroke-width:1;stroke-linecap:square;stroke-linejoin:miter;stroke-miterlimit:10;stroke-opacity:1;stroke-dasharray:none"
           d="m 493.2,43.2 0,270"
           inkscape:connector-curvature="0" />
        <path
           id="path3075"
           style="fill:none;stroke:#000000;stroke-width:1;stroke-linecap:square;stroke-linejoin:miter;stroke-miterlimit:10;stroke-opacity:1;stroke-dasharray:none"
           d="M 49.078125,43.2 493.2,43.2"
           inkscape:connector-curvature="0" />
        <path
           id="path3077"
           style="fill:none;stroke:#000000;stroke-width:1;stroke-linecap:square;stroke-linejoin:miter;stroke-miterlimit:10;stroke-opacity:1;stroke-dasharray:none"
           d="m 49.078125,43.2 0,270"
           inkscape:connector-curvature="0" />
        <path
           id="path3079"
           style="fill:#000000;fill-opacity:1;fill-rule:nonzero;stroke:#000000;stroke-width:0.5;stroke-linecap:butt;stroke-linejoin:round;stroke-miterlimit:10;stroke-opacity:1;stroke-dasharray:none"
           d="m 49.078125,43.2 0,4"
           inkscape:connector-curvature="0" />
        <path
           id="path3081"
           style="fill:#000000;fill-opacity:1;fill-rule:nonzero;stroke:#000000;stroke-width:0.5;stroke-linecap:butt;stroke-linejoin:round;stroke-miterlimit:10;stroke-opacity:1;stroke-dasharray:none"
           d="m 49.078125,313.2 0,-4"
           inkscape:connector-curvature="0" />
        <text
           id="text3083"
           transform="matrix(1,0,0,-1,40.328125,30.075)"
           style="-inkscape-font-specification:Utopia;font-family:Utopia">
          <tspan
             id="tspan3085"
             sodipodi:role="line"
             y="0"
             x="0 7.632 11.448"
             style="font-size:12px;font-variant:normal;font-weight:normal;writing-mode:lr-tb;fill:#000000;fill-opacity:1;fill-rule:nonzero;stroke:none;font-family:Utopia;-inkscape-font-specification:Utopia">0.0</tspan>
        </text>
        <path
           id="path3087"
           style="fill:#000000;fill-opacity:1;fill-rule:nonzero;stroke:#000000;stroke-width:0.5;stroke-linecap:butt;stroke-linejoin:round;stroke-miterlimit:10;stroke-opacity:1;stroke-dasharray:none"
           d="m 137.9025,43.2 0,4"
           inkscape:connector-curvature="0" />
        <path
           id="path3089"
           style="fill:#000000;fill-opacity:1;fill-rule:nonzero;stroke:#000000;stroke-width:0.5;stroke-linecap:butt;stroke-linejoin:round;stroke-miterlimit:10;stroke-opacity:1;stroke-dasharray:none"
           d="m 137.9025,313.2 0,-4"
           inkscape:connector-curvature="0" />
        <text
           id="text3091"
           transform="matrix(1,0,0,-1,129.19156,30.075)"
           style="-inkscape-font-specification:Utopia;font-family:Utopia">
          <tspan
             id="tspan3093"
             sodipodi:role="line"
             y="0"
             x="0 7.632 11.448"
             style="font-size:12px;font-variant:normal;font-weight:normal;writing-mode:lr-tb;fill:#000000;fill-opacity:1;fill-rule:nonzero;stroke:none;font-family:Utopia;-inkscape-font-specification:Utopia">2.0</tspan>
        </text>
        <path
           id="path3095"
           style="fill:#000000;fill-opacity:1;fill-rule:nonzero;stroke:#000000;stroke-width:0.5;stroke-linecap:butt;stroke-linejoin:round;stroke-miterlimit:10;stroke-opacity:1;stroke-dasharray:none"
           d="m 226.72687,43.2 0,4"
           inkscape:connector-curvature="0" />
        <path
           id="path3097"
           style="fill:#000000;fill-opacity:1;fill-rule:nonzero;stroke:#000000;stroke-width:0.5;stroke-linecap:butt;stroke-linejoin:round;stroke-miterlimit:10;stroke-opacity:1;stroke-dasharray:none"
           d="m 226.72687,313.2 0,-4"
           inkscape:connector-curvature="0" />
        <text
           id="text3099"
           transform="matrix(1,0,0,-1,217.87531,30.075)"
           style="-inkscape-font-specification:Utopia;font-family:Utopia">
          <tspan
             id="tspan3101"
             sodipodi:role="line"
             y="0"
             x="0 7.632 11.448"
             style="font-size:12px;font-variant:normal;font-weight:normal;writing-mode:lr-tb;fill:#000000;fill-opacity:1;fill-rule:nonzero;stroke:none;font-family:Utopia;-inkscape-font-specification:Utopia">4.0</tspan>
        </text>
        <path
           id="path3103"
           style="fill:#000000;fill-opacity:1;fill-rule:nonzero;stroke:#000000;stroke-width:0.5;stroke-linecap:butt;stroke-linejoin:round;stroke-miterlimit:10;stroke-opacity:1;stroke-dasharray:none"
           d="m 315.55125,43.2 0,4"
           inkscape:connector-curvature="0" />
        <path
           id="path3105"
           style="fill:#000000;fill-opacity:1;fill-rule:nonzero;stroke:#000000;stroke-width:0.5;stroke-linecap:butt;stroke-linejoin:round;stroke-miterlimit:10;stroke-opacity:1;stroke-dasharray:none"
           d="m 315.55125,313.2 0,-4"
           inkscape:connector-curvature="0" />
        <text
           id="text3107"
           transform="matrix(1,0,0,-1,306.82469,30.075)"
           style="-inkscape-font-specification:Utopia;font-family:Utopia">
          <tspan
             id="tspan3109"
             sodipodi:role="line"
             y="0"
             x="0 7.632 11.448"
             style="font-size:12px;font-variant:normal;font-weight:normal;writing-mode:lr-tb;fill:#000000;fill-opacity:1;fill-rule:nonzero;stroke:none;font-family:Utopia;-inkscape-font-specification:Utopia">6.0</tspan>
        </text>
        <path
           id="path3111"
           style="fill:#000000;fill-opacity:1;fill-rule:nonzero;stroke:#000000;stroke-width:0.5;stroke-linecap:butt;stroke-linejoin:round;stroke-miterlimit:10;stroke-opacity:1;stroke-dasharray:none"
           d="m 404.37563,43.2 0,4"
           inkscape:connector-curvature="0" />
        <path
           id="path3113"
           style="fill:#000000;fill-opacity:1;fill-rule:nonzero;stroke:#000000;stroke-width:0.5;stroke-linecap:butt;stroke-linejoin:round;stroke-miterlimit:10;stroke-opacity:1;stroke-dasharray:none"
           d="m 404.37563,313.2 0,-4"
           inkscape:connector-curvature="0" />
        <text
           id="text3115"
           transform="matrix(1,0,0,-1,395.63344,30.075)"
           style="-inkscape-font-specification:Utopia;font-family:Utopia">
          <tspan
             id="tspan3117"
             sodipodi:role="line"
             y="0"
             x="0 7.632 11.448"
             style="font-size:12px;font-variant:normal;font-weight:normal;writing-mode:lr-tb;fill:#000000;fill-opacity:1;fill-rule:nonzero;stroke:none;font-family:Utopia;-inkscape-font-specification:Utopia">8.0</tspan>
        </text>
        <text
           id="text3119"
           transform="matrix(1,0,0,-1,239.23281,13.45)"
           style="-inkscape-font-specification:Utopia;font-family:Utopia">
          <tspan
             id="tspan3121"
             sodipodi:role="line"
             y="0"
             x="0 8.2200003 15.6 18.936001 23.639999 27.455999 30.792 38.400002 42.216 53.903999 57.240002"
             style="font-size:12px;font-variant:normal;font-weight:normal;writing-mode:lr-tb;fill:#000000;fill-opacity:1;fill-rule:nonzero;stroke:none;font-family:Utopia;-inkscape-font-specification:Utopia">Zeit in min</tspan>
        </text>
        <path
           id="path3123"
           style="fill:#000000;fill-opacity:1;fill-rule:nonzero;stroke:#000000;stroke-width:0.5;stroke-linecap:butt;stroke-linejoin:round;stroke-miterlimit:10;stroke-opacity:1;stroke-dasharray:none"
           d="m 49.078125,43.2 4,0"
           inkscape:connector-curvature="0" />
        <path
           id="path3125"
           style="fill:#000000;fill-opacity:1;fill-rule:nonzero;stroke:#000000;stroke-width:0.5;stroke-linecap:butt;stroke-linejoin:round;stroke-miterlimit:10;stroke-opacity:1;stroke-dasharray:none"
           d="m 493.2,43.2 -4,0"
           inkscape:connector-curvature="0" />
        <text
           id="text3127"
           transform="matrix(1,0,0,-1,27.578125,39.8875)"
           style="-inkscape-font-specification:Utopia;font-family:Utopia">
          <tspan
             id="tspan3129"
             sodipodi:role="line"
             y="0"
             x="0 7.632 11.448"
             style="font-size:12px;font-variant:normal;font-weight:normal;writing-mode:lr-tb;fill:#000000;fill-opacity:1;fill-rule:nonzero;stroke:none;font-family:Utopia;-inkscape-font-specification:Utopia">0.0</tspan>
        </text>
        <path
           id="path3131"
           style="fill:#000000;fill-opacity:1;fill-rule:nonzero;stroke:#000000;stroke-width:0.5;stroke-linecap:butt;stroke-linejoin:round;stroke-miterlimit:10;stroke-opacity:1;stroke-dasharray:none"
           d="m 49.078125,97.2 4,0"
           inkscape:connector-curvature="0" />
        <path
           id="path3133"
           style="fill:#000000;fill-opacity:1;fill-rule:nonzero;stroke:#000000;stroke-width:0.5;stroke-linecap:butt;stroke-linejoin:round;stroke-miterlimit:10;stroke-opacity:1;stroke-dasharray:none"
           d="m 493.2,97.2 -4,0"
           inkscape:connector-curvature="0" />
        <text
           id="text3135"
           transform="matrix(1,0,0,-1,27.890625,93.8875)"
           style="-inkscape-font-specification:Utopia;font-family:Utopia">
          <tspan
             id="tspan3137"
             sodipodi:role="line"
             y="0"
             x="0 7.632 11.448"
             style="font-size:12px;font-variant:normal;font-weight:normal;writing-mode:lr-tb;fill:#000000;fill-opacity:1;fill-rule:nonzero;stroke:none;font-family:Utopia;-inkscape-font-specification:Utopia">0.1</tspan>
        </text>
        <path
           id="path3139"
           style="fill:#000000;fill-opacity:1;fill-rule:nonzero;stroke:#000000;stroke-width:0.5;stroke-linecap:butt;stroke-linejoin:round;stroke-miterlimit:10;stroke-opacity:1;stroke-dasharray:none"
           d="m 49.078125,151.2 4,0"
           inkscape:connector-curvature="0" />
        <path
           id="path3141"
           style="fill:#000000;fill-opacity:1;fill-rule:nonzero;stroke:#000000;stroke-width:0.5;stroke-linecap:butt;stroke-linejoin:round;stroke-miterlimit:10;stroke-opacity:1;stroke-dasharray:none"
           d="m 493.2,151.2 -4,0"
           inkscape:connector-curvature="0" />
        <text
           id="text3143"
           transform="matrix(1,0,0,-1,27.984375,147.8875)"
           style="-inkscape-font-specification:Utopia;font-family:Utopia">
          <tspan
             id="tspan3145"
             sodipodi:role="line"
             y="0"
             x="0 7.632 11.448"
             style="font-size:12px;font-variant:normal;font-weight:normal;writing-mode:lr-tb;fill:#000000;fill-opacity:1;fill-rule:nonzero;stroke:none;font-family:Utopia;-inkscape-font-specification:Utopia">0.2</tspan>
        </text>
        <path
           id="path3147"
           style="fill:#000000;fill-opacity:1;fill-rule:nonzero;stroke:#000000;stroke-width:0.5;stroke-linecap:butt;stroke-linejoin:round;stroke-miterlimit:10;stroke-opacity:1;stroke-dasharray:none"
           d="m 49.078125,205.2 4,0"
           inkscape:connector-curvature="0" />
        <path
           id="path3149"
           style="fill:#000000;fill-opacity:1;fill-rule:nonzero;stroke:#000000;stroke-width:0.5;stroke-linecap:butt;stroke-linejoin:round;stroke-miterlimit:10;stroke-opacity:1;stroke-dasharray:none"
           d="m 493.2,205.2 -4,0"
           inkscape:connector-curvature="0" />
        <text
           id="text3151"
           transform="matrix(1,0,0,-1,27.75,201.8875)"
           style="-inkscape-font-specification:Utopia;font-family:Utopia">
          <tspan
             id="tspan3153"
             sodipodi:role="line"
             y="0"
             x="0 7.632 11.448"
             style="font-size:12px;font-variant:normal;font-weight:normal;writing-mode:lr-tb;fill:#000000;fill-opacity:1;fill-rule:nonzero;stroke:none;font-family:Utopia;-inkscape-font-specification:Utopia">0.3</tspan>
        </text>
        <path
           id="path3155"
           style="fill:#000000;fill-opacity:1;fill-rule:nonzero;stroke:#000000;stroke-width:0.5;stroke-linecap:butt;stroke-linejoin:round;stroke-miterlimit:10;stroke-opacity:1;stroke-dasharray:none"
           d="m 49.078125,259.2 4,0"
           inkscape:connector-curvature="0" />
        <path
           id="path3157"
           style="fill:#000000;fill-opacity:1;fill-rule:nonzero;stroke:#000000;stroke-width:0.5;stroke-linecap:butt;stroke-linejoin:round;stroke-miterlimit:10;stroke-opacity:1;stroke-dasharray:none"
           d="m 493.2,259.2 -4,0"
           inkscape:connector-curvature="0" />
        <text
           id="text3159"
           transform="matrix(1,0,0,-1,27.453125,255.8875)"
           style="-inkscape-font-specification:Utopia;font-family:Utopia">
          <tspan
             id="tspan3161"
             sodipodi:role="line"
             y="0"
             x="0 7.632 11.448"
             style="font-size:12px;font-variant:normal;font-weight:normal;writing-mode:lr-tb;fill:#000000;fill-opacity:1;fill-rule:nonzero;stroke:none;font-family:Utopia;-inkscape-font-specification:Utopia">0.4</tspan>
        </text>
        <path
           id="path3163"
           style="fill:#000000;fill-opacity:1;fill-rule:nonzero;stroke:#000000;stroke-width:0.5;stroke-linecap:butt;stroke-linejoin:round;stroke-miterlimit:10;stroke-opacity:1;stroke-dasharray:none"
           d="m 49.078125,313.2 4,0"
           inkscape:connector-curvature="0" />
        <path
           id="path3165"
           style="fill:#000000;fill-opacity:1;fill-rule:nonzero;stroke:#000000;stroke-width:0.5;stroke-linecap:butt;stroke-linejoin:round;stroke-miterlimit:10;stroke-opacity:1;stroke-dasharray:none"
           d="m 493.2,313.2 -4,0"
           inkscape:connector-curvature="0" />
        <text
           id="text3167"
           transform="matrix(0,1,1,0,19.953125,108.98125)"
           style="-inkscape-font-specification:Utopia;font-family:Utopia">
          <tspan
             id="tspan3169"
             sodipodi:role="line"
             y="0"
             x="0 9.3000002 16.68 22.931999 29.532 37.139999 46.956001 50.292 57.900002 65.519997 68.856003 76.475998 83.424004 90.804001 94.139999 98.844002 102.66 105.996 113.604 117.42 129.108 133.15199"
             style="font-size:12px;font-variant:normal;font-weight:normal;writing-mode:lr-tb;fill:#000000;fill-opacity:1;fill-rule:nonzero;stroke:none;font-family:Utopia;-inkscape-font-specification:Utopia">Geschwindigkeit in m/s</tspan>
        </text>
        <path
           id="path3171"
           style="fill:#ffffff;fill-opacity:1;fill-rule:nonzero;stroke:#000000;stroke-width:1;stroke-linecap:butt;stroke-linejoin:miter;stroke-miterlimit:10;stroke-opacity:1;stroke-dasharray:none"
           d="m 190.25312,268.35 296.94688,0 0,38.85 -296.94688,0 0,-38.85 z"
           inkscape:connector-curvature="0" />
        <path
           id="path3173"
           style="fill:none;stroke:#0000ff;stroke-width:1;stroke-linecap:square;stroke-linejoin:round;stroke-miterlimit:10;stroke-opacity:1;stroke-dasharray:none"
           d="m 198.65312,297.475 16.8,0"
           inkscape:connector-curvature="0" />
        <text
           id="text3175"
           transform="matrix(1,0,0,-1,228.65312,293.275)"
           style="-inkscape-font-specification:Utopia;font-family:Utopia">
          <tspan
             id="tspan3177"
             sodipodi:role="line"
             y="0"
             x="0 7.2360001 14.58 20.832001 24.648001"
             style="font-size:12px;font-variant:normal;font-weight:normal;writing-mode:lr-tb;fill:#000000;fill-opacity:1;fill-rule:nonzero;stroke:none;font-family:Utopia;-inkscape-font-specification:Utopia">Pos A</tspan>
        </text>
        <path
           id="path3179"
           style="fill:none;stroke:#00008b;stroke-width:2;stroke-linecap:butt;stroke-linejoin:round;stroke-miterlimit:10;stroke-opacity:1;stroke-dasharray:6, 6;stroke-dashoffset:0"
           d="m 198.65312,279.85 16.8,0"
           inkscape:connector-curvature="0" />
        <text
           id="text3181"
           transform="matrix(1,0,0,-1,228.65312,275.65)"
           style="font-family:Utopia;-inkscape-font-specification:Utopia">
          <tspan
             id="tspan3183"
             sodipodi:role="line"
             y="0"
             x="0 10.356 14.172 21.408001 28.752001 35.004002 38.82"
             style="font-size:12px;font-variant:normal;font-weight:normal;writing-mode:lr-tb;fill:#000000;fill-opacity:1;fill-rule:nonzero;stroke:none;font-family:Utopia;-inkscape-font-specification:Utopia">Ø Pos A</tspan>
        </text>
        <path
           id="path3185"
           style="fill:none;stroke:#ff0000;stroke-width:1;stroke-linecap:square;stroke-linejoin:round;stroke-miterlimit:10;stroke-opacity:1;stroke-dasharray:none"
           d="m 302.8,297.475 16.8,0"
           inkscape:connector-curvature="0" />
        <text
           id="text3187"
           transform="matrix(1,0,0,-1,332.8,293.275)"
           style="-inkscape-font-specification:Utopia;font-family:Utopia">
          <tspan
             id="tspan3189"
             sodipodi:role="line"
             y="0"
             x="0 7.2360001 14.58 20.832001 24.648001"
             style="font-size:12px;font-variant:normal;font-weight:normal;writing-mode:lr-tb;fill:#000000;fill-opacity:1;fill-rule:nonzero;stroke:none;font-family:Utopia;-inkscape-font-specification:Utopia">Pos B</tspan>
        </text>
        <path
           id="path3191"
           style="fill:none;stroke:#dc143c;stroke-width:2;stroke-linecap:butt;stroke-linejoin:round;stroke-miterlimit:10;stroke-opacity:1;stroke-dasharray:6, 6;stroke-dashoffset:0"
           d="m 302.8,279.85 16.8,0"
           inkscape:connector-curvature="0" />
        <text
           id="text3193"
           transform="matrix(1,0,0,-1,332.8,275.65)"
           style="font-family:Utopia;-inkscape-font-specification:Utopia">
          <tspan
             id="tspan3195"
             sodipodi:role="line"
             y="0"
             x="0 10.356 14.172 21.408001 28.752001 35.004002 38.82"
             style="font-size:12px;font-variant:normal;font-weight:normal;writing-mode:lr-tb;fill:#000000;fill-opacity:1;fill-rule:nonzero;stroke:none;font-family:Utopia;-inkscape-font-specification:Utopia">Ø Pos B</tspan>
        </text>
        <path
           id="path3197"
           style="fill:none;stroke:#ffa500;stroke-width:1;stroke-linecap:square;stroke-linejoin:round;stroke-miterlimit:10;stroke-opacity:1;stroke-dasharray:none"
           d="m 406.22812,297.475 16.8,0"
           inkscape:connector-curvature="0" />
        <text
           id="text3199"
           transform="matrix(1,0,0,-1,436.22812,293.275)"
           style="-inkscape-font-specification:Utopia;font-family:Utopia">
          <tspan
             id="tspan3201"
             sodipodi:role="line"
             y="0"
             x="0 7.2360001 14.58 20.832001 24.648001"
             style="font-size:12px;font-variant:normal;font-weight:normal;writing-mode:lr-tb;fill:#000000;fill-opacity:1;fill-rule:nonzero;stroke:none;font-family:Utopia;-inkscape-font-specification:Utopia">Pos C</tspan>
        </text>
        <path
           id="path3203"
           style="fill:none;stroke:#ff6347;stroke-width:2;stroke-linecap:butt;stroke-linejoin:round;stroke-miterlimit:10;stroke-opacity:1;stroke-dasharray:6, 6;stroke-dashoffset:0"
           d="m 406.22812,279.85 16.8,0"
           inkscape:connector-curvature="0" />
        <text
           id="text3205"
           transform="matrix(1,0,0,-1,436.22812,275.65)"
           style="font-family:Utopia;-inkscape-font-specification:Utopia">
          <tspan
             id="tspan3207"
             sodipodi:role="line"
             y="0"
             x="0 10.356 14.172 21.408001 28.752001 35.004002 38.82"
             style="font-size:12px;font-variant:normal;font-weight:normal;writing-mode:lr-tb;fill:#000000;fill-opacity:1;fill-rule:nonzero;stroke:none;font-family:Utopia;-inkscape-font-specification:Utopia">Ø Pos C</tspan>
        </text>
      </g>
    </g>
  </g>
</svg>
