<?xml version="1.0" encoding="UTF-8" standalone="no"?>
<!-- Created with Inkscape (http://www.inkscape.org/) -->

<svg
   xmlns:dc="http://purl.org/dc/elements/1.1/"
   xmlns:cc="http://creativecommons.org/ns#"
   xmlns:rdf="http://www.w3.org/1999/02/22-rdf-syntax-ns#"
   xmlns:svg="http://www.w3.org/2000/svg"
   xmlns="http://www.w3.org/2000/svg"
   xmlns:sodipodi="http://sodipodi.sourceforge.net/DTD/sodipodi-0.dtd"
   xmlns:inkscape="http://www.inkscape.org/namespaces/inkscape"
   width="990"
   height="765"
   id="svg2"
   version="1.1"
   inkscape:version="0.48.2 r9819"
   sodipodi:docname="idc_meas2.pdf">
  <defs
     id="defs4" />
  <sodipodi:namedview
     id="base"
     pagecolor="#ffffff"
     bordercolor="#666666"
     borderopacity="1.0"
     inkscape:pageopacity="0.0"
     inkscape:pageshadow="2"
     inkscape:zoom="2"
     inkscape:cx="986.14466"
     inkscape:cy="491.97987"
     inkscape:document-units="px"
     inkscape:current-layer="layer1"
     showgrid="false"
     inkscape:window-width="1920"
     inkscape:window-height="1017"
     inkscape:window-x="-8"
     inkscape:window-y="-8"
     inkscape:window-maximized="1" />
  <metadata
     id="metadata7">
    <rdf:RDF>
      <cc:Work
         rdf:about="">
        <dc:format>image/svg+xml</dc:format>
        <dc:type
           rdf:resource="http://purl.org/dc/dcmitype/StillImage" />
        <dc:title></dc:title>
      </cc:Work>
    </rdf:RDF>
  </metadata>
  <g
     inkscape:label="Layer 1"
     inkscape:groupmode="layer"
     id="layer1"
     transform="translate(0,-287.36218)">
    <g
       id="g8387"
       transform="matrix(0.07311387,0,0,-0.07311387,-38.73984,877.36565)"
       style="fill:#000000;stroke:none">
      <path
         id="path8389"
         d="m 9690,7791 c 0,-5 45,-25 101,-43 l 100,-33 -6,-31 -5,-31 110,-5 c 60,-2 112,-7 115,-10 3,-3 4,-198 3,-435 l -3,-430 -75,24 c -165,53 -651,210 -930,300 -162,52 -418,135 -568,184 l -273,89 -127,-34 c -224,-59 -805,-214 -1203,-321 -356,-96 -538,-145 -614,-165 -16,-4 -75,-20 -130,-35 -55,-15 -174,-46 -265,-71 -91,-24 -187,-50 -215,-58 -27,-8 -66,-18 -85,-21 -26,-6 -979,-259 -1655,-440 -27,-8 -178,-48 -335,-90 -157,-42 -310,-83 -340,-91 -30,-8 -138,-37 -240,-64 -173,-47 -400,-107 -755,-202 -190,-50 -197,-52 -575,-154 -358,-96 -747,-200 -897,-240 l -103,-27 0,-1926 0,-1926 69,-50 70,-50 0,-87 1,-86 42,-34 c 24,-18 49,-39 58,-46 8,-7 71,-55 140,-105 109,-81 285,-213 908,-685 91,-68 141,-100 152,-96 8,3 112,40 230,81 118,41 323,112 455,158 132,46 301,104 375,130 245,84 454,156 535,185 119,42 750,261 905,315 74,25 171,59 215,75 44,15 154,54 245,85 188,64 340,117 690,239 135,46 306,105 380,131 74,25 151,52 170,60 19,8 211,75 425,149 215,74 458,158 540,186 83,29 260,90 395,135 229,77 483,165 965,333 110,39 371,129 580,202 209,72 406,141 437,152 l 57,20 3,125 3,125 53,20 52,19 0,178 0,177 56,18 c 39,12 59,14 68,7 9,-8 30,-5 74,10 l 62,21 0,304 c 0,167 4,304 9,304 9,0 116,-45 143,-60 10,-6 27,-10 37,-10 11,0 23,-4 26,-10 8,-14 35,-13 35,1 0,6 -7,9 -15,5 -19,-7 -19,31 0,139 19,104 20,98 -15,91 -26,-5 -32,-2 -41,21 -5,14 -8,28 -6,30 5,4 288,83 300,83 4,0 7,-10 6,-22 -1,-13 -1,-70 -1,-128 2,-122 19,-127 24,-6 l 3,79 34,-79 c 42,-95 37,-90 56,-74 13,11 19,4 41,-45 25,-54 26,-59 10,-71 -16,-11 -15,-18 14,-94 18,-45 30,-84 27,-87 -3,-3 -27,2 -54,11 -42,14 -48,20 -50,46 -3,39 -30,79 -59,86 -15,4 -24,14 -24,25 0,10 -4,19 -10,19 -5,0 -10,-7 -10,-15 0,-8 -15,-21 -34,-30 -19,-9 -37,-23 -40,-31 -4,-11 -16,-9 -62,11 -31,14 -59,23 -62,20 -9,-9 10,-21 61,-40 44,-16 47,-20 47,-52 0,-37 44,-93 74,-93 13,0 16,-15 16,-91 0,-57 4,-88 10,-84 6,3 10,44 10,91 0,46 4,84 9,84 5,0 23,12 40,26 29,24 34,25 68,14 21,-7 49,-18 63,-25 14,-7 61,-24 105,-38 84,-26 261,-87 680,-232 138,-48 288,-100 334,-116 47,-16 87,-26 90,-23 8,8 -20,23 -67,36 -24,6 -46,17 -49,24 -3,8 7,57 21,110 14,54 23,101 20,106 -3,4 -16,8 -30,8 l -24,0 0,410 0,410 30,0 c 17,0 30,3 30,6 0,4 -12,49 -26,101 -14,52 -23,97 -20,100 3,3 26,-2 52,-11 54,-18 64,-19 64,-8 0,5 -27,17 -60,27 -37,11 -60,24 -60,32 0,13 32,146 46,196 4,13 -1,17 -25,17 l -31,0 0,410 0,410 24,0 c 14,0 27,4 30,8 2,4 -6,50 -20,101 -13,52 -23,96 -21,98 2,2 23,-4 47,-12 48,-17 79,-20 64,-6 -5,5 -83,35 -174,66 -91,31 -262,91 -380,132 -118,41 -287,99 -375,130 -373,129 -368,126 -371,164 -4,32 -30,64 -69,86 -13,8 -15,58 -13,391 l 3,382 82,-55 c 90,-60 103,-65 103,-37 0,10 3,21 6,24 3,3 298,-92 657,-212 358,-120 654,-217 656,-214 3,2 0,8 -5,13 -5,5 -298,105 -652,222 l -643,214 6,33 6,32 -58,0 c -32,0 -82,3 -110,6 l -53,7 0,63 c 0,34 -4,66 -10,69 -6,4 -10,-18 -10,-59 0,-36 -3,-66 -7,-66 -4,0 -112,35 -240,77 l -233,78 0,67 c 0,37 -4,70 -10,73 -6,4 -10,-17 -10,-54 0,-34 -4,-61 -10,-61 -5,0 -42,21 -81,46 -94,60 -97,61 -108,31 l -10,-26 -103,35 c -116,39 -108,37 -108,25 z m 690,-239 225,-77 3,-391 2,-391 -30,-13 c -17,-7 -37,-21 -44,-31 -12,-18 -16,-18 -56,-4 -45,16 -78,20 -66,8 4,-5 28,-15 54,-24 39,-13 47,-20 53,-48 8,-37 34,-70 67,-82 22,-8 22,-12 22,-164 0,-102 3,-154 10,-150 6,4 10,68 10,161 0,132 2,154 15,154 9,0 27,11 40,24 l 24,24 78,-28 c 73,-27 301,-106 838,-291 126,-44 233,-83 237,-87 4,-4 -6,-52 -21,-107 -16,-55 -26,-103 -24,-107 2,-5 15,-8 29,-8 l 24,0 0,-410 0,-410 -31,0 c -26,0 -29,-3 -24,-20 3,-11 17,-58 30,-105 l 23,-86 -21,7 c -22,6 -495,168 -792,271 -88,30 -199,68 -246,85 l -86,29 -14,47 c -11,37 -21,50 -46,62 l -33,15 0,103 c 0,61 -4,102 -10,102 -6,0 -10,-40 -10,-100 l 0,-100 -35,-14 c -19,-8 -35,-20 -35,-25 0,-17 -22,-13 -118,19 -50,17 -95,30 -102,30 -29,0 7,-18 99,-50 100,-35 101,-35 101,-67 0,-46 36,-83 86,-90 34,-4 45,-1 73,23 l 33,28 77,-26 c 42,-15 213,-74 381,-131 168,-58 393,-135 500,-172 107,-37 196,-68 198,-70 1,-1 -10,-50 -26,-108 -16,-59 -27,-109 -24,-112 3,-3 16,-5 29,-5 l 23,0 0,-410 0,-410 -24,0 c -14,0 -27,-3 -29,-7 -2,-5 8,-52 23,-105 20,-73 24,-98 14,-98 -7,0 -43,11 -81,24 -37,14 -147,52 -243,85 -416,142 -673,232 -680,236 -4,2 -4,28 1,57 23,160 23,148 -8,148 -23,0 -31,6 -40,31 -14,36 -16,33 179,291 105,140 129,178 113,178 -6,0 -436,-121 -452,-127 -10,-4 -13,10 -13,51 0,31 -4,56 -10,56 -6,0 -10,-26 -10,-58 l 0,-57 -152,-43 c -84,-23 -156,-43 -160,-42 -4,0 -14,13 -22,28 -14,27 -13,30 6,50 l 21,20 -48,34 c -26,18 -65,45 -86,61 l -39,27 0,180 c 0,113 -4,180 -10,180 -6,0 -10,-72 -10,-195 0,-131 3,-195 11,-195 6,0 28,-38 50,-85 35,-74 42,-84 58,-75 16,8 22,1 44,-48 25,-55 26,-57 7,-64 -11,-4 -20,-9 -20,-12 0,-2 16,-46 35,-96 19,-50 35,-93 35,-95 0,-4 -39,13 -157,66 l -43,19 0,144 c 0,86 -4,147 -10,151 -6,4 -10,-43 -10,-134 0,-78 -4,-141 -9,-141 -5,0 -42,14 -82,31 -41,18 -150,62 -244,100 l -170,67 -3,901 c -1,496 -1,901 1,901 1,0 88,25 192,55 134,39 191,52 196,44 7,-12 66,-7 103,7 14,5 16,-11 16,-141 0,-95 4,-144 10,-140 6,4 10,123 10,326 0,175 4,319 8,319 5,0 47,-13 95,-29 48,-16 89,-26 92,-21 3,5 -40,23 -95,41 l -100,33 0,438 c 0,344 3,438 13,437 6,0 113,-35 237,-77 z M 8533,7244 c 144,-47 316,-103 382,-124 259,-83 437,-140 605,-195 96,-31 256,-83 354,-115 134,-43 174,-59 157,-65 -14,-4 -51,3 -99,18 -42,14 -266,87 -497,162 -231,75 -535,174 -675,220 -140,46 -313,103 -385,126 -71,23 -134,45 -139,50 -25,23 55,2 297,-77 z m 162,-114 c 187,-61 401,-131 475,-155 74,-24 227,-74 340,-110 113,-37 242,-79 288,-93 45,-15 82,-29 82,-32 0,-3 -64,-22 -143,-44 -78,-21 -639,-180 -1247,-354 -608,-173 -1118,-318 -1135,-322 -16,-4 -124,-35 -240,-68 -115,-34 -772,-221 -1460,-417 -687,-196 -1313,-374 -1390,-396 -77,-22 -313,-90 -525,-150 -212,-60 -479,-137 -595,-171 -115,-33 -226,-64 -245,-69 -19,-5 -158,-44 -309,-87 l -275,-78 -40,22 c -23,12 -133,73 -246,135 -113,62 -225,123 -250,137 -25,13 -67,37 -95,52 -27,15 -76,42 -107,59 -32,17 -84,45 -115,62 -32,17 -80,44 -108,59 -86,47 -135,74 -304,165 -90,49 -160,90 -155,92 5,1 110,30 234,63 124,33 250,67 280,75 230,63 1015,273 1325,355 314,83 1332,356 1645,440 146,40 290,78 320,86 30,8 138,37 240,64 479,129 616,165 760,201 150,38 246,64 785,209 138,38 457,123 710,190 253,67 572,153 709,190 l 249,67 101,-33 c 56,-17 254,-82 441,-144 z m 1403,-726 c -2,-1 -20,-5 -41,-9 l -38,-7 3,158 3,159 35,11 35,12 3,-161 c 1,-88 1,-161 0,-163 z m -120,308 c 9,-7 12,-45 10,-156 l -3,-148 -185,-55 c -102,-29 -277,-81 -390,-114 -113,-33 -261,-76 -330,-96 -69,-20 -186,-54 -260,-76 -74,-22 -155,-45 -180,-52 -25,-7 -187,-54 -360,-105 -325,-94 -413,-120 -735,-213 -104,-31 -230,-67 -280,-82 -49,-14 -205,-60 -345,-100 -140,-41 -340,-100 -445,-130 -196,-58 -518,-151 -805,-235 -91,-26 -250,-73 -355,-103 -446,-130 -584,-170 -645,-187 -36,-11 -166,-49 -290,-85 -124,-36 -364,-107 -535,-156 -170,-50 -380,-111 -465,-136 -85,-25 -186,-53 -225,-63 -38,-10 -110,-30 -160,-45 -359,-105 -608,-176 -611,-173 -2,2 -4,85 -4,183 l -2,180 414,117 c 227,65 494,141 593,169 99,28 223,63 275,79 134,39 1645,470 4195,1196 319,91 623,178 675,194 52,15 273,78 490,140 217,61 449,127 515,146 216,62 400,112 415,113 8,0 21,-3 28,-7 z m -418,-1361 0,-889 -24,-6 c -13,-3 -31,-9 -40,-12 -15,-6 -16,74 -16,889 l 0,896 23,4 c 12,2 30,5 40,6 16,1 17,-47 17,-888 z m -108,-43 3,-902 182,-76 c 101,-42 185,-79 188,-82 4,-3 -9,-11 -27,-16 -38,-12 -604,-195 -879,-284 l -186,-60 -129,55 c -71,30 -139,57 -151,61 -22,7 -23,12 -23,115 l 0,108 68,20 c 37,11 173,54 302,95 129,41 258,81 285,89 49,15 50,16 50,53 0,24 -6,42 -15,48 -8,4 -134,57 -280,117 -202,84 -260,111 -245,117 11,5 137,45 280,89 l 260,81 3,39 3,40 -276,109 c -152,59 -275,110 -273,111 2,2 107,35 233,73 343,105 310,90 310,136 l 0,39 -130,49 c -308,116 -395,152 -388,158 5,4 89,31 188,60 99,28 214,62 255,74 l 75,22 3,40 3,39 -146,54 c -80,30 -142,57 -138,61 4,4 67,24 138,44 72,20 198,57 280,81 83,24 156,44 162,45 10,0 13,-190 15,-902 z m -544,666 c 69,-25 132,-49 139,-53 16,-8 24,-5 -252,-86 -99,-29 -304,-90 -455,-135 -301,-89 -568,-168 -694,-205 -88,-25 -829,-243 -936,-275 -36,-10 -177,-53 -315,-94 -137,-41 -338,-100 -445,-131 -321,-94 -377,-111 -559,-165 -192,-56 -176,-51 -726,-213 -214,-63 -444,-131 -510,-150 -66,-20 -239,-70 -385,-112 -232,-68 -329,-96 -630,-185 -36,-11 -150,-45 -255,-75 -104,-31 -226,-66 -270,-79 -44,-14 -141,-42 -215,-64 -74,-22 -208,-61 -297,-88 -90,-26 -165,-45 -168,-42 -3,3 -4,102 -3,221 l 3,217 153,-85 c 84,-47 161,-85 171,-85 9,0 41,7 69,15 39,12 52,20 52,35 0,21 -12,17 345,120 99,29 223,65 275,80 159,46 270,78 380,109 95,26 499,143 835,241 72,21 202,59 290,85 88,25 234,68 325,95 91,27 251,73 355,104 105,30 417,120 695,202 278,81 532,155 565,164 33,10 164,48 290,85 127,37 300,87 385,112 85,24 209,60 275,80 66,19 158,46 205,60 47,13 171,49 275,80 105,30 206,60 225,65 60,17 614,179 640,188 38,12 34,13 168,-36 z m 197,-93 c -6,-5 -224,-73 -485,-151 -261,-77 -590,-175 -730,-217 -140,-42 -298,-88 -350,-103 -130,-38 -923,-272 -1090,-322 -179,-54 -329,-98 -475,-141 -66,-19 -244,-72 -395,-117 -303,-90 -376,-111 -560,-165 -69,-20 -274,-81 -456,-135 -183,-55 -349,-103 -370,-108 -22,-5 -156,-44 -299,-87 -349,-104 -446,-133 -540,-160 -77,-22 -736,-217 -1186,-351 -223,-66 -239,-70 -239,-56 0,5 64,28 143,51 78,23 178,53 222,66 44,14 271,80 505,149 234,69 511,150 615,181 304,90 410,121 580,170 88,25 189,55 225,65 222,65 722,212 935,275 138,40 383,112 545,160 162,48 399,118 525,155 127,38 331,98 455,135 124,36 261,76 305,90 95,28 439,129 510,150 28,8 142,42 255,75 113,33 228,67 255,75 56,16 424,125 525,155 310,93 567,169 575,169 6,1 6,-2 0,-8 z m -414,-267 c 79,-31 195,-74 257,-96 62,-23 109,-44 105,-48 -4,-4 -91,-32 -193,-63 -173,-52 -283,-85 -835,-252 -121,-37 -456,-138 -745,-225 -289,-87 -577,-174 -640,-193 -63,-20 -212,-65 -330,-101 -118,-35 -314,-95 -435,-131 -121,-37 -260,-78 -310,-91 -49,-14 -124,-35 -165,-49 -41,-13 -352,-107 -690,-209 -338,-102 -698,-210 -800,-241 -102,-32 -228,-70 -280,-85 -52,-15 -149,-45 -215,-65 -66,-20 -140,-43 -165,-50 -25,-7 -211,-63 -415,-125 -739,-223 -895,-270 -900,-270 -3,0 -5,89 -5,199 l 0,198 277,83 c 153,46 337,100 408,121 72,20 292,85 490,144 198,59 403,119 455,135 52,15 151,44 220,65 69,20 168,50 220,65 52,16 136,40 185,55 50,15 113,33 140,40 28,7 264,75 525,153 261,77 570,168 685,202 116,34 390,116 610,181 220,66 429,128 465,139 63,18 662,195 900,265 63,19 183,54 265,79 83,24 245,72 360,106 116,34 251,74 300,90 50,15 95,29 101,29 6,1 76,-24 155,-55 z m 409,-183 c -8,-5 -130,-43 -270,-86 -140,-42 -356,-108 -480,-145 -124,-38 -306,-93 -405,-123 -99,-30 -340,-103 -535,-162 -195,-58 -418,-126 -495,-150 -77,-24 -178,-55 -225,-68 -47,-14 -202,-62 -345,-105 -143,-44 -332,-101 -420,-127 -259,-76 -535,-158 -770,-230 -121,-37 -449,-136 -730,-221 -280,-86 -584,-178 -675,-205 -135,-42 -731,-222 -985,-299 -276,-83 -611,-185 -709,-215 -109,-33 -145,-38 -120,-16 7,6 618,193 1104,337 41,12 197,59 345,104 149,45 313,95 365,110 52,16 178,54 280,85 262,80 1193,361 1455,439 627,187 831,248 1220,366 149,45 484,146 745,225 261,78 574,173 695,210 121,37 270,82 330,100 113,34 530,161 575,175 14,5 34,9 45,9 16,0 17,-1 5,-8 z M 900,5319 c 65,-36 92,-51 565,-309 911,-499 850,-463 820,-473 -19,-7 -35,-5 -53,4 -26,14 -174,95 -562,309 -107,59 -224,123 -260,142 -80,44 -365,199 -440,241 -173,94 -182,100 -168,108 22,14 40,10 98,-22 z m 146,-167 c 159,-87 321,-176 359,-197 39,-21 113,-61 165,-90 52,-29 122,-67 155,-85 33,-18 94,-52 135,-75 89,-50 130,-73 273,-150 l 107,-58 0,-179 c 0,-103 -4,-178 -9,-178 -11,0 -381,207 -395,221 -36,34 -36,44 -36,-1200 l 0,-1209 33,-25 c 33,-25 170,-120 325,-224 l 82,-56 0,-319 c 0,-223 -3,-318 -11,-318 -6,0 -45,25 -87,55 -41,31 -80,54 -86,52 -7,-2 -13,-93 -16,-275 l -5,-271 -90,67 -90,67 -3,103 c -3,124 -22,138 -22,17 0,-49 -4,-85 -10,-85 -9,0 -167,115 -534,391 -99,74 -207,154 -242,179 -34,25 -115,83 -178,130 l -116,85 0,288 0,289 48,-35 c 237,-172 272,-194 272,-169 0,5 -72,60 -160,123 l -160,113 0,1588 c 0,873 1,1588 3,1588 2,0 133,-71 293,-158 z m 7736,-32 c 139,-55 261,-104 272,-108 14,-6 -10,-17 -90,-41 -60,-19 -194,-60 -299,-93 -104,-33 -313,-97 -462,-144 -150,-46 -398,-123 -550,-170 -153,-47 -323,-99 -378,-116 -55,-16 -217,-66 -360,-110 -143,-44 -280,-86 -305,-93 -56,-16 -169,-52 -320,-100 -63,-20 -171,-54 -240,-75 -69,-21 -339,-104 -600,-185 -261,-81 -538,-167 -615,-190 -164,-50 -528,-164 -770,-240 -93,-30 -312,-97 -485,-151 -173,-53 -358,-110 -410,-126 -52,-17 -115,-36 -140,-43 -25,-7 -148,-45 -275,-85 -126,-39 -324,-101 -440,-137 -115,-35 -244,-76 -285,-89 -41,-13 -80,-24 -87,-24 -11,0 -13,43 -11,211 l 3,212 75,22 c 41,13 242,73 445,135 204,62 397,120 430,130 33,10 233,71 445,135 212,64 412,125 445,135 33,10 141,43 240,73 99,30 347,105 550,167 344,103 676,204 940,285 61,19 182,55 270,81 145,42 396,117 900,270 99,30 218,66 265,80 47,14 119,36 160,49 41,13 284,87 540,164 380,115 879,267 887,270 1,1 115,-44 255,-99 z m 323,-149 c -6,-10 -16,-14 -245,-85 -80,-25 -226,-70 -325,-101 -99,-31 -274,-86 -390,-122 -115,-35 -275,-85 -355,-110 -80,-24 -210,-64 -290,-89 -295,-89 -553,-168 -850,-261 -168,-52 -462,-143 -655,-203 -402,-124 -708,-220 -1032,-321 -126,-39 -248,-77 -273,-84 -25,-7 -81,-24 -125,-38 -428,-134 -1112,-347 -1275,-397 -122,-37 -343,-106 -807,-251 -126,-39 -248,-77 -273,-84 -25,-7 -96,-29 -159,-49 -100,-32 -137,-38 -119,-21 2,3 108,37 234,76 209,64 535,165 724,224 41,13 140,44 220,68 80,25 271,84 425,132 154,48 339,105 410,127 72,22 209,64 305,95 96,30 231,72 300,93 69,21 229,70 355,110 235,73 564,175 760,235 130,40 540,167 745,231 146,46 250,78 635,198 116,35 235,71 265,79 54,15 594,181 1205,372 450,141 465,145 519,160 26,8 51,16 54,19 9,10 24,7 17,-3 z m -335,-331 c 133,-55 244,-100 249,-100 4,0 16,-6 26,-14 17,-12 4,-18 -126,-59 -309,-96 -479,-150 -894,-282 -236,-75 -470,-150 -520,-165 -104,-33 -491,-155 -855,-271 -245,-78 -308,-99 -545,-174 -263,-84 -412,-132 -550,-175 -99,-30 -310,-97 -805,-255 -179,-57 -377,-120 -440,-140 -63,-20 -227,-72 -365,-116 -137,-44 -470,-150 -740,-236 -645,-204 -678,-214 -830,-263 -71,-23 -195,-62 -275,-87 -80,-25 -151,-48 -158,-50 -10,-4 -12,42 -10,222 l 3,227 40,13 c 22,8 135,43 250,79 116,35 314,97 440,136 127,40 250,78 275,85 25,7 81,24 125,38 268,84 809,252 860,267 33,10 112,35 175,55 63,20 171,54 240,75 69,21 197,61 285,88 88,28 293,92 455,142 162,50 455,141 650,202 195,60 375,116 400,123 25,7 167,51 315,98 252,80 580,181 1330,411 171,52 402,124 515,159 113,36 213,65 223,66 9,1 125,-44 257,-99 z m 2290,-15 c 0,-6 -136,-190 -155,-211 -5,-6 -28,-37 -50,-68 -22,-32 -47,-67 -56,-79 l -16,-21 -13,24 c -11,20 -10,25 11,41 29,22 26,27 -76,96 -54,37 -71,54 -73,75 -3,25 1,28 50,42 359,104 378,109 378,101 z M 2340,4326 c 0,-182 0,-184 -22,-190 -49,-13 -48,-17 -48,178 0,199 -2,191 53,195 16,1 17,-14 17,-183 z m 6760,154 c 0,-5 -39,-21 -87,-36 -49,-14 -185,-57 -303,-95 -118,-37 -271,-86 -340,-107 -69,-22 -233,-74 -365,-117 -229,-73 -390,-124 -847,-269 -264,-84 -373,-118 -848,-271 -217,-69 -487,-156 -600,-191 -561,-179 -655,-209 -780,-249 -74,-24 -223,-71 -330,-105 -107,-34 -269,-86 -360,-115 -91,-30 -408,-131 -705,-225 -297,-94 -652,-207 -790,-251 -616,-198 -810,-258 -814,-253 -12,11 31,28 274,104 253,80 383,121 610,193 61,20 202,65 315,100 525,166 827,262 965,307 150,49 504,161 645,206 41,12 280,88 530,168 250,79 534,169 630,199 96,31 231,73 300,95 345,111 1097,350 1420,452 107,34 206,65 220,70 14,5 113,37 220,70 107,34 308,98 445,142 138,44 309,98 380,119 72,21 148,45 170,53 22,8 41,15 43,15 1,1 2,-3 2,-9 z m 653,-117 c 73,-30 171,-71 219,-91 83,-34 97,-51 42,-52 -18,0 -111,34 -189,70 -11,5 -85,36 -164,69 -108,44 -138,60 -120,64 40,7 74,-2 212,-60 z m -7855,-1216 2,-1134 -25,-11 c -14,-7 -30,-12 -35,-12 -6,0 -10,434 -10,1166 l 0,1166 33,-21 32,-20 3,-1134 z m 7857,1018 c -88,-29 -362,-119 -610,-200 -247,-81 -515,-168 -595,-195 -80,-27 -352,-116 -605,-198 -1083,-354 -1370,-447 -1535,-502 -96,-32 -377,-124 -625,-205 -1190,-388 -1393,-454 -1700,-555 -402,-132 -405,-133 -410,-128 -3,2 30,16 73,30 220,74 1018,336 1467,483 281,91 713,233 960,315 248,82 601,198 785,259 1082,354 1496,490 1665,547 105,34 339,111 520,169 182,59 416,135 520,170 105,35 204,63 220,63 17,0 -41,-23 -130,-53 z m -1357,-52 -3,-98 -95,-31 c -113,-38 -409,-133 -535,-173 -157,-50 -374,-120 -560,-181 -99,-32 -301,-97 -450,-145 -148,-47 -364,-117 -480,-155 -224,-73 -931,-301 -1180,-380 -82,-26 -222,-71 -310,-100 -88,-28 -221,-71 -295,-95 -74,-24 -295,-95 -490,-158 -195,-64 -463,-150 -595,-192 -132,-42 -321,-103 -420,-135 -99,-32 -202,-66 -230,-74 -48,-14 -408,-128 -642,-203 l -112,-36 -35,27 c -35,27 -36,28 -36,100 l 0,72 93,28 c 50,15 198,61 327,103 129,41 276,88 325,103 114,36 503,160 660,210 66,21 215,69 330,105 116,37 228,73 250,80 22,8 128,41 235,75 107,34 209,66 225,71 48,16 271,88 385,124 58,18 213,68 345,110 132,42 332,106 445,141 543,173 658,210 825,264 99,32 209,67 245,78 68,21 200,63 410,130 171,55 783,250 1015,323 105,33 222,71 260,84 39,13 76,24 83,24 10,1 12,-22 10,-96 z m 1694,-485 c -4,-4 -22,-11 -40,-14 l -32,-7 2,288 3,288 35,12 35,12 3,-285 c 1,-157 -1,-289 -6,-294 z m -102,278 0,-284 -27,-10 c -16,-6 -102,-36 -193,-66 C 9597,3489 8814,3225 8285,3046 7287,2709 6212,2347 5560,2130 5150,1993 4534,1786 4190,1670 3846,1553 3306,1371 2990,1265 c -316,-106 -583,-196 -592,-200 -16,-6 -18,15 -20,324 l -3,331 30,9 c 17,5 233,75 480,156 472,153 879,285 955,309 25,8 203,66 395,129 193,63 526,172 740,242 472,154 803,262 1240,405 440,145 759,249 1300,425 248,81 488,159 535,175 47,15 326,107 620,203 294,97 699,230 900,295 201,66 377,121 393,121 l 27,1 0,-284 z m -1444,23 c 69,-29 122,-55 117,-59 -4,-5 -147,-54 -318,-110 -743,-244 -1014,-333 -1235,-406 -129,-42 -287,-93 -350,-114 -270,-90 -1010,-333 -1595,-525 -346,-114 -835,-274 -1085,-357 -250,-82 -475,-156 -500,-164 -93,-29 -1129,-367 -1210,-395 l -84,-29 -118,78 c -65,42 -118,80 -118,83 0,5 381,130 660,216 186,58 383,120 575,183 99,32 302,97 450,145 149,47 358,115 465,150 107,35 317,102 465,150 149,47 351,112 450,145 99,32 243,78 320,103 182,58 620,200 1060,342 193,62 458,148 590,190 132,42 321,103 420,135 99,32 245,80 325,105 336,108 458,148 510,165 30,10 61,19 68,19 8,1 70,-22 138,-50 z m 1284,-558 0,-159 -31,-11 c -18,-6 -34,-11 -35,-11 -2,0 -4,72 -4,159 l 0,159 28,10 c 15,6 30,11 35,11 4,1 7,-71 7,-158 z m -102,-37 -3,-157 -155,-53 c -85,-30 -285,-99 -445,-153 -159,-55 -344,-118 -410,-141 -106,-36 -402,-138 -1020,-350 -99,-34 -236,-81 -305,-105 -156,-55 -558,-190 -585,-198 -22,-6 -235,-79 -620,-212 -224,-78 -504,-173 -700,-240 -38,-13 -128,-44 -200,-68 -159,-56 -748,-258 -980,-337 -93,-32 -222,-76 -285,-98 -63,-22 -275,-95 -470,-162 C 3355,993 3105,908 2995,870 2322,639 2207,600 2194,600 c -12,0 -14,34 -14,196 l 0,196 36,-23 c 36,-22 36,-22 96,-3 41,12 63,24 66,37 3,10 16,23 31,29 14,5 305,104 646,218 341,115 901,304 1245,420 344,116 1073,361 1620,545 1004,336 1566,525 3000,1009 432,146 791,265 798,265 10,1 12,-34 10,-155 z m 0,-301 -3,-107 -295,-102 c -405,-141 -757,-263 -995,-346 -379,-132 -691,-240 -965,-333 -151,-51 -387,-132 -525,-180 -137,-48 -268,-93 -290,-100 -22,-7 -105,-36 -185,-65 -80,-28 -208,-73 -285,-100 -521,-181 -645,-223 -680,-235 -22,-7 -125,-43 -230,-80 -104,-37 -208,-73 -230,-80 -35,-12 -171,-59 -680,-235 -77,-27 -205,-72 -285,-100 -80,-29 -163,-58 -185,-65 -22,-7 -152,-52 -290,-100 -528,-183 -746,-259 -910,-315 -93,-32 -248,-86 -344,-119 -96,-34 -178,-61 -182,-61 -5,0 -9,54 -9,120 0,66 2,120 4,120 2,0 149,50 327,111 178,61 407,139 509,174 254,87 838,287 990,340 257,89 806,278 845,290 22,8 101,35 175,60 74,26 239,82 365,125 127,43 349,120 495,170 146,50 297,102 335,115 39,13 189,65 335,115 146,50 357,122 470,160 113,37 358,120 545,185 355,122 909,312 1225,420 224,77 674,232 825,285 61,21 114,39 118,39 4,1 6,-47 5,-106 z M 2117,1840 c 186,-125 199,-136 179,-147 -11,-7 -26,-12 -32,-13 -11,0 -319,206 -379,254 l -30,24 25,10 c 14,6 28,10 31,9 3,-1 96,-63 206,-137 z m 223,-499 0,-329 -31,-11 c -18,-6 -34,-11 -35,-11 -2,0 -4,148 -4,328 l 0,328 28,11 c 15,6 30,11 35,12 4,1 7,-147 7,-328 z m -1321,-58 c 24,-18 50,-33 57,-33 7,0 19,-8 26,-18 15,-21 61,-56 353,-272 121,-90 299,-223 395,-295 201,-151 208,-155 235,-144 43,17 45,14 45,-96 0,-58 -2,-105 -5,-105 -2,0 -57,40 -122,90 -65,49 -316,238 -558,420 -242,181 -447,336 -455,343 -9,7 -32,25 -53,41 -36,28 -37,30 -37,93 l 0,65 38,-28 c 20,-15 57,-43 81,-61 z m 1101,-245 30,-22 0,-216 0,-217 -25,-11 c -14,-7 -30,-12 -35,-12 -6,0 -10,98 -10,250 0,138 2,250 5,250 3,0 19,-10 35,-22 z"
         inkscape:connector-curvature="0" />
      <path
         id="path8391"
         d="m 11156,4844 c -19,-18 -21,-87 -3,-101 6,-6 26,-15 42,-20 l 30,-10 -34,-32 c -35,-33 -36,-47 -2,-36 55,17 84,152 41,195 -24,24 -53,26 -74,4 z"
         inkscape:connector-curvature="0" />
      <path
         id="path8393"
         d="m 11322,4847 c -19,-23 -31,-100 -22,-140 24,-110 100,-77 100,43 0,84 -44,138 -78,97 z"
         inkscape:connector-curvature="0" />
      <path
         id="path8395"
         d="m 13525,7626 c -44,-18 -116,-47 -160,-64 -44,-17 -167,-65 -273,-107 -107,-42 -195,-75 -197,-73 -2,2 3,37 11,78 17,89 16,80 5,80 -6,0 -23,-12 -38,-26 -15,-14 -97,-89 -181,-167 -84,-77 -149,-144 -145,-148 16,-14 373,-97 373,-86 0,1 -7,27 -15,57 -8,30 -15,55 -15,56 0,0 167,34 370,75 l 370,74 0,142 c 0,108 -3,143 -12,142 -7,0 -49,-15 -93,-33 z"
         inkscape:connector-curvature="0" />
      <path
         id="path8397"
         d="m 12128,7613 c -28,-32 -50,-85 -52,-127 -3,-49 8,-66 40,-66 47,0 106,156 74,195 -17,20 -43,19 -62,-2 z"
         inkscape:connector-curvature="0" />
      <path
         id="path8399"
         d="m 11517,7522 c -62,-68 -71,-201 -14,-202 31,0 88,114 85,170 -3,50 -40,66 -71,32 z"
         inkscape:connector-curvature="0" />
      <path
         id="path8401"
         d="m 11875,7366 c -47,-80 -47,-166 0,-166 40,0 78,70 79,145 1,58 0,60 -26,63 -22,3 -31,-4 -53,-42 z"
         inkscape:connector-curvature="0" />
      <path
         id="path8403"
         d="m 10785,6938 c -17,-47 -65,-193 -65,-200 0,-18 21,-6 30,17 8,21 16,25 50,25 25,0 40,-5 40,-12 0,-21 17,-41 28,-34 6,4 -2,44 -23,108 -32,98 -49,126 -60,96 z"
         inkscape:connector-curvature="0" />
      <path
         id="path8405"
         d="m 13570,6754 c -19,-9 -111,-44 -205,-79 -93,-35 -233,-89 -309,-119 -77,-31 -145,-56 -151,-56 -9,0 -9,19 1,77 8,42 12,78 10,80 -4,4 -57,-43 -252,-221 -65,-60 -120,-112 -122,-117 -4,-9 0,-10 187,-53 137,-32 191,-41 191,-33 0,1 -7,27 -15,57 -8,30 -13,55 -12,56 1,0 167,34 370,74 l 367,74 0,138 c 0,151 1,149 -60,122 z"
         inkscape:connector-curvature="0" />
      <path
         id="path8407"
         d="m 13430,5819 c -96,-38 -255,-101 -353,-140 -98,-39 -180,-69 -182,-67 -2,2 3,37 11,77 7,41 12,77 9,79 -5,5 -41,-25 -180,-153 -55,-50 -122,-111 -148,-135 -26,-24 -44,-47 -40,-51 15,-14 373,-98 373,-86 0,1 -7,27 -15,57 -8,30 -13,55 -12,56 1,1 167,35 370,75 l 367,73 0,143 c 0,108 -3,143 -12,142 -7,-1 -92,-32 -188,-70 z"
         inkscape:connector-curvature="0" />
      <path
         id="path8409"
         d="m 13480,4949 c -437,-174 -582,-230 -585,-227 -2,2 3,37 11,78 17,89 16,80 5,80 -6,0 -23,-12 -38,-26 -15,-14 -97,-89 -181,-167 -84,-77 -149,-144 -145,-148 12,-10 361,-94 367,-88 3,3 -1,29 -9,59 -8,30 -12,56 -10,58 10,10 339,71 345,65 4,-5 17,-53 29,-108 12,-55 24,-102 27,-104 2,-2 15,1 28,7 31,14 26,19 111,-143 133,-255 235,-446 242,-454 1,-2 6,-2 9,2 5,5 -151,311 -282,554 -34,62 -34,63 -14,75 28,18 25,29 -21,73 -22,22 -54,56 -70,76 l -28,36 162,32 c 89,18 170,34 180,37 15,5 17,21 17,145 0,105 -3,139 -12,138 -7,0 -69,-23 -138,-50 z"
         inkscape:connector-curvature="0" />
      <path
         id="path8411"
         d="m 10785,3808 c -18,-47 -65,-193 -65,-200 0,-20 28,-6 34,17 5,21 12,25 45,25 33,0 40,-4 45,-25 4,-14 14,-25 22,-25 11,0 14,5 9,18 -4,9 -20,59 -37,110 -28,87 -43,108 -53,80 z"
         inkscape:connector-curvature="0" />
    </g>
    <path
       sodipodi:type="star"
       style="fill:#ffffff;stroke:#ffffff;stroke-width:0.36756954;stroke-miterlimit:4;stroke-dasharray:none;stroke-dashoffset:0"
       id="path8430"
       sodipodi:sides="3"
       sodipodi:cx="750"
       sodipodi:cy="320.35715"
       sodipodi:r1="1.7857143"
       sodipodi:r2="0.89285713"
       sodipodi:arg1="-1.5707963"
       sodipodi:arg2="-0.52359878"
       inkscape:flatsided="false"
       inkscape:rounded="0"
       inkscape:randomized="0"
       d="m 750,318.57143 0.77324,1.33929 0.77323,1.33928 -1.54647,0 -1.54647,0 0.77323,-1.33928 z"
       transform="matrix(4.2374089,0,0,6.9868375,-2428.1388,-1631.1112)"
       inkscape:transform-center-y="-3.1190865"
       inkscape:transform-center-x="2.8976601e-005" />
    <path
       sodipodi:type="star"
       style="fill:#ffffff;stroke:#ffffff;stroke-width:0.42169318;stroke-miterlimit:4;stroke-dasharray:none;stroke-dashoffset:0"
       id="path8430-1"
       sodipodi:sides="3"
       sodipodi:cx="750"
       sodipodi:cy="320.35715"
       sodipodi:r1="1.7857143"
       sodipodi:r2="0.89285713"
       sodipodi:arg1="-1.5707963"
       sodipodi:arg2="-0.52359878"
       inkscape:flatsided="false"
       inkscape:rounded="0"
       inkscape:randomized="0"
       d="m 750,318.57143 0.77324,1.33929 0.77323,1.33928 -1.54647,0 -1.54647,0 0.77323,-1.33928 z"
       transform="matrix(3.5515518,0,0,6.3335715,-1912.9495,-1648.6367)"
       inkscape:transform-center-y="-2.8274743"
       inkscape:transform-center-x="1.1845777e-005" />
    <rect
       style="fill:#ffffff;stroke:#ffffff;stroke-width:2;stroke-miterlimit:4;stroke-dasharray:none;stroke-dashoffset:0"
       id="rect8450"
       width="21.071428"
       height="20"
       x="776.07141"
       y="233.57143"
       transform="translate(0,287.36218)"
       rx="2.7683204e-017"
       ry="4.4409159e-016" />
    <rect
       style="fill:#ffffff;stroke:#ffffff;stroke-width:2;stroke-miterlimit:4;stroke-dasharray:none;stroke-dashoffset:0"
       id="rect8452"
       width="13.928572"
       height="18.214285"
       x="798.21429"
       y="325.71933"
       rx="2.7683204e-017"
       ry="4.4409159e-016" />
    <rect
       style="fill:#ffffff;stroke:#ffffff;stroke-width:2;stroke-miterlimit:4;stroke-dasharray:none;stroke-dashoffset:0"
       id="rect8454"
       width="11.428572"
       height="20"
       x="826.07141"
       y="46.071426"
       transform="translate(0,287.36218)"
       rx="2.7683204e-017"
       ry="4.4409159e-016" />
    <rect
       style="fill:#ffffff;stroke:#ffffff;stroke-width:2;stroke-miterlimit:4;stroke-dasharray:none;stroke-dashoffset:0"
       id="rect8456"
       width="13.214286"
       height="18.928572"
       x="842.5"
       y="29.285713"
       transform="translate(0,287.36218)"
       rx="2.7683204e-017"
       ry="4.4409159e-016" />
    <flowRoot
       xml:space="preserve"
       id="flowRoot8458"
       style="font-size:16px;font-style:normal;font-variant:normal;font-weight:normal;font-stretch:normal;line-height:125%;letter-spacing:0px;word-spacing:0px;fill:#000000;fill-opacity:1;stroke:none;font-family:Helvetica;-inkscape-font-specification:Helvetica"
       transform="translate(0,287.36218)"><flowRegion
         id="flowRegion8460"><rect
           id="rect8462"
           width="34.285713"
           height="26.071428"
           x="778.21429"
           y="238.21428"
           style="font-size:16px" /></flowRegion><flowPara
         id="flowPara8464"
         style="-inkscape-font-specification:Utopia;font-family:Utopia;font-weight:normal;font-style:normal;font-stretch:normal;font-variant:normal;font-size:16px">90°</flowPara></flowRoot>    <flowRoot
       xml:space="preserve"
       id="flowRoot8466"
       style="font-size:16px;font-style:normal;font-variant:normal;font-weight:normal;font-stretch:normal;line-height:125%;letter-spacing:0px;word-spacing:0px;fill:#000000;fill-opacity:1;stroke:none;font-family:Helvetica;-inkscape-font-specification:Helvetica"
       transform="translate(-0.70710676,286.30152)"><flowRegion
         id="flowRegion8468"><rect
           id="rect8470"
           width="46.07143"
           height="41.785713"
           x="744.64288"
           y="308.92856"
           style="font-size:16px" /></flowRegion><flowPara
         id="flowPara8472">A</flowPara></flowRoot>    <flowRoot
       transform="translate(2.5000009,63.654831)"
       xml:space="preserve"
       id="flowRoot8466-1"
       style="font-size:16px;font-style:normal;font-variant:normal;font-weight:normal;font-stretch:normal;line-height:125%;letter-spacing:0px;word-spacing:0px;fill:#000000;fill-opacity:1;stroke:none;font-family:Helvetica;-inkscape-font-specification:Helvetica"><flowRegion
         id="flowRegion8468-5"><rect
           id="rect8470-2"
           width="46.07143"
           height="41.785713"
           x="744.64288"
           y="308.92856"
           style="font-size:16px" /></flowRegion><flowPara
         id="flowPara8472-7">A</flowPara></flowRoot>    <path
       style="fill:none;stroke:#000000;stroke-width:2;stroke-linecap:butt;stroke-linejoin:miter;stroke-opacity:1"
       d="m 737.6639,145.52395 0,27.02158"
       id="path8501"
       inkscape:connector-curvature="0"
       transform="translate(0,287.36218)" />
    <path
       style="fill:none;stroke:#000000;stroke-width:1.99999988;stroke-linecap:butt;stroke-linejoin:miter;stroke-opacity:1"
       d="m 737.41136,318.75579 0,104.28133"
       id="path8503"
       inkscape:connector-curvature="0" />
    <path
       style="fill:none;stroke:#000000;stroke-width:2;stroke-linecap:butt;stroke-linejoin:miter;stroke-opacity:1"
       d="m 700.79333,509.44948 0,27.73491"
       id="path8507"
       inkscape:connector-curvature="0" />
    <path
       style="fill:none;stroke:#000000;stroke-width:2;stroke-linecap:butt;stroke-linejoin:miter;stroke-opacity:1"
       d="m 701.04587,258.66104 0,63.89214"
       id="path8509"
       inkscape:connector-curvature="0"
       transform="translate(0,287.36218)" />
    <path
       style="fill:none;stroke:#000000;stroke-width:2;stroke-linecap:butt;stroke-linejoin:miter;stroke-opacity:1"
       d="m 737.6639,538.456 0,27.72598"
       id="path8511"
       inkscape:connector-curvature="0" />
    <path
       style="fill:none;stroke:#000000;stroke-width:2;stroke-linecap:butt;stroke-linejoin:miter;stroke-opacity:1"
       d="m 737.6639,504.35442 0,26.26397"
       id="path8511-6"
       inkscape:connector-curvature="0" />
    <path
       style="fill:none;stroke:#000000;stroke-width:2;stroke-linecap:butt;stroke-linejoin:miter;stroke-opacity:1"
       d="m 701.04587,474.04985 0,26.26397"
       id="path8511-1"
       inkscape:connector-curvature="0" />
    <path
       style="fill:none;stroke:#000000;stroke-width:2;stroke-linecap:butt;stroke-linejoin:miter;stroke-opacity:1"
       d="m 701.04587,439.70466 0,26.26397"
       id="path8511-4"
       inkscape:connector-curvature="0" />
    <path
       style="fill:none;stroke:#000000;stroke-width:1.99999988;stroke-linecap:butt;stroke-linejoin:miter;stroke-opacity:1"
       d="m 737.43163,398.91975 0,25.8024"
       id="path8501-2"
       inkscape:connector-curvature="0" />
    <path
       style="fill:none;stroke:#000000;stroke-width:2;stroke-linecap:butt;stroke-linejoin:miter;stroke-opacity:1"
       d="m 737.6639,572.79227 0,29.67442"
       id="path8511-6-3"
       inkscape:connector-curvature="0" />
    <path
       style="fill:none;stroke:#000000;stroke-width:2;stroke-linecap:butt;stroke-linejoin:miter;stroke-opacity:1"
       d="m 701.04587,307.10154 0,126.54222"
       id="path8503-2"
       inkscape:connector-curvature="0" />
    <path
       style="fill:none;stroke:#000000;stroke-width:2;stroke-linecap:butt;stroke-linejoin:miter;stroke-opacity:1"
       d="m 737.41136,466.97878 0,26.26397"
       id="path8511-6-2"
       inkscape:connector-curvature="0" />
    <path
       style="fill:none;stroke:#000000;stroke-width:1.99999988;stroke-linecap:butt;stroke-linejoin:miter;stroke-opacity:1"
       d="m 95.459415,825.83547 0,-48.37189"
       id="path8619"
       inkscape:connector-curvature="0" />
    <path
       style="fill:none;stroke:#000000;stroke-width:2;stroke-linecap:butt;stroke-linejoin:miter;stroke-opacity:1"
       d="m 15.152288,722.29483 80.559668,55.58172"
       id="path8621"
       inkscape:connector-curvature="0" />
    <flowRoot
       xml:space="preserve"
       id="flowRoot8623"
       style="font-size:14px;font-style:normal;font-variant:normal;font-weight:normal;font-stretch:normal;line-height:125%;letter-spacing:0px;word-spacing:0px;fill:#ff0000;fill-opacity:1;stroke:none;font-family:Utopia;-inkscape-font-specification:Utopia"
       transform="translate(5.7142857,285.57647)"><flowRegion
         id="flowRegion8625"><rect
           id="rect8627"
           width="17.142857"
           height="22.857143"
           x="713.92859"
           y="112.5"
           style="font-style:normal;font-variant:normal;font-weight:normal;font-stretch:normal;fill:#ff0000;font-family:Utopia;-inkscape-font-specification:Utopia" /></flowRegion><flowPara
         id="flowPara8629"
         style="font-size:16px;fill:#ff0000;stroke:#ff0000">1</flowPara></flowRoot>    <flowRoot
       xml:space="preserve"
       id="flowRoot8623-1"
       style="font-size:14px;font-style:normal;font-variant:normal;font-weight:normal;font-stretch:normal;line-height:125%;letter-spacing:0px;word-spacing:0px;fill:#ff0000;fill-opacity:1;stroke:none;font-family:Utopia;-inkscape-font-specification:Utopia"
       transform="translate(6.6953136,378.63982)"><flowRegion
         id="flowRegion8625-6"><rect
           id="rect8627-8"
           width="17.142857"
           height="22.857143"
           x="713.92859"
           y="112.5"
           style="font-style:normal;font-variant:normal;font-weight:normal;font-stretch:normal;fill:#ff0000;font-family:Utopia;-inkscape-font-specification:Utopia" /></flowRegion><flowPara
         id="flowPara8629-5"
         style="font-size:16px;fill:#ff0000;stroke:#ff0000">2</flowPara></flowRoot>    <flowRoot
       xml:space="preserve"
       id="flowRoot8623-7"
       style="font-size:14px;font-style:normal;font-variant:normal;font-weight:normal;font-stretch:normal;line-height:125%;letter-spacing:0px;word-spacing:0px;fill:#ff0000;fill-opacity:1;stroke:none;font-family:Utopia;-inkscape-font-specification:Utopia"
       transform="translate(7.0524561,472.92554)"><flowRegion
         id="flowRegion8625-61"><rect
           id="rect8627-89"
           width="17.142857"
           height="22.857143"
           x="713.92859"
           y="112.5"
           style="font-style:normal;font-variant:normal;font-weight:normal;font-stretch:normal;fill:#ff0000;font-family:Utopia;-inkscape-font-specification:Utopia" /></flowRegion><flowPara
         id="flowPara8629-2"
         style="font-size:16px;fill:#ff0000;stroke:#ff0000">3</flowPara></flowRoot>    <flowRoot
       xml:space="preserve"
       id="flowRoot8671"
       style="font-size:14px;font-style:normal;font-variant:normal;font-weight:normal;font-stretch:normal;line-height:125%;letter-spacing:0px;word-spacing:0px;fill:#000000;fill-opacity:1;stroke:none;font-family:Utopia;-inkscape-font-specification:Utopia"
       transform="matrix(0.94693312,0.32143066,-0.32143066,0.94693312,45.403839,28.366934)"><flowRegion
         id="flowRegion8673"><rect
           id="rect8675"
           width="45.75"
           height="18.25"
           x="794.375"
           y="44.75"
           ry="0"
           style="font-style:normal;font-variant:normal;font-weight:normal;font-stretch:normal;font-family:Utopia;-inkscape-font-specification:Utopia" /></flowRegion><flowPara
         id="flowPara8677">150</flowPara></flowRoot>    <flowRoot
       xml:space="preserve"
       id="flowRoot8679"
       style="font-size:8px;font-style:normal;font-variant:normal;font-weight:normal;font-stretch:normal;line-height:125%;letter-spacing:0px;word-spacing:0px;fill:#000000;fill-opacity:1;stroke:none;font-family:Utopia;-inkscape-font-specification:Utopia"
       transform="matrix(0.95113673,0.30877004,-0.30877004,0.95113673,42.209342,40.320264)"><flowRegion
         id="flowRegion8681"><rect
           id="rect8683"
           width="35.5"
           height="25.25"
           x="816.75"
           y="42.75"
           style="font-size:8px;font-style:normal;font-variant:normal;font-weight:normal;font-stretch:normal;font-family:Utopia;-inkscape-font-specification:Utopia" /></flowRegion><flowPara
         id="flowPara8685">+20</flowPara></flowRoot>    <flowRoot
       xml:space="preserve"
       id="flowRoot8687"
       style="font-size:8px;font-style:normal;font-variant:normal;font-weight:normal;font-stretch:normal;line-height:125%;letter-spacing:0px;word-spacing:0px;fill:#000000;fill-opacity:1;stroke:none;font-family:Utopia;-inkscape-font-specification:Utopia"
       transform="matrix(0.94002485,0.34110596,-0.34110596,0.94002485,58.0526,3.5938387)"><flowRegion
         id="flowRegion8689"><rect
           id="rect8691"
           width="18.375"
           height="14.5"
           x="820.125"
           y="61.875"
           style="font-size:8px;font-style:normal;font-variant:normal;font-weight:normal;font-stretch:normal;font-family:Utopia;-inkscape-font-specification:Utopia" /></flowRegion><flowPara
         id="flowPara8693">0</flowPara></flowRoot>    <rect
       style="fill:#ffffff;stroke:#ffffff;stroke-width:2.00384068000000020;stroke-miterlimit:4;stroke-dasharray:none;stroke-dashoffset:0"
       id="rect8717"
       width="7.9580102"
       height="72.128914"
       x="603.06775"
       y="944.25781"
       transform="matrix(0.85929212,-0.51148515,0.4343965,0.90072175,0,0)"
       rx="2.7631025e-017"
       ry="2.3658223" />
    <rect
       style="fill:#ffffff;stroke:#ffffff;stroke-width:2;stroke-miterlimit:4;stroke-dasharray:none;stroke-dashoffset:0"
       id="rect8719"
       width="4.0658641"
       height="1.6351844"
       x="777.836"
       y="740.09576"
       transform="matrix(0.97276171,-0.23180736,0.23180736,0.97276171,0,0)"
       rx="2.7631025e-017"
       ry="1.6351844" />
  </g>
</svg>
