<?xml version="1.0" encoding="UTF-8" standalone="no"?>
<!-- Created with Inkscape (http://www.inkscape.org/) -->

<svg
   xmlns:dc="http://purl.org/dc/elements/1.1/"
   xmlns:cc="http://creativecommons.org/ns#"
   xmlns:rdf="http://www.w3.org/1999/02/22-rdf-syntax-ns#"
   xmlns:svg="http://www.w3.org/2000/svg"
   xmlns="http://www.w3.org/2000/svg"
   xmlns:sodipodi="http://sodipodi.sourceforge.net/DTD/sodipodi-0.dtd"
   xmlns:inkscape="http://www.inkscape.org/namespaces/inkscape"
   width="744.09448819"
   height="1052.3622047"
   id="svg2"
   version="1.1"
   inkscape:version="0.92.3 (2405546, 2018-03-11)"
   sodipodi:docname="LIDLV2eng.svg">
  <defs
     id="defs4">
    <clipPath
       id="clipPath3335"
       clipPathUnits="userSpaceOnUse">
      <path
         id="path3337"
         clip-rule="evenodd"
         d="M 1.4305e-5,0 960.00001,0 l 0,540 -959.999995695,0 0,-540 z" />
    </clipPath>
    <clipPath
       id="clipPath3323"
       clipPathUnits="userSpaceOnUse">
      <path
         id="path3325"
         clip-rule="evenodd"
         d="M 1.4305e-5,0 960.00001,0 l 0,540 -959.999995695,0 0,-540 z" />
    </clipPath>
    <clipPath
       id="clipPath3311"
       clipPathUnits="userSpaceOnUse">
      <path
         id="path3313"
         clip-rule="evenodd"
         d="M 1.4305e-5,0 960.00001,0 l 0,540 -959.999995695,0 0,-540 z" />
    </clipPath>
    <clipPath
       id="clipPath3299"
       clipPathUnits="userSpaceOnUse">
      <path
         id="path3301"
         clip-rule="evenodd"
         d="M 1.4305e-5,0 960.00001,0 l 0,540 -959.999995695,0 0,-540 z" />
    </clipPath>
    <clipPath
       id="clipPath3287"
       clipPathUnits="userSpaceOnUse">
      <path
         id="path3289"
         clip-rule="evenodd"
         d="M 1.4305e-5,0 960.00001,0 l 0,540 -959.999995695,0 0,-540 z" />
    </clipPath>
    <clipPath
       id="clipPath3275"
       clipPathUnits="userSpaceOnUse">
      <path
         id="path3277"
         clip-rule="evenodd"
         d="M 1.4305e-5,0 960.00001,0 l 0,540 -959.999995695,0 0,-540 z" />
    </clipPath>
    <clipPath
       id="clipPath3263"
       clipPathUnits="userSpaceOnUse">
      <path
         id="path3265"
         clip-rule="evenodd"
         d="M 1.4305e-5,0 960.00001,0 l 0,540 -959.999995695,0 0,-540 z" />
    </clipPath>
    <clipPath
       id="clipPath3251"
       clipPathUnits="userSpaceOnUse">
      <path
         id="path3253"
         clip-rule="evenodd"
         d="M 1.4305e-5,0 960.00001,0 l 0,540 -959.999995695,0 0,-540 z" />
    </clipPath>
    <clipPath
       id="clipPath3239"
       clipPathUnits="userSpaceOnUse">
      <path
         id="path3241"
         clip-rule="evenodd"
         d="M 1.4305e-5,0 960.00001,0 l 0,540 -959.999995695,0 0,-540 z" />
    </clipPath>
    <clipPath
       id="clipPath3227"
       clipPathUnits="userSpaceOnUse">
      <path
         id="path3229"
         clip-rule="evenodd"
         d="M 1.4305e-5,0 960.00001,0 l 0,540 -959.999995695,0 0,-540 z" />
    </clipPath>
    <clipPath
       id="clipPath3215"
       clipPathUnits="userSpaceOnUse">
      <path
         id="path3217"
         clip-rule="evenodd"
         d="M 1.4305e-5,0 960.00001,0 l 0,540 -959.999995695,0 0,-540 z" />
    </clipPath>
    <clipPath
       id="clipPath3203"
       clipPathUnits="userSpaceOnUse">
      <path
         id="path3205"
         clip-rule="evenodd"
         d="M 1.4305e-5,0 960.00001,0 l 0,540 -959.999995695,0 0,-540 z" />
    </clipPath>
    <clipPath
       id="clipPath3868"
       clipPathUnits="userSpaceOnUse">
      <path
         id="path3870"
         clip-rule="evenodd"
         d="M 1.4305e-5,0 960.00001,0 l 0,540 -959.999995695,0 0,-540 z" />
    </clipPath>
    <clipPath
       id="clipPath3856"
       clipPathUnits="userSpaceOnUse">
      <path
         id="path3858"
         clip-rule="evenodd"
         d="M 1.4305e-5,0 960.00001,0 l 0,540 -959.999995695,0 0,-540 z" />
    </clipPath>
    <clipPath
       id="clipPath3844"
       clipPathUnits="userSpaceOnUse">
      <path
         id="path3846"
         clip-rule="evenodd"
         d="M 1.4305e-5,0 960.00001,0 l 0,540 -959.999995695,0 0,-540 z" />
    </clipPath>
    <clipPath
       id="clipPath3832"
       clipPathUnits="userSpaceOnUse">
      <path
         id="path3834"
         clip-rule="evenodd"
         d="M 1.4305e-5,0 960.00001,0 l 0,540 -959.999995695,0 0,-540 z" />
    </clipPath>
    <clipPath
       id="clipPath3820"
       clipPathUnits="userSpaceOnUse">
      <path
         id="path3822"
         clip-rule="evenodd"
         d="M 1.4305e-5,0 960.00001,0 l 0,540 -959.999995695,0 0,-540 z" />
    </clipPath>
    <clipPath
       id="clipPath3808"
       clipPathUnits="userSpaceOnUse">
      <path
         id="path3810"
         clip-rule="evenodd"
         d="M 1.4305e-5,0 960.00001,0 l 0,540 -959.999995695,0 0,-540 z" />
    </clipPath>
    <clipPath
       id="clipPath3796"
       clipPathUnits="userSpaceOnUse">
      <path
         id="path3798"
         clip-rule="evenodd"
         d="M 1.4305e-5,0 960.00001,0 l 0,540 -959.999995695,0 0,-540 z" />
    </clipPath>
    <clipPath
       id="clipPath3784"
       clipPathUnits="userSpaceOnUse">
      <path
         id="path3786"
         clip-rule="evenodd"
         d="M 1.4305e-5,0 960.00001,0 l 0,540 -959.999995695,0 0,-540 z" />
    </clipPath>
    <clipPath
       id="clipPath3772"
       clipPathUnits="userSpaceOnUse">
      <path
         id="path3774"
         clip-rule="evenodd"
         d="M 1.4305e-5,0 960.00001,0 l 0,540 -959.999995695,0 0,-540 z" />
    </clipPath>
    <clipPath
       id="clipPath3760"
       clipPathUnits="userSpaceOnUse">
      <path
         id="path3762"
         clip-rule="evenodd"
         d="M 1.4305e-5,0 960.00001,0 l 0,540 -959.999995695,0 0,-540 z" />
    </clipPath>
    <clipPath
       id="clipPath3748"
       clipPathUnits="userSpaceOnUse">
      <path
         id="path3750"
         clip-rule="evenodd"
         d="M 1.4305e-5,0 960.00001,0 l 0,540 -959.999995695,0 0,-540 z" />
    </clipPath>
    <clipPath
       id="clipPath3736"
       clipPathUnits="userSpaceOnUse">
      <path
         id="path3738"
         clip-rule="evenodd"
         d="M 1.4305e-5,0 960.00001,0 l 0,540 -959.999995695,0 0,-540 z" />
    </clipPath>
  </defs>
  <sodipodi:namedview
     id="base"
     pagecolor="#ffffff"
     bordercolor="#666666"
     borderopacity="1.0"
     inkscape:pageopacity="0.0"
     inkscape:pageshadow="2"
     inkscape:zoom="1.4"
     inkscape:cx="268.01556"
     inkscape:cy="301.01103"
     inkscape:document-units="px"
     inkscape:current-layer="g3526"
     showgrid="false"
     inkscape:window-width="1920"
     inkscape:window-height="1017"
     inkscape:window-x="-8"
     inkscape:window-y="-8"
     inkscape:window-maximized="1" />
  <metadata
     id="metadata7">
    <rdf:RDF>
      <cc:Work
         rdf:about="">
        <dc:format>image/svg+xml</dc:format>
        <dc:type
           rdf:resource="http://purl.org/dc/dcmitype/StillImage" />
        <dc:title></dc:title>
      </cc:Work>
    </rdf:RDF>
  </metadata>
  <g
     inkscape:label="Layer 1"
     inkscape:groupmode="layer"
     id="layer1">
    <g
       transform="matrix(1.25,0,0,-1.25,-228.54286,1027.3366)"
       inkscape:label="AHTLIDLV1V2"
       id="g3526">
      <path
         id="path3528"
         style="fill:none;stroke:#000000;stroke-width:0.47999999;stroke-linecap:butt;stroke-linejoin:miter;stroke-miterlimit:10;stroke-opacity:1;stroke-dasharray:none"
         d="m 364.68,471.36 0,-397.618"
         inkscape:connector-curvature="0" />
      <path
         id="path3530"
         style="fill:none;stroke:#000000;stroke-width:0.47999999;stroke-linecap:butt;stroke-linejoin:miter;stroke-miterlimit:10;stroke-opacity:1;stroke-dasharray:none"
         d="m 364.68,471.36 216.88,0"
         inkscape:connector-curvature="0" />
      <path
         id="path3532"
         style="fill:none;stroke:#000000;stroke-width:0.47999999;stroke-linecap:butt;stroke-linejoin:miter;stroke-miterlimit:10;stroke-opacity:1;stroke-dasharray:none"
         d="m 364.68,73.8 216.88,0"
         inkscape:connector-curvature="0" />
      <path
         id="path3534"
         style="fill:none;stroke:#000000;stroke-width:0.47999999;stroke-linecap:butt;stroke-linejoin:miter;stroke-miterlimit:10;stroke-opacity:1;stroke-dasharray:none"
         d="m 581.52,471.36 0,-397.618"
         inkscape:connector-curvature="0" />
      <path
         id="path3536"
         style="fill:#ff0000;fill-opacity:1;fill-rule:evenodd;stroke:none"
         d="m 539.64,448.5 c 0,2.49 2.01,4.5 4.5,4.5 2.49,0 4.5,-2.01 4.5,-4.5 0,-2.49 -2.01,-4.5 -4.5,-4.5 -2.49,0 -4.5,2.01 -4.5,4.5 z"
         inkscape:connector-curvature="0" />
      <path
         id="path3538"
         style="fill:none;stroke:#000000;stroke-width:0.95999998;stroke-linecap:butt;stroke-linejoin:miter;stroke-miterlimit:10;stroke-opacity:1;stroke-dasharray:none"
         d="m 539.64,448.5 c 0,2.49 2.01,4.5 4.5,4.5 2.49,0 4.5,-2.01 4.5,-4.5 0,-2.49 -2.01,-4.5 -4.5,-4.5 -2.49,0 -4.5,2.01 -4.5,4.5 z"
         inkscape:connector-curvature="0" />
      <path
         id="path3540"
         style="fill:none;stroke:#000000;stroke-width:0.95999998;stroke-linecap:butt;stroke-linejoin:miter;stroke-miterlimit:10;stroke-opacity:1;stroke-dasharray:none"
         d="m 492.48,424.98 c 0,2.49 2.01,4.5 4.5,4.5 2.49,0 4.5,-2.01 4.5,-4.5 0,-2.49 -2.01,-4.5 -4.5,-4.5 -2.49,0 -4.5,2.01 -4.5,4.5 z"
         inkscape:connector-curvature="0" />
      <path
         id="path3542"
         style="fill:#a9d18e;fill-opacity:1;fill-rule:evenodd;stroke:none"
         d="m 441.48,448.74 c 0,2.49 2.01,4.5 4.5,4.5 2.49,0 4.5,-2.01 4.5,-4.5 0,-2.49 -2.01,-4.5 -4.5,-4.5 -2.49,0 -4.5,2.01 -4.5,4.5 z"
         inkscape:connector-curvature="0" />
      <path
         id="path3544"
         style="fill:none;stroke:#000000;stroke-width:0.95999998;stroke-linecap:butt;stroke-linejoin:miter;stroke-miterlimit:10;stroke-opacity:1;stroke-dasharray:none"
         d="m 441.48,448.74 c 0,2.49 2.01,4.5 4.5,4.5 2.49,0 4.5,-2.01 4.5,-4.5 0,-2.49 -2.01,-4.5 -4.5,-4.5 -2.49,0 -4.5,2.01 -4.5,4.5 z"
         inkscape:connector-curvature="0" />
      <path
         id="path3546"
         style="fill:#bdd7ee;fill-opacity:1;fill-rule:evenodd;stroke:none"
         d="m 395.16,425.58 c 0,2.49 2.04,4.5 4.56,4.5 2.52,0 4.56,-2.01 4.56,-4.5 0,-2.49 -2.04,-4.5 -4.56,-4.5 -2.52,0 -4.56,2.01 -4.56,4.5 z"
         inkscape:connector-curvature="0" />
      <path
         id="path3548"
         style="fill:none;stroke:#000000;stroke-width:0.95999998;stroke-linecap:butt;stroke-linejoin:miter;stroke-miterlimit:10;stroke-opacity:1;stroke-dasharray:none"
         d="m 395.16,425.58 c 0,2.49 2.04,4.5 4.56,4.5 2.52,0 4.56,-2.01 4.56,-4.5 0,-2.49 -2.04,-4.5 -4.56,-4.5 -2.52,0 -4.56,2.01 -4.56,4.5 z"
         inkscape:connector-curvature="0" />
      <path
         id="path3550"
         style="fill:none;stroke:#000000;stroke-width:0.95999998;stroke-linecap:butt;stroke-linejoin:miter;stroke-miterlimit:10;stroke-opacity:1;stroke-dasharray:none"
         d="m 540.36,401.4 c 0,2.52 2.01,4.56 4.5,4.56 2.49,0 4.5,-2.04 4.5,-4.56 0,-2.52 -2.01,-4.56 -4.5,-4.56 -2.49,0 -4.5,2.04 -4.5,4.56 z"
         inkscape:connector-curvature="0" />
      <path
         id="path3552"
         style="fill:#a9d18e;fill-opacity:1;fill-rule:evenodd;stroke:none"
         d="m 493.2,377.94 c 0,2.49 2.01,4.5 4.5,4.5 2.49,0 4.5,-2.01 4.5,-4.5 0,-2.49 -2.01,-4.5 -4.5,-4.5 -2.49,0 -4.5,2.01 -4.5,4.5 z"
         inkscape:connector-curvature="0" />
      <path
         id="path3554"
         style="fill:none;stroke:#000000;stroke-width:0.95999998;stroke-linecap:butt;stroke-linejoin:miter;stroke-miterlimit:10;stroke-opacity:1;stroke-dasharray:none"
         d="m 493.2,377.94 c 0,2.49 2.01,4.5 4.5,4.5 2.49,0 4.5,-2.01 4.5,-4.5 0,-2.49 -2.01,-4.5 -4.5,-4.5 -2.49,0 -4.5,2.01 -4.5,4.5 z"
         inkscape:connector-curvature="0" />
      <path
         id="path3556"
         style="fill:none;stroke:#000000;stroke-width:0.95999998;stroke-linecap:butt;stroke-linejoin:miter;stroke-miterlimit:10;stroke-opacity:1;stroke-dasharray:none"
         d="m 442.2,401.7 c 0,2.49 2.01,4.5 4.5,4.5 2.49,0 4.5,-2.01 4.5,-4.5 0,-2.49 -2.01,-4.5 -4.5,-4.5 -2.49,0 -4.5,2.01 -4.5,4.5 z"
         inkscape:connector-curvature="0" />
      <path
         id="path3558"
         style="fill:#bdd7ee;fill-opacity:1;fill-rule:evenodd;stroke:none"
         d="m 394.32,378.54 c 0,2.49 2.01,4.5 4.5,4.5 2.49,0 4.5,-2.01 4.5,-4.5 0,-2.49 -2.01,-4.5 -4.5,-4.5 -2.49,0 -4.5,2.01 -4.5,4.5 z"
         inkscape:connector-curvature="0" />
      <path
         id="path3560"
         style="fill:none;stroke:#000000;stroke-width:0.95999998;stroke-linecap:butt;stroke-linejoin:miter;stroke-miterlimit:10;stroke-opacity:1;stroke-dasharray:none"
         d="m 394.32,378.54 c 0,2.49 2.01,4.5 4.5,4.5 2.49,0 4.5,-2.01 4.5,-4.5 0,-2.49 -2.01,-4.5 -4.5,-4.5 -2.49,0 -4.5,2.01 -4.5,4.5 z"
         inkscape:connector-curvature="0" />
      <path
         id="path3562"
         style="fill:#ff0000;fill-opacity:1;fill-rule:evenodd;stroke:none"
         d="m 539.4,354.66 c 0,2.49 2.01,4.5 4.5,4.5 2.49,0 4.5,-2.01 4.5,-4.5 0,-2.49 -2.01,-4.5 -4.5,-4.5 -2.49,0 -4.5,2.01 -4.5,4.5 z"
         inkscape:connector-curvature="0" />
      <path
         id="path3564"
         style="fill:none;stroke:#000000;stroke-width:0.95999998;stroke-linecap:butt;stroke-linejoin:miter;stroke-miterlimit:10;stroke-opacity:1;stroke-dasharray:none"
         d="m 539.4,354.66 c 0,2.49 2.01,4.5 4.5,4.5 2.49,0 4.5,-2.01 4.5,-4.5 0,-2.49 -2.01,-4.5 -4.5,-4.5 -2.49,0 -4.5,2.01 -4.5,4.5 z"
         inkscape:connector-curvature="0" />
      <path
         id="path3566"
         style="fill:none;stroke:#000000;stroke-width:0.95999998;stroke-linecap:butt;stroke-linejoin:miter;stroke-miterlimit:10;stroke-opacity:1;stroke-dasharray:none"
         d="m 492.24,331.26 c 0,2.49 2.01,4.5 4.5,4.5 2.49,0 4.5,-2.01 4.5,-4.5 0,-2.49 -2.01,-4.5 -4.5,-4.5 -2.49,0 -4.5,2.01 -4.5,4.5 z"
         inkscape:connector-curvature="0" />
      <path
         id="path3568"
         style="fill:none;stroke:#000000;stroke-width:0.95999998;stroke-linecap:butt;stroke-linejoin:miter;stroke-miterlimit:10;stroke-opacity:1;stroke-dasharray:none"
         d="m 441.36,355.02 c 0,2.49 2.01,4.5 4.5,4.5 2.49,0 4.5,-2.01 4.5,-4.5 0,-2.49 -2.01,-4.5 -4.5,-4.5 -2.49,0 -4.5,2.01 -4.5,4.5 z"
         inkscape:connector-curvature="0" />
      <path
         id="path3570"
         style="fill:#bdd7ee;fill-opacity:1;fill-rule:evenodd;stroke:none"
         d="m 393.36,331.8 c 0,2.52 2.01,4.56 4.5,4.56 2.49,0 4.5,-2.04 4.5,-4.56 0,-2.52 -2.01,-4.56 -4.5,-4.56 -2.49,0 -4.5,2.04 -4.5,4.56 z"
         inkscape:connector-curvature="0" />
      <path
         id="path3572"
         style="fill:none;stroke:#000000;stroke-width:0.95999998;stroke-linecap:butt;stroke-linejoin:miter;stroke-miterlimit:10;stroke-opacity:1;stroke-dasharray:none"
         d="m 393.36,331.8 c 0,2.52 2.01,4.56 4.5,4.56 2.49,0 4.5,-2.04 4.5,-4.56 0,-2.52 -2.01,-4.56 -4.5,-4.56 -2.49,0 -4.5,2.04 -4.5,4.56 z"
         inkscape:connector-curvature="0" />
      <path
         id="path3574"
         style="fill:none;stroke:#000000;stroke-width:0.95999998;stroke-linecap:butt;stroke-linejoin:miter;stroke-miterlimit:10;stroke-opacity:1;stroke-dasharray:none"
         d="m 539.52,307.8 c 0,2.52 2.01,4.56 4.5,4.56 2.49,0 4.5,-2.04 4.5,-4.56 0,-2.52 -2.01,-4.56 -4.5,-4.56 -2.49,0 -4.5,2.04 -4.5,4.56 z"
         inkscape:connector-curvature="0" />
      <path
         id="path3576"
         style="fill:#bdd7ee;fill-opacity:1;fill-rule:evenodd;stroke:none"
         d="m 492.36,284.34 c 0,2.49 2.01,4.5 4.5,4.5 2.49,0 4.5,-2.01 4.5,-4.5 0,-2.49 -2.01,-4.5 -4.5,-4.5 -2.49,0 -4.5,2.01 -4.5,4.5 z"
         inkscape:connector-curvature="0" />
      <path
         id="path3578"
         style="fill:none;stroke:#000000;stroke-width:0.95999998;stroke-linecap:butt;stroke-linejoin:miter;stroke-miterlimit:10;stroke-opacity:1;stroke-dasharray:none"
         d="m 492.36,284.34 c 0,2.49 2.01,4.5 4.5,4.5 2.49,0 4.5,-2.01 4.5,-4.5 0,-2.49 -2.01,-4.5 -4.5,-4.5 -2.49,0 -4.5,2.01 -4.5,4.5 z"
         inkscape:connector-curvature="0" />
      <path
         id="path3580"
         style="fill:none;stroke:#000000;stroke-width:0.95999998;stroke-linecap:butt;stroke-linejoin:miter;stroke-miterlimit:10;stroke-opacity:1;stroke-dasharray:none"
         d="m 441.36,308.1 c 0,2.49 2.04,4.5 4.56,4.5 2.52,0 4.56,-2.01 4.56,-4.5 0,-2.49 -2.04,-4.5 -4.56,-4.5 -2.52,0 -4.56,2.01 -4.56,4.5 z"
         inkscape:connector-curvature="0" />
      <path
         id="path3582"
         style="fill:#a9d18e;fill-opacity:1;fill-rule:evenodd;stroke:none"
         d="m 393.48,284.94 c 0,2.49 2.01,4.5 4.5,4.5 2.49,0 4.5,-2.01 4.5,-4.5 0,-2.49 -2.01,-4.5 -4.5,-4.5 -2.49,0 -4.5,2.01 -4.5,4.5 z"
         inkscape:connector-curvature="0" />
      <path
         id="path3584"
         style="fill:none;stroke:#000000;stroke-width:0.95999998;stroke-linecap:butt;stroke-linejoin:miter;stroke-miterlimit:10;stroke-opacity:1;stroke-dasharray:none"
         d="m 393.48,284.94 c 0,2.49 2.01,4.5 4.5,4.5 2.49,0 4.5,-2.01 4.5,-4.5 0,-2.49 -2.01,-4.5 -4.5,-4.5 -2.49,0 -4.5,2.01 -4.5,4.5 z"
         inkscape:connector-curvature="0" />
      <path
         id="path3586"
         style="fill:none;stroke:#000000;stroke-width:0.95999998;stroke-linecap:butt;stroke-linejoin:miter;stroke-miterlimit:10;stroke-opacity:1;stroke-dasharray:none"
         d="m 539.52,260.88 c 0,2.52 2.01,4.56 4.5,4.56 2.49,0 4.5,-2.04 4.5,-4.56 0,-2.52 -2.01,-4.56 -4.5,-4.56 -2.49,0 -4.5,2.04 -4.5,4.56 z"
         inkscape:connector-curvature="0" />
      <path
         id="path3588"
         style="fill:none;stroke:#000000;stroke-width:0.95999998;stroke-linecap:butt;stroke-linejoin:miter;stroke-miterlimit:10;stroke-opacity:1;stroke-dasharray:none"
         d="m 492.36,237.42 c 0,2.49 2.01,4.5 4.5,4.5 2.49,0 4.5,-2.01 4.5,-4.5 0,-2.49 -2.01,-4.5 -4.5,-4.5 -2.49,0 -4.5,2.01 -4.5,4.5 z"
         inkscape:connector-curvature="0" />
      <path
         id="path3590"
         style="fill:#ff0000;fill-opacity:1;fill-rule:evenodd;stroke:none"
         d="m 441.36,261.18 c 0,2.49 2.04,4.5 4.56,4.5 2.52,0 4.56,-2.01 4.56,-4.5 0,-2.49 -2.04,-4.5 -4.56,-4.5 -2.52,0 -4.56,2.01 -4.56,4.5 z"
         inkscape:connector-curvature="0" />
      <path
         id="path3592"
         style="fill:none;stroke:#000000;stroke-width:0.95999998;stroke-linecap:butt;stroke-linejoin:miter;stroke-miterlimit:10;stroke-opacity:1;stroke-dasharray:none"
         d="m 441.36,261.18 c 0,2.49 2.04,4.5 4.56,4.5 2.52,0 4.56,-2.01 4.56,-4.5 0,-2.49 -2.04,-4.5 -4.56,-4.5 -2.52,0 -4.56,2.01 -4.56,4.5 z"
         inkscape:connector-curvature="0" />
      <path
         id="path3594"
         style="fill:none;stroke:#000000;stroke-width:0.95999998;stroke-linecap:butt;stroke-linejoin:miter;stroke-miterlimit:10;stroke-opacity:1;stroke-dasharray:none"
         d="m 393.48,238.02 c 0,2.49 2.01,4.5 4.5,4.5 2.49,0 4.5,-2.01 4.5,-4.5 0,-2.49 -2.01,-4.5 -4.5,-4.5 -2.49,0 -4.5,2.01 -4.5,4.5 z"
         inkscape:connector-curvature="0" />
      <path
         id="path3596"
         style="fill:#bdd7ee;fill-opacity:1;fill-rule:evenodd;stroke:none"
         d="m 538.92,213.66 c 0,2.49 2.01,4.5 4.5,4.5 2.49,0 4.5,-2.01 4.5,-4.5 0,-2.49 -2.01,-4.5 -4.5,-4.5 -2.49,0 -4.5,2.01 -4.5,4.5 z"
         inkscape:connector-curvature="0" />
      <path
         id="path3598"
         style="fill:none;stroke:#000000;stroke-width:0.95999998;stroke-linecap:butt;stroke-linejoin:miter;stroke-miterlimit:10;stroke-opacity:1;stroke-dasharray:none"
         d="m 538.92,213.66 c 0,2.49 2.01,4.5 4.5,4.5 2.49,0 4.5,-2.01 4.5,-4.5 0,-2.49 -2.01,-4.5 -4.5,-4.5 -2.49,0 -4.5,2.01 -4.5,4.5 z"
         inkscape:connector-curvature="0" />
      <path
         id="path3600"
         style="fill:#ff0000;fill-opacity:1;fill-rule:evenodd;stroke:none"
         d="m 491.76,190.26 c 0,2.49 2.01,4.5 4.5,4.5 2.49,0 4.5,-2.01 4.5,-4.5 0,-2.49 -2.01,-4.5 -4.5,-4.5 -2.49,0 -4.5,2.01 -4.5,4.5 z"
         inkscape:connector-curvature="0" />
      <path
         id="path3602"
         style="fill:none;stroke:#000000;stroke-width:0.95999998;stroke-linecap:butt;stroke-linejoin:miter;stroke-miterlimit:10;stroke-opacity:1;stroke-dasharray:none"
         d="m 491.76,190.26 c 0,2.49 2.01,4.5 4.5,4.5 2.49,0 4.5,-2.01 4.5,-4.5 0,-2.49 -2.01,-4.5 -4.5,-4.5 -2.49,0 -4.5,2.01 -4.5,4.5 z"
         inkscape:connector-curvature="0" />
      <path
         id="path3604"
         style="fill:#ff0000;fill-opacity:1;fill-rule:evenodd;stroke:none"
         d="m 440.76,213.96 c 0,2.52 2.04,4.56 4.56,4.56 2.52,0 4.56,-2.04 4.56,-4.56 0,-2.52 -2.04,-4.56 -4.56,-4.56 -2.52,0 -4.56,2.04 -4.56,4.56 z"
         inkscape:connector-curvature="0" />
      <path
         id="path3606"
         style="fill:none;stroke:#000000;stroke-width:0.95999998;stroke-linecap:butt;stroke-linejoin:miter;stroke-miterlimit:10;stroke-opacity:1;stroke-dasharray:none"
         d="m 440.76,213.96 c 0,2.52 2.04,4.56 4.56,4.56 2.52,0 4.56,-2.04 4.56,-4.56 0,-2.52 -2.04,-4.56 -4.56,-4.56 -2.52,0 -4.56,2.04 -4.56,4.56 z"
         inkscape:connector-curvature="0" />
      <path
         id="path3608"
         style="fill:#a9d18e;fill-opacity:1;fill-rule:evenodd;stroke:none"
         d="m 392.88,190.8 c 0,2.52 2.01,4.56 4.5,4.56 2.49,0 4.5,-2.04 4.5,-4.56 0,-2.52 -2.01,-4.56 -4.5,-4.56 -2.49,0 -4.5,2.04 -4.5,4.56 z"
         inkscape:connector-curvature="0" />
      <path
         id="path3610"
         style="fill:none;stroke:#000000;stroke-width:0.95999998;stroke-linecap:butt;stroke-linejoin:miter;stroke-miterlimit:10;stroke-opacity:1;stroke-dasharray:none"
         d="m 392.88,190.8 c 0,2.52 2.01,4.56 4.5,4.56 2.49,0 4.5,-2.04 4.5,-4.56 0,-2.52 -2.01,-4.56 -4.5,-4.56 -2.49,0 -4.5,2.04 -4.5,4.56 z"
         inkscape:connector-curvature="0" />
      <path
         id="path3612"
         style="fill:none;stroke:#000000;stroke-width:0.95999998;stroke-linecap:butt;stroke-linejoin:miter;stroke-miterlimit:10;stroke-opacity:1;stroke-dasharray:none"
         d="m 540.36,166.74 c 0,2.49 2.01,4.5 4.5,4.5 2.49,0 4.5,-2.01 4.5,-4.5 0,-2.49 -2.01,-4.5 -4.5,-4.5 -2.49,0 -4.5,2.01 -4.5,4.5 z"
         inkscape:connector-curvature="0" />
      <path
         id="path3614"
         style="fill:#a9d18e;fill-opacity:1;fill-rule:evenodd;stroke:none"
         d="m 493.2,143.34 c 0,2.49 2.01,4.5 4.5,4.5 2.49,0 4.5,-2.01 4.5,-4.5 0,-2.49 -2.01,-4.5 -4.5,-4.5 -2.49,0 -4.5,2.01 -4.5,4.5 z"
         inkscape:connector-curvature="0" />
      <path
         id="path3616"
         style="fill:none;stroke:#000000;stroke-width:0.95999998;stroke-linecap:butt;stroke-linejoin:miter;stroke-miterlimit:10;stroke-opacity:1;stroke-dasharray:none"
         d="m 493.2,143.34 c 0,2.49 2.01,4.5 4.5,4.5 2.49,0 4.5,-2.01 4.5,-4.5 0,-2.49 -2.01,-4.5 -4.5,-4.5 -2.49,0 -4.5,2.01 -4.5,4.5 z"
         inkscape:connector-curvature="0" />
      <path
         id="path3618"
         style="fill:none;stroke:#000000;stroke-width:0.95999998;stroke-linecap:butt;stroke-linejoin:miter;stroke-miterlimit:10;stroke-opacity:1;stroke-dasharray:none"
         d="m 442.2,167.1 c 0,2.49 2.01,4.5 4.5,4.5 2.49,0 4.5,-2.01 4.5,-4.5 0,-2.49 -2.01,-4.5 -4.5,-4.5 -2.49,0 -4.5,2.01 -4.5,4.5 z"
         inkscape:connector-curvature="0" />
      <path
         id="path3620"
         style="fill:none;stroke:#000000;stroke-width:0.95999998;stroke-linecap:butt;stroke-linejoin:miter;stroke-miterlimit:10;stroke-opacity:1;stroke-dasharray:none"
         d="m 394.32,143.88 c 0,2.52 2.01,4.56 4.5,4.56 2.49,0 4.5,-2.04 4.5,-4.56 0,-2.52 -2.01,-4.56 -4.5,-4.56 -2.49,0 -4.5,2.04 -4.5,4.56 z"
         inkscape:connector-curvature="0" />
      <path
         id="path3622"
         style="fill:#bdd7ee;fill-opacity:1;fill-rule:evenodd;stroke:none"
         d="m 540.36,120.42 c 0,2.49 2.01,4.5 4.5,4.5 2.49,0 4.5,-2.01 4.5,-4.5 0,-2.49 -2.01,-4.5 -4.5,-4.5 -2.49,0 -4.5,2.01 -4.5,4.5 z"
         inkscape:connector-curvature="0" />
      <path
         id="path3624"
         style="fill:none;stroke:#000000;stroke-width:0.95999998;stroke-linecap:butt;stroke-linejoin:miter;stroke-miterlimit:10;stroke-opacity:1;stroke-dasharray:none"
         d="m 540.36,120.42 c 0,2.49 2.01,4.5 4.5,4.5 2.49,0 4.5,-2.01 4.5,-4.5 0,-2.49 -2.01,-4.5 -4.5,-4.5 -2.49,0 -4.5,2.01 -4.5,4.5 z"
         inkscape:connector-curvature="0" />
      <path
         id="path3626"
         style="fill:#a9d18e;fill-opacity:1;fill-rule:evenodd;stroke:none"
         d="m 493.08,97.02 c 0,2.485 2.04,4.5 4.56,4.5 2.52,0 4.56,-2.015 4.56,-4.5 0,-2.485 -2.04,-4.5 -4.56,-4.5 -2.52,0 -4.56,2.015 -4.56,4.5 z"
         inkscape:connector-curvature="0" />
      <path
         id="path3628"
         style="fill:none;stroke:#000000;stroke-width:0.95999998;stroke-linecap:butt;stroke-linejoin:miter;stroke-miterlimit:10;stroke-opacity:1;stroke-dasharray:none"
         d="m 493.08,97.02 c 0,2.485 2.04,4.5 4.56,4.5 2.52,0 4.56,-2.015 4.56,-4.5 0,-2.485 -2.04,-4.5 -4.56,-4.5 -2.52,0 -4.56,2.015 -4.56,4.5 z"
         inkscape:connector-curvature="0" />
      <path
         id="path3630"
         style="fill:#ff0000;fill-opacity:1;fill-rule:evenodd;stroke:none"
         d="m 442.2,120.78 c 0,2.49 2.01,4.5 4.5,4.5 2.49,0 4.5,-2.01 4.5,-4.5 0,-2.49 -2.01,-4.5 -4.5,-4.5 -2.49,0 -4.5,2.01 -4.5,4.5 z"
         inkscape:connector-curvature="0" />
      <path
         id="path3632"
         style="fill:none;stroke:#000000;stroke-width:0.95999998;stroke-linecap:butt;stroke-linejoin:miter;stroke-miterlimit:10;stroke-opacity:1;stroke-dasharray:none"
         d="m 442.2,120.78 c 0,2.49 2.01,4.5 4.5,4.5 2.49,0 4.5,-2.01 4.5,-4.5 0,-2.49 -2.01,-4.5 -4.5,-4.5 -2.49,0 -4.5,2.01 -4.5,4.5 z"
         inkscape:connector-curvature="0" />
      <path
         id="path3634"
         style="fill:none;stroke:#000000;stroke-width:0.95999998;stroke-linecap:butt;stroke-linejoin:miter;stroke-miterlimit:10;stroke-opacity:1;stroke-dasharray:none"
         d="m 394.32,97.56 c 0,2.52 2.01,4.56 4.5,4.56 2.49,0 4.5,-2.04 4.5,-4.56 0,-2.518 -2.01,-4.56 -4.5,-4.56 -2.49,0 -4.5,2.042 -4.5,4.56 z"
         inkscape:connector-curvature="0" />
      <path
         id="path3636"
         style="fill:none;stroke:#ff0000;stroke-width:1.55999994;stroke-linecap:butt;stroke-linejoin:miter;stroke-miterlimit:10;stroke-opacity:1;stroke-dasharray:none"
         d="M 540.75,357.78 442.74,264.29"
         inkscape:connector-curvature="0" />
      <path
         id="path3638"
         style="fill:none;stroke:#ff0000;stroke-width:1.55999994;stroke-linecap:butt;stroke-linejoin:miter;stroke-miterlimit:10;stroke-opacity:1;stroke-dasharray:none"
         d="M 547.23,351.42 449.22,257.93"
         inkscape:connector-curvature="0" />
      <path
         id="path3640"
         style="fill:none;stroke:#ff0000;stroke-width:1.55999994;stroke-linecap:butt;stroke-linejoin:miter;stroke-miterlimit:10;stroke-opacity:1;stroke-dasharray:none"
         d="m 499.5,186.98 47.96,261.88"
         inkscape:connector-curvature="0" />
      <path
         id="path3642"
         style="fill:none;stroke:#ff0000;stroke-width:1.55999994;stroke-linecap:butt;stroke-linejoin:miter;stroke-miterlimit:10;stroke-opacity:1;stroke-dasharray:none"
         d="m 491.82,190.19 49.19,261.43"
         inkscape:connector-curvature="0" />
      <path
         id="path3644"
         style="fill:none;stroke:#70ad47;stroke-width:1.55999994;stroke-linecap:butt;stroke-linejoin:miter;stroke-miterlimit:10;stroke-opacity:1;stroke-dasharray:none"
         d="M 493.2,377.94 394.86,288.09"
         inkscape:connector-curvature="0" />
      <path
         id="path3646"
         style="fill:none;stroke:#70ad47;stroke-width:1.55999994;stroke-linecap:butt;stroke-linejoin:miter;stroke-miterlimit:10;stroke-opacity:1;stroke-dasharray:none"
         d="M 500.88,374.7 401.22,281.65"
         inkscape:connector-curvature="0" />
      <path
         id="path3648"
         style="fill:none;stroke:#70ad47;stroke-width:1.55999994;stroke-linecap:butt;stroke-linejoin:miter;stroke-miterlimit:10;stroke-opacity:1;stroke-dasharray:none"
         d="M 441.54,448.74 493.18,143.3"
         inkscape:connector-curvature="0" />
      <path
         id="path3650"
         style="fill:none;stroke:#70ad47;stroke-width:1.55999994;stroke-linecap:butt;stroke-linejoin:miter;stroke-miterlimit:10;stroke-opacity:1;stroke-dasharray:none"
         d="M 450.54,448.74 502.18,143.3"
         inkscape:connector-curvature="0" />
      <path
         id="path3652"
         style="fill:none;stroke:#5b9bd5;stroke-width:1.55999994;stroke-linecap:butt;stroke-linejoin:miter;stroke-miterlimit:10;stroke-opacity:1;stroke-dasharray:none"
         d="m 394.32,378.42 -0.9,-46.71"
         inkscape:connector-curvature="0" />
      <path
         id="path3654"
         style="fill:none;stroke:#5b9bd5;stroke-width:1.55999994;stroke-linecap:butt;stroke-linejoin:miter;stroke-miterlimit:10;stroke-opacity:1;stroke-dasharray:none"
         d="m 403.32,378.42 -0.9,-46.71"
         inkscape:connector-curvature="0" />
      <path
         id="path3656"
         style="fill:none;stroke:#5b9bd5;stroke-width:1.55999994;stroke-linecap:butt;stroke-linejoin:miter;stroke-miterlimit:10;stroke-opacity:1;stroke-dasharray:none"
         d="M 395.22,425.58 538.93,213.66"
         inkscape:connector-curvature="0" />
      <path
         id="path3658"
         style="fill:none;stroke:#5b9bd5;stroke-width:1.55999994;stroke-linecap:butt;stroke-linejoin:miter;stroke-miterlimit:10;stroke-opacity:1;stroke-dasharray:none"
         d="M 404.34,425.58 546.73,216.86"
         inkscape:connector-curvature="0" />
      <g
         id="g3660">
        <path
           id="path3662"
           style="fill:none;stroke:#70ad47;stroke-width:0.47999999;stroke-linecap:butt;stroke-linejoin:miter;stroke-miterlimit:10;stroke-opacity:1;stroke-dasharray:0.48, 0.48;stroke-dashoffset:0"
           d="m 441.48,448.8 51.64,-70.81"
           inkscape:connector-curvature="0" />
      </g>
      <g
         id="g3664">
        <path
           id="path3666"
           style="fill:none;stroke:#70ad47;stroke-width:0.47999999;stroke-linecap:butt;stroke-linejoin:miter;stroke-miterlimit:10;stroke-opacity:1;stroke-dasharray:0.48, 0.48;stroke-dashoffset:0"
           d="M 449.16,451.92 500.8,381.11"
           inkscape:connector-curvature="0" />
      </g>
      <g
         id="g3668">
        <path
           id="path3670"
           style="fill:none;stroke:#70ad47;stroke-width:0.47999999;stroke-linecap:butt;stroke-linejoin:miter;stroke-miterlimit:10;stroke-opacity:1;stroke-dasharray:0.48, 0.48;stroke-dashoffset:0"
           d="m 402.48,284.88 -0.6,-94.12"
           inkscape:connector-curvature="0" />
      </g>
      <g
         id="g3672">
        <path
           id="path3674"
           style="fill:none;stroke:#70ad47;stroke-width:0.47999999;stroke-linecap:butt;stroke-linejoin:miter;stroke-miterlimit:10;stroke-opacity:1;stroke-dasharray:0.48, 0.48;stroke-dashoffset:0"
           d="m 393.48,284.88 -0.6,-94.12"
           inkscape:connector-curvature="0" />
      </g>
      <g
         id="g3676">
        <path
           id="path3678"
           style="fill:none;stroke:#70ad47;stroke-width:0.47999999;stroke-linecap:butt;stroke-linejoin:miter;stroke-miterlimit:10;stroke-opacity:1;stroke-dasharray:0.48, 0.48;stroke-dashoffset:0"
           d="M 502.21,143.28 502.2,96.967"
           inkscape:connector-curvature="0" />
      </g>
      <g
         id="g3680">
        <path
           id="path3682"
           style="fill:none;stroke:#70ad47;stroke-width:0.47999999;stroke-linecap:butt;stroke-linejoin:miter;stroke-miterlimit:10;stroke-opacity:1;stroke-dasharray:0.48, 0.48;stroke-dashoffset:0"
           d="M 493.09,143.28 493.08,96.967"
           inkscape:connector-curvature="0" />
      </g>
      <g
         id="g3684">
        <path
           id="path3686"
           style="fill:none;stroke:#5b9bd5;stroke-width:0.47999999;stroke-linecap:butt;stroke-linejoin:miter;stroke-miterlimit:10;stroke-opacity:1;stroke-dasharray:0.48, 0.48;stroke-dashoffset:0"
           d="m 395.1,425.64 -0.9,-46.71"
           inkscape:connector-curvature="0" />
      </g>
      <g
         id="g3688">
        <path
           id="path3690"
           style="fill:none;stroke:#5b9bd5;stroke-width:0.47999999;stroke-linecap:butt;stroke-linejoin:miter;stroke-miterlimit:10;stroke-opacity:1;stroke-dasharray:0.48, 0.48;stroke-dashoffset:0"
           d="m 404.1,425.64 -0.9,-46.71"
           inkscape:connector-curvature="0" />
      </g>
      <g
         id="g3692">
        <path
           id="path3694"
           style="fill:none;stroke:#5b9bd5;stroke-width:0.47999999;stroke-linecap:butt;stroke-linejoin:miter;stroke-miterlimit:10;stroke-opacity:1;stroke-dasharray:0.48, 0.48;stroke-dashoffset:0"
           d="m 493.64,281.1 -98.96,47.46"
           inkscape:connector-curvature="0" />
      </g>
      <g
         id="g3696">
        <path
           id="path3698"
           style="fill:none;stroke:#5b9bd5;stroke-width:0.47999999;stroke-linecap:butt;stroke-linejoin:miter;stroke-miterlimit:10;stroke-opacity:1;stroke-dasharray:0.48, 0.48;stroke-dashoffset:0"
           d="M 401.04,335.04 500,287.58"
           inkscape:connector-curvature="0" />
      </g>
      <g
         id="g3700">
        <path
           id="path3702"
           style="fill:none;stroke:#5b9bd5;stroke-width:0.47999999;stroke-linecap:butt;stroke-linejoin:miter;stroke-miterlimit:10;stroke-opacity:1;stroke-dasharray:0.48, 0.48;stroke-dashoffset:0"
           d="m 549.31,120.5 -1.39,93.22"
           inkscape:connector-curvature="0" />
      </g>
      <g
         id="g3704">
        <path
           id="path3706"
           style="fill:none;stroke:#5b9bd5;stroke-width:0.47999999;stroke-linecap:butt;stroke-linejoin:miter;stroke-miterlimit:10;stroke-opacity:1;stroke-dasharray:0.48, 0.48;stroke-dashoffset:0"
           d="m 540.31,120.5 -1.39,93.22"
           inkscape:connector-curvature="0" />
      </g>
      <g
         id="g3708">
        <path
           id="path3710"
           style="fill:none;stroke:#ff0000;stroke-width:0.47999999;stroke-linecap:butt;stroke-linejoin:miter;stroke-miterlimit:10;stroke-opacity:1;stroke-dasharray:0.48, 0.48;stroke-dashoffset:0"
           d="M 539.59,448.44 539.4,354.66"
           inkscape:connector-curvature="0" />
      </g>
      <g
         id="g3712">
        <path
           id="path3714"
           style="fill:none;stroke:#ff0000;stroke-width:0.47999999;stroke-linecap:butt;stroke-linejoin:miter;stroke-miterlimit:10;stroke-opacity:1;stroke-dasharray:0.48, 0.48;stroke-dashoffset:0"
           d="M 548.59,448.44 548.4,354.66"
           inkscape:connector-curvature="0" />
      </g>
      <g
         id="g3716">
        <path
           id="path3718"
           style="fill:none;stroke:#ff0000;stroke-width:0.47999999;stroke-linecap:butt;stroke-linejoin:miter;stroke-miterlimit:10;stroke-opacity:1;stroke-dasharray:0.48, 0.48;stroke-dashoffset:0"
           d="M 441.38,261.24 441,212.73"
           inkscape:connector-curvature="0" />
      </g>
      <g
         id="g3720">
        <path
           id="path3722"
           style="fill:none;stroke:#ff0000;stroke-width:0.47999999;stroke-linecap:butt;stroke-linejoin:miter;stroke-miterlimit:10;stroke-opacity:1;stroke-dasharray:0.48, 0.48;stroke-dashoffset:0"
           d="m 450.5,261.24 -0.38,-48.51"
           inkscape:connector-curvature="0" />
      </g>
      <g
         id="g3724">
        <path
           id="path3726"
           style="fill:none;stroke:#ff0000;stroke-width:0.47999999;stroke-linecap:butt;stroke-linejoin:miter;stroke-miterlimit:10;stroke-opacity:1;stroke-dasharray:0.48, 0.48;stroke-dashoffset:0"
           d="M 491.74,190.2 443.52,123.93"
           inkscape:connector-curvature="0" />
      </g>
      <g
         id="g3728">
        <path
           id="path3730"
           style="fill:none;stroke:#ff0000;stroke-width:0.47999999;stroke-linecap:butt;stroke-linejoin:miter;stroke-miterlimit:10;stroke-opacity:1;stroke-dasharray:0.48, 0.48;stroke-dashoffset:0"
           d="M 499.43,187.08 449.88,117.61"
           inkscape:connector-curvature="0" />
      </g>
      <g
         id="g3732">
        <g
           clip-path="url(#clipPath3736)"
           id="g3734">
          <text
             id="text3740"
             transform="matrix(1,0,0,-1,391.18,168.82)"
             style="line-height:0%">
            <tspan
               id="tspan3742"
               sodipodi:role="line"
               x="0"
               style="font-variant:normal;font-weight:normal;font-size:14.03999996px;line-height:1.25;font-family:Utopia;-inkscape-font-specification:Utopia-Regular;writing-mode:lr-tb;fill:#000000;fill-opacity:1;fill-rule:nonzero;stroke:#000000;stroke-width:0.40114;stroke-linecap:butt;stroke-linejoin:miter;stroke-miterlimit:10;stroke-dasharray:none;stroke-opacity:1"
               y="0">C2</tspan>
          </text>
        </g>
      </g>
      <g
         id="g3744"
         transform="translate(4.5714286)">
        <g
           clip-path="url(#clipPath3748)"
           id="g3746">
          <text
             id="text3752"
             transform="matrix(1,0,0,-1,387.34,152.02)"
             style="line-height:0%">
            <tspan
               id="tspan3754"
               sodipodi:role="line"
               style="font-variant:normal;font-weight:normal;font-size:14.03999996px;line-height:1.25;font-family:Utopia;-inkscape-font-specification:Utopia-Regular;writing-mode:lr-tb;fill:#000000;fill-opacity:1;fill-rule:nonzero;stroke:#000000;stroke-width:0.40114;stroke-linecap:butt;stroke-linejoin:miter;stroke-miterlimit:10;stroke-dasharray:none;stroke-opacity:1"
               x="0"
               y="0">IN</tspan>
          </text>
        </g>
      </g>
      <g
         id="g3756">
        <g
           clip-path="url(#clipPath3760)"
           id="g3758">
          <text
             id="text3764"
             transform="matrix(1,0,0,-1,489.31,262.1)"
             style="line-height:0%">
            <tspan
               id="tspan3766"
               sodipodi:role="line"
               x="0"
               style="font-variant:normal;font-weight:normal;font-size:14.03999996px;line-height:1.25;font-family:Utopia;-inkscape-font-specification:Utopia-Regular;writing-mode:lr-tb;fill:#000000;fill-opacity:1;fill-rule:nonzero;stroke:#000000;stroke-width:0.40114;stroke-linecap:butt;stroke-linejoin:miter;stroke-miterlimit:10;stroke-dasharray:none;stroke-opacity:1"
               y="0">C3</tspan>
          </text>
        </g>
      </g>
      <g
         id="g3768"
         transform="translate(-4.5714286)">
        <g
           clip-path="url(#clipPath3772)"
           id="g3770">
          <text
             id="text3776"
             transform="matrix(1,0,0,-1,485.47,245.3)"
             style="line-height:0%">
            <tspan
               id="tspan3778"
               sodipodi:role="line"
               x="8.6402397 13.6722"
               style="font-variant:normal;font-weight:normal;font-size:14.03999996px;line-height:1.25;font-family:Utopia;-inkscape-font-specification:Utopia-Regular;writing-mode:lr-tb;fill:#000000;fill-opacity:1;fill-rule:nonzero;stroke:#000000;stroke-width:0.40114;stroke-linecap:butt;stroke-linejoin:miter;stroke-miterlimit:10;stroke-dasharray:none;stroke-opacity:1">IN</tspan>
          </text>
        </g>
      </g>
      <g
         id="g3780">
        <g
           clip-path="url(#clipPath3784)"
           id="g3782">
          <text
             id="text3788"
             transform="matrix(1,0,0,-1,489.79,122.59)"
             style="line-height:0%">
            <tspan
               id="tspan3790"
               sodipodi:role="line"
               x="0"
               style="font-variant:normal;font-weight:normal;font-size:14.06400013px;line-height:1.25;font-family:Utopia;-inkscape-font-specification:Utopia-Regular;writing-mode:lr-tb;fill:#000000;fill-opacity:1;fill-rule:nonzero;stroke:#000000;stroke-width:0.40182999;stroke-linecap:butt;stroke-linejoin:miter;stroke-miterlimit:10;stroke-dasharray:none;stroke-opacity:1"
               y="0">C2</tspan>
          </text>
        </g>
      </g>
      <g
         id="g3792">
        <g
           clip-path="url(#clipPath3796)"
           id="g3794">
          <text
             id="text3800"
             transform="matrix(1,0,0,-1,484.63,105.77)"
             style="line-height:0%">
            <tspan
               id="tspan3802"
               sodipodi:role="line"
               style="font-variant:normal;font-weight:normal;font-size:14.03999996px;line-height:1.25;font-family:Utopia;-inkscape-font-specification:Utopia-Regular;writing-mode:lr-tb;fill:#000000;fill-opacity:1;fill-rule:nonzero;stroke:#000000;stroke-width:0.40114;stroke-linecap:butt;stroke-linejoin:miter;stroke-miterlimit:10;stroke-dasharray:none;stroke-opacity:1"
               x="0"
               y="0">OUT</tspan>
          </text>
        </g>
      </g>
      <g
         id="g3804">
        <g
           clip-path="url(#clipPath3808)"
           id="g3806">
          <text
             id="text3812"
             transform="matrix(1,0,0,-1,535.9,99.336)"
             style="line-height:0%">
            <tspan
               id="tspan3814"
               sodipodi:role="line"
               x="0"
               style="font-variant:normal;font-weight:normal;font-size:14.03999996px;line-height:1.25;font-family:Utopia;-inkscape-font-specification:Utopia-Regular;writing-mode:lr-tb;fill:#000000;fill-opacity:1;fill-rule:nonzero;stroke:#000000;stroke-width:0.40114;stroke-linecap:butt;stroke-linejoin:miter;stroke-miterlimit:10;stroke-dasharray:none;stroke-opacity:1"
               y="0">C3</tspan>
          </text>
        </g>
      </g>
      <g
         id="g3816">
        <g
           clip-path="url(#clipPath3820)"
           id="g3818">
          <text
             id="text3824"
             transform="matrix(1,0,0,-1,530.74,82.536)"
             style="line-height:0%">
            <tspan
               id="tspan3826"
               sodipodi:role="line"
               style="font-variant:normal;font-weight:normal;font-size:14.06400013px;line-height:1.25;font-family:Utopia;-inkscape-font-specification:Utopia-Regular;writing-mode:lr-tb;fill:#000000;fill-opacity:1;fill-rule:nonzero;stroke:#000000;stroke-width:0.40182999;stroke-linecap:butt;stroke-linejoin:miter;stroke-miterlimit:10;stroke-dasharray:none;stroke-opacity:1"
               x="0"
               y="0">OUT</tspan>
          </text>
        </g>
      </g>
      <g
         id="g3828">
        <g
           clip-path="url(#clipPath3832)"
           id="g3830">
          <text
             id="text3836"
             transform="matrix(1,0,0,-1,438.26,98.568)"
             style="line-height:0%">
            <tspan
               id="tspan3838"
               sodipodi:role="line"
               x="0"
               style="font-variant:normal;font-weight:normal;font-size:14.03999996px;line-height:1.25;font-family:Utopia;-inkscape-font-specification:Utopia-Regular;writing-mode:lr-tb;fill:#000000;fill-opacity:1;fill-rule:nonzero;stroke:#000000;stroke-width:0.40114;stroke-linecap:butt;stroke-linejoin:miter;stroke-miterlimit:10;stroke-dasharray:none;stroke-opacity:1"
               y="0">C1</tspan>
          </text>
        </g>
      </g>
      <g
         id="g3840">
        <g
           clip-path="url(#clipPath3844)"
           id="g3842">
          <text
             id="text3848"
             transform="matrix(1,0,0,-1,433.1,81.744)"
             style="line-height:0%">
            <tspan
               id="tspan3850"
               sodipodi:role="line"
               style="font-variant:normal;font-weight:normal;font-size:14.03999996px;line-height:1.25;font-family:Utopia;-inkscape-font-specification:Utopia-Regular;writing-mode:lr-tb;fill:#000000;fill-opacity:1;fill-rule:nonzero;stroke:#000000;stroke-width:0.40114;stroke-linecap:butt;stroke-linejoin:miter;stroke-miterlimit:10;stroke-dasharray:none;stroke-opacity:1"
               x="0"
               y="0">OUT</tspan>
          </text>
        </g>
      </g>
      <g
         id="g3852">
        <g
           clip-path="url(#clipPath3856)"
           id="g3854">
          <text
             id="text3860"
             transform="matrix(1,0,0,-1,438.19,194.16)"
             style="line-height:0%">
            <tspan
               id="tspan3862"
               sodipodi:role="line"
               x="0"
               style="font-variant:normal;font-weight:normal;font-size:14.06400013px;line-height:1.25;font-family:Utopia;-inkscape-font-specification:Utopia-Regular;writing-mode:lr-tb;fill:#000000;fill-opacity:1;fill-rule:nonzero;stroke:#000000;stroke-width:0.40182999;stroke-linecap:butt;stroke-linejoin:miter;stroke-miterlimit:10;stroke-dasharray:none;stroke-opacity:1"
               y="0">C1</tspan>
          </text>
        </g>
      </g>
      <g
         id="g3864"
         transform="translate(-4.5714286,1.1428571)">
        <g
           clip-path="url(#clipPath3868)"
           id="g3866">
          <text
             id="text3872"
             transform="matrix(1,0,0,-1,434.35,177.34)"
             style="line-height:0%">
            <tspan
               id="tspan3874"
               sodipodi:role="line"
               x="8.6402397 13.6722"
               style="font-variant:normal;font-weight:normal;font-size:14.03999996px;line-height:1.25;font-family:Utopia;-inkscape-font-specification:Utopia-Regular;writing-mode:lr-tb;fill:#000000;fill-opacity:1;fill-rule:nonzero;stroke:#000000;stroke-width:0.40114;stroke-linecap:butt;stroke-linejoin:miter;stroke-miterlimit:10;stroke-dasharray:none;stroke-opacity:1">IN</tspan>
          </text>
        </g>
      </g>
    </g>
  </g>
</svg>
