<?xml version="1.0" encoding="UTF-8" standalone="no"?>
<!-- Created with Inkscape (http://www.inkscape.org/) -->

<svg
   xmlns:dc="http://purl.org/dc/elements/1.1/"
   xmlns:cc="http://creativecommons.org/ns#"
   xmlns:rdf="http://www.w3.org/1999/02/22-rdf-syntax-ns#"
   xmlns:svg="http://www.w3.org/2000/svg"
   xmlns="http://www.w3.org/2000/svg"
   xmlns:sodipodi="http://sodipodi.sourceforge.net/DTD/sodipodi-0.dtd"
   xmlns:inkscape="http://www.inkscape.org/namespaces/inkscape"
   width="744.09448819"
   height="1052.3622047"
   id="svg2"
   version="1.1"
   inkscape:version="0.48.2 r9819"
   sodipodi:docname="New document 1">
  <defs
     id="defs4">
    <clipPath
       id="clipPath3013"
       clipPathUnits="userSpaceOnUse">
      <path
         id="path3015"
         d="m 43.36875,42.3 449.83125,0 0,270.9 -449.83125,0 0,-270.9 z" />
    </clipPath>
    <clipPath
       id="clipPath3003"
       clipPathUnits="userSpaceOnUse">
      <path
         id="path3005"
         d="m 43.36875,42.3 449.83125,0 0,270.9 -449.83125,0 0,-270.9 z" />
    </clipPath>
  </defs>
  <sodipodi:namedview
     id="base"
     pagecolor="#ffffff"
     bordercolor="#666666"
     borderopacity="1.0"
     inkscape:pageopacity="0.0"
     inkscape:pageshadow="2"
     inkscape:zoom="2.8"
     inkscape:cx="397.9299"
     inkscape:cy="608.08599"
     inkscape:document-units="px"
     inkscape:current-layer="layer1"
     showgrid="false"
     inkscape:window-width="1920"
     inkscape:window-height="1017"
     inkscape:window-x="-8"
     inkscape:window-y="-8"
     inkscape:window-maximized="1" />
  <metadata
     id="metadata7">
    <rdf:RDF>
      <cc:Work
         rdf:about="">
        <dc:format>image/svg+xml</dc:format>
        <dc:type
           rdf:resource="http://purl.org/dc/dcmitype/StillImage" />
        <dc:title></dc:title>
      </cc:Work>
    </rdf:RDF>
  </metadata>
  <g
     inkscape:label="Layer 1"
     inkscape:groupmode="layer"
     id="layer1">
    <g
       transform="matrix(1.25,0,0,-1.25,60,734.86218)"
       inkscape:label="T_air,evap"
       id="g2993">
      <path
         id="path2995"
         style="fill:#ffffff;fill-opacity:1;fill-rule:nonzero;stroke:none"
         d="M 0,0 504,0 504,324 0,324 0,0 z"
         inkscape:connector-curvature="0" />
      <path
         id="path2997"
         style="fill:#ffffff;fill-opacity:1;fill-rule:nonzero;stroke:none"
         d="m 43.36875,42.3 449.83125,0 0,270.9 -449.83125,0 0,-270.9 z"
         inkscape:connector-curvature="0" />
      <g
         id="g2999">
        <g
           clip-path="url(#clipPath3003)"
           id="g3001">
          <path
             id="path3007"
             style="fill:none;stroke:#0000ff;stroke-width:1;stroke-linecap:square;stroke-linejoin:round;stroke-miterlimit:10;stroke-opacity:1;stroke-dasharray:none"
             d="m 43.36875,234.98131 0.287249,0.61408 0.287248,9.92289 0.287249,-4.18834 0.861745,12.22349 0.287249,-0.81703 0.287249,-3.2895 0.574497,5.99541 0.287248,9.47105 0.287249,3.92926 0.287248,-0.0891 0.287249,5.71207 0.287248,2.09171 0.287249,0.82339 0.287249,2.25965 0.287248,-3.29751 0.287249,1.15026 0.287248,-1.97391 0.287249,-0.4915 0.287248,-2.6934 0.287249,0.62522 0.287249,1.3163 0.287248,0.66775 0.287249,1.97383 0.287248,-2.9293 0.287249,0.51387 0.574497,4.38269 0.287248,1.28389 0.287249,-0.12628 0.287249,-3.62422 0.287248,0.76717 0.287249,-3.18359 0.287248,0.44632 0.287249,-1.57353 0.287248,1.1181 0.574498,-0.81409 0.287248,2.48388 0.287249,-3.27401 0.287248,-4.77164 0.287249,3.48705 0.287248,-6.00595 0.287249,3.39956 0.287248,0.80271 0.287249,-1.09152 0.287249,-1.75554 0.287248,0.64888 0.574497,-2.97588 0.287249,0.96233 0.287248,-0.49241 0.287249,-1.16891 0.287249,-1.74604 0.287248,2.96207 0.574497,-3.33767 0.287249,-0.4762 0.287248,-1.63772 0.287249,3.23739 0.287248,-2.57725 0.287249,-1.23881 0.287249,1.52656 0.287248,-0.04 0.287249,-3.72456 0.287248,2.9406 0.287249,-2.51826 0.287248,4.51419 0.287249,-2.14277 0.287249,-1.14813 0.574497,2.50502 0.287248,-0.39475 0.287249,3.48469 0.287248,-2.2986 0.287249,-1.11451 0.287248,0.83839 0.287249,0.25248 0.287249,-0.0978 0.287248,2.31292 0.287249,1.1388 0.287248,-0.54982 0.287249,1.87399 0.287248,-1.17266 0.574498,0.27517 0.287248,1.76757 0.287249,-1.12859 0.287248,2.57977 0.287249,1.12049 0.287248,1.87028 0.287249,-0.69546 0.574497,3.22498 0.287249,0.38454 0.287248,-0.13429 0.287249,1.47781 0.574497,6.27808 0.287248,0.16195 0.287249,-1.94859 0.287249,0.70213 0.287248,-0.0199 0.287249,3.09741 0.287248,1.78477 0.574497,1.35061 0.287249,2.86805 0.287249,-1.06164 0.287248,1.15972 0.287249,-2.56373 0.574497,5.61302 0.287248,-2.60732 0.287249,-0.59602 0.287248,-1.40125 0.287249,-0.68717 0.287249,-2.50123 0.287248,-1.34028 0.287249,1.37296 0.287248,0.7557 0.574497,-8.04649 0.287249,2.10241 0.287249,-0.55082 0.287248,-2.42998 0.287249,-1.3432 0.287248,-2.48245 0.287249,1.67412 0.287248,-1.31746 0.287249,1.16795 0.287248,-2.2505 0.287249,-0.98446 0.574497,-2.74238 0.287249,-2.78641 0.287248,1.4311 0.287249,-0.58947 0.574497,-3.9856 0.287249,-1.24703 0.287248,1.29118 0.287249,-1.01156 0.287248,0.30054 0.287249,-2.35348 0.287248,-0.19274 0.287249,2.41323 0.861746,-4.21826 0.287248,0.76679 0.287249,-0.37609 0.287248,-0.88649 0.287249,0.51844 0.287248,-1.33194 0.287249,2.42543 0.287249,-1.95061 0.287248,1.13334 0.287249,0.40432 0.287248,-0.87587 0.287249,3.40612 0.287248,-2.30681 0.574497,-1.83727 0.574498,0.41757 0.287248,2.69135 0.287249,-5.16886 0.287248,-0.69596 0.287249,-2.024 0.287248,1.29859 0.287249,3.34976 0.287249,-0.33306 0.287248,1.01216 0.287249,-0.82516 0.287248,-2.37819 0.287249,1.13789 0.287248,0.1387 0.287249,-3.18121 0.287249,2.9418 0.287248,0.20578 0.287249,3.11096 0.574497,-4.92268 0.287248,1.41035 0.287249,0.49406 0.287248,-1.48352 0.287249,-0.19071 0.287249,1.23918 0.287248,-2.2027 0.574497,-0.42739 0.287249,-0.17378 0.287248,-0.69539 0.287249,-0.0395 0.287253,3.73207 0.28724,-1.5539 0.28725,0.36528 0.28725,0.1087 0.28725,-1.56482 0.28725,0.007 0.28725,-2.83696 0.28725,0.48539 0.28724,-0.9176 0.28725,5.52502 0.28725,-0.31272 0.28725,-1.57017 0.28725,-2.96526 0.28725,2.44113 0.28725,-2.00914 0.28724,0.57428 0.28725,2.69128 0.28725,-1.34524 0.28725,0.35214 0.28725,-2.01252 0.28725,2.13862 0.28725,-1.11095 0.57449,-1.04445 0.28725,-1.64548 0.28725,0.8247 0.28725,-2.13348 0.28725,-0.59711 0.28725,3.83481 0.28724,-0.3161 0.28725,-1.35626 0.28725,-0.0755 0.28725,1.65342 0.28725,-1.97626 0.28725,-2.91578 0.57449,6.19146 0.5745,-4.6917 0.28725,-1.09344 0.28725,3.25694 0.28725,-1.94288 0.57449,1.46565 0.5745,0.42637 0.28725,-3.57633 0.28725,2.23979 0.28725,0.96865 0.28725,0.0682 0.57449,-2.23459 0.28725,-0.48907 0.28725,2.15473 0.28725,-5.06619 0.28725,-1.12199 0.57449,4.79344 0.28725,-3.22573 0.28725,0.28434 0.5745,3.62524 0.28725,-2.64631 0.28725,-1.21081 0.57449,-0.79315 0.28725,0.54424 0.28725,3.88897 0.28725,-2.05357 0.28725,2.1259 0.28724,-2.44023 0.28725,1.06551 0.28725,1.51569 0.28725,-3.41922 0.5745,0.74293 0.28725,1.97941 0.28724,-4.35023 0.28725,-2.43494 0.28725,0.0764 0.28725,6.53021 0.28725,-4.93638 0.28725,2.28941 0.57449,1.10288 0.28725,-0.31925 0.28725,-2.62076 0.28725,0.89751 0.28725,2.31204 0.28725,-1.6534 0.28725,-3.05008 0.28724,1.9026 0.28725,-1.04069 0.28725,2.94505 0.28725,-0.35491 0.28725,0.16426 0.28725,-0.78263 0.28725,2.98061 0.28724,-3.35231 0.28725,6.49047 1.149,-8.8755 0.57449,1.63817 0.5745,-0.65854 0.28725,2.19945 0.28725,-0.0359 0.28725,-0.77467 0.28725,1.69541 0.28724,-0.91904 0.28725,-2.89267 0.5745,0.81557 0.28725,1.41214 0.28725,-1.89906 0.28725,0.9476 0.28724,2.02116 0.28725,-2.92879 0.28725,2.13367 0.28725,-0.23669 0.28725,1.87809 0.28725,-0.0537 0.28725,-3.43677 0.28724,1.41164 0.28725,0.41856 0.28725,0.11353 0.28725,-1.14866 0.28725,-2.233 0.28725,1.47894 0.28725,0.6418 0.28724,-1.09638 0.5745,1.81994 0.28725,-1.85999 0.28725,3.74894 0.28725,-2.15902 0.28725,0.1296 0.57449,-0.98066 0.28725,1.37324 0.28725,-0.17095 0.28725,-0.60455 0.28725,1.20116 0.28725,1.75151 0.28724,0.58602 0.28725,-1.42013 0.28725,-0.37558 0.28725,4.04123 0.28725,-2.44133 0.28725,0.0733 0.57449,-2.12546 0.28725,2.29994 0.28725,-2.71514 0.28725,2.69376 0.28725,0.41284 0.28725,-2.44258 0.28725,-1.31636 0.28724,1.28153 0.28725,-0.2605 0.28725,-1.35224 0.28725,1.30397 0.28725,-0.29457 0.28725,2.59186 0.28725,-2.25908 0.28724,0.24735 0.28725,1.18508 0.28725,-2.65478 0.5745,0.0768 0.28725,3.21882 0.28725,-1.13592 0.28724,1.00694 0.28725,-0.0605 0.28725,0.87839 0.28725,-1.54748 0.28725,-2.34864 0.5745,0.99717 0.28724,3.45012 0.28725,2.01014 0.28725,-3.13631 0.28725,0.28415 0.28725,0.84419 0.28725,1.93752 0.28725,-1.70203 0.57449,-0.15725 0.28725,-1.08384 0.28725,-0.25027 0.28725,0.63905 0.28725,1.3607 0.28725,-2.54991 0.28724,-0.25418 0.28725,0.35396 0.28725,1.75296 0.28725,-1.3934 0.28725,2.2128 0.28725,0.4703 0.28725,-2.51718 0.28724,3.08751 0.28725,-3.38465 0.28725,2.56239 0.28725,0.63061 0.28725,-1.95453 0.28725,-0.83467 0.28725,3.6084 0.28724,-1.55891 0.28725,1.91435 0.28725,0.21087 0.28725,-0.94851 0.28725,1.71603 0.28725,-3.6889 0.28725,-2.11968 0.57449,5.73554 0.28725,-3.23056 0.28725,1.05679 0.28725,-3.22164 0.5745,-1.67628 0.28724,6.4056 0.5745,-2.8579 0.28725,4.51572 0.28725,-3.69542 0.28725,-1.58604 0.28725,2.42441 0.28724,-0.51472 0.28725,0.44671 0.28725,-0.27196 0.28725,2.34824 0.28725,-2.93535 0.28725,-0.7052 0.57449,2.95097 0.28725,-1.95898 0.28725,1.74643 0.28725,-0.45418 0.28725,-0.1032 0.57449,-3.52372 0.28725,1.80303 0.28725,3.12703 0.28725,-2.89378 0.28725,1.09043 0.28725,-1.54762 0.28725,0.37497 0.28724,-2.09202 0.28725,1.13218 0.28725,2.78521 0.28725,1.35466 0.28725,-2.04135 0.28725,1.96296 0.28725,-2.63596 0.28724,3.21203 0.28725,-3.17067 0.28725,3.06005 0.28725,-2.94202 0.28725,-0.24794 0.28725,1.74713 0.28725,-3.07028 0.57449,6.68812 0.5745,-4.24789 0.28725,2.19113 0.28725,-1.43875 0.28725,-0.0137 0.28724,-1.51913 0.28725,0.0132 0.28725,0.67934 0.28725,0.36145 0.28725,-0.0161 0.28725,-0.295 0.28725,2.1677 0.28724,-0.0819 0.28725,-1.05256 0.5745,-4.15079 0.28725,-0.46793 0.28725,2.41347 0.28725,0.0426 0.28724,-2.41275 0.28725,4.59831 0.28725,-0.24892 0.28725,-0.78204 0.28725,0.17545 0.28725,-0.5343 0.28725,-0.11287 0.28724,-1.01185 0.28725,-0.007 0.28725,-1.29823 0.28725,1.09796 0.28725,0.56006 0.28725,0.22598 0.28725,1.86106 0.28724,-1.25089 0.28725,0.39581 0.5745,-0.27274 0.28725,-0.70331 0.28725,-1.0352 0.28725,0.14714 0.28724,0.7849 0.28725,1.25142 0.28725,-1.08713 0.28725,0.25504 0.5745,0.92416 0.28725,-2.70419 0.28724,1.30519 0.28725,-0.53708 0.28725,4.34974 0.28725,-2.129 0.28725,2.01129 0.28725,-0.45312 0.28725,0.78547 0.57449,-3.03323 0.28725,-1.12055 0.28725,0.11779 0.28725,1.21946 0.28725,0.14593 0.28725,2.74563 0.28724,-2.05984 0.28725,-0.0821 0.28725,0.85407 0.28725,4.52863 0.5745,-8.063 0.28725,1.69662 0.28724,-0.23251 0.28725,0.68547 0.28725,1.74883 0.28725,-2.58421 0.28725,0.16644 0.28725,-0.5185 0.28725,2.06158 0.28724,-0.78719 0.5745,3.70237 0.28725,0.50365 0.5745,-3.23255 0.28725,1.82832 0.28724,-0.67729 0.28725,-1.58763 0.28725,-0.0194 0.28725,-1.0414 0.28725,2.06544 0.28725,-0.32825 0.28725,-0.106 0.28724,-0.98372 0.28725,1.84748 0.28725,-2.85232 0.28725,0.41858 0.28725,2.8627 0.28725,-0.82497 0.28725,1.03643 0.28724,-1.24165 0.28725,-2.02044 0.5745,3.08163 0.28725,-0.72012 0.28725,-2.09047 0.28725,1.57426 0.28724,-2.11802 0.28725,0.94483 0.28725,1.423 0.28725,2.01137 0.28725,-3.63704 0.28725,1.92477 0.28725,-0.19048 0.28724,-2.48066 0.28725,-1.4673 0.28725,0.98755 0.28725,1.53028 0.28725,0.31432 0.28725,-0.0724 0.57449,-2.02487 0.28725,0.31433 0.28725,1.67577 0.28725,0.11932 0.28725,4.80177 0.28725,-4.53902 0.57449,0.3362 0.28725,-2.211 0.28725,2.36913 0.28725,-0.84214 0.28725,-0.26438 0.28725,0.85172 0.28725,1.77991 0.28724,0.67927 0.28725,-2.79052 0.28725,1.64654 0.28725,-0.007 0.28725,-1.76311 0.28725,0.62974 0.57449,-0.76357 0.28725,1.51977 0.28725,0.84477 0.28725,-0.50738 0.28725,0.28493 0.28725,-0.32098 0.57449,-1.97557 0.28725,1.61133 0.28725,2.33543 0.28725,-3.09641 0.28725,1.55559 0.28725,-1.93134 0.57449,1.09634 0.5745,-2.49163 0.28725,0.0109 0.28725,0.84874 0.28725,0.002 0.28724,2.32981 0.5745,-2.30964 0.28725,0.74757 0.28725,0.064 0.28725,1.26451 0.28725,-0.46646 0.28724,0.57746 0.28725,-2.28129 0.28725,-0.2427 0.28725,4.22714 0.28725,-3.54333 0.28725,0.71811 0.28725,-0.25544 0.28724,0.84698 0.28725,-1.57196 0.28725,-0.87296 0.5745,3.67296 0.28725,-0.0477 0.28725,1.60888 0.57449,-2.70964 0.28725,-0.295 0.28725,0.7315 0.28725,1.64101 0.28725,-2.2301 0.28725,-0.75635 0.28724,2.77802 0.28725,-0.54774 0.28725,1.2365 0.28725,0.20055 0.28725,-2.01868 0.5745,-1.95129 0.28724,0.19712 0.28725,-0.076 0.28725,2.2052 0.28725,-1.38297 0.28725,0.23426 0.28725,-0.62613 0.28725,-0.31972 0.28724,2.91215 0.28725,0.77689 0.5745,-1.34301 0.28725,-0.34487 0.28725,-0.0189 0.28725,2.06033 0.28724,0.42527 0.28725,-1.08525 0.28725,-3.31274 0.28725,2.69147 0.28725,-1.01782 0.28725,-0.34792 0.57449,1.65586 0.28725,1.44468 0.28725,-0.0142 0.28725,-1.90699 0.28725,3.0234 0.5745,-4.84306 0.28724,1.83462 0.28725,-1.58439 0.28725,5.7662 0.28725,-3.01704 0.28725,-0.9647 0.28725,1.1729 0.28725,0.28349 0.28724,-3.05064 0.28725,1.70231 0.28725,3.36492 0.28725,-2.768 0.28725,-1.17827 0.28725,0.7856 0.28725,-0.30012 0.28724,0.67369 0.28725,-0.76077 0.28725,-3.04339 0.28725,2.02788 0.28725,-2.03009 0.28725,3.48962 0.28725,-1.4237 0.28724,1.20885 0.28725,-0.88881 0.28725,1.66976 0.28725,-2.50463 0.28725,1.64923 0.28725,2.34802 0.28725,-4.23057 0.28724,2.99595 0.28725,-1.05069 0.28725,-1.51701 0.28725,2.23364 0.28725,1.23905 0.28725,-1.27615 0.28725,0.91969 0.28724,-1.00378 0.28725,0.31944 0.28725,0.71918 0.28725,0.0221 0.28725,0.8211 0.28725,-0.0935 0.28725,-1.99998 0.28724,0.99584 0.28725,0.59032 0.28725,-0.7673 0.28725,0.008 0.28725,-0.52635 0.28725,0.77454 0.57449,-0.80843 0.28725,4.11949 0.28725,-0.55639 0.28725,-0.0506 0.5745,-2.71757 0.28725,1.01736 0.28724,-2.8444 0.28725,2.2671 0.28725,0.85824 0.28725,-1.66782 0.28725,0.81515 0.28725,-4.00858 0.28725,0.66755 0.28724,-0.65959 0.28725,3.03285 0.28725,1.00734 0.28725,-0.22579 0.5745,-1.76815 0.28725,4.75703 0.28724,-2.47176 0.28725,0.0796 0.28725,1.79664 0.28725,-3.3173 0.28725,0.34902 0.28725,-0.38332 0.28725,-0.97903 0.28724,2.91832 0.28725,-0.72456 0.28725,-1.54398 0.28725,3.23778 0.28725,-2.15905 0.28725,1.32369 0.57449,-0.99388 0.28725,-1.24361 0.28725,1.25484 0.28725,-0.28441 0.28725,-1.17819 0.28725,2.12509 0.28725,-1.4964 0.28724,1.70797 0.28725,-0.61261 0.28725,2.25072 0.28725,-3.00628 0.28725,0.67887 0.28725,0.37906 0.28724,1.50754 0.28725,-2.05151 0.28725,0.93928 0.28725,-0.42907 0.28725,1.993 0.28725,-0.91743 0.28725,-0.40849 0.28724,0.83023 0.28725,0.12757 0.28725,0.29462 0.28725,-0.7543 0.28725,1.40066 0.5745,-2.35054 0.28724,1.07562 0.28725,-0.15018 0.28725,-0.90711 0.28725,1.9579 0.28725,-2.75324 0.28725,3.56329 0.28725,-2.79977 0.28724,2.14333 0.28725,-0.94284 0.28725,0.0186 0.28725,2.45761 0.28725,-2.5038 0.28725,-0.63528 0.57449,3.14796 0.28725,-0.90651 0.28725,-2.10414 0.28725,1.72393 0.28725,-0.15108 0.5745,-2.12642 0.28724,1.33786 0.28725,2.22353 0.28725,-0.28024 0.28725,-1.70405 0.28725,-0.10262 0.28725,1.0491 0.28725,-4.21333 0.28724,1.61072 0.28725,-0.69193 0.28725,1.97194 0.28725,1.16953 0.28725,-0.0396 0.28725,-0.56207 0.28725,1.42552 0.28724,-1.54598 0.5745,0.10736 0.28725,-2.58949 0.28725,2.71356 0.28725,-0.97147 0.28725,-1.86377 0.28724,2.16127 0.28725,0.38432 0.28725,-1.53716 0.28725,0.99909 0.28725,3.70992 0.28725,-0.39393 0.28725,-0.0593 0.28724,-2.06441 0.28725,-0.27058 0.28725,3.37947 0.28725,-0.76268 0.28725,1.19758 0.28725,-0.58907 0.28725,-2.58266 0.28724,0.47239 0.5745,3.46933 0.28725,-1.16305 0.28725,-0.24507 0.28725,-0.61587 0.28725,-1.59307 0.28724,2.02065 0.28725,-2.74042 0.28725,0.63362 0.28725,2.76995 0.28725,-2.42087 0.28725,0.65772 0.28725,-1.5306 0.28724,2.29165 0.86175,-2.2356 0.28725,0.79971 0.28725,-0.81129 0.57449,2.21842 0.28725,-1.4199 0.28725,-0.0659 0.28725,0.065 0.28725,2.68447 0.28725,-2.60101 0.57449,2.04735 0.28725,-4.48263 0.28725,-0.56884 0.28725,1.28497 0.28725,-0.01 0.28725,0.97954 0.28725,-0.003 0.28724,1.50116 0.28725,-0.72165 0.28725,2.72 0.28725,0.30736 0.28725,0.50341 0.28725,-3.18068 0.28725,-1.65819 0.28724,3.10101 0.28725,-2.47966 0.28725,0.25742 0.28725,1.36641 0.28725,-0.13423 0.28725,1.32904 0.28725,-0.0112 0.28724,1.59686 0.28725,-2.68148 0.28725,-0.28564 0.28725,-1.96195 0.28725,-0.6148 0.28725,0.69148 0.28725,0.32735 0.28724,0.64599 0.28725,1.36476 0.28725,-0.34004 0.28725,0.0199 0.28725,-3.28323 0.28725,2.04242 0.28725,-0.49959 0.28724,2.09723 0.5745,-2.40082 0.28725,2.70713 0.28725,-1.9555 0.28725,-0.94577 0.28725,0.6509 0.28724,3.52215 0.28725,-2.03402 0.28725,-0.0274 0.28725,-2.32625 0.28725,4.04788 0.28725,-1.41999 0.28725,2.69892 0.28724,-2.42919 0.28725,1.80615 0.28725,3.14874 0.28725,-1.47062 0.28725,0.0102 0.28725,-0.14042 0.28725,-3.02101 0.28724,1.55259 0.28725,4.56302 0.28725,-3.76809 0.28725,1.81455 0.28725,-2.98827 0.28725,-1.10628 0.28725,2.88426 0.28724,-2.83437 0.28725,6.4769 0.28725,-4.56193 0.28725,-0.6369 0.28725,-0.16093 0.28725,-0.73353 0.28725,4.48314 0.28724,-1.08042 0.28725,0.0486 0.28725,-1.96352 0.28725,-0.0357 0.28725,2.80584 0.28725,-0.55084 0.28724,0.26454 0.28725,-2.36882 0.5745,1.47833 0.5745,-1.41152 0.28725,0.51409 0.57449,-1.03052 0.28725,-0.91374 0.28725,1.72136 0.28725,0.22629 0.28725,1.07957 0.28725,2.1787 0.28724,-2.32626 0.28725,0.37188 0.28725,1.73261 0.28725,-3.9883 0.28725,-0.14722 0.28725,2.16609 0.28725,-1.49532 0.28724,0.0857 0.28725,2.54308 0.28725,0.33189 0.28725,-0.17968 0.28725,0.6109 0.28725,-0.42412 0.28725,-1.41065 0.86174,3.38944 0.5745,-4.4868 0.28725,2.84077 0.28725,1.33215 0.28724,0.41412 0.28725,-0.42329 0.86175,-3.07576 0.28725,2.20185 0.28725,-0.0293 0.28724,-1.99303 0.28725,2.39538 0.28725,1.3796 0.28725,-1.47978 0.28725,-2.47515 0.28725,1.01865 0.28725,-0.8071 0.28724,0.79148 0.28725,0.13991 0.28725,-2.32317 0.28725,1.61063 0.28725,2.99619 0.5745,-3.03355 0.28724,0.70782 0.28725,-0.91405 0.28725,2.19291 0.28725,-1.17237 0.28725,4.18256 0.28725,-2.4013 0.28725,-1.31355 0.28724,2.48681 0.28725,-0.19727 0.86175,-2.25665 0.28725,1.23549 0.28725,-4.2457 0.28724,1.91932 0.28725,-0.2442 0.28725,0.77785 0.28725,1.12596 0.28725,-2.53 0.5745,4.39188 0.28724,-0.9976 0.28725,-3.02745 0.28725,0.68955 0.28725,-1.03025 0.28725,1.82529 0.28725,-1.02136 0.28725,0.53912 0.28724,1.0797 0.28725,-0.31504 0.28725,0.0845 0.28725,0.91867 0.28725,-1.05435 0.28725,1.34404 0.28725,0.68179 0.28724,-1.82031 0.28725,-1.02622 0.28725,1.74596 0.28725,0.6855 0.28725,0.35443 0.28725,-1.10765 0.28725,3.46921 0.28724,-4.14763 0.28725,-0.62647 0.28725,2.71152 0.28725,-3.60603 0.5745,1.31451 0.28725,-0.46316 0.28724,-1.45351 0.28725,1.08354 0.28725,-1.03885 0.28725,3.45897 0.5745,3.3058 0.28725,-0.18097 0.28724,-1.33753 0.28725,-0.2501 0.28725,-2.15292 0.28725,2.30275 0.28725,-1.26154 0.28725,-0.0414 0.57449,-4.09309 0.28725,-0.21647 0.28725,0.77409 0.28725,2.17018 0.28725,-3.1774 0.5745,5.20527 0.28724,-1.50385 0.28725,-3.11034 0.28725,0.52031 0.28725,2.89582 0.28725,-3.27827 0.28725,-0.2906 0.28725,1.39136 0.28724,-0.84044 0.28725,-2.5191 0.28725,4.38334 0.28725,-1.29292 0.5745,0.69132 0.28725,-0.91817 0.28724,-1.36731 0.28725,1.09163 0.28725,1.76807 0.28725,-2.67042 0.28725,3.56296 0.28725,0.22568 0.28725,-3.12384 0.28724,1.73854 0.28725,0.41914 0.28725,-3.27599 0.28725,1.8499 0.28725,-0.71525 0.28725,2.17545 0.28725,-0.86796 0.28724,-2.71659 0.5745,2.66166 0.28725,-0.88326 0.28725,0.19866 0.28725,-1.01083 0.28725,-0.58232 0.28724,0.41134 0.28725,1.67389 0.28725,-0.26849 0.28725,1.17861 0.28725,0.59362 0.28725,-1.9407 0.28725,0.46159 0.28724,0.10216 0.28725,-2.68837 0.28725,2.35641 0.28725,-1.78745 0.28725,0.0253 0.28725,3.44207 0.28724,-0.84622 0.28725,-4.60362 0.5745,3.15057 0.5745,1.997 0.28725,-2.13141 0.28724,1.29547 0.28725,-3.72616 0.28725,0.13946 0.28725,2.22117 0.28725,-1.88907 0.28725,2.67388 0.28725,0.68843 0.28724,-1.78914 0.28725,0.67883 0.28725,-3.28964 0.28725,1.30873 0.28725,1.97853 0.5745,-1.53169 0.28724,-0.8106 0.28725,1.51651 0.28725,-0.31807 0.28725,-1.3347 0.28725,1.56659 0.28725,0.54789 0.28725,1.6785 0.28724,-0.94255 0.28725,-1.57934 0.28725,-0.60799 0.28725,3.98167 0.5745,-3.94834 0.28725,2.06584 0.28724,-0.55451 0.28725,0.6906 0.28725,-0.9941 0.28725,0.42861 0.28725,-0.56257 0.28725,2.52935 0.28725,-3.00674 0.28724,2.25038 0.28725,-2.97544 0.28725,2.274 0.28725,0.51903 0.28725,-1.95576 0.28725,1.00796 0.28725,-0.68607 0.28724,-0.17259 0.28725,0.21383 0.28725,2.17717 0.28725,-1.09185 0.28725,-3.3429 0.28725,5.18706 0.57449,-1.95452 0.28725,-1.7611 0.28725,0.018 0.28725,0.6588 0.28725,3.66807 0.28725,-3.96888 0.28725,-0.83188 0.28724,0.85046 0.28725,-1.74642 0.5745,1.00013 0.28725,-2.00313 0.28725,1.26393 0.57449,-2.62142 0.28725,-0.55933 0.5745,6.07081 0.28725,0.71214 0.28725,-5.74566 0.28725,6.6001 0.28724,-6.32692 0.28725,0.11385 0.28725,5.1463 0.5745,-0.72004 0.28725,-3.15333 0.28725,-5.70863 0.28724,5.28303 0.28725,-0.99783 0.28725,3.62782 0.28725,-0.95469 0.28725,-2.26747 0.28725,-3.31792 0.28725,6.49018 0.28724,-1.8217 0.28725,-0.45121 0.28725,-0.75909 0.5745,2.07859 0.28725,4.64774 0.28725,-3.48018 0.28724,3.124 0.28725,-1.10522 0.28725,-2.60325 0.28725,-5.41765 0.28725,7.93411 0.28725,-6.61557 0.28725,3.30934 0.28724,5.88971 0.28725,-6.93032 0.28725,0.25507 0.28725,-0.16649 0.28725,4.64632 0.28725,1.64621 0.28725,-4.38473 0.28724,-2.53115 0.5745,0.97196 0.28725,-0.39001 0.28725,2.38705 0.5745,-3.88402 0.57449,-2.46438 0.28725,4.44288 0.28725,-3.82089 0.28725,1.70876 0.28725,0.63122 0.28725,2.15221 0.28724,-2.26252 0.5745,3.66529 0.28725,-8.36215 0.28725,7.01967 0.28725,1.00995 0.57449,-2.86701 0.28725,1.03494 0.28725,0.48933 0.28725,-1.6715 0.28725,6.52254 0.28725,-4.46286 0.28725,5.04308 0.28724,-7.97012 0.28725,4.13796 0.28725,-0.085 0.28725,-3.70903 0.5745,3.60849 0.28725,-4.88328 0.28724,-2.95033 0.28725,5.79813 0.28725,-4.31303 0.28725,1.28931 0.28725,4.97419 0.28725,-3.05879 0.28725,1.63662 0.57449,0.50548 0.28725,-3.03164 0.28725,0.64713 0.28725,-0.55766 0.28725,2.05759 0.28725,0.57373 0.28724,-1.12642 0.28725,-1.76405 0.28725,3.89567 0.28725,1.18748 0.28725,2.84663 0.28725,-5.26991 0.28725,1.63305 0.28724,-6.08243 0.28725,-2.84522 0.28725,5.7078 0.28725,-0.65209 0.28725,-2.73625 0.28725,1.11565 0.28724,2.64828 0.28725,-0.67162 0.28725,0.18242 0.28725,-0.21581 0.28725,-7.69476 0.28725,7.96045 0.28725,4.71674 0.28724,-2.45623 0.28725,-6.6863 0.28725,2.77605 0.28725,-2.8643 0.28725,4.96673 0.28725,-1.06187 0.57449,-2.93026 0.5745,-7.28237 0.28725,1.33145 0.28725,8.98303 0.28725,1.06543 0.28725,-3.22786 0.28724,1.05881 0.28725,-0.28085 0.5745,-2.74902 0.28725,6.91862 0.28725,-8.47219 0.28725,-0.55368 0.28724,-0.24228 0.28725,-3.73035 0.28725,6.95849 0.28725,-1.25701 0.28725,-3.56981 0.28725,0.98772 0.28725,-2.16375 0.28724,4.10891 0.28725,-7.79241 0.28725,9.1822 0.28725,-6.40907 0.28725,2.97684 0.28725,-0.57038 0.28725,-1.46166 0.28724,5.8834 0.28725,-0.27923 0.28725,-3.10706 0.28725,1.19552 0.5745,-1.93828 0.28725,-4.71464 0.28724,2.6074 0.5745,-2.63567 0.28725,2.3432 0.5745,-9.0591 0.28725,3.3662 0.28724,0.19532 0.28725,-4.99059 0.5745,6.1283 0.28725,-4.55105 0.5745,2.41694 0.28724,0.22068 0.28725,-2.52429 0.28725,-1.38939 0.28725,2.17486 0.28725,-2.75423 0.28725,3.95125 0.28725,-5.40272 0.28724,3.14737 0.28725,0.49019 0.28725,-5.07706 0.5745,8.98358 0.28725,-3.6524 0.28725,3.58366 0.28724,-6.50367 0.28725,-0.20778 0.5745,-3.83522 0.28725,-0.0519 0.28725,-3.52195 0.28725,2.23091 0.28724,-1.14198 0.28725,1.04418 0.28725,1.93826 0.28725,-5.38354 0.28725,4.20283 0.28725,0.73021 0.28725,-3.64803 0.28724,-1.11909 0.28725,-1.88382 0.28725,0.9416 0.28725,-1.45355 0.28725,-0.73227 0.28725,3.80434 0.28725,0.39811 0.28724,-4.39263 0.28725,2.1393 0.28725,3.8349 0.28725,-3.69484 0.28725,-6.26796 0.28725,3.57348 0.28725,-1.02953 0.28724,2.17705 0.28725,-0.80583 0.28725,-0.34435 0.28725,-0.13316 0.28725,-1.52292 0.5745,3.80661 0.28724,-1.9724 0.28725,-3.26903 0.28725,2.73767 0.28725,-6.65597 0.28725,1.81505 0.28725,-0.0272 0.28725,3.6735 0.28724,0.79302 0.28725,2.11324 0.28725,-3.06299 0.28725,2.82273 0.28725,-1.72166 0.28725,-2.67691 0.28725,2.1832 0.28724,-0.7264 0.28725,-2.40815 0.28725,-0.8596 0.28725,-0.0456 0.28725,-3.83222 0.28725,0.80884 0.57449,-0.21623 0.28725,-2.93966 0.28725,5.43687 0.28725,-1.28715 0.28725,0.74638 0.5745,11.05109 0.28724,1.38636 0.28725,-3.73519 0.28725,7.57084 0.28725,1.29927 0.5745,4.88677 0.28725,0.97664 0.28724,3.59121 0.28725,8.1453 0.28725,-4.45402 0.28725,10.61317 0.28725,1.01095 0.28725,5.89066 0.28725,0.91471 0.28724,-3.4081 0.28725,5.4869 0.28725,-1.32762 0.28725,-2.86353 0.28725,2.41459 0.5745,2.32621 0.28724,1.9342 0.5745,1.33856 0.28725,-0.30197 0.28725,0.42092 0.28725,2.33132 0.28725,-1.1134 0.28724,1.9554 0.28725,-0.45244 0.28725,-1.6095 0.28725,-0.5895 0.28725,-0.1191 0.86174,3.07955 0.5745,-4.39449 0.28725,0.93312 0.5745,-0.37813 0.28724,-0.41108 0.28725,-1.74882 0.5745,1.47899 0.28725,-0.70237 0.28725,-4.12878 0.28725,3.39543 0.57449,-3.85296 0.28725,1.29874 0.28725,-1.68661 0.28725,-0.823 0.28725,0.40087 0.28725,-2.71579 0.28724,-0.0806 0.28725,-2.58682 0.28725,-0.12483 0.28725,0.1674 0.28725,-2.11577 0.28725,-0.86831 0.28725,2.39831 0.28724,0.13034 0.28725,-1.93337 0.28725,-0.98052 0.28725,-1.76992 0.28725,1.07922 0.28725,0.59145 0.28725,1.28505 0.28724,-1.5602 0.28725,0.58647 0.5745,-1.02925 0.28725,0.60195 0.28725,-0.62657 0.28725,4.34764 0.57449,-1.83109 0.28725,0.20956 0.28725,-2.68516 0.5745,2.69562 0.28725,0.23096 0.28724,-0.11613 0.5745,4.81519 0.5745,-3.44593 0.28725,1.93151 0.28725,-0.36972 0.28724,0.12137 0.28725,0.97494 0.28725,-0.12461 0.28725,1.12245 0.28725,0.0663 0.28725,1.78016 0.28725,-0.66367 0.28724,0.58567 0.28725,0.10314 0.28725,2.82346 0.5745,2.22881 0.28725,0.051 0.28725,0.76237 0.28724,1.30829 0.28725,2.48333 0.28725,-0.12446 0.28725,1.00658 0.28725,4.7637 0.28725,1.25168 0.57449,-1.03884 0.28725,3.19333 0.28725,-1.02863 0.86175,9.66823 0.28725,-1.53686 0.28724,-2.4868 0.28725,1.90486 0.28725,-1.25235 0.28725,0.26359 0,0"
             inkscape:connector-curvature="0" />
        </g>
      </g>
      <g
         id="g3009">
        <g
           clip-path="url(#clipPath3013)"
           id="g3011">
          <path
             id="path3017"
             style="fill:none;stroke:#008000;stroke-width:1;stroke-linecap:square;stroke-linejoin:round;stroke-miterlimit:10;stroke-opacity:1;stroke-dasharray:none"
             d="m 43.36875,83.044257 0.287249,-11.244562 0.287248,14.828671 0.287249,-5.405285 0.287248,1.357029 0.287249,2.455533 0.287248,-21.171647 0.287249,12.001908 0.287249,-10.293613 0.287248,4.579869 0.287249,2.265661 0.287248,15.211537 0.287249,-6.2919 0.287248,13.764231 0.287249,-4.071046 0.574497,6.267718 0.861746,10.380699 0.574497,5.41525 1.148994,7.22276 0.574497,2.95451 3.159734,11.5052 1.723492,5.01479 0.861745,2.11765 0.287249,0.46665 2.297989,6.10988 0.574497,1.43505 0.287248,0.59574 0.861746,2.59877 0.574497,1.00211 1.148994,3.36474 0.287249,0.57938 0.574497,1.83408 0.287249,0.57659 1.723491,5.10622 1.723491,6.78187 0.861746,3.49063 1.723491,9.4512 0.861746,5.4836 1.436243,10.65871 2.585237,24.38114 0.287249,-0.79948 0.574497,-2.95503 0.287248,-0.86732 0.287249,0.0121 0.287248,-0.25075 0.287249,-1.21426 0.861746,-9.52008 0.861745,-7.11952 1.148995,-18.10951 0.861745,-9.52944 0.861746,-7.21417 1.148994,-7.37221 1.723492,-7.60169 0.861745,-4.06953 0.861746,-3.28926 0.861746,-2.56137 1.436242,-1.76366 0.574498,0.13589 0.287248,-0.32287 0.287249,0.10583 0.574497,-0.19093 2.297988,-2.10116 0.287249,-0.7481 0.287248,-0.17337 0.574498,-1.06474 0.287248,-0.29595 0.574497,-1.05143 0.287249,-0.17876 0.574497,0.11263 0.287249,-0.4053 0.574497,0.53738 0.574497,-0.11087 0.574497,-0.67853 0.287248,-0.48928 0.574498,-0.4216 0.287248,-0.52255 0.287249,-0.0738 0.287248,-0.19725 0.287249,-0.47088 1.72349,-1.55204 1.149,-1.29811 0.28724,-0.14834 1.7235,-1.69347 0.28724,0.0221 0.28725,-0.39054 0.28725,-0.0429 0.28725,-0.33205 0.28725,0.0606 0.28725,-0.1744 0.57449,-0.58606 0.28725,0.1158 0.5745,-0.68808 0.5745,-0.0771 0.57449,-0.50102 0.28725,-0.0137 1.43625,-1.26874 0.57449,-0.25939 0.28725,-0.35488 0.5745,-0.19789 0.28725,-0.56821 0.57449,-0.28729 1.43625,-1.07989 0.57449,-0.56234 0.28725,-0.0681 0.28725,-0.45422 0.5745,-0.0296 0.28725,-0.41974 0.28725,0.12105 0.86174,-0.84517 0.28725,0.002 0.28725,0.12113 0.28725,-0.43783 0.28725,0.2386 0.28724,-0.21355 0.28725,0.24729 0.28725,-0.40255 0.28725,0.0313 1.43624,-0.62409 0.28725,0.30524 0.28725,0.0432 0.28725,-0.35981 0.28725,0.0539 1.14899,-0.38076 0.28725,-0.14802 0.86174,0.25473 0.28725,-0.36833 0.28725,0.18656 0.28725,-0.14182 0.28725,0.0884 0.28725,0.31019 0.28725,-0.29712 0.28724,0.1454 0.28725,-0.14247 0.28725,0.0821 0.28725,-0.30474 1.72349,0.78591 0.28725,-0.15097 0.28725,0.24183 0.28725,-0.32208 0.57449,0.57046 0.28725,-0.1933 0.28725,-0.0512 0.28725,0.0945 0.28725,-0.0578 0.28725,0.1962 0.28725,-0.25594 0.28724,0.49034 0.28725,-0.19897 0.28725,-0.0374 0.28725,0.16221 0.28725,-0.0883 0.5745,0.31846 0.57449,-0.0192 0.5745,-0.0217 0.28725,0.12164 0.28725,-0.0618 1.43624,0.30818 0.5745,-0.38808 0.28725,0.58825 0.28724,-0.48736 0.5745,0.52162 0.5745,-0.0699 0.28725,0.25771 0.57449,-0.12643 0.5745,0.23773 0.5745,0.16413 0.28725,0.1443 0.28725,-0.0944 0.86174,0.30442 0.28725,-0.12841 0.28725,0.0245 0.28725,0.36885 0.28725,-0.11187 0.28724,0.12962 0.28725,-0.29119 0.5745,0.26159 0.5745,0.0871 0.28725,-0.1497 0.28724,0.0741 0.28725,0.19558 0.28725,-0.23364 0.5745,0.0151 0.28725,0.10931 0.28725,-0.087 0.28724,0.39574 0.28725,-0.24449 0.5745,0.22469 0.28725,-0.177 0.28725,0.10081 0.28725,0.22503 0.28724,0.0621 0.5745,-0.0614 0.28725,0.19233 0.28725,0.008 0.28725,0.20344 0.28725,-0.28955 0.57449,0.23669 0.5745,-0.17169 0.28725,0.26361 0.5745,0.11075 0.28724,0.33335 0.86175,0.36883 0.28725,-0.2109 0.28725,0.0316 0.28725,0.25177 0.28724,-0.12942 1.149,0.25177 0.28725,0.093 0.86174,-0.0474 2.29799,0.47725 0.28725,-0.14941 0.28725,0.14752 0.28725,-0.0653 0.86174,0.21506 0.86175,-0.34735 0.86174,0.36903 0.28725,-0.24487 0.5745,0.11367 0.28725,-0.0588 0.28725,0.31503 0.28725,-0.24457 0.28724,0.29206 0.28725,-0.0162 0.28725,-0.22441 0.28725,0.17618 0.5745,0.0377 0.28724,0.27684 0.28725,0.0176 0.28725,-0.10619 0.28725,0.0477 0.28725,-0.25056 0.28725,0.34419 0.28725,-0.23747 0.28724,0.0368 0.5745,-0.0978 0.28725,-0.0101 0.28725,0.27976 0.28725,-0.0914 0.28725,0.1017 0.57449,0.0157 0.5745,0.29981 0.28725,-0.14172 0.5745,0.11661 0.86174,0.1769 0.28725,-0.22571 0.28725,0.10795 0.28725,-0.0441 0.57449,0.39526 0.28725,-0.42828 0.86175,0.3524 0.28725,-0.12381 0.28725,0.34651 0.28724,-0.1424 0.28725,0.17748 0.28725,-0.18584 0.28725,0.26446 0.28725,0.0153 0.28725,-0.17137 0.28725,0.1147 0.28724,-0.10889 0.28725,0.23086 0.28725,0.0269 0.28725,-0.10771 0.28725,0.19315 1.14899,-0.0152 0.28725,-0.21857 0.28725,-0.0784 0.28725,0.1498 0.28725,-0.13522 0.28725,0.029 0.28724,0.25151 0.86175,-0.22937 0.28725,0.0135 0.28725,0.2335 0.28725,0.0101 0.28724,-0.23567 0.5745,-0.0444 0.5745,0.33878 0.28725,-0.0266 0.28725,0.0989 0.57449,-0.35368 0.86175,-0.0401 0.28725,0.25881 0.28725,-0.11669 0.57449,0.20589 0.5745,-0.16704 0.28725,-0.007 0.28725,-0.18674 0.28725,0.47006 0.28724,0.13244 0.28725,-0.0511 0.28725,0.14848 1.149,-0.0221 0.28724,-0.10587 0.28725,-0.23027 0.5745,0.0419 0.28725,0.0757 0.28725,-0.0426 0.86174,0.17635 1.149,-0.18598 0.28725,-0.20658 0.28724,0.30724 0.28725,-0.0509 0.28725,0.29451 0.28725,0.007 0.28725,-0.12757 0.28725,0.17292 0.28725,-0.006 0.28724,0.13848 0.86175,0.002 0.5745,-5.7e-4 0.28725,-0.12043 0.28724,0.24459 1.149,-0.35452 0.28725,-0.10309 0.28725,0.33653 0.57449,0.16836 0.28725,-0.20713 0.28725,0.10151 0.28725,-0.21304 2.29799,-0.0488 0.28725,0.27269 0.57449,-0.13555 0.28725,-0.0992 0.28725,-0.25709 0.86175,0.29582 0.28724,-0.2169 0.5745,0.1173 0.28725,-0.29515 1.43624,0.71205 0.28725,-0.23178 0.5745,-0.10415 0.5745,0.35578 1.43624,-0.52113 0.5745,0.31047 0.28724,-0.32283 0.86175,0.12411 0.28725,-0.14568 0.28725,0.18908 0.57449,0.0371 0.28725,0.0694 0.28725,0.26364 0.28725,-0.30193 0.28725,0.11345 0.28725,-0.12223 0.28724,0.16891 0.28725,-0.25674 0.28725,0.16898 0.86175,0.0438 0.28725,-0.17202 0.86174,0.17894 0.28725,-0.075 0.28725,-0.20983 0.5745,0.0446 0.28724,-0.39266 0.28725,0.37941 0.86175,-0.35417 0.28725,0.33244 1.43624,-0.0144 0.28725,0.1763 0.28725,-0.008 0.28725,0.283 0.28724,0.0991 0.28725,-0.40124 0.5745,-0.13593 0.28725,0.15278 0.28725,-0.10128 0.28725,0.25257 0.28724,0.012 0.28725,-0.19577 0.5745,0.13264 0.28725,-0.21876 0.28725,0.1552 1.43624,-0.0453 0.28725,-0.15433 0.5745,0.28123 0.57449,-0.25602 0.28725,0.19674 0.28725,0.0265 0.28725,-0.32675 0.5745,0.19766 0.57449,-0.17612 0.86175,0.29361 0.28725,-0.12341 0.28725,0.34323 0.57449,-0.37789 0.5745,0.12993 0.5745,-0.21223 0.28725,-0.19564 0.28724,0.0876 0.28725,-0.15671 0.5745,0.21375 0.28725,-0.31078 0.5745,0.16761 0.28724,-0.0674 0.5745,0.3259 0.28725,-0.33192 0.28725,0.0916 1.43624,-0.15284 0.28725,0.0908 2.01074,-0.3276 0.28725,0.10706 0.28725,-0.17684 0.28725,0.13805 1.14899,-0.35518 0.28725,0.17872 0.28725,-0.0925 0.57449,0.25751 0.5745,-0.16485 0.86175,-0.17103 0.57449,0.14096 0.28725,-0.0705 0.28725,0.12868 0.86175,-0.0234 0.28725,-0.16412 0.57449,0.18684 0.28725,-0.2293 1.72349,0.12904 0.5745,-0.49196 0.28725,-0.23243 0.28725,0.36673 1.14899,-0.25884 0.28725,0.2013 0.28725,-0.38005 0.28725,0.20973 0.28725,-0.20053 0.57449,0.15763 0.28725,-0.0323 0.28725,-0.32136 0.28725,0.13115 0.86174,0.0839 0.28725,-0.27965 0.5745,0.22014 0.28725,-0.44761 0.28725,0.0113 0.28725,0.13986 0.57449,-0.11016 0.28725,0.23942 0.5745,-0.28668 0.28725,0.13235 0.28725,-0.20578 0.86174,0.0248 0.28725,0.23614 0.5745,-0.3356 0.28724,-0.0799 0.5745,0.33007 0.28725,-0.34258 0.28725,0.16086 0.28725,-0.10982 0.57449,0.0293 0.28725,-0.34494 0.28725,0.20229 0.28725,-0.22211 0.86175,0.22648 0.28724,0.16033 0.86175,-0.31506 0.28725,0.1618 0.28725,-0.0497 0.28725,-0.31772 0.28724,0.24551 0.28725,-0.0915 0.28725,0.0945 0.28725,-0.11647 0.28725,0.0498 0.28725,-0.15927 0.28725,0.24842 0.28724,-0.42921 1.43625,0.2648 0.57449,-0.4211 0.5745,0.15378 0.5745,-0.35741 0.86174,-0.026 0.28725,-0.23292 0.28725,0.0234 0.28725,-0.19951 0.5745,0.23588 0.57449,-0.28878 0.28725,0.10488 0.28725,-0.32435 0.28725,0.19847 0.28725,-0.0873 0.28725,0.0436 0.57449,-0.30802 1.149,-0.27641 0.28725,-0.22304 0.86174,0.0547 0.28725,-0.30592 0.28725,0.40687 0.28725,-0.27171 0.28725,0.23572 1.72349,-0.33726 0.5745,0.0389 0.86174,-0.36366 0.5745,-0.0221 0.28725,-0.13927 0.28725,-0.005 0.28724,-0.31665 0.28725,0.10949 0.28725,-0.0349 1.149,-0.53205 0.28724,0.28994 0.5745,-0.24863 0.28725,0.0956 0.28725,-0.26126 0.28725,0.0244 0.86174,-0.20168 0.28725,0.11863 0.28725,-0.24961 0.5745,-0.16303 0.28725,-0.1994 0.86174,-0.0296 0.28725,-0.39865 0.28725,-0.1496 0.28725,0.14938 0.28725,-0.22114 0.28724,0.0877 0.28725,-0.18721 0.5745,-0.20141 0.28725,0.22084 0.5745,-0.12825 0.28724,0.33342 0.28725,-0.49882 0.28725,0.0725 0.28725,-0.66901 0.28725,0.3565 1.14899,-0.12322 0.28725,-0.15051 0.5745,0.0591 0.5745,-0.18249 0.28724,-0.1092 0.5745,0.27312 0.28725,-0.0307 0.28725,-0.32142 0.28725,0.22054 0.28725,-0.49137 0.28724,0.27619 0.28725,-0.0101 0.28725,-0.44333 0.5745,-0.1799 0.28725,0.33849 0.28725,-0.335 0.57449,0.061 1.149,0.0207 0.28725,-0.0173 0.28724,-0.16343 0.86175,0.1796 0.28725,0.21132 0.28725,-0.29311 0.28725,0.0848 0.28724,-0.24636 0.28725,0.17818 0.28725,0.0391 0.28725,-0.42825 1.14899,-0.14562 2.01074,-0.6961 0.5745,0.0748 0.5745,-0.55494 0.28725,0.2224 0.28724,-0.17029 0.28725,0.088 0.28725,-0.14713 0.28725,0.31542 0.5745,-0.39591 0.28725,-0.007 0.28724,-0.36907 0.28725,0.0932 0.28725,-0.39979 0.28725,0.15097 0.5745,-0.45319 0.28725,0.23462 0.28724,-0.0738 0.28725,-0.21258 0.28725,0.0197 0.28725,0.19297 0.28725,-0.22868 1.43624,-0.13922 0.28725,-0.1661 0.28725,0.0112 0.28725,-0.20451 0.28725,0.052 0.57449,-0.28547 0.28725,0.1728 0.28725,-0.23935 0.28725,0.097 0.28725,0.22781 0.28725,-0.23558 0.28724,-0.0588 0.28725,0.37858 0.28725,-0.1137 0.28725,0.0644 0.5745,-0.55304 0.28725,0.19214 0.57449,-0.55692 0.28725,-0.16246 0.28725,0.099 0.28725,-0.0479 0.28725,-0.21344 0.28725,-0.36022 1.43624,0.062 0.5745,-0.54657 0.28724,0.19595 0.28725,-0.45569 0.28725,0.0446 0.5745,-0.32938 0.28725,0.1396 1.14899,-0.2941 0.28725,-0.44644 0.5745,-0.0167 0.28725,-0.25903 0.28724,0.22658 0.28725,-0.19861 0.5745,-0.62562 0.5745,-0.51346 0.28725,0.0535 0.28724,-0.0646 0.28725,-0.30158 0.28725,0.0778 0.28725,-0.4715 0.86175,-0.1549 0.57449,-0.56544 0.86175,-0.23145 0.28725,-0.18806 0.57449,-0.59006 0.28725,-0.0815 0.28725,0.12566 0.28725,-0.3941 0.5745,-0.0296 0.28725,-0.26459 0.28724,0.0829 0.28725,-0.0359 0.28725,0.1129 0.86175,-0.63382 0.28725,-0.0515 0.28724,-0.33283 0.5745,-0.24882 0.28725,-0.60895 0.5745,-0.19179 0.28725,-0.3327 0.28724,0.003 1.149,-0.81243 0.28725,0.14537 0.28725,-0.10119 0.57449,-0.52431 0.28725,0.0618 0.86175,-0.63617 0.57449,-0.14818 0.28725,-0.32686 0.5745,-0.35081 0.28725,0.0689 0.28725,-0.29447 0.28725,0.3132 0.57449,-0.603036 0.5745,-0.07275 0.28725,-0.329652 0.28725,0.0099 0.28725,-0.200562 0.28724,0.223724 0.28725,-0.304785 0.5745,-0.08975 0.28725,-0.515619 0.28725,0.09515 0.28725,-0.164041 0.28724,-0.02194 0.28725,0.182168 0.86175,-0.890425 0.28725,0.01102 0.28725,-0.113417 0.57449,-0.493597 0.28725,-0.06251 0.28725,-0.291364 0.28725,0.202142 0.28725,-0.227082 0.28725,-0.0576 0.28724,-0.194867 0.28725,0.03005 0.28725,0.188902 0.28725,-0.299407 0.28725,-0.07229 0.57449,-0.526539 0.28725,0.09275 0.28725,-0.468899 0.28725,0.255125 0.28725,-0.324589 0.28725,-0.143548 0.57449,0.01404 0.5745,-0.350448 0.28725,-0.145694 0.5745,-0.628663 0.86174,0.05759 0.28725,-0.234746 0.28725,-0.04911 0.86175,-0.698008 0.28724,-0.584619 0.28725,0.117712 0.28725,-0.41906 0.28725,-0.113744 0.28725,-0.491085 0.28725,0.153899 0.28725,-0.214174 0.28724,-0.06525 0.28725,0.123875 0.28725,6.17674 0.28725,-6.965804 0.28725,-0.15636 0.5745,-0.604463 0.28724,0.190482 0.28725,-0.287097 0.28725,-0.0044 0.5745,-0.450422 0.28725,0.05962 0.28725,-0.233538 0.28724,0.110922 0.86175,-0.794476 0.28725,0.221765 0.28725,0.07966 0.28725,-0.195398 0.57449,-0.871366 0.28725,-0.280314 0.28725,-0.06989 0.28725,-0.63074 0.28725,-0.09151 0.57449,0.09159 0.28725,-0.513785 0.28725,-0.0242 0.5745,-0.539633 0.5745,0.850716 0.28724,-0.257479 0.28725,0.07937 0.86175,-0.501735 0.28725,0.597013 0.28725,-1.020554 0.57449,-0.262022 0.28725,-0.764818 0.28725,-0.444192 0.28725,0.02949 0.28725,0.406225 0.86174,-0.827921 0.28725,-0.05231 0.28725,-0.229113 0.28725,0.03872 0.28725,-0.191978 0.28725,0.04906 0.28724,-0.193936 0.5745,0.221975 0.5745,-1.075778 0.5745,-0.27888 1.14899,-1.119856 0.28725,1.460806 0.28725,-1.326513 0.28725,4.769584 0.28724,-4.995751 0.28725,-0.716159 0.28725,-0.0061 0.28725,-0.390886 0.28725,3.488633 0.28725,-3.297327 0.28725,-0.603385 0.28724,0.06719 0.28725,-0.855486 1.43625,-1.144315 0.28724,-0.164391 0.5745,-0.562202 0.28725,3.330704 0.28725,-3.83911 0.28725,0.81945 0.57449,-1.691613 0.28725,-0.408297 0.28725,-0.205365 0.28725,0.988537 0.28725,-1.002595 0.28725,-0.337626 0.28725,-0.70587 0.28724,0.01796 0.28725,0.184906 0.28725,-0.548392 0.28725,-0.06303 0.5745,-0.883061 0.28725,-0.222849 0.28724,-0.41358 0.28725,0.585709 0.28725,0.207656 0.28725,-1.272705 0.28725,0.571136 0.28725,-0.77737 0.28725,5.834266 0.28724,-5.36619 0.28725,-1.356696 0.28725,0.02519 0.28725,-0.652829 0.28725,-0.273152 0.28725,1.474768 0.28725,2.298096 0.28724,-3.073282 0.28725,-1.437333 0.28725,0.453684 0.28725,-0.610704 0.28725,8.61576 0.28725,-9.313305 0.28725,-0.530462 0.28724,-0.03638 0.28725,11.608607 0.28725,-8.4701 0.5745,-1.597402 0.28725,5.697738 0.28725,-7.333562 0.28724,9.177353 0.28725,12.927071 0.28725,-20.261418 0.28725,4.751304 0.28725,-8.76046 0.28725,-0.534096 0.28725,0.894681 0.28724,7.157748 0.28725,-6.090357 0.28725,1.918232 0.28725,-1.723675 0.28725,-3.249338 0.28725,-0.627918 0.28724,0.05474 0.28725,10.932215 0.86175,-12.451868 0.28725,21.044771 0.28725,-20.441183 0.28724,20.489358 0.28725,-19.615886 0.28725,-0.03654 0.28725,12.249551 0.28725,-8.837932 0.5745,21.586514 0.28724,-16.553982 0.5745,-9.677818 0.28725,0.596482 0.28725,0.265776 0.28725,2.493572 0.28725,-1.906515 0.28724,-2.664996 0.28725,5.438532 0.28725,-3.162627 0.28725,11.815439 0.28725,-2.262659 0.28725,2.593552 0.28725,-17.039035 0.28724,16.392735 0.28725,7.589709 0.28725,-16.434464 0.28725,-6.478325 0.28725,38.53255 0.28725,1.830697 0.28725,-15.06809 0.28724,14.597306 0.28725,1.452633 0.28725,-19.261413 0.28725,9.132259 0.28725,-2.161031 0.28725,1.522983 0.28725,20.706041 0.28724,-31.369309 0.28725,20.918514 0.28725,-18.287894 0.28725,6.328421 0.28725,-2.146493 0.28725,3.441119 0.28725,7.194963 0.28724,0.217324 0.28725,11.334515 0.28725,-2.84785 0.28725,-14.156992 0.28725,5.773037 0.28725,1.211115 0.28725,3.57888 0.28724,-4.456432 0.28725,-1.483415 0.28725,2.778774 0.28725,-9.496253 0.28725,-14.270081 0.28725,21.117429 0.86174,18.564428 0.28725,1.0523 0.28725,-8.05613 0.28725,-1.39519 0.28725,8.74441 0.57449,-13.37942 0.28725,6.51501 0.28725,10.57251 0.28725,-4.74579 0.28725,-15.302738 0.28725,17.749998 0.28725,-30.769435 0.28724,25.428795 0.28725,-41.654582 0.28725,50.868012 0.28725,-27.413005 0.28725,-10.242429 0.5745,23.935734 0.28724,0.39685 0.28725,-5.42183 0.5745,14.14462 0.28725,-17.897035 0.28725,9.760405 0.28725,3.57678 0.28724,-6.56829 0.28725,14.10729 0.28725,-24.18853 0.28725,18.78521 0.28725,-1.9171 0.28725,-4.56989 0.28725,10.04367 0.28724,-3.89217 0.28725,11.46105 0.5745,-14.69863 0.28725,9.62531 0.28725,-1.87106 0.28725,-0.81144 0.28724,5.75702 0.28725,-1.26171 0.28725,-19.81899 0.28725,20.93562 0.28725,-22.44936 0.28725,17.76548 0.28725,3.99724 0.28724,-10.79314 0.5745,18.03579 0.28725,-21.62524 0.5745,17.39055 0.28725,-11.30758 0.28724,4.63784 0.28725,-1.55226 0.28725,23.83053 0.28725,-15.67134 0.28725,7.76403 0.28725,1.3918 0.28725,-1.46517 0.28724,0.19528 0.28725,-0.20401 0.28725,-13.78674 0.28725,3.47865 0.28725,5.1043 0.28725,-12.42921 0.28725,18.52209 0.28724,2.71016 0.28725,-9.54954 0.28725,7.72822 0.28725,-10.33661 0.28725,3.21773 0.28725,-2.99722 0.28725,-12.00942 0.28724,-17.444289 0.5745,13.637979 0.28725,-12.620812 0.28725,0.963484 0.28725,-13.153781 0.28725,-4.550296 0.28724,-8.850856 0.28725,6.988769 0.28725,2.166269 0.28725,21.437304 0.28725,-11.201133 0.28725,-1.519292 0.86174,9.961162 0.28725,7.686862 0.28725,-0.93385 1.14899,11.26268 0.86175,6.28885 1.14899,5.85825 1.149,3.75699 0.57449,1.39872 0.86175,2.65086 0.5745,1.17295 0.57449,1.76789 2.29799,5.42028 0.28725,0.52343 0.28725,1.08625 1.14899,2.45455 0.5745,1.26468 0.28725,1.05954 0.28725,0.5181 0.86174,2.35855 1.149,2.84473 0.28725,0.45134 0.28725,1.16362 0.28724,0.61181 0.5745,1.87692 0.28725,0.64815 0.86175,2.63274 0.28724,0.47814 0.5745,1.70384 2.29799,8.28246 2.29799,10.29441 0.86174,5.2329 0.5745,3.36384 1.149,8.81704 0.57449,5.23906 3.15974,29.50994 0.28725,-1.21015 0.57449,-4.85012 0.28725,-1.30373 0.28725,-0.75222 0,0"
             inkscape:connector-curvature="0" />
        </g>
      </g>
      <g
         id="g3019">
        <path
           id="path3021"
           style="fill:none;stroke:#000000;stroke-width:1;stroke-linecap:square;stroke-linejoin:miter;stroke-miterlimit:10;stroke-opacity:1;stroke-dasharray:none"
           d="M 43.36875,313.2 493.2,313.2"
           inkscape:connector-curvature="0" />
        <path
           id="path3023"
           style="fill:none;stroke:#000000;stroke-width:1;stroke-linecap:square;stroke-linejoin:miter;stroke-miterlimit:10;stroke-opacity:1;stroke-dasharray:none"
           d="m 493.2,42.3 0,270.9"
           inkscape:connector-curvature="0" />
        <path
           id="path3025"
           style="fill:none;stroke:#000000;stroke-width:1;stroke-linecap:square;stroke-linejoin:miter;stroke-miterlimit:10;stroke-opacity:1;stroke-dasharray:none"
           d="M 43.36875,42.3 493.2,42.3"
           inkscape:connector-curvature="0" />
        <path
           id="path3027"
           style="fill:none;stroke:#000000;stroke-width:1;stroke-linecap:square;stroke-linejoin:miter;stroke-miterlimit:10;stroke-opacity:1;stroke-dasharray:none"
           d="m 43.36875,42.3 0,270.9"
           inkscape:connector-curvature="0" />
        <path
           id="path3029"
           style="fill:#000000;fill-opacity:1;fill-rule:nonzero;stroke:#000000;stroke-width:0.5;stroke-linecap:butt;stroke-linejoin:round;stroke-miterlimit:10;stroke-opacity:1;stroke-dasharray:none"
           d="m 43.36875,42.3 0,4"
           inkscape:connector-curvature="0" />
        <path
           id="path3031"
           style="fill:#000000;fill-opacity:1;fill-rule:nonzero;stroke:#000000;stroke-width:0.5;stroke-linecap:butt;stroke-linejoin:round;stroke-miterlimit:10;stroke-opacity:1;stroke-dasharray:none"
           d="m 43.36875,313.2 0,-4"
           inkscape:connector-curvature="0" />
        <text
           id="text3033"
           transform="matrix(1,0,0,-1,35.478125,29.690625)">
          <tspan
             id="tspan3035"
             sodipodi:role="line"
             y="0"
             x="0 6.6719999 10.008"
             style="font-size:12px;font-variant:normal;font-weight:normal;writing-mode:lr-tb;fill:#000000;fill-opacity:1;fill-rule:nonzero;stroke:none;font-family:Helvetica;-inkscape-font-specification:Helvetica"></tspan>
        </text>
        <path
           id="path3037"
           style="fill:#000000;fill-opacity:1;fill-rule:nonzero;stroke:#000000;stroke-width:0.5;stroke-linecap:butt;stroke-linejoin:round;stroke-miterlimit:10;stroke-opacity:1;stroke-dasharray:none"
           d="m 146.77823,42.3 0,4"
           inkscape:connector-curvature="0" />
        <path
           id="path3039"
           style="fill:#000000;fill-opacity:1;fill-rule:nonzero;stroke:#000000;stroke-width:0.5;stroke-linecap:butt;stroke-linejoin:round;stroke-miterlimit:10;stroke-opacity:1;stroke-dasharray:none"
           d="m 146.77823,313.2 0,-4"
           inkscape:connector-curvature="0" />
        <text
           id="text3041"
           transform="matrix(1,0,0,-1,139.27042,29.690625)">
          <tspan
             id="tspan3043"
             sodipodi:role="line"
             y="0"
             x="0 6.6719999 10.008"
             style="font-size:12px;font-variant:normal;font-weight:normal;writing-mode:lr-tb;fill:#000000;fill-opacity:1;fill-rule:nonzero;stroke:none;font-family:Helvetica;-inkscape-font-specification:Helvetica"></tspan>
        </text>
        <path
           id="path3045"
           style="fill:#000000;fill-opacity:1;fill-rule:nonzero;stroke:#000000;stroke-width:0.5;stroke-linecap:butt;stroke-linejoin:round;stroke-miterlimit:10;stroke-opacity:1;stroke-dasharray:none"
           d="m 250.18772,42.3 0,4"
           inkscape:connector-curvature="0" />
        <path
           id="path3047"
           style="fill:#000000;fill-opacity:1;fill-rule:nonzero;stroke:#000000;stroke-width:0.5;stroke-linecap:butt;stroke-linejoin:round;stroke-miterlimit:10;stroke-opacity:1;stroke-dasharray:none"
           d="m 250.18772,313.2 0,-4"
           inkscape:connector-curvature="0" />
        <text
           id="text3049"
           transform="matrix(1,0,0,-1,242.22678,29.690625)">
          <tspan
             id="tspan3051"
             sodipodi:role="line"
             y="0"
             x="0 6.6719999 10.008"
             style="font-size:12px;font-variant:normal;font-weight:normal;writing-mode:lr-tb;fill:#000000;fill-opacity:1;fill-rule:nonzero;stroke:none;font-family:Helvetica;-inkscape-font-specification:Helvetica"></tspan>
        </text>
        <path
           id="path3053"
           style="fill:#000000;fill-opacity:1;fill-rule:nonzero;stroke:#000000;stroke-width:0.5;stroke-linecap:butt;stroke-linejoin:round;stroke-miterlimit:10;stroke-opacity:1;stroke-dasharray:none"
           d="m 353.5972,42.3 0,4"
           inkscape:connector-curvature="0" />
        <path
           id="path3055"
           style="fill:#000000;fill-opacity:1;fill-rule:nonzero;stroke:#000000;stroke-width:0.5;stroke-linecap:butt;stroke-linejoin:round;stroke-miterlimit:10;stroke-opacity:1;stroke-dasharray:none"
           d="m 353.5972,313.2 0,-4"
           inkscape:connector-curvature="0" />
        <text
           id="text3057"
           transform="matrix(1,0,0,-1,345.68314,29.690625)">
          <tspan
             id="tspan3059"
             sodipodi:role="line"
             y="0"
             x="0 6.6719999 10.008"
             style="font-size:12px;font-variant:normal;font-weight:normal;writing-mode:lr-tb;fill:#000000;fill-opacity:1;fill-rule:nonzero;stroke:none;font-family:Helvetica;-inkscape-font-specification:Helvetica"></tspan>
        </text>
        <path
           id="path3061"
           style="fill:#000000;fill-opacity:1;fill-rule:nonzero;stroke:#000000;stroke-width:0.5;stroke-linecap:butt;stroke-linejoin:round;stroke-miterlimit:10;stroke-opacity:1;stroke-dasharray:none"
           d="m 457.00668,42.3 0,4"
           inkscape:connector-curvature="0" />
        <path
           id="path3063"
           style="fill:#000000;fill-opacity:1;fill-rule:nonzero;stroke:#000000;stroke-width:0.5;stroke-linecap:butt;stroke-linejoin:round;stroke-miterlimit:10;stroke-opacity:1;stroke-dasharray:none"
           d="m 457.00668,313.2 0,-4"
           inkscape:connector-curvature="0" />
        <text
           id="text3065"
           transform="matrix(1,0,0,-1,449.03793,29.690625)">
          <tspan
             id="tspan3067"
             sodipodi:role="line"
             y="0"
             x="0 6.6719999 10.008"
             style="font-size:12px;font-variant:normal;font-weight:normal;writing-mode:lr-tb;fill:#000000;fill-opacity:1;fill-rule:nonzero;stroke:none;font-family:Helvetica;-inkscape-font-specification:Helvetica"></tspan>
        </text>
        <text
           id="text3069"
           transform="matrix(1,0,0,-1,243.88594,13.08125)">
          <tspan
             id="tspan3071"
             sodipodi:role="line"
             y="0"
             x="0 8.2200003 15.6 18.936001 23.639999 27.455999 30.792 38.400002 42.216"
             style="font-size:12px;font-variant:normal;font-weight:normal;writing-mode:lr-tb;fill:#000000;fill-opacity:1;fill-rule:nonzero;stroke:none;font-family:Utopia;-inkscape-font-specification:Utopia">Zeit in h</tspan>
        </text>
        <path
           id="path3073"
           style="fill:#000000;fill-opacity:1;fill-rule:nonzero;stroke:#000000;stroke-width:0.5;stroke-linecap:butt;stroke-linejoin:round;stroke-miterlimit:10;stroke-opacity:1;stroke-dasharray:none"
           d="m 43.36875,42.3 4,0"
           inkscape:connector-curvature="0" />
        <path
           id="path3075"
           style="fill:#000000;fill-opacity:1;fill-rule:nonzero;stroke:#000000;stroke-width:0.5;stroke-linecap:butt;stroke-linejoin:round;stroke-miterlimit:10;stroke-opacity:1;stroke-dasharray:none"
           d="m 493.2,42.3 -4,0"
           inkscape:connector-curvature="0" />
        <text
           id="text3077"
           transform="matrix(1,0,0,-1,29.61875,39.2375)">
          <tspan
             id="tspan3079"
             sodipodi:role="line"
             y="0"
             x="0 3.9960001"
             style="font-size:12px;font-variant:normal;font-weight:normal;writing-mode:lr-tb;fill:#000000;fill-opacity:1;fill-rule:nonzero;stroke:none;font-family:Helvetica;-inkscape-font-specification:Helvetica"></tspan>
        </text>
        <path
           id="path3081"
           style="fill:#000000;fill-opacity:1;fill-rule:nonzero;stroke:#000000;stroke-width:0.5;stroke-linecap:butt;stroke-linejoin:round;stroke-miterlimit:10;stroke-opacity:1;stroke-dasharray:none"
           d="m 43.36875,76.1625 4,0"
           inkscape:connector-curvature="0" />
        <path
           id="path3083"
           style="fill:#000000;fill-opacity:1;fill-rule:nonzero;stroke:#000000;stroke-width:0.5;stroke-linecap:butt;stroke-linejoin:round;stroke-miterlimit:10;stroke-opacity:1;stroke-dasharray:none"
           d="m 493.2,76.1625 -4,0"
           inkscape:connector-curvature="0" />
        <text
           id="text3085"
           transform="matrix(1,0,0,-1,29.80625,73.1)">
          <tspan
             id="tspan3087"
             sodipodi:role="line"
             y="0"
             x="0 3.9960001"
             style="font-size:12px;font-variant:normal;font-weight:normal;writing-mode:lr-tb;fill:#000000;fill-opacity:1;fill-rule:nonzero;stroke:none;font-family:Helvetica;-inkscape-font-specification:Helvetica"></tspan>
        </text>
        <path
           id="path3089"
           style="fill:#000000;fill-opacity:1;fill-rule:nonzero;stroke:#000000;stroke-width:0.5;stroke-linecap:butt;stroke-linejoin:round;stroke-miterlimit:10;stroke-opacity:1;stroke-dasharray:none"
           d="m 43.36875,110.025 4,0"
           inkscape:connector-curvature="0" />
        <path
           id="path3091"
           style="fill:#000000;fill-opacity:1;fill-rule:nonzero;stroke:#000000;stroke-width:0.5;stroke-linecap:butt;stroke-linejoin:round;stroke-miterlimit:10;stroke-opacity:1;stroke-dasharray:none"
           d="m 493.2,110.025 -4,0"
           inkscape:connector-curvature="0" />
        <text
           id="text3093"
           transform="matrix(1,0,0,-1,33.5875,106.9625)">
          <tspan
             id="tspan3095"
             y="0"
             x="0"
             style="font-size:12px;font-variant:normal;font-weight:normal;writing-mode:lr-tb;fill:#000000;fill-opacity:1;fill-rule:nonzero;stroke:none;font-family:Helvetica;-inkscape-font-specification:Helvetica"></tspan>
        </text>
        <path
           id="path3097"
           style="fill:#000000;fill-opacity:1;fill-rule:nonzero;stroke:#000000;stroke-width:0.5;stroke-linecap:butt;stroke-linejoin:round;stroke-miterlimit:10;stroke-opacity:1;stroke-dasharray:none"
           d="m 43.36875,143.8875 4,0"
           inkscape:connector-curvature="0" />
        <path
           id="path3099"
           style="fill:#000000;fill-opacity:1;fill-rule:nonzero;stroke:#000000;stroke-width:0.5;stroke-linecap:butt;stroke-linejoin:round;stroke-miterlimit:10;stroke-opacity:1;stroke-dasharray:none"
           d="m 493.2,143.8875 -4,0"
           inkscape:connector-curvature="0" />
        <text
           id="text3101"
           transform="matrix(1,0,0,-1,33.5875,140.825)">
          <tspan
             id="tspan3103"
             y="0"
             x="0"
             style="font-size:12px;font-variant:normal;font-weight:normal;writing-mode:lr-tb;fill:#000000;fill-opacity:1;fill-rule:nonzero;stroke:none;font-family:Helvetica;-inkscape-font-specification:Helvetica"></tspan>
        </text>
        <path
           id="path3105"
           style="fill:#000000;fill-opacity:1;fill-rule:nonzero;stroke:#000000;stroke-width:0.5;stroke-linecap:butt;stroke-linejoin:round;stroke-miterlimit:10;stroke-opacity:1;stroke-dasharray:none"
           d="m 43.36875,177.75 4,0"
           inkscape:connector-curvature="0" />
        <path
           id="path3107"
           style="fill:#000000;fill-opacity:1;fill-rule:nonzero;stroke:#000000;stroke-width:0.5;stroke-linecap:butt;stroke-linejoin:round;stroke-miterlimit:10;stroke-opacity:1;stroke-dasharray:none"
           d="m 493.2,177.75 -4,0"
           inkscape:connector-curvature="0" />
        <text
           id="text3109"
           transform="matrix(1,0,0,-1,33.384375,174.6875)">
          <tspan
             id="tspan3111"
             y="0"
             x="0"
             style="font-size:12px;font-variant:normal;font-weight:normal;writing-mode:lr-tb;fill:#000000;fill-opacity:1;fill-rule:nonzero;stroke:none;font-family:Helvetica;-inkscape-font-specification:Helvetica"></tspan>
        </text>
        <path
           id="path3113"
           style="fill:#000000;fill-opacity:1;fill-rule:nonzero;stroke:#000000;stroke-width:0.5;stroke-linecap:butt;stroke-linejoin:round;stroke-miterlimit:10;stroke-opacity:1;stroke-dasharray:none"
           d="m 43.36875,211.6125 4,0"
           inkscape:connector-curvature="0" />
        <path
           id="path3115"
           style="fill:#000000;fill-opacity:1;fill-rule:nonzero;stroke:#000000;stroke-width:0.5;stroke-linecap:butt;stroke-linejoin:round;stroke-miterlimit:10;stroke-opacity:1;stroke-dasharray:none"
           d="m 493.2,211.6125 -4,0"
           inkscape:connector-curvature="0" />
        <text
           id="text3117"
           transform="matrix(1,0,0,-1,33.603125,208.55)">
          <tspan
             id="tspan3119"
             y="0"
             x="0"
             style="font-size:12px;font-variant:normal;font-weight:normal;writing-mode:lr-tb;fill:#000000;fill-opacity:1;fill-rule:nonzero;stroke:none;font-family:Helvetica;-inkscape-font-specification:Helvetica"></tspan>
        </text>
        <path
           id="path3121"
           style="fill:#000000;fill-opacity:1;fill-rule:nonzero;stroke:#000000;stroke-width:0.5;stroke-linecap:butt;stroke-linejoin:round;stroke-miterlimit:10;stroke-opacity:1;stroke-dasharray:none"
           d="m 43.36875,245.475 4,0"
           inkscape:connector-curvature="0" />
        <path
           id="path3123"
           style="fill:#000000;fill-opacity:1;fill-rule:nonzero;stroke:#000000;stroke-width:0.5;stroke-linecap:butt;stroke-linejoin:round;stroke-miterlimit:10;stroke-opacity:1;stroke-dasharray:none"
           d="m 493.2,245.475 -4,0"
           inkscape:connector-curvature="0" />
        <text
           id="text3125"
           transform="matrix(1,0,0,-1,33.61875,242.4125)">
          <tspan
             id="tspan3127"
             y="0"
             x="0"
             style="font-size:12px;font-variant:normal;font-weight:normal;writing-mode:lr-tb;fill:#000000;fill-opacity:1;fill-rule:nonzero;stroke:none;font-family:Helvetica;-inkscape-font-specification:Helvetica"></tspan>
        </text>
        <path
           id="path3129"
           style="fill:#000000;fill-opacity:1;fill-rule:nonzero;stroke:#000000;stroke-width:0.5;stroke-linecap:butt;stroke-linejoin:round;stroke-miterlimit:10;stroke-opacity:1;stroke-dasharray:none"
           d="m 43.36875,279.3375 4,0"
           inkscape:connector-curvature="0" />
        <path
           id="path3131"
           style="fill:#000000;fill-opacity:1;fill-rule:nonzero;stroke:#000000;stroke-width:0.5;stroke-linecap:butt;stroke-linejoin:round;stroke-miterlimit:10;stroke-opacity:1;stroke-dasharray:none"
           d="m 493.2,279.3375 -4,0"
           inkscape:connector-curvature="0" />
        <text
           id="text3133"
           transform="matrix(1,0,0,-1,27.68125,276.275)">
          <tspan
             id="tspan3135"
             sodipodi:role="line"
             y="0"
             x="0 6.6719999"
             style="font-size:12px;font-variant:normal;font-weight:normal;writing-mode:lr-tb;fill:#000000;fill-opacity:1;fill-rule:nonzero;stroke:none;font-family:Helvetica;-inkscape-font-specification:Helvetica"></tspan>
        </text>
        <path
           id="path3137"
           style="fill:#000000;fill-opacity:1;fill-rule:nonzero;stroke:#000000;stroke-width:0.5;stroke-linecap:butt;stroke-linejoin:round;stroke-miterlimit:10;stroke-opacity:1;stroke-dasharray:none"
           d="m 43.36875,313.2 4,0"
           inkscape:connector-curvature="0" />
        <path
           id="path3139"
           style="fill:#000000;fill-opacity:1;fill-rule:nonzero;stroke:#000000;stroke-width:0.5;stroke-linecap:butt;stroke-linejoin:round;stroke-miterlimit:10;stroke-opacity:1;stroke-dasharray:none"
           d="m 493.2,313.2 -4,0"
           inkscape:connector-curvature="0" />
        <text
           id="text3141"
           transform="matrix(0,1,1,0,20.18125,127.10156)"
           style="-inkscape-font-specification:Utopia;font-family:Utopia">
          <tspan
             id="tspan3143"
             sodipodi:role="line"
             y="0"
             x="0 7.3319998 14.712 26.4 34.02 41.400002 46.332001 53.688 58.391998 66 70.931999 74.748001 78.084 85.692001 89.508003 95.508003"
             style="font-size:12px;font-variant:normal;font-weight:normal;writing-mode:lr-tb;fill:#000000;fill-opacity:1;fill-rule:nonzero;stroke:none;font-family:Utopia;-inkscape-font-specification:Utopia">Temperatur in C</tspan>
        </text>
        <path
           id="path3145"
           style="fill:#ffffff;fill-opacity:1;fill-rule:nonzero;stroke:#000000;stroke-width:1;stroke-linecap:butt;stroke-linejoin:miter;stroke-miterlimit:10;stroke-opacity:1;stroke-dasharray:none"
           d="m 309.4,283.475 177.8,0 0,23.725 -177.8,0 0,-23.725 z"
           inkscape:connector-curvature="0" />
        <path
           id="path3147"
           style="fill:none;stroke:#0000ff;stroke-width:1;stroke-linecap:square;stroke-linejoin:round;stroke-miterlimit:10;stroke-opacity:1;stroke-dasharray:none"
           d="m 317.8,297.475 16.8,0"
           inkscape:connector-curvature="0" />
        <g
           transform="translate(347.8,293.275)"
           id="g3149">
          <text
             id="text3151"
             transform="matrix(1,0,0,-1,0,0.796875)">
            <tspan
               id="tspan3153"
               y="0"
               x="0"
               style="font-size:12px;font-variant:normal;font-weight:normal;writing-mode:lr-tb;fill:#000000;fill-opacity:1;fill-rule:nonzero;stroke:none;font-family:Utopia;-inkscape-font-specification:Utopia Italic;font-style:italic">T</tspan>
          </text>
          <text
             id="text3155"
             transform="matrix(1,0,0,-1,7.0078125,-2.26425)">
            <tspan
               id="tspan3157"
               sodipodi:role="line"
               y="0"
               x="0 5.7134767 8.2055855 12.110273 16.174921 18.66703 22.571718 25.46332"
               style="font-size:8.39999961999999910px;font-variant:normal;font-weight:normal;writing-mode:lr-tb;fill:#000000;fill-opacity:1;fill-rule:nonzero;stroke:none;font-family:Utopia;-inkscape-font-specification:Utopia Italic;font-style:italic">L,ev,ein</tspan>
          </text>
        </g>
        <path
           id="path3159"
           style="fill:none;stroke:#008000;stroke-width:1;stroke-linecap:square;stroke-linejoin:round;stroke-miterlimit:10;stroke-opacity:1;stroke-dasharray:none"
           d="m 413.4,297.475 16.8,0"
           inkscape:connector-curvature="0" />
        <g
           transform="translate(443.4,293.275)"
           id="g3161">
          <text
             id="text3163"
             transform="matrix(1,0,0,-1,0,0.796875)">
            <tspan
               id="tspan3165"
               y="0"
               x="0"
               style="font-size:12px;font-variant:normal;font-weight:normal;writing-mode:lr-tb;fill:#000000;fill-opacity:1;fill-rule:nonzero;stroke:none;font-family:Utopia;-inkscape-font-specification:Utopia Italic;font-style:italic">T</tspan>
          </text>
          <text
             id="text3167"
             transform="matrix(1,0,0,-1,7.0078125,-2.26425)">
            <tspan
               id="tspan3169"
               sodipodi:role="line"
               style="font-size:8.39999961999999910px;font-variant:normal;font-weight:normal;writing-mode:lr-tb;fill:#000000;fill-opacity:1;fill-rule:nonzero;stroke:none;font-family:Utopia;-inkscape-font-specification:Utopia Italic;font-style:italic"
               y="0"
               x="0 5.7134767 8.2055855 12.110273 16.174921 18.66703 23.100821 27.903749">L,ev,aus</tspan>
          </text>
        </g>
      </g>
    </g>
  </g>
</svg>
