<?xml version="1.0" encoding="UTF-8" standalone="no"?>
<!-- Created with Inkscape (http://www.inkscape.org/) -->

<svg
   xmlns:dc="http://purl.org/dc/elements/1.1/"
   xmlns:cc="http://creativecommons.org/ns#"
   xmlns:rdf="http://www.w3.org/1999/02/22-rdf-syntax-ns#"
   xmlns:svg="http://www.w3.org/2000/svg"
   xmlns="http://www.w3.org/2000/svg"
   xmlns:sodipodi="http://sodipodi.sourceforge.net/DTD/sodipodi-0.dtd"
   xmlns:inkscape="http://www.inkscape.org/namespaces/inkscape"
   width="744.09448819"
   height="1052.3622047"
   id="svg2"
   version="1.1"
   inkscape:version="0.48.2 r9819"
   sodipodi:docname="Evaporator.svg">
  <defs
     id="defs4">
    <marker
       inkscape:stockid="Arrow1Mstart"
       orient="auto"
       refY="0.0"
       refX="0.0"
       id="Arrow1Mstart"
       style="overflow:visible">
      <path
         id="path5898"
         d="M 0.0,0.0 L 5.0,-5.0 L -12.5,0.0 L 5.0,5.0 L 0.0,0.0 z "
         style="fill-rule:evenodd;stroke:#000000;stroke-width:1.0pt;marker-start:none"
         transform="scale(0.4) translate(10,0)" />
    </marker>
    <marker
       inkscape:stockid="Arrow1Lstart"
       orient="auto"
       refY="0.0"
       refX="0.0"
       id="Arrow1Lstart"
       style="overflow:visible">
      <path
         id="path5892"
         d="M 0.0,0.0 L 5.0,-5.0 L -12.5,0.0 L 5.0,5.0 L 0.0,0.0 z "
         style="fill-rule:evenodd;stroke:#000000;stroke-width:1.0pt;marker-start:none"
         transform="scale(0.8) translate(12.5,0)" />
    </marker>
    <marker
       inkscape:stockid="Arrow1Lend"
       orient="auto"
       refY="0.0"
       refX="0.0"
       id="Arrow1Lend"
       style="overflow:visible;">
      <path
         id="path5895"
         d="M 0.0,0.0 L 5.0,-5.0 L -12.5,0.0 L 5.0,5.0 L 0.0,0.0 z "
         style="fill-rule:evenodd;stroke:#000000;stroke-width:1.0pt;marker-start:none;"
         transform="scale(0.8) rotate(180) translate(12.5,0)" />
    </marker>
    <inkscape:path-effect
       effect="spiro"
       id="path-effect5622"
       is_visible="true" />
    <inkscape:path-effect
       effect="skeletal"
       id="path-effect5618"
       is_visible="true"
       pattern="M 0,0 0,10 10,5 z"
       copytype="single_stretched"
       prop_scale="1"
       scale_y_rel="false"
       spacing="0"
       normal_offset="0"
       tang_offset="0"
       prop_units="false"
       vertical_pattern="false"
       fuse_tolerance="0" />
    <marker
       inkscape:stockid="Arrow1Mstart"
       orient="auto"
       refY="0"
       refX="0"
       id="Arrow1Mstart-0"
       style="overflow:visible">
      <path
         inkscape:connector-curvature="0"
         id="path5898-7"
         d="M 0,0 5,-5 -12.5,0 5,5 0,0 z"
         style="fill-rule:evenodd;stroke:#000000;stroke-width:1pt;marker-start:none"
         transform="matrix(0.4,0,0,0.4,4,0)" />
    </marker>
    <marker
       inkscape:stockid="Arrow1Mstart"
       orient="auto"
       refY="0"
       refX="0"
       id="Arrow1Mstart-5"
       style="overflow:visible">
      <path
         inkscape:connector-curvature="0"
         id="path5898-5"
         d="M 0,0 5,-5 -12.5,0 5,5 0,0 z"
         style="fill-rule:evenodd;stroke:#000000;stroke-width:1pt;marker-start:none"
         transform="matrix(0.4,0,0,0.4,4,0)" />
    </marker>
    <marker
       inkscape:stockid="Arrow1Mstart"
       orient="auto"
       refY="0"
       refX="0"
       id="Arrow1Mstart-1"
       style="overflow:visible">
      <path
         inkscape:connector-curvature="0"
         id="path5898-4"
         d="M 0,0 5,-5 -12.5,0 5,5 0,0 z"
         style="fill-rule:evenodd;stroke:#000000;stroke-width:1pt;marker-start:none"
         transform="matrix(0.4,0,0,0.4,4,0)" />
    </marker>
  </defs>
  <sodipodi:namedview
     id="base"
     pagecolor="#ffffff"
     bordercolor="#666666"
     borderopacity="1.0"
     inkscape:pageopacity="0.0"
     inkscape:pageshadow="2"
     inkscape:zoom="2"
     inkscape:cx="112.73752"
     inkscape:cy="195.4974"
     inkscape:document-units="px"
     inkscape:current-layer="layer1"
     showgrid="false"
     inkscape:window-width="1920"
     inkscape:window-height="1017"
     inkscape:window-x="1912"
     inkscape:window-y="-8"
     inkscape:window-maximized="1" />
  <metadata
     id="metadata7">
    <rdf:RDF>
      <cc:Work
         rdf:about="">
        <dc:format>image/svg+xml</dc:format>
        <dc:type
           rdf:resource="http://purl.org/dc/dcmitype/StillImage" />
        <dc:title></dc:title>
      </cc:Work>
    </rdf:RDF>
  </metadata>
  <g
     inkscape:label="Layer 1"
     inkscape:groupmode="layer"
     id="layer1">
    <g
       id="g5636"
       transform="translate(-150.00002,0)">
      <rect
         transform="scale(-1,1)"
         rx="9.444438e-018"
         y="652.15466"
         x="-258.9574"
         height="399.16489"
         width="107.91475"
         id="rect2985-7"
         style="fill:#f2f2f2;fill-rule:evenodd;stroke:#000000;stroke-width:2.08525133;stroke-linecap:butt;stroke-linejoin:miter;stroke-miterlimit:4;stroke-opacity:1;stroke-dasharray:none" />
      <path
         transform="matrix(-0.64220185,0,0,0.64220185,269.79361,550.18921)"
         d="m 49.285714,722.00507 c 0,3.74764 -3.038068,6.78571 -6.785714,6.78571 -3.747646,0 -6.785714,-3.03807 -6.785714,-6.78571 0,-3.74765 3.038068,-6.78572 6.785714,-6.78572 3.747646,0 6.785714,3.03807 6.785714,6.78572 z"
         sodipodi:ry="6.7857141"
         sodipodi:rx="6.7857141"
         sodipodi:cy="722.00507"
         sodipodi:cx="42.5"
         id="path5222-5"
         style="fill:#ffffff;stroke:#000000;stroke-width:2;stroke-linejoin:miter;stroke-miterlimit:4;stroke-opacity:1;stroke-dasharray:none"
         sodipodi:type="arc" />
      <path
         transform="matrix(-0.64220185,0,0,0.64220185,244.79361,575.18922)"
         d="m 49.285714,722.00507 c 0,3.74764 -3.038068,6.78571 -6.785714,6.78571 -3.747646,0 -6.785714,-3.03807 -6.785714,-6.78571 0,-3.74765 3.038068,-6.78572 6.785714,-6.78572 3.747646,0 6.785714,3.03807 6.785714,6.78572 z"
         sodipodi:ry="6.7857141"
         sodipodi:rx="6.7857141"
         sodipodi:cy="722.00507"
         sodipodi:cx="42.5"
         id="path5222-3-7"
         style="fill:#ffffff;stroke:#000000;stroke-width:2;stroke-linejoin:miter;stroke-miterlimit:4;stroke-opacity:1;stroke-dasharray:none"
         sodipodi:type="arc" />
      <path
         transform="matrix(-0.64220185,0,0,0.64220185,219.79361,550.18921)"
         d="m 49.285714,722.00507 c 0,3.74764 -3.038068,6.78571 -6.785714,6.78571 -3.747646,0 -6.785714,-3.03807 -6.785714,-6.78571 0,-3.74765 3.038068,-6.78572 6.785714,-6.78572 3.747646,0 6.785714,3.03807 6.785714,6.78572 z"
         sodipodi:ry="6.7857141"
         sodipodi:rx="6.7857141"
         sodipodi:cy="722.00507"
         sodipodi:cx="42.5"
         id="path5222-3-1-8"
         style="fill:#ffffff;stroke:#000000;stroke-width:2;stroke-linejoin:miter;stroke-miterlimit:4;stroke-opacity:1;stroke-dasharray:none"
         sodipodi:type="arc" />
      <path
         transform="matrix(-0.64220185,0,0,0.64220185,194.79361,575.18922)"
         d="m 49.285714,722.00507 c 0,3.74764 -3.038068,6.78571 -6.785714,6.78571 -3.747646,0 -6.785714,-3.03807 -6.785714,-6.78571 0,-3.74765 3.038068,-6.78572 6.785714,-6.78572 3.747646,0 6.785714,3.03807 6.785714,6.78572 z"
         sodipodi:ry="6.7857141"
         sodipodi:rx="6.7857141"
         sodipodi:cy="722.00507"
         sodipodi:cx="42.5"
         id="path5222-3-1-6-2"
         style="fill:#ffffff;stroke:#000000;stroke-width:2;stroke-linejoin:miter;stroke-miterlimit:4;stroke-opacity:1;stroke-dasharray:none"
         sodipodi:type="arc" />
      <path
         transform="matrix(-0.64220185,0,0,0.64220185,269.79361,500.18921)"
         d="m 49.285714,722.00507 c 0,3.74764 -3.038068,6.78571 -6.785714,6.78571 -3.747646,0 -6.785714,-3.03807 -6.785714,-6.78571 0,-3.74765 3.038068,-6.78572 6.785714,-6.78572 3.747646,0 6.785714,3.03807 6.785714,6.78572 z"
         sodipodi:ry="6.7857141"
         sodipodi:rx="6.7857141"
         sodipodi:cy="722.00507"
         sodipodi:cx="42.5"
         id="path5222-8-78"
         style="fill:#ffffff;stroke:#000000;stroke-width:2;stroke-linejoin:miter;stroke-miterlimit:4;stroke-opacity:1;stroke-dasharray:none"
         sodipodi:type="arc" />
      <path
         transform="matrix(-0.64220185,0,0,0.64220185,244.79361,525.18921)"
         d="m 49.285714,722.00507 c 0,3.74764 -3.038068,6.78571 -6.785714,6.78571 -3.747646,0 -6.785714,-3.03807 -6.785714,-6.78571 0,-3.74765 3.038068,-6.78572 6.785714,-6.78572 3.747646,0 6.785714,3.03807 6.785714,6.78572 z"
         sodipodi:ry="6.7857141"
         sodipodi:rx="6.7857141"
         sodipodi:cy="722.00507"
         sodipodi:cx="42.5"
         id="path5222-8-8-0"
         style="fill:#ffffff;stroke:#000000;stroke-width:2;stroke-linejoin:miter;stroke-miterlimit:4;stroke-opacity:1;stroke-dasharray:none"
         sodipodi:type="arc" />
      <path
         transform="matrix(-0.64220185,0,0,0.64220185,219.79361,500.18921)"
         d="m 49.285714,722.00507 c 0,3.74764 -3.038068,6.78571 -6.785714,6.78571 -3.747646,0 -6.785714,-3.03807 -6.785714,-6.78571 0,-3.74765 3.038068,-6.78572 6.785714,-6.78572 3.747646,0 6.785714,3.03807 6.785714,6.78572 z"
         sodipodi:ry="6.7857141"
         sodipodi:rx="6.7857141"
         sodipodi:cy="722.00507"
         sodipodi:cx="42.5"
         id="path5222-8-2-2"
         style="fill:#ffffff;stroke:#000000;stroke-width:2;stroke-linejoin:miter;stroke-miterlimit:4;stroke-opacity:1;stroke-dasharray:none"
         sodipodi:type="arc" />
      <path
         transform="matrix(-0.64220185,0,0,0.64220185,194.79361,525.18921)"
         d="m 49.285714,722.00507 c 0,3.74764 -3.038068,6.78571 -6.785714,6.78571 -3.747646,0 -6.785714,-3.03807 -6.785714,-6.78571 0,-3.74765 3.038068,-6.78572 6.785714,-6.78572 3.747646,0 6.785714,3.03807 6.785714,6.78572 z"
         sodipodi:ry="6.7857141"
         sodipodi:rx="6.7857141"
         sodipodi:cy="722.00507"
         sodipodi:cx="42.5"
         id="path5222-8-7-0"
         style="fill:#ffffff;stroke:#000000;stroke-width:2;stroke-linejoin:miter;stroke-miterlimit:4;stroke-opacity:1;stroke-dasharray:none"
         sodipodi:type="arc" />
      <path
         transform="matrix(-0.64220185,0,0,0.64220185,269.79361,450.18921)"
         d="m 49.285714,722.00507 c 0,3.74764 -3.038068,6.78571 -6.785714,6.78571 -3.747646,0 -6.785714,-3.03807 -6.785714,-6.78571 0,-3.74765 3.038068,-6.78572 6.785714,-6.78572 3.747646,0 6.785714,3.03807 6.785714,6.78572 z"
         sodipodi:ry="6.7857141"
         sodipodi:rx="6.7857141"
         sodipodi:cy="722.00507"
         sodipodi:cx="42.5"
         id="path5222-8-71-8"
         style="fill:#ffffff;stroke:#000000;stroke-width:2;stroke-linejoin:miter;stroke-miterlimit:4;stroke-opacity:1;stroke-dasharray:none"
         sodipodi:type="arc" />
      <path
         transform="matrix(-0.64220185,0,0,0.64220185,244.79361,475.18921)"
         d="m 49.285714,722.00507 c 0,3.74764 -3.038068,6.78571 -6.785714,6.78571 -3.747646,0 -6.785714,-3.03807 -6.785714,-6.78571 0,-3.74765 3.038068,-6.78572 6.785714,-6.78572 3.747646,0 6.785714,3.03807 6.785714,6.78572 z"
         sodipodi:ry="6.7857141"
         sodipodi:rx="6.7857141"
         sodipodi:cy="722.00507"
         sodipodi:cx="42.5"
         id="path5222-8-26-9"
         style="fill:#ffffff;stroke:#000000;stroke-width:2;stroke-linejoin:miter;stroke-miterlimit:4;stroke-opacity:1;stroke-dasharray:none"
         sodipodi:type="arc" />
      <path
         transform="matrix(-0.64220185,0,0,0.64220185,219.79361,450.18921)"
         d="m 49.285714,722.00507 c 0,3.74764 -3.038068,6.78571 -6.785714,6.78571 -3.747646,0 -6.785714,-3.03807 -6.785714,-6.78571 0,-3.74765 3.038068,-6.78572 6.785714,-6.78572 3.747646,0 6.785714,3.03807 6.785714,6.78572 z"
         sodipodi:ry="6.7857141"
         sodipodi:rx="6.7857141"
         sodipodi:cy="722.00507"
         sodipodi:cx="42.5"
         id="path5222-8-0-2"
         style="fill:#ffffff;stroke:#000000;stroke-width:2;stroke-linejoin:miter;stroke-miterlimit:4;stroke-opacity:1;stroke-dasharray:none"
         sodipodi:type="arc" />
      <path
         transform="matrix(-0.64220185,0,0,0.64220185,194.79361,475.18921)"
         d="m 49.285714,722.00507 c 0,3.74764 -3.038068,6.78571 -6.785714,6.78571 -3.747646,0 -6.785714,-3.03807 -6.785714,-6.78571 0,-3.74765 3.038068,-6.78572 6.785714,-6.78572 3.747646,0 6.785714,3.03807 6.785714,6.78572 z"
         sodipodi:ry="6.7857141"
         sodipodi:rx="6.7857141"
         sodipodi:cy="722.00507"
         sodipodi:cx="42.5"
         id="path5222-8-4-8"
         style="fill:#ffffff;stroke:#000000;stroke-width:2;stroke-linejoin:miter;stroke-miterlimit:4;stroke-opacity:1;stroke-dasharray:none"
         sodipodi:type="arc" />
      <path
         transform="matrix(-0.64220185,0,0,0.64220185,269.79361,350.18921)"
         d="m 49.285714,722.00507 c 0,3.74764 -3.038068,6.78571 -6.785714,6.78571 -3.747646,0 -6.785714,-3.03807 -6.785714,-6.78571 0,-3.74765 3.038068,-6.78572 6.785714,-6.78572 3.747646,0 6.785714,3.03807 6.785714,6.78572 z"
         sodipodi:ry="6.7857141"
         sodipodi:rx="6.7857141"
         sodipodi:cy="722.00507"
         sodipodi:cx="42.5"
         id="path5222-8-9-2"
         style="fill:#ffffff;stroke:#000000;stroke-width:2;stroke-linejoin:miter;stroke-miterlimit:4;stroke-opacity:1;stroke-dasharray:none"
         sodipodi:type="arc" />
      <path
         transform="matrix(-0.64220185,0,0,0.64220185,244.79361,425.18921)"
         d="m 49.285714,722.00507 c 0,3.74764 -3.038068,6.78571 -6.785714,6.78571 -3.747646,0 -6.785714,-3.03807 -6.785714,-6.78571 0,-3.74765 3.038068,-6.78572 6.785714,-6.78572 3.747646,0 6.785714,3.03807 6.785714,6.78572 z"
         sodipodi:ry="6.7857141"
         sodipodi:rx="6.7857141"
         sodipodi:cy="722.00507"
         sodipodi:cx="42.5"
         id="path5222-8-46-0"
         style="fill:#ffffff;stroke:#000000;stroke-width:2;stroke-linejoin:miter;stroke-miterlimit:4;stroke-opacity:1;stroke-dasharray:none"
         sodipodi:type="arc" />
      <path
         transform="matrix(-0.64220185,0,0,0.64220185,219.79361,400.18921)"
         d="m 49.285714,722.00507 c 0,3.74764 -3.038068,6.78571 -6.785714,6.78571 -3.747646,0 -6.785714,-3.03807 -6.785714,-6.78571 0,-3.74765 3.038068,-6.78572 6.785714,-6.78572 3.747646,0 6.785714,3.03807 6.785714,6.78572 z"
         sodipodi:ry="6.7857141"
         sodipodi:rx="6.7857141"
         sodipodi:cy="722.00507"
         sodipodi:cx="42.5"
         id="path5222-8-03-5"
         style="fill:#ffffff;stroke:#000000;stroke-width:2;stroke-linejoin:miter;stroke-miterlimit:4;stroke-opacity:1;stroke-dasharray:none"
         sodipodi:type="arc" />
      <path
         transform="matrix(-0.64220185,0,0,0.64220185,194.79361,425.18921)"
         d="m 49.285714,722.00507 c 0,3.74764 -3.038068,6.78571 -6.785714,6.78571 -3.747646,0 -6.785714,-3.03807 -6.785714,-6.78571 0,-3.74765 3.038068,-6.78572 6.785714,-6.78572 3.747646,0 6.785714,3.03807 6.785714,6.78572 z"
         sodipodi:ry="6.7857141"
         sodipodi:rx="6.7857141"
         sodipodi:cy="722.00507"
         sodipodi:cx="42.5"
         id="path5222-8-6-5"
         style="fill:#ffffff;stroke:#000000;stroke-width:2;stroke-linejoin:miter;stroke-miterlimit:4;stroke-opacity:1;stroke-dasharray:none"
         sodipodi:type="arc" />
      <path
         transform="matrix(-0.64220185,0,0,0.64220185,269.79361,400.18921)"
         d="m 49.285714,722.00507 c 0,3.74764 -3.038068,6.78571 -6.785714,6.78571 -3.747646,0 -6.785714,-3.03807 -6.785714,-6.78571 0,-3.74765 3.038068,-6.78572 6.785714,-6.78572 3.747646,0 6.785714,3.03807 6.785714,6.78572 z"
         sodipodi:ry="6.7857141"
         sodipodi:rx="6.7857141"
         sodipodi:cy="722.00507"
         sodipodi:cx="42.5"
         id="path5222-8-24-2"
         style="fill:#ffffff;stroke:#000000;stroke-width:2;stroke-linejoin:miter;stroke-miterlimit:4;stroke-opacity:1;stroke-dasharray:none"
         sodipodi:type="arc" />
      <path
         transform="matrix(-0.64220185,0,0,0.64220185,244.79361,375.18921)"
         d="m 49.285714,722.00507 c 0,3.74764 -3.038068,6.78571 -6.785714,6.78571 -3.747646,0 -6.785714,-3.03807 -6.785714,-6.78571 0,-3.74765 3.038068,-6.78572 6.785714,-6.78572 3.747646,0 6.785714,3.03807 6.785714,6.78572 z"
         sodipodi:ry="6.7857141"
         sodipodi:rx="6.7857141"
         sodipodi:cy="722.00507"
         sodipodi:cx="42.5"
         id="path5222-8-5-7"
         style="fill:#ffffff;stroke:#000000;stroke-width:2;stroke-linejoin:miter;stroke-miterlimit:4;stroke-opacity:1;stroke-dasharray:none"
         sodipodi:type="arc" />
      <path
         transform="matrix(-0.64220185,0,0,0.64220185,219.79361,350.18921)"
         d="m 49.285714,722.00507 c 0,3.74764 -3.038068,6.78571 -6.785714,6.78571 -3.747646,0 -6.785714,-3.03807 -6.785714,-6.78571 0,-3.74765 3.038068,-6.78572 6.785714,-6.78572 3.747646,0 6.785714,3.03807 6.785714,6.78572 z"
         sodipodi:ry="6.7857141"
         sodipodi:rx="6.7857141"
         sodipodi:cy="722.00507"
         sodipodi:cx="42.5"
         id="path5222-8-88-6"
         style="fill:#ffffff;stroke:#000000;stroke-width:2;stroke-linejoin:miter;stroke-miterlimit:4;stroke-opacity:1;stroke-dasharray:none"
         sodipodi:type="arc" />
      <path
         transform="matrix(-0.64220185,0,0,0.64220185,194.79361,375.18921)"
         d="m 49.285714,722.00507 c 0,3.74764 -3.038068,6.78571 -6.785714,6.78571 -3.747646,0 -6.785714,-3.03807 -6.785714,-6.78571 0,-3.74765 3.038068,-6.78572 6.785714,-6.78572 3.747646,0 6.785714,3.03807 6.785714,6.78572 z"
         sodipodi:ry="6.7857141"
         sodipodi:rx="6.7857141"
         sodipodi:cy="722.00507"
         sodipodi:cx="42.5"
         id="path5222-8-1-7"
         style="fill:#ffffff;stroke:#000000;stroke-width:2;stroke-linejoin:miter;stroke-miterlimit:4;stroke-opacity:1;stroke-dasharray:none"
         sodipodi:type="arc" />
      <path
         transform="matrix(-0.64220185,0,0,0.64220185,269.79361,300.18921)"
         d="m 49.285714,722.00507 c 0,3.74764 -3.038068,6.78571 -6.785714,6.78571 -3.747646,0 -6.785714,-3.03807 -6.785714,-6.78571 0,-3.74765 3.038068,-6.78572 6.785714,-6.78572 3.747646,0 6.785714,3.03807 6.785714,6.78572 z"
         sodipodi:ry="6.7857141"
         sodipodi:rx="6.7857141"
         sodipodi:cy="722.00507"
         sodipodi:cx="42.5"
         id="path5222-8-21-8"
         style="fill:#ffffff;stroke:#000000;stroke-width:2;stroke-linejoin:miter;stroke-miterlimit:4;stroke-opacity:1;stroke-dasharray:none"
         sodipodi:type="arc" />
      <path
         transform="matrix(-0.64220185,0,0,0.64220185,244.79361,325.18921)"
         d="m 49.285714,722.00507 c 0,3.74764 -3.038068,6.78571 -6.785714,6.78571 -3.747646,0 -6.785714,-3.03807 -6.785714,-6.78571 0,-3.74765 3.038068,-6.78572 6.785714,-6.78572 3.747646,0 6.785714,3.03807 6.785714,6.78572 z"
         sodipodi:ry="6.7857141"
         sodipodi:rx="6.7857141"
         sodipodi:cy="722.00507"
         sodipodi:cx="42.5"
         id="path5222-8-49-7"
         style="fill:#ffffff;stroke:#000000;stroke-width:2;stroke-linejoin:miter;stroke-miterlimit:4;stroke-opacity:1;stroke-dasharray:none"
         sodipodi:type="arc" />
      <path
         transform="matrix(-0.64220185,0,0,0.64220185,219.79361,300.18921)"
         d="m 49.285714,722.00507 c 0,3.74764 -3.038068,6.78571 -6.785714,6.78571 -3.747646,0 -6.785714,-3.03807 -6.785714,-6.78571 0,-3.74765 3.038068,-6.78572 6.785714,-6.78572 3.747646,0 6.785714,3.03807 6.785714,6.78572 z"
         sodipodi:ry="6.7857141"
         sodipodi:rx="6.7857141"
         sodipodi:cy="722.00507"
         sodipodi:cx="42.5"
         id="path5222-8-82-8"
         style="fill:#ffffff;stroke:#000000;stroke-width:2;stroke-linejoin:miter;stroke-miterlimit:4;stroke-opacity:1;stroke-dasharray:none"
         sodipodi:type="arc" />
      <path
         transform="matrix(-0.64220185,0,0,0.64220185,194.79361,325.18921)"
         d="m 49.285714,722.00507 c 0,3.74764 -3.038068,6.78571 -6.785714,6.78571 -3.747646,0 -6.785714,-3.03807 -6.785714,-6.78571 0,-3.74765 3.038068,-6.78572 6.785714,-6.78572 3.747646,0 6.785714,3.03807 6.785714,6.78572 z"
         sodipodi:ry="6.7857141"
         sodipodi:rx="6.7857141"
         sodipodi:cy="722.00507"
         sodipodi:cx="42.5"
         id="path5222-8-45-1"
         style="fill:#ffffff;stroke:#000000;stroke-width:2;stroke-linejoin:miter;stroke-miterlimit:4;stroke-opacity:1;stroke-dasharray:none"
         sodipodi:type="arc" />
      <path
         transform="matrix(-0.64220185,0,0,0.64220185,269.79361,250.18921)"
         d="m 49.285714,722.00507 c 0,3.74764 -3.038068,6.78571 -6.785714,6.78571 -3.747646,0 -6.785714,-3.03807 -6.785714,-6.78571 0,-3.74765 3.038068,-6.78572 6.785714,-6.78572 3.747646,0 6.785714,3.03807 6.785714,6.78572 z"
         sodipodi:ry="6.7857141"
         sodipodi:rx="6.7857141"
         sodipodi:cy="722.00507"
         sodipodi:cx="42.5"
         id="path5222-8-29-6"
         style="fill:#ffffff;stroke:#000000;stroke-width:2;stroke-linejoin:miter;stroke-miterlimit:4;stroke-opacity:1;stroke-dasharray:none"
         sodipodi:type="arc" />
      <path
         transform="matrix(-0.64220185,0,0,0.64220185,244.79361,225.18921)"
         d="m 49.285714,722.00507 c 0,3.74764 -3.038068,6.78571 -6.785714,6.78571 -3.747646,0 -6.785714,-3.03807 -6.785714,-6.78571 0,-3.74765 3.038068,-6.78572 6.785714,-6.78572 3.747646,0 6.785714,3.03807 6.785714,6.78572 z"
         sodipodi:ry="6.7857141"
         sodipodi:rx="6.7857141"
         sodipodi:cy="722.00507"
         sodipodi:cx="42.5"
         id="path5222-8-98-0"
         style="fill:#ffffff;stroke:#000000;stroke-width:2;stroke-linejoin:miter;stroke-miterlimit:4;stroke-opacity:1;stroke-dasharray:none"
         sodipodi:type="arc" />
      <path
         transform="matrix(-0.64220185,0,0,0.64220185,219.79361,200.18921)"
         d="m 49.285714,722.00507 c 0,3.74764 -3.038068,6.78571 -6.785714,6.78571 -3.747646,0 -6.785714,-3.03807 -6.785714,-6.78571 0,-3.74765 3.038068,-6.78572 6.785714,-6.78572 3.747646,0 6.785714,3.03807 6.785714,6.78572 z"
         sodipodi:ry="6.7857141"
         sodipodi:rx="6.7857141"
         sodipodi:cy="722.00507"
         sodipodi:cx="42.5"
         id="path5222-8-3-9"
         style="fill:#ffffff;stroke:#000000;stroke-width:2;stroke-linejoin:miter;stroke-miterlimit:4;stroke-opacity:1;stroke-dasharray:none"
         sodipodi:type="arc" />
      <path
         transform="matrix(-0.64220185,0,0,0.64220185,194.79361,225.18921)"
         d="m 49.285714,722.00507 c 0,3.74764 -3.038068,6.78571 -6.785714,6.78571 -3.747646,0 -6.785714,-3.03807 -6.785714,-6.78571 0,-3.74765 3.038068,-6.78572 6.785714,-6.78572 3.747646,0 6.785714,3.03807 6.785714,6.78572 z"
         sodipodi:ry="6.7857141"
         sodipodi:rx="6.7857141"
         sodipodi:cy="722.00507"
         sodipodi:cx="42.5"
         id="path5222-8-86-5"
         style="fill:#ffffff;stroke:#000000;stroke-width:2;stroke-linejoin:miter;stroke-miterlimit:4;stroke-opacity:1;stroke-dasharray:none"
         sodipodi:type="arc" />
      <path
         transform="matrix(-0.64220185,0,0,0.64220185,269.79361,200.18921)"
         d="m 49.285714,722.00507 c 0,3.74764 -3.038068,6.78571 -6.785714,6.78571 -3.747646,0 -6.785714,-3.03807 -6.785714,-6.78571 0,-3.74765 3.038068,-6.78572 6.785714,-6.78572 3.747646,0 6.785714,3.03807 6.785714,6.78572 z"
         sodipodi:ry="6.7857141"
         sodipodi:rx="6.7857141"
         sodipodi:cy="722.00507"
         sodipodi:cx="42.5"
         id="path5222-8-986-8"
         style="fill:#ffffff;stroke:#000000;stroke-width:2;stroke-linejoin:miter;stroke-miterlimit:4;stroke-opacity:1;stroke-dasharray:none"
         sodipodi:type="arc" />
      <path
         transform="matrix(-0.64220185,0,0,0.64220185,245.79361,275.18921)"
         d="m 49.285714,722.00507 c 0,3.74764 -3.038068,6.78571 -6.785714,6.78571 -3.747646,0 -6.785714,-3.03807 -6.785714,-6.78571 0,-3.74765 3.038068,-6.78572 6.785714,-6.78572 3.747646,0 6.785714,3.03807 6.785714,6.78572 z"
         sodipodi:ry="6.7857141"
         sodipodi:rx="6.7857141"
         sodipodi:cy="722.00507"
         sodipodi:cx="42.5"
         id="path5222-8-62-9"
         style="fill:#ffffff;stroke:#000000;stroke-width:2;stroke-linejoin:miter;stroke-miterlimit:4;stroke-opacity:1;stroke-dasharray:none"
         sodipodi:type="arc" />
      <path
         transform="matrix(-0.64220185,0,0,0.64220185,219.79361,250.18921)"
         d="m 49.285714,722.00507 c 0,3.74764 -3.038068,6.78571 -6.785714,6.78571 -3.747646,0 -6.785714,-3.03807 -6.785714,-6.78571 0,-3.74765 3.038068,-6.78572 6.785714,-6.78572 3.747646,0 6.785714,3.03807 6.785714,6.78572 z"
         sodipodi:ry="6.7857141"
         sodipodi:rx="6.7857141"
         sodipodi:cy="722.00507"
         sodipodi:cx="42.5"
         id="path5222-8-38-0"
         style="fill:#ffffff;stroke:#000000;stroke-width:2;stroke-linejoin:miter;stroke-miterlimit:4;stroke-opacity:1;stroke-dasharray:none"
         sodipodi:type="arc" />
      <path
         transform="matrix(-0.64220185,0,0,0.64220185,194.79361,275.18921)"
         d="m 49.285714,722.00507 c 0,3.74764 -3.038068,6.78571 -6.785714,6.78571 -3.747646,0 -6.785714,-3.03807 -6.785714,-6.78571 0,-3.74765 3.038068,-6.78572 6.785714,-6.78572 3.747646,0 6.785714,3.03807 6.785714,6.78572 z"
         sodipodi:ry="6.7857141"
         sodipodi:rx="6.7857141"
         sodipodi:cy="722.00507"
         sodipodi:cx="42.5"
         id="path5222-8-262-0"
         style="fill:#ffffff;stroke:#000000;stroke-width:2;stroke-linejoin:miter;stroke-miterlimit:4;stroke-opacity:1;stroke-dasharray:none"
         sodipodi:type="arc" />
    </g>
    <path
       style="fill:#0000ff;stroke:#0000ff;stroke-width:1.12923646;stroke-linecap:butt;stroke-linejoin:miter;stroke-miterlimit:4;stroke-opacity:1;stroke-dasharray:none;marker-start:url(#Arrow1Mstart);marker-end:none"
       d="m 98.090929,663.36218 31.138801,0"
       id="path5673"
       inkscape:connector-curvature="0" />
    <path
       style="fill:#0000ff;stroke:#0000ff;stroke-width:1.02234709;stroke-linecap:butt;stroke-linejoin:miter;stroke-opacity:1;stroke-miterlimit:4;stroke-dasharray:6.13408256,6.13408256;stroke-dashoffset:0"
       d="m 92.5,668.86218 0,90.98889"
       id="path5675"
       inkscape:connector-curvature="0" />
    <path
       style="fill:none;stroke:#0000ff;stroke-width:1px;stroke-linecap:butt;stroke-linejoin:miter;stroke-opacity:1"
       d="m 90.5,767.36218 -46.5,92"
       id="path5677"
       inkscape:connector-curvature="0" />
    <path
       style="fill:none;stroke:#0000ff;stroke-width:1;stroke-linecap:butt;stroke-linejoin:miter;stroke-opacity:1;stroke-miterlimit:4;stroke-dasharray:6,6;stroke-dashoffset:0"
       d="m 42,868.36218 0,40.5"
       id="path5679"
       inkscape:connector-curvature="0" />
    <path
       style="fill:none;stroke:#0000ff;stroke-width:1.05333328px;stroke-linecap:butt;stroke-linejoin:miter;stroke-opacity:1"
       d="m 46.026667,916.38885 18.696666,18.69666"
       id="path5681"
       inkscape:connector-curvature="0" />
    <path
       style="fill:none;stroke:#0000ff;stroke-width:1;stroke-linecap:butt;stroke-linejoin:miter;stroke-opacity:1;stroke-miterlimit:4;stroke-dasharray:6,6;stroke-dashoffset:0"
       d="M 65.5,943.36218 44,1009.8622"
       id="path5683"
       inkscape:connector-curvature="0" />
    <path
       style="fill:none;stroke:#ff0000;stroke-width:1.14389336000000010px;stroke-linecap:butt;stroke-linejoin:miter;stroke-opacity:1;marker-start:url(#Arrow1Mstart)"
       d="m 47,664.36218 25.515595,0"
       id="path5685"
       inkscape:connector-curvature="0" />
    <path
       style="fill:none;stroke:#ff0000;stroke-width:1;stroke-linecap:butt;stroke-linejoin:miter;stroke-opacity:1;stroke-miterlimit:4;stroke-dasharray:6,6;stroke-dashoffset:0"
       d="m 42,668.36218 24,66"
       id="path5687"
       inkscape:connector-curvature="0" />
    <path
       style="fill:none;stroke:#ff0000;stroke-width:1px;stroke-linecap:butt;stroke-linejoin:miter;stroke-opacity:1"
       d="m 66,741.86218 -48,92"
       id="path5689"
       inkscape:connector-curvature="0" />
    <path
       style="fill:none;stroke:#ff0000;stroke-width:1;stroke-linecap:butt;stroke-linejoin:miter;stroke-opacity:1;stroke-miterlimit:4;stroke-dasharray:6,6;stroke-dashoffset:0"
       d="m 17,843.86218 0,89"
       id="path5691"
       inkscape:connector-curvature="0" />
    <path
       style="fill:none;stroke:#ff0000;stroke-width:1.03448272000000000px;stroke-linecap:butt;stroke-linejoin:miter;stroke-opacity:1"
       d="m 20.517241,942.37942 43.965518,43.96552"
       id="path5693"
       inkscape:connector-curvature="0" />
    <path
       style="fill:none;stroke:#ff0000;stroke-width:1;stroke-linecap:butt;stroke-linejoin:miter;stroke-opacity:1;stroke-miterlimit:4;stroke-dasharray:6,6;stroke-dashoffset:0"
       d="m 67.5,993.86218 0,39.50002"
       id="path5695"
       inkscape:connector-curvature="0" />
    <path
       style="fill:none;stroke:#009600;stroke-width:1.10431528000000000px;stroke-linecap:butt;stroke-linejoin:miter;stroke-opacity:1;marker-start:url(#Arrow1Mstart)"
       d="m 22,688.86218 25,0"
       id="path5697"
       inkscape:connector-curvature="0" />
    <path
       style="fill:none;stroke:#009600;stroke-width:1;stroke-linecap:butt;stroke-linejoin:miter;stroke-opacity:1;stroke-miterlimit:4;stroke-dasharray:6,6;stroke-dashoffset:0"
       d="m 17.5,693.36218 0,40.5"
       id="path5699"
       inkscape:connector-curvature="0" />
    <path
       style="fill:none;stroke:#009600;stroke-width:1.01212167999999990px;stroke-linecap:butt;stroke-linejoin:miter;stroke-opacity:1"
       d="m 17.5,743.37438 0,40.9756"
       id="path5701"
       inkscape:connector-curvature="0" />
    <path
       style="fill:none;stroke:#009600;stroke-width:1.03468204;stroke-linecap:butt;stroke-linejoin:miter;stroke-opacity:1;stroke-miterlimit:4;stroke-dasharray:6.20809221,6.20809221;stroke-dashoffset:0"
       d="m 20.517341,791.87952 43.715318,43.71532"
       id="path5703"
       inkscape:connector-curvature="0" />
    <path
       style="fill:none;stroke:#009600;stroke-width:1.06903863000000010px;stroke-linecap:butt;stroke-linejoin:miter;stroke-opacity:1"
       d="m 70.03452,842.8967 21.121187,66.81781"
       id="path5705"
       inkscape:connector-curvature="0" />
    <path
       style="fill:none;stroke:#009600;stroke-width:1;stroke-linecap:butt;stroke-linejoin:miter;stroke-opacity:1;stroke-miterlimit:4;stroke-dasharray:6,6;stroke-dashoffset:0"
       d="m 92.5,917.86218 0,91.00002"
       id="path5707"
       inkscape:connector-curvature="0" />
    <path
       style="fill:#0000ff;stroke:#0000ff;stroke-width:1.12923646;stroke-linecap:butt;stroke-linejoin:miter;stroke-miterlimit:4;stroke-opacity:1;stroke-dasharray:none;marker-start:url(#Arrow1Mstart);marker-end:none"
       d="m 6.854063,1013.8622 31.138797,0"
       id="path5673-2"
       inkscape:connector-curvature="0" />
    <path
       style="fill:none;stroke:#ff0000;stroke-width:1.14389336000000010px;stroke-linecap:butt;stroke-linejoin:miter;stroke-opacity:1;marker-start:url(#Arrow1Mstart)"
       d="m 37.171162,1038.8622 25.515596,0"
       id="path5685-2"
       inkscape:connector-curvature="0" />
    <path
       style="fill:none;stroke:#009600;stroke-width:1.14389336000000010px;stroke-linecap:butt;stroke-linejoin:miter;stroke-opacity:1;marker-start:url(#Arrow1Mstart)"
       d="m 62.671162,1013.8622 25.515596,0"
       id="path5685-8"
       inkscape:connector-curvature="0" />
  </g>
</svg>
