<?xml version="1.0" encoding="UTF-8" standalone="no"?>
<!-- Created with Inkscape (http://www.inkscape.org/) -->

<svg
   xmlns:dc="http://purl.org/dc/elements/1.1/"
   xmlns:cc="http://creativecommons.org/ns#"
   xmlns:rdf="http://www.w3.org/1999/02/22-rdf-syntax-ns#"
   xmlns:svg="http://www.w3.org/2000/svg"
   xmlns="http://www.w3.org/2000/svg"
   xmlns:sodipodi="http://sodipodi.sourceforge.net/DTD/sodipodi-0.dtd"
   xmlns:inkscape="http://www.inkscape.org/namespaces/inkscape"
   width="744.09448819"
   height="1052.3622047"
   id="svg2"
   version="1.1"
   inkscape:version="0.48.2 r9819"
   sodipodi:docname="New document 1">
  <defs
     id="defs4" />
  <sodipodi:namedview
     id="base"
     pagecolor="#ffffff"
     bordercolor="#666666"
     borderopacity="1.0"
     inkscape:pageopacity="0.0"
     inkscape:pageshadow="2"
     inkscape:zoom="2"
     inkscape:cx="112.73752"
     inkscape:cy="260.40219"
     inkscape:document-units="px"
     inkscape:current-layer="layer1"
     showgrid="false"
     inkscape:window-width="1920"
     inkscape:window-height="1017"
     inkscape:window-x="1912"
     inkscape:window-y="-8"
     inkscape:window-maximized="1" />
  <metadata
     id="metadata7">
    <rdf:RDF>
      <cc:Work
         rdf:about="">
        <dc:format>image/svg+xml</dc:format>
        <dc:type
           rdf:resource="http://purl.org/dc/dcmitype/StillImage" />
        <dc:title></dc:title>
      </cc:Work>
    </rdf:RDF>
  </metadata>
  <g
     inkscape:label="Layer 1"
     inkscape:groupmode="layer"
     id="layer1">
    <rect
       style="fill:#f2f2f2;fill-rule:evenodd;stroke:#000000;stroke-width:2.08525133;stroke-linecap:butt;stroke-linejoin:miter;stroke-miterlimit:4;stroke-opacity:1;stroke-dasharray:none"
       id="rect2985"
       width="107.91475"
       height="399.16489"
       x="1.0426257"
       y="652.15466"
       rx="9.444438e-018" />
    <path
       sodipodi:type="arc"
       style="fill:#ffffff;stroke:#000000;stroke-width:2;stroke-linejoin:miter;stroke-miterlimit:4;stroke-opacity:1;stroke-dasharray:none"
       id="path5222"
       sodipodi:cx="42.5"
       sodipodi:cy="722.00507"
       sodipodi:rx="6.7857141"
       sodipodi:ry="6.7857141"
       d="m 49.285714,722.00507 a 6.7857141,6.7857141 0 1 1 -13.571428,0 6.7857141,6.7857141 0 1 1 13.571428,0 z"
       transform="matrix(0.64220185,0,0,0.64220185,-9.7935786,550.18919)" />
    <path
       sodipodi:type="arc"
       style="fill:#ffffff;stroke:#000000;stroke-width:2;stroke-linejoin:miter;stroke-miterlimit:4;stroke-opacity:1;stroke-dasharray:none"
       id="path5222-3"
       sodipodi:cx="42.5"
       sodipodi:cy="722.00507"
       sodipodi:rx="6.7857141"
       sodipodi:ry="6.7857141"
       d="m 49.285714,722.00507 a 6.7857141,6.7857141 0 1 1 -13.571428,0 6.7857141,6.7857141 0 1 1 13.571428,0 z"
       transform="matrix(0.64220185,0,0,0.64220185,15.206421,575.18919)" />
    <path
       sodipodi:type="arc"
       style="fill:#ffffff;stroke:#000000;stroke-width:2;stroke-linejoin:miter;stroke-miterlimit:4;stroke-opacity:1;stroke-dasharray:none"
       id="path5222-3-1"
       sodipodi:cx="42.5"
       sodipodi:cy="722.00507"
       sodipodi:rx="6.7857141"
       sodipodi:ry="6.7857141"
       d="m 49.285714,722.00507 a 6.7857141,6.7857141 0 1 1 -13.571428,0 6.7857141,6.7857141 0 1 1 13.571428,0 z"
       transform="matrix(0.64220185,0,0,0.64220185,40.206421,550.18919)" />
    <path
       sodipodi:type="arc"
       style="fill:#ffffff;stroke:#000000;stroke-width:2;stroke-linejoin:miter;stroke-miterlimit:4;stroke-opacity:1;stroke-dasharray:none"
       id="path5222-3-1-6"
       sodipodi:cx="42.5"
       sodipodi:cy="722.00507"
       sodipodi:rx="6.7857141"
       sodipodi:ry="6.7857141"
       d="m 49.285714,722.00507 a 6.7857141,6.7857141 0 1 1 -13.571428,0 6.7857141,6.7857141 0 1 1 13.571428,0 z"
       transform="matrix(0.64220185,0,0,0.64220185,65.206421,575.18919)" />
    <path
       sodipodi:type="arc"
       style="fill:#ffffff;stroke:#000000;stroke-width:2;stroke-linejoin:miter;stroke-miterlimit:4;stroke-opacity:1;stroke-dasharray:none"
       id="path5222-8"
       sodipodi:cx="42.5"
       sodipodi:cy="722.00507"
       sodipodi:rx="6.7857141"
       sodipodi:ry="6.7857141"
       d="m 49.285714,722.00507 a 6.7857141,6.7857141 0 1 1 -13.571428,0 6.7857141,6.7857141 0 1 1 13.571428,0 z"
       transform="matrix(0.64220185,0,0,0.64220185,-9.7935786,500.18919)" />
    <path
       sodipodi:type="arc"
       style="fill:#ffffff;stroke:#000000;stroke-width:2;stroke-linejoin:miter;stroke-miterlimit:4;stroke-opacity:1;stroke-dasharray:none"
       id="path5222-8-8"
       sodipodi:cx="42.5"
       sodipodi:cy="722.00507"
       sodipodi:rx="6.7857141"
       sodipodi:ry="6.7857141"
       d="m 49.285714,722.00507 a 6.7857141,6.7857141 0 1 1 -13.571428,0 6.7857141,6.7857141 0 1 1 13.571428,0 z"
       transform="matrix(0.64220185,0,0,0.64220185,15.206421,525.18919)" />
    <path
       sodipodi:type="arc"
       style="fill:#ffffff;stroke:#000000;stroke-width:2;stroke-linejoin:miter;stroke-miterlimit:4;stroke-opacity:1;stroke-dasharray:none"
       id="path5222-8-2"
       sodipodi:cx="42.5"
       sodipodi:cy="722.00507"
       sodipodi:rx="6.7857141"
       sodipodi:ry="6.7857141"
       d="m 49.285714,722.00507 a 6.7857141,6.7857141 0 1 1 -13.571428,0 6.7857141,6.7857141 0 1 1 13.571428,0 z"
       transform="matrix(0.64220185,0,0,0.64220185,40.206421,500.18919)" />
    <path
       sodipodi:type="arc"
       style="fill:#ffffff;stroke:#000000;stroke-width:2;stroke-linejoin:miter;stroke-miterlimit:4;stroke-opacity:1;stroke-dasharray:none"
       id="path5222-8-7"
       sodipodi:cx="42.5"
       sodipodi:cy="722.00507"
       sodipodi:rx="6.7857141"
       sodipodi:ry="6.7857141"
       d="m 49.285714,722.00507 a 6.7857141,6.7857141 0 1 1 -13.571428,0 6.7857141,6.7857141 0 1 1 13.571428,0 z"
       transform="matrix(0.64220185,0,0,0.64220185,65.206421,525.18919)" />
    <path
       sodipodi:type="arc"
       style="fill:#ffffff;stroke:#000000;stroke-width:2;stroke-linejoin:miter;stroke-miterlimit:4;stroke-opacity:1;stroke-dasharray:none"
       id="path5222-8-71"
       sodipodi:cx="42.5"
       sodipodi:cy="722.00507"
       sodipodi:rx="6.7857141"
       sodipodi:ry="6.7857141"
       d="m 49.285714,722.00507 a 6.7857141,6.7857141 0 1 1 -13.571428,0 6.7857141,6.7857141 0 1 1 13.571428,0 z"
       transform="matrix(0.64220185,0,0,0.64220185,-9.7935786,450.18919)" />
    <path
       sodipodi:type="arc"
       style="fill:#ffffff;stroke:#000000;stroke-width:2;stroke-linejoin:miter;stroke-miterlimit:4;stroke-opacity:1;stroke-dasharray:none"
       id="path5222-8-26"
       sodipodi:cx="42.5"
       sodipodi:cy="722.00507"
       sodipodi:rx="6.7857141"
       sodipodi:ry="6.7857141"
       d="m 49.285714,722.00507 a 6.7857141,6.7857141 0 1 1 -13.571428,0 6.7857141,6.7857141 0 1 1 13.571428,0 z"
       transform="matrix(0.64220185,0,0,0.64220185,15.206421,475.18919)" />
    <path
       sodipodi:type="arc"
       style="fill:#ffffff;stroke:#000000;stroke-width:2;stroke-linejoin:miter;stroke-miterlimit:4;stroke-opacity:1;stroke-dasharray:none"
       id="path5222-8-0"
       sodipodi:cx="42.5"
       sodipodi:cy="722.00507"
       sodipodi:rx="6.7857141"
       sodipodi:ry="6.7857141"
       d="m 49.285714,722.00507 a 6.7857141,6.7857141 0 1 1 -13.571428,0 6.7857141,6.7857141 0 1 1 13.571428,0 z"
       transform="matrix(0.64220185,0,0,0.64220185,40.206421,450.18919)" />
    <path
       sodipodi:type="arc"
       style="fill:#ffffff;stroke:#000000;stroke-width:2;stroke-linejoin:miter;stroke-miterlimit:4;stroke-opacity:1;stroke-dasharray:none"
       id="path5222-8-4"
       sodipodi:cx="42.5"
       sodipodi:cy="722.00507"
       sodipodi:rx="6.7857141"
       sodipodi:ry="6.7857141"
       d="m 49.285714,722.00507 a 6.7857141,6.7857141 0 1 1 -13.571428,0 6.7857141,6.7857141 0 1 1 13.571428,0 z"
       transform="matrix(0.64220185,0,0,0.64220185,65.206421,475.18919)" />
    <path
       sodipodi:type="arc"
       style="fill:#ffffff;stroke:#000000;stroke-width:2;stroke-linejoin:miter;stroke-miterlimit:4;stroke-opacity:1;stroke-dasharray:none"
       id="path5222-8-9"
       sodipodi:cx="42.5"
       sodipodi:cy="722.00507"
       sodipodi:rx="6.7857141"
       sodipodi:ry="6.7857141"
       d="m 49.285714,722.00507 a 6.7857141,6.7857141 0 1 1 -13.571428,0 6.7857141,6.7857141 0 1 1 13.571428,0 z"
       transform="matrix(0.64220185,0,0,0.64220185,-9.7935786,350.18919)" />
    <path
       sodipodi:type="arc"
       style="fill:#ffffff;stroke:#000000;stroke-width:2;stroke-linejoin:miter;stroke-miterlimit:4;stroke-opacity:1;stroke-dasharray:none"
       id="path5222-8-46"
       sodipodi:cx="42.5"
       sodipodi:cy="722.00507"
       sodipodi:rx="6.7857141"
       sodipodi:ry="6.7857141"
       d="m 49.285714,722.00507 a 6.7857141,6.7857141 0 1 1 -13.571428,0 6.7857141,6.7857141 0 1 1 13.571428,0 z"
       transform="matrix(0.64220185,0,0,0.64220185,15.206421,425.18919)" />
    <path
       sodipodi:type="arc"
       style="fill:#ffffff;stroke:#000000;stroke-width:2;stroke-linejoin:miter;stroke-miterlimit:4;stroke-opacity:1;stroke-dasharray:none"
       id="path5222-8-03"
       sodipodi:cx="42.5"
       sodipodi:cy="722.00507"
       sodipodi:rx="6.7857141"
       sodipodi:ry="6.7857141"
       d="m 49.285714,722.00507 a 6.7857141,6.7857141 0 1 1 -13.571428,0 6.7857141,6.7857141 0 1 1 13.571428,0 z"
       transform="matrix(0.64220185,0,0,0.64220185,40.206421,400.18919)" />
    <path
       sodipodi:type="arc"
       style="fill:#ffffff;stroke:#000000;stroke-width:2;stroke-linejoin:miter;stroke-miterlimit:4;stroke-opacity:1;stroke-dasharray:none"
       id="path5222-8-6"
       sodipodi:cx="42.5"
       sodipodi:cy="722.00507"
       sodipodi:rx="6.7857141"
       sodipodi:ry="6.7857141"
       d="m 49.285714,722.00507 a 6.7857141,6.7857141 0 1 1 -13.571428,0 6.7857141,6.7857141 0 1 1 13.571428,0 z"
       transform="matrix(0.64220185,0,0,0.64220185,65.206421,425.18919)" />
    <path
       sodipodi:type="arc"
       style="fill:#ffffff;stroke:#000000;stroke-width:2;stroke-linejoin:miter;stroke-miterlimit:4;stroke-opacity:1;stroke-dasharray:none"
       id="path5222-8-24"
       sodipodi:cx="42.5"
       sodipodi:cy="722.00507"
       sodipodi:rx="6.7857141"
       sodipodi:ry="6.7857141"
       d="m 49.285714,722.00507 a 6.7857141,6.7857141 0 1 1 -13.571428,0 6.7857141,6.7857141 0 1 1 13.571428,0 z"
       transform="matrix(0.64220185,0,0,0.64220185,-9.7935786,400.18919)" />
    <path
       sodipodi:type="arc"
       style="fill:#ffffff;stroke:#000000;stroke-width:2;stroke-linejoin:miter;stroke-miterlimit:4;stroke-opacity:1;stroke-dasharray:none"
       id="path5222-8-5"
       sodipodi:cx="42.5"
       sodipodi:cy="722.00507"
       sodipodi:rx="6.7857141"
       sodipodi:ry="6.7857141"
       d="m 49.285714,722.00507 a 6.7857141,6.7857141 0 1 1 -13.571428,0 6.7857141,6.7857141 0 1 1 13.571428,0 z"
       transform="matrix(0.64220185,0,0,0.64220185,15.206421,375.18919)" />
    <path
       sodipodi:type="arc"
       style="fill:#ffffff;stroke:#000000;stroke-width:2;stroke-linejoin:miter;stroke-miterlimit:4;stroke-opacity:1;stroke-dasharray:none"
       id="path5222-8-88"
       sodipodi:cx="42.5"
       sodipodi:cy="722.00507"
       sodipodi:rx="6.7857141"
       sodipodi:ry="6.7857141"
       d="m 49.285714,722.00507 a 6.7857141,6.7857141 0 1 1 -13.571428,0 6.7857141,6.7857141 0 1 1 13.571428,0 z"
       transform="matrix(0.64220185,0,0,0.64220185,40.206421,350.18919)" />
    <path
       sodipodi:type="arc"
       style="fill:#ffffff;stroke:#000000;stroke-width:2;stroke-linejoin:miter;stroke-miterlimit:4;stroke-opacity:1;stroke-dasharray:none"
       id="path5222-8-1"
       sodipodi:cx="42.5"
       sodipodi:cy="722.00507"
       sodipodi:rx="6.7857141"
       sodipodi:ry="6.7857141"
       d="m 49.285714,722.00507 a 6.7857141,6.7857141 0 1 1 -13.571428,0 6.7857141,6.7857141 0 1 1 13.571428,0 z"
       transform="matrix(0.64220185,0,0,0.64220185,65.206421,375.18919)" />
    <path
       sodipodi:type="arc"
       style="fill:#ffffff;stroke:#000000;stroke-width:2;stroke-linejoin:miter;stroke-miterlimit:4;stroke-opacity:1;stroke-dasharray:none"
       id="path5222-8-21"
       sodipodi:cx="42.5"
       sodipodi:cy="722.00507"
       sodipodi:rx="6.7857141"
       sodipodi:ry="6.7857141"
       d="m 49.285714,722.00507 a 6.7857141,6.7857141 0 1 1 -13.571428,0 6.7857141,6.7857141 0 1 1 13.571428,0 z"
       transform="matrix(0.64220185,0,0,0.64220185,-9.7935786,300.18919)" />
    <path
       sodipodi:type="arc"
       style="fill:#ffffff;stroke:#000000;stroke-width:2;stroke-linejoin:miter;stroke-miterlimit:4;stroke-opacity:1;stroke-dasharray:none"
       id="path5222-8-49"
       sodipodi:cx="42.5"
       sodipodi:cy="722.00507"
       sodipodi:rx="6.7857141"
       sodipodi:ry="6.7857141"
       d="m 49.285714,722.00507 a 6.7857141,6.7857141 0 1 1 -13.571428,0 6.7857141,6.7857141 0 1 1 13.571428,0 z"
       transform="matrix(0.64220185,0,0,0.64220185,15.206421,325.18919)" />
    <path
       sodipodi:type="arc"
       style="fill:#ffffff;stroke:#000000;stroke-width:2;stroke-linejoin:miter;stroke-miterlimit:4;stroke-opacity:1;stroke-dasharray:none"
       id="path5222-8-82"
       sodipodi:cx="42.5"
       sodipodi:cy="722.00507"
       sodipodi:rx="6.7857141"
       sodipodi:ry="6.7857141"
       d="m 49.285714,722.00507 a 6.7857141,6.7857141 0 1 1 -13.571428,0 6.7857141,6.7857141 0 1 1 13.571428,0 z"
       transform="matrix(0.64220185,0,0,0.64220185,40.206421,300.18919)" />
    <path
       sodipodi:type="arc"
       style="fill:#ffffff;stroke:#000000;stroke-width:2;stroke-linejoin:miter;stroke-miterlimit:4;stroke-opacity:1;stroke-dasharray:none"
       id="path5222-8-45"
       sodipodi:cx="42.5"
       sodipodi:cy="722.00507"
       sodipodi:rx="6.7857141"
       sodipodi:ry="6.7857141"
       d="m 49.285714,722.00507 a 6.7857141,6.7857141 0 1 1 -13.571428,0 6.7857141,6.7857141 0 1 1 13.571428,0 z"
       transform="matrix(0.64220185,0,0,0.64220185,65.206421,325.18919)" />
    <path
       sodipodi:type="arc"
       style="fill:#ffffff;stroke:#000000;stroke-width:2;stroke-linejoin:miter;stroke-miterlimit:4;stroke-opacity:1;stroke-dasharray:none"
       id="path5222-8-29"
       sodipodi:cx="42.5"
       sodipodi:cy="722.00507"
       sodipodi:rx="6.7857141"
       sodipodi:ry="6.7857141"
       d="m 49.285714,722.00507 a 6.7857141,6.7857141 0 1 1 -13.571428,0 6.7857141,6.7857141 0 1 1 13.571428,0 z"
       transform="matrix(0.64220185,0,0,0.64220185,-9.7935786,250.18919)" />
    <path
       sodipodi:type="arc"
       style="fill:#ffffff;stroke:#000000;stroke-width:2;stroke-linejoin:miter;stroke-miterlimit:4;stroke-opacity:1;stroke-dasharray:none"
       id="path5222-8-98"
       sodipodi:cx="42.5"
       sodipodi:cy="722.00507"
       sodipodi:rx="6.7857141"
       sodipodi:ry="6.7857141"
       d="m 49.285714,722.00507 a 6.7857141,6.7857141 0 1 1 -13.571428,0 6.7857141,6.7857141 0 1 1 13.571428,0 z"
       transform="matrix(0.64220185,0,0,0.64220185,15.206421,225.18919)" />
    <path
       sodipodi:type="arc"
       style="fill:#ffffff;stroke:#000000;stroke-width:2;stroke-linejoin:miter;stroke-miterlimit:4;stroke-opacity:1;stroke-dasharray:none"
       id="path5222-8-3"
       sodipodi:cx="42.5"
       sodipodi:cy="722.00507"
       sodipodi:rx="6.7857141"
       sodipodi:ry="6.7857141"
       d="m 49.285714,722.00507 a 6.7857141,6.7857141 0 1 1 -13.571428,0 6.7857141,6.7857141 0 1 1 13.571428,0 z"
       transform="matrix(0.64220185,0,0,0.64220185,40.206421,200.18919)" />
    <path
       sodipodi:type="arc"
       style="fill:#ffffff;stroke:#000000;stroke-width:2;stroke-linejoin:miter;stroke-miterlimit:4;stroke-opacity:1;stroke-dasharray:none"
       id="path5222-8-86"
       sodipodi:cx="42.5"
       sodipodi:cy="722.00507"
       sodipodi:rx="6.7857141"
       sodipodi:ry="6.7857141"
       d="m 49.285714,722.00507 a 6.7857141,6.7857141 0 1 1 -13.571428,0 6.7857141,6.7857141 0 1 1 13.571428,0 z"
       transform="matrix(0.64220185,0,0,0.64220185,65.206421,225.18919)" />
    <path
       sodipodi:type="arc"
       style="fill:#ffffff;stroke:#000000;stroke-width:2;stroke-linejoin:miter;stroke-miterlimit:4;stroke-opacity:1;stroke-dasharray:none"
       id="path5222-8-986"
       sodipodi:cx="42.5"
       sodipodi:cy="722.00507"
       sodipodi:rx="6.7857141"
       sodipodi:ry="6.7857141"
       d="m 49.285714,722.00507 a 6.7857141,6.7857141 0 1 1 -13.571428,0 6.7857141,6.7857141 0 1 1 13.571428,0 z"
       transform="matrix(0.64220185,0,0,0.64220185,-9.7935786,200.18919)" />
    <path
       sodipodi:type="arc"
       style="fill:#ffffff;stroke:#000000;stroke-width:2;stroke-linejoin:miter;stroke-miterlimit:4;stroke-opacity:1;stroke-dasharray:none"
       id="path5222-8-62"
       sodipodi:cx="42.5"
       sodipodi:cy="722.00507"
       sodipodi:rx="6.7857141"
       sodipodi:ry="6.7857141"
       d="m 49.285714,722.00507 a 6.7857141,6.7857141 0 1 1 -13.571428,0 6.7857141,6.7857141 0 1 1 13.571428,0 z"
       transform="matrix(0.64220185,0,0,0.64220185,14.206421,275.18919)" />
    <path
       sodipodi:type="arc"
       style="fill:#ffffff;stroke:#000000;stroke-width:2;stroke-linejoin:miter;stroke-miterlimit:4;stroke-opacity:1;stroke-dasharray:none"
       id="path5222-8-38"
       sodipodi:cx="42.5"
       sodipodi:cy="722.00507"
       sodipodi:rx="6.7857141"
       sodipodi:ry="6.7857141"
       d="m 49.285714,722.00507 a 6.7857141,6.7857141 0 1 1 -13.571428,0 6.7857141,6.7857141 0 1 1 13.571428,0 z"
       transform="matrix(0.64220185,0,0,0.64220185,40.206421,250.18919)" />
    <path
       sodipodi:type="arc"
       style="fill:#ffffff;stroke:#000000;stroke-width:2;stroke-linejoin:miter;stroke-miterlimit:4;stroke-opacity:1;stroke-dasharray:none"
       id="path5222-8-262"
       sodipodi:cx="42.5"
       sodipodi:cy="722.00507"
       sodipodi:rx="6.7857141"
       sodipodi:ry="6.7857141"
       d="m 49.285714,722.00507 a 6.7857141,6.7857141 0 1 1 -13.571428,0 6.7857141,6.7857141 0 1 1 13.571428,0 z"
       transform="matrix(0.64220185,0,0,0.64220185,65.206421,275.18919)" />
    <rect
       style="fill:#f2f2f2;fill-rule:evenodd;stroke:#000000;stroke-width:2.08525133;stroke-linecap:butt;stroke-linejoin:miter;stroke-miterlimit:4;stroke-opacity:1;stroke-dasharray:none"
       id="rect2985-7"
       width="107.91475"
       height="399.16489"
       x="-258.9574"
       y="652.15466"
       rx="9.444438e-018"
       transform="scale(-1,1)" />
    <path
       sodipodi:type="arc"
       style="fill:#ffffff;stroke:#000000;stroke-width:2;stroke-linejoin:miter;stroke-miterlimit:4;stroke-opacity:1;stroke-dasharray:none"
       id="path5222-5"
       sodipodi:cx="42.5"
       sodipodi:cy="722.00507"
       sodipodi:rx="6.7857141"
       sodipodi:ry="6.7857141"
       d="m 49.285714,722.00507 a 6.7857141,6.7857141 0 1 1 -13.571428,0 6.7857141,6.7857141 0 1 1 13.571428,0 z"
       transform="matrix(-0.64220185,0,0,0.64220185,269.79361,550.18921)" />
    <path
       sodipodi:type="arc"
       style="fill:#ffffff;stroke:#000000;stroke-width:2;stroke-linejoin:miter;stroke-miterlimit:4;stroke-opacity:1;stroke-dasharray:none"
       id="path5222-3-7"
       sodipodi:cx="42.5"
       sodipodi:cy="722.00507"
       sodipodi:rx="6.7857141"
       sodipodi:ry="6.7857141"
       d="m 49.285714,722.00507 a 6.7857141,6.7857141 0 1 1 -13.571428,0 6.7857141,6.7857141 0 1 1 13.571428,0 z"
       transform="matrix(-0.64220185,0,0,0.64220185,244.79361,575.18922)" />
    <path
       sodipodi:type="arc"
       style="fill:#ffffff;stroke:#000000;stroke-width:2;stroke-linejoin:miter;stroke-miterlimit:4;stroke-opacity:1;stroke-dasharray:none"
       id="path5222-3-1-8"
       sodipodi:cx="42.5"
       sodipodi:cy="722.00507"
       sodipodi:rx="6.7857141"
       sodipodi:ry="6.7857141"
       d="m 49.285714,722.00507 a 6.7857141,6.7857141 0 1 1 -13.571428,0 6.7857141,6.7857141 0 1 1 13.571428,0 z"
       transform="matrix(-0.64220185,0,0,0.64220185,219.79361,550.18921)" />
    <path
       sodipodi:type="arc"
       style="fill:#ffffff;stroke:#000000;stroke-width:2;stroke-linejoin:miter;stroke-miterlimit:4;stroke-opacity:1;stroke-dasharray:none"
       id="path5222-3-1-6-2"
       sodipodi:cx="42.5"
       sodipodi:cy="722.00507"
       sodipodi:rx="6.7857141"
       sodipodi:ry="6.7857141"
       d="m 49.285714,722.00507 a 6.7857141,6.7857141 0 1 1 -13.571428,0 6.7857141,6.7857141 0 1 1 13.571428,0 z"
       transform="matrix(-0.64220185,0,0,0.64220185,194.79361,575.18922)" />
    <path
       sodipodi:type="arc"
       style="fill:#ffffff;stroke:#000000;stroke-width:2;stroke-linejoin:miter;stroke-miterlimit:4;stroke-opacity:1;stroke-dasharray:none"
       id="path5222-8-78"
       sodipodi:cx="42.5"
       sodipodi:cy="722.00507"
       sodipodi:rx="6.7857141"
       sodipodi:ry="6.7857141"
       d="m 49.285714,722.00507 a 6.7857141,6.7857141 0 1 1 -13.571428,0 6.7857141,6.7857141 0 1 1 13.571428,0 z"
       transform="matrix(-0.64220185,0,0,0.64220185,269.79361,500.18921)" />
    <path
       sodipodi:type="arc"
       style="fill:#ffffff;stroke:#000000;stroke-width:2;stroke-linejoin:miter;stroke-miterlimit:4;stroke-opacity:1;stroke-dasharray:none"
       id="path5222-8-8-0"
       sodipodi:cx="42.5"
       sodipodi:cy="722.00507"
       sodipodi:rx="6.7857141"
       sodipodi:ry="6.7857141"
       d="m 49.285714,722.00507 a 6.7857141,6.7857141 0 1 1 -13.571428,0 6.7857141,6.7857141 0 1 1 13.571428,0 z"
       transform="matrix(-0.64220185,0,0,0.64220185,244.79361,525.18921)" />
    <path
       sodipodi:type="arc"
       style="fill:#ffffff;stroke:#000000;stroke-width:2;stroke-linejoin:miter;stroke-miterlimit:4;stroke-opacity:1;stroke-dasharray:none"
       id="path5222-8-2-2"
       sodipodi:cx="42.5"
       sodipodi:cy="722.00507"
       sodipodi:rx="6.7857141"
       sodipodi:ry="6.7857141"
       d="m 49.285714,722.00507 a 6.7857141,6.7857141 0 1 1 -13.571428,0 6.7857141,6.7857141 0 1 1 13.571428,0 z"
       transform="matrix(-0.64220185,0,0,0.64220185,219.79361,500.18921)" />
    <path
       sodipodi:type="arc"
       style="fill:#ffffff;stroke:#000000;stroke-width:2;stroke-linejoin:miter;stroke-miterlimit:4;stroke-opacity:1;stroke-dasharray:none"
       id="path5222-8-7-0"
       sodipodi:cx="42.5"
       sodipodi:cy="722.00507"
       sodipodi:rx="6.7857141"
       sodipodi:ry="6.7857141"
       d="m 49.285714,722.00507 a 6.7857141,6.7857141 0 1 1 -13.571428,0 6.7857141,6.7857141 0 1 1 13.571428,0 z"
       transform="matrix(-0.64220185,0,0,0.64220185,194.79361,525.18921)" />
    <path
       sodipodi:type="arc"
       style="fill:#ffffff;stroke:#000000;stroke-width:2;stroke-linejoin:miter;stroke-miterlimit:4;stroke-opacity:1;stroke-dasharray:none"
       id="path5222-8-71-8"
       sodipodi:cx="42.5"
       sodipodi:cy="722.00507"
       sodipodi:rx="6.7857141"
       sodipodi:ry="6.7857141"
       d="m 49.285714,722.00507 a 6.7857141,6.7857141 0 1 1 -13.571428,0 6.7857141,6.7857141 0 1 1 13.571428,0 z"
       transform="matrix(-0.64220185,0,0,0.64220185,269.79361,450.18921)" />
    <path
       sodipodi:type="arc"
       style="fill:#ffffff;stroke:#000000;stroke-width:2;stroke-linejoin:miter;stroke-miterlimit:4;stroke-opacity:1;stroke-dasharray:none"
       id="path5222-8-26-9"
       sodipodi:cx="42.5"
       sodipodi:cy="722.00507"
       sodipodi:rx="6.7857141"
       sodipodi:ry="6.7857141"
       d="m 49.285714,722.00507 a 6.7857141,6.7857141 0 1 1 -13.571428,0 6.7857141,6.7857141 0 1 1 13.571428,0 z"
       transform="matrix(-0.64220185,0,0,0.64220185,244.79361,475.18921)" />
    <path
       sodipodi:type="arc"
       style="fill:#ffffff;stroke:#000000;stroke-width:2;stroke-linejoin:miter;stroke-miterlimit:4;stroke-opacity:1;stroke-dasharray:none"
       id="path5222-8-0-2"
       sodipodi:cx="42.5"
       sodipodi:cy="722.00507"
       sodipodi:rx="6.7857141"
       sodipodi:ry="6.7857141"
       d="m 49.285714,722.00507 a 6.7857141,6.7857141 0 1 1 -13.571428,0 6.7857141,6.7857141 0 1 1 13.571428,0 z"
       transform="matrix(-0.64220185,0,0,0.64220185,219.79361,450.18921)" />
    <path
       sodipodi:type="arc"
       style="fill:#ffffff;stroke:#000000;stroke-width:2;stroke-linejoin:miter;stroke-miterlimit:4;stroke-opacity:1;stroke-dasharray:none"
       id="path5222-8-4-8"
       sodipodi:cx="42.5"
       sodipodi:cy="722.00507"
       sodipodi:rx="6.7857141"
       sodipodi:ry="6.7857141"
       d="m 49.285714,722.00507 a 6.7857141,6.7857141 0 1 1 -13.571428,0 6.7857141,6.7857141 0 1 1 13.571428,0 z"
       transform="matrix(-0.64220185,0,0,0.64220185,194.79361,475.18921)" />
    <path
       sodipodi:type="arc"
       style="fill:#ffffff;stroke:#000000;stroke-width:2;stroke-linejoin:miter;stroke-miterlimit:4;stroke-opacity:1;stroke-dasharray:none"
       id="path5222-8-9-2"
       sodipodi:cx="42.5"
       sodipodi:cy="722.00507"
       sodipodi:rx="6.7857141"
       sodipodi:ry="6.7857141"
       d="m 49.285714,722.00507 a 6.7857141,6.7857141 0 1 1 -13.571428,0 6.7857141,6.7857141 0 1 1 13.571428,0 z"
       transform="matrix(-0.64220185,0,0,0.64220185,269.79361,350.18921)" />
    <path
       sodipodi:type="arc"
       style="fill:#ffffff;stroke:#000000;stroke-width:2;stroke-linejoin:miter;stroke-miterlimit:4;stroke-opacity:1;stroke-dasharray:none"
       id="path5222-8-46-0"
       sodipodi:cx="42.5"
       sodipodi:cy="722.00507"
       sodipodi:rx="6.7857141"
       sodipodi:ry="6.7857141"
       d="m 49.285714,722.00507 a 6.7857141,6.7857141 0 1 1 -13.571428,0 6.7857141,6.7857141 0 1 1 13.571428,0 z"
       transform="matrix(-0.64220185,0,0,0.64220185,244.79361,425.18921)" />
    <path
       sodipodi:type="arc"
       style="fill:#ffffff;stroke:#000000;stroke-width:2;stroke-linejoin:miter;stroke-miterlimit:4;stroke-opacity:1;stroke-dasharray:none"
       id="path5222-8-03-5"
       sodipodi:cx="42.5"
       sodipodi:cy="722.00507"
       sodipodi:rx="6.7857141"
       sodipodi:ry="6.7857141"
       d="m 49.285714,722.00507 a 6.7857141,6.7857141 0 1 1 -13.571428,0 6.7857141,6.7857141 0 1 1 13.571428,0 z"
       transform="matrix(-0.64220185,0,0,0.64220185,219.79361,400.18921)" />
    <path
       sodipodi:type="arc"
       style="fill:#ffffff;stroke:#000000;stroke-width:2;stroke-linejoin:miter;stroke-miterlimit:4;stroke-opacity:1;stroke-dasharray:none"
       id="path5222-8-6-5"
       sodipodi:cx="42.5"
       sodipodi:cy="722.00507"
       sodipodi:rx="6.7857141"
       sodipodi:ry="6.7857141"
       d="m 49.285714,722.00507 a 6.7857141,6.7857141 0 1 1 -13.571428,0 6.7857141,6.7857141 0 1 1 13.571428,0 z"
       transform="matrix(-0.64220185,0,0,0.64220185,194.79361,425.18921)" />
    <path
       sodipodi:type="arc"
       style="fill:#ffffff;stroke:#000000;stroke-width:2;stroke-linejoin:miter;stroke-miterlimit:4;stroke-opacity:1;stroke-dasharray:none"
       id="path5222-8-24-2"
       sodipodi:cx="42.5"
       sodipodi:cy="722.00507"
       sodipodi:rx="6.7857141"
       sodipodi:ry="6.7857141"
       d="m 49.285714,722.00507 a 6.7857141,6.7857141 0 1 1 -13.571428,0 6.7857141,6.7857141 0 1 1 13.571428,0 z"
       transform="matrix(-0.64220185,0,0,0.64220185,269.79361,400.18921)" />
    <path
       sodipodi:type="arc"
       style="fill:#ffffff;stroke:#000000;stroke-width:2;stroke-linejoin:miter;stroke-miterlimit:4;stroke-opacity:1;stroke-dasharray:none"
       id="path5222-8-5-7"
       sodipodi:cx="42.5"
       sodipodi:cy="722.00507"
       sodipodi:rx="6.7857141"
       sodipodi:ry="6.7857141"
       d="m 49.285714,722.00507 a 6.7857141,6.7857141 0 1 1 -13.571428,0 6.7857141,6.7857141 0 1 1 13.571428,0 z"
       transform="matrix(-0.64220185,0,0,0.64220185,244.79361,375.18921)" />
    <path
       sodipodi:type="arc"
       style="fill:#ffffff;stroke:#000000;stroke-width:2;stroke-linejoin:miter;stroke-miterlimit:4;stroke-opacity:1;stroke-dasharray:none"
       id="path5222-8-88-6"
       sodipodi:cx="42.5"
       sodipodi:cy="722.00507"
       sodipodi:rx="6.7857141"
       sodipodi:ry="6.7857141"
       d="m 49.285714,722.00507 a 6.7857141,6.7857141 0 1 1 -13.571428,0 6.7857141,6.7857141 0 1 1 13.571428,0 z"
       transform="matrix(-0.64220185,0,0,0.64220185,219.79361,350.18921)" />
    <path
       sodipodi:type="arc"
       style="fill:#ffffff;stroke:#000000;stroke-width:2;stroke-linejoin:miter;stroke-miterlimit:4;stroke-opacity:1;stroke-dasharray:none"
       id="path5222-8-1-7"
       sodipodi:cx="42.5"
       sodipodi:cy="722.00507"
       sodipodi:rx="6.7857141"
       sodipodi:ry="6.7857141"
       d="m 49.285714,722.00507 a 6.7857141,6.7857141 0 1 1 -13.571428,0 6.7857141,6.7857141 0 1 1 13.571428,0 z"
       transform="matrix(-0.64220185,0,0,0.64220185,194.79361,375.18921)" />
    <path
       sodipodi:type="arc"
       style="fill:#ffffff;stroke:#000000;stroke-width:2;stroke-linejoin:miter;stroke-miterlimit:4;stroke-opacity:1;stroke-dasharray:none"
       id="path5222-8-21-8"
       sodipodi:cx="42.5"
       sodipodi:cy="722.00507"
       sodipodi:rx="6.7857141"
       sodipodi:ry="6.7857141"
       d="m 49.285714,722.00507 a 6.7857141,6.7857141 0 1 1 -13.571428,0 6.7857141,6.7857141 0 1 1 13.571428,0 z"
       transform="matrix(-0.64220185,0,0,0.64220185,269.79361,300.18921)" />
    <path
       sodipodi:type="arc"
       style="fill:#ffffff;stroke:#000000;stroke-width:2;stroke-linejoin:miter;stroke-miterlimit:4;stroke-opacity:1;stroke-dasharray:none"
       id="path5222-8-49-7"
       sodipodi:cx="42.5"
       sodipodi:cy="722.00507"
       sodipodi:rx="6.7857141"
       sodipodi:ry="6.7857141"
       d="m 49.285714,722.00507 a 6.7857141,6.7857141 0 1 1 -13.571428,0 6.7857141,6.7857141 0 1 1 13.571428,0 z"
       transform="matrix(-0.64220185,0,0,0.64220185,244.79361,325.18921)" />
    <path
       sodipodi:type="arc"
       style="fill:#ffffff;stroke:#000000;stroke-width:2;stroke-linejoin:miter;stroke-miterlimit:4;stroke-opacity:1;stroke-dasharray:none"
       id="path5222-8-82-8"
       sodipodi:cx="42.5"
       sodipodi:cy="722.00507"
       sodipodi:rx="6.7857141"
       sodipodi:ry="6.7857141"
       d="m 49.285714,722.00507 a 6.7857141,6.7857141 0 1 1 -13.571428,0 6.7857141,6.7857141 0 1 1 13.571428,0 z"
       transform="matrix(-0.64220185,0,0,0.64220185,219.79361,300.18921)" />
    <path
       sodipodi:type="arc"
       style="fill:#ffffff;stroke:#000000;stroke-width:2;stroke-linejoin:miter;stroke-miterlimit:4;stroke-opacity:1;stroke-dasharray:none"
       id="path5222-8-45-1"
       sodipodi:cx="42.5"
       sodipodi:cy="722.00507"
       sodipodi:rx="6.7857141"
       sodipodi:ry="6.7857141"
       d="m 49.285714,722.00507 a 6.7857141,6.7857141 0 1 1 -13.571428,0 6.7857141,6.7857141 0 1 1 13.571428,0 z"
       transform="matrix(-0.64220185,0,0,0.64220185,194.79361,325.18921)" />
    <path
       sodipodi:type="arc"
       style="fill:#ffffff;stroke:#000000;stroke-width:2;stroke-linejoin:miter;stroke-miterlimit:4;stroke-opacity:1;stroke-dasharray:none"
       id="path5222-8-29-6"
       sodipodi:cx="42.5"
       sodipodi:cy="722.00507"
       sodipodi:rx="6.7857141"
       sodipodi:ry="6.7857141"
       d="m 49.285714,722.00507 a 6.7857141,6.7857141 0 1 1 -13.571428,0 6.7857141,6.7857141 0 1 1 13.571428,0 z"
       transform="matrix(-0.64220185,0,0,0.64220185,269.79361,250.18921)" />
    <path
       sodipodi:type="arc"
       style="fill:#ffffff;stroke:#000000;stroke-width:2;stroke-linejoin:miter;stroke-miterlimit:4;stroke-opacity:1;stroke-dasharray:none"
       id="path5222-8-98-0"
       sodipodi:cx="42.5"
       sodipodi:cy="722.00507"
       sodipodi:rx="6.7857141"
       sodipodi:ry="6.7857141"
       d="m 49.285714,722.00507 a 6.7857141,6.7857141 0 1 1 -13.571428,0 6.7857141,6.7857141 0 1 1 13.571428,0 z"
       transform="matrix(-0.64220185,0,0,0.64220185,244.79361,225.18921)" />
    <path
       sodipodi:type="arc"
       style="fill:#ffffff;stroke:#000000;stroke-width:2;stroke-linejoin:miter;stroke-miterlimit:4;stroke-opacity:1;stroke-dasharray:none"
       id="path5222-8-3-9"
       sodipodi:cx="42.5"
       sodipodi:cy="722.00507"
       sodipodi:rx="6.7857141"
       sodipodi:ry="6.7857141"
       d="m 49.285714,722.00507 a 6.7857141,6.7857141 0 1 1 -13.571428,0 6.7857141,6.7857141 0 1 1 13.571428,0 z"
       transform="matrix(-0.64220185,0,0,0.64220185,219.79361,200.18921)" />
    <path
       sodipodi:type="arc"
       style="fill:#ffffff;stroke:#000000;stroke-width:2;stroke-linejoin:miter;stroke-miterlimit:4;stroke-opacity:1;stroke-dasharray:none"
       id="path5222-8-86-5"
       sodipodi:cx="42.5"
       sodipodi:cy="722.00507"
       sodipodi:rx="6.7857141"
       sodipodi:ry="6.7857141"
       d="m 49.285714,722.00507 a 6.7857141,6.7857141 0 1 1 -13.571428,0 6.7857141,6.7857141 0 1 1 13.571428,0 z"
       transform="matrix(-0.64220185,0,0,0.64220185,194.79361,225.18921)" />
    <path
       sodipodi:type="arc"
       style="fill:#ffffff;stroke:#000000;stroke-width:2;stroke-linejoin:miter;stroke-miterlimit:4;stroke-opacity:1;stroke-dasharray:none"
       id="path5222-8-986-8"
       sodipodi:cx="42.5"
       sodipodi:cy="722.00507"
       sodipodi:rx="6.7857141"
       sodipodi:ry="6.7857141"
       d="m 49.285714,722.00507 a 6.7857141,6.7857141 0 1 1 -13.571428,0 6.7857141,6.7857141 0 1 1 13.571428,0 z"
       transform="matrix(-0.64220185,0,0,0.64220185,269.79361,200.18921)" />
    <path
       sodipodi:type="arc"
       style="fill:#ffffff;stroke:#000000;stroke-width:2;stroke-linejoin:miter;stroke-miterlimit:4;stroke-opacity:1;stroke-dasharray:none"
       id="path5222-8-62-9"
       sodipodi:cx="42.5"
       sodipodi:cy="722.00507"
       sodipodi:rx="6.7857141"
       sodipodi:ry="6.7857141"
       d="m 49.285714,722.00507 a 6.7857141,6.7857141 0 1 1 -13.571428,0 6.7857141,6.7857141 0 1 1 13.571428,0 z"
       transform="matrix(-0.64220185,0,0,0.64220185,245.79361,275.18921)" />
    <path
       sodipodi:type="arc"
       style="fill:#ffffff;stroke:#000000;stroke-width:2;stroke-linejoin:miter;stroke-miterlimit:4;stroke-opacity:1;stroke-dasharray:none"
       id="path5222-8-38-0"
       sodipodi:cx="42.5"
       sodipodi:cy="722.00507"
       sodipodi:rx="6.7857141"
       sodipodi:ry="6.7857141"
       d="m 49.285714,722.00507 a 6.7857141,6.7857141 0 1 1 -13.571428,0 6.7857141,6.7857141 0 1 1 13.571428,0 z"
       transform="matrix(-0.64220185,0,0,0.64220185,219.79361,250.18921)" />
    <path
       sodipodi:type="arc"
       style="fill:#ffffff;stroke:#000000;stroke-width:2;stroke-linejoin:miter;stroke-miterlimit:4;stroke-opacity:1;stroke-dasharray:none"
       id="path5222-8-262-0"
       sodipodi:cx="42.5"
       sodipodi:cy="722.00507"
       sodipodi:rx="6.7857141"
       sodipodi:ry="6.7857141"
       d="m 49.285714,722.00507 a 6.7857141,6.7857141 0 1 1 -13.571428,0 6.7857141,6.7857141 0 1 1 13.571428,0 z"
       transform="matrix(-0.64220185,0,0,0.64220185,194.79361,275.18921)" />
  </g>
</svg>
